<?xml version="1.0" encoding="UTF-8"?>
<!DOCTYPE svg PUBLIC "-//W3C//DTD SVG 1.1//EN" "http://www.w3.org/Graphics/SVG/1.1/DTD/svg11.dtd">
<svg xmlns="http://www.w3.org/2000/svg" style="background: transparent; background-color: transparent; color-scheme: light;" xmlns:xlink="http://www.w3.org/1999/xlink" version="1.1" width="1521px" height="814px" viewBox="0 0 1521 814"><defs/><g><g data-cell-id="0"><g data-cell-id="1"><g data-cell-id="title"><g transform="translate(0.5,0.5)"><rect x="0" y="0" width="1520" height="40" fill="none" stroke="none" pointer-events="all"/></g><g><g><switch><foreignObject style="overflow: visible; text-align: left;" pointer-events="none" width="100%" height="100%" requiredFeatures="http://www.w3.org/TR/SVG11/feature#Extensibility"><div xmlns="http://www.w3.org/1999/xhtml" style="display: flex; align-items: unsafe center; justify-content: unsafe center; width: 1518px; height: 1px; padding-top: 20px; margin-left: 1px;"><div style="box-sizing: border-box; font-size: 0; text-align: center; color: #232F3E; "><div style="display: inline-block; font-size: 20px; font-family: Helvetica; color: light-dark(#232F3E, #bdc7d4); line-height: 1.2; pointer-events: all; font-weight: bold; white-space: normal; word-wrap: normal; ">Private Hosted Zone + 名前解決設計 — Split-horizon / VPC共有 / RAM</div></div></div></foreignObject><text x="760" y="26" fill="#232F3E" font-family="Helvetica" font-size="20px" text-anchor="middle" font-weight="bold">Private Hosted Zone + 名前解決設計 — Split-horizon / VPC共有 / RAM</text></switch></g></g></g><g data-cell-id="dns_acc"><g transform="translate(0.5,0.5)"><path d="M 20 60 L 520 60 L 520 560 L 20 560 Z" fill="#ebf1ff" stroke="#3b48cc" stroke-miterlimit="10" pointer-events="all" style="fill: light-dark(rgb(235, 241, 255), rgb(25, 30, 42)); stroke: light-dark(rgb(59, 72, 204), rgb(152, 163, 255));"/><path d="M 20 60 L 20 85 L 45 85 L 45 60 L 20 60 Z M 24.09 63.69 L 40.91 63.69 C 41.01 63.69 41.12 63.73 41.19 63.81 C 41.27 63.88 41.31 63.99 41.31 64.09 L 41.31 80.91 C 41.31 81.01 41.27 81.12 41.19 81.19 C 41.12 81.27 41.01 81.31 40.91 81.31 L 24.09 81.31 C 23.99 81.31 23.88 81.27 23.81 81.19 C 23.73 81.12 23.69 81.01 23.69 80.91 L 23.69 64.09 C 23.69 63.99 23.73 63.88 23.81 63.81 C 23.88 63.73 23.99 63.69 24.09 63.69 Z M 24.49 64.49 L 24.49 80.51 L 40.51 80.51 L 40.51 64.49 L 24.49 64.49 Z M 36.5 65.31 C 36.65 65.31 36.79 65.38 36.86 65.52 L 39.46 70.72 C 39.53 70.84 39.52 70.99 39.45 71.11 C 39.37 71.23 39.25 71.3 39.11 71.3 L 33.9 71.3 L 33.9 71.3 C 33.76 71.3 33.63 71.23 33.56 71.11 C 33.49 70.99 33.48 70.84 33.54 70.72 L 36.14 65.52 C 36.21 65.38 36.36 65.31 36.5 65.31 Z M 36.5 66.59 L 34.55 70.5 L 38.46 70.5 L 36.5 66.59 Z M 26.09 69.3 L 31.3 69.3 C 31.41 69.3 31.51 69.34 31.58 69.41 C 31.66 69.49 31.7 69.59 31.7 69.7 L 31.7 74.9 C 31.7 75.01 31.66 75.11 31.58 75.19 C 31.51 75.26 31.41 75.3 31.3 75.3 L 26.09 75.3 C 25.99 75.3 25.89 75.26 25.81 75.19 C 25.74 75.11 25.69 75.01 25.69 74.9 L 25.69 69.7 C 25.69 69.59 25.74 69.49 25.81 69.41 C 25.89 69.34 25.99 69.3 26.09 69.3 Z M 26.49 70.1 L 26.49 74.5 L 30.9 74.5 L 30.9 70.1 L 26.49 70.1 Z M 35.7 73.3 C 37.47 73.3 38.9 74.74 38.91 76.5 C 38.9 78.27 37.47 79.7 35.7 79.71 C 33.94 79.7 32.5 78.27 32.5 76.5 C 32.5 74.74 33.94 73.3 35.7 73.3 Z M 35.7 74.1 C 34.38 74.1 33.3 75.18 33.3 76.5 C 33.3 77.83 34.38 78.9 35.7 78.91 C 37.03 78.9 38.1 77.83 38.1 76.5 C 38.1 75.18 37.03 74.1 35.7 74.1 Z" fill="#3b48cc" stroke="none" pointer-events="all" style="fill: light-dark(rgb(59, 72, 204), rgb(152, 163, 255));"/></g><g><g><switch><foreignObject style="overflow: visible; text-align: left;" pointer-events="none" width="100%" height="100%" requiredFeatures="http://www.w3.org/TR/SVG11/feature#Extensibility"><div xmlns="http://www.w3.org/1999/xhtml" style="display: flex; align-items: unsafe flex-start; justify-content: unsafe flex-start; width: 468px; height: 1px; padding-top: 67px; margin-left: 52px;"><div style="box-sizing: border-box; font-size: 0; text-align: left; color: #232F3E; "><div style="display: inline-block; font-size: 12px; font-family: Helvetica; color: light-dark(#232F3E, #bdc7d4); line-height: 1.2; pointer-events: all; font-weight: bold; white-space: normal; word-wrap: normal; ">Network/DNS 中央アカウント (444455556666)</div></div></div></foreignObject><text x="52" y="79" fill="#232F3E" font-family="Helvetica" font-size="12px" font-weight="bold">Network/DNS 中央アカウント (444455556666)</text></switch></g></g></g><g data-cell-id="phz_main"><g transform="translate(0.5,0.5)"><path d="M 60 110 L 120 110 L 120 170 L 60 170 Z" fill="#8c4fff" stroke="none" pointer-events="all" style="fill: light-dark(rgb(140, 79, 255), rgb(177, 125, 255));"/><path d="M 97.43 140.63 C 98.07 141.22 98.38 142 98.38 142.98 C 98.38 144.05 98 144.91 97.23 145.55 C 96.46 146.19 95.42 146.5 94.13 146.5 C 93.1 146.5 92.09 146.29 91.08 145.85 L 91.08 144.54 C 92.27 144.93 93.29 145.13 94.13 145.13 C 94.96 145.13 95.6 144.94 96.04 144.57 C 96.49 144.2 96.71 143.67 96.71 142.98 C 96.71 141.66 95.88 141 94.21 141 C 93.69 141 93.17 141.03 92.65 141.08 L 92.65 140 L 96.09 136.25 L 91.25 136.25 L 91.25 134.91 L 97.91 134.91 L 97.91 136.21 L 94.54 139.78 C 94.59 139.76 94.64 139.76 94.7 139.76 L 94.86 139.76 C 95.94 139.76 96.8 140.05 97.43 140.63 M 87.93 140.35 C 88.59 140.97 88.92 141.83 88.92 142.92 C 88.92 143.99 88.54 144.85 87.76 145.51 C 86.99 146.17 85.97 146.5 84.7 146.5 C 83.59 146.5 82.55 146.29 81.57 145.85 L 81.57 144.54 C 82.79 144.93 83.82 145.13 84.68 145.13 C 85.51 145.13 86.15 144.94 86.59 144.56 C 87.03 144.19 87.25 143.64 87.25 142.93 C 87.25 142.16 87.05 141.6 86.63 141.25 C 86.22 140.9 85.54 140.72 84.6 140.72 C 83.93 140.72 83.08 140.78 82.06 140.89 L 82.06 139.81 L 82.38 134.91 L 88.35 134.91 L 88.35 136.25 L 83.75 136.25 L 83.54 139.58 C 84.14 139.47 84.68 139.42 85.16 139.42 C 86.34 139.42 87.26 139.73 87.93 140.35 M 100.23 152.35 C 96.07 153.1 92.44 154.79 90 156.16 C 87.56 154.79 83.92 153.1 79.77 152.35 C 78.61 152.14 72.78 150.92 72.78 147.56 C 72.78 146 73.34 144.96 74.41 143.12 C 75.7 140.91 77.29 138.16 77.29 134.2 C 77.29 131.37 76.55 128.66 75.08 126.13 C 75.26 125.91 75.43 125.7 75.61 125.48 C 77.78 126.57 80.03 127.11 82.33 127.11 C 85.13 127.11 87.71 126.38 90 124.92 C 92.29 126.38 94.86 127.11 97.67 127.11 C 99.97 127.11 102.22 126.57 104.39 125.48 C 104.57 125.7 104.74 125.91 104.92 126.13 C 103.45 128.66 102.71 131.37 102.71 134.2 C 102.71 138.16 104.3 140.91 105.59 143.12 C 106.66 144.96 107.22 146 107.22 147.56 C 107.22 150.92 101.39 152.14 100.23 152.35 M 104.42 134.2 C 104.42 131.5 105.18 128.91 106.68 126.5 C 106.88 126.19 106.85 125.79 106.62 125.51 C 106.19 124.98 105.73 124.42 105.28 123.86 C 105.02 123.54 104.57 123.45 104.2 123.65 C 102.1 124.81 99.9 125.4 97.67 125.4 C 94.98 125.4 92.63 124.68 90.49 123.19 C 90.19 122.99 89.81 122.99 89.51 123.19 C 87.37 124.68 85.02 125.4 82.33 125.4 C 80.1 125.4 77.9 124.81 75.8 123.65 C 75.43 123.45 74.98 123.54 74.72 123.86 C 74.27 124.42 73.81 124.98 73.38 125.51 C 73.15 125.79 73.12 126.19 73.32 126.5 C 74.82 128.91 75.58 131.5 75.58 134.2 C 75.58 137.7 74.11 140.23 72.93 142.26 C 71.78 144.25 71.07 145.57 71.07 147.56 C 71.07 152.17 77.5 153.68 79.47 154.03 C 83.63 154.78 87.26 156.54 89.57 157.89 C 89.7 157.97 89.85 158 90 158 C 90.15 158 90.3 157.97 90.43 157.89 C 92.74 156.54 96.37 154.78 100.53 154.03 C 102.5 153.68 108.93 152.17 108.93 147.56 C 108.93 145.57 108.22 144.25 107.07 142.26 C 105.89 140.23 104.42 137.7 104.42 134.2 M 101.11 157.29 C 95.87 158.23 91.47 161.05 90 162.09 C 88.53 161.05 84.13 158.23 78.89 157.29 C 68.56 155.44 67.76 149.37 67.76 147.56 C 67.76 144.57 68.94 142.55 70.07 140.6 C 71.15 138.74 72.27 136.81 72.27 134.2 C 72.27 130.08 69.89 127.17 68.71 125.98 C 69.95 124.48 73.07 120.67 74.61 118.69 C 76.94 120.89 79.65 122.09 82.33 122.09 C 85.3 122.09 87.76 120.88 90 118.3 C 92.24 120.88 94.7 122.09 97.67 122.09 C 100.35 122.09 103.06 120.89 105.39 118.69 C 106.93 120.67 110.05 124.48 111.28 125.98 C 110.11 127.17 107.73 130.08 107.73 134.2 C 107.73 136.81 108.85 138.74 109.93 140.6 C 111.06 142.55 112.24 144.57 112.24 147.56 C 112.24 149.37 111.43 155.44 101.11 157.29 M 111.41 139.74 C 110.35 137.92 109.44 136.35 109.44 134.2 C 109.44 129.68 112.96 126.75 113 126.72 C 113.17 126.58 113.29 126.37 113.31 126.14 C 113.33 125.92 113.26 125.69 113.12 125.51 C 113.06 125.44 107.45 118.65 106.17 116.89 C 106.02 116.68 105.79 116.55 105.53 116.54 C 105.27 116.52 105.03 116.62 104.85 116.81 C 102.7 119.11 100.15 120.38 97.67 120.38 C 94.93 120.38 92.77 119.16 90.68 116.42 C 90.35 116 89.65 116 89.32 116.42 C 87.22 119.16 85.07 120.38 82.33 120.38 C 79.85 120.38 77.3 119.11 75.15 116.81 C 74.97 116.62 74.72 116.51 74.47 116.54 C 74.21 116.55 73.98 116.68 73.83 116.89 C 72.55 118.65 66.94 125.44 66.88 125.51 C 66.74 125.69 66.67 125.92 66.69 126.14 C 66.71 126.37 66.83 126.58 67 126.72 C 67.04 126.75 70.56 129.68 70.56 134.2 C 70.56 136.35 69.65 137.92 68.59 139.74 C 67.4 141.79 66.05 144.11 66.05 147.56 C 66.05 153.3 70.74 157.57 78.58 158.98 C 84.49 160.04 89.43 163.78 89.48 163.82 C 89.63 163.94 89.82 164 90 164 C 90.18 164 90.37 163.94 90.52 163.82 C 90.57 163.78 95.49 160.04 101.42 158.98 C 109.26 157.57 113.95 153.3 113.95 147.56 C 113.95 144.11 112.6 141.79 111.41 139.74" fill="#ffffff" stroke="none" pointer-events="all" style="fill: light-dark(rgb(255, 255, 255), rgb(18, 18, 18));"/></g></g><g data-cell-id="phz_main_l"><g transform="translate(0.5,0.5)"><rect x="140" y="110" width="350" height="80" fill="none" stroke="none" pointer-events="all"/></g><g><g><switch><foreignObject style="overflow: visible; text-align: left;" pointer-events="none" width="100%" height="100%" requiredFeatures="http://www.w3.org/TR/SVG11/feature#Extensibility"><div xmlns="http://www.w3.org/1999/xhtml" style="display: flex; align-items: unsafe flex-start; justify-content: unsafe flex-start; width: 348px; height: 1px; padding-top: 117px; margin-left: 142px;"><div style="box-sizing: border-box; font-size: 0; text-align: left; color: #232F3E; "><div style="display: inline-block; font-size: 11px; font-family: Helvetica; color: light-dark(#232F3E, #bdc7d4); line-height: 1.2; pointer-events: all; font-weight: bold; white-space: normal; word-wrap: normal; ">Private Hosted Zone<br />internal.example.com<br /><br />・db.internal.example.com → RDS<br />・api.internal.example.com → ALB<br />・cache.internal.example.com → ElastiCache</div></div></div></foreignObject><text x="142" y="128" fill="#232F3E" font-family="Helvetica" font-size="11px" font-weight="bold">Private Hosted Zone...</text></switch></g></g></g><g data-cell-id="phz_split"><g transform="translate(0.5,0.5)"><path d="M 60 220 L 120 220 L 120 280 L 60 280 Z" fill="#8c4fff" stroke="none" pointer-events="all" style="fill: light-dark(rgb(140, 79, 255), rgb(177, 125, 255));"/><path d="M 97.43 250.63 C 98.07 251.22 98.38 252 98.38 252.98 C 98.38 254.05 98 254.91 97.23 255.55 C 96.46 256.19 95.42 256.5 94.13 256.5 C 93.1 256.5 92.09 256.29 91.08 255.85 L 91.08 254.54 C 92.27 254.93 93.29 255.13 94.13 255.13 C 94.96 255.13 95.6 254.94 96.04 254.57 C 96.49 254.2 96.71 253.67 96.71 252.98 C 96.71 251.66 95.88 251 94.21 251 C 93.69 251 93.17 251.03 92.65 251.08 L 92.65 250 L 96.09 246.25 L 91.25 246.25 L 91.25 244.91 L 97.91 244.91 L 97.91 246.21 L 94.54 249.78 C 94.59 249.76 94.64 249.76 94.7 249.76 L 94.86 249.76 C 95.94 249.76 96.8 250.05 97.43 250.63 M 87.93 250.35 C 88.59 250.97 88.92 251.83 88.92 252.92 C 88.92 253.99 88.54 254.85 87.76 255.51 C 86.99 256.17 85.97 256.5 84.7 256.5 C 83.59 256.5 82.55 256.29 81.57 255.85 L 81.57 254.54 C 82.79 254.93 83.82 255.13 84.68 255.13 C 85.51 255.13 86.15 254.94 86.59 254.56 C 87.03 254.19 87.25 253.64 87.25 252.93 C 87.25 252.16 87.05 251.6 86.63 251.25 C 86.22 250.9 85.54 250.72 84.6 250.72 C 83.93 250.72 83.08 250.78 82.06 250.89 L 82.06 249.81 L 82.38 244.91 L 88.35 244.91 L 88.35 246.25 L 83.75 246.25 L 83.54 249.58 C 84.14 249.47 84.68 249.42 85.16 249.42 C 86.34 249.42 87.26 249.73 87.93 250.35 M 100.23 262.35 C 96.07 263.1 92.44 264.79 90 266.16 C 87.56 264.79 83.92 263.1 79.77 262.35 C 78.61 262.14 72.78 260.92 72.78 257.56 C 72.78 256 73.34 254.96 74.41 253.12 C 75.7 250.91 77.29 248.16 77.29 244.2 C 77.29 241.37 76.55 238.66 75.08 236.13 C 75.26 235.91 75.43 235.7 75.61 235.48 C 77.78 236.57 80.03 237.11 82.33 237.11 C 85.13 237.11 87.71 236.38 90 234.92 C 92.29 236.38 94.86 237.11 97.67 237.11 C 99.97 237.11 102.22 236.57 104.39 235.48 C 104.57 235.7 104.74 235.91 104.92 236.13 C 103.45 238.66 102.71 241.37 102.71 244.2 C 102.71 248.16 104.3 250.91 105.59 253.12 C 106.66 254.96 107.22 256 107.22 257.56 C 107.22 260.92 101.39 262.14 100.23 262.35 M 104.42 244.2 C 104.42 241.5 105.18 238.91 106.68 236.5 C 106.88 236.19 106.85 235.79 106.62 235.51 C 106.19 234.98 105.73 234.42 105.28 233.86 C 105.02 233.54 104.57 233.45 104.2 233.65 C 102.1 234.81 99.9 235.4 97.67 235.4 C 94.98 235.4 92.63 234.68 90.49 233.19 C 90.19 232.99 89.81 232.99 89.51 233.19 C 87.37 234.68 85.02 235.4 82.33 235.4 C 80.1 235.4 77.9 234.81 75.8 233.65 C 75.43 233.45 74.98 233.54 74.72 233.86 C 74.27 234.42 73.81 234.98 73.38 235.51 C 73.15 235.79 73.12 236.19 73.32 236.5 C 74.82 238.91 75.58 241.5 75.58 244.2 C 75.58 247.7 74.11 250.23 72.93 252.26 C 71.78 254.25 71.07 255.57 71.07 257.56 C 71.07 262.17 77.5 263.68 79.47 264.03 C 83.63 264.78 87.26 266.54 89.57 267.89 C 89.7 267.97 89.85 268 90 268 C 90.15 268 90.3 267.97 90.43 267.89 C 92.74 266.54 96.37 264.78 100.53 264.03 C 102.5 263.68 108.93 262.17 108.93 257.56 C 108.93 255.57 108.22 254.25 107.07 252.26 C 105.89 250.23 104.42 247.7 104.42 244.2 M 101.11 267.29 C 95.87 268.23 91.47 271.05 90 272.09 C 88.53 271.05 84.13 268.23 78.89 267.29 C 68.56 265.44 67.76 259.37 67.76 257.56 C 67.76 254.57 68.94 252.55 70.07 250.6 C 71.15 248.74 72.27 246.81 72.27 244.2 C 72.27 240.08 69.89 237.17 68.71 235.98 C 69.95 234.48 73.07 230.67 74.61 228.69 C 76.94 230.89 79.65 232.09 82.33 232.09 C 85.3 232.09 87.76 230.88 90 228.3 C 92.24 230.88 94.7 232.09 97.67 232.09 C 100.35 232.09 103.06 230.89 105.39 228.69 C 106.93 230.67 110.05 234.48 111.28 235.98 C 110.11 237.17 107.73 240.08 107.73 244.2 C 107.73 246.81 108.85 248.74 109.93 250.6 C 111.06 252.55 112.24 254.57 112.24 257.56 C 112.24 259.37 111.43 265.44 101.11 267.29 M 111.41 249.74 C 110.35 247.92 109.44 246.35 109.44 244.2 C 109.44 239.68 112.96 236.75 113 236.72 C 113.17 236.58 113.29 236.37 113.31 236.14 C 113.33 235.92 113.26 235.69 113.12 235.51 C 113.06 235.44 107.45 228.65 106.17 226.89 C 106.02 226.68 105.79 226.55 105.53 226.54 C 105.27 226.52 105.03 226.62 104.85 226.81 C 102.7 229.11 100.15 230.38 97.67 230.38 C 94.93 230.38 92.77 229.16 90.68 226.42 C 90.35 226 89.65 226 89.32 226.42 C 87.22 229.16 85.07 230.38 82.33 230.38 C 79.85 230.38 77.3 229.11 75.15 226.81 C 74.97 226.62 74.72 226.51 74.47 226.54 C 74.21 226.55 73.98 226.68 73.83 226.89 C 72.55 228.65 66.94 235.44 66.88 235.51 C 66.74 235.69 66.67 235.92 66.69 236.14 C 66.71 236.37 66.83 236.58 67 236.72 C 67.04 236.75 70.56 239.68 70.56 244.2 C 70.56 246.35 69.65 247.92 68.59 249.74 C 67.4 251.79 66.05 254.11 66.05 257.56 C 66.05 263.3 70.74 267.57 78.58 268.98 C 84.49 270.04 89.43 273.78 89.48 273.82 C 89.63 273.94 89.82 274 90 274 C 90.18 274 90.37 273.94 90.52 273.82 C 90.57 273.78 95.49 270.04 101.42 268.98 C 109.26 267.57 113.95 263.3 113.95 257.56 C 113.95 254.11 112.6 251.79 111.41 249.74" fill="#ffffff" stroke="none" pointer-events="all" style="fill: light-dark(rgb(255, 255, 255), rgb(18, 18, 18));"/></g></g><g data-cell-id="phz_split_l"><g transform="translate(0.5,0.5)"><rect x="140" y="220" width="320" height="50" fill="none" stroke="none" pointer-events="all"/></g><g><g><switch><foreignObject style="overflow: visible; text-align: left;" pointer-events="none" width="100%" height="100%" requiredFeatures="http://www.w3.org/TR/SVG11/feature#Extensibility"><div xmlns="http://www.w3.org/1999/xhtml" style="display: flex; align-items: unsafe flex-start; justify-content: unsafe flex-start; width: 318px; height: 1px; padding-top: 227px; margin-left: 142px;"><div style="box-sizing: border-box; font-size: 0; text-align: left; color: #232F3E; "><div style="display: inline-block; font-size: 10px; font-family: Helvetica; color: light-dark(#232F3E, #bdc7d4); line-height: 1.2; pointer-events: all; font-weight: bold; white-space: normal; word-wrap: normal; ">Private Hosted Zone<br />example.com (内部用)<br />www → 内部 ALB IP</div></div></div></foreignObject><text x="142" y="237" fill="#232F3E" font-family="Helvetica" font-size="10px" font-weight="bold">Private Hosted Zone...</text></switch></g></g></g><g data-cell-id="hz_public"><g transform="translate(0.5,0.5)"><path d="M 60 300 L 120 300 L 120 360 L 60 360 Z" fill="#8c4fff" stroke="none" pointer-events="all" style="fill: light-dark(rgb(140, 79, 255), rgb(177, 125, 255));"/><path d="M 97.43 330.63 C 98.07 331.22 98.38 332 98.38 332.98 C 98.38 334.05 98 334.91 97.23 335.55 C 96.46 336.19 95.42 336.5 94.13 336.5 C 93.1 336.5 92.09 336.29 91.08 335.85 L 91.08 334.54 C 92.27 334.93 93.29 335.13 94.13 335.13 C 94.96 335.13 95.6 334.94 96.04 334.57 C 96.49 334.2 96.71 333.67 96.71 332.98 C 96.71 331.66 95.88 331 94.21 331 C 93.69 331 93.17 331.03 92.65 331.08 L 92.65 330 L 96.09 326.25 L 91.25 326.25 L 91.25 324.91 L 97.91 324.91 L 97.91 326.21 L 94.54 329.78 C 94.59 329.76 94.64 329.76 94.7 329.76 L 94.86 329.76 C 95.94 329.76 96.8 330.05 97.43 330.63 M 87.93 330.35 C 88.59 330.97 88.92 331.83 88.92 332.92 C 88.92 333.99 88.54 334.85 87.76 335.51 C 86.99 336.17 85.97 336.5 84.7 336.5 C 83.59 336.5 82.55 336.29 81.57 335.85 L 81.57 334.54 C 82.79 334.93 83.82 335.13 84.68 335.13 C 85.51 335.13 86.15 334.94 86.59 334.56 C 87.03 334.19 87.25 333.64 87.25 332.93 C 87.25 332.16 87.05 331.6 86.63 331.25 C 86.22 330.9 85.54 330.72 84.6 330.72 C 83.93 330.72 83.08 330.78 82.06 330.89 L 82.06 329.81 L 82.38 324.91 L 88.35 324.91 L 88.35 326.25 L 83.75 326.25 L 83.54 329.58 C 84.14 329.47 84.68 329.42 85.16 329.42 C 86.34 329.42 87.26 329.73 87.93 330.35 M 100.23 342.35 C 96.07 343.1 92.44 344.79 90 346.16 C 87.56 344.79 83.92 343.1 79.77 342.35 C 78.61 342.14 72.78 340.92 72.78 337.56 C 72.78 336 73.34 334.96 74.41 333.12 C 75.7 330.91 77.29 328.16 77.29 324.2 C 77.29 321.37 76.55 318.66 75.08 316.13 C 75.26 315.91 75.43 315.7 75.61 315.48 C 77.78 316.57 80.03 317.11 82.33 317.11 C 85.13 317.11 87.71 316.38 90 314.92 C 92.29 316.38 94.86 317.11 97.67 317.11 C 99.97 317.11 102.22 316.57 104.39 315.48 C 104.57 315.7 104.74 315.91 104.92 316.13 C 103.45 318.66 102.71 321.37 102.71 324.2 C 102.71 328.16 104.3 330.91 105.59 333.12 C 106.66 334.96 107.22 336 107.22 337.56 C 107.22 340.92 101.39 342.14 100.23 342.35 M 104.42 324.2 C 104.42 321.5 105.18 318.91 106.68 316.5 C 106.88 316.19 106.85 315.79 106.62 315.51 C 106.19 314.98 105.73 314.42 105.28 313.86 C 105.02 313.54 104.57 313.45 104.2 313.65 C 102.1 314.81 99.9 315.4 97.67 315.4 C 94.98 315.4 92.63 314.68 90.49 313.19 C 90.19 312.99 89.81 312.99 89.51 313.19 C 87.37 314.68 85.02 315.4 82.33 315.4 C 80.1 315.4 77.9 314.81 75.8 313.65 C 75.43 313.45 74.98 313.54 74.72 313.86 C 74.27 314.42 73.81 314.98 73.38 315.51 C 73.15 315.79 73.12 316.19 73.32 316.5 C 74.82 318.91 75.58 321.5 75.58 324.2 C 75.58 327.7 74.11 330.23 72.93 332.26 C 71.78 334.25 71.07 335.57 71.07 337.56 C 71.07 342.17 77.5 343.68 79.47 344.03 C 83.63 344.78 87.26 346.54 89.57 347.89 C 89.7 347.97 89.85 348 90 348 C 90.15 348 90.3 347.97 90.43 347.89 C 92.74 346.54 96.37 344.78 100.53 344.03 C 102.5 343.68 108.93 342.17 108.93 337.56 C 108.93 335.57 108.22 334.25 107.07 332.26 C 105.89 330.23 104.42 327.7 104.42 324.2 M 101.11 347.29 C 95.87 348.23 91.47 351.05 90 352.09 C 88.53 351.05 84.13 348.23 78.89 347.29 C 68.56 345.44 67.76 339.37 67.76 337.56 C 67.76 334.57 68.94 332.55 70.07 330.6 C 71.15 328.74 72.27 326.81 72.27 324.2 C 72.27 320.08 69.89 317.17 68.71 315.98 C 69.95 314.48 73.07 310.67 74.61 308.69 C 76.94 310.89 79.65 312.09 82.33 312.09 C 85.3 312.09 87.76 310.88 90 308.3 C 92.24 310.88 94.7 312.09 97.67 312.09 C 100.35 312.09 103.06 310.89 105.39 308.69 C 106.93 310.67 110.05 314.48 111.28 315.98 C 110.11 317.17 107.73 320.08 107.73 324.2 C 107.73 326.81 108.85 328.74 109.93 330.6 C 111.06 332.55 112.24 334.57 112.24 337.56 C 112.24 339.37 111.43 345.44 101.11 347.29 M 111.41 329.74 C 110.35 327.92 109.44 326.35 109.44 324.2 C 109.44 319.68 112.96 316.75 113 316.72 C 113.17 316.58 113.29 316.37 113.31 316.14 C 113.33 315.92 113.26 315.69 113.12 315.51 C 113.06 315.44 107.45 308.65 106.17 306.89 C 106.02 306.68 105.79 306.55 105.53 306.54 C 105.27 306.52 105.03 306.62 104.85 306.81 C 102.7 309.11 100.15 310.38 97.67 310.38 C 94.93 310.38 92.77 309.16 90.68 306.42 C 90.35 306 89.65 306 89.32 306.42 C 87.22 309.16 85.07 310.38 82.33 310.38 C 79.85 310.38 77.3 309.11 75.15 306.81 C 74.97 306.62 74.72 306.51 74.47 306.54 C 74.21 306.55 73.98 306.68 73.83 306.89 C 72.55 308.65 66.94 315.44 66.88 315.51 C 66.74 315.69 66.67 315.92 66.69 316.14 C 66.71 316.37 66.83 316.58 67 316.72 C 67.04 316.75 70.56 319.68 70.56 324.2 C 70.56 326.35 69.65 327.92 68.59 329.74 C 67.4 331.79 66.05 334.11 66.05 337.56 C 66.05 343.3 70.74 347.57 78.58 348.98 C 84.49 350.04 89.43 353.78 89.48 353.82 C 89.63 353.94 89.82 354 90 354 C 90.18 354 90.37 353.94 90.52 353.82 C 90.57 353.78 95.49 350.04 101.42 348.98 C 109.26 347.57 113.95 343.3 113.95 337.56 C 113.95 334.11 112.6 331.79 111.41 329.74" fill="#ffffff" stroke="none" pointer-events="all" style="fill: light-dark(rgb(255, 255, 255), rgb(18, 18, 18));"/></g></g><g data-cell-id="hz_public_l"><g transform="translate(0.5,0.5)"><rect x="140" y="300" width="320" height="50" fill="none" stroke="none" pointer-events="all"/></g><g><g><switch><foreignObject style="overflow: visible; text-align: left;" pointer-events="none" width="100%" height="100%" requiredFeatures="http://www.w3.org/TR/SVG11/feature#Extensibility"><div xmlns="http://www.w3.org/1999/xhtml" style="display: flex; align-items: unsafe flex-start; justify-content: unsafe flex-start; width: 318px; height: 1px; padding-top: 307px; margin-left: 142px;"><div style="box-sizing: border-box; font-size: 0; text-align: left; color: #232F3E; "><div style="display: inline-block; font-size: 10px; font-family: Helvetica; color: light-dark(#232F3E, #bdc7d4); line-height: 1.2; pointer-events: all; font-weight: bold; white-space: normal; word-wrap: normal; ">Public Hosted Zone<br />example.com (外部用)<br />www → CloudFront 公開IP</div></div></div></foreignObject><text x="142" y="317" fill="#232F3E" font-family="Helvetica" font-size="10px" font-weight="bold">Public Hosted Zone...</text></switch></g></g></g><g data-cell-id="split_note"><g transform="translate(0.5,0.5)"><rect x="40" y="375" width="460" height="80" rx="12" ry="12" fill="#ffffff" stroke="#3b48cc" pointer-events="all" style="fill: light-dark(rgb(255, 255, 255), rgb(18, 18, 18)); stroke: light-dark(rgb(59, 72, 204), rgb(152, 163, 255));"/></g><g><g><switch><foreignObject style="overflow: visible; text-align: left;" pointer-events="none" width="100%" height="100%" requiredFeatures="http://www.w3.org/TR/SVG11/feature#Extensibility"><div xmlns="http://www.w3.org/1999/xhtml" style="display: flex; align-items: unsafe flex-start; justify-content: unsafe flex-start; width: 450px; height: 1px; padding-top: 388px; margin-left: 50px;"><div style="box-sizing: border-box; font-size: 0; text-align: left; color: #232F3E; "><div style="display: inline-block; font-size: 10px; font-family: Helvetica; color: light-dark(#232F3E, #bdc7d4); line-height: 1.2; pointer-events: all; white-space: normal; word-wrap: normal; ">📌 Split-horizon DNS<br />同じ www.example.com が<br />・社内VPC からは内部 ALB に解決<br />・インターネットからは CloudFront に解決<br />PHZ と Public HZ で同じドメインを別々に管理</div></div></div></foreignObject><text x="50" y="398" fill="#232F3E" font-family="Helvetica" font-size="10px">📌 Split-horizon DNS...</text></switch></g></g></g><g data-cell-id="resolver_rule"><g transform="translate(0.5,0.5)"><path d="M 60 470 L 120 470 L 120 530 L 60 530 Z" fill="#8c4fff" stroke="none" pointer-events="all" style="fill: light-dark(rgb(140, 79, 255), rgb(177, 125, 255));"/><path d="M 84 517.14 C 84 516.67 83.62 516.29 83.14 516.29 C 82.67 516.29 82.29 516.67 82.29 517.14 C 82.29 517.62 82.67 518 83.14 518 C 83.62 518 84 517.62 84 517.14 Z M 85.71 517.14 C 85.71 518.56 84.56 519.71 83.14 519.71 C 81.73 519.71 80.57 518.56 80.57 517.14 C 80.57 515.73 81.73 514.57 83.14 514.57 C 84.56 514.57 85.71 515.73 85.71 517.14 Z M 102.37 517.87 L 100.79 516.29 L 88.89 516.29 C 88.52 516.29 88.18 516.04 88.07 515.67 C 87.43 513.51 85.4 512 83.14 512 C 80.31 512 78 514.31 78 517.14 C 78 519.98 80.31 522.29 83.14 522.29 C 85.12 522.29 86.94 521.13 87.79 519.35 C 87.93 519.05 88.23 518.86 88.57 518.86 L 90.86 518.86 C 91.09 518.86 91.3 518.95 91.46 519.11 L 92.57 520.22 L 93.68 519.11 C 93.84 518.95 94.06 518.86 94.29 518.86 L 96 518.86 C 96.23 518.86 96.45 518.95 96.61 519.11 L 97.71 520.22 L 98.82 519.11 C 98.98 518.95 99.2 518.86 99.43 518.86 L 100.88 518.86 Z M 104.32 517.39 C 104.5 517.58 104.59 517.83 104.57 518.08 C 104.54 518.34 104.4 518.57 104.19 518.71 L 101.62 520.43 C 101.48 520.52 101.31 520.57 101.14 520.57 L 99.78 520.57 L 98.32 522.03 C 97.99 522.37 97.44 522.37 97.11 522.03 L 95.65 520.57 L 94.64 520.57 L 93.18 522.03 C 92.84 522.37 92.3 522.37 91.97 522.03 L 90.5 520.57 L 89.08 520.57 C 87.87 522.67 85.59 524 83.14 524 C 79.36 524 76.29 520.92 76.29 517.14 C 76.29 513.36 79.36 510.29 83.14 510.29 C 85.94 510.29 88.46 512.02 89.5 514.57 L 101.14 514.57 C 101.37 514.57 101.59 514.66 101.75 514.82 Z M 96.35 487.14 L 101.14 491.93 L 105.93 487.14 L 101.14 482.35 Z M 100.54 493.75 L 94.54 487.75 C 94.2 487.41 94.2 486.87 94.54 486.54 L 100.54 480.54 C 100.87 480.2 101.41 480.2 101.75 480.54 L 107.75 486.54 C 108.08 486.87 108.08 487.41 107.75 487.75 L 101.75 493.75 C 101.58 493.92 101.36 494 101.14 494 C 100.92 494 100.7 493.92 100.54 493.75 Z M 84.93 490.57 L 79.72 483.45 L 74.54 490.57 Z M 86.63 492.29 L 72.86 492.29 C 72.53 492.29 72.24 492.1 72.09 491.82 C 71.95 491.53 71.97 491.19 72.16 490.92 L 79.02 481.5 C 79.18 481.27 79.44 481.14 79.71 481.14 C 80.01 481.13 80.24 481.27 80.41 481.49 L 87.32 490.92 C 87.51 491.18 87.54 491.53 87.39 491.82 C 87.24 492.1 86.95 492.29 86.63 492.29 Z M 74.57 502.14 C 74.57 504.74 76.69 506.86 79.29 506.86 C 81.88 506.86 84 504.74 84 502.14 C 84 499.54 81.88 497.43 79.29 497.43 C 76.69 497.43 74.57 499.54 74.57 502.14 Z M 72.86 502.14 C 72.86 498.6 75.74 495.71 79.29 495.71 C 82.83 495.71 85.71 498.6 85.71 502.14 C 85.71 505.69 82.83 508.57 79.29 508.57 C 75.74 508.57 72.86 505.69 72.86 502.14 Z M 96.86 506 L 104.57 506 L 104.57 498.29 L 96.86 498.29 Z M 106.29 506.86 C 106.29 507.33 105.9 507.71 105.43 507.71 L 96 507.71 C 95.53 507.71 95.14 507.33 95.14 506.86 L 95.14 497.43 C 95.14 496.96 95.53 496.57 96 496.57 L 105.43 496.57 C 105.9 496.57 106.29 496.96 106.29 497.43 Z M 114 476.86 L 114 519.71 C 114 520.19 113.62 520.57 113.14 520.57 L 106.29 520.57 L 106.29 518.86 L 112.29 518.86 L 112.29 477.71 L 67.71 477.71 L 67.71 518.86 L 73.71 518.86 L 73.71 520.57 L 66.86 520.57 C 66.38 520.57 66 520.19 66 519.71 L 66 476.86 C 66 476.38 66.38 476 66.86 476 L 113.14 476 C 113.62 476 114 476.38 114 476.86 Z" fill="#ffffff" stroke="none" pointer-events="all" style="fill: light-dark(rgb(255, 255, 255), rgb(18, 18, 18));"/></g></g><g data-cell-id="resolver_rule_l"><g transform="translate(0.5,0.5)"><rect x="140" y="470" width="350" height="50" fill="none" stroke="none" pointer-events="all"/></g><g><g><switch><foreignObject style="overflow: visible; text-align: left;" pointer-events="none" width="100%" height="100%" requiredFeatures="http://www.w3.org/TR/SVG11/feature#Extensibility"><div xmlns="http://www.w3.org/1999/xhtml" style="display: flex; align-items: unsafe flex-start; justify-content: unsafe flex-start; width: 348px; height: 1px; padding-top: 477px; margin-left: 142px;"><div style="box-sizing: border-box; font-size: 0; text-align: left; color: #232F3E; "><div style="display: inline-block; font-size: 10px; font-family: Helvetica; color: light-dark(#232F3E, #bdc7d4); line-height: 1.2; pointer-events: all; font-weight: bold; white-space: normal; word-wrap: normal; ">AWS RAM 共有<br />・PHZ Authorization (associate-vpc) → クロスアカウント関連付け<br />・Resolver Rule を子アカウント VPC へ共有</div></div></div></foreignObject><text x="142" y="487" fill="#232F3E" font-family="Helvetica" font-size="10px" font-weight="bold">AWS RAM 共有...</text></switch></g></g></g><g data-cell-id="vpc_set_box"><g><rect x="560" y="60" width="440" height="200" rx="30" ry="30" fill="#ffefd5" stroke="#ff9900" stroke-width="2" pointer-events="all" style="fill: light-dark(rgb(255, 239, 213), rgb(43, 29, 7)); stroke: light-dark(rgb(255, 153, 0), rgb(175, 87, 0));"/></g><g><g><switch><foreignObject style="overflow: visible; text-align: left;" pointer-events="none" width="100%" height="100%" requiredFeatures="http://www.w3.org/TR/SVG11/feature#Extensibility"><div xmlns="http://www.w3.org/1999/xhtml" style="display: flex; align-items: unsafe flex-start; justify-content: unsafe center; width: 438px; height: 1px; padding-top: 73px; margin-left: 561px;"><div style="box-sizing: border-box; font-size: 0; text-align: center; color: #232F3E; "><div style="display: inline-block; font-size: 12px; font-family: Helvetica; color: light-dark(#232F3E, #bdc7d4); line-height: 1.2; pointer-events: all; font-weight: bold; white-space: normal; word-wrap: normal; ">🔧 VPC DNS 必須設定</div></div></div></foreignObject><text x="780" y="85" fill="#232F3E" font-family="Helvetica" font-size="12px" text-anchor="middle" font-weight="bold">🔧 VPC DNS 必須設定</text></switch></g></g></g><g data-cell-id="vpc_set_text"><g transform="translate(0.5,0.5)"><rect x="570" y="90" width="420" height="170" fill="none" stroke="none" pointer-events="all"/></g><g><g><switch><foreignObject style="overflow: visible; text-align: left;" pointer-events="none" width="100%" height="100%" requiredFeatures="http://www.w3.org/TR/SVG11/feature#Extensibility"><div xmlns="http://www.w3.org/1999/xhtml" style="display: flex; align-items: unsafe flex-start; justify-content: unsafe flex-start; width: 408px; height: 1px; padding-top: 101px; margin-left: 582px;"><div style="box-sizing: border-box; font-size: 0; text-align: left; color: #232F3E; "><div style="display: inline-block; font-size: 10px; font-family: Helvetica; color: light-dark(#232F3E, #bdc7d4); line-height: 1.2; pointer-events: all; white-space: normal; word-wrap: normal; ">PHZ を VPC で解決させるには両方 ON が必須：<br /><br />✅ enableDnsSupport = true<br />　→ AmazonProvidedDNS (.2) を有効化<br />　→ これがないと .2 への DNS クエリ自体が失敗<br /><br />✅ enableDnsHostnames = true<br />　→ EC2 にパブリック DNS 名を割当<br />　→ PHZ 関連付けの前提条件<br /><br />⚠️ どちらか OFF だと PHZ レコードが解決されない<br />⚠️ Resolver Inbound/Outbound も DNS Support 前提</div></div></div></foreignObject><text x="582" y="111" fill="#232F3E" font-family="Helvetica" font-size="10px">PHZ を VPC で解決させるには両方 ON が必須：...</text></switch></g></g></g><g data-cell-id="share_box"><g><rect x="1020" y="60" width="480" height="200" rx="30" ry="30" fill="#f0f8e8" stroke="#7aa116" stroke-width="2" pointer-events="all" style="fill: light-dark(rgb(240, 248, 232), rgb(22, 29, 15)); stroke: light-dark(rgb(122, 161, 22), rgb(97, 130, 11));"/></g><g><g><switch><foreignObject style="overflow: visible; text-align: left;" pointer-events="none" width="100%" height="100%" requiredFeatures="http://www.w3.org/TR/SVG11/feature#Extensibility"><div xmlns="http://www.w3.org/1999/xhtml" style="display: flex; align-items: unsafe flex-start; justify-content: unsafe center; width: 478px; height: 1px; padding-top: 73px; margin-left: 1021px;"><div style="box-sizing: border-box; font-size: 0; text-align: center; color: #232F3E; "><div style="display: inline-block; font-size: 12px; font-family: Helvetica; color: light-dark(#232F3E, #bdc7d4); line-height: 1.2; pointer-events: all; font-weight: bold; white-space: normal; word-wrap: normal; ">🔄 VPC Sharing 環境での PHZ</div></div></div></foreignObject><text x="1260" y="85" fill="#232F3E" font-family="Helvetica" font-size="12px" text-anchor="middle" font-weight="bold">🔄 VPC Sharing 環境での PHZ</text></switch></g></g></g><g data-cell-id="share_text"><g transform="translate(0.5,0.5)"><rect x="1030" y="90" width="460" height="170" fill="none" stroke="none" pointer-events="all"/></g><g><g><switch><foreignObject style="overflow: visible; text-align: left;" pointer-events="none" width="100%" height="100%" requiredFeatures="http://www.w3.org/TR/SVG11/feature#Extensibility"><div xmlns="http://www.w3.org/1999/xhtml" style="display: flex; align-items: unsafe flex-start; justify-content: unsafe flex-start; width: 448px; height: 1px; padding-top: 101px; margin-left: 1042px;"><div style="box-sizing: border-box; font-size: 0; text-align: left; color: #232F3E; "><div style="display: inline-block; font-size: 10px; font-family: Helvetica; color: light-dark(#232F3E, #bdc7d4); line-height: 1.2; pointer-events: all; white-space: normal; word-wrap: normal; ">VPC を RAM で共有 (Shared VPC) するパターン：<br /><br />・PHZ は VPC オーナー アカウントで作成<br />・参加アカウントの EC2 も自動的に PHZ を解決可<br />　(VPC ごと共有しているため別途関連付け不要)<br /><br />クロスアカウント PHZ 関連付け：<br />1. PHZ オーナー: create-vpc-association-authorization<br />2. VPC オーナー: associate-vpc-with-hosted-zone<br />3. PHZ オーナー: delete-vpc-association-authorization (片付け)<br /><br />✅ 中央 PHZ アカウント + 多数ワークロード VPC で標準化</div></div></div></foreignObject><text x="1042" y="111" fill="#232F3E" font-family="Helvetica" font-size="10px">VPC を RAM で共有 (Shared VPC) するパターン：...</text></switch></g></g></g><g data-cell-id="multi_box"><g transform="translate(0.5,0.5)"><rect x="560" y="280" width="940" height="280" rx="42" ry="42" fill="#f5f5f5" stroke="#666666" pointer-events="all" style="fill: light-dark(rgb(245, 245, 245), rgb(26, 26, 26)); stroke: light-dark(rgb(102, 102, 102), rgb(149, 149, 149));"/></g><g><g><switch><foreignObject style="overflow: visible; text-align: left;" pointer-events="none" width="100%" height="100%" requiredFeatures="http://www.w3.org/TR/SVG11/feature#Extensibility"><div xmlns="http://www.w3.org/1999/xhtml" style="display: flex; align-items: unsafe flex-start; justify-content: unsafe center; width: 938px; height: 1px; padding-top: 293px; margin-left: 561px;"><div style="box-sizing: border-box; font-size: 0; text-align: center; color: #232F3E; "><div style="display: inline-block; font-size: 12px; font-family: Helvetica; color: light-dark(#232F3E, #bdc7d4); line-height: 1.2; pointer-events: all; font-weight: bold; white-space: normal; word-wrap: normal; ">複数 VPC への PHZ 関連付け</div></div></div></foreignObject><text x="1030" y="305" fill="#232F3E" font-family="Helvetica" font-size="12px" text-anchor="middle" font-weight="bold">複数 VPC への PHZ 関連付け</text></switch></g></g></g><g data-cell-id="vpc_a"><g transform="translate(0.5,0.5)"><path d="M 580 320 L 860 320 L 860 540 L 580 540 Z" fill="#ffffff" stroke="#248814" stroke-miterlimit="10" pointer-events="all" style="fill: light-dark(rgb(255, 255, 255), rgb(18, 18, 18)); stroke: light-dark(rgb(36, 136, 20), rgb(85, 171, 71));"/><path d="M 590.59 326.65 C 590.53 326.65 590.48 326.65 590.42 326.65 L 590.42 326.65 C 589.11 326.68 588.03 327.24 587.14 328.25 C 587.13 328.25 587.13 328.25 587.13 328.25 C 586.2 329.36 585.87 330.52 585.96 331.73 C 584.81 332.06 584.12 332.92 583.76 333.74 C 583.75 333.75 583.75 333.76 583.74 333.78 C 583.33 335.05 583.68 336.36 584.24 337.16 C 584.25 337.17 584.25 337.17 584.26 337.18 C 584.94 338.05 585.97 338.53 587.02 338.53 L 598.17 338.53 C 599.19 338.53 600.07 338.16 600.8 337.37 C 601.25 336.94 601.49 336.29 601.58 335.59 C 601.67 334.9 601.61 334.16 601.32 333.55 C 601.31 333.54 601.31 333.53 601.31 333.52 C 600.8 332.62 599.95 331.81 598.76 331.64 C 598.74 330.79 598.28 329.99 597.68 329.56 C 597.67 329.55 597.66 329.55 597.65 329.54 C 597.01 329.18 596.4 329.14 595.91 329.3 C 595.6 329.4 595.36 329.56 595.14 329.74 C 594.51 328.36 593.43 327.18 591.81 326.79 C 591.81 326.79 591.81 326.79 591.81 326.79 C 591.38 326.7 590.97 326.65 590.59 326.65 Z M 590.43 327.38 C 590.8 327.38 591.2 327.43 591.64 327.53 C 593.16 327.89 594.15 329.07 594.66 330.48 C 594.71 330.6 594.81 330.69 594.94 330.72 C 595.07 330.74 595.2 330.7 595.29 330.61 C 595.54 330.34 595.83 330.11 596.14 330.01 C 596.44 329.91 596.78 329.92 597.26 330.18 C 597.67 330.49 598.11 331.31 598.03 331.9 C 598.01 332.01 598.05 332.12 598.12 332.2 C 598.19 332.28 598.29 332.33 598.39 332.33 C 599.46 332.34 600.16 333.02 600.64 333.88 C 600.85 334.3 600.91 334.92 600.84 335.5 C 600.76 336.07 600.53 336.59 600.28 336.83 C 600.27 336.84 600.27 336.85 600.26 336.85 C 599.65 337.53 599.03 337.78 598.17 337.78 L 587.02 337.78 C 586.2 337.78 585.39 337.41 584.85 336.73 C 584.44 336.13 584.14 335.02 584.46 334.02 C 584.79 333.27 585.36 332.55 586.41 332.36 C 586.6 332.32 586.74 332.14 586.71 331.94 C 586.56 330.79 586.8 329.81 587.7 328.74 C 588.49 327.85 589.33 327.39 590.43 327.38 Z M 592.2 330.7 C 591.77 330.7 591.4 330.93 591.13 331.21 C 590.85 331.5 590.64 331.85 590.64 332.25 L 590.64 332.71 L 590.14 332.71 C 590.04 332.71 589.94 332.75 589.87 332.82 C 589.8 332.89 589.76 332.98 589.76 333.08 L 589.76 335.7 C 589.76 335.8 589.8 335.89 589.87 335.96 C 589.94 336.03 590.04 336.07 590.14 336.07 L 594.16 336.07 C 594.26 336.07 594.35 336.03 594.42 335.96 C 594.49 335.89 594.53 335.8 594.53 335.7 L 594.53 333.08 C 594.53 332.98 594.49 332.89 594.42 332.82 C 594.35 332.75 594.26 332.71 594.16 332.71 L 593.68 332.71 L 593.68 332.25 C 593.68 331.84 593.47 331.47 593.21 331.2 C 592.94 330.92 592.61 330.7 592.2 330.7 Z M 592.2 331.45 C 592.29 331.45 592.5 331.54 592.67 331.72 C 592.83 331.89 592.93 332.11 592.93 332.25 L 592.93 332.71 L 591.39 332.71 L 591.39 332.25 C 591.39 332.15 591.49 331.91 591.66 331.74 C 591.83 331.56 592.06 331.45 592.2 331.45 Z M 590.51 333.46 L 593.78 333.46 L 593.78 335.32 L 590.51 335.32 Z M 580 345 L 580 320 L 605 320 L 605 345 Z" fill="#248814" stroke="none" pointer-events="all" style="fill: light-dark(rgb(36, 136, 20), rgb(85, 171, 71));"/></g><g><g><switch><foreignObject style="overflow: visible; text-align: left;" pointer-events="none" width="100%" height="100%" requiredFeatures="http://www.w3.org/TR/SVG11/feature#Extensibility"><div xmlns="http://www.w3.org/1999/xhtml" style="display: flex; align-items: unsafe flex-start; justify-content: unsafe flex-start; width: 248px; height: 1px; padding-top: 327px; margin-left: 612px;"><div style="box-sizing: border-box; font-size: 0; text-align: left; color: #232F3E; "><div style="display: inline-block; font-size: 10px; font-family: Helvetica; color: light-dark(#232F3E, #bdc7d4); line-height: 1.2; pointer-events: all; font-weight: bold; white-space: normal; word-wrap: normal; ">Workload VPC A<br />(本番 - acc 111111111111)</div></div></div></foreignObject><text x="612" y="337" fill="#232F3E" font-family="Helvetica" font-size="10px" font-weight="bold">Workload VPC A...</text></switch></g></g></g><g data-cell-id="vpc_a_ec2"><g transform="translate(0.5,0.5)"><path d="M 620 360 L 670 360 L 670 410 L 620 410 Z" fill="#ed7100" stroke="none" pointer-events="all" style="fill: light-dark(rgb(237, 113, 0), rgb(216, 109, 12));"/><path d="M 635.71 394.29 L 653.57 394.29 L 653.57 376.43 L 635.71 376.43 Z M 655 376.43 L 657.86 376.43 L 657.86 377.86 L 655 377.86 L 655 380.71 L 657.86 380.71 L 657.86 382.14 L 655 382.14 L 655 384.29 L 657.86 384.29 L 657.86 385.71 L 655 385.71 L 655 388.57 L 657.86 388.57 L 657.86 390 L 655 390 L 655 392.86 L 657.86 392.86 L 657.86 394.29 L 655 394.29 L 655 394.38 C 655 395.12 654.4 395.71 653.67 395.71 L 653.57 395.71 L 653.57 398.57 L 652.14 398.57 L 652.14 395.71 L 649.29 395.71 L 649.29 398.57 L 647.86 398.57 L 647.86 395.71 L 645.71 395.71 L 645.71 398.57 L 644.29 398.57 L 644.29 395.71 L 641.43 395.71 L 641.43 398.57 L 640 398.57 L 640 395.71 L 637.14 395.71 L 637.14 398.57 L 635.71 398.57 L 635.71 395.71 L 635.62 395.71 C 634.88 395.71 634.29 395.12 634.29 394.38 L 634.29 394.29 L 632.14 394.29 L 632.14 392.86 L 634.29 392.86 L 634.29 390 L 632.14 390 L 632.14 388.57 L 634.29 388.57 L 634.29 385.71 L 632.14 385.71 L 632.14 384.29 L 634.29 384.29 L 634.29 382.14 L 632.14 382.14 L 632.14 380.71 L 634.29 380.71 L 634.29 377.86 L 632.14 377.86 L 632.14 376.43 L 634.29 376.43 L 634.29 376.33 C 634.29 375.6 634.88 375 635.62 375 L 635.71 375 L 635.71 372.14 L 637.14 372.14 L 637.14 375 L 640 375 L 640 372.14 L 641.43 372.14 L 641.43 375 L 644.29 375 L 644.29 372.14 L 645.71 372.14 L 645.71 375 L 647.86 375 L 647.86 372.14 L 649.29 372.14 L 649.29 375 L 652.14 375 L 652.14 372.14 L 653.57 372.14 L 653.57 375 L 653.67 375 C 654.4 375 655 375.6 655 376.33 Z M 645.71 403.48 C 645.71 403.53 645.67 403.57 645.63 403.57 L 626.52 403.57 C 626.47 403.57 626.43 403.53 626.43 403.48 L 626.43 384.37 C 626.43 384.33 626.47 384.29 626.52 384.29 L 630.71 384.29 L 630.71 382.86 L 626.52 382.86 C 625.68 382.86 625 383.54 625 384.37 L 625 403.48 C 625 404.32 625.68 405 626.52 405 L 645.63 405 C 646.46 405 647.14 404.32 647.14 403.48 L 647.14 400 L 645.71 400 Z M 665 366.52 L 665 385.63 C 665 386.46 664.32 387.14 663.48 387.14 L 659.29 387.14 L 659.29 385.71 L 663.48 385.71 C 663.53 385.71 663.57 385.67 663.57 385.63 L 663.57 366.52 C 663.57 366.47 663.53 366.43 663.48 366.43 L 644.37 366.43 C 644.33 366.43 644.29 366.47 644.29 366.52 L 644.29 370.71 L 642.86 370.71 L 642.86 366.52 C 642.86 365.68 643.54 365 644.37 365 L 663.48 365 C 664.32 365 665 365.68 665 366.52 Z" fill="#ffffff" stroke="none" pointer-events="all" style="fill: light-dark(rgb(255, 255, 255), rgb(18, 18, 18));"/></g></g><g data-cell-id="vpc_a_db"><g transform="translate(0.5,0.5)"><path d="M 740 360 L 790 360 L 790 410 L 740 410 Z" fill="#3334b9" stroke="none" pointer-events="all" style="fill: light-dark(rgb(51, 52, 185), rgb(175, 176, 255));"/><path d="M 747.44 366.43 L 754.08 373.07 L 753.07 374.08 L 746.43 367.44 L 746.43 372.86 L 745 372.86 L 745 365.71 C 745 365.32 745.32 365 745.71 365 L 752.86 365 L 752.86 366.43 Z M 785 365.71 L 785 372.86 L 783.57 372.86 L 783.57 367.44 L 776.93 374.08 L 775.92 373.07 L 782.56 366.43 L 777.14 366.43 L 777.14 365 L 784.29 365 C 784.68 365 785 365.32 785 365.71 Z M 783.57 397.14 L 785 397.14 L 785 404.29 C 785 404.68 784.68 405 784.29 405 L 777.14 405 L 777.14 403.57 L 782.56 403.57 L 775.92 396.93 L 776.93 395.92 L 783.57 402.56 Z M 783.21 384.44 C 783.21 382.07 780.48 379.73 775.89 378.17 L 776.35 376.82 C 781.62 378.6 784.64 381.38 784.64 384.44 C 784.64 387.5 781.62 390.27 776.35 392.06 L 775.89 390.7 C 780.48 389.15 783.21 386.81 783.21 384.44 Z M 746.83 384.44 C 746.83 386.71 749.39 388.99 753.68 390.54 L 753.2 391.88 C 748.24 390.09 745.4 387.38 745.4 384.44 C 745.4 381.5 748.24 378.78 753.2 376.99 L 753.68 378.34 C 749.39 379.89 746.83 382.17 746.83 384.44 Z M 754.08 396.93 L 747.44 403.57 L 752.86 403.57 L 752.86 405 L 745.71 405 C 745.32 405 745 404.68 745 404.29 L 745 397.14 L 746.43 397.14 L 746.43 402.56 L 753.07 395.92 Z M 765 378.78 C 759.9 378.78 757.14 377.46 757.14 376.92 C 757.14 376.38 759.9 375.06 765 375.06 C 770.1 375.06 772.86 376.38 772.86 376.92 C 772.86 377.46 770.1 378.78 765 378.78 Z M 765.02 384.31 C 760.13 384.31 757.14 382.97 757.14 382.25 L 757.14 378.77 C 758.9 379.75 762.02 380.2 765 380.2 C 767.98 380.2 771.1 379.75 772.86 378.77 L 772.86 382.25 C 772.86 382.97 769.88 384.31 765.02 384.31 Z M 765.02 389.76 C 760.13 389.76 757.14 388.43 757.14 387.7 L 757.14 384.19 C 758.88 385.21 761.96 385.74 765.02 385.74 C 768.07 385.74 771.13 385.21 772.86 384.19 L 772.86 387.7 C 772.86 388.43 769.88 389.76 765.02 389.76 Z M 765 394.66 C 759.92 394.66 757.14 393.29 757.14 392.59 L 757.14 389.64 C 758.88 390.66 761.96 391.19 765.02 391.19 C 768.07 391.19 771.13 390.66 772.86 389.64 L 772.86 392.59 C 772.86 393.29 770.08 394.66 765 394.66 Z M 765 373.63 C 760.53 373.63 755.71 374.66 755.71 376.92 L 755.71 392.59 C 755.71 394.88 760.39 396.08 765 396.08 C 769.61 396.08 774.29 394.88 774.29 392.59 L 774.29 376.92 C 774.29 374.66 769.47 373.63 765 373.63 Z" fill="#ffffff" stroke="none" pointer-events="all" style="fill: light-dark(rgb(255, 255, 255), rgb(18, 18, 18));"/></g></g><g data-cell-id="vpc_a_query"><g transform="translate(0.5,0.5)"><rect x="590" y="430" width="260" height="50" fill="none" stroke="none" pointer-events="all"/></g><g><g><switch><foreignObject style="overflow: visible; text-align: left;" pointer-events="none" width="100%" height="100%" requiredFeatures="http://www.w3.org/TR/SVG11/feature#Extensibility"><div xmlns="http://www.w3.org/1999/xhtml" style="display: flex; align-items: unsafe center; justify-content: unsafe center; width: 258px; height: 1px; padding-top: 455px; margin-left: 591px;"><div style="box-sizing: border-box; font-size: 0; text-align: center; color: #248814; "><div style="display: inline-block; font-size: 10px; font-family: Helvetica; color: light-dark(#248814, #55ab47); line-height: 1.2; pointer-events: all; font-weight: bold; white-space: normal; word-wrap: normal; ">db.internal.example.com<br />→ RDS の私有 IP<br />(PHZ 関連付け済み)</div></div></div></foreignObject><text x="720" y="458" fill="#248814" font-family="Helvetica" font-size="10px" text-anchor="middle" font-weight="bold">db.internal.example.com...</text></switch></g></g></g><g data-cell-id="vpc_a_cidr"><g transform="translate(0.5,0.5)"><rect x="590" y="490" width="260" height="40" fill="none" stroke="none" pointer-events="all"/></g><g><g><switch><foreignObject style="overflow: visible; text-align: left;" pointer-events="none" width="100%" height="100%" requiredFeatures="http://www.w3.org/TR/SVG11/feature#Extensibility"><div xmlns="http://www.w3.org/1999/xhtml" style="display: flex; align-items: unsafe center; justify-content: unsafe center; width: 258px; height: 1px; padding-top: 510px; margin-left: 591px;"><div style="box-sizing: border-box; font-size: 0; text-align: center; color: #FF9900; "><div style="display: inline-block; font-size: 9px; font-family: Helvetica; color: light-dark(#FF9900, #af5700); line-height: 1.2; pointer-events: all; font-style: italic; white-space: normal; word-wrap: normal; ">enableDnsSupport ✅<br />enableDnsHostnames ✅</div></div></div></foreignObject><text x="720" y="513" fill="#FF9900" font-family="Helvetica" font-size="9px" text-anchor="middle" font-style="italic">enableDnsSupport ✅...</text></switch></g></g></g><g data-cell-id="vpc_b"><g transform="translate(0.5,0.5)"><path d="M 880 320 L 1160 320 L 1160 540 L 880 540 Z" fill="#ffffff" stroke="#248814" stroke-miterlimit="10" pointer-events="all" style="fill: light-dark(rgb(255, 255, 255), rgb(18, 18, 18)); stroke: light-dark(rgb(36, 136, 20), rgb(85, 171, 71));"/><path d="M 890.59 326.65 C 890.53 326.65 890.48 326.65 890.42 326.65 L 890.42 326.65 C 889.11 326.68 888.03 327.24 887.14 328.25 C 887.13 328.25 887.13 328.25 887.13 328.25 C 886.2 329.36 885.87 330.52 885.96 331.73 C 884.81 332.06 884.12 332.92 883.76 333.74 C 883.75 333.75 883.75 333.76 883.74 333.78 C 883.33 335.05 883.68 336.36 884.24 337.16 C 884.25 337.17 884.25 337.17 884.26 337.18 C 884.94 338.05 885.97 338.53 887.02 338.53 L 898.17 338.53 C 899.19 338.53 900.07 338.16 900.8 337.37 C 901.25 336.94 901.49 336.29 901.58 335.59 C 901.67 334.9 901.61 334.16 901.32 333.55 C 901.31 333.54 901.31 333.53 901.31 333.52 C 900.8 332.62 899.95 331.81 898.76 331.64 C 898.74 330.79 898.28 329.99 897.68 329.56 C 897.67 329.55 897.66 329.55 897.65 329.54 C 897.01 329.18 896.4 329.14 895.91 329.3 C 895.6 329.4 895.36 329.56 895.14 329.74 C 894.51 328.36 893.43 327.18 891.81 326.79 C 891.81 326.79 891.81 326.79 891.81 326.79 C 891.38 326.7 890.97 326.65 890.59 326.65 Z M 890.43 327.38 C 890.8 327.38 891.2 327.43 891.64 327.53 C 893.16 327.89 894.15 329.07 894.66 330.48 C 894.71 330.6 894.81 330.69 894.94 330.72 C 895.07 330.74 895.2 330.7 895.29 330.61 C 895.54 330.34 895.83 330.11 896.14 330.01 C 896.44 329.91 896.78 329.92 897.26 330.18 C 897.67 330.49 898.11 331.31 898.03 331.9 C 898.01 332.01 898.05 332.12 898.12 332.2 C 898.19 332.28 898.29 332.33 898.39 332.33 C 899.46 332.34 900.16 333.02 900.64 333.88 C 900.85 334.3 900.91 334.92 900.84 335.5 C 900.76 336.07 900.53 336.59 900.28 336.83 C 900.27 336.84 900.27 336.85 900.26 336.85 C 899.65 337.53 899.03 337.78 898.17 337.78 L 887.02 337.78 C 886.2 337.78 885.39 337.41 884.85 336.73 C 884.44 336.13 884.14 335.02 884.46 334.02 C 884.79 333.27 885.36 332.55 886.41 332.36 C 886.6 332.32 886.74 332.14 886.71 331.94 C 886.56 330.79 886.8 329.81 887.7 328.74 C 888.49 327.85 889.33 327.39 890.43 327.38 Z M 892.2 330.7 C 891.77 330.7 891.4 330.93 891.13 331.21 C 890.85 331.5 890.64 331.85 890.64 332.25 L 890.64 332.71 L 890.14 332.71 C 890.04 332.71 889.94 332.75 889.87 332.82 C 889.8 332.89 889.76 332.98 889.76 333.08 L 889.76 335.7 C 889.76 335.8 889.8 335.89 889.87 335.96 C 889.94 336.03 890.04 336.07 890.14 336.07 L 894.16 336.07 C 894.26 336.07 894.35 336.03 894.42 335.96 C 894.49 335.89 894.53 335.8 894.53 335.7 L 894.53 333.08 C 894.53 332.98 894.49 332.89 894.42 332.82 C 894.35 332.75 894.26 332.71 894.16 332.71 L 893.68 332.71 L 893.68 332.25 C 893.68 331.84 893.47 331.47 893.21 331.2 C 892.94 330.92 892.61 330.7 892.2 330.7 Z M 892.2 331.45 C 892.29 331.45 892.5 331.54 892.67 331.72 C 892.83 331.89 892.93 332.11 892.93 332.25 L 892.93 332.71 L 891.39 332.71 L 891.39 332.25 C 891.39 332.15 891.49 331.91 891.66 331.74 C 891.83 331.56 892.06 331.45 892.2 331.45 Z M 890.51 333.46 L 893.78 333.46 L 893.78 335.32 L 890.51 335.32 Z M 880 345 L 880 320 L 905 320 L 905 345 Z" fill="#248814" stroke="none" pointer-events="all" style="fill: light-dark(rgb(36, 136, 20), rgb(85, 171, 71));"/></g><g><g><switch><foreignObject style="overflow: visible; text-align: left;" pointer-events="none" width="100%" height="100%" requiredFeatures="http://www.w3.org/TR/SVG11/feature#Extensibility"><div xmlns="http://www.w3.org/1999/xhtml" style="display: flex; align-items: unsafe flex-start; justify-content: unsafe flex-start; width: 248px; height: 1px; padding-top: 327px; margin-left: 912px;"><div style="box-sizing: border-box; font-size: 0; text-align: left; color: #232F3E; "><div style="display: inline-block; font-size: 10px; font-family: Helvetica; color: light-dark(#232F3E, #bdc7d4); line-height: 1.2; pointer-events: all; font-weight: bold; white-space: normal; word-wrap: normal; ">Workload VPC B<br />(開発 - acc 222222222222)</div></div></div></foreignObject><text x="912" y="337" fill="#232F3E" font-family="Helvetica" font-size="10px" font-weight="bold">Workload VPC B...</text></switch></g></g></g><g data-cell-id="vpc_b_ec2"><g transform="translate(0.5,0.5)"><path d="M 920 360 L 970 360 L 970 410 L 920 410 Z" fill="#ed7100" stroke="none" pointer-events="all" style="fill: light-dark(rgb(237, 113, 0), rgb(216, 109, 12));"/><path d="M 935.71 394.29 L 953.57 394.29 L 953.57 376.43 L 935.71 376.43 Z M 955 376.43 L 957.86 376.43 L 957.86 377.86 L 955 377.86 L 955 380.71 L 957.86 380.71 L 957.86 382.14 L 955 382.14 L 955 384.29 L 957.86 384.29 L 957.86 385.71 L 955 385.71 L 955 388.57 L 957.86 388.57 L 957.86 390 L 955 390 L 955 392.86 L 957.86 392.86 L 957.86 394.29 L 955 394.29 L 955 394.38 C 955 395.12 954.4 395.71 953.67 395.71 L 953.57 395.71 L 953.57 398.57 L 952.14 398.57 L 952.14 395.71 L 949.29 395.71 L 949.29 398.57 L 947.86 398.57 L 947.86 395.71 L 945.71 395.71 L 945.71 398.57 L 944.29 398.57 L 944.29 395.71 L 941.43 395.71 L 941.43 398.57 L 940 398.57 L 940 395.71 L 937.14 395.71 L 937.14 398.57 L 935.71 398.57 L 935.71 395.71 L 935.62 395.71 C 934.88 395.71 934.29 395.12 934.29 394.38 L 934.29 394.29 L 932.14 394.29 L 932.14 392.86 L 934.29 392.86 L 934.29 390 L 932.14 390 L 932.14 388.57 L 934.29 388.57 L 934.29 385.71 L 932.14 385.71 L 932.14 384.29 L 934.29 384.29 L 934.29 382.14 L 932.14 382.14 L 932.14 380.71 L 934.29 380.71 L 934.29 377.86 L 932.14 377.86 L 932.14 376.43 L 934.29 376.43 L 934.29 376.33 C 934.29 375.6 934.88 375 935.62 375 L 935.71 375 L 935.71 372.14 L 937.14 372.14 L 937.14 375 L 940 375 L 940 372.14 L 941.43 372.14 L 941.43 375 L 944.29 375 L 944.29 372.14 L 945.71 372.14 L 945.71 375 L 947.86 375 L 947.86 372.14 L 949.29 372.14 L 949.29 375 L 952.14 375 L 952.14 372.14 L 953.57 372.14 L 953.57 375 L 953.67 375 C 954.4 375 955 375.6 955 376.33 Z M 945.71 403.48 C 945.71 403.53 945.67 403.57 945.63 403.57 L 926.52 403.57 C 926.47 403.57 926.43 403.53 926.43 403.48 L 926.43 384.37 C 926.43 384.33 926.47 384.29 926.52 384.29 L 930.71 384.29 L 930.71 382.86 L 926.52 382.86 C 925.68 382.86 925 383.54 925 384.37 L 925 403.48 C 925 404.32 925.68 405 926.52 405 L 945.63 405 C 946.46 405 947.14 404.32 947.14 403.48 L 947.14 400 L 945.71 400 Z M 965 366.52 L 965 385.63 C 965 386.46 964.32 387.14 963.48 387.14 L 959.29 387.14 L 959.29 385.71 L 963.48 385.71 C 963.53 385.71 963.57 385.67 963.57 385.63 L 963.57 366.52 C 963.57 366.47 963.53 366.43 963.48 366.43 L 944.37 366.43 C 944.33 366.43 944.29 366.47 944.29 366.52 L 944.29 370.71 L 942.86 370.71 L 942.86 366.52 C 942.86 365.68 943.54 365 944.37 365 L 963.48 365 C 964.32 365 965 365.68 965 366.52 Z" fill="#ffffff" stroke="none" pointer-events="all" style="fill: light-dark(rgb(255, 255, 255), rgb(18, 18, 18));"/></g></g><g data-cell-id="vpc_b_alb"><g transform="translate(0.5,0.5)"><path d="M 1040 360 L 1090 360 L 1090 410 L 1040 410 Z" fill="#8c4fff" stroke="none" pointer-events="all" style="fill: light-dark(rgb(140, 79, 255), rgb(177, 125, 255));"/><path d="M 1057 395.4 C 1051.27 395.4 1046.6 390.73 1046.6 385 C 1046.6 379.27 1051.27 374.6 1057 374.6 C 1062.73 374.6 1067.4 379.27 1067.4 385 C 1067.4 390.73 1062.73 395.4 1057 395.4 M 1081 400.2 C 1081 401.96 1079.56 403.4 1077.8 403.4 C 1076.04 403.4 1074.6 401.96 1074.6 400.2 C 1074.6 398.44 1076.04 397 1077.8 397 C 1079.56 397 1081 398.44 1081 400.2 M 1077.8 366.6 C 1079.56 366.6 1081 368.04 1081 369.8 C 1081 371.56 1079.56 373 1077.8 373 C 1076.04 373 1074.6 371.56 1074.6 369.8 C 1074.6 368.04 1076.04 366.6 1077.8 366.6 M 1080.2 381.8 C 1081.96 381.8 1083.4 383.24 1083.4 385 C 1083.4 386.76 1081.96 388.2 1080.2 388.2 C 1078.44 388.2 1077 386.76 1077 385 C 1077 383.24 1078.44 381.8 1080.2 381.8 M 1068.96 385.8 L 1075.47 385.8 C 1075.85 388.07 1077.83 389.8 1080.2 389.8 C 1082.85 389.8 1085 387.65 1085 385 C 1085 382.35 1082.85 380.2 1080.2 380.2 C 1077.83 380.2 1075.85 381.93 1075.47 384.2 L 1068.96 384.2 C 1068.86 382.68 1068.48 381.24 1067.86 379.92 L 1074.96 373.66 C 1075.75 374.25 1076.74 374.6 1077.8 374.6 C 1080.45 374.6 1082.6 372.45 1082.6 369.8 C 1082.6 367.15 1080.45 365 1077.8 365 C 1075.15 365 1073 367.15 1073 369.8 C 1073 370.8 1073.31 371.74 1073.84 372.51 L 1067.06 378.49 C 1064.92 375.19 1061.22 373 1057 373 C 1050.38 373 1045 378.38 1045 385 C 1045 391.62 1050.38 397 1057 397 C 1061.22 397 1064.92 394.81 1067.06 391.51 L 1073.84 397.49 C 1073.31 398.26 1073 399.2 1073 400.2 C 1073 402.85 1075.15 405 1077.8 405 C 1080.45 405 1082.6 402.85 1082.6 400.2 C 1082.6 397.55 1080.45 395.4 1077.8 395.4 C 1076.74 395.4 1075.75 395.75 1074.96 396.34 L 1067.86 390.08 C 1068.48 388.76 1068.86 387.32 1068.96 385.8" fill="#ffffff" stroke="none" pointer-events="all" style="fill: light-dark(rgb(255, 255, 255), rgb(18, 18, 18));"/></g></g><g data-cell-id="vpc_b_query"><g transform="translate(0.5,0.5)"><rect x="890" y="430" width="260" height="50" fill="none" stroke="none" pointer-events="all"/></g><g><g><switch><foreignObject style="overflow: visible; text-align: left;" pointer-events="none" width="100%" height="100%" requiredFeatures="http://www.w3.org/TR/SVG11/feature#Extensibility"><div xmlns="http://www.w3.org/1999/xhtml" style="display: flex; align-items: unsafe center; justify-content: unsafe center; width: 258px; height: 1px; padding-top: 455px; margin-left: 891px;"><div style="box-sizing: border-box; font-size: 0; text-align: center; color: #248814; "><div style="display: inline-block; font-size: 10px; font-family: Helvetica; color: light-dark(#248814, #55ab47); line-height: 1.2; pointer-events: all; font-weight: bold; white-space: normal; word-wrap: normal; ">api.internal.example.com<br />→ ALB の私有 IP<br />(同じ PHZ を共有)</div></div></div></foreignObject><text x="1020" y="458" fill="#248814" font-family="Helvetica" font-size="10px" text-anchor="middle" font-weight="bold">api.internal.example.com...</text></switch></g></g></g><g data-cell-id="vpc_b_cidr"><g transform="translate(0.5,0.5)"><rect x="890" y="490" width="260" height="40" fill="none" stroke="none" pointer-events="all"/></g><g><g><switch><foreignObject style="overflow: visible; text-align: left;" pointer-events="none" width="100%" height="100%" requiredFeatures="http://www.w3.org/TR/SVG11/feature#Extensibility"><div xmlns="http://www.w3.org/1999/xhtml" style="display: flex; align-items: unsafe center; justify-content: unsafe center; width: 258px; height: 1px; padding-top: 510px; margin-left: 891px;"><div style="box-sizing: border-box; font-size: 0; text-align: center; color: #FF9900; "><div style="display: inline-block; font-size: 9px; font-family: Helvetica; color: light-dark(#FF9900, #af5700); line-height: 1.2; pointer-events: all; font-style: italic; white-space: normal; word-wrap: normal; ">enableDnsSupport ✅<br />enableDnsHostnames ✅</div></div></div></foreignObject><text x="1020" y="513" fill="#FF9900" font-family="Helvetica" font-size="9px" text-anchor="middle" font-style="italic">enableDnsSupport ✅...</text></switch></g></g></g><g data-cell-id="vpc_c"><g transform="translate(0.5,0.5)"><path d="M 1180 320 L 1480 320 L 1480 540 L 1180 540 Z" fill="#ffffff" stroke="#7aa116" stroke-miterlimit="10" pointer-events="all" style="fill: light-dark(rgb(255, 255, 255), rgb(18, 18, 18)); stroke: light-dark(rgb(122, 161, 22), rgb(97, 130, 11));"/><path d="M 1190.59 326.65 C 1190.53 326.65 1190.48 326.65 1190.42 326.65 L 1190.42 326.65 C 1189.11 326.68 1188.03 327.24 1187.14 328.25 C 1187.13 328.25 1187.13 328.25 1187.13 328.25 C 1186.2 329.36 1185.87 330.52 1185.96 331.73 C 1184.81 332.06 1184.12 332.92 1183.76 333.74 C 1183.75 333.75 1183.75 333.76 1183.74 333.78 C 1183.33 335.05 1183.68 336.36 1184.24 337.16 C 1184.25 337.17 1184.25 337.17 1184.26 337.18 C 1184.94 338.05 1185.97 338.53 1187.02 338.53 L 1198.17 338.53 C 1199.19 338.53 1200.07 338.16 1200.8 337.37 C 1201.25 336.94 1201.49 336.29 1201.58 335.59 C 1201.67 334.9 1201.61 334.16 1201.32 333.55 C 1201.31 333.54 1201.31 333.53 1201.31 333.52 C 1200.8 332.62 1199.95 331.81 1198.76 331.64 C 1198.74 330.79 1198.28 329.99 1197.68 329.56 C 1197.67 329.55 1197.66 329.55 1197.65 329.54 C 1197.01 329.18 1196.4 329.14 1195.91 329.3 C 1195.6 329.4 1195.36 329.56 1195.14 329.74 C 1194.51 328.36 1193.43 327.18 1191.81 326.79 C 1191.81 326.79 1191.81 326.79 1191.81 326.79 C 1191.38 326.7 1190.97 326.65 1190.59 326.65 Z M 1190.43 327.38 C 1190.8 327.38 1191.2 327.43 1191.64 327.53 C 1193.16 327.89 1194.15 329.07 1194.66 330.48 C 1194.71 330.6 1194.81 330.69 1194.94 330.72 C 1195.07 330.74 1195.2 330.7 1195.29 330.61 C 1195.54 330.34 1195.83 330.11 1196.14 330.01 C 1196.44 329.91 1196.78 329.92 1197.26 330.18 C 1197.67 330.49 1198.11 331.31 1198.03 331.9 C 1198.01 332.01 1198.05 332.12 1198.12 332.2 C 1198.19 332.28 1198.29 332.33 1198.39 332.33 C 1199.46 332.34 1200.16 333.02 1200.64 333.88 C 1200.85 334.3 1200.91 334.92 1200.84 335.5 C 1200.76 336.07 1200.53 336.59 1200.28 336.83 C 1200.27 336.84 1200.27 336.85 1200.26 336.85 C 1199.65 337.53 1199.03 337.78 1198.17 337.78 L 1187.02 337.78 C 1186.2 337.78 1185.39 337.41 1184.85 336.73 C 1184.44 336.13 1184.14 335.02 1184.46 334.02 C 1184.79 333.27 1185.36 332.55 1186.41 332.36 C 1186.6 332.32 1186.74 332.14 1186.71 331.94 C 1186.56 330.79 1186.8 329.81 1187.7 328.74 C 1188.49 327.85 1189.33 327.39 1190.43 327.38 Z M 1192.2 330.7 C 1191.77 330.7 1191.4 330.93 1191.13 331.21 C 1190.85 331.5 1190.64 331.85 1190.64 332.25 L 1190.64 332.71 L 1190.14 332.71 C 1190.04 332.71 1189.94 332.75 1189.87 332.82 C 1189.8 332.89 1189.76 332.98 1189.76 333.08 L 1189.76 335.7 C 1189.76 335.8 1189.8 335.89 1189.87 335.96 C 1189.94 336.03 1190.04 336.07 1190.14 336.07 L 1194.16 336.07 C 1194.26 336.07 1194.35 336.03 1194.42 335.96 C 1194.49 335.89 1194.53 335.8 1194.53 335.7 L 1194.53 333.08 C 1194.53 332.98 1194.49 332.89 1194.42 332.82 C 1194.35 332.75 1194.26 332.71 1194.16 332.71 L 1193.68 332.71 L 1193.68 332.25 C 1193.68 331.84 1193.47 331.47 1193.21 331.2 C 1192.94 330.92 1192.61 330.7 1192.2 330.7 Z M 1192.2 331.45 C 1192.29 331.45 1192.5 331.54 1192.67 331.72 C 1192.83 331.89 1192.93 332.11 1192.93 332.25 L 1192.93 332.71 L 1191.39 332.71 L 1191.39 332.25 C 1191.39 332.15 1191.49 331.91 1191.66 331.74 C 1191.83 331.56 1192.06 331.45 1192.2 331.45 Z M 1190.51 333.46 L 1193.78 333.46 L 1193.78 335.32 L 1190.51 335.32 Z M 1180 345 L 1180 320 L 1205 320 L 1205 345 Z" fill="#7aa116" stroke="none" pointer-events="all" style="fill: light-dark(rgb(122, 161, 22), rgb(97, 130, 11));"/></g><g><g><switch><foreignObject style="overflow: visible; text-align: left;" pointer-events="none" width="100%" height="100%" requiredFeatures="http://www.w3.org/TR/SVG11/feature#Extensibility"><div xmlns="http://www.w3.org/1999/xhtml" style="display: flex; align-items: unsafe flex-start; justify-content: unsafe flex-start; width: 268px; height: 1px; padding-top: 327px; margin-left: 1212px;"><div style="box-sizing: border-box; font-size: 0; text-align: left; color: #232F3E; "><div style="display: inline-block; font-size: 10px; font-family: Helvetica; color: light-dark(#232F3E, #bdc7d4); line-height: 1.2; pointer-events: all; font-weight: bold; white-space: normal; word-wrap: normal; ">Sandbox VPC C<br />(個人 - acc 333333333333)</div></div></div></foreignObject><text x="1212" y="337" fill="#232F3E" font-family="Helvetica" font-size="10px" font-weight="bold">Sandbox VPC C...</text></switch></g></g></g><g data-cell-id="vpc_c_ec2"><g transform="translate(0.5,0.5)"><path d="M 1300 360 L 1350 360 L 1350 410 L 1300 410 Z" fill="#ed7100" stroke="none" pointer-events="all" style="fill: light-dark(rgb(237, 113, 0), rgb(216, 109, 12));"/><path d="M 1315.71 394.29 L 1333.57 394.29 L 1333.57 376.43 L 1315.71 376.43 Z M 1335 376.43 L 1337.86 376.43 L 1337.86 377.86 L 1335 377.86 L 1335 380.71 L 1337.86 380.71 L 1337.86 382.14 L 1335 382.14 L 1335 384.29 L 1337.86 384.29 L 1337.86 385.71 L 1335 385.71 L 1335 388.57 L 1337.86 388.57 L 1337.86 390 L 1335 390 L 1335 392.86 L 1337.86 392.86 L 1337.86 394.29 L 1335 394.29 L 1335 394.38 C 1335 395.12 1334.4 395.71 1333.67 395.71 L 1333.57 395.71 L 1333.57 398.57 L 1332.14 398.57 L 1332.14 395.71 L 1329.29 395.71 L 1329.29 398.57 L 1327.86 398.57 L 1327.86 395.71 L 1325.71 395.71 L 1325.71 398.57 L 1324.29 398.57 L 1324.29 395.71 L 1321.43 395.71 L 1321.43 398.57 L 1320 398.57 L 1320 395.71 L 1317.14 395.71 L 1317.14 398.57 L 1315.71 398.57 L 1315.71 395.71 L 1315.62 395.71 C 1314.88 395.71 1314.29 395.12 1314.29 394.38 L 1314.29 394.29 L 1312.14 394.29 L 1312.14 392.86 L 1314.29 392.86 L 1314.29 390 L 1312.14 390 L 1312.14 388.57 L 1314.29 388.57 L 1314.29 385.71 L 1312.14 385.71 L 1312.14 384.29 L 1314.29 384.29 L 1314.29 382.14 L 1312.14 382.14 L 1312.14 380.71 L 1314.29 380.71 L 1314.29 377.86 L 1312.14 377.86 L 1312.14 376.43 L 1314.29 376.43 L 1314.29 376.33 C 1314.29 375.6 1314.88 375 1315.62 375 L 1315.71 375 L 1315.71 372.14 L 1317.14 372.14 L 1317.14 375 L 1320 375 L 1320 372.14 L 1321.43 372.14 L 1321.43 375 L 1324.29 375 L 1324.29 372.14 L 1325.71 372.14 L 1325.71 375 L 1327.86 375 L 1327.86 372.14 L 1329.29 372.14 L 1329.29 375 L 1332.14 375 L 1332.14 372.14 L 1333.57 372.14 L 1333.57 375 L 1333.67 375 C 1334.4 375 1335 375.6 1335 376.33 Z M 1325.71 403.48 C 1325.71 403.53 1325.67 403.57 1325.63 403.57 L 1306.52 403.57 C 1306.47 403.57 1306.43 403.53 1306.43 403.48 L 1306.43 384.37 C 1306.43 384.33 1306.47 384.29 1306.52 384.29 L 1310.71 384.29 L 1310.71 382.86 L 1306.52 382.86 C 1305.68 382.86 1305 383.54 1305 384.37 L 1305 403.48 C 1305 404.32 1305.68 405 1306.52 405 L 1325.63 405 C 1326.46 405 1327.14 404.32 1327.14 403.48 L 1327.14 400 L 1325.71 400 Z M 1345 366.52 L 1345 385.63 C 1345 386.46 1344.32 387.14 1343.48 387.14 L 1339.29 387.14 L 1339.29 385.71 L 1343.48 385.71 C 1343.53 385.71 1343.57 385.67 1343.57 385.63 L 1343.57 366.52 C 1343.57 366.47 1343.53 366.43 1343.48 366.43 L 1324.37 366.43 C 1324.33 366.43 1324.29 366.47 1324.29 366.52 L 1324.29 370.71 L 1322.86 370.71 L 1322.86 366.52 C 1322.86 365.68 1323.54 365 1324.37 365 L 1343.48 365 C 1344.32 365 1345 365.68 1345 366.52 Z" fill="#ffffff" stroke="none" pointer-events="all" style="fill: light-dark(rgb(255, 255, 255), rgb(18, 18, 18));"/></g></g><g data-cell-id="vpc_c_query"><g transform="translate(0.5,0.5)"><rect x="1190" y="430" width="280" height="50" fill="none" stroke="none" pointer-events="all"/></g><g><g><switch><foreignObject style="overflow: visible; text-align: left;" pointer-events="none" width="100%" height="100%" requiredFeatures="http://www.w3.org/TR/SVG11/feature#Extensibility"><div xmlns="http://www.w3.org/1999/xhtml" style="display: flex; align-items: unsafe center; justify-content: unsafe center; width: 278px; height: 1px; padding-top: 455px; margin-left: 1191px;"><div style="box-sizing: border-box; font-size: 0; text-align: center; color: #DD344C; "><div style="display: inline-block; font-size: 10px; font-family: Helvetica; color: light-dark(#DD344C, #ff7f93); line-height: 1.2; pointer-events: all; font-weight: bold; white-space: normal; word-wrap: normal; ">❌ db.internal.example.com<br />→ NXDOMAIN (関連付けなし)<br />セキュリティ境界として有効</div></div></div></foreignObject><text x="1330" y="458" fill="#DD344C" font-family="Helvetica" font-size="10px" text-anchor="middle" font-weight="bold">❌ db.internal.example.com...</text></switch></g></g></g><g data-cell-id="vpc_c_cidr"><g transform="translate(0.5,0.5)"><rect x="1190" y="490" width="280" height="20" fill="none" stroke="none" pointer-events="all"/></g><g><g><switch><foreignObject style="overflow: visible; text-align: left;" pointer-events="none" width="100%" height="100%" requiredFeatures="http://www.w3.org/TR/SVG11/feature#Extensibility"><div xmlns="http://www.w3.org/1999/xhtml" style="display: flex; align-items: unsafe center; justify-content: unsafe center; width: 278px; height: 1px; padding-top: 500px; margin-left: 1191px;"><div style="box-sizing: border-box; font-size: 0; text-align: center; color: #DD344C; "><div style="display: inline-block; font-size: 9px; font-family: Helvetica; color: light-dark(#DD344C, #ff7f93); line-height: 1.2; pointer-events: all; font-style: italic; white-space: normal; word-wrap: normal; ">PHZ 関連付け なし → 解決不可</div></div></div></foreignObject><text x="1330" y="503" fill="#DD344C" font-family="Helvetica" font-size="9px" text-anchor="middle" font-style="italic">PHZ 関連付け なし → 解決不可</text></switch></g></g></g><g data-cell-id="arr_phz_a"><g><path d="M 120 140 L 573.03 425.61" fill="none" stroke="#8c4fff" stroke-width="2" stroke-miterlimit="10" stroke-dasharray="6 6" pointer-events="stroke" style="stroke: light-dark(rgb(140, 79, 255), rgb(177, 125, 255));"/><path d="M 578.11 428.81 L 569.21 427.92 L 573.03 425.61 L 573.47 421.16 Z" fill="#8c4fff" stroke="#8c4fff" stroke-width="2" stroke-miterlimit="10" pointer-events="all" style="fill: light-dark(rgb(140, 79, 255), rgb(177, 125, 255)); stroke: light-dark(rgb(140, 79, 255), rgb(177, 125, 255));"/></g></g><g data-cell-id="arr_phz_b"><g><path d="M 120 140 L 872.31 427.06" fill="none" stroke="#8c4fff" stroke-width="2" stroke-miterlimit="10" stroke-dasharray="6 6" pointer-events="stroke" style="stroke: light-dark(rgb(140, 79, 255), rgb(177, 125, 255));"/><path d="M 877.91 429.2 L 869.01 430.09 L 872.31 427.06 L 871.86 422.61 Z" fill="#8c4fff" stroke="#8c4fff" stroke-width="2" stroke-miterlimit="10" pointer-events="all" style="fill: light-dark(rgb(140, 79, 255), rgb(177, 125, 255)); stroke: light-dark(rgb(140, 79, 255), rgb(177, 125, 255));"/></g></g><g data-cell-id="naming_box"><g><rect x="20" y="580" width="900" height="220" rx="33" ry="33" fill="#f5f5f5" stroke="#666666" stroke-width="2" pointer-events="all" style="fill: light-dark(rgb(245, 245, 245), rgb(26, 26, 26)); stroke: light-dark(rgb(102, 102, 102), rgb(149, 149, 149));"/></g><g><g><switch><foreignObject style="overflow: visible; text-align: left;" pointer-events="none" width="100%" height="100%" requiredFeatures="http://www.w3.org/TR/SVG11/feature#Extensibility"><div xmlns="http://www.w3.org/1999/xhtml" style="display: flex; align-items: unsafe flex-start; justify-content: unsafe center; width: 898px; height: 1px; padding-top: 595px; margin-left: 21px;"><div style="box-sizing: border-box; font-size: 0; text-align: center; color: #232F3E; "><div style="display: inline-block; font-size: 13px; font-family: Helvetica; color: light-dark(#232F3E, #bdc7d4); line-height: 1.2; pointer-events: all; font-weight: bold; white-space: normal; word-wrap: normal; ">📛 名前解決設計のベストプラクティス</div></div></div></foreignObject><text x="470" y="608" fill="#232F3E" font-family="Helvetica" font-size="13px" text-anchor="middle" font-weight="bold">📛 名前解決設計のベストプラクティス</text></switch></g></g></g><g data-cell-id="naming_text"><g transform="translate(0.5,0.5)"><rect x="40" y="610" width="860" height="190" fill="none" stroke="none" pointer-events="all"/></g><g><g><switch><foreignObject style="overflow: visible; text-align: left;" pointer-events="none" width="100%" height="100%" requiredFeatures="http://www.w3.org/TR/SVG11/feature#Extensibility"><div xmlns="http://www.w3.org/1999/xhtml" style="display: flex; align-items: unsafe flex-start; justify-content: unsafe flex-start; width: 848px; height: 1px; padding-top: 621px; margin-left: 52px;"><div style="box-sizing: border-box; font-size: 0; text-align: left; color: #232F3E; "><div style="display: inline-block; font-size: 10px; font-family: Helvetica; color: light-dark(#232F3E, #bdc7d4); line-height: 1.2; pointer-events: all; white-space: normal; word-wrap: normal; ">✅ ドメイン階層を環境/サービスで切る<br />　・本番: prod.internal.example.com<br />　・ステージ: stg.internal.example.com<br />　・サービス: api.prod.internal.example.com<br /><br />✅ AWS 予約名を避ける (amazonaws.com / cloudfront.net など)<br />✅ Public Hosted Zone と Private Hosted Zone でルートドメインを共有可 (Split-horizon)<br />✅ ALB/NLB/RDS は CNAME で抽象化 → エンドポイント変更時のクライアント影響なし<br /><br />❌ アンチパターン<br />　・VPC 毎に別 PHZ を作って同じレコードを多重管理 → DRY違反<br />　・ec2-x-x-x-x.compute.amazonaws.com を直接参照 → IP 変更で破綻<br />　・DHCP Options Set でオンプレDNSを直接指定 → AmazonProvidedDNS バイパス<br />　・PHZと同名Public HZ で対応レコードに齟齬 → 経路によって挙動が変わる罠</div></div></div></foreignObject><text x="52" y="631" fill="#232F3E" font-family="Helvetica" font-size="10px">✅ ドメイン階層を環境/サービスで切る...</text></switch></g></g></g><g data-cell-id="dec_box"><g><rect x="940" y="580" width="560" height="220" rx="33" ry="33" fill="#ffefd5" stroke="#ff9900" stroke-width="2" pointer-events="all" style="fill: light-dark(rgb(255, 239, 213), rgb(43, 29, 7)); stroke: light-dark(rgb(255, 153, 0), rgb(175, 87, 0));"/></g><g><g><switch><foreignObject style="overflow: visible; text-align: left;" pointer-events="none" width="100%" height="100%" requiredFeatures="http://www.w3.org/TR/SVG11/feature#Extensibility"><div xmlns="http://www.w3.org/1999/xhtml" style="display: flex; align-items: unsafe flex-start; justify-content: unsafe center; width: 558px; height: 1px; padding-top: 595px; margin-left: 941px;"><div style="box-sizing: border-box; font-size: 0; text-align: center; color: #232F3E; "><div style="display: inline-block; font-size: 13px; font-family: Helvetica; color: light-dark(#232F3E, #bdc7d4); line-height: 1.2; pointer-events: all; font-weight: bold; white-space: normal; word-wrap: normal; ">🧭 試験で迷ったときの判断フロー</div></div></div></foreignObject><text x="1220" y="608" fill="#232F3E" font-family="Helvetica" font-size="13px" text-anchor="middle" font-weight="bold">🧭 試験で迷ったときの判断フロー</text></switch></g></g></g><g data-cell-id="dec_text"><g transform="translate(0.5,0.5)"><rect x="950" y="610" width="540" height="190" fill="none" stroke="none" pointer-events="all"/></g><g><g><switch><foreignObject style="overflow: visible; text-align: left;" pointer-events="none" width="100%" height="100%" requiredFeatures="http://www.w3.org/TR/SVG11/feature#Extensibility"><div xmlns="http://www.w3.org/1999/xhtml" style="display: flex; align-items: unsafe flex-start; justify-content: unsafe flex-start; width: 528px; height: 1px; padding-top: 621px; margin-left: 962px;"><div style="box-sizing: border-box; font-size: 0; text-align: left; color: #232F3E; "><div style="display: inline-block; font-size: 10px; font-family: Helvetica; color: light-dark(#232F3E, #bdc7d4); line-height: 1.2; pointer-events: all; white-space: normal; word-wrap: normal; ">• 「VPC 内部だけで解決したい」<br />  → Private Hosted Zone を VPC に関連付け<br /><br />• 「複数アカウントの VPC で同じ PHZ」<br />  → create-vpc-association-authorization <br />  → associate-vpc-with-hosted-zone<br /><br />• 「内部と外部で同じドメインで違う応答」<br />  → Split-horizon DNS (PHZ + Public HZ)<br /><br />• 「PHZ レコードが解決できない」<br />  → enableDnsSupport / enableDnsHostnames を確認<br />  → DHCP Options Set がカスタムなら戻す<br /><br />• 「Resolver Rule を全VPC で共有」<br />  → AWS RAM 共有 (Rule + Outbound Endpoint)</div></div></div></foreignObject><text x="962" y="631" fill="#232F3E" font-family="Helvetica" font-size="10px">• 「VPC 内部だけで解決したい」...</text></switch></g></g></g></g></g></g><switch><g requiredFeatures="http://www.w3.org/TR/SVG11/feature#Extensibility"/><a transform="translate(0,-5)" xlink:href="https://www.drawio.com/doc/faq/svg-export-text-problems" target="_blank"><text text-anchor="middle" font-size="10px" x="50%" y="100%">Text is not SVG - cannot display</text></a></switch></svg>