<?xml version="1.0" encoding="UTF-8"?>
<!DOCTYPE svg PUBLIC "-//W3C//DTD SVG 1.1//EN" "http://www.w3.org/Graphics/SVG/1.1/DTD/svg11.dtd">
<svg xmlns="http://www.w3.org/2000/svg" style="background: transparent; background-color: transparent; color-scheme: light;" xmlns:xlink="http://www.w3.org/1999/xlink" version="1.1" width="1001px" height="532px" viewBox="0 0 1001 532"><defs/><g><g data-cell-id="0"><g data-cell-id="1"><g data-cell-id="title"><g transform="translate(0.5,0.5)"><rect x="0" y="0" width="1000" height="30" fill="none" stroke="none" pointer-events="all"/></g><g><g><switch><foreignObject style="overflow: visible; text-align: left;" pointer-events="none" width="100%" height="100%" requiredFeatures="http://www.w3.org/TR/SVG11/feature#Extensibility"><div xmlns="http://www.w3.org/1999/xhtml" style="display: flex; align-items: unsafe center; justify-content: unsafe center; width: 998px; height: 1px; padding-top: 15px; margin-left: 1px;"><div style="box-sizing: border-box; font-size: 0; text-align: center; color: #232F3E; "><div style="display: inline-block; font-size: 18px; font-family: Helvetica; color: light-dark(#232F3E, #bdc7d4); line-height: 1.2; pointer-events: all; font-weight: bold; white-space: normal; word-wrap: normal; ">SAP-101: クロスアカウント S3 + KMS — 3 箇所のポリシーを揃える必要</div></div></div></foreignObject><text x="500" y="20" fill="#232F3E" font-family="Helvetica" font-size="18px" text-anchor="middle" font-weight="bold">SAP-101: クロスアカウント S3 + KMS — 3 箇所のポリシーを揃える必要</text></switch></g></g></g><g data-cell-id="prod"><g><rect x="30" y="50" width="420" height="480" rx="63" ry="63" fill="#ebf1ff" stroke="#3b48cc" stroke-width="2" pointer-events="all" style="fill: light-dark(rgb(235, 241, 255), rgb(25, 30, 42)); stroke: light-dark(rgb(59, 72, 204), rgb(152, 163, 255));"/></g><g><g><switch><foreignObject style="overflow: visible; text-align: left;" pointer-events="none" width="100%" height="100%" requiredFeatures="http://www.w3.org/TR/SVG11/feature#Extensibility"><div xmlns="http://www.w3.org/1999/xhtml" style="display: flex; align-items: unsafe flex-start; justify-content: unsafe center; width: 418px; height: 1px; padding-top: 63px; margin-left: 31px;"><div style="box-sizing: border-box; font-size: 0; text-align: center; color: #232F3E; "><div style="display: inline-block; font-size: 12px; font-family: Helvetica; color: light-dark(#232F3E, #bdc7d4); line-height: 1.2; pointer-events: all; font-weight: bold; white-space: normal; word-wrap: normal; ">制作アカウント (オブジェクト所有 + KMS)</div></div></div></foreignObject><text x="240" y="75" fill="#232F3E" font-family="Helvetica" font-size="12px" text-anchor="middle" font-weight="bold">制作アカウント (オブジェクト所有 + KMS)</text></switch></g></g></g><g data-cell-id="s3"><g transform="translate(0.5,0.5)"><path d="M 90 100 L 140 100 L 140 150 L 90 150 Z" fill="#7aa116" stroke="none" pointer-events="all" style="fill: light-dark(rgb(122, 161, 22), rgb(97, 130, 11));"/><path d="M 129.92 127.07 L 130.2 125.14 C 132.73 126.65 132.76 127.28 132.76 127.29 C 132.76 127.3 132.32 127.66 129.92 127.07 Z M 128.54 126.68 C 124.16 125.36 118.08 122.56 115.61 121.4 C 115.61 121.39 115.62 121.38 115.62 121.37 C 115.62 120.42 114.85 119.66 113.9 119.66 C 112.95 119.66 112.18 120.42 112.18 121.37 C 112.18 122.32 112.95 123.09 113.9 123.09 C 114.31 123.09 114.69 122.93 114.99 122.69 C 117.89 124.06 123.93 126.81 128.33 128.11 L 126.59 140.4 C 126.59 140.43 126.58 140.47 126.58 140.5 C 126.58 141.58 121.79 143.57 113.97 143.57 C 106.06 143.57 101.21 141.58 101.21 140.5 C 101.21 140.47 101.21 140.44 101.21 140.4 L 97.57 113.83 C 100.72 116 107.49 117.14 113.97 117.14 C 120.44 117.14 127.2 116 130.36 113.84 Z M 97.18 111.06 C 97.24 110.12 102.64 106.43 113.97 106.43 C 125.3 106.43 130.7 110.11 130.76 111.06 L 130.76 111.38 C 130.13 113.48 123.13 115.71 113.97 115.71 C 104.79 115.71 97.79 113.48 97.18 111.37 Z M 132.18 111.07 C 132.18 108.6 125.09 105 113.97 105 C 102.85 105 95.76 108.6 95.76 111.07 L 95.82 111.61 L 99.79 140.56 C 99.88 143.79 108.51 145 113.97 145 C 120.73 145 127.92 143.44 128.01 140.56 L 129.72 128.49 C 130.68 128.72 131.46 128.83 132.09 128.83 C 132.93 128.83 133.5 128.63 133.85 128.21 C 134.14 127.88 134.24 127.47 134.16 127.03 C 133.98 126.04 132.8 124.97 130.41 123.61 L 132.11 111.64 Z" fill="#ffffff" stroke="none" pointer-events="all" style="fill: light-dark(rgb(255, 255, 255), rgb(18, 18, 18));"/></g></g><g data-cell-id="s3_l"><g transform="translate(0.5,0.5)"><rect x="50" y="158" width="130" height="20" fill="none" stroke="none" pointer-events="all"/></g><g><g><switch><foreignObject style="overflow: visible; text-align: left;" pointer-events="none" width="100%" height="100%" requiredFeatures="http://www.w3.org/TR/SVG11/feature#Extensibility"><div xmlns="http://www.w3.org/1999/xhtml" style="display: flex; align-items: unsafe center; justify-content: unsafe center; width: 128px; height: 1px; padding-top: 168px; margin-left: 51px;"><div style="box-sizing: border-box; font-size: 0; text-align: center; color: #232F3E; "><div style="display: inline-block; font-size: 10px; font-family: Helvetica; color: light-dark(#232F3E, #bdc7d4); line-height: 1.2; pointer-events: all; font-weight: bold; white-space: normal; word-wrap: normal; ">S3 バケット</div></div></div></foreignObject><text x="115" y="171" fill="#232F3E" font-family="Helvetica" font-size="10px" text-anchor="middle" font-weight="bold">S3 バケット</text></switch></g></g></g><g data-cell-id="s3_p"><g transform="translate(0.5,0.5)"><rect x="50" y="190" width="180" height="130" fill="none" stroke="none" pointer-events="all"/></g><g><g><switch><foreignObject style="overflow: visible; text-align: left;" pointer-events="none" width="100%" height="100%" requiredFeatures="http://www.w3.org/TR/SVG11/feature#Extensibility"><div xmlns="http://www.w3.org/1999/xhtml" style="display: flex; align-items: unsafe center; justify-content: unsafe flex-start; width: 178px; height: 1px; padding-top: 255px; margin-left: 52px;"><div style="box-sizing: border-box; font-size: 0; text-align: left; color: #7AA116; "><div style="display: inline-block; font-size: 9px; font-family: Helvetica; color: light-dark(#7AA116, #61820b); line-height: 1.2; pointer-events: all; white-space: normal; word-wrap: normal; ">① バケットポリシー<br />  Principal:<br />    arn:aws:iam::OPS:role/X<br />  Action:<br />    s3:GetObject<br />  Resource: bucket/*</div></div></div></foreignObject><text x="52" y="258" fill="#7AA116" font-family="Helvetica" font-size="9px">① バケットポリシー...</text></switch></g></g></g><g data-cell-id="kms"><g transform="translate(0.5,0.5)"><path d="M 280 100 L 330 100 L 330 150 L 280 150 Z" fill="#dd344c" stroke="none" pointer-events="all" style="fill: light-dark(rgb(221, 52, 76), rgb(255, 127, 147));"/><path d="M 314.23 134.45 L 319.61 134.45 L 319.61 132.91 L 314.23 132.91 Z M 307.31 134.45 L 312.69 134.45 L 312.69 132.91 L 307.31 132.91 Z M 300.38 134.45 L 305.77 134.45 L 305.77 132.91 L 300.38 132.91 Z M 308.84 128.29 C 308.84 127.44 309.54 126.75 310.38 126.75 C 311.23 126.75 311.92 127.44 311.92 128.29 C 311.92 129.14 311.23 129.83 310.38 129.83 C 309.54 129.83 308.84 129.14 308.84 128.29 Z M 313.46 128.29 C 313.46 126.6 312.08 125.22 310.38 125.22 C 308.69 125.22 307.31 126.6 307.31 128.29 C 307.31 129.99 308.69 131.37 310.38 131.37 C 312.08 131.37 313.46 129.99 313.46 128.29 Z M 302.69 126.75 C 303.54 126.75 304.23 127.44 304.23 128.29 C 304.23 129.14 303.54 129.83 302.69 129.83 C 301.84 129.83 301.15 129.14 301.15 128.29 C 301.15 127.44 301.84 126.75 302.69 126.75 Z M 302.69 131.37 C 304.39 131.37 305.77 129.99 305.77 128.29 C 305.77 126.6 304.39 125.22 302.69 125.22 C 300.99 125.22 299.61 126.6 299.61 128.29 C 299.61 129.99 300.99 131.37 302.69 131.37 Z M 325 119.83 L 325 137.52 C 325 137.95 324.66 138.29 324.23 138.29 L 300.38 138.29 L 300.38 136.75 L 323.46 136.75 L 323.46 120.6 L 306.54 120.6 L 306.54 119.06 L 324.23 119.06 C 324.66 119.06 325 119.41 325 119.83 Z M 297.84 123.71 C 297.52 123.81 297.31 124.11 297.31 124.45 L 297.31 140.63 L 295.46 142.21 L 293.46 139.93 L 293.46 137.91 C 293.46 137.7 293.38 137.51 293.23 137.36 L 291.47 135.6 L 293.23 133.84 C 293.38 133.69 293.46 133.5 293.46 133.29 L 293.46 131.75 C 293.46 131.55 293.38 131.35 293.23 131.21 L 291.47 129.45 L 293.23 127.68 C 293.38 127.54 293.46 127.34 293.46 127.14 L 293.46 124.45 C 293.46 124.12 293.24 123.82 292.92 123.72 C 288.97 122.47 286.63 118.4 287.48 114.26 C 288.1 111.27 290.4 108.88 293.33 108.16 C 295.83 107.54 298.39 108.08 300.36 109.62 C 302.33 111.17 303.46 113.49 303.46 115.98 C 303.46 119.49 301.15 122.67 297.84 123.71 Z M 305 115.98 C 305 113.01 303.66 110.25 301.31 108.41 C 298.97 106.58 295.93 105.94 292.97 106.66 C 289.46 107.52 286.71 110.38 285.98 113.94 L 285.98 113.94 C 285 118.67 287.54 123.32 291.92 125 L 291.92 126.82 L 289.84 128.9 C 289.54 129.2 289.54 129.69 289.84 129.99 L 291.92 132.07 L 291.92 132.97 L 289.84 135.06 C 289.54 135.36 289.54 135.84 289.84 136.14 L 291.92 138.23 L 291.92 140.22 C 291.92 140.4 291.99 140.58 292.11 140.72 L 294.8 143.8 C 294.96 143.97 295.17 144.06 295.38 144.06 C 295.56 144.06 295.74 144 295.88 143.88 L 298.58 141.57 C 298.75 141.42 298.84 141.21 298.84 140.99 L 298.84 124.99 C 302.5 123.58 305 119.96 305 115.98 Z M 295.38 117.81 C 294.32 117.81 293.46 116.94 293.46 115.88 C 293.46 114.82 294.32 113.96 295.38 113.96 C 296.44 113.96 297.31 114.82 297.31 115.88 C 297.31 116.94 296.44 117.81 295.38 117.81 Z M 295.38 112.42 C 293.47 112.42 291.92 113.98 291.92 115.88 C 291.92 117.79 293.47 119.35 295.38 119.35 C 297.29 119.35 298.84 117.79 298.84 115.88 C 298.84 113.98 297.29 112.42 295.38 112.42 Z" fill="#ffffff" stroke="none" pointer-events="all" style="fill: light-dark(rgb(255, 255, 255), rgb(18, 18, 18));"/></g></g><g data-cell-id="kms_l"><g transform="translate(0.5,0.5)"><rect x="245" y="158" width="120" height="20" fill="none" stroke="none" pointer-events="all"/></g><g><g><switch><foreignObject style="overflow: visible; text-align: left;" pointer-events="none" width="100%" height="100%" requiredFeatures="http://www.w3.org/TR/SVG11/feature#Extensibility"><div xmlns="http://www.w3.org/1999/xhtml" style="display: flex; align-items: unsafe center; justify-content: unsafe center; width: 118px; height: 1px; padding-top: 168px; margin-left: 246px;"><div style="box-sizing: border-box; font-size: 0; text-align: center; color: #232F3E; "><div style="display: inline-block; font-size: 10px; font-family: Helvetica; color: light-dark(#232F3E, #bdc7d4); line-height: 1.2; pointer-events: all; font-weight: bold; white-space: normal; word-wrap: normal; ">KMS CMK</div></div></div></foreignObject><text x="305" y="171" fill="#232F3E" font-family="Helvetica" font-size="10px" text-anchor="middle" font-weight="bold">KMS CMK</text></switch></g></g></g><g data-cell-id="kms_p"><g transform="translate(0.5,0.5)"><rect x="240" y="190" width="190" height="130" fill="none" stroke="none" pointer-events="all"/></g><g><g><switch><foreignObject style="overflow: visible; text-align: left;" pointer-events="none" width="100%" height="100%" requiredFeatures="http://www.w3.org/TR/SVG11/feature#Extensibility"><div xmlns="http://www.w3.org/1999/xhtml" style="display: flex; align-items: unsafe center; justify-content: unsafe flex-start; width: 188px; height: 1px; padding-top: 255px; margin-left: 242px;"><div style="box-sizing: border-box; font-size: 0; text-align: left; color: #DD344C; "><div style="display: inline-block; font-size: 9px; font-family: Helvetica; color: light-dark(#DD344C, #ff7f93); line-height: 1.2; pointer-events: all; white-space: normal; word-wrap: normal; ">② KMS キーポリシー<br />  Principal:<br />    arn:aws:iam::OPS:role/X<br />  Action:<br />    kms:Decrypt<br />    kms:GenerateDataKey</div></div></div></foreignObject><text x="242" y="258" fill="#DD344C" font-family="Helvetica" font-size="9px">② KMS キーポリシー...</text></switch></g></g></g><g data-cell-id="prod_note"><g transform="translate(0.5,0.5)"><rect x="50" y="340" width="390" height="170" fill="none" stroke="none" pointer-events="all"/></g><g><g><switch><foreignObject style="overflow: visible; text-align: left;" pointer-events="none" width="100%" height="100%" requiredFeatures="http://www.w3.org/TR/SVG11/feature#Extensibility"><div xmlns="http://www.w3.org/1999/xhtml" style="display: flex; align-items: unsafe center; justify-content: unsafe flex-start; width: 388px; height: 1px; padding-top: 425px; margin-left: 52px;"><div style="box-sizing: border-box; font-size: 0; text-align: left; color: #232F3E; "><div style="display: inline-block; font-size: 10px; font-family: Helvetica; color: light-dark(#232F3E, #bdc7d4); line-height: 1.2; pointer-events: all; white-space: normal; word-wrap: normal; ">・オブジェクトは SSE-KMS で暗号化<br />・カスタマー管理 KMS (CMK) 必須<br />  (AWS 管理キーは別アカウントに共有不可)<br />・バケットポリシーで Get 許可だけでは<br />  復号できない → KMS 側も必要</div></div></div></foreignObject><text x="52" y="428" fill="#232F3E" font-family="Helvetica" font-size="10px">・オブジェクトは SSE-KMS で暗号化...</text></switch></g></g></g><g data-cell-id="ops"><g><rect x="490" y="50" width="480" height="480" rx="72" ry="72" fill="#f0f8e8" stroke="#7aa116" stroke-width="2" pointer-events="all" style="fill: light-dark(rgb(240, 248, 232), rgb(22, 29, 15)); stroke: light-dark(rgb(122, 161, 22), rgb(97, 130, 11));"/></g><g><g><switch><foreignObject style="overflow: visible; text-align: left;" pointer-events="none" width="100%" height="100%" requiredFeatures="http://www.w3.org/TR/SVG11/feature#Extensibility"><div xmlns="http://www.w3.org/1999/xhtml" style="display: flex; align-items: unsafe flex-start; justify-content: unsafe center; width: 478px; height: 1px; padding-top: 63px; margin-left: 491px;"><div style="box-sizing: border-box; font-size: 0; text-align: center; color: #232F3E; "><div style="display: inline-block; font-size: 12px; font-family: Helvetica; color: light-dark(#232F3E, #bdc7d4); line-height: 1.2; pointer-events: all; font-weight: bold; white-space: normal; word-wrap: normal; ">運用アカウント (Lambda 読み取り側)</div></div></div></foreignObject><text x="730" y="75" fill="#232F3E" font-family="Helvetica" font-size="12px" text-anchor="middle" font-weight="bold">運用アカウント (Lambda 読み取り側)</text></switch></g></g></g><g data-cell-id="lam"><g transform="translate(0.5,0.5)"><path d="M 550 100 L 600 100 L 600 150 L 550 150 Z" fill="#ff9900" stroke="none" pointer-events="all" style="fill: light-dark(rgb(255, 153, 0), rgb(175, 87, 0));"/><path d="M 566.45 143.57 L 557.58 143.57 L 567.39 123.07 L 571.84 132.22 Z M 568.03 121.11 C 567.91 120.86 567.66 120.71 567.39 120.71 L 567.39 120.71 C 567.11 120.71 566.86 120.86 566.74 121.11 L 555.8 143.98 C 555.7 144.2 555.71 144.46 555.84 144.67 C 555.97 144.87 556.2 145 556.45 145 L 566.9 145 C 567.18 145 567.43 144.84 567.55 144.59 L 573.28 132.52 C 573.37 132.32 573.37 132.1 573.27 131.9 Z M 592.87 143.57 L 584.06 143.57 L 569.92 113.98 C 569.8 113.73 569.55 113.57 569.28 113.57 L 563.51 113.57 L 563.52 106.43 L 574.82 106.43 L 588.89 136.02 C 589.01 136.27 589.26 136.43 589.54 136.43 L 592.87 136.43 Z M 593.59 135 L 589.99 135 L 575.92 105.41 C 575.8 105.16 575.55 105 575.27 105 L 562.8 105 C 562.41 105 562.09 105.32 562.09 105.71 L 562.08 114.28 C 562.08 114.47 562.15 114.66 562.29 114.79 C 562.42 114.92 562.6 115 562.79 115 L 568.83 115 L 582.96 144.59 C 583.08 144.84 583.33 145 583.61 145 L 593.59 145 C 593.98 145 594.3 144.68 594.3 144.29 L 594.3 135.71 C 594.3 135.32 593.98 135 593.59 135 Z" fill="#ffffff" stroke="none" pointer-events="all" style="fill: light-dark(rgb(255, 255, 255), rgb(18, 18, 18));"/></g></g><g data-cell-id="lam_l"><g transform="translate(0.5,0.5)"><rect x="510" y="158" width="130" height="20" fill="none" stroke="none" pointer-events="all"/></g><g><g><switch><foreignObject style="overflow: visible; text-align: left;" pointer-events="none" width="100%" height="100%" requiredFeatures="http://www.w3.org/TR/SVG11/feature#Extensibility"><div xmlns="http://www.w3.org/1999/xhtml" style="display: flex; align-items: unsafe center; justify-content: unsafe center; width: 128px; height: 1px; padding-top: 168px; margin-left: 511px;"><div style="box-sizing: border-box; font-size: 0; text-align: center; color: #232F3E; "><div style="display: inline-block; font-size: 10px; font-family: Helvetica; color: light-dark(#232F3E, #bdc7d4); line-height: 1.2; pointer-events: all; font-weight: bold; white-space: normal; word-wrap: normal; ">Lambda 関数</div></div></div></foreignObject><text x="575" y="171" fill="#232F3E" font-family="Helvetica" font-size="10px" text-anchor="middle" font-weight="bold">Lambda 関数</text></switch></g></g></g><g data-cell-id="role"><g transform="translate(0.5,0.5)"><path d="M 720 100 L 770 100 L 770 150 L 720 150 Z" fill="#dd344c" stroke="none" pointer-events="all" style="fill: light-dark(rgb(221, 52, 76), rgb(255, 127, 147));"/><path d="M 726.43 138.57 L 763.57 138.57 L 763.57 111.43 L 726.43 111.43 Z M 765 110.71 L 765 139.29 C 765 139.68 764.68 140 764.29 140 L 725.71 140 C 725.32 140 725 139.68 725 139.29 L 725 110.71 C 725 110.32 725.32 110 725.71 110 L 764.29 110 C 764.68 110 765 110.32 765 110.71 Z M 747.86 130.71 L 758.57 130.71 L 758.57 129.29 L 747.86 129.29 Z M 757.14 126.43 L 760.71 126.43 L 760.71 125 L 757.14 125 Z M 747.86 126.43 L 753.57 126.43 L 753.57 125 L 747.86 125 Z M 737.14 129.29 C 737.14 128.89 736.82 128.57 736.43 128.57 C 736.03 128.57 735.71 128.89 735.71 129.29 C 735.71 129.68 736.03 130 736.43 130 C 736.82 130 737.14 129.68 737.14 129.29 Z M 738.57 129.29 C 738.57 130.22 737.97 131 737.14 131.3 L 737.14 132.86 L 735.71 132.86 L 735.71 131.3 C 734.88 131 734.29 130.22 734.29 129.29 C 734.29 128.1 735.25 127.14 736.43 127.14 C 737.61 127.14 738.57 128.1 738.57 129.29 Z M 730 135 L 742.85 135 L 742.85 132.14 L 740 132.14 L 740 130.71 L 742.85 130.71 L 742.86 128.57 L 740 128.57 L 740 127.14 L 742.86 127.14 L 742.86 125 L 730 125 Z M 732.14 123.57 L 740.71 123.58 L 740.71 118.57 C 740.72 116.93 738.71 115.48 736.43 115.48 L 736.43 115.48 C 734.15 115.48 732.15 116.93 732.14 118.57 Z M 728.57 135.71 L 728.58 124.29 C 728.58 124.1 728.65 123.91 728.78 123.78 C 728.92 123.65 729.1 123.57 729.29 123.57 L 730.71 123.57 L 730.72 118.57 C 730.72 116.08 733.28 114.05 736.43 114.05 L 736.43 114.05 C 739.58 114.06 742.14 116.08 742.14 118.57 L 742.14 123.58 L 743.57 123.58 C 743.97 123.58 744.29 123.9 744.29 124.29 L 744.28 135.71 C 744.28 135.9 744.21 136.09 744.07 136.22 C 743.94 136.35 743.76 136.43 743.57 136.43 L 729.29 136.42 C 728.89 136.42 728.57 136.1 728.57 135.71 Z M 759.29 122.14 L 760.71 122.14 L 760.71 120.71 L 759.29 120.71 Z M 747.86 122.14 L 755.71 122.14 L 755.71 120.71 L 747.86 120.71 Z" fill="#ffffff" stroke="none" pointer-events="all" style="fill: light-dark(rgb(255, 255, 255), rgb(18, 18, 18));"/></g></g><g data-cell-id="role_l"><g transform="translate(0.5,0.5)"><rect x="690" y="158" width="100" height="20" fill="none" stroke="none" pointer-events="all"/></g><g><g><switch><foreignObject style="overflow: visible; text-align: left;" pointer-events="none" width="100%" height="100%" requiredFeatures="http://www.w3.org/TR/SVG11/feature#Extensibility"><div xmlns="http://www.w3.org/1999/xhtml" style="display: flex; align-items: unsafe center; justify-content: unsafe center; width: 98px; height: 1px; padding-top: 168px; margin-left: 691px;"><div style="box-sizing: border-box; font-size: 0; text-align: center; color: #232F3E; "><div style="display: inline-block; font-size: 10px; font-family: Helvetica; color: light-dark(#232F3E, #bdc7d4); line-height: 1.2; pointer-events: all; font-weight: bold; white-space: normal; word-wrap: normal; ">実行ロール</div></div></div></foreignObject><text x="740" y="171" fill="#232F3E" font-family="Helvetica" font-size="10px" text-anchor="middle" font-weight="bold">実行ロール</text></switch></g></g></g><g data-cell-id="role_p"><g transform="translate(0.5,0.5)"><rect x="510" y="190" width="440" height="150" fill="none" stroke="none" pointer-events="all"/></g><g><g><switch><foreignObject style="overflow: visible; text-align: left;" pointer-events="none" width="100%" height="100%" requiredFeatures="http://www.w3.org/TR/SVG11/feature#Extensibility"><div xmlns="http://www.w3.org/1999/xhtml" style="display: flex; align-items: unsafe center; justify-content: unsafe flex-start; width: 438px; height: 1px; padding-top: 265px; margin-left: 512px;"><div style="box-sizing: border-box; font-size: 0; text-align: left; color: #232F3E; "><div style="display: inline-block; font-size: 9px; font-family: Helvetica; color: light-dark(#232F3E, #bdc7d4); line-height: 1.2; pointer-events: all; white-space: normal; word-wrap: normal; ">③ 実行ロールの IAM ポリシー<br />  Action:<br />    s3:GetObject<br />    kms:Decrypt<br />  Resource:<br />    arn:aws:s3:::PROD-bucket/*<br />    arn:aws:kms:REGION:PROD:key/ID</div></div></div></foreignObject><text x="512" y="268" fill="#232F3E" font-family="Helvetica" font-size="9px">③ 実行ロールの IAM ポリシー...</text></switch></g></g></g><g data-cell-id="ops_note"><g transform="translate(0.5,0.5)"><rect x="510" y="350" width="440" height="160" fill="none" stroke="none" pointer-events="all"/></g><g><g><switch><foreignObject style="overflow: visible; text-align: left;" pointer-events="none" width="100%" height="100%" requiredFeatures="http://www.w3.org/TR/SVG11/feature#Extensibility"><div xmlns="http://www.w3.org/1999/xhtml" style="display: flex; align-items: unsafe center; justify-content: unsafe flex-start; width: 438px; height: 1px; padding-top: 430px; margin-left: 512px;"><div style="box-sizing: border-box; font-size: 0; text-align: left; color: #DD344C; "><div style="display: inline-block; font-size: 10px; font-family: Helvetica; color: light-dark(#DD344C, #ff7f93); line-height: 1.2; pointer-events: all; white-space: normal; word-wrap: normal; ">3 点セットが揃って初めて読み取り可能:<br />  ① バケットポリシー (PROD 側)<br />  ② KMS キーポリシー (PROD 側)<br />  ③ IAM ロールポリシー (OPS 側)<br /><br />× どれか1つでも欠けると AccessDenied</div></div></div></foreignObject><text x="512" y="433" fill="#DD344C" font-family="Helvetica" font-size="10px">3 点セットが揃って初めて読み取り可能:...</text></switch></g></g></g><g data-cell-id="a1"><g><path d="M 670 130 L 348.24 130" fill="none" stroke="#8c4fff" stroke-width="2" stroke-miterlimit="10" pointer-events="stroke" style="stroke: light-dark(rgb(140, 79, 255), rgb(177, 125, 255));"/><path d="M 342.24 130 L 350.24 126 L 348.24 130 L 350.24 134 Z" fill="#8c4fff" stroke="#8c4fff" stroke-width="2" stroke-miterlimit="10" pointer-events="all" style="fill: light-dark(rgb(140, 79, 255), rgb(177, 125, 255)); stroke: light-dark(rgb(140, 79, 255), rgb(177, 125, 255));"/></g><g><g><switch><foreignObject style="overflow: visible; text-align: left;" pointer-events="none" width="100%" height="100%" requiredFeatures="http://www.w3.org/TR/SVG11/feature#Extensibility"><div xmlns="http://www.w3.org/1999/xhtml" style="display: flex; align-items: unsafe center; justify-content: unsafe center; width: 1px; height: 1px; padding-top: 130px; margin-left: 505px;"><div style="box-sizing: border-box; font-size: 0; text-align: center; color: #8C4FFF; background-color: #ffffff; "><div style="display: inline-block; font-size: 10px; font-family: Helvetica; color: light-dark(#8C4FFF, #b17dff); line-height: 1.2; pointer-events: all; background-color: light-dark(#ffffff, var(--ge-dark-color, #121212)); white-space: nowrap; ">Decrypt</div></div></div></foreignObject><text x="505" y="133" fill="#8C4FFF" font-family="Helvetica" font-size="10px" text-anchor="middle">Decrypt</text></switch></g></g></g><g data-cell-id="a2"><g><path d="M 670 150 L 168.24 150" fill="none" stroke="#8c4fff" stroke-width="2" stroke-miterlimit="10" pointer-events="stroke" style="stroke: light-dark(rgb(140, 79, 255), rgb(177, 125, 255));"/><path d="M 162.24 150 L 170.24 146 L 168.24 150 L 170.24 154 Z" fill="#8c4fff" stroke="#8c4fff" stroke-width="2" stroke-miterlimit="10" pointer-events="all" style="fill: light-dark(rgb(140, 79, 255), rgb(177, 125, 255)); stroke: light-dark(rgb(140, 79, 255), rgb(177, 125, 255));"/></g><g><g><switch><foreignObject style="overflow: visible; text-align: left;" pointer-events="none" width="100%" height="100%" requiredFeatures="http://www.w3.org/TR/SVG11/feature#Extensibility"><div xmlns="http://www.w3.org/1999/xhtml" style="display: flex; align-items: unsafe center; justify-content: unsafe center; width: 1px; height: 1px; padding-top: 150px; margin-left: 415px;"><div style="box-sizing: border-box; font-size: 0; text-align: center; color: #8C4FFF; background-color: #ffffff; "><div style="display: inline-block; font-size: 10px; font-family: Helvetica; color: light-dark(#8C4FFF, #b17dff); line-height: 1.2; pointer-events: all; background-color: light-dark(#ffffff, var(--ge-dark-color, #121212)); white-space: nowrap; ">GetObject</div></div></div></foreignObject><text x="415" y="153" fill="#8C4FFF" font-family="Helvetica" font-size="10px" text-anchor="middle">GetObject</text></switch></g></g></g></g></g></g><switch><g requiredFeatures="http://www.w3.org/TR/SVG11/feature#Extensibility"/><a transform="translate(0,-5)" xlink:href="https://www.drawio.com/doc/faq/svg-export-text-problems" target="_blank"><text text-anchor="middle" font-size="10px" x="50%" y="100%">Text is not SVG - cannot display</text></a></switch></svg>