<?xml version="1.0" encoding="UTF-8"?>
<!DOCTYPE svg PUBLIC "-//W3C//DTD SVG 1.1//EN" "http://www.w3.org/Graphics/SVG/1.1/DTD/svg11.dtd">
<svg xmlns="http://www.w3.org/2000/svg" style="background: transparent; background-color: transparent; color-scheme: light;" xmlns:xlink="http://www.w3.org/1999/xlink" version="1.1" width="962px" height="562px" viewBox="0 0 962 562"><defs/><g><g data-cell-id="0"><g data-cell-id="1"><g data-cell-id="title"><g transform="translate(0.5,0.5)"><rect x="0" y="0" width="960" height="30" fill="none" stroke="none" pointer-events="all"/></g><g><g><switch><foreignObject style="overflow: visible; text-align: left;" pointer-events="none" width="100%" height="100%" requiredFeatures="http://www.w3.org/TR/SVG11/feature#Extensibility"><div xmlns="http://www.w3.org/1999/xhtml" style="display: flex; align-items: unsafe center; justify-content: unsafe center; width: 958px; height: 1px; padding-top: 15px; margin-left: 1px;"><div style="box-sizing: border-box; font-size: 0; text-align: center; color: #232F3E; "><div style="display: inline-block; font-size: 14px; font-family: Helvetica; color: light-dark(#232F3E, #bdc7d4); line-height: 1.2; pointer-events: all; font-weight: bold; white-space: normal; word-wrap: normal; ">[Q324] API Gateway セキュリティ: WAF(IP) + 使用量プラン(レート)</div></div></div></foreignObject><text x="480" y="19" fill="#232F3E" font-family="Helvetica" font-size="14px" text-anchor="middle" font-weight="bold">[Q324] API Gateway セキュリティ: WAF(IP) + 使用量プラン(レート)</text></switch></g></g></g><g data-cell-id="cloud"><g transform="translate(0.5,0.5)"><path d="M 0 40 L 960 40 L 960 550 L 0 550 Z" fill="#f2f2f2" stroke="#232f3e" stroke-miterlimit="10" pointer-events="all" style="fill: light-dark(rgb(242, 242, 242), rgb(29, 29, 29)); stroke: light-dark(rgb(35, 47, 62), rgb(189, 199, 212));"/><path d="M 6.09 47.18 C 6.01 47.18 5.93 47.19 5.85 47.19 C 5.5 47.19 5.15 47.23 4.81 47.32 C 4.53 47.39 4.25 47.49 3.98 47.62 C 3.9 47.65 3.84 47.7 3.79 47.76 C 3.75 47.83 3.74 47.91 3.74 47.99 L 3.74 48.32 C 3.74 48.46 3.79 48.53 3.89 48.53 L 3.99 48.53 L 4.22 48.44 C 4.45 48.35 4.69 48.27 4.94 48.21 C 5.17 48.16 5.41 48.13 5.65 48.13 C 6.04 48.09 6.43 48.2 6.73 48.44 C 6.97 48.74 7.09 49.12 7.05 49.5 L 7.05 49.99 C 6.79 49.93 6.54 49.88 6.29 49.84 C 6.05 49.81 5.81 49.79 5.57 49.79 C 4.98 49.76 4.4 49.94 3.94 50.31 C 3.54 50.65 3.32 51.15 3.34 51.68 C 3.31 52.15 3.49 52.62 3.82 52.96 C 4.18 53.29 4.66 53.46 5.15 53.44 C 5.91 53.45 6.63 53.11 7.11 52.51 C 7.18 52.66 7.24 52.79 7.31 52.91 C 7.38 53.02 7.46 53.12 7.55 53.21 C 7.6 53.27 7.67 53.31 7.75 53.31 C 7.81 53.31 7.87 53.29 7.92 53.25 L 8.34 52.97 C 8.41 52.93 8.46 52.86 8.47 52.77 C 8.47 52.72 8.45 52.67 8.42 52.62 C 8.34 52.47 8.26 52.31 8.21 52.14 C 8.15 51.95 8.12 51.75 8.13 51.55 L 8.14 49.37 C 8.2 48.77 8 48.18 7.59 47.74 C 7.17 47.39 6.64 47.19 6.09 47.18 Z M 19.89 47.19 C 19.78 47.19 19.68 47.19 19.57 47.2 C 19.29 47.2 19 47.24 18.73 47.31 C 18.47 47.38 18.23 47.5 18.02 47.66 C 17.82 47.81 17.66 47.99 17.54 48.21 C 17.42 48.43 17.35 48.67 17.36 48.92 C 17.36 49.27 17.48 49.61 17.69 49.89 C 17.97 50.22 18.34 50.46 18.76 50.56 L 19.72 50.87 C 19.97 50.93 20.2 51.05 20.39 51.22 C 20.51 51.35 20.58 51.51 20.57 51.69 C 20.58 51.94 20.45 52.18 20.23 52.31 C 19.93 52.48 19.6 52.56 19.26 52.54 C 18.99 52.54 18.72 52.51 18.46 52.45 C 18.22 52.4 17.98 52.32 17.75 52.22 L 17.59 52.15 C 17.54 52.14 17.5 52.14 17.46 52.15 C 17.36 52.15 17.31 52.22 17.31 52.36 L 17.31 52.69 C 17.31 52.76 17.32 52.82 17.35 52.89 C 17.4 52.97 17.47 53.03 17.56 53.07 C 17.8 53.19 18.06 53.28 18.32 53.34 C 18.66 53.41 19 53.45 19.35 53.45 L 19.33 53.46 C 19.66 53.45 19.98 53.4 20.29 53.3 C 20.55 53.22 20.8 53.09 21.01 52.92 C 21.21 52.77 21.38 52.57 21.49 52.34 C 21.61 52.1 21.67 51.83 21.66 51.56 C 21.67 51.23 21.56 50.9 21.36 50.63 C 21.09 50.32 20.73 50.09 20.33 49.99 L 19.39 49.69 C 19.13 49.61 18.88 49.49 18.67 49.32 C 18.54 49.2 18.47 49.03 18.47 48.85 C 18.46 48.61 18.58 48.38 18.79 48.25 C 19.06 48.11 19.36 48.05 19.67 48.06 C 20.11 48.06 20.55 48.14 20.96 48.32 C 21.04 48.37 21.12 48.4 21.21 48.41 C 21.31 48.41 21.36 48.34 21.36 48.19 L 21.36 47.88 C 21.37 47.8 21.35 47.72 21.31 47.66 C 21.25 47.59 21.18 47.54 21.11 47.49 L 20.83 47.38 L 20.45 47.27 L 20.01 47.2 C 19.97 47.2 19.93 47.19 19.89 47.19 Z M 16.02 47.36 C 15.94 47.35 15.86 47.38 15.79 47.42 C 15.72 47.5 15.68 47.59 15.66 47.69 L 14.51 52.14 L 13.47 47.71 C 13.45 47.61 13.41 47.52 13.34 47.44 C 13.26 47.39 13.17 47.37 13.07 47.38 L 12.54 47.38 C 12.44 47.37 12.35 47.39 12.27 47.44 C 12.2 47.51 12.15 47.61 12.14 47.71 L 11.09 52.14 L 9.97 47.7 C 9.95 47.6 9.91 47.51 9.84 47.44 C 9.76 47.39 9.67 47.36 9.58 47.37 L 8.92 47.37 C 8.81 47.37 8.76 47.43 8.76 47.54 C 8.77 47.63 8.79 47.72 8.82 47.81 L 10.38 52.95 C 10.4 53.05 10.45 53.14 10.52 53.21 C 10.6 53.26 10.69 53.29 10.78 53.28 L 11.36 53.26 C 11.46 53.27 11.55 53.25 11.63 53.19 C 11.7 53.12 11.74 53.03 11.76 52.93 L 12.79 48.64 L 13.82 52.93 C 13.83 53.03 13.88 53.12 13.95 53.19 C 14.03 53.25 14.12 53.27 14.21 53.26 L 14.79 53.26 C 14.88 53.27 14.97 53.25 15.04 53.2 C 15.11 53.13 15.16 53.03 15.18 52.94 L 16.79 47.79 C 16.84 47.72 16.84 47.63 16.84 47.63 C 16.84 47.59 16.84 47.56 16.84 47.52 C 16.84 47.48 16.82 47.43 16.79 47.4 C 16.76 47.37 16.72 47.35 16.67 47.36 L 16.05 47.36 C 16.04 47.36 16.03 47.36 16.02 47.36 Z M 5.65 50.62 C 5.7 50.62 5.75 50.62 5.8 50.62 L 6.43 50.62 C 6.64 50.64 6.85 50.67 7.06 50.71 L 7.07 51.01 C 7.07 51.21 7.05 51.4 7 51.59 C 6.96 51.75 6.88 51.9 6.77 52.01 C 6.61 52.21 6.39 52.36 6.14 52.44 C 5.91 52.52 5.67 52.56 5.43 52.56 C 5.18 52.6 4.93 52.53 4.73 52.37 C 4.55 52.18 4.46 51.92 4.49 51.66 C 4.47 51.36 4.59 51.08 4.81 50.89 C 5.06 50.72 5.35 50.62 5.65 50.62 Z M 21.04 54.72 C 20.34 54.73 19.51 54.89 18.89 55.33 C 18.69 55.47 18.72 55.63 18.94 55.63 C 19.64 55.54 21.21 55.35 21.5 55.71 C 21.78 56.06 21.19 57.54 20.94 58.21 C 20.86 58.41 21.04 58.49 21.21 58.34 C 22.39 57.36 22.72 55.3 22.46 55 C 22.32 54.85 21.74 54.71 21.04 54.72 Z M 2.65 55.1 C 2.5 55.12 2.42 55.3 2.58 55.44 C 5.29 57.89 8.82 59.23 12.48 59.21 C 15.37 59.22 18.2 58.36 20.59 56.74 C 20.95 56.47 20.64 56.07 20.26 56.23 C 17.87 57.24 15.3 57.76 12.71 57.77 C 9.23 57.78 5.82 56.87 2.81 55.14 C 2.75 55.11 2.7 55.1 2.65 55.1 Z M 0 40 L 25 40 L 25 65 L 0 65 Z" fill="#232f3e" stroke="none" pointer-events="all" style="fill: light-dark(rgb(35, 47, 62), rgb(189, 199, 212));"/></g><g><g><switch><foreignObject style="overflow: visible; text-align: left;" pointer-events="none" width="100%" height="100%" requiredFeatures="http://www.w3.org/TR/SVG11/feature#Extensibility"><div xmlns="http://www.w3.org/1999/xhtml" style="display: flex; align-items: unsafe flex-start; justify-content: unsafe flex-start; width: 928px; height: 1px; padding-top: 47px; margin-left: 32px;"><div style="box-sizing: border-box; font-size: 0; text-align: left; color: #232F3E; "><div style="display: inline-block; font-size: 12px; font-family: Helvetica; color: light-dark(#232F3E, #bdc7d4); line-height: 1.2; pointer-events: all; font-weight: bold; white-space: normal; word-wrap: normal; ">AWS Cloud</div></div></div></foreignObject><text x="32" y="59" fill="#232F3E" font-family="Helvetica" font-size="12px" font-weight="bold">AWS Cloud</text></switch></g></g></g><g data-cell-id="inst"><g><rect x="20" y="90" width="200" height="180" rx="27" ry="27" fill="#ffffff" stroke="#3b48cc" stroke-width="2" pointer-events="all" style="fill: light-dark(rgb(255, 255, 255), rgb(18, 18, 18)); stroke: light-dark(rgb(59, 72, 204), rgb(152, 163, 255));"/></g><g><g><switch><foreignObject style="overflow: visible; text-align: left;" pointer-events="none" width="100%" height="100%" requiredFeatures="http://www.w3.org/TR/SVG11/feature#Extensibility"><div xmlns="http://www.w3.org/1999/xhtml" style="display: flex; align-items: unsafe flex-start; justify-content: unsafe center; width: 198px; height: 1px; padding-top: 105px; margin-left: 21px;"><div style="box-sizing: border-box; font-size: 0; text-align: center; color: #3B48CC; "><div style="display: inline-block; font-size: 12px; font-family: Helvetica; color: light-dark(#3B48CC, #98a3ff); line-height: 1.2; pointer-events: all; font-weight: bold; white-space: normal; word-wrap: normal; ">3つの医療研究機関</div></div></div></foreignObject><text x="120" y="117" fill="#3B48CC" font-family="Helvetica" font-size="12px" text-anchor="middle" font-weight="bold">3つの医療研究機関</text></switch></g></g></g><g data-cell-id="insta"><g transform="translate(0.5,0.5)"><rect x="40" y="120" width="160" height="140" fill="none" stroke="none" pointer-events="all"/></g><g><g><switch><foreignObject style="overflow: visible; text-align: left;" pointer-events="none" width="100%" height="100%" requiredFeatures="http://www.w3.org/TR/SVG11/feature#Extensibility"><div xmlns="http://www.w3.org/1999/xhtml" style="display: flex; align-items: unsafe flex-start; justify-content: unsafe flex-start; width: 158px; height: 1px; padding-top: 127px; margin-left: 42px;"><div style="box-sizing: border-box; font-size: 0; text-align: left; color: #232F3E; "><div style="display: inline-block; font-size: 10px; font-family: Helvetica; color: light-dark(#232F3E, #bdc7d4); line-height: 1.2; pointer-events: all; white-space: normal; word-wrap: normal; ">研究機関A (IP: x.x.x.1)<br />研究機関B (IP: x.x.x.2)<br />研究機関C (IP: x.x.x.3)<br /><br />毎日1回アクセス<br />匿名化患者データ送信</div></div></div></foreignObject><text x="42" y="137" fill="#232F3E" font-family="Helvetica" font-size="10px">研究機関A (IP: x.x.x.1)...</text></switch></g></g></g><g data-cell-id="bot"><g><rect x="20" y="300" width="200" height="120" rx="18" ry="18" fill="#ffffff" stroke="#dd344c" stroke-width="2" pointer-events="all" style="fill: light-dark(rgb(255, 255, 255), rgb(18, 18, 18)); stroke: light-dark(rgb(221, 52, 76), rgb(255, 127, 147));"/></g><g><g><switch><foreignObject style="overflow: visible; text-align: left;" pointer-events="none" width="100%" height="100%" requiredFeatures="http://www.w3.org/TR/SVG11/feature#Extensibility"><div xmlns="http://www.w3.org/1999/xhtml" style="display: flex; align-items: unsafe flex-start; justify-content: unsafe center; width: 198px; height: 1px; padding-top: 315px; margin-left: 21px;"><div style="box-sizing: border-box; font-size: 0; text-align: center; color: #DD344C; "><div style="display: inline-block; font-size: 12px; font-family: Helvetica; color: light-dark(#DD344C, #ff7f93); line-height: 1.2; pointer-events: all; font-weight: bold; white-space: normal; word-wrap: normal; ">悪意あるボットネット</div></div></div></foreignObject><text x="120" y="327" fill="#DD344C" font-family="Helvetica" font-size="12px" text-anchor="middle" font-weight="bold">悪意あるボットネット</text></switch></g></g></g><g data-cell-id="bota"><g transform="translate(0.5,0.5)"><rect x="40" y="330" width="160" height="80" fill="none" stroke="none" pointer-events="all"/></g><g><g><switch><foreignObject style="overflow: visible; text-align: left;" pointer-events="none" width="100%" height="100%" requiredFeatures="http://www.w3.org/TR/SVG11/feature#Extensibility"><div xmlns="http://www.w3.org/1999/xhtml" style="display: flex; align-items: unsafe flex-start; justify-content: unsafe flex-start; width: 158px; height: 1px; padding-top: 337px; margin-left: 42px;"><div style="box-sizing: border-box; font-size: 0; text-align: left; color: #DD344C; "><div style="display: inline-block; font-size: 10px; font-family: Helvetica; color: light-dark(#DD344C, #ff7f93); line-height: 1.2; pointer-events: all; white-space: normal; word-wrap: normal; ">1,000 IP から<br />毎秒 2,000 req<br /><br />✗ ブロック対象</div></div></div></foreignObject><text x="42" y="347" fill="#DD344C" font-family="Helvetica" font-size="10px">1,000 IP から...</text></switch></g></g></g><g data-cell-id="waf_310_170"><g transform="translate(0.5,0.5)"><path d="M 290 160 L 340 160 L 340 210 L 290 210 Z" fill="#dd344c" stroke="none" pointer-events="all" style="fill: light-dark(rgb(221, 52, 76), rgb(255, 127, 147));"/><path d="M 296.71 185.71 L 295 185.71 L 295 184.29 L 296.71 184.29 C 296.86 180.67 298.03 177.23 300.15 174.3 L 301.31 175.14 C 299.36 177.83 298.28 180.98 298.14 184.29 L 300 184.29 L 300 185.71 L 298.14 185.71 C 298.27 189.04 299.35 192.21 301.31 194.91 L 300.15 195.75 C 298.02 192.8 296.85 189.35 296.71 185.71 Z M 325.72 199.88 C 322.78 202 319.34 203.18 315.71 203.31 L 315.71 205 L 314.29 205 L 314.29 203.31 C 310.66 203.18 307.21 202 304.28 199.88 L 305.11 198.72 C 307.81 200.67 310.97 201.75 314.29 201.88 L 314.29 200 L 315.71 200 L 315.71 201.88 C 319.03 201.75 322.19 200.67 324.88 198.72 Z M 304.28 170.18 C 307.21 168.05 310.66 166.88 314.29 166.74 L 314.29 165 L 315.71 165 L 315.71 166.74 C 319.34 166.88 322.78 168.05 325.72 170.18 L 324.88 171.33 C 322.19 169.38 319.03 168.31 315.71 168.17 L 315.71 170 L 314.29 170 L 314.29 168.17 C 310.97 168.31 307.81 169.38 305.11 171.33 Z M 335 184.29 L 335 185.71 L 333.29 185.71 C 333.15 189.35 331.98 192.8 329.85 195.75 L 328.69 194.91 C 330.65 192.21 331.73 189.04 331.86 185.71 L 330 185.71 L 330 184.29 L 331.86 184.29 C 331.71 180.98 330.64 177.83 328.69 175.14 L 329.85 174.3 C 331.97 177.23 333.14 180.67 333.28 184.29 Z M 325.69 173.32 L 331.29 167.72 L 332.3 168.73 L 326.7 174.33 Z M 304.3 196.73 L 298.7 202.33 L 297.69 201.32 L 303.29 195.72 Z M 305.89 176.91 L 295.29 166.31 L 296.3 165.29 L 306.9 175.9 Z M 324.08 193.07 L 334.7 203.69 L 333.69 204.71 L 323.07 194.08 Z M 309.05 185.53 C 309.1 185.43 309.16 185.33 309.22 185.24 C 310.42 183.35 310.07 180.78 309.69 179.22 C 310.72 179.9 311.65 181.3 311.97 181.88 C 312.1 182.13 312.36 182.28 312.65 182.26 C 312.93 182.24 313.18 182.05 313.27 181.78 C 314.33 178.76 313.79 176.49 313.04 175.02 C 313.95 175.55 314.66 176.31 315.12 177.28 C 316.13 179.38 315.91 182.26 314.53 184.79 C 312.66 188.24 313.03 191.86 313.46 193.81 C 312.39 193.35 311.43 192.83 310.61 192.25 C 308.45 190.74 307.76 187.79 309.05 185.53 Z M 318.64 185.28 C 318.59 185.58 318.73 185.87 318.99 186.02 C 319.24 186.16 319.56 186.14 319.79 185.95 C 319.85 185.91 321.02 184.94 321.59 182.6 C 322.27 183.6 322.99 185.6 322.04 189.29 C 321.09 192.93 316.63 193.96 315.04 194.21 C 314.65 192.83 313.87 189 315.79 185.47 C 317.15 182.96 317.51 180.13 316.83 177.79 C 318.12 179.31 319.22 181.69 318.64 185.28 Z M 307.8 184.82 C 306.16 187.72 307.03 191.5 309.79 193.42 C 311.04 194.3 312.56 195.05 314.29 195.67 C 314.37 195.7 314.45 195.71 314.53 195.71 C 314.55 195.71 314.56 195.71 314.58 195.71 L 314.58 195.71 C 314.88 195.69 322.02 195.07 323.42 189.65 C 325.22 182.67 321.61 180.6 321.46 180.51 C 321.25 180.4 321 180.4 320.78 180.51 C 320.57 180.62 320.43 180.83 320.4 181.07 C 320.35 181.55 320.27 181.98 320.18 182.36 C 319.68 176.88 315.34 174.65 314.46 174.26 C 313.56 173.57 312.47 173.09 311.2 172.87 C 310.88 172.81 310.57 172.98 310.43 173.27 C 310.29 173.56 310.37 173.91 310.62 174.12 C 310.73 174.21 312.95 176.14 312.32 179.81 C 311.49 178.73 310.17 177.41 308.62 177.41 C 308.38 177.41 308.16 177.53 308.03 177.72 C 307.89 177.92 307.86 178.17 307.95 178.39 C 307.96 178.43 309.42 182.26 308.01 184.47 C 307.94 184.59 307.87 184.71 307.8 184.82 Z" fill="#ffffff" stroke="none" pointer-events="all" style="fill: light-dark(rgb(255, 255, 255), rgb(18, 18, 18));"/></g></g><g data-cell-id="lbl_waf_310_170"><g transform="translate(0.5,0.5)"><rect x="270" y="218" width="90" height="20" fill="none" stroke="none" pointer-events="all"/></g><g><g><switch><foreignObject style="overflow: visible; text-align: left;" pointer-events="none" width="100%" height="100%" requiredFeatures="http://www.w3.org/TR/SVG11/feature#Extensibility"><div xmlns="http://www.w3.org/1999/xhtml" style="display: flex; align-items: unsafe center; justify-content: unsafe center; width: 88px; height: 1px; padding-top: 228px; margin-left: 271px;"><div style="box-sizing: border-box; font-size: 0; text-align: center; color: #232F3E; "><div style="display: inline-block; font-size: 10px; font-family: Helvetica; color: light-dark(#232F3E, #bdc7d4); line-height: 1.2; pointer-events: all; white-space: normal; word-wrap: normal; ">AWS WAF</div></div></div></foreignObject><text x="315" y="231" fill="#232F3E" font-family="Helvetica" font-size="10px" text-anchor="middle">AWS WAF</text></switch></g></g></g><g data-cell-id="wafn"><g transform="translate(0.5,0.5)"><rect x="260" y="220" width="130" height="60" fill="none" stroke="none" pointer-events="all"/></g><g><g><switch><foreignObject style="overflow: visible; text-align: left;" pointer-events="none" width="100%" height="100%" requiredFeatures="http://www.w3.org/TR/SVG11/feature#Extensibility"><div xmlns="http://www.w3.org/1999/xhtml" style="display: flex; align-items: unsafe flex-start; justify-content: unsafe center; width: 128px; height: 1px; padding-top: 227px; margin-left: 261px;"><div style="box-sizing: border-box; font-size: 0; text-align: center; color: #DD344C; "><div style="display: inline-block; font-size: 10px; font-family: Helvetica; color: light-dark(#DD344C, #ff7f93); line-height: 1.2; pointer-events: all; white-space: normal; word-wrap: normal; ">IP 許可リスト<br />(3機関のみ)</div></div></div></foreignObject><text x="325" y="237" fill="#DD344C" font-family="Helvetica" font-size="10px" text-anchor="middle">IP 許可リスト...</text></switch></g></g></g><g data-cell-id="apigw_510_170"><g transform="translate(0.5,0.5)"><path d="M 490 160 L 540 160 L 540 210 L 490 210 Z" fill="#ff9900" stroke="none" pointer-events="all" style="fill: light-dark(rgb(255, 153, 0), rgb(175, 87, 0));"/><path d="M 510.76 196.17 L 512.86 196.17 L 512.86 194.73 L 510.76 194.73 Z M 514.29 196.17 L 516.43 196.17 L 516.43 194.73 L 514.29 194.73 Z M 505.72 166.91 L 496.45 171.52 L 496.45 200.14 L 505.72 203.28 Z M 507.15 176.02 L 507.15 194.73 L 509.29 194.73 L 509.29 196.17 L 507.15 196.17 L 507.15 204.28 C 507.15 204.51 507.04 204.73 506.85 204.87 C 506.73 204.95 506.58 205 506.44 205 C 506.36 205 506.28 204.99 506.21 204.96 L 495.5 201.34 C 495.21 201.24 495.02 200.97 495.02 200.66 L 495.02 171.07 C 495.02 170.8 495.17 170.54 495.42 170.42 L 506.12 165.11 C 506.34 165 506.6 165.01 506.81 165.14 C 507.02 165.28 507.15 165.51 507.15 165.76 L 507.15 174.58 L 509.29 174.58 L 509.29 176.02 Z M 517.85 196.17 L 520 196.17 L 520 194.73 L 517.85 194.73 Z M 517.9 176.02 L 520 176.02 L 520 174.58 L 517.9 174.58 Z M 514.33 176.02 L 516.43 176.02 L 516.43 174.58 L 514.33 174.58 Z M 510.76 176.02 L 512.86 176.02 L 512.86 174.58 L 510.76 174.58 Z M 533.55 171.52 L 524.28 166.91 L 524.28 203.28 L 533.55 200.14 Z M 534.98 200.66 C 534.98 200.97 534.79 201.24 534.5 201.34 L 523.79 204.96 C 523.72 204.99 523.64 205 523.56 205 C 523.42 205 523.27 204.95 523.15 204.87 C 522.96 204.73 522.85 204.51 522.85 204.28 L 522.85 196.17 L 521.47 196.17 L 521.47 194.73 L 522.85 194.73 L 522.85 176.02 L 521.47 176.02 L 521.47 174.58 L 522.85 174.58 L 522.85 165.76 C 522.85 165.51 522.98 165.28 523.19 165.14 C 523.4 165.01 523.66 165 523.88 165.11 L 534.58 170.42 C 534.83 170.54 534.98 170.8 534.98 171.07 Z M 517.09 180.6 L 515.76 180.08 L 512.19 189.44 L 513.53 189.95 Z M 521.93 185.17 C 522.21 184.89 522.21 184.43 521.93 184.15 L 519.07 181.27 L 518.06 182.29 L 520.41 184.66 L 518.06 187.03 L 519.07 188.05 Z M 510.93 188.05 L 508.07 185.17 C 507.79 184.89 507.79 184.43 508.07 184.15 L 510.93 181.27 L 511.94 182.29 L 509.59 184.66 L 511.94 187.03 Z" fill="#ffffff" stroke="none" pointer-events="all" style="fill: light-dark(rgb(255, 255, 255), rgb(18, 18, 18));"/></g></g><g data-cell-id="lbl_apigw_510_170"><g transform="translate(0.5,0.5)"><rect x="470" y="218" width="90" height="20" fill="none" stroke="none" pointer-events="all"/></g><g><g><switch><foreignObject style="overflow: visible; text-align: left;" pointer-events="none" width="100%" height="100%" requiredFeatures="http://www.w3.org/TR/SVG11/feature#Extensibility"><div xmlns="http://www.w3.org/1999/xhtml" style="display: flex; align-items: unsafe center; justify-content: unsafe center; width: 88px; height: 1px; padding-top: 228px; margin-left: 471px;"><div style="box-sizing: border-box; font-size: 0; text-align: center; color: #232F3E; "><div style="display: inline-block; font-size: 10px; font-family: Helvetica; color: light-dark(#232F3E, #bdc7d4); line-height: 1.2; pointer-events: all; white-space: normal; word-wrap: normal; ">API Gateway (REST Regional)</div></div></div></foreignObject><text x="515" y="231" fill="#232F3E" font-family="Helvetica" font-size="10px" text-anchor="middle">API Gateway (REST...</text></switch></g></g></g><g data-cell-id="apin"><g transform="translate(0.5,0.5)"><rect x="460" y="230" width="130" height="80" fill="none" stroke="none" pointer-events="all"/></g><g><g><switch><foreignObject style="overflow: visible; text-align: left;" pointer-events="none" width="100%" height="100%" requiredFeatures="http://www.w3.org/TR/SVG11/feature#Extensibility"><div xmlns="http://www.w3.org/1999/xhtml" style="display: flex; align-items: unsafe flex-start; justify-content: unsafe center; width: 128px; height: 1px; padding-top: 237px; margin-left: 461px;"><div style="box-sizing: border-box; font-size: 0; text-align: center; color: #232F3E; "><div style="display: inline-block; font-size: 10px; font-family: Helvetica; color: light-dark(#232F3E, #bdc7d4); line-height: 1.2; pointer-events: all; white-space: normal; word-wrap: normal; ">• 使用量プラン<br />• API キー<br />• レート制限<br />• スロットル</div></div></div></foreignObject><text x="525" y="247" fill="#232F3E" font-family="Helvetica" font-size="10px" text-anchor="middle">• 使用量プラン...</text></switch></g></g></g><g data-cell-id="lam_770_170"><g transform="translate(0.5,0.5)"><path d="M 750 160 L 800 160 L 800 210 L 750 210 Z" fill="#ff9900" stroke="none" pointer-events="all" style="fill: light-dark(rgb(255, 153, 0), rgb(175, 87, 0));"/><path d="M 766.45 203.57 L 757.58 203.57 L 767.39 183.07 L 771.84 192.22 Z M 768.03 181.11 C 767.91 180.86 767.66 180.71 767.39 180.71 L 767.39 180.71 C 767.11 180.71 766.86 180.87 766.74 181.11 L 755.8 203.98 C 755.7 204.2 755.71 204.46 755.84 204.67 C 755.97 204.87 756.2 205 756.45 205 L 766.9 205 C 767.18 205 767.43 204.84 767.55 204.59 L 773.28 192.52 C 773.37 192.32 773.37 192.1 773.27 191.9 Z M 792.87 203.57 L 784.06 203.57 L 769.92 173.98 C 769.8 173.73 769.55 173.57 769.28 173.57 L 763.51 173.57 L 763.52 166.43 L 774.82 166.43 L 788.89 196.02 C 789.01 196.27 789.26 196.43 789.54 196.43 L 792.87 196.43 Z M 793.59 195 L 789.99 195 L 775.92 165.41 C 775.8 165.16 775.55 165 775.27 165 L 762.8 165 C 762.41 165 762.09 165.32 762.09 165.71 L 762.08 174.28 C 762.08 174.47 762.15 174.66 762.29 174.79 C 762.42 174.93 762.6 175 762.79 175 L 768.83 175 L 782.96 204.59 C 783.08 204.84 783.33 205 783.61 205 L 793.59 205 C 793.98 205 794.3 204.68 794.3 204.29 L 794.3 195.71 C 794.3 195.32 793.98 195 793.59 195 Z" fill="#ffffff" stroke="none" pointer-events="all" style="fill: light-dark(rgb(255, 255, 255), rgb(18, 18, 18));"/></g></g><g data-cell-id="lbl_lam_770_170"><g transform="translate(0.5,0.5)"><rect x="730" y="218" width="90" height="20" fill="none" stroke="none" pointer-events="all"/></g><g><g><switch><foreignObject style="overflow: visible; text-align: left;" pointer-events="none" width="100%" height="100%" requiredFeatures="http://www.w3.org/TR/SVG11/feature#Extensibility"><div xmlns="http://www.w3.org/1999/xhtml" style="display: flex; align-items: unsafe center; justify-content: unsafe center; width: 88px; height: 1px; padding-top: 228px; margin-left: 731px;"><div style="box-sizing: border-box; font-size: 0; text-align: center; color: #232F3E; "><div style="display: inline-block; font-size: 10px; font-family: Helvetica; color: light-dark(#232F3E, #bdc7d4); line-height: 1.2; pointer-events: all; white-space: normal; word-wrap: normal; ">Lambda 分析処理</div></div></div></foreignObject><text x="775" y="231" fill="#232F3E" font-family="Helvetica" font-size="10px" text-anchor="middle">Lambda 分析処理</text></switch></g></g></g><g data-cell-id="a1"><g transform="translate(0.5,0.5)"><path d="M 220 190 L 279.9 190" fill="none" stroke="#7aa116" stroke-width="3" stroke-miterlimit="10" pointer-events="stroke" style="stroke: light-dark(rgb(122, 161, 22), rgb(97, 130, 11));"/><path d="M 286.65 190 L 277.65 194.5 L 279.9 190 L 277.65 185.5 Z" fill="#7aa116" stroke="#7aa116" stroke-width="3" stroke-miterlimit="10" pointer-events="all" style="fill: light-dark(rgb(122, 161, 22), rgb(97, 130, 11)); stroke: light-dark(rgb(122, 161, 22), rgb(97, 130, 11));"/></g><g><g><switch><foreignObject style="overflow: visible; text-align: left;" pointer-events="none" width="100%" height="100%" requiredFeatures="http://www.w3.org/TR/SVG11/feature#Extensibility"><div xmlns="http://www.w3.org/1999/xhtml" style="display: flex; align-items: unsafe center; justify-content: unsafe center; width: 1px; height: 1px; padding-top: 190px; margin-left: 255px;"><div style="box-sizing: border-box; font-size: 0; text-align: center; color: #7AA116; background-color: #ffffff; "><div style="display: inline-block; font-size: 10px; font-family: Helvetica; color: light-dark(#7AA116, #61820b); line-height: 1.2; pointer-events: all; background-color: light-dark(#ffffff, var(--ge-dark-color, #121212)); white-space: nowrap; ">許可</div></div></div></foreignObject><text x="255" y="193" fill="#7AA116" font-family="Helvetica" font-size="10px" text-anchor="middle">許可</text></switch></g></g></g><g data-cell-id="a2"><g><path d="M 220 360 L 286.32 227.37" fill="none" stroke="#dd344c" stroke-width="2" stroke-miterlimit="10" stroke-dasharray="6 6" pointer-events="stroke" style="stroke: light-dark(rgb(221, 52, 76), rgb(255, 127, 147));"/><path d="M 289 222 L 289 230.94 L 286.32 227.37 L 281.84 227.37 Z" fill="#dd344c" stroke="#dd344c" stroke-width="2" stroke-miterlimit="10" pointer-events="all" style="fill: light-dark(rgb(221, 52, 76), rgb(255, 127, 147)); stroke: light-dark(rgb(221, 52, 76), rgb(255, 127, 147));"/></g><g><g><switch><foreignObject style="overflow: visible; text-align: left;" pointer-events="none" width="100%" height="100%" requiredFeatures="http://www.w3.org/TR/SVG11/feature#Extensibility"><div xmlns="http://www.w3.org/1999/xhtml" style="display: flex; align-items: unsafe center; justify-content: unsafe center; width: 1px; height: 1px; padding-top: 290px; margin-left: 255px;"><div style="box-sizing: border-box; font-size: 0; text-align: center; color: #DD344C; background-color: #ffffff; "><div style="display: inline-block; font-size: 10px; font-family: Helvetica; color: light-dark(#DD344C, #ff7f93); line-height: 1.2; pointer-events: all; background-color: light-dark(#ffffff, var(--ge-dark-color, #121212)); white-space: nowrap; ">✗ ブロック</div></div></div></foreignObject><text x="255" y="293" fill="#DD344C" font-family="Helvetica" font-size="10px" text-anchor="middle">✗ ブロック</text></switch></g></g></g><g data-cell-id="a3"><g><path d="M 340 190 L 481.76 190" fill="none" stroke="#666666" stroke-width="2" stroke-miterlimit="10" pointer-events="stroke" style="stroke: light-dark(rgb(102, 102, 102), rgb(149, 149, 149));"/><path d="M 487.76 190 L 479.76 194 L 481.76 190 L 479.76 186 Z" fill="#666666" stroke="#666666" stroke-width="2" stroke-miterlimit="10" pointer-events="all" style="fill: light-dark(rgb(102, 102, 102), rgb(149, 149, 149)); stroke: light-dark(rgb(102, 102, 102), rgb(149, 149, 149));"/></g></g><g data-cell-id="a4"><g><path d="M 540 190 L 741.76 190" fill="none" stroke="#666666" stroke-width="2" stroke-miterlimit="10" pointer-events="stroke" style="stroke: light-dark(rgb(102, 102, 102), rgb(149, 149, 149));"/><path d="M 747.76 190 L 739.76 194 L 741.76 190 L 739.76 186 Z" fill="#666666" stroke="#666666" stroke-width="2" stroke-miterlimit="10" pointer-events="all" style="fill: light-dark(rgb(102, 102, 102), rgb(149, 149, 149)); stroke: light-dark(rgb(102, 102, 102), rgb(149, 149, 149));"/></g></g><g data-cell-id="note"><g transform="translate(0.5,0.5)"><rect x="0" y="460" width="960" height="100" rx="15" ry="15" fill="#e3f2fd" stroke="#1976d2" pointer-events="all" style="fill: light-dark(rgb(227, 242, 253), rgb(20, 33, 42)); stroke: light-dark(rgb(25, 118, 210), rgb(79, 159, 238));"/></g></g><g data-cell-id="noteinner"><g transform="translate(0.5,0.5)"><rect x="20" y="475" width="920" height="80" fill="none" stroke="none" pointer-events="all"/></g><g><g><switch><foreignObject style="overflow: visible; text-align: left;" pointer-events="none" width="100%" height="100%" requiredFeatures="http://www.w3.org/TR/SVG11/feature#Extensibility"><div xmlns="http://www.w3.org/1999/xhtml" style="display: flex; align-items: unsafe flex-start; justify-content: unsafe flex-start; width: 918px; height: 1px; padding-top: 482px; margin-left: 22px;"><div style="box-sizing: border-box; font-size: 0; text-align: left; color: #0D47A1; "><div style="display: inline-block; font-size: 11px; font-family: Helvetica; color: light-dark(#0D47A1, #88baff); line-height: 1.2; pointer-events: all; white-space: normal; word-wrap: normal; ">要点:<br />  ① WAF（IP セット）= ネットワーク層で不正 IP を遮断（DDoS / ボット対策）<br />  ② API キー + 使用量プラン = 認証された正規顧客ごとにレート上限・クォータを付与<br />  ③ WAF だけでは顧客別レート制御はできない。API キーだけでは IP 制限はできない → 両方必須</div></div></div></foreignObject><text x="22" y="493" fill="#0D47A1" font-family="Helvetica" font-size="11px">要点:...</text></switch></g></g></g></g></g></g><switch><g requiredFeatures="http://www.w3.org/TR/SVG11/feature#Extensibility"/><a transform="translate(0,-5)" xlink:href="https://www.drawio.com/doc/faq/svg-export-text-problems" target="_blank"><text text-anchor="middle" font-size="10px" x="50%" y="100%">Text is not SVG - cannot display</text></a></switch></svg>