<?xml version="1.0" encoding="UTF-8"?>
<!DOCTYPE svg PUBLIC "-//W3C//DTD SVG 1.1//EN" "http://www.w3.org/Graphics/SVG/1.1/DTD/svg11.dtd">
<svg xmlns="http://www.w3.org/2000/svg" style="background: transparent; background-color: transparent; color-scheme: light;" xmlns:xlink="http://www.w3.org/1999/xlink" version="1.1" width="961px" height="570px" viewBox="0 0 961 570"><defs/><g><g data-cell-id="0"><g data-cell-id="1"><g data-cell-id="t1"><g transform="translate(0.5,0.5)"><rect x="0" y="0" width="960" height="28" fill="none" stroke="none" pointer-events="all"/></g><g><g><switch><foreignObject style="overflow: visible; text-align: left;" pointer-events="none" width="100%" height="100%" requiredFeatures="http://www.w3.org/TR/SVG11/feature#Extensibility"><div xmlns="http://www.w3.org/1999/xhtml" style="display: flex; align-items: unsafe center; justify-content: unsafe center; width: 958px; height: 1px; padding-top: 14px; margin-left: 1px;"><div style="box-sizing: border-box; font-size: 0; text-align: center; color: #232F3E; "><div style="display: inline-block; font-size: 15px; font-family: Helvetica; color: light-dark(#232F3E, #bdc7d4); line-height: 1.2; pointer-events: all; font-weight: bold; white-space: normal; word-wrap: normal; ">UDEMY-135: PrivateLink プロバイダ側 — NLB + Endpoint Service (クロスリージョン)</div></div></div></foreignObject><text x="480" y="19" fill="#232F3E" font-family="Helvetica" font-size="15px" text-anchor="middle" font-weight="bold">UDEMY-135: PrivateLink プロバイダ側 — NLB + Endpoint Service (クロスリージョン)</text></switch></g></g></g><g data-cell-id="g2"><g transform="translate(0.5,0.5)"><path d="M 20 68 L 480 68 L 480 448 L 20 448 Z" fill="#e9f3e6" stroke="#248814" stroke-miterlimit="10" pointer-events="all" style="fill: light-dark(rgb(233, 243, 230), rgb(24, 33, 22)); stroke: light-dark(rgb(36, 136, 20), rgb(85, 171, 71));"/><path d="M 30.59 74.65 C 30.53 74.65 30.48 74.65 30.42 74.65 L 30.42 74.65 C 29.11 74.68 28.03 75.24 27.14 76.25 C 27.13 76.25 27.13 76.25 27.13 76.25 C 26.2 77.36 25.87 78.52 25.96 79.73 C 24.81 80.06 24.12 80.92 23.76 81.74 C 23.75 81.75 23.75 81.76 23.74 81.78 C 23.33 83.05 23.68 84.36 24.24 85.16 C 24.25 85.17 24.25 85.17 24.26 85.18 C 24.94 86.05 25.97 86.53 27.02 86.53 L 38.17 86.53 C 39.19 86.53 40.07 86.16 40.8 85.37 C 41.25 84.94 41.49 84.29 41.58 83.59 C 41.67 82.9 41.61 82.16 41.32 81.55 C 41.31 81.54 41.31 81.53 41.31 81.52 C 40.8 80.62 39.95 79.81 38.76 79.64 C 38.74 78.79 38.28 77.99 37.68 77.56 C 37.67 77.55 37.66 77.55 37.65 77.54 C 37.01 77.18 36.4 77.14 35.91 77.3 C 35.6 77.4 35.36 77.56 35.14 77.74 C 34.51 76.36 33.43 75.18 31.81 74.79 C 31.81 74.79 31.81 74.79 31.81 74.79 C 31.38 74.7 30.97 74.65 30.59 74.65 Z M 30.43 75.38 C 30.8 75.38 31.2 75.43 31.64 75.53 C 33.16 75.89 34.15 77.07 34.66 78.48 C 34.71 78.6 34.81 78.69 34.94 78.72 C 35.07 78.74 35.2 78.7 35.29 78.61 C 35.54 78.34 35.83 78.11 36.14 78.01 C 36.44 77.91 36.78 77.92 37.26 78.18 C 37.67 78.49 38.11 79.31 38.03 79.9 C 38.01 80.01 38.05 80.12 38.12 80.2 C 38.19 80.28 38.29 80.33 38.39 80.33 C 39.46 80.34 40.16 81.02 40.64 81.88 C 40.85 82.3 40.91 82.92 40.84 83.5 C 40.76 84.07 40.53 84.59 40.28 84.83 C 40.27 84.84 40.27 84.85 40.26 84.85 C 39.65 85.53 39.03 85.78 38.17 85.78 L 27.02 85.78 C 26.2 85.78 25.39 85.41 24.85 84.73 C 24.44 84.13 24.14 83.02 24.46 82.02 C 24.79 81.27 25.36 80.55 26.41 80.36 C 26.6 80.32 26.74 80.14 26.71 79.94 C 26.56 78.79 26.8 77.81 27.7 76.74 C 28.49 75.85 29.33 75.39 30.43 75.38 Z M 32.2 78.7 C 31.77 78.7 31.4 78.93 31.13 79.21 C 30.85 79.5 30.64 79.85 30.64 80.25 L 30.64 80.71 L 30.14 80.71 C 30.04 80.71 29.94 80.75 29.87 80.82 C 29.8 80.89 29.76 80.98 29.76 81.08 L 29.76 83.7 C 29.76 83.8 29.8 83.89 29.87 83.96 C 29.94 84.03 30.04 84.07 30.14 84.07 L 34.16 84.07 C 34.26 84.07 34.35 84.03 34.42 83.96 C 34.49 83.89 34.53 83.8 34.53 83.7 L 34.53 81.08 C 34.53 80.98 34.49 80.89 34.42 80.82 C 34.35 80.75 34.26 80.71 34.16 80.71 L 33.68 80.71 L 33.68 80.25 C 33.68 79.84 33.47 79.47 33.21 79.2 C 32.94 78.92 32.61 78.7 32.2 78.7 Z M 32.2 79.45 C 32.29 79.45 32.5 79.54 32.67 79.72 C 32.83 79.89 32.93 80.11 32.93 80.25 L 32.93 80.71 L 31.39 80.71 L 31.39 80.25 C 31.39 80.15 31.49 79.91 31.66 79.74 C 31.83 79.56 32.06 79.45 32.2 79.45 Z M 30.51 81.46 L 33.78 81.46 L 33.78 83.32 L 30.51 83.32 Z M 20 93 L 20 68 L 45 68 L 45 93 Z" fill="#248814" stroke="none" pointer-events="all" style="fill: light-dark(rgb(36, 136, 20), rgb(85, 171, 71));"/></g><g><g><switch><foreignObject style="overflow: visible; text-align: left;" pointer-events="none" width="100%" height="100%" requiredFeatures="http://www.w3.org/TR/SVG11/feature#Extensibility"><div xmlns="http://www.w3.org/1999/xhtml" style="display: flex; align-items: unsafe flex-start; justify-content: unsafe flex-start; width: 428px; height: 1px; padding-top: 75px; margin-left: 52px;"><div style="box-sizing: border-box; font-size: 0; text-align: left; color: #232F3E; "><div style="display: inline-block; font-size: 12px; font-family: Helvetica; color: light-dark(#232F3E, #bdc7d4); line-height: 1.2; pointer-events: all; font-weight: bold; white-space: normal; word-wrap: normal; ">Provider VPC (eu-central-1)</div></div></div></foreignObject><text x="52" y="87" fill="#232F3E" font-family="Helvetica" font-size="12px" font-weight="bold">Provider VPC (eu-central-1)</text></switch></g></g></g><g data-cell-id="t3"><g transform="translate(0.5,0.5)"><rect x="50" y="98" width="200" height="20" fill="none" stroke="none" pointer-events="all"/></g><g><g><switch><foreignObject style="overflow: visible; text-align: left;" pointer-events="none" width="100%" height="100%" requiredFeatures="http://www.w3.org/TR/SVG11/feature#Extensibility"><div xmlns="http://www.w3.org/1999/xhtml" style="display: flex; align-items: unsafe center; justify-content: unsafe flex-start; width: 198px; height: 1px; padding-top: 108px; margin-left: 52px;"><div style="box-sizing: border-box; font-size: 0; text-align: left; color: #232F3E; "><div style="display: inline-block; font-size: 11px; font-family: Helvetica; color: light-dark(#232F3E, #bdc7d4); line-height: 1.2; pointer-events: all; font-weight: bold; white-space: normal; word-wrap: normal; ">Private Subnets (複数AZ)</div></div></div></foreignObject><text x="52" y="111" fill="#232F3E" font-family="Helvetica" font-size="11px" font-weight="bold">Private Subnets (複数AZ)</text></switch></g></g></g><g data-cell-id="i4"><g transform="translate(0.5,0.5)"><path d="M 60 128 L 110 128 L 110 178 L 60 178 Z" fill="#ed7100" stroke="none" pointer-events="all" style="fill: light-dark(rgb(237, 113, 0), rgb(216, 109, 12));"/><path d="M 75.71 162.29 L 93.57 162.29 L 93.57 144.43 L 75.71 144.43 Z M 95 144.43 L 97.86 144.43 L 97.86 145.86 L 95 145.86 L 95 148.71 L 97.86 148.71 L 97.86 150.14 L 95 150.14 L 95 152.29 L 97.86 152.29 L 97.86 153.71 L 95 153.71 L 95 156.57 L 97.86 156.57 L 97.86 158 L 95 158 L 95 160.86 L 97.86 160.86 L 97.86 162.29 L 95 162.29 L 95 162.38 C 95 163.12 94.4 163.71 93.67 163.71 L 93.57 163.71 L 93.57 166.57 L 92.14 166.57 L 92.14 163.71 L 89.29 163.71 L 89.29 166.57 L 87.86 166.57 L 87.86 163.71 L 85.71 163.71 L 85.71 166.57 L 84.29 166.57 L 84.29 163.71 L 81.43 163.71 L 81.43 166.57 L 80 166.57 L 80 163.71 L 77.14 163.71 L 77.14 166.57 L 75.71 166.57 L 75.71 163.71 L 75.62 163.71 C 74.88 163.71 74.29 163.12 74.29 162.38 L 74.29 162.29 L 72.14 162.29 L 72.14 160.86 L 74.29 160.86 L 74.29 158 L 72.14 158 L 72.14 156.57 L 74.29 156.57 L 74.29 153.71 L 72.14 153.71 L 72.14 152.29 L 74.29 152.29 L 74.29 150.14 L 72.14 150.14 L 72.14 148.71 L 74.29 148.71 L 74.29 145.86 L 72.14 145.86 L 72.14 144.43 L 74.29 144.43 L 74.29 144.33 C 74.29 143.6 74.88 143 75.62 143 L 75.71 143 L 75.71 140.14 L 77.14 140.14 L 77.14 143 L 80 143 L 80 140.14 L 81.43 140.14 L 81.43 143 L 84.29 143 L 84.29 140.14 L 85.71 140.14 L 85.71 143 L 87.86 143 L 87.86 140.14 L 89.29 140.14 L 89.29 143 L 92.14 143 L 92.14 140.14 L 93.57 140.14 L 93.57 143 L 93.67 143 C 94.4 143 95 143.6 95 144.33 Z M 85.71 171.48 C 85.71 171.53 85.67 171.57 85.63 171.57 L 66.52 171.57 C 66.47 171.57 66.43 171.53 66.43 171.48 L 66.43 152.37 C 66.43 152.33 66.47 152.29 66.52 152.29 L 70.71 152.29 L 70.71 150.86 L 66.52 150.86 C 65.68 150.86 65 151.54 65 152.37 L 65 171.48 C 65 172.32 65.68 173 66.52 173 L 85.63 173 C 86.46 173 87.14 172.32 87.14 171.48 L 87.14 168 L 85.71 168 Z M 105 134.52 L 105 153.63 C 105 154.46 104.32 155.14 103.48 155.14 L 99.29 155.14 L 99.29 153.71 L 103.48 153.71 C 103.53 153.71 103.57 153.67 103.57 153.63 L 103.57 134.52 C 103.57 134.47 103.53 134.43 103.48 134.43 L 84.37 134.43 C 84.33 134.43 84.29 134.47 84.29 134.52 L 84.29 138.71 L 82.86 138.71 L 82.86 134.52 C 82.86 133.68 83.54 133 84.37 133 L 103.48 133 C 104.32 133 105 133.68 105 134.52 Z" fill="#ffffff" stroke="none" pointer-events="all" style="fill: light-dark(rgb(255, 255, 255), rgb(18, 18, 18));"/></g></g><g data-cell-id="t5"><g transform="translate(0.5,0.5)"><rect x="25" y="186" width="120" height="22" fill="none" stroke="none" pointer-events="all"/></g><g><g><switch><foreignObject style="overflow: visible; text-align: left;" pointer-events="none" width="100%" height="100%" requiredFeatures="http://www.w3.org/TR/SVG11/feature#Extensibility"><div xmlns="http://www.w3.org/1999/xhtml" style="display: flex; align-items: unsafe center; justify-content: unsafe center; width: 118px; height: 1px; padding-top: 197px; margin-left: 26px;"><div style="box-sizing: border-box; font-size: 0; text-align: center; color: #232F3E; "><div style="display: inline-block; font-size: 10px; font-family: Helvetica; color: light-dark(#232F3E, #bdc7d4); line-height: 1.2; pointer-events: all; white-space: normal; word-wrap: normal; ">ERP EC2</div></div></div></foreignObject><text x="85" y="200" fill="#232F3E" font-family="Helvetica" font-size="10px" text-anchor="middle">ERP EC2</text></switch></g></g></g><g data-cell-id="i6"><g transform="translate(0.5,0.5)"><path d="M 160 128 L 210 128 L 210 178 L 160 178 Z" fill="#ed7100" stroke="none" pointer-events="all" style="fill: light-dark(rgb(237, 113, 0), rgb(216, 109, 12));"/><path d="M 175.71 162.29 L 193.57 162.29 L 193.57 144.43 L 175.71 144.43 Z M 195 144.43 L 197.86 144.43 L 197.86 145.86 L 195 145.86 L 195 148.71 L 197.86 148.71 L 197.86 150.14 L 195 150.14 L 195 152.29 L 197.86 152.29 L 197.86 153.71 L 195 153.71 L 195 156.57 L 197.86 156.57 L 197.86 158 L 195 158 L 195 160.86 L 197.86 160.86 L 197.86 162.29 L 195 162.29 L 195 162.38 C 195 163.12 194.4 163.71 193.67 163.71 L 193.57 163.71 L 193.57 166.57 L 192.14 166.57 L 192.14 163.71 L 189.29 163.71 L 189.29 166.57 L 187.86 166.57 L 187.86 163.71 L 185.71 163.71 L 185.71 166.57 L 184.29 166.57 L 184.29 163.71 L 181.43 163.71 L 181.43 166.57 L 180 166.57 L 180 163.71 L 177.14 163.71 L 177.14 166.57 L 175.71 166.57 L 175.71 163.71 L 175.62 163.71 C 174.88 163.71 174.29 163.12 174.29 162.38 L 174.29 162.29 L 172.14 162.29 L 172.14 160.86 L 174.29 160.86 L 174.29 158 L 172.14 158 L 172.14 156.57 L 174.29 156.57 L 174.29 153.71 L 172.14 153.71 L 172.14 152.29 L 174.29 152.29 L 174.29 150.14 L 172.14 150.14 L 172.14 148.71 L 174.29 148.71 L 174.29 145.86 L 172.14 145.86 L 172.14 144.43 L 174.29 144.43 L 174.29 144.33 C 174.29 143.6 174.88 143 175.62 143 L 175.71 143 L 175.71 140.14 L 177.14 140.14 L 177.14 143 L 180 143 L 180 140.14 L 181.43 140.14 L 181.43 143 L 184.29 143 L 184.29 140.14 L 185.71 140.14 L 185.71 143 L 187.86 143 L 187.86 140.14 L 189.29 140.14 L 189.29 143 L 192.14 143 L 192.14 140.14 L 193.57 140.14 L 193.57 143 L 193.67 143 C 194.4 143 195 143.6 195 144.33 Z M 185.71 171.48 C 185.71 171.53 185.67 171.57 185.63 171.57 L 166.52 171.57 C 166.47 171.57 166.43 171.53 166.43 171.48 L 166.43 152.37 C 166.43 152.33 166.47 152.29 166.52 152.29 L 170.71 152.29 L 170.71 150.86 L 166.52 150.86 C 165.68 150.86 165 151.54 165 152.37 L 165 171.48 C 165 172.32 165.68 173 166.52 173 L 185.63 173 C 186.46 173 187.14 172.32 187.14 171.48 L 187.14 168 L 185.71 168 Z M 205 134.52 L 205 153.63 C 205 154.46 204.32 155.14 203.48 155.14 L 199.29 155.14 L 199.29 153.71 L 203.48 153.71 C 203.53 153.71 203.57 153.67 203.57 153.63 L 203.57 134.52 C 203.57 134.47 203.53 134.43 203.48 134.43 L 184.37 134.43 C 184.33 134.43 184.29 134.47 184.29 134.52 L 184.29 138.71 L 182.86 138.71 L 182.86 134.52 C 182.86 133.68 183.54 133 184.37 133 L 203.48 133 C 204.32 133 205 133.68 205 134.52 Z" fill="#ffffff" stroke="none" pointer-events="all" style="fill: light-dark(rgb(255, 255, 255), rgb(18, 18, 18));"/></g></g><g data-cell-id="t7"><g transform="translate(0.5,0.5)"><rect x="125" y="186" width="120" height="22" fill="none" stroke="none" pointer-events="all"/></g><g><g><switch><foreignObject style="overflow: visible; text-align: left;" pointer-events="none" width="100%" height="100%" requiredFeatures="http://www.w3.org/TR/SVG11/feature#Extensibility"><div xmlns="http://www.w3.org/1999/xhtml" style="display: flex; align-items: unsafe center; justify-content: unsafe center; width: 118px; height: 1px; padding-top: 197px; margin-left: 126px;"><div style="box-sizing: border-box; font-size: 0; text-align: center; color: #232F3E; "><div style="display: inline-block; font-size: 10px; font-family: Helvetica; color: light-dark(#232F3E, #bdc7d4); line-height: 1.2; pointer-events: all; white-space: normal; word-wrap: normal; ">ERP EC2</div></div></div></foreignObject><text x="185" y="200" fill="#232F3E" font-family="Helvetica" font-size="10px" text-anchor="middle">ERP EC2</text></switch></g></g></g><g data-cell-id="i8"><g transform="translate(0.5,0.5)"><path d="M 260 128 L 310 128 L 310 178 L 260 178 Z" fill="#ed7100" stroke="none" pointer-events="all" style="fill: light-dark(rgb(237, 113, 0), rgb(216, 109, 12));"/><path d="M 275.71 162.29 L 293.57 162.29 L 293.57 144.43 L 275.71 144.43 Z M 295 144.43 L 297.86 144.43 L 297.86 145.86 L 295 145.86 L 295 148.71 L 297.86 148.71 L 297.86 150.14 L 295 150.14 L 295 152.29 L 297.86 152.29 L 297.86 153.71 L 295 153.71 L 295 156.57 L 297.86 156.57 L 297.86 158 L 295 158 L 295 160.86 L 297.86 160.86 L 297.86 162.29 L 295 162.29 L 295 162.38 C 295 163.12 294.4 163.71 293.67 163.71 L 293.57 163.71 L 293.57 166.57 L 292.14 166.57 L 292.14 163.71 L 289.29 163.71 L 289.29 166.57 L 287.86 166.57 L 287.86 163.71 L 285.71 163.71 L 285.71 166.57 L 284.29 166.57 L 284.29 163.71 L 281.43 163.71 L 281.43 166.57 L 280 166.57 L 280 163.71 L 277.14 163.71 L 277.14 166.57 L 275.71 166.57 L 275.71 163.71 L 275.62 163.71 C 274.88 163.71 274.29 163.12 274.29 162.38 L 274.29 162.29 L 272.14 162.29 L 272.14 160.86 L 274.29 160.86 L 274.29 158 L 272.14 158 L 272.14 156.57 L 274.29 156.57 L 274.29 153.71 L 272.14 153.71 L 272.14 152.29 L 274.29 152.29 L 274.29 150.14 L 272.14 150.14 L 272.14 148.71 L 274.29 148.71 L 274.29 145.86 L 272.14 145.86 L 272.14 144.43 L 274.29 144.43 L 274.29 144.33 C 274.29 143.6 274.88 143 275.62 143 L 275.71 143 L 275.71 140.14 L 277.14 140.14 L 277.14 143 L 280 143 L 280 140.14 L 281.43 140.14 L 281.43 143 L 284.29 143 L 284.29 140.14 L 285.71 140.14 L 285.71 143 L 287.86 143 L 287.86 140.14 L 289.29 140.14 L 289.29 143 L 292.14 143 L 292.14 140.14 L 293.57 140.14 L 293.57 143 L 293.67 143 C 294.4 143 295 143.6 295 144.33 Z M 285.71 171.48 C 285.71 171.53 285.67 171.57 285.63 171.57 L 266.52 171.57 C 266.47 171.57 266.43 171.53 266.43 171.48 L 266.43 152.37 C 266.43 152.33 266.47 152.29 266.52 152.29 L 270.71 152.29 L 270.71 150.86 L 266.52 150.86 C 265.68 150.86 265 151.54 265 152.37 L 265 171.48 C 265 172.32 265.68 173 266.52 173 L 285.63 173 C 286.46 173 287.14 172.32 287.14 171.48 L 287.14 168 L 285.71 168 Z M 305 134.52 L 305 153.63 C 305 154.46 304.32 155.14 303.48 155.14 L 299.29 155.14 L 299.29 153.71 L 303.48 153.71 C 303.53 153.71 303.57 153.67 303.57 153.63 L 303.57 134.52 C 303.57 134.47 303.53 134.43 303.48 134.43 L 284.37 134.43 C 284.33 134.43 284.29 134.47 284.29 134.52 L 284.29 138.71 L 282.86 138.71 L 282.86 134.52 C 282.86 133.68 283.54 133 284.37 133 L 303.48 133 C 304.32 133 305 133.68 305 134.52 Z" fill="#ffffff" stroke="none" pointer-events="all" style="fill: light-dark(rgb(255, 255, 255), rgb(18, 18, 18));"/></g></g><g data-cell-id="t9"><g transform="translate(0.5,0.5)"><rect x="225" y="186" width="120" height="22" fill="none" stroke="none" pointer-events="all"/></g><g><g><switch><foreignObject style="overflow: visible; text-align: left;" pointer-events="none" width="100%" height="100%" requiredFeatures="http://www.w3.org/TR/SVG11/feature#Extensibility"><div xmlns="http://www.w3.org/1999/xhtml" style="display: flex; align-items: unsafe center; justify-content: unsafe center; width: 118px; height: 1px; padding-top: 197px; margin-left: 226px;"><div style="box-sizing: border-box; font-size: 0; text-align: center; color: #232F3E; "><div style="display: inline-block; font-size: 10px; font-family: Helvetica; color: light-dark(#232F3E, #bdc7d4); line-height: 1.2; pointer-events: all; white-space: normal; word-wrap: normal; ">ERP EC2</div></div></div></foreignObject><text x="285" y="200" fill="#232F3E" font-family="Helvetica" font-size="10px" text-anchor="middle">ERP EC2</text></switch></g></g></g><g data-cell-id="i10"><g transform="translate(0.5,0.5)"><path d="M 360 128 L 410 128 L 410 178 L 360 178 Z" fill="#8c4fff" stroke="none" pointer-events="all" style="fill: light-dark(rgb(140, 79, 255), rgb(177, 125, 255));"/><path d="M 396.14 149.7 L 391.36 149.7 C 390.86 149.7 390.45 150.11 390.45 150.61 L 390.45 155.39 C 390.45 155.89 390.86 156.29 391.36 156.29 L 396.14 156.29 C 396.64 156.29 397.05 155.89 397.05 155.39 L 397.05 150.61 C 397.05 150.11 396.64 149.7 396.14 149.7 Z M 392.27 154.48 L 392.27 151.52 L 395.23 151.52 L 395.23 154.48 Z M 389.22 161.32 C 389.35 161.8 389.06 162.3 388.58 162.43 L 384.92 163.42 L 384.45 161.67 L 385.87 161.28 L 379.24 157.78 L 380.09 156.17 L 386.92 159.78 L 386.47 158.14 L 388.23 157.66 Z M 377.76 148.14 L 369.86 148.14 C 369.36 148.14 368.95 148.55 368.95 149.05 L 368.95 156.95 C 368.95 157.45 369.36 157.86 369.86 157.86 L 377.76 157.86 C 378.26 157.86 378.67 157.45 378.67 156.95 L 378.67 149.05 C 378.67 148.55 378.26 148.14 377.76 148.14 Z M 370.77 156.04 L 370.77 149.96 L 376.85 149.96 L 376.85 156.04 Z M 396.14 140.95 L 391.36 140.95 C 390.86 140.95 390.45 141.36 390.45 141.86 L 390.45 146.64 C 390.45 147.14 390.86 147.55 391.36 147.55 L 396.14 147.55 C 396.64 147.55 397.05 147.14 397.05 146.64 L 397.05 141.86 C 397.05 141.36 396.64 140.95 396.14 140.95 Z M 392.27 145.73 L 392.27 142.77 L 395.23 142.77 L 395.23 145.73 Z M 379.24 148.22 L 385.87 144.72 L 384.45 144.33 L 384.92 142.58 L 388.58 143.57 C 389.06 143.7 389.35 144.2 389.22 144.68 L 388.23 148.34 L 386.47 147.86 L 386.92 146.22 L 380.09 149.83 Z M 396.14 158.45 L 391.36 158.45 C 390.86 158.45 390.45 158.86 390.45 159.36 L 390.45 164.14 C 390.45 164.64 390.86 165.05 391.36 165.05 L 396.14 165.05 C 396.64 165.05 397.05 164.64 397.05 164.14 L 397.05 159.36 C 397.05 158.86 396.64 158.45 396.14 158.45 Z M 392.27 163.23 L 392.27 160.27 L 395.23 160.27 L 395.23 163.23 Z M 389.62 152.36 C 389.98 152.71 389.98 153.29 389.62 153.64 L 386.94 156.32 L 385.66 155.03 L 386.78 153.91 L 380.23 153.91 L 380.23 152.09 L 386.78 152.09 L 385.66 150.96 L 386.94 149.68 Z M 385 133 C 373.97 133 365 141.97 365 153 C 365 164.03 373.97 173 385 173 C 396.03 173 405 164.03 405 153 C 405 141.97 396.03 133 385 133 Z M 385 171.18 C 374.97 171.18 366.82 163.03 366.82 153 C 366.82 142.97 374.97 134.82 385 134.82 C 395.03 134.82 403.18 142.97 403.18 153 C 403.18 163.03 395.03 171.18 385 171.18 Z" fill="#ffffff" stroke="none" pointer-events="all" style="fill: light-dark(rgb(255, 255, 255), rgb(18, 18, 18));"/></g></g><g data-cell-id="t11"><g transform="translate(0.5,0.5)"><rect x="325" y="186" width="120" height="22" fill="none" stroke="none" pointer-events="all"/></g><g><g><switch><foreignObject style="overflow: visible; text-align: left;" pointer-events="none" width="100%" height="100%" requiredFeatures="http://www.w3.org/TR/SVG11/feature#Extensibility"><div xmlns="http://www.w3.org/1999/xhtml" style="display: flex; align-items: unsafe center; justify-content: unsafe center; width: 118px; height: 1px; padding-top: 197px; margin-left: 326px;"><div style="box-sizing: border-box; font-size: 0; text-align: center; color: #232F3E; "><div style="display: inline-block; font-size: 10px; font-family: Helvetica; color: light-dark(#232F3E, #bdc7d4); line-height: 1.2; pointer-events: all; white-space: normal; word-wrap: normal; ">NLB</div></div></div></foreignObject><text x="385" y="200" fill="#232F3E" font-family="Helvetica" font-size="10px" text-anchor="middle">NLB</text></switch></g></g></g><g data-cell-id="r12"><g transform="translate(0.5,0.5)"><rect x="60" y="248" width="380" height="70" rx="10.5" ry="10.5" fill="#ebf1ff" stroke="#3b48cc" pointer-events="all" style="fill: light-dark(rgb(235, 241, 255), rgb(25, 30, 42)); stroke: light-dark(rgb(59, 72, 204), rgb(152, 163, 255));"/></g><g><g><switch><foreignObject style="overflow: visible; text-align: left;" pointer-events="none" width="100%" height="100%" requiredFeatures="http://www.w3.org/TR/SVG11/feature#Extensibility"><div xmlns="http://www.w3.org/1999/xhtml" style="display: flex; align-items: unsafe center; justify-content: unsafe center; width: 378px; height: 1px; padding-top: 283px; margin-left: 61px;"><div style="box-sizing: border-box; font-size: 0; text-align: center; color: #232F3E; "><div style="display: inline-block; font-size: 10px; font-family: Helvetica; color: light-dark(#232F3E, #bdc7d4); line-height: 1.2; pointer-events: all; font-weight: bold; white-space: normal; word-wrap: normal; ">VPC Endpoint Service<br />(com.amazonaws.vpce.eu-central-1.xxx)<br />→ 顧客アカウント ID を allowlist に追加</div></div></div></foreignObject><text x="250" y="286" fill="#232F3E" font-family="Helvetica" font-size="10px" text-anchor="middle" font-weight="bold">VPC Endpoint Service...</text></switch></g></g></g><g data-cell-id="a13"><g><path d="M 390 183 L 257.47 244.53" fill="none" stroke="#3b48cc" stroke-width="2" stroke-miterlimit="10" pointer-events="stroke" style="stroke: light-dark(rgb(59, 72, 204), rgb(152, 163, 255));"/><path d="M 252.03 247.06 L 257.6 240.06 L 257.47 244.53 L 260.97 247.32 Z" fill="#3b48cc" stroke="#3b48cc" stroke-width="2" stroke-miterlimit="10" pointer-events="all" style="fill: light-dark(rgb(59, 72, 204), rgb(152, 163, 255)); stroke: light-dark(rgb(59, 72, 204), rgb(152, 163, 255));"/></g></g><g data-cell-id="g14"><g transform="translate(0.5,0.5)"><path d="M 540 68 L 940 68 L 940 448 L 540 448 Z" fill="#f3d5dd" stroke="#cd2264" stroke-miterlimit="10" pointer-events="all" style="fill: light-dark(rgb(243, 213, 221), rgb(68, 42, 49)); stroke: light-dark(rgb(205, 34, 100), rgb(255, 137, 194));"/><path d="M 540 68 L 540 93 L 565 93 L 565 68 L 540 68 Z M 544.09 71.69 L 560.91 71.69 C 561.01 71.69 561.12 71.73 561.19 71.81 C 561.27 71.88 561.31 71.99 561.31 72.09 L 561.31 88.91 C 561.31 89.01 561.27 89.12 561.19 89.19 C 561.12 89.27 561.01 89.31 560.91 89.31 L 544.09 89.31 C 543.99 89.31 543.88 89.27 543.81 89.19 C 543.73 89.12 543.69 89.01 543.69 88.91 L 543.69 72.09 C 543.69 71.99 543.73 71.88 543.81 71.81 C 543.88 71.73 543.99 71.69 544.09 71.69 Z M 544.49 72.49 L 544.49 88.51 L 560.51 88.51 L 560.51 72.49 L 544.49 72.49 Z M 556.5 73.31 C 556.65 73.31 556.79 73.38 556.86 73.52 L 559.46 78.72 C 559.53 78.84 559.52 78.99 559.45 79.11 C 559.37 79.23 559.25 79.3 559.11 79.3 L 553.9 79.3 L 553.9 79.3 C 553.76 79.3 553.63 79.23 553.56 79.11 C 553.49 78.99 553.48 78.84 553.54 78.72 L 556.14 73.52 C 556.21 73.38 556.36 73.31 556.5 73.31 Z M 556.5 74.59 L 554.55 78.5 L 558.46 78.5 L 556.5 74.59 Z M 546.09 77.3 L 551.3 77.3 C 551.41 77.3 551.51 77.34 551.58 77.41 C 551.66 77.49 551.7 77.59 551.7 77.7 L 551.7 82.9 C 551.7 83.01 551.66 83.11 551.58 83.19 C 551.51 83.26 551.41 83.3 551.3 83.3 L 546.09 83.3 C 545.99 83.3 545.89 83.26 545.81 83.19 C 545.74 83.11 545.69 83.01 545.69 82.9 L 545.69 77.7 C 545.69 77.59 545.74 77.49 545.81 77.41 C 545.89 77.34 545.99 77.3 546.09 77.3 Z M 546.49 78.1 L 546.49 82.5 L 550.9 82.5 L 550.9 78.1 L 546.49 78.1 Z M 555.7 81.3 C 557.47 81.3 558.9 82.74 558.91 84.5 C 558.9 86.27 557.47 87.7 555.7 87.71 C 553.94 87.7 552.5 86.27 552.5 84.5 C 552.5 82.74 553.94 81.3 555.7 81.3 Z M 555.7 82.1 C 554.38 82.1 553.3 83.18 553.3 84.5 C 553.3 85.83 554.38 86.9 555.7 86.91 C 557.03 86.9 558.1 85.83 558.1 84.5 C 558.1 83.18 557.03 82.1 555.7 82.1 Z" fill="#cd2264" stroke="none" pointer-events="all" style="fill: light-dark(rgb(205, 34, 100), rgb(255, 137, 194));"/></g><g><g><switch><foreignObject style="overflow: visible; text-align: left;" pointer-events="none" width="100%" height="100%" requiredFeatures="http://www.w3.org/TR/SVG11/feature#Extensibility"><div xmlns="http://www.w3.org/1999/xhtml" style="display: flex; align-items: unsafe flex-start; justify-content: unsafe flex-start; width: 368px; height: 1px; padding-top: 75px; margin-left: 572px;"><div style="box-sizing: border-box; font-size: 0; text-align: left; color: #232F3E; "><div style="display: inline-block; font-size: 12px; font-family: Helvetica; color: light-dark(#232F3E, #bdc7d4); line-height: 1.2; pointer-events: all; font-weight: bold; white-space: normal; word-wrap: normal; ">顧客 (別リージョンでも可)</div></div></div></foreignObject><text x="572" y="87" fill="#232F3E" font-family="Helvetica" font-size="12px" font-weight="bold">顧客 (別リージョンでも可)</text></switch></g></g></g><g data-cell-id="g15"><g transform="translate(0.5,0.5)"><path d="M 560 118 L 920 118 L 920 418 L 560 418 Z" fill="#e9f3e6" stroke="#248814" stroke-miterlimit="10" pointer-events="all" style="fill: light-dark(rgb(233, 243, 230), rgb(24, 33, 22)); stroke: light-dark(rgb(36, 136, 20), rgb(85, 171, 71));"/><path d="M 570.59 124.65 C 570.53 124.65 570.48 124.65 570.42 124.65 L 570.42 124.65 C 569.11 124.68 568.03 125.24 567.14 126.25 C 567.13 126.25 567.13 126.25 567.13 126.25 C 566.2 127.36 565.87 128.52 565.96 129.73 C 564.81 130.06 564.12 130.92 563.76 131.74 C 563.75 131.75 563.75 131.76 563.74 131.78 C 563.33 133.05 563.68 134.36 564.24 135.16 C 564.25 135.17 564.25 135.17 564.26 135.18 C 564.94 136.05 565.97 136.53 567.02 136.53 L 578.17 136.53 C 579.19 136.53 580.07 136.16 580.8 135.37 C 581.25 134.94 581.49 134.29 581.58 133.59 C 581.67 132.9 581.61 132.16 581.32 131.55 C 581.31 131.54 581.31 131.53 581.31 131.52 C 580.8 130.62 579.95 129.81 578.76 129.64 C 578.74 128.79 578.28 127.99 577.68 127.56 C 577.67 127.55 577.66 127.55 577.65 127.54 C 577.01 127.18 576.4 127.14 575.91 127.3 C 575.6 127.4 575.36 127.56 575.14 127.74 C 574.51 126.36 573.43 125.18 571.81 124.79 C 571.81 124.79 571.81 124.79 571.81 124.79 C 571.38 124.7 570.97 124.65 570.59 124.65 Z M 570.43 125.38 C 570.8 125.38 571.2 125.43 571.64 125.53 C 573.16 125.89 574.15 127.07 574.66 128.48 C 574.71 128.6 574.81 128.69 574.94 128.72 C 575.07 128.74 575.2 128.7 575.29 128.61 C 575.54 128.34 575.83 128.11 576.14 128.01 C 576.44 127.91 576.78 127.92 577.26 128.18 C 577.67 128.49 578.11 129.31 578.03 129.9 C 578.01 130.01 578.05 130.12 578.12 130.2 C 578.19 130.28 578.29 130.33 578.39 130.33 C 579.46 130.34 580.16 131.02 580.64 131.88 C 580.85 132.3 580.91 132.92 580.84 133.5 C 580.76 134.07 580.53 134.59 580.28 134.83 C 580.27 134.84 580.27 134.85 580.26 134.85 C 579.65 135.53 579.03 135.78 578.17 135.78 L 567.02 135.78 C 566.2 135.78 565.39 135.41 564.85 134.73 C 564.44 134.13 564.14 133.02 564.46 132.02 C 564.79 131.27 565.36 130.55 566.41 130.36 C 566.6 130.32 566.74 130.14 566.71 129.94 C 566.56 128.79 566.8 127.81 567.7 126.74 C 568.49 125.85 569.33 125.39 570.43 125.38 Z M 572.2 128.7 C 571.77 128.7 571.4 128.93 571.13 129.21 C 570.85 129.5 570.64 129.85 570.64 130.25 L 570.64 130.71 L 570.14 130.71 C 570.04 130.71 569.94 130.75 569.87 130.82 C 569.8 130.89 569.76 130.98 569.76 131.08 L 569.76 133.7 C 569.76 133.8 569.8 133.89 569.87 133.96 C 569.94 134.03 570.04 134.07 570.14 134.07 L 574.16 134.07 C 574.26 134.07 574.35 134.03 574.42 133.96 C 574.49 133.89 574.53 133.8 574.53 133.7 L 574.53 131.08 C 574.53 130.98 574.49 130.89 574.42 130.82 C 574.35 130.75 574.26 130.71 574.16 130.71 L 573.68 130.71 L 573.68 130.25 C 573.68 129.84 573.47 129.47 573.21 129.2 C 572.94 128.92 572.61 128.7 572.2 128.7 Z M 572.2 129.45 C 572.29 129.45 572.5 129.54 572.67 129.72 C 572.83 129.89 572.93 130.11 572.93 130.25 L 572.93 130.71 L 571.39 130.71 L 571.39 130.25 C 571.39 130.15 571.49 129.91 571.66 129.74 C 571.83 129.56 572.06 129.45 572.2 129.45 Z M 570.51 131.46 L 573.78 131.46 L 573.78 133.32 L 570.51 133.32 Z M 560 143 L 560 118 L 585 118 L 585 143 Z" fill="#248814" stroke="none" pointer-events="all" style="fill: light-dark(rgb(36, 136, 20), rgb(85, 171, 71));"/></g><g><g><switch><foreignObject style="overflow: visible; text-align: left;" pointer-events="none" width="100%" height="100%" requiredFeatures="http://www.w3.org/TR/SVG11/feature#Extensibility"><div xmlns="http://www.w3.org/1999/xhtml" style="display: flex; align-items: unsafe flex-start; justify-content: unsafe flex-start; width: 328px; height: 1px; padding-top: 125px; margin-left: 592px;"><div style="box-sizing: border-box; font-size: 0; text-align: left; color: #232F3E; "><div style="display: inline-block; font-size: 12px; font-family: Helvetica; color: light-dark(#232F3E, #bdc7d4); line-height: 1.2; pointer-events: all; font-weight: bold; white-space: normal; word-wrap: normal; ">Consumer VPC</div></div></div></foreignObject><text x="592" y="137" fill="#232F3E" font-family="Helvetica" font-size="12px" font-weight="bold">Consumer VPC</text></switch></g></g></g><g data-cell-id="i16"><g transform="translate(0.5,0.5)"><path d="M 600 168 L 650 168 L 650 218 L 600 218 Z" fill="#8c4fff" stroke="none" pointer-events="all" style="fill: light-dark(rgb(140, 79, 255), rgb(177, 125, 255));"/><path d="M 626.74 193.87 L 628.47 193.87 L 628.47 192.13 L 626.74 192.13 Z M 624.13 193.87 L 625.87 193.87 L 625.87 192.13 L 624.13 192.13 Z M 621.53 193.87 L 623.26 193.87 L 623.26 192.13 L 621.53 192.13 Z M 637.11 199.37 L 631.12 204.64 L 631.12 181.48 L 637.11 186.75 Z M 631.31 179.3 C 631.13 179.22 630.32 178.98 629.77 179.29 L 629.3 179.55 L 629.3 206.57 L 629.77 206.83 C 629.97 206.95 630.22 206.99 630.45 206.99 C 630.84 206.99 631.2 206.88 631.31 206.83 L 631.45 206.77 L 638.24 200.79 C 638.66 200.54 638.93 200.1 638.93 199.62 L 638.93 186.5 C 638.93 186.02 638.66 185.58 638.24 185.33 L 631.45 179.35 Z M 618.88 204.64 L 612.89 199.37 L 612.89 186.75 L 618.88 181.48 Z M 618.69 179.3 L 618.55 179.35 L 611.76 185.33 C 611.34 185.58 611.07 186.02 611.07 186.5 L 611.07 199.62 C 611.07 200.1 611.34 200.54 611.76 200.79 L 618.55 206.77 L 618.69 206.83 C 618.8 206.88 619.16 206.99 619.55 206.99 C 619.78 206.99 620.02 206.95 620.23 206.83 L 620.7 206.57 L 620.7 179.55 L 620.23 179.29 C 619.68 178.98 618.87 179.22 618.69 179.3 Z M 643.18 200.53 L 632.53 211.18 L 617.47 211.18 L 606.82 200.53 L 606.82 185.47 L 617.47 174.82 L 632.53 174.82 L 643.18 185.47 Z M 633.28 173 L 616.72 173 L 605 184.72 L 605 201.28 L 616.72 213 L 633.28 213 L 645 201.28 L 645 184.72 Z" fill="#ffffff" stroke="none" pointer-events="all" style="fill: light-dark(rgb(255, 255, 255), rgb(18, 18, 18));"/></g></g><g data-cell-id="t17"><g transform="translate(0.5,0.5)"><rect x="565" y="226" width="120" height="22" fill="none" stroke="none" pointer-events="all"/></g><g><g><switch><foreignObject style="overflow: visible; text-align: left;" pointer-events="none" width="100%" height="100%" requiredFeatures="http://www.w3.org/TR/SVG11/feature#Extensibility"><div xmlns="http://www.w3.org/1999/xhtml" style="display: flex; align-items: unsafe center; justify-content: unsafe center; width: 118px; height: 1px; padding-top: 237px; margin-left: 566px;"><div style="box-sizing: border-box; font-size: 0; text-align: center; color: #232F3E; "><div style="display: inline-block; font-size: 10px; font-family: Helvetica; color: light-dark(#232F3E, #bdc7d4); line-height: 1.2; pointer-events: all; white-space: normal; word-wrap: normal; ">Interface EP<br />(com.amazonaws.vpce..)</div></div></div></foreignObject><text x="625" y="240" fill="#232F3E" font-family="Helvetica" font-size="10px" text-anchor="middle">Interface EP...</text></switch></g></g></g><g data-cell-id="i18"><g transform="translate(0.5,0.5)"><path d="M 750 168 L 800 168 L 800 218 L 750 218 Z" fill="#ed7100" stroke="none" pointer-events="all" style="fill: light-dark(rgb(237, 113, 0), rgb(216, 109, 12));"/><path d="M 765.71 202.29 L 783.57 202.29 L 783.57 184.43 L 765.71 184.43 Z M 785 184.43 L 787.86 184.43 L 787.86 185.86 L 785 185.86 L 785 188.71 L 787.86 188.71 L 787.86 190.14 L 785 190.14 L 785 192.29 L 787.86 192.29 L 787.86 193.71 L 785 193.71 L 785 196.57 L 787.86 196.57 L 787.86 198 L 785 198 L 785 200.86 L 787.86 200.86 L 787.86 202.29 L 785 202.29 L 785 202.38 C 785 203.12 784.4 203.71 783.67 203.71 L 783.57 203.71 L 783.57 206.57 L 782.14 206.57 L 782.14 203.71 L 779.29 203.71 L 779.29 206.57 L 777.86 206.57 L 777.86 203.71 L 775.71 203.71 L 775.71 206.57 L 774.29 206.57 L 774.29 203.71 L 771.43 203.71 L 771.43 206.57 L 770 206.57 L 770 203.71 L 767.14 203.71 L 767.14 206.57 L 765.71 206.57 L 765.71 203.71 L 765.62 203.71 C 764.88 203.71 764.29 203.12 764.29 202.38 L 764.29 202.29 L 762.14 202.29 L 762.14 200.86 L 764.29 200.86 L 764.29 198 L 762.14 198 L 762.14 196.57 L 764.29 196.57 L 764.29 193.71 L 762.14 193.71 L 762.14 192.29 L 764.29 192.29 L 764.29 190.14 L 762.14 190.14 L 762.14 188.71 L 764.29 188.71 L 764.29 185.86 L 762.14 185.86 L 762.14 184.43 L 764.29 184.43 L 764.29 184.33 C 764.29 183.6 764.88 183 765.62 183 L 765.71 183 L 765.71 180.14 L 767.14 180.14 L 767.14 183 L 770 183 L 770 180.14 L 771.43 180.14 L 771.43 183 L 774.29 183 L 774.29 180.14 L 775.71 180.14 L 775.71 183 L 777.86 183 L 777.86 180.14 L 779.29 180.14 L 779.29 183 L 782.14 183 L 782.14 180.14 L 783.57 180.14 L 783.57 183 L 783.67 183 C 784.4 183 785 183.6 785 184.33 Z M 775.71 211.48 C 775.71 211.53 775.67 211.57 775.63 211.57 L 756.52 211.57 C 756.47 211.57 756.43 211.53 756.43 211.48 L 756.43 192.37 C 756.43 192.33 756.47 192.29 756.52 192.29 L 760.71 192.29 L 760.71 190.86 L 756.52 190.86 C 755.68 190.86 755 191.54 755 192.37 L 755 211.48 C 755 212.32 755.68 213 756.52 213 L 775.63 213 C 776.46 213 777.14 212.32 777.14 211.48 L 777.14 208 L 775.71 208 Z M 795 174.52 L 795 193.63 C 795 194.46 794.32 195.14 793.48 195.14 L 789.29 195.14 L 789.29 193.71 L 793.48 193.71 C 793.53 193.71 793.57 193.67 793.57 193.63 L 793.57 174.52 C 793.57 174.47 793.53 174.43 793.48 174.43 L 774.37 174.43 C 774.33 174.43 774.29 174.47 774.29 174.52 L 774.29 178.71 L 772.86 178.71 L 772.86 174.52 C 772.86 173.68 773.54 173 774.37 173 L 793.48 173 C 794.32 173 795 173.68 795 174.52 Z" fill="#ffffff" stroke="none" pointer-events="all" style="fill: light-dark(rgb(255, 255, 255), rgb(18, 18, 18));"/></g></g><g data-cell-id="t19"><g transform="translate(0.5,0.5)"><rect x="715" y="226" width="120" height="22" fill="none" stroke="none" pointer-events="all"/></g><g><g><switch><foreignObject style="overflow: visible; text-align: left;" pointer-events="none" width="100%" height="100%" requiredFeatures="http://www.w3.org/TR/SVG11/feature#Extensibility"><div xmlns="http://www.w3.org/1999/xhtml" style="display: flex; align-items: unsafe center; justify-content: unsafe center; width: 118px; height: 1px; padding-top: 237px; margin-left: 716px;"><div style="box-sizing: border-box; font-size: 0; text-align: center; color: #232F3E; "><div style="display: inline-block; font-size: 10px; font-family: Helvetica; color: light-dark(#232F3E, #bdc7d4); line-height: 1.2; pointer-events: all; white-space: normal; word-wrap: normal; ">EC2 Client</div></div></div></foreignObject><text x="775" y="240" fill="#232F3E" font-family="Helvetica" font-size="10px" text-anchor="middle">EC2 Client</text></switch></g></g></g><g data-cell-id="a20"><g><path d="M 650 188 L 741.76 188" fill="none" stroke="#3b48cc" stroke-width="2" stroke-miterlimit="10" pointer-events="stroke" style="stroke: light-dark(rgb(59, 72, 204), rgb(152, 163, 255));"/><path d="M 747.76 188 L 739.76 192 L 741.76 188 L 739.76 184 Z" fill="#3b48cc" stroke="#3b48cc" stroke-width="2" stroke-miterlimit="10" pointer-events="all" style="fill: light-dark(rgb(59, 72, 204), rgb(152, 163, 255)); stroke: light-dark(rgb(59, 72, 204), rgb(152, 163, 255));"/></g></g><g data-cell-id="r21"><g transform="translate(0.5,0.5)"><rect x="580" y="288" width="320" height="100" rx="15" ry="15" fill="#ffffff" stroke="#3b48cc" pointer-events="all" style="fill: light-dark(rgb(255, 255, 255), rgb(18, 18, 18)); stroke: light-dark(rgb(59, 72, 204), rgb(152, 163, 255));"/></g><g><g><switch><foreignObject style="overflow: visible; text-align: left;" pointer-events="none" width="100%" height="100%" requiredFeatures="http://www.w3.org/TR/SVG11/feature#Extensibility"><div xmlns="http://www.w3.org/1999/xhtml" style="display: flex; align-items: unsafe center; justify-content: unsafe flex-start; width: 318px; height: 1px; padding-top: 338px; margin-left: 582px;"><div style="box-sizing: border-box; font-size: 0; text-align: left; color: #232F3E; "><div style="display: inline-block; font-size: 10px; font-family: Helvetica; color: light-dark(#232F3E, #bdc7d4); line-height: 1.2; pointer-events: all; white-space: normal; word-wrap: normal; ">Consumer 側の手順:<br />1. Service Name をプロバイダから受取<br />2. Interface EP 作成 → 承認されると接続<br />3. Private DNS (Private Hosted Zone) を付与で透過利用</div></div></div></foreignObject><text x="582" y="341" fill="#232F3E" font-family="Helvetica" font-size="10px">Consumer 側の手順:...</text></switch></g></g></g><g data-cell-id="a22"><g><path d="M 450 283 L 573.23 197.69" fill="none" stroke="#3b48cc" stroke-width="2" stroke-miterlimit="10" pointer-events="stroke" style="stroke: light-dark(rgb(59, 72, 204), rgb(152, 163, 255));"/><path d="M 578.16 194.27 L 573.86 202.12 L 573.23 197.69 L 569.31 195.54 Z" fill="#3b48cc" stroke="#3b48cc" stroke-width="2" stroke-miterlimit="10" pointer-events="all" style="fill: light-dark(rgb(59, 72, 204), rgb(152, 163, 255)); stroke: light-dark(rgb(59, 72, 204), rgb(152, 163, 255));"/></g><g><g><switch><foreignObject style="overflow: visible; text-align: left;" pointer-events="none" width="100%" height="100%" requiredFeatures="http://www.w3.org/TR/SVG11/feature#Extensibility"><div xmlns="http://www.w3.org/1999/xhtml" style="display: flex; align-items: unsafe center; justify-content: unsafe center; width: 1px; height: 1px; padding-top: 238px; margin-left: 515px;"><div style="box-sizing: border-box; font-size: 0; text-align: center; color: #000000; background-color: #FFFFFF; "><div style="display: inline-block; font-size: 10px; font-family: Helvetica; color: light-dark(#000000, #ffffff); line-height: 1.2; pointer-events: all; background-color: light-dark(#FFFFFF, #121212); white-space: nowrap; ">PrivateLink</div></div></div></foreignObject><text x="515" y="241" fill="light-dark(#000000, #ffffff)" font-family="Helvetica" font-size="10px" text-anchor="middle">PrivateLink</text></switch></g></g></g><g data-cell-id="n23"><g transform="translate(0.5,0.5)"><rect x="20" y="463" width="920" height="105" rx="15.75" ry="15.75" fill="#ffffff" stroke="#3b48cc" pointer-events="all" style="fill: light-dark(rgb(255, 255, 255), rgb(18, 18, 18)); stroke: light-dark(rgb(59, 72, 204), rgb(152, 163, 255));"/></g><g><g><switch><foreignObject style="overflow: visible; text-align: left;" pointer-events="none" width="100%" height="100%" requiredFeatures="http://www.w3.org/TR/SVG11/feature#Extensibility"><div xmlns="http://www.w3.org/1999/xhtml" style="display: flex; align-items: unsafe flex-start; justify-content: unsafe flex-start; width: 902px; height: 1px; padding-top: 476px; margin-left: 30px;"><div style="box-sizing: border-box; font-size: 0; text-align: left; color: #232F3E; "><div style="display: inline-block; font-size: 10px; font-family: Helvetica; color: light-dark(#232F3E, #bdc7d4); line-height: 1.2; pointer-events: all; white-space: normal; word-wrap: normal; ">◾ 要件: ERP を他社顧客にプライベート提供。ALB は Endpoint Service 非対応 → NLB が必須<br />◾ 解法: プロバイダ側 = NLB + Endpoint Service (承認制)<br />  ・Endpoint Service の allowlist に顧客のアカウント ARN を追加<br />  ・Private DNS 名を設定するとドメイン検証後に顧客 VPC で透過解決可<br />  ・Provider NLB Target は TCP/TLS。ALB は Endpoint Service のバックエンド不可</div></div></div></foreignObject><text x="30" y="486" fill="#232F3E" font-family="Helvetica" font-size="10px">◾ 要件: ERP を他社顧客にプライベート提供。ALB は Endpoint Service 非対応 → NLB が必須...</text></switch></g></g></g></g></g></g><switch><g requiredFeatures="http://www.w3.org/TR/SVG11/feature#Extensibility"/><a transform="translate(0,-5)" xlink:href="https://www.drawio.com/doc/faq/svg-export-text-problems" target="_blank"><text text-anchor="middle" font-size="10px" x="50%" y="100%">Text is not SVG - cannot display</text></a></switch></svg>