<?xml version="1.0" encoding="UTF-8"?>
<!DOCTYPE svg PUBLIC "-//W3C//DTD SVG 1.1//EN" "http://www.w3.org/Graphics/SVG/1.1/DTD/svg11.dtd">
<svg xmlns="http://www.w3.org/2000/svg" style="background: transparent; background-color: transparent; color-scheme: light;" xmlns:xlink="http://www.w3.org/1999/xlink" version="1.1" width="1001px" height="554px" viewBox="0 0 1001 554"><defs/><g><g data-cell-id="0"><g data-cell-id="1"><g data-cell-id="title"><g transform="translate(0.5,0.5)"><rect x="0" y="0" width="1000" height="28" fill="none" stroke="none" pointer-events="all"/></g><g><g><switch><foreignObject style="overflow: visible; text-align: left;" pointer-events="none" width="100%" height="100%" requiredFeatures="http://www.w3.org/TR/SVG11/feature#Extensibility"><div xmlns="http://www.w3.org/1999/xhtml" style="display: flex; align-items: unsafe center; justify-content: unsafe center; width: 998px; height: 1px; padding-top: 14px; margin-left: 1px;"><div style="box-sizing: border-box; font-size: 0; text-align: center; color: #232F3E; "><div style="display: inline-block; font-size: 16px; font-family: Helvetica; color: light-dark(#232F3E, #bdc7d4); line-height: 1.2; pointer-events: all; font-weight: bold; white-space: normal; word-wrap: normal; ">UDEMY-222 / 正解B: RDS Proxy (Multi-AZ フェイルオーバー後の自動再接続)</div></div></div></foreignObject><text x="500" y="19" fill="#232F3E" font-family="Helvetica" font-size="16px" text-anchor="middle" font-weight="bold">UDEMY-222 / 正解B: RDS Proxy (Multi-AZ フェイルオーバー後の自動再接続)</text></switch></g></g></g><g data-cell-id="aws"><g transform="translate(0.5,0.5)"><path d="M 20 52 L 980 52 L 980 552 L 20 552 Z" fill="none" stroke="#3b48cc" stroke-miterlimit="10" pointer-events="all" style="stroke: light-dark(rgb(59, 72, 204), rgb(152, 163, 255));"/><path d="M 28.06 55.47 C 27.47 55.47 27 55.95 27 56.53 C 27 56.99 27.3 57.39 27.71 57.53 L 27.71 72.82 L 25.95 72.82 L 25.95 73.57 L 30.16 73.57 L 30.16 72.82 L 28.46 72.82 L 28.46 64.75 L 39.84 64.75 L 37.19 61.59 L 39.83 58.36 L 28.46 58.36 L 28.46 57.51 C 28.85 57.35 29.12 56.97 29.12 56.53 C 29.12 55.95 28.64 55.47 28.06 55.47 Z M 28.06 56.22 C 28.23 56.22 28.37 56.35 28.37 56.53 C 28.37 56.71 28.23 56.84 28.06 56.84 C 27.88 56.84 27.75 56.71 27.75 56.53 C 27.75 56.35 27.88 56.22 28.06 56.22 Z M 28.46 59.11 L 38.25 59.11 L 36.22 61.6 L 38.23 64 L 28.46 64 Z M 20 77 L 20 52 L 45 52 L 45 77 Z" fill="#3b48cc" stroke="none" pointer-events="all" style="fill: light-dark(rgb(59, 72, 204), rgb(152, 163, 255));"/></g><g><g><switch><foreignObject style="overflow: visible; text-align: left;" pointer-events="none" width="100%" height="100%" requiredFeatures="http://www.w3.org/TR/SVG11/feature#Extensibility"><div xmlns="http://www.w3.org/1999/xhtml" style="display: flex; align-items: unsafe flex-start; justify-content: unsafe flex-start; width: 928px; height: 1px; padding-top: 59px; margin-left: 52px;"><div style="box-sizing: border-box; font-size: 0; text-align: left; color: #3B48CC; "><div style="display: inline-block; font-size: 11px; font-family: Helvetica; color: light-dark(#3B48CC, #98a3ff); line-height: 1.2; pointer-events: all; font-weight: bold; white-space: normal; word-wrap: normal; ">us-east-1 (Multi-AZ)</div></div></div></foreignObject><text x="52" y="70" fill="#3B48CC" font-family="Helvetica" font-size="11px" font-weight="bold">us-east-1 (Multi-AZ)</text></switch></g></g></g><g data-cell-id="app"><g transform="translate(0.5,0.5)"><path d="M 60 122 L 110 122 L 110 172 L 60 172 Z" fill="#ff9900" stroke="none" pointer-events="all" style="fill: light-dark(rgb(255, 153, 0), rgb(175, 87, 0));"/><path d="M 75.71 156.29 L 93.57 156.29 L 93.57 138.43 L 75.71 138.43 Z M 95 138.43 L 97.86 138.43 L 97.86 139.86 L 95 139.86 L 95 142.71 L 97.86 142.71 L 97.86 144.14 L 95 144.14 L 95 146.29 L 97.86 146.29 L 97.86 147.71 L 95 147.71 L 95 150.57 L 97.86 150.57 L 97.86 152 L 95 152 L 95 154.86 L 97.86 154.86 L 97.86 156.29 L 95 156.29 L 95 156.38 C 95 157.12 94.4 157.71 93.67 157.71 L 93.57 157.71 L 93.57 160.57 L 92.14 160.57 L 92.14 157.71 L 89.29 157.71 L 89.29 160.57 L 87.86 160.57 L 87.86 157.71 L 85.71 157.71 L 85.71 160.57 L 84.29 160.57 L 84.29 157.71 L 81.43 157.71 L 81.43 160.57 L 80 160.57 L 80 157.71 L 77.14 157.71 L 77.14 160.57 L 75.71 160.57 L 75.71 157.71 L 75.62 157.71 C 74.88 157.71 74.29 157.12 74.29 156.38 L 74.29 156.29 L 72.14 156.29 L 72.14 154.86 L 74.29 154.86 L 74.29 152 L 72.14 152 L 72.14 150.57 L 74.29 150.57 L 74.29 147.71 L 72.14 147.71 L 72.14 146.29 L 74.29 146.29 L 74.29 144.14 L 72.14 144.14 L 72.14 142.71 L 74.29 142.71 L 74.29 139.86 L 72.14 139.86 L 72.14 138.43 L 74.29 138.43 L 74.29 138.33 C 74.29 137.6 74.88 137 75.62 137 L 75.71 137 L 75.71 134.14 L 77.14 134.14 L 77.14 137 L 80 137 L 80 134.14 L 81.43 134.14 L 81.43 137 L 84.29 137 L 84.29 134.14 L 85.71 134.14 L 85.71 137 L 87.86 137 L 87.86 134.14 L 89.29 134.14 L 89.29 137 L 92.14 137 L 92.14 134.14 L 93.57 134.14 L 93.57 137 L 93.67 137 C 94.4 137 95 137.6 95 138.33 Z M 85.71 165.48 C 85.71 165.53 85.67 165.57 85.63 165.57 L 66.52 165.57 C 66.47 165.57 66.43 165.53 66.43 165.48 L 66.43 146.37 C 66.43 146.33 66.47 146.29 66.52 146.29 L 70.71 146.29 L 70.71 144.86 L 66.52 144.86 C 65.68 144.86 65 145.54 65 146.37 L 65 165.48 C 65 166.32 65.68 167 66.52 167 L 85.63 167 C 86.46 167 87.14 166.32 87.14 165.48 L 87.14 162 L 85.71 162 Z M 105 128.52 L 105 147.63 C 105 148.46 104.32 149.14 103.48 149.14 L 99.29 149.14 L 99.29 147.71 L 103.48 147.71 C 103.53 147.71 103.57 147.67 103.57 147.63 L 103.57 128.52 C 103.57 128.47 103.53 128.43 103.48 128.43 L 84.37 128.43 C 84.33 128.43 84.29 128.47 84.29 128.52 L 84.29 132.71 L 82.86 132.71 L 82.86 128.52 C 82.86 127.68 83.54 127 84.37 127 L 103.48 127 C 104.32 127 105 127.68 105 128.52 Z" fill="#ffffff" stroke="none" pointer-events="all" style="fill: light-dark(rgb(255, 255, 255), rgb(18, 18, 18));"/></g></g><g data-cell-id="app_l"><g transform="translate(0.5,0.5)"><rect x="20" y="180" width="130" height="28" fill="none" stroke="none" pointer-events="all"/></g><g><g><switch><foreignObject style="overflow: visible; text-align: left;" pointer-events="none" width="100%" height="100%" requiredFeatures="http://www.w3.org/TR/SVG11/feature#Extensibility"><div xmlns="http://www.w3.org/1999/xhtml" style="display: flex; align-items: unsafe center; justify-content: unsafe center; width: 128px; height: 1px; padding-top: 194px; margin-left: 21px;"><div style="box-sizing: border-box; font-size: 0; text-align: center; color: #232F3E; "><div style="display: inline-block; font-size: 9px; font-family: Helvetica; color: light-dark(#232F3E, #bdc7d4); line-height: 1.2; pointer-events: all; font-weight: bold; white-space: normal; word-wrap: normal; ">アプリ<br />(再起動不要)</div></div></div></foreignObject><text x="85" y="197" fill="#232F3E" font-family="Helvetica" font-size="9px" text-anchor="middle" font-weight="bold">アプリ&#xa;(再起動不要)</text></switch></g></g></g><g data-cell-id="proxy"><g transform="translate(0.5,0.5)"><path d="M 230 122 L 280 122 L 280 172 L 230 172 Z" fill="#e7157b" stroke="none" pointer-events="all" style="fill: light-dark(rgb(231, 21, 123), rgb(255, 129, 217));"/><path d="M 237.44 128.43 L 244.08 135.07 L 243.07 136.08 L 236.43 129.44 L 236.43 134.86 L 235 134.86 L 235 127.71 C 235 127.32 235.32 127 235.71 127 L 242.86 127 L 242.86 128.43 Z M 275 127.71 L 275 134.86 L 273.57 134.86 L 273.57 129.44 L 266.93 136.08 L 265.92 135.07 L 272.56 128.43 L 267.14 128.43 L 267.14 127 L 274.29 127 C 274.68 127 275 127.32 275 127.71 Z M 273.57 159.14 L 275 159.14 L 275 166.29 C 275 166.68 274.68 167 274.29 167 L 267.14 167 L 267.14 165.57 L 272.56 165.57 L 265.92 158.93 L 266.93 157.92 L 273.57 164.56 Z M 273.21 146.44 C 273.21 144.07 270.48 141.72 265.89 140.17 L 266.35 138.82 C 271.62 140.6 274.64 143.38 274.64 146.44 C 274.64 149.5 271.62 152.27 266.35 154.06 L 265.89 152.7 C 270.48 151.15 273.21 148.81 273.21 146.44 Z M 236.83 146.44 C 236.83 148.71 239.39 150.99 243.68 152.54 L 243.19 153.88 C 238.24 152.09 235.4 149.38 235.4 146.44 C 235.4 143.5 238.24 140.78 243.19 138.99 L 243.68 140.34 C 239.39 141.89 236.83 144.17 236.83 146.44 Z M 244.08 158.93 L 237.44 165.57 L 242.86 165.57 L 242.86 167 L 235.71 167 C 235.32 167 235 166.68 235 166.29 L 235 159.14 L 236.43 159.14 L 236.43 164.56 L 243.07 157.92 Z M 255 140.78 C 249.9 140.78 247.14 139.46 247.14 138.92 C 247.14 138.38 249.9 137.06 255 137.06 C 260.1 137.06 262.86 138.38 262.86 138.92 C 262.86 139.46 260.1 140.78 255 140.78 Z M 255.02 146.31 C 250.13 146.31 247.14 144.97 247.14 144.25 L 247.14 140.77 C 248.9 141.75 252.02 142.2 255 142.2 C 257.98 142.2 261.1 141.75 262.86 140.77 L 262.86 144.25 C 262.86 144.97 259.88 146.31 255.02 146.31 Z M 255.02 151.76 C 250.13 151.76 247.14 150.43 247.14 149.7 L 247.14 146.19 C 248.88 147.21 251.96 147.74 255.02 147.74 C 258.07 147.74 261.13 147.21 262.86 146.19 L 262.86 149.7 C 262.86 150.43 259.88 151.76 255.02 151.76 Z M 255 156.66 C 249.92 156.66 247.14 155.29 247.14 154.59 L 247.14 151.64 C 248.88 152.66 251.96 153.19 255.02 153.19 C 258.07 153.19 261.13 152.66 262.86 151.65 L 262.86 154.59 C 262.86 155.29 260.08 156.66 255 156.66 Z M 255 135.63 C 250.53 135.63 245.71 136.66 245.71 138.92 L 245.71 154.59 C 245.71 156.88 250.39 158.08 255 158.08 C 259.61 158.08 264.29 156.88 264.29 154.59 L 264.29 138.92 C 264.29 136.66 259.47 135.63 255 135.63 Z" fill="#ffffff" stroke="none" pointer-events="all" style="fill: light-dark(rgb(255, 255, 255), rgb(18, 18, 18));"/></g></g><g data-cell-id="proxy_l"><g transform="translate(0.5,0.5)"><rect x="200" y="180" width="110" height="28" fill="none" stroke="none" pointer-events="all"/></g><g><g><switch><foreignObject style="overflow: visible; text-align: left;" pointer-events="none" width="100%" height="100%" requiredFeatures="http://www.w3.org/TR/SVG11/feature#Extensibility"><div xmlns="http://www.w3.org/1999/xhtml" style="display: flex; align-items: unsafe center; justify-content: unsafe center; width: 108px; height: 1px; padding-top: 194px; margin-left: 201px;"><div style="box-sizing: border-box; font-size: 0; text-align: center; color: #232F3E; "><div style="display: inline-block; font-size: 9px; font-family: Helvetica; color: light-dark(#232F3E, #bdc7d4); line-height: 1.2; pointer-events: all; font-weight: bold; white-space: normal; word-wrap: normal; ">RDS Proxy</div></div></div></foreignObject><text x="255" y="197" fill="#232F3E" font-family="Helvetica" font-size="9px" text-anchor="middle" font-weight="bold">RDS Proxy</text></switch></g></g></g><g data-cell-id="az1"><g transform="translate(0.5,0.5)"><path d="M 400 72 L 450 72 L 450 122 L 400 122 Z" fill="#3b48cc" stroke="none" pointer-events="all" style="fill: light-dark(rgb(59, 72, 204), rgb(152, 163, 255));"/><path d="M 407.44 78.43 L 414.08 85.07 L 413.07 86.08 L 406.43 79.44 L 406.43 84.86 L 405 84.86 L 405 77.71 C 405 77.32 405.32 77 405.71 77 L 412.86 77 L 412.86 78.43 Z M 445 77.71 L 445 84.86 L 443.57 84.86 L 443.57 79.44 L 436.93 86.08 L 435.92 85.07 L 442.56 78.43 L 437.14 78.43 L 437.14 77 L 444.29 77 C 444.68 77 445 77.32 445 77.71 Z M 443.57 109.14 L 445 109.14 L 445 116.29 C 445 116.68 444.68 117 444.29 117 L 437.14 117 L 437.14 115.57 L 442.56 115.57 L 435.92 108.93 L 436.93 107.92 L 443.57 114.56 Z M 443.21 96.44 C 443.21 94.07 440.48 91.72 435.89 90.17 L 436.35 88.82 C 441.62 90.6 444.64 93.38 444.64 96.44 C 444.64 99.5 441.62 102.27 436.35 104.06 L 435.89 102.7 C 440.48 101.15 443.21 98.81 443.21 96.44 Z M 406.83 96.44 C 406.83 98.71 409.39 100.99 413.68 102.54 L 413.19 103.88 C 408.24 102.09 405.4 99.38 405.4 96.44 C 405.4 93.5 408.24 90.78 413.19 88.99 L 413.68 90.34 C 409.39 91.89 406.83 94.17 406.83 96.44 Z M 414.08 108.93 L 407.44 115.57 L 412.86 115.57 L 412.86 117 L 405.71 117 C 405.32 117 405 116.68 405 116.29 L 405 109.14 L 406.43 109.14 L 406.43 114.56 L 413.07 107.92 Z M 425 90.78 C 419.9 90.78 417.14 89.46 417.14 88.92 C 417.14 88.38 419.9 87.06 425 87.06 C 430.1 87.06 432.86 88.38 432.86 88.92 C 432.86 89.46 430.1 90.78 425 90.78 Z M 425.02 96.31 C 420.13 96.31 417.14 94.97 417.14 94.25 L 417.14 90.77 C 418.9 91.75 422.02 92.2 425 92.2 C 427.98 92.2 431.1 91.75 432.86 90.77 L 432.86 94.25 C 432.86 94.97 429.88 96.31 425.02 96.31 Z M 425.02 101.76 C 420.13 101.76 417.14 100.43 417.14 99.7 L 417.14 96.19 C 418.88 97.21 421.96 97.74 425.02 97.74 C 428.07 97.74 431.13 97.21 432.86 96.19 L 432.86 99.7 C 432.86 100.43 429.88 101.76 425.02 101.76 Z M 425 106.66 C 419.92 106.66 417.14 105.29 417.14 104.59 L 417.14 101.64 C 418.88 102.66 421.96 103.19 425.02 103.19 C 428.07 103.19 431.13 102.66 432.86 101.64 L 432.86 104.59 C 432.86 105.29 430.08 106.66 425 106.66 Z M 425 85.63 C 420.53 85.63 415.71 86.66 415.71 88.92 L 415.71 104.59 C 415.71 106.88 420.39 108.08 425 108.08 C 429.61 108.08 434.29 106.88 434.29 104.59 L 434.29 88.92 C 434.29 86.66 429.47 85.63 425 85.63 Z" fill="#ffffff" stroke="none" pointer-events="all" style="fill: light-dark(rgb(255, 255, 255), rgb(18, 18, 18));"/></g></g><g data-cell-id="az1_l"><g transform="translate(0.5,0.5)"><rect x="350" y="130" width="150" height="28" fill="none" stroke="none" pointer-events="all"/></g><g><g><switch><foreignObject style="overflow: visible; text-align: left;" pointer-events="none" width="100%" height="100%" requiredFeatures="http://www.w3.org/TR/SVG11/feature#Extensibility"><div xmlns="http://www.w3.org/1999/xhtml" style="display: flex; align-items: unsafe center; justify-content: unsafe center; width: 148px; height: 1px; padding-top: 144px; margin-left: 351px;"><div style="box-sizing: border-box; font-size: 0; text-align: center; color: #232F3E; "><div style="display: inline-block; font-size: 9px; font-family: Helvetica; color: light-dark(#232F3E, #bdc7d4); line-height: 1.2; pointer-events: all; font-weight: bold; white-space: normal; word-wrap: normal; ">RDS MySQL<br />Primary (AZ-a)</div></div></div></foreignObject><text x="425" y="147" fill="#232F3E" font-family="Helvetica" font-size="9px" text-anchor="middle" font-weight="bold">RDS MySQL...</text></switch></g></g></g><g data-cell-id="az2"><g transform="translate(0.5,0.5)"><path d="M 400 212 L 450 212 L 450 262 L 400 262 Z" fill="#3b48cc" stroke="none" pointer-events="all" style="fill: light-dark(rgb(59, 72, 204), rgb(152, 163, 255));"/><path d="M 407.44 218.43 L 414.08 225.07 L 413.07 226.08 L 406.43 219.44 L 406.43 224.86 L 405 224.86 L 405 217.71 C 405 217.32 405.32 217 405.71 217 L 412.86 217 L 412.86 218.43 Z M 445 217.71 L 445 224.86 L 443.57 224.86 L 443.57 219.44 L 436.93 226.08 L 435.92 225.07 L 442.56 218.43 L 437.14 218.43 L 437.14 217 L 444.29 217 C 444.68 217 445 217.32 445 217.71 Z M 443.57 249.14 L 445 249.14 L 445 256.29 C 445 256.68 444.68 257 444.29 257 L 437.14 257 L 437.14 255.57 L 442.56 255.57 L 435.92 248.93 L 436.93 247.92 L 443.57 254.56 Z M 443.21 236.44 C 443.21 234.07 440.48 231.72 435.89 230.17 L 436.35 228.82 C 441.62 230.6 444.64 233.38 444.64 236.44 C 444.64 239.5 441.62 242.27 436.35 244.06 L 435.89 242.7 C 440.48 241.15 443.21 238.81 443.21 236.44 Z M 406.83 236.44 C 406.83 238.71 409.39 240.99 413.68 242.54 L 413.19 243.88 C 408.24 242.09 405.4 239.38 405.4 236.44 C 405.4 233.5 408.24 230.78 413.19 228.99 L 413.68 230.34 C 409.39 231.89 406.83 234.17 406.83 236.44 Z M 414.08 248.93 L 407.44 255.57 L 412.86 255.57 L 412.86 257 L 405.71 257 C 405.32 257 405 256.68 405 256.29 L 405 249.14 L 406.43 249.14 L 406.43 254.56 L 413.07 247.92 Z M 425 230.78 C 419.9 230.78 417.14 229.46 417.14 228.92 C 417.14 228.38 419.9 227.06 425 227.06 C 430.1 227.06 432.86 228.38 432.86 228.92 C 432.86 229.46 430.1 230.78 425 230.78 Z M 425.02 236.31 C 420.13 236.31 417.14 234.97 417.14 234.25 L 417.14 230.77 C 418.9 231.75 422.02 232.2 425 232.2 C 427.98 232.2 431.1 231.75 432.86 230.77 L 432.86 234.25 C 432.86 234.97 429.88 236.31 425.02 236.31 Z M 425.02 241.76 C 420.13 241.76 417.14 240.43 417.14 239.7 L 417.14 236.19 C 418.88 237.21 421.96 237.74 425.02 237.74 C 428.07 237.74 431.13 237.21 432.86 236.19 L 432.86 239.7 C 432.86 240.43 429.88 241.76 425.02 241.76 Z M 425 246.66 C 419.92 246.66 417.14 245.29 417.14 244.59 L 417.14 241.64 C 418.88 242.66 421.96 243.19 425.02 243.19 C 428.07 243.19 431.13 242.66 432.86 241.65 L 432.86 244.59 C 432.86 245.29 430.08 246.66 425 246.66 Z M 425 225.63 C 420.53 225.63 415.71 226.66 415.71 228.92 L 415.71 244.59 C 415.71 246.88 420.39 248.08 425 248.08 C 429.61 248.08 434.29 246.88 434.29 244.59 L 434.29 228.92 C 434.29 226.66 429.47 225.63 425 225.63 Z" fill="#ffffff" stroke="none" pointer-events="all" style="fill: light-dark(rgb(255, 255, 255), rgb(18, 18, 18));"/></g></g><g data-cell-id="az2_l"><g transform="translate(0.5,0.5)"><rect x="350" y="270" width="150" height="28" fill="none" stroke="none" pointer-events="all"/></g><g><g><switch><foreignObject style="overflow: visible; text-align: left;" pointer-events="none" width="100%" height="100%" requiredFeatures="http://www.w3.org/TR/SVG11/feature#Extensibility"><div xmlns="http://www.w3.org/1999/xhtml" style="display: flex; align-items: unsafe center; justify-content: unsafe center; width: 148px; height: 1px; padding-top: 284px; margin-left: 351px;"><div style="box-sizing: border-box; font-size: 0; text-align: center; color: #232F3E; "><div style="display: inline-block; font-size: 9px; font-family: Helvetica; color: light-dark(#232F3E, #bdc7d4); line-height: 1.2; pointer-events: all; font-weight: bold; white-space: normal; word-wrap: normal; ">RDS MySQL<br />Standby (AZ-b)</div></div></div></foreignObject><text x="425" y="287" fill="#232F3E" font-family="Helvetica" font-size="9px" text-anchor="middle" font-weight="bold">RDS MySQL...</text></switch></g></g></g><g data-cell-id="p1"><g><path d="M 110 147 L 221.76 147" fill="none" stroke="#ff9900" stroke-width="2" stroke-miterlimit="10" pointer-events="stroke" style="stroke: light-dark(rgb(255, 153, 0), rgb(175, 87, 0));"/><path d="M 227.76 147 L 219.76 151 L 221.76 147 L 219.76 143 Z" fill="#ff9900" stroke="#ff9900" stroke-width="2" stroke-miterlimit="10" pointer-events="all" style="fill: light-dark(rgb(255, 153, 0), rgb(175, 87, 0)); stroke: light-dark(rgb(255, 153, 0), rgb(175, 87, 0));"/></g><g data-cell-id="p1_l"><g><g><switch><foreignObject style="overflow: visible; text-align: left;" pointer-events="none" width="100%" height="100%" requiredFeatures="http://www.w3.org/TR/SVG11/feature#Extensibility"><div xmlns="http://www.w3.org/1999/xhtml" style="display: flex; align-items: unsafe center; justify-content: unsafe center; width: 1px; height: 1px; padding-top: 148px; margin-left: 168px;"><div style="box-sizing: border-box; font-size: 0; text-align: center; color: #FF9900; background-color: #FFFFFF; "><div style="display: inline-block; font-size: 9px; font-family: Helvetica; color: light-dark(#FF9900, #af5700); line-height: 1.2; pointer-events: all; background-color: light-dark(#FFFFFF, #121212); white-space: nowrap; ">Endpoint = Proxy</div></div></div></foreignObject><text x="168" y="150" fill="#FF9900" font-family="Helvetica" font-size="9px" text-anchor="middle">Endpoint = Proxy</text></switch></g></g></g></g><g data-cell-id="p2"><g><path d="M 280 139.65 L 392.1 106.68" fill="none" stroke="#e7157b" stroke-width="2" stroke-miterlimit="10" pointer-events="stroke" style="stroke: light-dark(rgb(231, 21, 123), rgb(255, 129, 217));"/><path d="M 397.85 104.98 L 391.31 111.08 L 392.1 106.68 L 389.05 103.4 Z" fill="#e7157b" stroke="#e7157b" stroke-width="2" stroke-miterlimit="10" pointer-events="all" style="fill: light-dark(rgb(231, 21, 123), rgb(255, 129, 217)); stroke: light-dark(rgb(231, 21, 123), rgb(255, 129, 217));"/></g><g data-cell-id="p2_l"><g><g><switch><foreignObject style="overflow: visible; text-align: left;" pointer-events="none" width="100%" height="100%" requiredFeatures="http://www.w3.org/TR/SVG11/feature#Extensibility"><div xmlns="http://www.w3.org/1999/xhtml" style="display: flex; align-items: unsafe center; justify-content: unsafe center; width: 1px; height: 1px; padding-top: 123px; margin-left: 337px;"><div style="box-sizing: border-box; font-size: 0; text-align: center; color: #E7157B; background-color: #FFFFFF; "><div style="display: inline-block; font-size: 9px; font-family: Helvetica; color: light-dark(#E7157B, #ff81d9); line-height: 1.2; pointer-events: all; background-color: light-dark(#FFFFFF, #121212); white-space: nowrap; ">Active</div></div></div></foreignObject><text x="337" y="126" fill="#E7157B" font-family="Helvetica" font-size="9px" text-anchor="middle">Active</text></switch></g></g></g></g><g data-cell-id="p3"><g><path d="M 280 160.24 L 392.72 219.91" fill="none" stroke="#e7157b" stroke-width="2" stroke-miterlimit="10" stroke-dasharray="6 6" pointer-events="stroke" style="stroke: light-dark(rgb(231, 21, 123), rgb(255, 129, 217));"/><path d="M 398.02 222.72 L 389.08 222.51 L 392.72 219.91 L 392.83 215.44 Z" fill="#e7157b" stroke="#e7157b" stroke-width="2" stroke-miterlimit="10" pointer-events="all" style="fill: light-dark(rgb(231, 21, 123), rgb(255, 129, 217)); stroke: light-dark(rgb(231, 21, 123), rgb(255, 129, 217));"/></g><g data-cell-id="p3_l"><g><g><switch><foreignObject style="overflow: visible; text-align: left;" pointer-events="none" width="100%" height="100%" requiredFeatures="http://www.w3.org/TR/SVG11/feature#Extensibility"><div xmlns="http://www.w3.org/1999/xhtml" style="display: flex; align-items: unsafe center; justify-content: unsafe center; width: 1px; height: 1px; padding-top: 191px; margin-left: 337px;"><div style="box-sizing: border-box; font-size: 0; text-align: center; color: #E7157B; background-color: #FFFFFF; "><div style="display: inline-block; font-size: 9px; font-family: Helvetica; color: light-dark(#E7157B, #ff81d9); line-height: 1.2; pointer-events: all; background-color: light-dark(#FFFFFF, #121212); white-space: nowrap; ">Failover 時</div></div></div></foreignObject><text x="337" y="193" fill="#E7157B" font-family="Helvetica" font-size="9px" text-anchor="middle">Failover 時</text></switch></g></g></g></g><g data-cell-id="repl"><g><path d="M 425 122 L 425 203.76" fill="none" stroke="#3b48cc" stroke-width="2" stroke-miterlimit="10" stroke-dasharray="6 6" pointer-events="stroke" style="stroke: light-dark(rgb(59, 72, 204), rgb(152, 163, 255));"/><path d="M 425 209.76 L 421 201.76 L 425 203.76 L 429 201.76 Z" fill="#3b48cc" stroke="#3b48cc" stroke-width="2" stroke-miterlimit="10" pointer-events="all" style="fill: light-dark(rgb(59, 72, 204), rgb(152, 163, 255)); stroke: light-dark(rgb(59, 72, 204), rgb(152, 163, 255));"/></g><g data-cell-id="repl_l"><g><g><switch><foreignObject style="overflow: visible; text-align: left;" pointer-events="none" width="100%" height="100%" requiredFeatures="http://www.w3.org/TR/SVG11/feature#Extensibility"><div xmlns="http://www.w3.org/1999/xhtml" style="display: flex; align-items: unsafe center; justify-content: unsafe center; width: 1px; height: 1px; padding-top: 166px; margin-left: 426px;"><div style="box-sizing: border-box; font-size: 0; text-align: center; color: #3B48CC; background-color: #FFFFFF; "><div style="display: inline-block; font-size: 9px; font-family: Helvetica; color: light-dark(#3B48CC, #98a3ff); line-height: 1.2; pointer-events: all; background-color: light-dark(#FFFFFF, #121212); white-space: nowrap; ">同期レプリ</div></div></div></foreignObject><text x="426" y="168" fill="#3B48CC" font-family="Helvetica" font-size="9px" text-anchor="middle">同期レプリ</text></switch></g></g></g></g><g data-cell-id="n1"><g transform="translate(0.5,0.5)"><rect x="40" y="292" width="920" height="240" fill="none" stroke="none" pointer-events="all"/></g><g><g><switch><foreignObject style="overflow: visible; text-align: left;" pointer-events="none" width="100%" height="100%" requiredFeatures="http://www.w3.org/TR/SVG11/feature#Extensibility"><div xmlns="http://www.w3.org/1999/xhtml" style="display: flex; align-items: unsafe flex-start; justify-content: unsafe flex-start; width: 918px; height: 1px; padding-top: 299px; margin-left: 42px;"><div style="box-sizing: border-box; font-size: 0; text-align: left; color: #3B48CC; "><div style="display: inline-block; font-size: 10px; font-family: Helvetica; color: light-dark(#3B48CC, #98a3ff); line-height: 1.2; pointer-events: all; white-space: normal; word-wrap: normal; ">【問題】Multi-AZ フェイルオーバー後に接続切断 → アプリ再起動が必要<br /><br />【原因】アプリがRDSエンドポイント (DNS) を直接使用 → フェイルオーバー後のDNS切替を<br />           持続接続プールが追従できない<br /><br />【正解Bの仕組み】<br />・RDS Proxy が接続プールを管理<br />・フェイルオーバー時、Proxy が新Primary に接続を振り直す<br />・アプリから見るとエンドポイントは不変 → 再起動不要<br /><br />❌ A: Aurora Serverless v1 への全面移行は大掛かり ／ Readerエンドポイントは書込不可<br />❌ C: Auroraクラスタへの移行もオーバースペック<br />❌ D: S3→Athenaは分析用途、RDSワークロード非互換</div></div></div></foreignObject><text x="42" y="309" fill="#3B48CC" font-family="Helvetica" font-size="10px">【問題】Multi-AZ フェイルオーバー後に接続切断 → アプリ再起動が必要...</text></switch></g></g></g></g></g></g><switch><g requiredFeatures="http://www.w3.org/TR/SVG11/feature#Extensibility"/><a transform="translate(0,-5)" xlink:href="https://www.drawio.com/doc/faq/svg-export-text-problems" target="_blank"><text text-anchor="middle" font-size="10px" x="50%" y="100%">Text is not SVG - cannot display</text></a></switch></svg>