<?xml version="1.0" encoding="UTF-8"?>
<!DOCTYPE svg PUBLIC "-//W3C//DTD SVG 1.1//EN" "http://www.w3.org/Graphics/SVG/1.1/DTD/svg11.dtd">
<svg xmlns="http://www.w3.org/2000/svg" style="background: transparent; background-color: transparent; color-scheme: light;" xmlns:xlink="http://www.w3.org/1999/xlink" version="1.1" width="1001px" height="642px" viewBox="0 0 1001 642"><defs/><g><g data-cell-id="0"><g data-cell-id="1"><g data-cell-id="title"><g transform="translate(0.5,0.5)"><rect x="0" y="0" width="1000" height="30" fill="none" stroke="none" pointer-events="all"/></g><g><g><switch><foreignObject style="overflow: visible; text-align: left;" pointer-events="none" width="100%" height="100%" requiredFeatures="http://www.w3.org/TR/SVG11/feature#Extensibility"><div xmlns="http://www.w3.org/1999/xhtml" style="display: flex; align-items: unsafe center; justify-content: unsafe center; width: 998px; height: 1px; padding-top: 15px; margin-left: 1px;"><div style="box-sizing: border-box; font-size: 0; text-align: center; color: #232F3E; "><div style="display: inline-block; font-size: 18px; font-family: Helvetica; color: light-dark(#232F3E, #bdc7d4); line-height: 1.2; pointer-events: all; font-weight: bold; white-space: normal; word-wrap: normal; ">UDEMY-188: CloudFormation StackSets (組織サービスマネージド + 自動デプロイ)</div></div></div></foreignObject><text x="500" y="20" fill="#232F3E" font-family="Helvetica" font-size="18px" text-anchor="middle" font-weight="bold">UDEMY-188: CloudFormation StackSets (組織サービスマネージド + 自動デプロイ)</text></switch></g></g></g><g data-cell-id="mgmt"><g><rect x="40" y="50" width="920" height="180" rx="27" ry="27" fill="#ebf1ff" stroke="#3b48cc" stroke-width="2" pointer-events="all" style="fill: light-dark(rgb(235, 241, 255), rgb(25, 30, 42)); stroke: light-dark(rgb(59, 72, 204), rgb(152, 163, 255));"/></g><g><g><switch><foreignObject style="overflow: visible; text-align: left;" pointer-events="none" width="100%" height="100%" requiredFeatures="http://www.w3.org/TR/SVG11/feature#Extensibility"><div xmlns="http://www.w3.org/1999/xhtml" style="display: flex; align-items: unsafe flex-start; justify-content: unsafe center; width: 918px; height: 1px; padding-top: 63px; margin-left: 41px;"><div style="box-sizing: border-box; font-size: 0; text-align: center; color: #232F3E; "><div style="display: inline-block; font-size: 12px; font-family: Helvetica; color: light-dark(#232F3E, #bdc7d4); line-height: 1.2; pointer-events: all; font-weight: bold; white-space: normal; word-wrap: normal; ">Management Account</div></div></div></foreignObject><text x="500" y="75" fill="#232F3E" font-family="Helvetica" font-size="12px" text-anchor="middle" font-weight="bold">Management Account</text></switch></g></g></g><g data-cell-id="org"><g transform="translate(0.5,0.5)"><path d="M 80 70 L 130 70 L 130 120 L 80 120 Z" fill="#dd344c" stroke="none" pointer-events="all" style="fill: light-dark(rgb(221, 52, 76), rgb(255, 127, 147));"/><path d="M 116.99 113.4 L 116.99 107.01 L 123.38 107.01 L 123.38 113.4 Z M 101.8 113.4 L 101.8 107.01 L 108.2 107.01 L 108.2 113.4 Z M 86.62 113.4 L 86.62 107.01 L 93.01 107.01 L 93.01 113.4 Z M 124.18 105.41 L 120.99 105.41 L 120.99 101.41 C 120.99 100.97 120.63 100.61 120.19 100.61 L 105.8 100.61 L 105.8 98.22 L 104.2 98.22 L 104.2 100.61 L 89.81 100.61 C 89.37 100.61 89.01 100.97 89.01 101.41 L 89.01 105.41 L 85.82 105.41 C 85.38 105.41 85.02 105.77 85.02 106.21 L 85.02 114.2 C 85.02 114.64 85.38 115 85.82 115 L 93.81 115 C 94.25 115 94.61 114.64 94.61 114.2 L 94.61 106.21 C 94.61 105.77 94.25 105.41 93.81 105.41 L 90.61 105.41 L 90.61 102.21 L 104.2 102.21 L 104.2 105.41 L 101 105.41 C 100.56 105.41 100.2 105.77 100.2 106.21 L 100.2 114.2 C 100.2 114.64 100.56 115 101 115 L 109 115 C 109.44 115 109.8 114.64 109.8 114.2 L 109.8 106.21 C 109.8 105.77 109.44 105.41 109 105.41 L 105.8 105.41 L 105.8 102.21 L 119.39 102.21 L 119.39 105.41 L 116.19 105.41 C 115.75 105.41 115.39 105.77 115.39 106.21 L 115.39 114.2 C 115.39 114.64 115.75 115 116.19 115 L 124.18 115 C 124.62 115 124.98 114.64 124.98 114.2 L 124.98 106.21 C 124.98 105.77 124.62 105.41 124.18 105.41 Z M 105 76.76 L 112.19 80.91 L 105 85.06 L 97.81 80.91 Z M 105.8 94.76 L 105.8 86.45 L 112.99 82.3 L 112.99 90.6 Z M 97.01 82.3 L 104.2 86.45 L 104.2 94.76 L 97.01 90.6 Z M 95.81 91.76 L 104.6 96.83 C 104.72 96.9 104.86 96.94 105 96.94 C 105.14 96.94 105.28 96.9 105.4 96.83 L 114.19 91.76 C 114.44 91.61 114.59 91.35 114.59 91.06 L 114.59 80.91 C 114.59 80.63 114.44 80.36 114.19 80.22 L 105.4 75.14 C 105.15 75 104.85 75 104.6 75.14 L 95.81 80.22 C 95.56 80.36 95.41 80.63 95.41 80.91 L 95.41 91.06 C 95.41 91.35 95.56 91.61 95.81 91.76 Z" fill="#ffffff" stroke="none" pointer-events="all" style="fill: light-dark(rgb(255, 255, 255), rgb(18, 18, 18));"/></g></g><g data-cell-id="org_l"><g transform="translate(0.5,0.5)"><rect x="60" y="125" width="130" height="15" fill="none" stroke="none" pointer-events="all"/></g><g><g><switch><foreignObject style="overflow: visible; text-align: left;" pointer-events="none" width="100%" height="100%" requiredFeatures="http://www.w3.org/TR/SVG11/feature#Extensibility"><div xmlns="http://www.w3.org/1999/xhtml" style="display: flex; align-items: unsafe center; justify-content: unsafe center; width: 128px; height: 1px; padding-top: 133px; margin-left: 61px;"><div style="box-sizing: border-box; font-size: 0; text-align: center; color: #232F3E; "><div style="display: inline-block; font-size: 10px; font-family: Helvetica; color: light-dark(#232F3E, #bdc7d4); line-height: 1.2; pointer-events: all; font-weight: bold; white-space: normal; word-wrap: normal; ">Organizations</div></div></div></foreignObject><text x="125" y="136" fill="#232F3E" font-family="Helvetica" font-size="10px" text-anchor="middle" font-weight="bold">Organizations</text></switch></g></g></g><g data-cell-id="ta"><g transform="translate(0.5,0.5)"><rect x="55" y="145" width="140" height="80" fill="none" stroke="none" pointer-events="all"/></g><g><g><switch><foreignObject style="overflow: visible; text-align: left;" pointer-events="none" width="100%" height="100%" requiredFeatures="http://www.w3.org/TR/SVG11/feature#Extensibility"><div xmlns="http://www.w3.org/1999/xhtml" style="display: flex; align-items: unsafe center; justify-content: unsafe center; width: 138px; height: 1px; padding-top: 185px; margin-left: 56px;"><div style="box-sizing: border-box; font-size: 0; text-align: center; color: #232F3E; "><div style="display: inline-block; font-size: 9px; font-family: Helvetica; color: light-dark(#232F3E, #bdc7d4); line-height: 1.2; pointer-events: all; white-space: normal; word-wrap: normal; ">「信頼されたアクセス」有効<br />(StackSets と統合)</div></div></div></foreignObject><text x="125" y="188" fill="#232F3E" font-family="Helvetica" font-size="9px" text-anchor="middle">「信頼されたアクセス」有効&#xa;(StackSets と統合)</text></switch></g></g></g><g data-cell-id="ss"><g transform="translate(0.5,0.5)"><path d="M 240 70 L 290 70 L 290 120 L 240 120 Z" fill="#dd344c" stroke="none" pointer-events="all" style="fill: light-dark(rgb(221, 52, 76), rgb(255, 127, 147));"/><path d="M 254.29 104.31 L 257.14 104.31 L 257.14 102.88 L 254.29 102.88 Z M 279.26 93.71 C 279.1 91.54 278.04 89.94 276.36 89.38 C 275 88.93 273.51 89.25 272.37 90.17 C 271.68 88.81 270.64 87.48 269.79 86.64 C 266.72 83.61 263.33 82.84 259.73 84.34 C 256.5 85.68 253.57 90.08 253.57 93.58 L 253.57 93.72 C 251.64 94.37 250.08 95.79 249.34 97.6 L 250.66 98.14 C 251.6 95.83 253.81 95.11 254.46 94.94 C 254.78 94.86 255 94.58 255 94.25 L 255 93.58 C 255 90.69 257.61 86.77 260.27 85.66 C 263.34 84.38 266.13 85.03 268.78 87.65 C 269.91 88.77 271.02 90.42 271.47 91.68 C 271.56 91.93 271.78 92.1 272.04 92.14 C 272.29 92.18 272.56 92.08 272.71 91.86 C 273.5 90.81 274.78 90.36 275.91 90.74 C 277.15 91.15 277.86 92.45 277.86 94.3 C 277.86 94.64 278.11 94.94 278.45 95 C 278.98 95.09 283.57 95.99 283.57 100.73 C 283.57 105.64 278.77 105.73 278.57 105.73 L 262.14 105.73 L 262.14 107.16 L 278.57 107.16 C 280.8 107.16 285 105.81 285 100.73 C 285 96.3 281.63 94.3 279.26 93.71 Z M 258.57 104.31 L 268.57 104.31 L 268.57 102.88 L 258.57 102.88 Z M 255.71 107.16 L 260 107.16 L 260 105.73 L 255.71 105.73 Z M 245 107.16 L 247.14 107.16 L 247.14 105.73 L 245 105.73 Z M 247.14 101.44 L 253.57 101.44 L 253.57 100.02 L 247.14 100.02 Z M 245.71 104.31 L 252.86 104.31 L 252.86 102.88 L 245.71 102.88 Z M 255.71 101.44 L 260.71 101.44 L 260.71 100.02 L 255.71 100.02 Z M 248.57 107.16 L 254.29 107.16 L 254.29 105.73 L 248.57 105.73 Z" fill="#ffffff" stroke="none" pointer-events="all" style="fill: light-dark(rgb(255, 255, 255), rgb(18, 18, 18));"/></g></g><g data-cell-id="ss_l"><g transform="translate(0.5,0.5)"><rect x="210" y="125" width="180" height="15" fill="none" stroke="none" pointer-events="all"/></g><g><g><switch><foreignObject style="overflow: visible; text-align: left;" pointer-events="none" width="100%" height="100%" requiredFeatures="http://www.w3.org/TR/SVG11/feature#Extensibility"><div xmlns="http://www.w3.org/1999/xhtml" style="display: flex; align-items: unsafe center; justify-content: unsafe center; width: 178px; height: 1px; padding-top: 133px; margin-left: 211px;"><div style="box-sizing: border-box; font-size: 0; text-align: center; color: #232F3E; "><div style="display: inline-block; font-size: 10px; font-family: Helvetica; color: light-dark(#232F3E, #bdc7d4); line-height: 1.2; pointer-events: all; font-weight: bold; white-space: normal; word-wrap: normal; ">CloudFormation StackSets</div></div></div></foreignObject><text x="300" y="136" fill="#232F3E" font-family="Helvetica" font-size="10px" text-anchor="middle" font-weight="bold">CloudFormation StackSets</text></switch></g></g></g><g data-cell-id="ss_d"><g transform="translate(0.5,0.5)"><rect x="210" y="145" width="200" height="80" fill="none" stroke="none" pointer-events="all"/></g><g><g><switch><foreignObject style="overflow: visible; text-align: left;" pointer-events="none" width="100%" height="100%" requiredFeatures="http://www.w3.org/TR/SVG11/feature#Extensibility"><div xmlns="http://www.w3.org/1999/xhtml" style="display: flex; align-items: unsafe center; justify-content: unsafe flex-start; width: 198px; height: 1px; padding-top: 185px; margin-left: 212px;"><div style="box-sizing: border-box; font-size: 0; text-align: left; color: #232F3E; "><div style="display: inline-block; font-size: 9px; font-family: Helvetica; color: light-dark(#232F3E, #bdc7d4); line-height: 1.2; pointer-events: all; white-space: normal; word-wrap: normal; ">・サービス管理の権限 (Org連携)<br />・自動デプロイ: 新アカウント作成時<br />  自動でスタックインスタンス展開<br />・OU を 対象に指定可能</div></div></div></foreignObject><text x="212" y="188" fill="#232F3E" font-family="Helvetica" font-size="9px">・サービス管理の権限 (Org連携)...</text></switch></g></g></g><g data-cell-id="tpl"><g transform="translate(0.5,0.5)"><path d="M 460 70 L 510 70 L 510 120 L 460 120 Z" fill="#3b48cc" stroke="none" pointer-events="all" style="fill: light-dark(rgb(59, 72, 204), rgb(152, 163, 255));"/><path d="M 474.29 104.31 L 477.14 104.31 L 477.14 102.88 L 474.29 102.88 Z M 499.26 93.71 C 499.1 91.54 498.04 89.94 496.36 89.38 C 495 88.93 493.51 89.25 492.37 90.17 C 491.68 88.81 490.64 87.48 489.79 86.64 C 486.72 83.61 483.33 82.84 479.73 84.34 C 476.5 85.68 473.57 90.08 473.57 93.58 L 473.57 93.72 C 471.64 94.37 470.08 95.79 469.34 97.6 L 470.66 98.14 C 471.6 95.83 473.81 95.11 474.46 94.94 C 474.78 94.86 475 94.58 475 94.25 L 475 93.58 C 475 90.69 477.61 86.77 480.27 85.66 C 483.34 84.38 486.13 85.03 488.78 87.65 C 489.91 88.77 491.02 90.42 491.47 91.68 C 491.56 91.93 491.78 92.1 492.04 92.14 C 492.29 92.18 492.56 92.08 492.71 91.86 C 493.5 90.81 494.78 90.36 495.91 90.74 C 497.15 91.15 497.86 92.45 497.86 94.3 C 497.86 94.64 498.11 94.94 498.45 95 C 498.98 95.09 503.57 95.99 503.57 100.73 C 503.57 105.64 498.77 105.73 498.57 105.73 L 482.14 105.73 L 482.14 107.16 L 498.57 107.16 C 500.8 107.16 505 105.81 505 100.73 C 505 96.3 501.63 94.3 499.26 93.71 Z M 478.57 104.31 L 488.57 104.31 L 488.57 102.88 L 478.57 102.88 Z M 475.71 107.16 L 480 107.16 L 480 105.73 L 475.71 105.73 Z M 465 107.16 L 467.14 107.16 L 467.14 105.73 L 465 105.73 Z M 467.14 101.44 L 473.57 101.44 L 473.57 100.02 L 467.14 100.02 Z M 465.71 104.31 L 472.86 104.31 L 472.86 102.88 L 465.71 102.88 Z M 475.71 101.44 L 480.71 101.44 L 480.71 100.02 L 475.71 100.02 Z M 468.57 107.16 L 474.29 107.16 L 474.29 105.73 L 468.57 105.73 Z" fill="#ffffff" stroke="none" pointer-events="all" style="fill: light-dark(rgb(255, 255, 255), rgb(18, 18, 18));"/></g></g><g data-cell-id="tpl_l"><g transform="translate(0.5,0.5)"><rect x="430" y="125" width="180" height="15" fill="none" stroke="none" pointer-events="all"/></g><g><g><switch><foreignObject style="overflow: visible; text-align: left;" pointer-events="none" width="100%" height="100%" requiredFeatures="http://www.w3.org/TR/SVG11/feature#Extensibility"><div xmlns="http://www.w3.org/1999/xhtml" style="display: flex; align-items: unsafe center; justify-content: unsafe center; width: 178px; height: 1px; padding-top: 133px; margin-left: 431px;"><div style="box-sizing: border-box; font-size: 0; text-align: center; color: #232F3E; "><div style="display: inline-block; font-size: 10px; font-family: Helvetica; color: light-dark(#232F3E, #bdc7d4); line-height: 1.2; pointer-events: all; font-weight: bold; white-space: normal; word-wrap: normal; ">CloudFormation Template</div></div></div></foreignObject><text x="520" y="136" fill="#232F3E" font-family="Helvetica" font-size="10px" text-anchor="middle" font-weight="bold">CloudFormation Template</text></switch></g></g></g><g data-cell-id="tpl_d"><g transform="translate(0.5,0.5)"><rect x="430" y="145" width="200" height="80" fill="none" stroke="none" pointer-events="all"/></g><g><g><switch><foreignObject style="overflow: visible; text-align: left;" pointer-events="none" width="100%" height="100%" requiredFeatures="http://www.w3.org/TR/SVG11/feature#Extensibility"><div xmlns="http://www.w3.org/1999/xhtml" style="display: flex; align-items: unsafe center; justify-content: unsafe flex-start; width: 198px; height: 1px; padding-top: 185px; margin-left: 432px;"><div style="box-sizing: border-box; font-size: 0; text-align: left; color: #232F3E; "><div style="display: inline-block; font-size: 9px; font-family: Helvetica; color: light-dark(#232F3E, #bdc7d4); line-height: 1.2; pointer-events: all; white-space: normal; word-wrap: normal; ">Resources:<br />  SecurityTopic:<br />    Type: AWS::SNS::Topic<br />  (サードパーティアラート連携)</div></div></div></foreignObject><text x="432" y="188" fill="#232F3E" font-family="Helvetica" font-size="9px">Resources:...</text></switch></g></g></g><g data-cell-id="tgt"><g transform="translate(0.5,0.5)"><path d="M 680 70 L 730 70 L 730 120 L 680 120 Z" fill="#dd344c" stroke="none" pointer-events="all" style="fill: light-dark(rgb(221, 52, 76), rgb(255, 127, 147));"/><path d="M 716.99 113.4 L 716.99 107.01 L 723.38 107.01 L 723.38 113.4 Z M 701.8 113.4 L 701.8 107.01 L 708.2 107.01 L 708.2 113.4 Z M 686.62 113.4 L 686.62 107.01 L 693.01 107.01 L 693.01 113.4 Z M 724.18 105.41 L 720.99 105.41 L 720.99 101.41 C 720.99 100.97 720.63 100.61 720.19 100.61 L 705.8 100.61 L 705.8 98.22 L 704.2 98.22 L 704.2 100.61 L 689.81 100.61 C 689.37 100.61 689.01 100.97 689.01 101.41 L 689.01 105.41 L 685.82 105.41 C 685.38 105.41 685.02 105.77 685.02 106.21 L 685.02 114.2 C 685.02 114.64 685.38 115 685.82 115 L 693.81 115 C 694.25 115 694.61 114.64 694.61 114.2 L 694.61 106.21 C 694.61 105.77 694.25 105.41 693.81 105.41 L 690.61 105.41 L 690.61 102.21 L 704.2 102.21 L 704.2 105.41 L 701 105.41 C 700.56 105.41 700.2 105.77 700.2 106.21 L 700.2 114.2 C 700.2 114.64 700.56 115 701 115 L 709 115 C 709.44 115 709.8 114.64 709.8 114.2 L 709.8 106.21 C 709.8 105.77 709.44 105.41 709 105.41 L 705.8 105.41 L 705.8 102.21 L 719.39 102.21 L 719.39 105.41 L 716.19 105.41 C 715.75 105.41 715.39 105.77 715.39 106.21 L 715.39 114.2 C 715.39 114.64 715.75 115 716.19 115 L 724.18 115 C 724.62 115 724.98 114.64 724.98 114.2 L 724.98 106.21 C 724.98 105.77 724.62 105.41 724.18 105.41 Z M 705 76.76 L 712.19 80.91 L 705 85.06 L 697.81 80.91 Z M 705.8 94.76 L 705.8 86.45 L 712.99 82.3 L 712.99 90.6 Z M 697.01 82.3 L 704.2 86.45 L 704.2 94.76 L 697.01 90.6 Z M 695.81 91.76 L 704.6 96.83 C 704.72 96.9 704.86 96.94 705 96.94 C 705.14 96.94 705.28 96.9 705.4 96.83 L 714.19 91.76 C 714.44 91.61 714.59 91.35 714.59 91.06 L 714.59 80.91 C 714.59 80.63 714.44 80.36 714.19 80.22 L 705.4 75.14 C 705.15 75 704.85 75 704.6 75.14 L 695.81 80.22 C 695.56 80.36 695.41 80.63 695.41 80.91 L 695.41 91.06 C 695.41 91.35 695.56 91.61 695.81 91.76 Z" fill="#ffffff" stroke="none" pointer-events="all" style="fill: light-dark(rgb(255, 255, 255), rgb(18, 18, 18));"/></g></g><g data-cell-id="tgt_l"><g transform="translate(0.5,0.5)"><rect x="660" y="125" width="150" height="15" fill="none" stroke="none" pointer-events="all"/></g><g><g><switch><foreignObject style="overflow: visible; text-align: left;" pointer-events="none" width="100%" height="100%" requiredFeatures="http://www.w3.org/TR/SVG11/feature#Extensibility"><div xmlns="http://www.w3.org/1999/xhtml" style="display: flex; align-items: unsafe center; justify-content: unsafe center; width: 148px; height: 1px; padding-top: 133px; margin-left: 661px;"><div style="box-sizing: border-box; font-size: 0; text-align: center; color: #232F3E; "><div style="display: inline-block; font-size: 10px; font-family: Helvetica; color: light-dark(#232F3E, #bdc7d4); line-height: 1.2; pointer-events: all; font-weight: bold; white-space: normal; word-wrap: normal; ">Deploy Target: OU</div></div></div></foreignObject><text x="735" y="136" fill="#232F3E" font-family="Helvetica" font-size="10px" text-anchor="middle" font-weight="bold">Deploy Target: OU</text></switch></g></g></g><g data-cell-id="tgt_d"><g transform="translate(0.5,0.5)"><rect x="660" y="145" width="230" height="80" fill="none" stroke="none" pointer-events="all"/></g><g><g><switch><foreignObject style="overflow: visible; text-align: left;" pointer-events="none" width="100%" height="100%" requiredFeatures="http://www.w3.org/TR/SVG11/feature#Extensibility"><div xmlns="http://www.w3.org/1999/xhtml" style="display: flex; align-items: unsafe center; justify-content: unsafe flex-start; width: 228px; height: 1px; padding-top: 185px; margin-left: 662px;"><div style="box-sizing: border-box; font-size: 0; text-align: left; color: #232F3E; "><div style="display: inline-block; font-size: 9px; font-family: Helvetica; color: light-dark(#232F3E, #bdc7d4); line-height: 1.2; pointer-events: all; white-space: normal; word-wrap: normal; ">Deploy Option:<br />  ・Organization へデプロイ<br />  ・自動デプロイ ON<br />  ・新規アカウントでも自動展開</div></div></div></foreignObject><text x="662" y="188" fill="#232F3E" font-family="Helvetica" font-size="9px">Deploy Option:...</text></switch></g></g></g><g data-cell-id="ar_ss"><g><path d="M 290 95 L 451.76 95" fill="none" stroke="#3b48cc" stroke-width="2" stroke-miterlimit="10" pointer-events="stroke" style="stroke: light-dark(rgb(59, 72, 204), rgb(152, 163, 255));"/><path d="M 457.76 95 L 449.76 99 L 451.76 95 L 449.76 91 Z" fill="#3b48cc" stroke="#3b48cc" stroke-width="2" stroke-miterlimit="10" pointer-events="all" style="fill: light-dark(rgb(59, 72, 204), rgb(152, 163, 255)); stroke: light-dark(rgb(59, 72, 204), rgb(152, 163, 255));"/></g></g><g data-cell-id="ar_tpl"><g><path d="M 510 95 L 671.76 95" fill="none" stroke="#ff9900" stroke-width="2" stroke-miterlimit="10" pointer-events="stroke" style="stroke: light-dark(rgb(255, 153, 0), rgb(175, 87, 0));"/><path d="M 677.76 95 L 669.76 99 L 671.76 95 L 669.76 91 Z" fill="#ff9900" stroke="#ff9900" stroke-width="2" stroke-miterlimit="10" pointer-events="all" style="fill: light-dark(rgb(255, 153, 0), rgb(175, 87, 0)); stroke: light-dark(rgb(255, 153, 0), rgb(175, 87, 0));"/></g></g><g data-cell-id="mem"><g><rect x="40" y="260" width="920" height="230" rx="34.5" ry="34.5" fill="#f0f8e8" stroke="#7aa116" stroke-width="2" pointer-events="all" style="fill: light-dark(rgb(240, 248, 232), rgb(22, 29, 15)); stroke: light-dark(rgb(122, 161, 22), rgb(97, 130, 11));"/></g><g><g><switch><foreignObject style="overflow: visible; text-align: left;" pointer-events="none" width="100%" height="100%" requiredFeatures="http://www.w3.org/TR/SVG11/feature#Extensibility"><div xmlns="http://www.w3.org/1999/xhtml" style="display: flex; align-items: unsafe flex-start; justify-content: unsafe center; width: 918px; height: 1px; padding-top: 273px; margin-left: 41px;"><div style="box-sizing: border-box; font-size: 0; text-align: center; color: #232F3E; "><div style="display: inline-block; font-size: 12px; font-family: Helvetica; color: light-dark(#232F3E, #bdc7d4); line-height: 1.2; pointer-events: all; font-weight: bold; white-space: normal; word-wrap: normal; ">組織配下 すべての メンバーアカウント (既存 + 新規)</div></div></div></foreignObject><text x="500" y="285" fill="#232F3E" font-family="Helvetica" font-size="12px" text-anchor="middle" font-weight="bold">組織配下 すべての メンバーアカウント (既存 + 新規)</text></switch></g></g></g><g data-cell-id="ma0"><g><rect x="80" y="300" width="200" height="70" rx="10.5" ry="10.5" fill="#ffffff" stroke="#7aa116" stroke-width="2" pointer-events="all" style="fill: light-dark(rgb(255, 255, 255), rgb(18, 18, 18)); stroke: light-dark(rgb(122, 161, 22), rgb(97, 130, 11));"/></g><g><g><switch><foreignObject style="overflow: visible; text-align: left;" pointer-events="none" width="100%" height="100%" requiredFeatures="http://www.w3.org/TR/SVG11/feature#Extensibility"><div xmlns="http://www.w3.org/1999/xhtml" style="display: flex; align-items: unsafe flex-start; justify-content: unsafe center; width: 198px; height: 1px; padding-top: 313px; margin-left: 81px;"><div style="box-sizing: border-box; font-size: 0; text-align: center; color: #232F3E; "><div style="display: inline-block; font-size: 9px; font-family: Helvetica; color: light-dark(#232F3E, #bdc7d4); line-height: 1.2; pointer-events: all; font-weight: bold; white-space: normal; word-wrap: normal; ">アカウント 1</div></div></div></foreignObject><text x="180" y="322" fill="#232F3E" font-family="Helvetica" font-size="9px" text-anchor="middle" font-weight="bold">アカウント 1</text></switch></g></g></g><g data-cell-id="sns0"><g transform="translate(0.5,0.5)"><path d="M 90 315 L 130 315 L 130 355 L 90 355 Z" fill="#dd344c" stroke="none" pointer-events="all" style="fill: light-dark(rgb(221, 52, 76), rgb(255, 127, 147));"/><path d="M 96.33 333.84 C 96.97 333.84 97.49 334.36 97.49 335 C 97.49 335.64 96.97 336.16 96.33 336.16 C 95.69 336.16 95.16 335.64 95.16 335 C 95.16 334.36 95.69 333.84 96.33 333.84 Z M 110.29 348.96 C 103.49 348.96 97.66 344 96.44 337.32 C 97.47 337.27 98.32 336.55 98.57 335.58 L 102.15 335.58 L 102.15 334.42 L 98.57 334.42 C 98.32 333.45 97.47 332.73 96.44 332.68 C 97.66 326.1 103.61 321.04 110.29 321.04 C 112.8 321.04 115.43 321.98 118.1 323.84 L 118.77 322.89 C 115.9 320.89 113.04 319.87 110.29 319.87 C 102.88 319.87 96.3 325.61 95.2 332.98 C 94.49 333.37 94 334.13 94 335 C 94 335.87 94.49 336.63 95.2 337.02 C 96.31 344.51 102.76 350.13 110.29 350.13 C 113.44 350.13 116.66 349.05 119.36 347.11 L 118.68 346.16 C 116.17 347.97 113.19 348.96 110.29 348.96 Z M 103.95 332.93 C 105.03 333.19 106.38 333.25 107.38 333.25 C 108.34 333.25 109.61 333.2 110.66 332.97 L 108.02 338.23 C 107.98 338.31 107.96 338.4 107.96 338.49 L 107.96 341.08 C 107.5 341.38 106.7 341.87 106.22 341.97 L 106.22 338.49 C 106.22 338.41 106.2 338.34 106.17 338.27 Z M 107.38 330.93 C 109.72 330.93 110.97 331.28 111.36 331.51 C 110.97 331.74 109.72 332.09 107.38 332.09 C 105.04 332.09 103.79 331.74 103.4 331.51 C 103.79 331.28 105.04 330.93 107.38 330.93 Z M 105.64 343.15 L 106.22 343.15 C 106.24 343.15 106.27 343.14 106.29 343.14 C 107 343.05 107.91 342.5 108.7 341.99 L 108.86 341.89 C 109.02 341.78 109.13 341.6 109.13 341.4 L 109.13 338.63 L 112.36 332.16 C 112.52 331.98 112.62 331.76 112.62 331.51 C 112.62 329.99 109.34 329.76 107.38 329.76 C 105.43 329.76 102.15 329.99 102.15 331.51 C 102.15 331.72 102.22 331.91 102.33 332.07 L 105.05 338.61 L 105.05 342.56 C 105.05 342.88 105.31 343.15 105.64 343.15 Z M 122.51 342.56 C 123.15 342.56 123.67 343.09 123.67 343.73 C 123.67 344.37 123.15 344.89 122.51 344.89 C 121.87 344.89 121.35 344.37 121.35 343.73 C 121.35 343.09 121.87 342.56 122.51 342.56 Z M 122.51 325.11 C 123.15 325.11 123.67 325.63 123.67 326.27 C 123.67 326.91 123.15 327.44 122.51 327.44 C 121.87 327.44 121.35 326.91 121.35 326.27 C 121.35 325.63 121.87 325.11 122.51 325.11 Z M 123.67 333.84 C 124.31 333.84 124.84 334.36 124.84 335 C 124.84 335.64 124.31 336.16 123.67 336.16 C 123.03 336.16 122.51 335.64 122.51 335 C 122.51 334.36 123.03 333.84 123.67 333.84 Z M 117.85 335.58 L 121.43 335.58 C 121.69 336.58 122.59 337.33 123.67 337.33 C 124.96 337.33 126 336.28 126 335 C 126 333.72 124.96 332.67 123.67 332.67 C 122.59 332.67 121.69 333.42 121.43 334.42 L 117.85 334.42 L 117.85 326.85 L 120.27 326.85 C 120.52 327.86 121.43 328.6 122.51 328.6 C 123.79 328.6 124.84 327.56 124.84 326.27 C 124.84 324.99 123.79 323.95 122.51 323.95 C 121.43 323.95 120.52 324.69 120.27 325.69 L 117.27 325.69 C 116.95 325.69 116.69 325.95 116.69 326.27 L 116.69 334.42 L 112.62 334.42 L 112.62 335.58 L 116.69 335.58 L 116.69 343.73 C 116.69 344.05 116.95 344.31 117.27 344.31 L 120.27 344.31 C 120.52 345.31 121.43 346.05 122.51 346.05 C 123.79 346.05 124.84 345.01 124.84 343.73 C 124.84 342.44 123.79 341.4 122.51 341.4 C 121.43 341.4 120.52 342.14 120.27 343.15 L 117.85 343.15 Z" fill="#ffffff" stroke="none" pointer-events="all" style="fill: light-dark(rgb(255, 255, 255), rgb(18, 18, 18));"/></g></g><g data-cell-id="sns0_l"><g transform="translate(0.5,0.5)"><rect x="135" y="325" width="140" height="30" fill="none" stroke="none" pointer-events="all"/></g><g><g><switch><foreignObject style="overflow: visible; text-align: left;" pointer-events="none" width="100%" height="100%" requiredFeatures="http://www.w3.org/TR/SVG11/feature#Extensibility"><div xmlns="http://www.w3.org/1999/xhtml" style="display: flex; align-items: unsafe center; justify-content: unsafe flex-start; width: 138px; height: 1px; padding-top: 340px; margin-left: 137px;"><div style="box-sizing: border-box; font-size: 0; text-align: left; color: #232F3E; "><div style="display: inline-block; font-size: 9px; font-family: Helvetica; color: light-dark(#232F3E, #bdc7d4); line-height: 1.2; pointer-events: all; white-space: normal; word-wrap: normal; ">SNS Topic<br />(スタックセット展開)</div></div></div></foreignObject><text x="137" y="343" fill="#232F3E" font-family="Helvetica" font-size="9px">SNS Topic...</text></switch></g></g></g><g data-cell-id="ma1"><g><rect x="300" y="300" width="200" height="70" rx="10.5" ry="10.5" fill="#ffffff" stroke="#7aa116" stroke-width="2" pointer-events="all" style="fill: light-dark(rgb(255, 255, 255), rgb(18, 18, 18)); stroke: light-dark(rgb(122, 161, 22), rgb(97, 130, 11));"/></g><g><g><switch><foreignObject style="overflow: visible; text-align: left;" pointer-events="none" width="100%" height="100%" requiredFeatures="http://www.w3.org/TR/SVG11/feature#Extensibility"><div xmlns="http://www.w3.org/1999/xhtml" style="display: flex; align-items: unsafe flex-start; justify-content: unsafe center; width: 198px; height: 1px; padding-top: 313px; margin-left: 301px;"><div style="box-sizing: border-box; font-size: 0; text-align: center; color: #232F3E; "><div style="display: inline-block; font-size: 9px; font-family: Helvetica; color: light-dark(#232F3E, #bdc7d4); line-height: 1.2; pointer-events: all; font-weight: bold; white-space: normal; word-wrap: normal; ">アカウント 2</div></div></div></foreignObject><text x="400" y="322" fill="#232F3E" font-family="Helvetica" font-size="9px" text-anchor="middle" font-weight="bold">アカウント 2</text></switch></g></g></g><g data-cell-id="sns1"><g transform="translate(0.5,0.5)"><path d="M 310 315 L 350 315 L 350 355 L 310 355 Z" fill="#dd344c" stroke="none" pointer-events="all" style="fill: light-dark(rgb(221, 52, 76), rgb(255, 127, 147));"/><path d="M 316.33 333.84 C 316.97 333.84 317.49 334.36 317.49 335 C 317.49 335.64 316.97 336.16 316.33 336.16 C 315.69 336.16 315.16 335.64 315.16 335 C 315.16 334.36 315.69 333.84 316.33 333.84 Z M 330.29 348.96 C 323.49 348.96 317.66 344 316.44 337.32 C 317.47 337.27 318.32 336.55 318.57 335.58 L 322.15 335.58 L 322.15 334.42 L 318.57 334.42 C 318.32 333.45 317.47 332.73 316.44 332.68 C 317.66 326.1 323.61 321.04 330.29 321.04 C 332.8 321.04 335.43 321.98 338.1 323.84 L 338.77 322.89 C 335.9 320.89 333.04 319.87 330.29 319.87 C 322.88 319.87 316.3 325.61 315.2 332.98 C 314.49 333.37 314 334.13 314 335 C 314 335.87 314.49 336.63 315.2 337.02 C 316.31 344.51 322.76 350.13 330.29 350.13 C 333.44 350.13 336.66 349.05 339.36 347.11 L 338.68 346.16 C 336.17 347.97 333.19 348.96 330.29 348.96 Z M 323.95 332.93 C 325.03 333.19 326.38 333.25 327.38 333.25 C 328.34 333.25 329.61 333.2 330.66 332.97 L 328.02 338.23 C 327.98 338.31 327.96 338.4 327.96 338.49 L 327.96 341.08 C 327.5 341.38 326.7 341.87 326.22 341.97 L 326.22 338.49 C 326.22 338.41 326.2 338.34 326.17 338.27 Z M 327.38 330.93 C 329.72 330.93 330.97 331.28 331.36 331.51 C 330.97 331.74 329.72 332.09 327.38 332.09 C 325.04 332.09 323.79 331.74 323.4 331.51 C 323.79 331.28 325.04 330.93 327.38 330.93 Z M 325.64 343.15 L 326.22 343.15 C 326.24 343.15 326.27 343.14 326.29 343.14 C 327 343.05 327.91 342.5 328.7 341.99 L 328.86 341.89 C 329.02 341.78 329.13 341.6 329.13 341.4 L 329.13 338.63 L 332.36 332.16 C 332.52 331.98 332.62 331.76 332.62 331.51 C 332.62 329.99 329.34 329.76 327.38 329.76 C 325.43 329.76 322.15 329.99 322.15 331.51 C 322.15 331.72 322.22 331.91 322.33 332.07 L 325.05 338.61 L 325.05 342.56 C 325.05 342.88 325.31 343.15 325.64 343.15 Z M 342.51 342.56 C 343.15 342.56 343.67 343.09 343.67 343.73 C 343.67 344.37 343.15 344.89 342.51 344.89 C 341.87 344.89 341.35 344.37 341.35 343.73 C 341.35 343.09 341.87 342.56 342.51 342.56 Z M 342.51 325.11 C 343.15 325.11 343.67 325.63 343.67 326.27 C 343.67 326.91 343.15 327.44 342.51 327.44 C 341.87 327.44 341.35 326.91 341.35 326.27 C 341.35 325.63 341.87 325.11 342.51 325.11 Z M 343.67 333.84 C 344.31 333.84 344.84 334.36 344.84 335 C 344.84 335.64 344.31 336.16 343.67 336.16 C 343.03 336.16 342.51 335.64 342.51 335 C 342.51 334.36 343.03 333.84 343.67 333.84 Z M 337.85 335.58 L 341.43 335.58 C 341.69 336.58 342.59 337.33 343.67 337.33 C 344.96 337.33 346 336.28 346 335 C 346 333.72 344.96 332.67 343.67 332.67 C 342.59 332.67 341.69 333.42 341.43 334.42 L 337.85 334.42 L 337.85 326.85 L 340.27 326.85 C 340.52 327.86 341.43 328.6 342.51 328.6 C 343.79 328.6 344.84 327.56 344.84 326.27 C 344.84 324.99 343.79 323.95 342.51 323.95 C 341.43 323.95 340.52 324.69 340.27 325.69 L 337.27 325.69 C 336.95 325.69 336.69 325.95 336.69 326.27 L 336.69 334.42 L 332.62 334.42 L 332.62 335.58 L 336.69 335.58 L 336.69 343.73 C 336.69 344.05 336.95 344.31 337.27 344.31 L 340.27 344.31 C 340.52 345.31 341.43 346.05 342.51 346.05 C 343.79 346.05 344.84 345.01 344.84 343.73 C 344.84 342.44 343.79 341.4 342.51 341.4 C 341.43 341.4 340.52 342.14 340.27 343.15 L 337.85 343.15 Z" fill="#ffffff" stroke="none" pointer-events="all" style="fill: light-dark(rgb(255, 255, 255), rgb(18, 18, 18));"/></g></g><g data-cell-id="sns1_l"><g transform="translate(0.5,0.5)"><rect x="355" y="325" width="140" height="30" fill="none" stroke="none" pointer-events="all"/></g><g><g><switch><foreignObject style="overflow: visible; text-align: left;" pointer-events="none" width="100%" height="100%" requiredFeatures="http://www.w3.org/TR/SVG11/feature#Extensibility"><div xmlns="http://www.w3.org/1999/xhtml" style="display: flex; align-items: unsafe center; justify-content: unsafe flex-start; width: 138px; height: 1px; padding-top: 340px; margin-left: 357px;"><div style="box-sizing: border-box; font-size: 0; text-align: left; color: #232F3E; "><div style="display: inline-block; font-size: 9px; font-family: Helvetica; color: light-dark(#232F3E, #bdc7d4); line-height: 1.2; pointer-events: all; white-space: normal; word-wrap: normal; ">SNS Topic<br />(スタックセット展開)</div></div></div></foreignObject><text x="357" y="343" fill="#232F3E" font-family="Helvetica" font-size="9px">SNS Topic...</text></switch></g></g></g><g data-cell-id="ma2"><g><rect x="520" y="300" width="200" height="70" rx="10.5" ry="10.5" fill="#ffffff" stroke="#7aa116" stroke-width="2" pointer-events="all" style="fill: light-dark(rgb(255, 255, 255), rgb(18, 18, 18)); stroke: light-dark(rgb(122, 161, 22), rgb(97, 130, 11));"/></g><g><g><switch><foreignObject style="overflow: visible; text-align: left;" pointer-events="none" width="100%" height="100%" requiredFeatures="http://www.w3.org/TR/SVG11/feature#Extensibility"><div xmlns="http://www.w3.org/1999/xhtml" style="display: flex; align-items: unsafe flex-start; justify-content: unsafe center; width: 198px; height: 1px; padding-top: 313px; margin-left: 521px;"><div style="box-sizing: border-box; font-size: 0; text-align: center; color: #232F3E; "><div style="display: inline-block; font-size: 9px; font-family: Helvetica; color: light-dark(#232F3E, #bdc7d4); line-height: 1.2; pointer-events: all; font-weight: bold; white-space: normal; word-wrap: normal; ">アカウント 3</div></div></div></foreignObject><text x="620" y="322" fill="#232F3E" font-family="Helvetica" font-size="9px" text-anchor="middle" font-weight="bold">アカウント 3</text></switch></g></g></g><g data-cell-id="sns2"><g transform="translate(0.5,0.5)"><path d="M 530 315 L 570 315 L 570 355 L 530 355 Z" fill="#dd344c" stroke="none" pointer-events="all" style="fill: light-dark(rgb(221, 52, 76), rgb(255, 127, 147));"/><path d="M 536.33 333.84 C 536.97 333.84 537.49 334.36 537.49 335 C 537.49 335.64 536.97 336.16 536.33 336.16 C 535.69 336.16 535.16 335.64 535.16 335 C 535.16 334.36 535.69 333.84 536.33 333.84 Z M 550.29 348.96 C 543.49 348.96 537.66 344 536.44 337.32 C 537.47 337.27 538.32 336.55 538.57 335.58 L 542.15 335.58 L 542.15 334.42 L 538.57 334.42 C 538.32 333.45 537.47 332.73 536.44 332.68 C 537.66 326.1 543.61 321.04 550.29 321.04 C 552.8 321.04 555.43 321.98 558.1 323.84 L 558.77 322.89 C 555.9 320.89 553.04 319.87 550.29 319.87 C 542.88 319.87 536.3 325.61 535.2 332.98 C 534.49 333.37 534 334.13 534 335 C 534 335.87 534.49 336.63 535.2 337.02 C 536.31 344.51 542.76 350.13 550.29 350.13 C 553.44 350.13 556.66 349.05 559.36 347.11 L 558.68 346.16 C 556.17 347.97 553.19 348.96 550.29 348.96 Z M 543.95 332.93 C 545.03 333.19 546.38 333.25 547.38 333.25 C 548.34 333.25 549.61 333.2 550.66 332.97 L 548.02 338.23 C 547.98 338.31 547.96 338.4 547.96 338.49 L 547.96 341.08 C 547.5 341.38 546.7 341.87 546.22 341.97 L 546.22 338.49 C 546.22 338.41 546.2 338.34 546.17 338.27 Z M 547.38 330.93 C 549.72 330.93 550.97 331.28 551.36 331.51 C 550.97 331.74 549.72 332.09 547.38 332.09 C 545.04 332.09 543.79 331.74 543.4 331.51 C 543.79 331.28 545.04 330.93 547.38 330.93 Z M 545.64 343.15 L 546.22 343.15 C 546.24 343.15 546.27 343.14 546.29 343.14 C 547 343.05 547.91 342.5 548.7 341.99 L 548.86 341.89 C 549.02 341.78 549.13 341.6 549.13 341.4 L 549.13 338.63 L 552.36 332.16 C 552.52 331.98 552.62 331.76 552.62 331.51 C 552.62 329.99 549.34 329.76 547.38 329.76 C 545.43 329.76 542.15 329.99 542.15 331.51 C 542.15 331.72 542.22 331.91 542.33 332.07 L 545.05 338.61 L 545.05 342.56 C 545.05 342.88 545.31 343.15 545.64 343.15 Z M 562.51 342.56 C 563.15 342.56 563.67 343.09 563.67 343.73 C 563.67 344.37 563.15 344.89 562.51 344.89 C 561.87 344.89 561.35 344.37 561.35 343.73 C 561.35 343.09 561.87 342.56 562.51 342.56 Z M 562.51 325.11 C 563.15 325.11 563.67 325.63 563.67 326.27 C 563.67 326.91 563.15 327.44 562.51 327.44 C 561.87 327.44 561.35 326.91 561.35 326.27 C 561.35 325.63 561.87 325.11 562.51 325.11 Z M 563.67 333.84 C 564.31 333.84 564.84 334.36 564.84 335 C 564.84 335.64 564.31 336.16 563.67 336.16 C 563.03 336.16 562.51 335.64 562.51 335 C 562.51 334.36 563.03 333.84 563.67 333.84 Z M 557.85 335.58 L 561.43 335.58 C 561.69 336.58 562.59 337.33 563.67 337.33 C 564.96 337.33 566 336.28 566 335 C 566 333.72 564.96 332.67 563.67 332.67 C 562.59 332.67 561.69 333.42 561.43 334.42 L 557.85 334.42 L 557.85 326.85 L 560.27 326.85 C 560.52 327.86 561.43 328.6 562.51 328.6 C 563.79 328.6 564.84 327.56 564.84 326.27 C 564.84 324.99 563.79 323.95 562.51 323.95 C 561.43 323.95 560.52 324.69 560.27 325.69 L 557.27 325.69 C 556.95 325.69 556.69 325.95 556.69 326.27 L 556.69 334.42 L 552.62 334.42 L 552.62 335.58 L 556.69 335.58 L 556.69 343.73 C 556.69 344.05 556.95 344.31 557.27 344.31 L 560.27 344.31 C 560.52 345.31 561.43 346.05 562.51 346.05 C 563.79 346.05 564.84 345.01 564.84 343.73 C 564.84 342.44 563.79 341.4 562.51 341.4 C 561.43 341.4 560.52 342.14 560.27 343.15 L 557.85 343.15 Z" fill="#ffffff" stroke="none" pointer-events="all" style="fill: light-dark(rgb(255, 255, 255), rgb(18, 18, 18));"/></g></g><g data-cell-id="sns2_l"><g transform="translate(0.5,0.5)"><rect x="575" y="325" width="140" height="30" fill="none" stroke="none" pointer-events="all"/></g><g><g><switch><foreignObject style="overflow: visible; text-align: left;" pointer-events="none" width="100%" height="100%" requiredFeatures="http://www.w3.org/TR/SVG11/feature#Extensibility"><div xmlns="http://www.w3.org/1999/xhtml" style="display: flex; align-items: unsafe center; justify-content: unsafe flex-start; width: 138px; height: 1px; padding-top: 340px; margin-left: 577px;"><div style="box-sizing: border-box; font-size: 0; text-align: left; color: #232F3E; "><div style="display: inline-block; font-size: 9px; font-family: Helvetica; color: light-dark(#232F3E, #bdc7d4); line-height: 1.2; pointer-events: all; white-space: normal; word-wrap: normal; ">SNS Topic<br />(スタックセット展開)</div></div></div></foreignObject><text x="577" y="343" fill="#232F3E" font-family="Helvetica" font-size="9px">SNS Topic...</text></switch></g></g></g><g data-cell-id="ma3"><g><rect x="740" y="300" width="200" height="70" rx="10.5" ry="10.5" fill="#ffffff" stroke="#7aa116" stroke-width="2" pointer-events="all" style="fill: light-dark(rgb(255, 255, 255), rgb(18, 18, 18)); stroke: light-dark(rgb(122, 161, 22), rgb(97, 130, 11));"/></g><g><g><switch><foreignObject style="overflow: visible; text-align: left;" pointer-events="none" width="100%" height="100%" requiredFeatures="http://www.w3.org/TR/SVG11/feature#Extensibility"><div xmlns="http://www.w3.org/1999/xhtml" style="display: flex; align-items: unsafe flex-start; justify-content: unsafe center; width: 198px; height: 1px; padding-top: 313px; margin-left: 741px;"><div style="box-sizing: border-box; font-size: 0; text-align: center; color: #232F3E; "><div style="display: inline-block; font-size: 9px; font-family: Helvetica; color: light-dark(#232F3E, #bdc7d4); line-height: 1.2; pointer-events: all; font-weight: bold; white-space: normal; word-wrap: normal; ">アカウント 4</div></div></div></foreignObject><text x="840" y="322" fill="#232F3E" font-family="Helvetica" font-size="9px" text-anchor="middle" font-weight="bold">アカウント 4</text></switch></g></g></g><g data-cell-id="sns3"><g transform="translate(0.5,0.5)"><path d="M 750 315 L 790 315 L 790 355 L 750 355 Z" fill="#dd344c" stroke="none" pointer-events="all" style="fill: light-dark(rgb(221, 52, 76), rgb(255, 127, 147));"/><path d="M 756.33 333.84 C 756.97 333.84 757.49 334.36 757.49 335 C 757.49 335.64 756.97 336.16 756.33 336.16 C 755.69 336.16 755.16 335.64 755.16 335 C 755.16 334.36 755.69 333.84 756.33 333.84 Z M 770.29 348.96 C 763.49 348.96 757.66 344 756.44 337.32 C 757.47 337.27 758.32 336.55 758.57 335.58 L 762.15 335.58 L 762.15 334.42 L 758.57 334.42 C 758.32 333.45 757.47 332.73 756.44 332.68 C 757.66 326.1 763.61 321.04 770.29 321.04 C 772.8 321.04 775.43 321.98 778.1 323.84 L 778.77 322.89 C 775.9 320.89 773.04 319.87 770.29 319.87 C 762.88 319.87 756.3 325.61 755.2 332.98 C 754.49 333.37 754 334.13 754 335 C 754 335.87 754.49 336.63 755.2 337.02 C 756.31 344.51 762.76 350.13 770.29 350.13 C 773.44 350.13 776.66 349.05 779.36 347.11 L 778.68 346.16 C 776.17 347.97 773.19 348.96 770.29 348.96 Z M 763.95 332.93 C 765.03 333.19 766.38 333.25 767.38 333.25 C 768.34 333.25 769.61 333.2 770.66 332.97 L 768.02 338.23 C 767.98 338.31 767.96 338.4 767.96 338.49 L 767.96 341.08 C 767.5 341.38 766.7 341.87 766.22 341.97 L 766.22 338.49 C 766.22 338.41 766.2 338.34 766.17 338.27 Z M 767.38 330.93 C 769.72 330.93 770.97 331.28 771.36 331.51 C 770.97 331.74 769.72 332.09 767.38 332.09 C 765.04 332.09 763.79 331.74 763.4 331.51 C 763.79 331.28 765.04 330.93 767.38 330.93 Z M 765.64 343.15 L 766.22 343.15 C 766.24 343.15 766.27 343.14 766.29 343.14 C 767 343.05 767.91 342.5 768.7 341.99 L 768.86 341.89 C 769.02 341.78 769.13 341.6 769.13 341.4 L 769.13 338.63 L 772.36 332.16 C 772.52 331.98 772.62 331.76 772.62 331.51 C 772.62 329.99 769.34 329.76 767.38 329.76 C 765.43 329.76 762.15 329.99 762.15 331.51 C 762.15 331.72 762.22 331.91 762.33 332.07 L 765.05 338.61 L 765.05 342.56 C 765.05 342.88 765.31 343.15 765.64 343.15 Z M 782.51 342.56 C 783.15 342.56 783.67 343.09 783.67 343.73 C 783.67 344.37 783.15 344.89 782.51 344.89 C 781.87 344.89 781.35 344.37 781.35 343.73 C 781.35 343.09 781.87 342.56 782.51 342.56 Z M 782.51 325.11 C 783.15 325.11 783.67 325.63 783.67 326.27 C 783.67 326.91 783.15 327.44 782.51 327.44 C 781.87 327.44 781.35 326.91 781.35 326.27 C 781.35 325.63 781.87 325.11 782.51 325.11 Z M 783.67 333.84 C 784.31 333.84 784.84 334.36 784.84 335 C 784.84 335.64 784.31 336.16 783.67 336.16 C 783.03 336.16 782.51 335.64 782.51 335 C 782.51 334.36 783.03 333.84 783.67 333.84 Z M 777.85 335.58 L 781.43 335.58 C 781.69 336.58 782.59 337.33 783.67 337.33 C 784.96 337.33 786 336.28 786 335 C 786 333.72 784.96 332.67 783.67 332.67 C 782.59 332.67 781.69 333.42 781.43 334.42 L 777.85 334.42 L 777.85 326.85 L 780.27 326.85 C 780.52 327.86 781.43 328.6 782.51 328.6 C 783.79 328.6 784.84 327.56 784.84 326.27 C 784.84 324.99 783.79 323.95 782.51 323.95 C 781.43 323.95 780.52 324.69 780.27 325.69 L 777.27 325.69 C 776.95 325.69 776.69 325.95 776.69 326.27 L 776.69 334.42 L 772.62 334.42 L 772.62 335.58 L 776.69 335.58 L 776.69 343.73 C 776.69 344.05 776.95 344.31 777.27 344.31 L 780.27 344.31 C 780.52 345.31 781.43 346.05 782.51 346.05 C 783.79 346.05 784.84 345.01 784.84 343.73 C 784.84 342.44 783.79 341.4 782.51 341.4 C 781.43 341.4 780.52 342.14 780.27 343.15 L 777.85 343.15 Z" fill="#ffffff" stroke="none" pointer-events="all" style="fill: light-dark(rgb(255, 255, 255), rgb(18, 18, 18));"/></g></g><g data-cell-id="sns3_l"><g transform="translate(0.5,0.5)"><rect x="795" y="325" width="140" height="30" fill="none" stroke="none" pointer-events="all"/></g><g><g><switch><foreignObject style="overflow: visible; text-align: left;" pointer-events="none" width="100%" height="100%" requiredFeatures="http://www.w3.org/TR/SVG11/feature#Extensibility"><div xmlns="http://www.w3.org/1999/xhtml" style="display: flex; align-items: unsafe center; justify-content: unsafe flex-start; width: 138px; height: 1px; padding-top: 340px; margin-left: 797px;"><div style="box-sizing: border-box; font-size: 0; text-align: left; color: #232F3E; "><div style="display: inline-block; font-size: 9px; font-family: Helvetica; color: light-dark(#232F3E, #bdc7d4); line-height: 1.2; pointer-events: all; white-space: normal; word-wrap: normal; ">SNS Topic<br />(スタックセット展開)</div></div></div></foreignObject><text x="797" y="343" fill="#232F3E" font-family="Helvetica" font-size="9px">SNS Topic...</text></switch></g></g></g><g data-cell-id="ma4"><g><rect x="80" y="390" width="200" height="70" rx="10.5" ry="10.5" fill="#ffffff" stroke="#7aa116" stroke-width="2" pointer-events="all" style="fill: light-dark(rgb(255, 255, 255), rgb(18, 18, 18)); stroke: light-dark(rgb(122, 161, 22), rgb(97, 130, 11));"/></g><g><g><switch><foreignObject style="overflow: visible; text-align: left;" pointer-events="none" width="100%" height="100%" requiredFeatures="http://www.w3.org/TR/SVG11/feature#Extensibility"><div xmlns="http://www.w3.org/1999/xhtml" style="display: flex; align-items: unsafe flex-start; justify-content: unsafe center; width: 198px; height: 1px; padding-top: 403px; margin-left: 81px;"><div style="box-sizing: border-box; font-size: 0; text-align: center; color: #232F3E; "><div style="display: inline-block; font-size: 9px; font-family: Helvetica; color: light-dark(#232F3E, #bdc7d4); line-height: 1.2; pointer-events: all; font-weight: bold; white-space: normal; word-wrap: normal; ">アカウント 5</div></div></div></foreignObject><text x="180" y="412" fill="#232F3E" font-family="Helvetica" font-size="9px" text-anchor="middle" font-weight="bold">アカウント 5</text></switch></g></g></g><g data-cell-id="sns4"><g transform="translate(0.5,0.5)"><path d="M 90 405 L 130 405 L 130 445 L 90 445 Z" fill="#dd344c" stroke="none" pointer-events="all" style="fill: light-dark(rgb(221, 52, 76), rgb(255, 127, 147));"/><path d="M 96.33 423.84 C 96.97 423.84 97.49 424.36 97.49 425 C 97.49 425.64 96.97 426.16 96.33 426.16 C 95.69 426.16 95.16 425.64 95.16 425 C 95.16 424.36 95.69 423.84 96.33 423.84 Z M 110.29 438.96 C 103.49 438.96 97.66 434 96.44 427.32 C 97.47 427.27 98.32 426.55 98.57 425.58 L 102.15 425.58 L 102.15 424.42 L 98.57 424.42 C 98.32 423.45 97.47 422.73 96.44 422.68 C 97.66 416.1 103.61 411.04 110.29 411.04 C 112.8 411.04 115.43 411.98 118.1 413.84 L 118.77 412.89 C 115.9 410.89 113.04 409.87 110.29 409.87 C 102.88 409.87 96.3 415.61 95.2 422.98 C 94.49 423.37 94 424.13 94 425 C 94 425.87 94.49 426.63 95.2 427.02 C 96.31 434.51 102.76 440.13 110.29 440.13 C 113.44 440.13 116.66 439.05 119.36 437.11 L 118.68 436.16 C 116.17 437.97 113.19 438.96 110.29 438.96 Z M 103.95 422.93 C 105.03 423.19 106.38 423.25 107.38 423.25 C 108.34 423.25 109.61 423.2 110.66 422.97 L 108.02 428.23 C 107.98 428.31 107.96 428.4 107.96 428.49 L 107.96 431.08 C 107.5 431.38 106.7 431.87 106.22 431.97 L 106.22 428.49 C 106.22 428.41 106.2 428.34 106.17 428.27 Z M 107.38 420.93 C 109.72 420.93 110.97 421.28 111.36 421.51 C 110.97 421.74 109.72 422.09 107.38 422.09 C 105.04 422.09 103.79 421.74 103.4 421.51 C 103.79 421.28 105.04 420.93 107.38 420.93 Z M 105.64 433.15 L 106.22 433.15 C 106.24 433.15 106.27 433.14 106.29 433.14 C 107 433.05 107.91 432.5 108.7 431.99 L 108.86 431.89 C 109.02 431.78 109.13 431.6 109.13 431.4 L 109.13 428.63 L 112.36 422.16 C 112.52 421.98 112.62 421.76 112.62 421.51 C 112.62 419.99 109.34 419.76 107.38 419.76 C 105.43 419.76 102.15 419.99 102.15 421.51 C 102.15 421.72 102.22 421.91 102.33 422.07 L 105.05 428.61 L 105.05 432.56 C 105.05 432.88 105.31 433.15 105.64 433.15 Z M 122.51 432.56 C 123.15 432.56 123.67 433.09 123.67 433.73 C 123.67 434.37 123.15 434.89 122.51 434.89 C 121.87 434.89 121.35 434.37 121.35 433.73 C 121.35 433.09 121.87 432.56 122.51 432.56 Z M 122.51 415.11 C 123.15 415.11 123.67 415.63 123.67 416.27 C 123.67 416.91 123.15 417.44 122.51 417.44 C 121.87 417.44 121.35 416.91 121.35 416.27 C 121.35 415.63 121.87 415.11 122.51 415.11 Z M 123.67 423.84 C 124.31 423.84 124.84 424.36 124.84 425 C 124.84 425.64 124.31 426.16 123.67 426.16 C 123.03 426.16 122.51 425.64 122.51 425 C 122.51 424.36 123.03 423.84 123.67 423.84 Z M 117.85 425.58 L 121.43 425.58 C 121.69 426.58 122.59 427.33 123.67 427.33 C 124.96 427.33 126 426.28 126 425 C 126 423.72 124.96 422.67 123.67 422.67 C 122.59 422.67 121.69 423.42 121.43 424.42 L 117.85 424.42 L 117.85 416.85 L 120.27 416.85 C 120.52 417.86 121.43 418.6 122.51 418.6 C 123.79 418.6 124.84 417.56 124.84 416.27 C 124.84 414.99 123.79 413.95 122.51 413.95 C 121.43 413.95 120.52 414.69 120.27 415.69 L 117.27 415.69 C 116.95 415.69 116.69 415.95 116.69 416.27 L 116.69 424.42 L 112.62 424.42 L 112.62 425.58 L 116.69 425.58 L 116.69 433.73 C 116.69 434.05 116.95 434.31 117.27 434.31 L 120.27 434.31 C 120.52 435.31 121.43 436.05 122.51 436.05 C 123.79 436.05 124.84 435.01 124.84 433.73 C 124.84 432.44 123.79 431.4 122.51 431.4 C 121.43 431.4 120.52 432.14 120.27 433.15 L 117.85 433.15 Z" fill="#ffffff" stroke="none" pointer-events="all" style="fill: light-dark(rgb(255, 255, 255), rgb(18, 18, 18));"/></g></g><g data-cell-id="sns4_l"><g transform="translate(0.5,0.5)"><rect x="135" y="415" width="140" height="30" fill="none" stroke="none" pointer-events="all"/></g><g><g><switch><foreignObject style="overflow: visible; text-align: left;" pointer-events="none" width="100%" height="100%" requiredFeatures="http://www.w3.org/TR/SVG11/feature#Extensibility"><div xmlns="http://www.w3.org/1999/xhtml" style="display: flex; align-items: unsafe center; justify-content: unsafe flex-start; width: 138px; height: 1px; padding-top: 430px; margin-left: 137px;"><div style="box-sizing: border-box; font-size: 0; text-align: left; color: #232F3E; "><div style="display: inline-block; font-size: 9px; font-family: Helvetica; color: light-dark(#232F3E, #bdc7d4); line-height: 1.2; pointer-events: all; white-space: normal; word-wrap: normal; ">SNS Topic<br />(スタックセット展開)</div></div></div></foreignObject><text x="137" y="433" fill="#232F3E" font-family="Helvetica" font-size="9px">SNS Topic...</text></switch></g></g></g><g data-cell-id="ma5"><g><rect x="300" y="390" width="200" height="70" rx="10.5" ry="10.5" fill="#ffffff" stroke="#7aa116" stroke-width="2" pointer-events="all" style="fill: light-dark(rgb(255, 255, 255), rgb(18, 18, 18)); stroke: light-dark(rgb(122, 161, 22), rgb(97, 130, 11));"/></g><g><g><switch><foreignObject style="overflow: visible; text-align: left;" pointer-events="none" width="100%" height="100%" requiredFeatures="http://www.w3.org/TR/SVG11/feature#Extensibility"><div xmlns="http://www.w3.org/1999/xhtml" style="display: flex; align-items: unsafe flex-start; justify-content: unsafe center; width: 198px; height: 1px; padding-top: 403px; margin-left: 301px;"><div style="box-sizing: border-box; font-size: 0; text-align: center; color: #232F3E; "><div style="display: inline-block; font-size: 9px; font-family: Helvetica; color: light-dark(#232F3E, #bdc7d4); line-height: 1.2; pointer-events: all; font-weight: bold; white-space: normal; word-wrap: normal; ">アカウント 6</div></div></div></foreignObject><text x="400" y="412" fill="#232F3E" font-family="Helvetica" font-size="9px" text-anchor="middle" font-weight="bold">アカウント 6</text></switch></g></g></g><g data-cell-id="sns5"><g transform="translate(0.5,0.5)"><path d="M 310 405 L 350 405 L 350 445 L 310 445 Z" fill="#dd344c" stroke="none" pointer-events="all" style="fill: light-dark(rgb(221, 52, 76), rgb(255, 127, 147));"/><path d="M 316.33 423.84 C 316.97 423.84 317.49 424.36 317.49 425 C 317.49 425.64 316.97 426.16 316.33 426.16 C 315.69 426.16 315.16 425.64 315.16 425 C 315.16 424.36 315.69 423.84 316.33 423.84 Z M 330.29 438.96 C 323.49 438.96 317.66 434 316.44 427.32 C 317.47 427.27 318.32 426.55 318.57 425.58 L 322.15 425.58 L 322.15 424.42 L 318.57 424.42 C 318.32 423.45 317.47 422.73 316.44 422.68 C 317.66 416.1 323.61 411.04 330.29 411.04 C 332.8 411.04 335.43 411.98 338.1 413.84 L 338.77 412.89 C 335.9 410.89 333.04 409.87 330.29 409.87 C 322.88 409.87 316.3 415.61 315.2 422.98 C 314.49 423.37 314 424.13 314 425 C 314 425.87 314.49 426.63 315.2 427.02 C 316.31 434.51 322.76 440.13 330.29 440.13 C 333.44 440.13 336.66 439.05 339.36 437.11 L 338.68 436.16 C 336.17 437.97 333.19 438.96 330.29 438.96 Z M 323.95 422.93 C 325.03 423.19 326.38 423.25 327.38 423.25 C 328.34 423.25 329.61 423.2 330.66 422.97 L 328.02 428.23 C 327.98 428.31 327.96 428.4 327.96 428.49 L 327.96 431.08 C 327.5 431.38 326.7 431.87 326.22 431.97 L 326.22 428.49 C 326.22 428.41 326.2 428.34 326.17 428.27 Z M 327.38 420.93 C 329.72 420.93 330.97 421.28 331.36 421.51 C 330.97 421.74 329.72 422.09 327.38 422.09 C 325.04 422.09 323.79 421.74 323.4 421.51 C 323.79 421.28 325.04 420.93 327.38 420.93 Z M 325.64 433.15 L 326.22 433.15 C 326.24 433.15 326.27 433.14 326.29 433.14 C 327 433.05 327.91 432.5 328.7 431.99 L 328.86 431.89 C 329.02 431.78 329.13 431.6 329.13 431.4 L 329.13 428.63 L 332.36 422.16 C 332.52 421.98 332.62 421.76 332.62 421.51 C 332.62 419.99 329.34 419.76 327.38 419.76 C 325.43 419.76 322.15 419.99 322.15 421.51 C 322.15 421.72 322.22 421.91 322.33 422.07 L 325.05 428.61 L 325.05 432.56 C 325.05 432.88 325.31 433.15 325.64 433.15 Z M 342.51 432.56 C 343.15 432.56 343.67 433.09 343.67 433.73 C 343.67 434.37 343.15 434.89 342.51 434.89 C 341.87 434.89 341.35 434.37 341.35 433.73 C 341.35 433.09 341.87 432.56 342.51 432.56 Z M 342.51 415.11 C 343.15 415.11 343.67 415.63 343.67 416.27 C 343.67 416.91 343.15 417.44 342.51 417.44 C 341.87 417.44 341.35 416.91 341.35 416.27 C 341.35 415.63 341.87 415.11 342.51 415.11 Z M 343.67 423.84 C 344.31 423.84 344.84 424.36 344.84 425 C 344.84 425.64 344.31 426.16 343.67 426.16 C 343.03 426.16 342.51 425.64 342.51 425 C 342.51 424.36 343.03 423.84 343.67 423.84 Z M 337.85 425.58 L 341.43 425.58 C 341.69 426.58 342.59 427.33 343.67 427.33 C 344.96 427.33 346 426.28 346 425 C 346 423.72 344.96 422.67 343.67 422.67 C 342.59 422.67 341.69 423.42 341.43 424.42 L 337.85 424.42 L 337.85 416.85 L 340.27 416.85 C 340.52 417.86 341.43 418.6 342.51 418.6 C 343.79 418.6 344.84 417.56 344.84 416.27 C 344.84 414.99 343.79 413.95 342.51 413.95 C 341.43 413.95 340.52 414.69 340.27 415.69 L 337.27 415.69 C 336.95 415.69 336.69 415.95 336.69 416.27 L 336.69 424.42 L 332.62 424.42 L 332.62 425.58 L 336.69 425.58 L 336.69 433.73 C 336.69 434.05 336.95 434.31 337.27 434.31 L 340.27 434.31 C 340.52 435.31 341.43 436.05 342.51 436.05 C 343.79 436.05 344.84 435.01 344.84 433.73 C 344.84 432.44 343.79 431.4 342.51 431.4 C 341.43 431.4 340.52 432.14 340.27 433.15 L 337.85 433.15 Z" fill="#ffffff" stroke="none" pointer-events="all" style="fill: light-dark(rgb(255, 255, 255), rgb(18, 18, 18));"/></g></g><g data-cell-id="sns5_l"><g transform="translate(0.5,0.5)"><rect x="355" y="415" width="140" height="30" fill="none" stroke="none" pointer-events="all"/></g><g><g><switch><foreignObject style="overflow: visible; text-align: left;" pointer-events="none" width="100%" height="100%" requiredFeatures="http://www.w3.org/TR/SVG11/feature#Extensibility"><div xmlns="http://www.w3.org/1999/xhtml" style="display: flex; align-items: unsafe center; justify-content: unsafe flex-start; width: 138px; height: 1px; padding-top: 430px; margin-left: 357px;"><div style="box-sizing: border-box; font-size: 0; text-align: left; color: #232F3E; "><div style="display: inline-block; font-size: 9px; font-family: Helvetica; color: light-dark(#232F3E, #bdc7d4); line-height: 1.2; pointer-events: all; white-space: normal; word-wrap: normal; ">SNS Topic<br />(スタックセット展開)</div></div></div></foreignObject><text x="357" y="433" fill="#232F3E" font-family="Helvetica" font-size="9px">SNS Topic...</text></switch></g></g></g><g data-cell-id="ma6"><g><rect x="520" y="390" width="200" height="70" rx="10.5" ry="10.5" fill="#ffffff" stroke="#7aa116" stroke-width="2" pointer-events="all" style="fill: light-dark(rgb(255, 255, 255), rgb(18, 18, 18)); stroke: light-dark(rgb(122, 161, 22), rgb(97, 130, 11));"/></g><g><g><switch><foreignObject style="overflow: visible; text-align: left;" pointer-events="none" width="100%" height="100%" requiredFeatures="http://www.w3.org/TR/SVG11/feature#Extensibility"><div xmlns="http://www.w3.org/1999/xhtml" style="display: flex; align-items: unsafe flex-start; justify-content: unsafe center; width: 198px; height: 1px; padding-top: 403px; margin-left: 521px;"><div style="box-sizing: border-box; font-size: 0; text-align: center; color: #232F3E; "><div style="display: inline-block; font-size: 9px; font-family: Helvetica; color: light-dark(#232F3E, #bdc7d4); line-height: 1.2; pointer-events: all; font-weight: bold; white-space: normal; word-wrap: normal; ">アカウント 7</div></div></div></foreignObject><text x="620" y="412" fill="#232F3E" font-family="Helvetica" font-size="9px" text-anchor="middle" font-weight="bold">アカウント 7</text></switch></g></g></g><g data-cell-id="sns6"><g transform="translate(0.5,0.5)"><path d="M 530 405 L 570 405 L 570 445 L 530 445 Z" fill="#dd344c" stroke="none" pointer-events="all" style="fill: light-dark(rgb(221, 52, 76), rgb(255, 127, 147));"/><path d="M 536.33 423.84 C 536.97 423.84 537.49 424.36 537.49 425 C 537.49 425.64 536.97 426.16 536.33 426.16 C 535.69 426.16 535.16 425.64 535.16 425 C 535.16 424.36 535.69 423.84 536.33 423.84 Z M 550.29 438.96 C 543.49 438.96 537.66 434 536.44 427.32 C 537.47 427.27 538.32 426.55 538.57 425.58 L 542.15 425.58 L 542.15 424.42 L 538.57 424.42 C 538.32 423.45 537.47 422.73 536.44 422.68 C 537.66 416.1 543.61 411.04 550.29 411.04 C 552.8 411.04 555.43 411.98 558.1 413.84 L 558.77 412.89 C 555.9 410.89 553.04 409.87 550.29 409.87 C 542.88 409.87 536.3 415.61 535.2 422.98 C 534.49 423.37 534 424.13 534 425 C 534 425.87 534.49 426.63 535.2 427.02 C 536.31 434.51 542.76 440.13 550.29 440.13 C 553.44 440.13 556.66 439.05 559.36 437.11 L 558.68 436.16 C 556.17 437.97 553.19 438.96 550.29 438.96 Z M 543.95 422.93 C 545.03 423.19 546.38 423.25 547.38 423.25 C 548.34 423.25 549.61 423.2 550.66 422.97 L 548.02 428.23 C 547.98 428.31 547.96 428.4 547.96 428.49 L 547.96 431.08 C 547.5 431.38 546.7 431.87 546.22 431.97 L 546.22 428.49 C 546.22 428.41 546.2 428.34 546.17 428.27 Z M 547.38 420.93 C 549.72 420.93 550.97 421.28 551.36 421.51 C 550.97 421.74 549.72 422.09 547.38 422.09 C 545.04 422.09 543.79 421.74 543.4 421.51 C 543.79 421.28 545.04 420.93 547.38 420.93 Z M 545.64 433.15 L 546.22 433.15 C 546.24 433.15 546.27 433.14 546.29 433.14 C 547 433.05 547.91 432.5 548.7 431.99 L 548.86 431.89 C 549.02 431.78 549.13 431.6 549.13 431.4 L 549.13 428.63 L 552.36 422.16 C 552.52 421.98 552.62 421.76 552.62 421.51 C 552.62 419.99 549.34 419.76 547.38 419.76 C 545.43 419.76 542.15 419.99 542.15 421.51 C 542.15 421.72 542.22 421.91 542.33 422.07 L 545.05 428.61 L 545.05 432.56 C 545.05 432.88 545.31 433.15 545.64 433.15 Z M 562.51 432.56 C 563.15 432.56 563.67 433.09 563.67 433.73 C 563.67 434.37 563.15 434.89 562.51 434.89 C 561.87 434.89 561.35 434.37 561.35 433.73 C 561.35 433.09 561.87 432.56 562.51 432.56 Z M 562.51 415.11 C 563.15 415.11 563.67 415.63 563.67 416.27 C 563.67 416.91 563.15 417.44 562.51 417.44 C 561.87 417.44 561.35 416.91 561.35 416.27 C 561.35 415.63 561.87 415.11 562.51 415.11 Z M 563.67 423.84 C 564.31 423.84 564.84 424.36 564.84 425 C 564.84 425.64 564.31 426.16 563.67 426.16 C 563.03 426.16 562.51 425.64 562.51 425 C 562.51 424.36 563.03 423.84 563.67 423.84 Z M 557.85 425.58 L 561.43 425.58 C 561.69 426.58 562.59 427.33 563.67 427.33 C 564.96 427.33 566 426.28 566 425 C 566 423.72 564.96 422.67 563.67 422.67 C 562.59 422.67 561.69 423.42 561.43 424.42 L 557.85 424.42 L 557.85 416.85 L 560.27 416.85 C 560.52 417.86 561.43 418.6 562.51 418.6 C 563.79 418.6 564.84 417.56 564.84 416.27 C 564.84 414.99 563.79 413.95 562.51 413.95 C 561.43 413.95 560.52 414.69 560.27 415.69 L 557.27 415.69 C 556.95 415.69 556.69 415.95 556.69 416.27 L 556.69 424.42 L 552.62 424.42 L 552.62 425.58 L 556.69 425.58 L 556.69 433.73 C 556.69 434.05 556.95 434.31 557.27 434.31 L 560.27 434.31 C 560.52 435.31 561.43 436.05 562.51 436.05 C 563.79 436.05 564.84 435.01 564.84 433.73 C 564.84 432.44 563.79 431.4 562.51 431.4 C 561.43 431.4 560.52 432.14 560.27 433.15 L 557.85 433.15 Z" fill="#ffffff" stroke="none" pointer-events="all" style="fill: light-dark(rgb(255, 255, 255), rgb(18, 18, 18));"/></g></g><g data-cell-id="sns6_l"><g transform="translate(0.5,0.5)"><rect x="575" y="415" width="140" height="30" fill="none" stroke="none" pointer-events="all"/></g><g><g><switch><foreignObject style="overflow: visible; text-align: left;" pointer-events="none" width="100%" height="100%" requiredFeatures="http://www.w3.org/TR/SVG11/feature#Extensibility"><div xmlns="http://www.w3.org/1999/xhtml" style="display: flex; align-items: unsafe center; justify-content: unsafe flex-start; width: 138px; height: 1px; padding-top: 430px; margin-left: 577px;"><div style="box-sizing: border-box; font-size: 0; text-align: left; color: #232F3E; "><div style="display: inline-block; font-size: 9px; font-family: Helvetica; color: light-dark(#232F3E, #bdc7d4); line-height: 1.2; pointer-events: all; white-space: normal; word-wrap: normal; ">SNS Topic<br />(スタックセット展開)</div></div></div></foreignObject><text x="577" y="433" fill="#232F3E" font-family="Helvetica" font-size="9px">SNS Topic...</text></switch></g></g></g><g data-cell-id="ma7"><g><rect x="740" y="390" width="200" height="70" rx="10.5" ry="10.5" fill="#ffffff" stroke="#7aa116" stroke-width="2" pointer-events="all" style="fill: light-dark(rgb(255, 255, 255), rgb(18, 18, 18)); stroke: light-dark(rgb(122, 161, 22), rgb(97, 130, 11));"/></g><g><g><switch><foreignObject style="overflow: visible; text-align: left;" pointer-events="none" width="100%" height="100%" requiredFeatures="http://www.w3.org/TR/SVG11/feature#Extensibility"><div xmlns="http://www.w3.org/1999/xhtml" style="display: flex; align-items: unsafe flex-start; justify-content: unsafe center; width: 198px; height: 1px; padding-top: 403px; margin-left: 741px;"><div style="box-sizing: border-box; font-size: 0; text-align: center; color: #232F3E; "><div style="display: inline-block; font-size: 9px; font-family: Helvetica; color: light-dark(#232F3E, #bdc7d4); line-height: 1.2; pointer-events: all; font-weight: bold; white-space: normal; word-wrap: normal; ">アカウント 8</div></div></div></foreignObject><text x="840" y="412" fill="#232F3E" font-family="Helvetica" font-size="9px" text-anchor="middle" font-weight="bold">アカウント 8</text></switch></g></g></g><g data-cell-id="sns7"><g transform="translate(0.5,0.5)"><path d="M 750 405 L 790 405 L 790 445 L 750 445 Z" fill="#dd344c" stroke="none" pointer-events="all" style="fill: light-dark(rgb(221, 52, 76), rgb(255, 127, 147));"/><path d="M 756.33 423.84 C 756.97 423.84 757.49 424.36 757.49 425 C 757.49 425.64 756.97 426.16 756.33 426.16 C 755.69 426.16 755.16 425.64 755.16 425 C 755.16 424.36 755.69 423.84 756.33 423.84 Z M 770.29 438.96 C 763.49 438.96 757.66 434 756.44 427.32 C 757.47 427.27 758.32 426.55 758.57 425.58 L 762.15 425.58 L 762.15 424.42 L 758.57 424.42 C 758.32 423.45 757.47 422.73 756.44 422.68 C 757.66 416.1 763.61 411.04 770.29 411.04 C 772.8 411.04 775.43 411.98 778.1 413.84 L 778.77 412.89 C 775.9 410.89 773.04 409.87 770.29 409.87 C 762.88 409.87 756.3 415.61 755.2 422.98 C 754.49 423.37 754 424.13 754 425 C 754 425.87 754.49 426.63 755.2 427.02 C 756.31 434.51 762.76 440.13 770.29 440.13 C 773.44 440.13 776.66 439.05 779.36 437.11 L 778.68 436.16 C 776.17 437.97 773.19 438.96 770.29 438.96 Z M 763.95 422.93 C 765.03 423.19 766.38 423.25 767.38 423.25 C 768.34 423.25 769.61 423.2 770.66 422.97 L 768.02 428.23 C 767.98 428.31 767.96 428.4 767.96 428.49 L 767.96 431.08 C 767.5 431.38 766.7 431.87 766.22 431.97 L 766.22 428.49 C 766.22 428.41 766.2 428.34 766.17 428.27 Z M 767.38 420.93 C 769.72 420.93 770.97 421.28 771.36 421.51 C 770.97 421.74 769.72 422.09 767.38 422.09 C 765.04 422.09 763.79 421.74 763.4 421.51 C 763.79 421.28 765.04 420.93 767.38 420.93 Z M 765.64 433.15 L 766.22 433.15 C 766.24 433.15 766.27 433.14 766.29 433.14 C 767 433.05 767.91 432.5 768.7 431.99 L 768.86 431.89 C 769.02 431.78 769.13 431.6 769.13 431.4 L 769.13 428.63 L 772.36 422.16 C 772.52 421.98 772.62 421.76 772.62 421.51 C 772.62 419.99 769.34 419.76 767.38 419.76 C 765.43 419.76 762.15 419.99 762.15 421.51 C 762.15 421.72 762.22 421.91 762.33 422.07 L 765.05 428.61 L 765.05 432.56 C 765.05 432.88 765.31 433.15 765.64 433.15 Z M 782.51 432.56 C 783.15 432.56 783.67 433.09 783.67 433.73 C 783.67 434.37 783.15 434.89 782.51 434.89 C 781.87 434.89 781.35 434.37 781.35 433.73 C 781.35 433.09 781.87 432.56 782.51 432.56 Z M 782.51 415.11 C 783.15 415.11 783.67 415.63 783.67 416.27 C 783.67 416.91 783.15 417.44 782.51 417.44 C 781.87 417.44 781.35 416.91 781.35 416.27 C 781.35 415.63 781.87 415.11 782.51 415.11 Z M 783.67 423.84 C 784.31 423.84 784.84 424.36 784.84 425 C 784.84 425.64 784.31 426.16 783.67 426.16 C 783.03 426.16 782.51 425.64 782.51 425 C 782.51 424.36 783.03 423.84 783.67 423.84 Z M 777.85 425.58 L 781.43 425.58 C 781.69 426.58 782.59 427.33 783.67 427.33 C 784.96 427.33 786 426.28 786 425 C 786 423.72 784.96 422.67 783.67 422.67 C 782.59 422.67 781.69 423.42 781.43 424.42 L 777.85 424.42 L 777.85 416.85 L 780.27 416.85 C 780.52 417.86 781.43 418.6 782.51 418.6 C 783.79 418.6 784.84 417.56 784.84 416.27 C 784.84 414.99 783.79 413.95 782.51 413.95 C 781.43 413.95 780.52 414.69 780.27 415.69 L 777.27 415.69 C 776.95 415.69 776.69 415.95 776.69 416.27 L 776.69 424.42 L 772.62 424.42 L 772.62 425.58 L 776.69 425.58 L 776.69 433.73 C 776.69 434.05 776.95 434.31 777.27 434.31 L 780.27 434.31 C 780.52 435.31 781.43 436.05 782.51 436.05 C 783.79 436.05 784.84 435.01 784.84 433.73 C 784.84 432.44 783.79 431.4 782.51 431.4 C 781.43 431.4 780.52 432.14 780.27 433.15 L 777.85 433.15 Z" fill="#ffffff" stroke="none" pointer-events="all" style="fill: light-dark(rgb(255, 255, 255), rgb(18, 18, 18));"/></g></g><g data-cell-id="sns7_l"><g transform="translate(0.5,0.5)"><rect x="795" y="415" width="140" height="30" fill="none" stroke="none" pointer-events="all"/></g><g><g><switch><foreignObject style="overflow: visible; text-align: left;" pointer-events="none" width="100%" height="100%" requiredFeatures="http://www.w3.org/TR/SVG11/feature#Extensibility"><div xmlns="http://www.w3.org/1999/xhtml" style="display: flex; align-items: unsafe center; justify-content: unsafe flex-start; width: 138px; height: 1px; padding-top: 430px; margin-left: 797px;"><div style="box-sizing: border-box; font-size: 0; text-align: left; color: #232F3E; "><div style="display: inline-block; font-size: 9px; font-family: Helvetica; color: light-dark(#232F3E, #bdc7d4); line-height: 1.2; pointer-events: all; white-space: normal; word-wrap: normal; ">SNS Topic<br />(スタックセット展開)</div></div></div></foreignObject><text x="797" y="433" fill="#232F3E" font-family="Helvetica" font-size="9px">SNS Topic...</text></switch></g></g></g><g data-cell-id="key"><g><rect x="40" y="510" width="920" height="130" rx="19.5" ry="19.5" fill="#fff9e6" stroke="#ff9900" stroke-width="2" pointer-events="all" style="fill: light-dark(rgb(255, 249, 230), rgb(28, 23, 7)); stroke: light-dark(rgb(255, 153, 0), rgb(175, 87, 0));"/></g><g><g><switch><foreignObject style="overflow: visible; text-align: left;" pointer-events="none" width="100%" height="100%" requiredFeatures="http://www.w3.org/TR/SVG11/feature#Extensibility"><div xmlns="http://www.w3.org/1999/xhtml" style="display: flex; align-items: unsafe flex-start; justify-content: unsafe center; width: 918px; height: 1px; padding-top: 523px; margin-left: 41px;"><div style="box-sizing: border-box; font-size: 0; text-align: center; color: #232F3E; "><div style="display: inline-block; font-size: 11px; font-family: Helvetica; color: light-dark(#232F3E, #bdc7d4); line-height: 1.2; pointer-events: all; font-weight: bold; white-space: normal; word-wrap: normal; ">🔑 StackSets の 2種類の権限モデル</div></div></div></foreignObject><text x="500" y="534" fill="#232F3E" font-family="Helvetica" font-size="11px" text-anchor="middle" font-weight="bold">🔑 StackSets の 2種類の権限モデル</text></switch></g></g></g><g data-cell-id="key_t"><g transform="translate(0.5,0.5)"><rect x="55" y="540" width="900" height="100" fill="none" stroke="none" pointer-events="all"/></g><g><g><switch><foreignObject style="overflow: visible; text-align: left;" pointer-events="none" width="100%" height="100%" requiredFeatures="http://www.w3.org/TR/SVG11/feature#Extensibility"><div xmlns="http://www.w3.org/1999/xhtml" style="display: flex; align-items: unsafe center; justify-content: unsafe flex-start; width: 898px; height: 1px; padding-top: 590px; margin-left: 57px;"><div style="box-sizing: border-box; font-size: 0; text-align: left; color: #232F3E; "><div style="display: inline-block; font-size: 10px; font-family: Helvetica; color: light-dark(#232F3E, #bdc7d4); line-height: 1.2; pointer-events: all; white-space: normal; word-wrap: normal; ">✓ サービス管理権限 (Service-managed) = Organizations と統合 → 自動デプロイで 新規アカウントにも自動展開<br />  → 信頼されたアクセスを有効にして「組織へのデプロイ」を選択 (OU / 組織全体)<br />✗ セルフ管理権限 (Self-managed) = 各ターゲットアカウントに AWSCloudFormationStackSetExecutionRole を<br />  手動で用意する必要がある → 1500+ アカウントだと現実的でない<br />✓ 自動デプロイ を ON にすると、アカウントが OU に追加された瞬間にスタックインスタンスが自動作成される</div></div></div></foreignObject><text x="57" y="593" fill="#232F3E" font-family="Helvetica" font-size="10px">✓ サービス管理権限 (Service-managed) = Organizations と統合 → 自動デプロイで 新規アカウントにも自動展開...</text></switch></g></g></g></g></g></g><switch><g requiredFeatures="http://www.w3.org/TR/SVG11/feature#Extensibility"/><a transform="translate(0,-5)" xlink:href="https://www.drawio.com/doc/faq/svg-export-text-problems" target="_blank"><text text-anchor="middle" font-size="10px" x="50%" y="100%">Text is not SVG - cannot display</text></a></switch></svg>