<?xml version="1.0" encoding="UTF-8"?>
<!DOCTYPE svg PUBLIC "-//W3C//DTD SVG 1.1//EN" "http://www.w3.org/Graphics/SVG/1.1/DTD/svg11.dtd">
<svg xmlns="http://www.w3.org/2000/svg" style="background: transparent; background-color: transparent; color-scheme: light;" xmlns:xlink="http://www.w3.org/1999/xlink" version="1.1" width="1001px" height="584px" viewBox="0 0 1001 584"><defs/><g><g data-cell-id="0"><g data-cell-id="1"><g data-cell-id="title"><g transform="translate(0.5,0.5)"><rect x="0" y="0" width="1000" height="28" fill="none" stroke="none" pointer-events="all"/></g><g><g><switch><foreignObject style="overflow: visible; text-align: left;" pointer-events="none" width="100%" height="100%" requiredFeatures="http://www.w3.org/TR/SVG11/feature#Extensibility"><div xmlns="http://www.w3.org/1999/xhtml" style="display: flex; align-items: unsafe center; justify-content: unsafe center; width: 998px; height: 1px; padding-top: 14px; margin-left: 1px;"><div style="box-sizing: border-box; font-size: 0; text-align: center; color: #232F3E; "><div style="display: inline-block; font-size: 16px; font-family: Helvetica; color: light-dark(#232F3E, #bdc7d4); line-height: 1.2; pointer-events: all; font-weight: bold; white-space: normal; word-wrap: normal; ">UDEMY-092 / 医療EHR: DynamoDB Global Tables + Aurora Global DB</div></div></div></foreignObject><text x="500" y="19" fill="#232F3E" font-family="Helvetica" font-size="16px" text-anchor="middle" font-weight="bold">UDEMY-092 / 医療EHR: DynamoDB Global Tables + Aurora Global DB</text></switch></g></g></g><g data-cell-id="r1"><g transform="translate(0.5,0.5)"><path d="M 20 52 L 480 52 L 480 492 L 20 492 Z" fill="none" stroke="#3b48cc" stroke-miterlimit="10" pointer-events="all" style="stroke: light-dark(rgb(59, 72, 204), rgb(152, 163, 255));"/><path d="M 28.06 55.47 C 27.47 55.47 27 55.95 27 56.53 C 27 56.99 27.3 57.39 27.71 57.53 L 27.71 72.82 L 25.95 72.82 L 25.95 73.57 L 30.16 73.57 L 30.16 72.82 L 28.46 72.82 L 28.46 64.75 L 39.84 64.75 L 37.19 61.59 L 39.83 58.36 L 28.46 58.36 L 28.46 57.51 C 28.85 57.35 29.12 56.97 29.12 56.53 C 29.12 55.95 28.64 55.47 28.06 55.47 Z M 28.06 56.22 C 28.23 56.22 28.37 56.35 28.37 56.53 C 28.37 56.71 28.23 56.84 28.06 56.84 C 27.88 56.84 27.75 56.71 27.75 56.53 C 27.75 56.35 27.88 56.22 28.06 56.22 Z M 28.46 59.11 L 38.25 59.11 L 36.22 61.6 L 38.23 64 L 28.46 64 Z M 20 77 L 20 52 L 45 52 L 45 77 Z" fill="#3b48cc" stroke="none" pointer-events="all" style="fill: light-dark(rgb(59, 72, 204), rgb(152, 163, 255));"/></g><g><g><switch><foreignObject style="overflow: visible; text-align: left;" pointer-events="none" width="100%" height="100%" requiredFeatures="http://www.w3.org/TR/SVG11/feature#Extensibility"><div xmlns="http://www.w3.org/1999/xhtml" style="display: flex; align-items: unsafe flex-start; justify-content: unsafe flex-start; width: 428px; height: 1px; padding-top: 59px; margin-left: 52px;"><div style="box-sizing: border-box; font-size: 0; text-align: left; color: #3B48CC; "><div style="display: inline-block; font-size: 11px; font-family: Helvetica; color: light-dark(#3B48CC, #98a3ff); line-height: 1.2; pointer-events: all; font-weight: bold; white-space: normal; word-wrap: normal; ">Region 1 (Primary)</div></div></div></foreignObject><text x="52" y="70" fill="#3B48CC" font-family="Helvetica" font-size="11px" font-weight="bold">Region 1 (Primary)</text></switch></g></g></g><g data-cell-id="app1"><g transform="translate(0.5,0.5)"><path d="M 60 112 L 110 112 L 110 162 L 60 162 Z" fill="#ff9900" stroke="none" pointer-events="all" style="fill: light-dark(rgb(255, 153, 0), rgb(175, 87, 0));"/><path d="M 75.71 146.29 L 93.57 146.29 L 93.57 128.43 L 75.71 128.43 Z M 95 128.43 L 97.86 128.43 L 97.86 129.86 L 95 129.86 L 95 132.71 L 97.86 132.71 L 97.86 134.14 L 95 134.14 L 95 136.29 L 97.86 136.29 L 97.86 137.71 L 95 137.71 L 95 140.57 L 97.86 140.57 L 97.86 142 L 95 142 L 95 144.86 L 97.86 144.86 L 97.86 146.29 L 95 146.29 L 95 146.38 C 95 147.12 94.4 147.71 93.67 147.71 L 93.57 147.71 L 93.57 150.57 L 92.14 150.57 L 92.14 147.71 L 89.29 147.71 L 89.29 150.57 L 87.86 150.57 L 87.86 147.71 L 85.71 147.71 L 85.71 150.57 L 84.29 150.57 L 84.29 147.71 L 81.43 147.71 L 81.43 150.57 L 80 150.57 L 80 147.71 L 77.14 147.71 L 77.14 150.57 L 75.71 150.57 L 75.71 147.71 L 75.62 147.71 C 74.88 147.71 74.29 147.12 74.29 146.38 L 74.29 146.29 L 72.14 146.29 L 72.14 144.86 L 74.29 144.86 L 74.29 142 L 72.14 142 L 72.14 140.57 L 74.29 140.57 L 74.29 137.71 L 72.14 137.71 L 72.14 136.29 L 74.29 136.29 L 74.29 134.14 L 72.14 134.14 L 72.14 132.71 L 74.29 132.71 L 74.29 129.86 L 72.14 129.86 L 72.14 128.43 L 74.29 128.43 L 74.29 128.33 C 74.29 127.6 74.88 127 75.62 127 L 75.71 127 L 75.71 124.14 L 77.14 124.14 L 77.14 127 L 80 127 L 80 124.14 L 81.43 124.14 L 81.43 127 L 84.29 127 L 84.29 124.14 L 85.71 124.14 L 85.71 127 L 87.86 127 L 87.86 124.14 L 89.29 124.14 L 89.29 127 L 92.14 127 L 92.14 124.14 L 93.57 124.14 L 93.57 127 L 93.67 127 C 94.4 127 95 127.6 95 128.33 Z M 85.71 155.48 C 85.71 155.53 85.67 155.57 85.63 155.57 L 66.52 155.57 C 66.47 155.57 66.43 155.53 66.43 155.48 L 66.43 136.37 C 66.43 136.33 66.47 136.29 66.52 136.29 L 70.71 136.29 L 70.71 134.86 L 66.52 134.86 C 65.68 134.86 65 135.54 65 136.37 L 65 155.48 C 65 156.32 65.68 157 66.52 157 L 85.63 157 C 86.46 157 87.14 156.32 87.14 155.48 L 87.14 152 L 85.71 152 Z M 105 118.52 L 105 137.63 C 105 138.46 104.32 139.14 103.48 139.14 L 99.29 139.14 L 99.29 137.71 L 103.48 137.71 C 103.53 137.71 103.57 137.67 103.57 137.63 L 103.57 118.52 C 103.57 118.47 103.53 118.43 103.48 118.43 L 84.37 118.43 C 84.33 118.43 84.29 118.47 84.29 118.52 L 84.29 122.71 L 82.86 122.71 L 82.86 118.52 C 82.86 117.68 83.54 117 84.37 117 L 103.48 117 C 104.32 117 105 117.68 105 118.52 Z" fill="#ffffff" stroke="none" pointer-events="all" style="fill: light-dark(rgb(255, 255, 255), rgb(18, 18, 18));"/></g></g><g data-cell-id="app1_l"><g transform="translate(0.5,0.5)"><rect x="30" y="170" width="110" height="28" fill="none" stroke="none" pointer-events="all"/></g><g><g><switch><foreignObject style="overflow: visible; text-align: left;" pointer-events="none" width="100%" height="100%" requiredFeatures="http://www.w3.org/TR/SVG11/feature#Extensibility"><div xmlns="http://www.w3.org/1999/xhtml" style="display: flex; align-items: unsafe center; justify-content: unsafe center; width: 108px; height: 1px; padding-top: 184px; margin-left: 31px;"><div style="box-sizing: border-box; font-size: 0; text-align: center; color: #232F3E; "><div style="display: inline-block; font-size: 9px; font-family: Helvetica; color: light-dark(#232F3E, #bdc7d4); line-height: 1.2; pointer-events: all; font-weight: bold; white-space: normal; word-wrap: normal; ">EHR/予約<br />アプリ</div></div></div></foreignObject><text x="85" y="187" fill="#232F3E" font-family="Helvetica" font-size="9px" text-anchor="middle" font-weight="bold">EHR/予約...</text></switch></g></g></g><g data-cell-id="ddb1"><g transform="translate(0.5,0.5)"><path d="M 190 112 L 240 112 L 240 162 L 190 162 Z" fill="#3b48cc" stroke="none" pointer-events="all" style="fill: light-dark(rgb(59, 72, 204), rgb(152, 163, 255));"/><path d="M 223.61 147.61 C 221.22 149.53 216.22 150.55 211.43 150.55 C 206.65 150.55 201.64 149.53 199.26 147.61 L 199.26 151.49 L 199.26 151.49 C 199.26 153.43 204.26 155.58 211.43 155.58 C 218.6 155.58 223.6 153.43 223.61 151.49 Z M 223.61 140.23 L 225.03 140.22 L 225.03 140.23 C 225.03 141.09 224.6 141.9 223.76 142.64 C 224.78 143.53 225.03 144.41 225.03 145.04 C 225.03 145.05 225.03 145.05 225.03 145.05 L 225.03 151.49 L 225.03 151.49 C 225.03 155.07 218.03 157 211.43 157 C 204.85 157 197.87 155.08 197.83 151.51 C 197.83 151.51 197.83 151.51 197.83 151.5 L 197.83 145.04 C 197.83 145.04 197.83 145.04 197.83 145.03 C 197.83 144.41 198.09 143.53 199.11 142.63 C 198.09 141.74 197.84 140.87 197.83 140.25 L 197.83 140.25 C 197.83 140.24 197.83 140.24 197.83 140.24 L 197.83 133.77 C 197.83 133.77 197.83 133.77 197.83 133.77 C 197.83 133.14 198.09 132.26 199.11 131.37 C 198.09 130.47 197.84 129.6 197.83 128.98 L 197.83 128.98 C 197.83 128.98 197.83 128.97 197.83 128.97 L 197.83 122.51 C 197.83 122.51 197.83 122.5 197.83 122.5 C 197.84 118.93 204.84 117 211.43 117 C 215.15 117 218.73 117.59 221.24 118.62 L 220.7 119.93 C 218.35 118.97 214.97 118.42 211.43 118.42 C 204.26 118.42 199.26 120.58 199.26 122.51 C 199.26 124.45 204.26 126.61 211.43 126.61 C 211.63 126.61 211.82 126.61 212.01 126.6 L 212.07 128.02 C 211.86 128.02 211.64 128.02 211.43 128.02 C 206.65 128.02 201.64 127 199.26 125.08 L 199.26 128.96 L 199.26 128.96 L 199.26 128.97 C 199.27 129.72 200.03 130.37 200.67 130.78 C 202.59 132 206.03 132.84 209.87 133.01 L 209.81 134.43 C 205.92 134.25 202.51 133.44 200.32 132.21 C 199.78 132.61 199.26 133.16 199.26 133.78 C 199.26 135.71 204.26 137.87 211.43 137.87 C 212.14 137.87 212.83 137.85 213.51 137.8 L 213.61 139.22 C 212.9 139.26 212.17 139.29 211.43 139.29 C 206.65 139.29 201.64 138.27 199.26 136.34 L 199.26 140.22 L 199.26 140.22 C 199.27 140.98 200.03 141.63 200.67 142.04 C 202.86 143.44 206.99 144.32 211.43 144.32 L 211.75 144.32 L 211.75 145.74 L 211.43 145.74 C 206.92 145.74 202.82 144.9 200.31 143.48 C 199.77 143.88 199.26 144.43 199.26 145.04 C 199.26 146.98 204.26 149.14 211.43 149.14 C 218.6 149.14 223.6 146.98 223.61 145.05 L 223.61 145.04 L 223.61 145.04 C 223.6 144.42 223.09 143.88 222.55 143.48 C 222.2 143.67 221.83 143.86 221.4 144.04 L 220.86 142.73 C 221.38 142.52 221.83 142.29 222.19 142.04 C 222.84 141.62 223.61 140.97 223.61 140.23 Z M 229.72 129.87 L 225.72 129.87 C 225.49 129.87 225.26 129.75 225.13 129.56 C 225 129.36 224.97 129.12 225.06 128.9 L 227.49 122.81 L 218.27 122.81 L 213.99 131.31 L 218.54 131.31 C 218.77 131.31 218.99 131.42 219.12 131.6 C 219.26 131.79 219.29 132.02 219.23 132.24 L 215.16 144.92 Z M 231.92 129.65 L 214.06 148.1 C 213.92 148.24 213.73 148.32 213.54 148.32 C 213.42 148.32 213.29 148.28 213.18 148.22 C 212.89 148.05 212.76 147.71 212.86 147.39 L 217.57 132.73 L 212.83 132.73 C 212.58 132.73 212.35 132.6 212.22 132.4 C 212.09 132.19 212.08 131.93 212.19 131.71 L 217.19 121.79 C 217.31 121.55 217.56 121.4 217.83 121.4 L 228.54 121.4 C 228.78 121.4 229 121.51 229.14 121.71 C 229.27 121.9 229.3 122.15 229.21 122.37 L 226.77 128.45 L 231.4 128.45 C 231.69 128.45 231.95 128.62 232.06 128.88 C 232.17 129.14 232.11 129.45 231.92 129.65 Z M 200.3 151.77 C 201.31 152.34 202.58 152.82 204.08 153.19 L 204.43 151.82 C 203.08 151.48 201.89 151.04 201 150.54 Z M 204.08 141.86 L 204.43 140.48 C 203.08 140.14 201.89 139.7 201 139.2 L 200.3 140.43 C 201.31 141 202.58 141.48 204.08 141.86 Z M 200.3 129.1 L 201 127.86 C 201.89 128.37 203.08 128.81 204.43 129.15 L 204.08 130.52 C 202.58 130.15 201.31 129.67 200.3 129.1 Z" fill="#ffffff" stroke="none" pointer-events="all" style="fill: light-dark(rgb(255, 255, 255), rgb(18, 18, 18));"/></g></g><g data-cell-id="ddb1_l"><g transform="translate(0.5,0.5)"><rect x="135" y="170" width="160" height="28" fill="none" stroke="none" pointer-events="all"/></g><g><g><switch><foreignObject style="overflow: visible; text-align: left;" pointer-events="none" width="100%" height="100%" requiredFeatures="http://www.w3.org/TR/SVG11/feature#Extensibility"><div xmlns="http://www.w3.org/1999/xhtml" style="display: flex; align-items: unsafe center; justify-content: unsafe center; width: 158px; height: 1px; padding-top: 184px; margin-left: 136px;"><div style="box-sizing: border-box; font-size: 0; text-align: center; color: #232F3E; "><div style="display: inline-block; font-size: 9px; font-family: Helvetica; color: light-dark(#232F3E, #bdc7d4); line-height: 1.2; pointer-events: all; font-weight: bold; white-space: normal; word-wrap: normal; ">DynamoDB GT<br />(患者識別/予約)</div></div></div></foreignObject><text x="215" y="187" fill="#232F3E" font-family="Helvetica" font-size="9px" text-anchor="middle" font-weight="bold">DynamoDB GT...</text></switch></g></g></g><g data-cell-id="aw1"><g transform="translate(0.5,0.5)"><path d="M 370 112 L 420 112 L 420 162 L 370 162 Z" fill="#3b48cc" stroke="none" pointer-events="all" style="fill: light-dark(rgb(59, 72, 204), rgb(152, 163, 255));"/><path d="M 398.51 121.86 L 396.44 121.86 L 396.44 120.47 L 398.51 120.47 L 398.51 118.38 L 399.89 118.38 L 399.89 120.47 L 401.97 120.47 L 401.97 121.86 L 399.89 121.86 L 399.89 123.95 L 398.51 123.95 Z M 406.81 129.51 L 404.73 129.51 L 404.73 128.12 L 406.81 128.12 L 406.81 126.03 L 408.19 126.03 L 408.19 128.12 L 410.27 128.12 L 410.27 129.51 L 408.19 129.51 L 408.19 131.6 L 406.81 131.6 Z M 403.21 151.51 C 401.89 148.15 398.84 145.08 395.5 143.75 C 398.84 142.42 401.89 139.36 403.21 136 C 404.53 139.36 407.58 142.42 410.91 143.75 C 407.58 145.08 404.53 148.15 403.21 151.51 Z M 414.31 143.06 C 409.44 143.06 403.9 137.48 403.9 132.58 C 403.9 132.2 403.59 131.89 403.21 131.89 C 402.83 131.89 402.52 132.2 402.52 132.58 C 402.52 137.48 396.97 143.06 392.11 143.06 C 391.72 143.06 391.42 143.37 391.42 143.75 C 391.42 144.14 391.72 144.45 392.11 144.45 C 396.97 144.45 402.52 150.03 402.52 154.92 C 402.52 155.31 402.83 155.62 403.21 155.62 C 403.59 155.62 403.9 155.31 403.9 154.92 C 403.9 150.03 409.44 144.45 414.31 144.45 C 414.69 144.45 415 144.14 415 143.75 C 415 143.37 414.69 143.06 414.31 143.06 Z M 376.38 129.35 C 378.4 130.82 382.31 131.6 386.06 131.6 C 389.82 131.6 393.73 130.82 395.74 129.35 L 395.74 136.01 C 394.75 137.35 391.08 138.66 386.2 138.66 C 380.58 138.66 376.38 136.89 376.38 135.31 Z M 386.06 123.95 C 392.06 123.95 395.74 125.77 395.74 127.08 C 395.74 128.39 392.06 130.21 386.06 130.21 C 380.07 130.21 376.38 128.39 376.38 127.08 C 376.38 125.77 380.07 123.95 386.06 123.95 Z M 395.74 150.06 C 395.74 151.67 391.6 153.46 386.06 153.46 C 380.52 153.46 376.38 151.67 376.38 150.06 L 376.38 145.62 C 378.42 147.17 382.41 148 386.24 148 C 388.9 148 391.48 147.62 393.49 146.93 L 393.05 145.61 C 391.18 146.25 388.76 146.6 386.24 146.6 C 380.6 146.6 376.38 144.84 376.38 143.26 L 376.38 137.68 C 378.42 139.23 382.39 140.05 386.2 140.05 C 390.29 140.05 393.79 139.2 395.74 137.86 L 395.74 139.95 L 397.13 139.95 L 397.13 127.08 C 397.13 124.14 391.43 122.55 386.06 122.55 C 380.92 122.55 375.48 124.02 375.04 126.73 L 375 126.73 L 375 150.06 C 375 153.17 380.7 154.85 386.06 154.85 C 391.43 154.85 397.13 153.17 397.13 150.06 L 397.13 147.61 L 395.74 147.61 Z" fill="#ffffff" stroke="none" pointer-events="all" style="fill: light-dark(rgb(255, 255, 255), rgb(18, 18, 18));"/></g></g><g data-cell-id="aw1_l"><g transform="translate(0.5,0.5)"><rect x="325" y="170" width="140" height="28" fill="none" stroke="none" pointer-events="all"/></g><g><g><switch><foreignObject style="overflow: visible; text-align: left;" pointer-events="none" width="100%" height="100%" requiredFeatures="http://www.w3.org/TR/SVG11/feature#Extensibility"><div xmlns="http://www.w3.org/1999/xhtml" style="display: flex; align-items: unsafe center; justify-content: unsafe center; width: 138px; height: 1px; padding-top: 184px; margin-left: 326px;"><div style="box-sizing: border-box; font-size: 0; text-align: center; color: #232F3E; "><div style="display: inline-block; font-size: 9px; font-family: Helvetica; color: light-dark(#232F3E, #bdc7d4); line-height: 1.2; pointer-events: all; font-weight: bold; white-space: normal; word-wrap: normal; ">Aurora Global<br />(EHR 本体)</div></div></div></foreignObject><text x="395" y="187" fill="#232F3E" font-family="Helvetica" font-size="9px" text-anchor="middle" font-weight="bold">Aurora Global...</text></switch></g></g></g><g data-cell-id="n1"><g transform="translate(0.5,0.5)"><rect x="40" y="232" width="430" height="260" fill="none" stroke="none" pointer-events="all"/></g><g><g><switch><foreignObject style="overflow: visible; text-align: left;" pointer-events="none" width="100%" height="100%" requiredFeatures="http://www.w3.org/TR/SVG11/feature#Extensibility"><div xmlns="http://www.w3.org/1999/xhtml" style="display: flex; align-items: unsafe flex-start; justify-content: unsafe flex-start; width: 428px; height: 1px; padding-top: 239px; margin-left: 42px;"><div style="box-sizing: border-box; font-size: 0; text-align: left; color: #3B48CC; "><div style="display: inline-block; font-size: 10px; font-family: Helvetica; color: light-dark(#3B48CC, #98a3ff); line-height: 1.2; pointer-events: all; white-space: normal; word-wrap: normal; ">【設計判断】<br /><br />① 患者識別ID/予約テーブル(KVベース)<br /> → DynamoDB Global Tables<br />  (Active-Active、低レイテンシ、耐障害性)<br /><br />② 医療記録本体 (関係/トランザクション)<br /> → Aurora Global Database<br />  (RPO&lt;1秒、ACID保証)<br /><br />③ マルチリージョンで常時待機<br />  災害時も閉院なし</div></div></div></foreignObject><text x="42" y="249" fill="#3B48CC" font-family="Helvetica" font-size="10px">【設計判断】① 患者識別ID/予約テーブル(KVベース)...</text></switch></g></g></g><g data-cell-id="r2"><g transform="translate(0.5,0.5)"><path d="M 520 52 L 980 52 L 980 492 L 520 492 Z" fill="none" stroke="#7aa116" stroke-miterlimit="10" pointer-events="all" style="stroke: light-dark(rgb(122, 161, 22), rgb(97, 130, 11));"/><path d="M 528.06 55.47 C 527.47 55.47 527 55.95 527 56.53 C 527 56.99 527.3 57.39 527.71 57.53 L 527.71 72.82 L 525.95 72.82 L 525.95 73.57 L 530.16 73.57 L 530.16 72.82 L 528.46 72.82 L 528.46 64.75 L 539.84 64.75 L 537.19 61.59 L 539.83 58.36 L 528.46 58.36 L 528.46 57.51 C 528.85 57.35 529.12 56.97 529.12 56.53 C 529.12 55.95 528.64 55.47 528.06 55.47 Z M 528.06 56.22 C 528.23 56.22 528.37 56.35 528.37 56.53 C 528.37 56.71 528.23 56.84 528.06 56.84 C 527.88 56.84 527.75 56.71 527.75 56.53 C 527.75 56.35 527.88 56.22 528.06 56.22 Z M 528.46 59.11 L 538.25 59.11 L 536.22 61.6 L 538.23 64 L 528.46 64 Z M 520 77 L 520 52 L 545 52 L 545 77 Z" fill="#7aa116" stroke="none" pointer-events="all" style="fill: light-dark(rgb(122, 161, 22), rgb(97, 130, 11));"/></g><g><g><switch><foreignObject style="overflow: visible; text-align: left;" pointer-events="none" width="100%" height="100%" requiredFeatures="http://www.w3.org/TR/SVG11/feature#Extensibility"><div xmlns="http://www.w3.org/1999/xhtml" style="display: flex; align-items: unsafe flex-start; justify-content: unsafe flex-start; width: 428px; height: 1px; padding-top: 59px; margin-left: 552px;"><div style="box-sizing: border-box; font-size: 0; text-align: left; color: #7AA116; "><div style="display: inline-block; font-size: 11px; font-family: Helvetica; color: light-dark(#7AA116, #61820b); line-height: 1.2; pointer-events: all; font-weight: bold; white-space: normal; word-wrap: normal; ">Region 2 (DR/Active)</div></div></div></foreignObject><text x="552" y="70" fill="#7AA116" font-family="Helvetica" font-size="11px" font-weight="bold">Region 2 (DR/Active)</text></switch></g></g></g><g data-cell-id="app2"><g transform="translate(0.5,0.5)"><path d="M 560 112 L 610 112 L 610 162 L 560 162 Z" fill="#ff9900" stroke="none" pointer-events="all" style="fill: light-dark(rgb(255, 153, 0), rgb(175, 87, 0));"/><path d="M 575.71 146.29 L 593.57 146.29 L 593.57 128.43 L 575.71 128.43 Z M 595 128.43 L 597.86 128.43 L 597.86 129.86 L 595 129.86 L 595 132.71 L 597.86 132.71 L 597.86 134.14 L 595 134.14 L 595 136.29 L 597.86 136.29 L 597.86 137.71 L 595 137.71 L 595 140.57 L 597.86 140.57 L 597.86 142 L 595 142 L 595 144.86 L 597.86 144.86 L 597.86 146.29 L 595 146.29 L 595 146.38 C 595 147.12 594.4 147.71 593.67 147.71 L 593.57 147.71 L 593.57 150.57 L 592.14 150.57 L 592.14 147.71 L 589.29 147.71 L 589.29 150.57 L 587.86 150.57 L 587.86 147.71 L 585.71 147.71 L 585.71 150.57 L 584.29 150.57 L 584.29 147.71 L 581.43 147.71 L 581.43 150.57 L 580 150.57 L 580 147.71 L 577.14 147.71 L 577.14 150.57 L 575.71 150.57 L 575.71 147.71 L 575.62 147.71 C 574.88 147.71 574.29 147.12 574.29 146.38 L 574.29 146.29 L 572.14 146.29 L 572.14 144.86 L 574.29 144.86 L 574.29 142 L 572.14 142 L 572.14 140.57 L 574.29 140.57 L 574.29 137.71 L 572.14 137.71 L 572.14 136.29 L 574.29 136.29 L 574.29 134.14 L 572.14 134.14 L 572.14 132.71 L 574.29 132.71 L 574.29 129.86 L 572.14 129.86 L 572.14 128.43 L 574.29 128.43 L 574.29 128.33 C 574.29 127.6 574.88 127 575.62 127 L 575.71 127 L 575.71 124.14 L 577.14 124.14 L 577.14 127 L 580 127 L 580 124.14 L 581.43 124.14 L 581.43 127 L 584.29 127 L 584.29 124.14 L 585.71 124.14 L 585.71 127 L 587.86 127 L 587.86 124.14 L 589.29 124.14 L 589.29 127 L 592.14 127 L 592.14 124.14 L 593.57 124.14 L 593.57 127 L 593.67 127 C 594.4 127 595 127.6 595 128.33 Z M 585.71 155.48 C 585.71 155.53 585.67 155.57 585.63 155.57 L 566.52 155.57 C 566.47 155.57 566.43 155.53 566.43 155.48 L 566.43 136.37 C 566.43 136.33 566.47 136.29 566.52 136.29 L 570.71 136.29 L 570.71 134.86 L 566.52 134.86 C 565.68 134.86 565 135.54 565 136.37 L 565 155.48 C 565 156.32 565.68 157 566.52 157 L 585.63 157 C 586.46 157 587.14 156.32 587.14 155.48 L 587.14 152 L 585.71 152 Z M 605 118.52 L 605 137.63 C 605 138.46 604.32 139.14 603.48 139.14 L 599.29 139.14 L 599.29 137.71 L 603.48 137.71 C 603.53 137.71 603.57 137.67 603.57 137.63 L 603.57 118.52 C 603.57 118.47 603.53 118.43 603.48 118.43 L 584.37 118.43 C 584.33 118.43 584.29 118.47 584.29 118.52 L 584.29 122.71 L 582.86 122.71 L 582.86 118.52 C 582.86 117.68 583.54 117 584.37 117 L 603.48 117 C 604.32 117 605 117.68 605 118.52 Z" fill="#ffffff" stroke="none" pointer-events="all" style="fill: light-dark(rgb(255, 255, 255), rgb(18, 18, 18));"/></g></g><g data-cell-id="app2_l"><g transform="translate(0.5,0.5)"><rect x="530" y="170" width="110" height="28" fill="none" stroke="none" pointer-events="all"/></g><g><g><switch><foreignObject style="overflow: visible; text-align: left;" pointer-events="none" width="100%" height="100%" requiredFeatures="http://www.w3.org/TR/SVG11/feature#Extensibility"><div xmlns="http://www.w3.org/1999/xhtml" style="display: flex; align-items: unsafe center; justify-content: unsafe center; width: 108px; height: 1px; padding-top: 184px; margin-left: 531px;"><div style="box-sizing: border-box; font-size: 0; text-align: center; color: #232F3E; "><div style="display: inline-block; font-size: 9px; font-family: Helvetica; color: light-dark(#232F3E, #bdc7d4); line-height: 1.2; pointer-events: all; font-weight: bold; white-space: normal; word-wrap: normal; ">EHR/予約<br />アプリ</div></div></div></foreignObject><text x="585" y="187" fill="#232F3E" font-family="Helvetica" font-size="9px" text-anchor="middle" font-weight="bold">EHR/予約...</text></switch></g></g></g><g data-cell-id="ddb2"><g transform="translate(0.5,0.5)"><path d="M 690 112 L 740 112 L 740 162 L 690 162 Z" fill="#3b48cc" stroke="none" pointer-events="all" style="fill: light-dark(rgb(59, 72, 204), rgb(152, 163, 255));"/><path d="M 723.61 147.61 C 721.22 149.53 716.22 150.55 711.43 150.55 C 706.65 150.55 701.64 149.53 699.26 147.61 L 699.26 151.49 L 699.26 151.49 C 699.26 153.43 704.26 155.58 711.43 155.58 C 718.6 155.58 723.6 153.43 723.61 151.49 Z M 723.61 140.23 L 725.03 140.22 L 725.03 140.23 C 725.03 141.09 724.6 141.9 723.76 142.64 C 724.78 143.53 725.03 144.41 725.03 145.04 C 725.03 145.05 725.03 145.05 725.03 145.05 L 725.03 151.49 L 725.03 151.49 C 725.03 155.07 718.03 157 711.43 157 C 704.85 157 697.87 155.08 697.83 151.51 C 697.83 151.51 697.83 151.51 697.83 151.5 L 697.83 145.04 C 697.83 145.04 697.83 145.04 697.83 145.03 C 697.83 144.41 698.09 143.53 699.11 142.63 C 698.09 141.74 697.84 140.87 697.83 140.25 L 697.83 140.25 C 697.83 140.24 697.83 140.24 697.83 140.24 L 697.83 133.77 C 697.83 133.77 697.83 133.77 697.83 133.77 C 697.83 133.14 698.09 132.26 699.11 131.37 C 698.09 130.47 697.84 129.6 697.83 128.98 L 697.83 128.98 C 697.83 128.98 697.83 128.97 697.83 128.97 L 697.83 122.51 C 697.83 122.51 697.83 122.5 697.83 122.5 C 697.84 118.93 704.84 117 711.43 117 C 715.15 117 718.73 117.59 721.24 118.62 L 720.7 119.93 C 718.35 118.97 714.97 118.42 711.43 118.42 C 704.26 118.42 699.26 120.58 699.26 122.51 C 699.26 124.45 704.26 126.61 711.43 126.61 C 711.63 126.61 711.82 126.61 712.01 126.6 L 712.07 128.02 C 711.86 128.02 711.64 128.02 711.43 128.02 C 706.65 128.02 701.64 127 699.26 125.08 L 699.26 128.96 L 699.26 128.96 L 699.26 128.97 C 699.27 129.72 700.03 130.37 700.67 130.78 C 702.59 132 706.03 132.84 709.87 133.01 L 709.81 134.43 C 705.92 134.25 702.51 133.44 700.32 132.21 C 699.78 132.61 699.26 133.16 699.26 133.78 C 699.26 135.71 704.26 137.87 711.43 137.87 C 712.14 137.87 712.83 137.85 713.51 137.8 L 713.61 139.22 C 712.9 139.26 712.17 139.29 711.43 139.29 C 706.65 139.29 701.64 138.27 699.26 136.34 L 699.26 140.22 L 699.26 140.22 C 699.27 140.98 700.03 141.63 700.67 142.04 C 702.86 143.44 706.99 144.32 711.43 144.32 L 711.75 144.32 L 711.75 145.74 L 711.43 145.74 C 706.92 145.74 702.82 144.9 700.31 143.48 C 699.77 143.88 699.26 144.43 699.26 145.04 C 699.26 146.98 704.26 149.14 711.43 149.14 C 718.6 149.14 723.6 146.98 723.61 145.05 L 723.61 145.04 L 723.61 145.04 C 723.6 144.42 723.09 143.88 722.55 143.48 C 722.2 143.67 721.83 143.86 721.4 144.04 L 720.86 142.73 C 721.38 142.52 721.83 142.29 722.19 142.04 C 722.84 141.62 723.61 140.97 723.61 140.23 Z M 729.72 129.87 L 725.72 129.87 C 725.49 129.87 725.26 129.75 725.13 129.56 C 725 129.36 724.97 129.12 725.06 128.9 L 727.49 122.81 L 718.27 122.81 L 713.99 131.31 L 718.54 131.31 C 718.77 131.31 718.99 131.42 719.12 131.6 C 719.26 131.79 719.29 132.02 719.23 132.24 L 715.16 144.92 Z M 731.92 129.65 L 714.06 148.1 C 713.92 148.24 713.73 148.32 713.54 148.32 C 713.42 148.32 713.29 148.28 713.18 148.22 C 712.89 148.05 712.76 147.71 712.86 147.39 L 717.57 132.73 L 712.83 132.73 C 712.58 132.73 712.35 132.6 712.22 132.4 C 712.09 132.19 712.08 131.93 712.19 131.71 L 717.19 121.79 C 717.31 121.55 717.56 121.4 717.83 121.4 L 728.54 121.4 C 728.78 121.4 729 121.51 729.14 121.71 C 729.27 121.9 729.3 122.15 729.21 122.37 L 726.77 128.45 L 731.4 128.45 C 731.69 128.45 731.95 128.62 732.06 128.88 C 732.17 129.14 732.11 129.45 731.92 129.65 Z M 700.3 151.77 C 701.31 152.34 702.58 152.82 704.08 153.19 L 704.43 151.82 C 703.08 151.48 701.89 151.04 701 150.54 Z M 704.08 141.86 L 704.43 140.48 C 703.08 140.14 701.89 139.7 701 139.2 L 700.3 140.43 C 701.31 141 702.58 141.48 704.08 141.86 Z M 700.3 129.1 L 701 127.86 C 701.89 128.37 703.08 128.81 704.43 129.15 L 704.08 130.52 C 702.58 130.15 701.31 129.67 700.3 129.1 Z" fill="#ffffff" stroke="none" pointer-events="all" style="fill: light-dark(rgb(255, 255, 255), rgb(18, 18, 18));"/></g></g><g data-cell-id="ddb2_l"><g transform="translate(0.5,0.5)"><rect x="645" y="170" width="140" height="28" fill="none" stroke="none" pointer-events="all"/></g><g><g><switch><foreignObject style="overflow: visible; text-align: left;" pointer-events="none" width="100%" height="100%" requiredFeatures="http://www.w3.org/TR/SVG11/feature#Extensibility"><div xmlns="http://www.w3.org/1999/xhtml" style="display: flex; align-items: unsafe center; justify-content: unsafe center; width: 138px; height: 1px; padding-top: 184px; margin-left: 646px;"><div style="box-sizing: border-box; font-size: 0; text-align: center; color: #232F3E; "><div style="display: inline-block; font-size: 9px; font-family: Helvetica; color: light-dark(#232F3E, #bdc7d4); line-height: 1.2; pointer-events: all; font-weight: bold; white-space: normal; word-wrap: normal; ">DynamoDB GT<br />レプリカ</div></div></div></foreignObject><text x="715" y="187" fill="#232F3E" font-family="Helvetica" font-size="9px" text-anchor="middle" font-weight="bold">DynamoDB GT...</text></switch></g></g></g><g data-cell-id="aw2"><g transform="translate(0.5,0.5)"><path d="M 860 112 L 910 112 L 910 162 L 860 162 Z" fill="#3b48cc" stroke="none" pointer-events="all" style="fill: light-dark(rgb(59, 72, 204), rgb(152, 163, 255));"/><path d="M 888.51 121.86 L 886.44 121.86 L 886.44 120.47 L 888.51 120.47 L 888.51 118.38 L 889.89 118.38 L 889.89 120.47 L 891.97 120.47 L 891.97 121.86 L 889.89 121.86 L 889.89 123.95 L 888.51 123.95 Z M 896.81 129.51 L 894.73 129.51 L 894.73 128.12 L 896.81 128.12 L 896.81 126.03 L 898.19 126.03 L 898.19 128.12 L 900.27 128.12 L 900.27 129.51 L 898.19 129.51 L 898.19 131.6 L 896.81 131.6 Z M 893.21 151.51 C 891.89 148.15 888.84 145.08 885.5 143.75 C 888.84 142.42 891.89 139.36 893.21 136 C 894.53 139.36 897.58 142.42 900.91 143.75 C 897.58 145.08 894.53 148.15 893.21 151.51 Z M 904.31 143.06 C 899.44 143.06 893.9 137.48 893.9 132.58 C 893.9 132.2 893.59 131.89 893.21 131.89 C 892.83 131.89 892.52 132.2 892.52 132.58 C 892.52 137.48 886.97 143.06 882.11 143.06 C 881.72 143.06 881.42 143.37 881.42 143.75 C 881.42 144.14 881.72 144.45 882.11 144.45 C 886.97 144.45 892.52 150.03 892.52 154.92 C 892.52 155.31 892.83 155.62 893.21 155.62 C 893.59 155.62 893.9 155.31 893.9 154.92 C 893.9 150.03 899.44 144.45 904.31 144.45 C 904.69 144.45 905 144.14 905 143.75 C 905 143.37 904.69 143.06 904.31 143.06 Z M 866.38 129.35 C 868.4 130.82 872.31 131.6 876.06 131.6 C 879.82 131.6 883.73 130.82 885.74 129.35 L 885.74 136.01 C 884.75 137.35 881.08 138.66 876.2 138.66 C 870.58 138.66 866.38 136.89 866.38 135.31 Z M 876.06 123.95 C 882.06 123.95 885.74 125.77 885.74 127.08 C 885.74 128.39 882.06 130.21 876.06 130.21 C 870.07 130.21 866.38 128.39 866.38 127.08 C 866.38 125.77 870.07 123.95 876.06 123.95 Z M 885.74 150.06 C 885.74 151.67 881.6 153.46 876.06 153.46 C 870.52 153.46 866.38 151.67 866.38 150.06 L 866.38 145.62 C 868.42 147.17 872.41 148 876.24 148 C 878.9 148 881.48 147.62 883.49 146.93 L 883.05 145.61 C 881.18 146.25 878.76 146.6 876.24 146.6 C 870.6 146.6 866.38 144.84 866.38 143.26 L 866.38 137.68 C 868.42 139.23 872.39 140.05 876.2 140.05 C 880.29 140.05 883.79 139.2 885.74 137.86 L 885.74 139.95 L 887.13 139.95 L 887.13 127.08 C 887.13 124.14 881.43 122.55 876.06 122.55 C 870.92 122.55 865.48 124.02 865.04 126.73 L 865 126.73 L 865 150.06 C 865 153.17 870.7 154.85 876.06 154.85 C 881.43 154.85 887.13 153.17 887.13 150.06 L 887.13 147.61 L 885.74 147.61 Z" fill="#ffffff" stroke="none" pointer-events="all" style="fill: light-dark(rgb(255, 255, 255), rgb(18, 18, 18));"/></g></g><g data-cell-id="aw2_l"><g transform="translate(0.5,0.5)"><rect x="815" y="170" width="140" height="28" fill="none" stroke="none" pointer-events="all"/></g><g><g><switch><foreignObject style="overflow: visible; text-align: left;" pointer-events="none" width="100%" height="100%" requiredFeatures="http://www.w3.org/TR/SVG11/feature#Extensibility"><div xmlns="http://www.w3.org/1999/xhtml" style="display: flex; align-items: unsafe center; justify-content: unsafe center; width: 138px; height: 1px; padding-top: 184px; margin-left: 816px;"><div style="box-sizing: border-box; font-size: 0; text-align: center; color: #232F3E; "><div style="display: inline-block; font-size: 9px; font-family: Helvetica; color: light-dark(#232F3E, #bdc7d4); line-height: 1.2; pointer-events: all; font-weight: bold; white-space: normal; word-wrap: normal; ">Aurora Global<br />Secondary</div></div></div></foreignObject><text x="885" y="187" fill="#232F3E" font-family="Helvetica" font-size="9px" text-anchor="middle" font-weight="bold">Aurora Global...</text></switch></g></g></g><g data-cell-id="n2"><g transform="translate(0.5,0.5)"><rect x="540" y="232" width="430" height="260" fill="none" stroke="none" pointer-events="all"/></g><g><g><switch><foreignObject style="overflow: visible; text-align: left;" pointer-events="none" width="100%" height="100%" requiredFeatures="http://www.w3.org/TR/SVG11/feature#Extensibility"><div xmlns="http://www.w3.org/1999/xhtml" style="display: flex; align-items: unsafe flex-start; justify-content: unsafe flex-start; width: 428px; height: 1px; padding-top: 239px; margin-left: 542px;"><div style="box-sizing: border-box; font-size: 0; text-align: left; color: #7AA116; "><div style="display: inline-block; font-size: 10px; font-family: Helvetica; color: light-dark(#7AA116, #61820b); line-height: 1.2; pointer-events: all; white-space: normal; word-wrap: normal; ">【セカンダリ】<br />・DynamoDB: どちら書込でもOK<br />  （LWWで衝突解決）<br /><br />・Aurora: 低レイテンシ読取<br />  障害時 Promote で書込<br /><br />・コンプライアンス: 暗号化/監査<br />  (KMSマルチRegionキー推奨)</div></div></div></foreignObject><text x="542" y="249" fill="#7AA116" font-family="Helvetica" font-size="10px">【セカンダリ】・DynamoDB: どちら書込でもOK...</text></switch></g></g></g><g data-cell-id="rep1"><g transform="translate(0.5,0.5)"><path d="M 250.1 137 L 679.9 137" fill="none" stroke="#e7157b" stroke-width="3" stroke-miterlimit="10" pointer-events="stroke" style="stroke: light-dark(rgb(231, 21, 123), rgb(255, 129, 217));"/><path d="M 243.35 137 L 252.35 132.5 L 250.1 137 L 252.35 141.5 Z" fill="#e7157b" stroke="#e7157b" stroke-width="3" stroke-miterlimit="10" pointer-events="all" style="fill: light-dark(rgb(231, 21, 123), rgb(255, 129, 217)); stroke: light-dark(rgb(231, 21, 123), rgb(255, 129, 217));"/><path d="M 686.65 137 L 677.65 141.5 L 679.9 137 L 677.65 132.5 Z" fill="#e7157b" stroke="#e7157b" stroke-width="3" stroke-miterlimit="10" pointer-events="all" style="fill: light-dark(rgb(231, 21, 123), rgb(255, 129, 217)); stroke: light-dark(rgb(231, 21, 123), rgb(255, 129, 217));"/></g><g data-cell-id="rep1_l"><g><g><switch><foreignObject style="overflow: visible; text-align: left;" pointer-events="none" width="100%" height="100%" requiredFeatures="http://www.w3.org/TR/SVG11/feature#Extensibility"><div xmlns="http://www.w3.org/1999/xhtml" style="display: flex; align-items: unsafe center; justify-content: unsafe center; width: 1px; height: 1px; padding-top: 138px; margin-left: 455px;"><div style="box-sizing: border-box; font-size: 0; text-align: center; color: #E7157B; background-color: #FFFFFF; "><div style="display: inline-block; font-size: 9px; font-family: Helvetica; color: light-dark(#E7157B, #ff81d9); line-height: 1.2; pointer-events: all; background-color: light-dark(#FFFFFF, #121212); white-space: nowrap; ">Global Tables 双方向</div></div></div></foreignObject><text x="455" y="140" fill="#E7157B" font-family="Helvetica" font-size="9px" text-anchor="middle">Global Tables 双方向</text></switch></g></g></g></g><g data-cell-id="rep2"><g><path d="M 420 137 L 848.03 137" fill="none" stroke="#e7157b" stroke-width="4" stroke-miterlimit="10" pointer-events="stroke" style="stroke: light-dark(rgb(231, 21, 123), rgb(255, 129, 217));"/><path d="M 855.53 137 L 845.53 142 L 848.03 137 L 845.53 132 Z" fill="#e7157b" stroke="#e7157b" stroke-width="4" stroke-miterlimit="10" pointer-events="all" style="fill: light-dark(rgb(231, 21, 123), rgb(255, 129, 217)); stroke: light-dark(rgb(231, 21, 123), rgb(255, 129, 217));"/></g><g data-cell-id="rep2_l"><g><g><switch><foreignObject style="overflow: visible; text-align: left;" pointer-events="none" width="100%" height="100%" requiredFeatures="http://www.w3.org/TR/SVG11/feature#Extensibility"><div xmlns="http://www.w3.org/1999/xhtml" style="display: flex; align-items: unsafe center; justify-content: unsafe center; width: 1px; height: 1px; padding-top: 138px; margin-left: 630px;"><div style="box-sizing: border-box; font-size: 0; text-align: center; color: #E7157B; background-color: #FFFFFF; "><div style="display: inline-block; font-size: 9px; font-family: Helvetica; color: light-dark(#E7157B, #ff81d9); line-height: 1.2; pointer-events: all; background-color: light-dark(#FFFFFF, #121212); white-space: nowrap; ">Aurora物理レプリ</div></div></div></foreignObject><text x="630" y="140" fill="#E7157B" font-family="Helvetica" font-size="9px" text-anchor="middle">Aurora物理レプリ</text></switch></g></g></g></g><g data-cell-id="cmp"><g transform="translate(0.5,0.5)"><rect x="20" y="502" width="960" height="80" rx="12" ry="12" fill="#fffde7" stroke="#ff9900" pointer-events="all" style="fill: light-dark(rgb(255, 253, 231), rgb(24, 22, 4)); stroke: light-dark(rgb(255, 153, 0), rgb(175, 87, 0));"/></g><g><g><switch><foreignObject style="overflow: visible; text-align: left;" pointer-events="none" width="100%" height="100%" requiredFeatures="http://www.w3.org/TR/SVG11/feature#Extensibility"><div xmlns="http://www.w3.org/1999/xhtml" style="display: flex; align-items: unsafe flex-start; justify-content: unsafe flex-start; width: 942px; height: 1px; padding-top: 515px; margin-left: 30px;"><div style="box-sizing: border-box; font-size: 0; text-align: left; color: #232F3E; "><div style="display: inline-block; font-size: 10px; font-family: Helvetica; color: light-dark(#232F3E, #bdc7d4); line-height: 1.2; pointer-events: all; white-space: normal; word-wrap: normal; ">💡 KVベースの参照データ → DynamoDB Global Tables、関係トランザクション → Aurora Global DB が定石<br />⚠️ HIPAA: 医療データはKMS暗号化/CloudTrail/VPC分離が必須</div></div></div></foreignObject><text x="30" y="525" fill="#232F3E" font-family="Helvetica" font-size="10px">💡 KVベースの参照データ → DynamoDB Global Tables、関係トランザクション → Aurora Global DB が定石...</text></switch></g></g></g></g></g></g><switch><g requiredFeatures="http://www.w3.org/TR/SVG11/feature#Extensibility"/><a transform="translate(0,-5)" xlink:href="https://www.drawio.com/doc/faq/svg-export-text-problems" target="_blank"><text text-anchor="middle" font-size="10px" x="50%" y="100%">Text is not SVG - cannot display</text></a></switch></svg>