<?xml version="1.0" encoding="UTF-8"?>
<!DOCTYPE svg PUBLIC "-//W3C//DTD SVG 1.1//EN" "http://www.w3.org/Graphics/SVG/1.1/DTD/svg11.dtd">
<svg xmlns="http://www.w3.org/2000/svg" style="background: transparent; background-color: transparent; color-scheme: light;" xmlns:xlink="http://www.w3.org/1999/xlink" version="1.1" width="1001px" height="584px" viewBox="0 0 1001 584"><defs/><g><g data-cell-id="0"><g data-cell-id="1"><g data-cell-id="title"><g transform="translate(0.5,0.5)"><rect x="0" y="0" width="1000" height="28" fill="none" stroke="none" pointer-events="all"/></g><g><g><switch><foreignObject style="overflow: visible; text-align: left;" pointer-events="none" width="100%" height="100%" requiredFeatures="http://www.w3.org/TR/SVG11/feature#Extensibility"><div xmlns="http://www.w3.org/1999/xhtml" style="display: flex; align-items: unsafe center; justify-content: unsafe center; width: 998px; height: 1px; padding-top: 14px; margin-left: 1px;"><div style="box-sizing: border-box; font-size: 0; text-align: center; color: #232F3E; "><div style="display: inline-block; font-size: 16px; font-family: Helvetica; color: light-dark(#232F3E, #bdc7d4); line-height: 1.2; pointer-events: all; font-weight: bold; white-space: normal; word-wrap: normal; ">UDEMY-109 / 正解D+E: Aurora Global + S3 CRR + CloudFront + Route 53 Geoproximity</div></div></div></foreignObject><text x="500" y="19" fill="#232F3E" font-family="Helvetica" font-size="16px" text-anchor="middle" font-weight="bold">UDEMY-109 / 正解D+E: Aurora Global + S3 CRR + CloudFront + Route 53 Geoproximity</text></switch></g></g></g><g data-cell-id="r53"><g transform="translate(0.5,0.5)"><path d="M 340 12 L 390 12 L 390 62 L 340 62 Z" fill="#8c4fff" stroke="none" pointer-events="all" style="fill: light-dark(rgb(140, 79, 255), rgb(177, 125, 255));"/><path d="M 371.19 37.53 C 371.72 38.01 371.99 38.67 371.99 39.49 C 371.99 40.38 371.66 41.09 371.02 41.62 C 370.38 42.15 369.52 42.42 368.44 42.42 C 367.58 42.42 366.74 42.24 365.9 41.87 L 365.9 40.78 C 366.89 41.11 367.74 41.27 368.44 41.27 C 369.13 41.27 369.66 41.12 370.04 40.81 C 370.41 40.5 370.59 40.06 370.59 39.49 C 370.59 38.39 369.9 37.84 368.51 37.84 C 368.07 37.84 367.64 37.86 367.21 37.9 L 367.21 37 L 370.08 33.88 L 366.04 33.88 L 366.04 32.76 L 371.59 32.76 L 371.59 33.84 L 368.78 36.81 C 368.83 36.8 368.87 36.8 368.92 36.8 L 369.05 36.8 C 369.95 36.8 370.67 37.04 371.19 37.53 M 363.27 37.29 C 363.82 37.81 364.1 38.52 364.1 39.43 C 364.1 40.32 363.78 41.04 363.13 41.59 C 362.49 42.15 361.64 42.42 360.58 42.42 C 359.66 42.42 358.79 42.24 357.98 41.87 L 357.98 40.78 C 358.99 41.11 359.85 41.27 360.57 41.27 C 361.26 41.27 361.79 41.12 362.16 40.8 C 362.53 40.49 362.71 40.04 362.71 39.45 C 362.71 38.8 362.54 38.33 362.19 38.04 C 361.85 37.75 361.28 37.6 360.5 37.6 C 359.94 37.6 359.23 37.65 358.39 37.74 L 358.39 36.84 L 358.65 32.76 L 363.63 32.76 L 363.63 33.88 L 359.79 33.88 L 359.61 36.65 C 360.12 36.56 360.56 36.51 360.96 36.51 C 361.95 36.51 362.72 36.77 363.27 37.29 M 373.52 47.29 C 370.06 47.91 367.03 49.32 365 50.47 C 362.97 49.32 359.94 47.91 356.48 47.29 C 355.5 47.12 350.65 46.1 350.65 43.3 C 350.65 42 351.12 41.14 352.01 39.6 C 353.08 37.76 354.41 35.46 354.41 32.17 C 354.41 29.81 353.79 27.55 352.57 25.44 C 352.71 25.26 352.86 25.08 353.01 24.9 C 354.81 25.8 356.69 26.26 358.61 26.26 C 360.95 26.26 363.09 25.65 365 24.44 C 366.91 25.65 369.05 26.26 371.39 26.26 C 373.3 26.26 375.19 25.8 376.99 24.9 C 377.14 25.08 377.29 25.26 377.43 25.44 C 376.21 27.55 375.59 29.81 375.59 32.17 C 375.59 35.46 376.92 37.76 377.99 39.6 C 378.88 41.14 379.35 42 379.35 43.3 C 379.35 46.1 374.49 47.12 373.52 47.29 M 377.02 32.17 C 377.02 29.91 377.65 27.76 378.9 25.75 C 379.07 25.49 379.04 25.16 378.85 24.92 C 378.49 24.48 378.11 24.01 377.73 23.55 C 377.52 23.28 377.14 23.21 376.84 23.37 C 375.08 24.34 373.25 24.84 371.39 24.84 C 369.15 24.84 367.19 24.23 365.41 23 C 365.16 22.83 364.84 22.83 364.59 23 C 362.81 24.23 360.85 24.84 358.61 24.84 C 356.75 24.84 354.92 24.34 353.16 23.37 C 352.86 23.21 352.48 23.28 352.27 23.55 C 351.89 24.01 351.51 24.48 351.15 24.92 C 350.96 25.16 350.93 25.49 351.1 25.75 C 352.35 27.76 352.98 29.91 352.98 32.17 C 352.98 35.08 351.76 37.19 350.78 38.88 C 349.82 40.54 349.23 41.64 349.23 43.3 C 349.23 47.14 354.58 48.4 356.23 48.69 C 359.69 49.32 362.71 50.79 364.64 51.91 C 364.75 51.97 364.88 52 365 52 C 365.12 52 365.25 51.97 365.36 51.91 C 367.29 50.79 370.31 49.32 373.77 48.69 C 375.42 48.4 380.77 47.14 380.77 43.3 C 380.77 41.64 380.18 40.54 379.22 38.88 C 378.24 37.19 377.02 35.08 377.02 32.17 M 374.26 51.41 C 369.89 52.2 366.23 54.55 365 55.41 C 363.77 54.55 360.11 52.2 355.74 51.41 C 347.14 49.87 346.47 44.81 346.47 43.3 C 346.47 40.81 347.45 39.13 348.39 37.5 C 349.29 35.95 350.22 34.34 350.22 32.17 C 350.22 28.73 348.24 26.3 347.26 25.32 C 348.29 24.07 350.89 20.89 352.17 19.24 C 354.12 21.08 356.37 22.08 358.61 22.08 C 361.09 22.08 363.14 21.07 365 18.92 C 366.86 21.07 368.91 22.08 371.39 22.08 C 373.62 22.08 375.88 21.08 377.83 19.24 C 379.11 20.89 381.71 24.07 382.74 25.32 C 381.76 26.3 379.78 28.73 379.78 32.17 C 379.78 34.34 380.71 35.95 381.61 37.5 C 382.55 39.13 383.53 40.81 383.53 43.3 C 383.53 44.81 382.86 49.87 374.26 51.41 M 382.84 36.78 C 381.96 35.27 381.2 33.96 381.2 32.17 C 381.2 28.4 384.13 25.96 384.16 25.94 C 384.31 25.82 384.4 25.64 384.42 25.45 C 384.44 25.26 384.39 25.07 384.26 24.93 C 384.22 24.87 379.54 19.21 378.47 17.74 C 378.35 17.57 378.15 17.46 377.94 17.45 C 377.73 17.43 377.52 17.52 377.38 17.67 C 375.58 19.59 373.46 20.65 371.39 20.65 C 369.11 20.65 367.31 19.63 365.57 17.35 C 365.3 17 364.7 17 364.43 17.35 C 362.69 19.63 360.89 20.65 358.61 20.65 C 356.54 20.65 354.42 19.59 352.62 17.67 C 352.48 17.52 352.27 17.43 352.06 17.45 C 351.85 17.46 351.65 17.57 351.52 17.74 C 350.45 19.21 345.78 24.87 345.73 24.93 C 345.61 25.07 345.56 25.26 345.58 25.45 C 345.6 25.64 345.69 25.82 345.84 25.94 C 345.87 25.96 348.8 28.4 348.8 32.17 C 348.8 33.96 348.04 35.27 347.16 36.78 C 346.17 38.49 345.04 40.43 345.04 43.3 C 345.04 48.08 348.95 51.64 355.49 52.81 C 360.41 53.7 364.53 56.82 364.57 56.85 C 364.69 56.95 364.85 57 365 57 C 365.15 57 365.31 56.95 365.43 56.85 C 365.48 56.82 369.58 53.7 374.51 52.81 C 381.05 51.64 384.96 48.08 384.96 43.3 C 384.96 40.43 383.83 38.49 382.84 36.78" fill="#ffffff" stroke="none" pointer-events="all" style="fill: light-dark(rgb(255, 255, 255), rgb(18, 18, 18));"/></g></g><g data-cell-id="r53_l"><g transform="translate(0.5,0.5)"><rect x="155" y="70" width="420" height="28" fill="none" stroke="none" pointer-events="all"/></g><g><g><switch><foreignObject style="overflow: visible; text-align: left;" pointer-events="none" width="100%" height="100%" requiredFeatures="http://www.w3.org/TR/SVG11/feature#Extensibility"><div xmlns="http://www.w3.org/1999/xhtml" style="display: flex; align-items: unsafe center; justify-content: unsafe center; width: 418px; height: 1px; padding-top: 84px; margin-left: 156px;"><div style="box-sizing: border-box; font-size: 0; text-align: center; color: #232F3E; "><div style="display: inline-block; font-size: 10px; font-family: Helvetica; color: light-dark(#232F3E, #bdc7d4); line-height: 1.2; pointer-events: all; font-weight: bold; white-space: normal; word-wrap: normal; ">Route 53 地理的近接性ルーティング + CloudFront エッジ配信</div></div></div></foreignObject><text x="365" y="87" fill="#232F3E" font-family="Helvetica" font-size="10px" text-anchor="middle" font-weight="bold">Route 53 地理的近接性ルーティング + CloudFront エッジ配信</text></switch></g></g></g><g data-cell-id="r1"><g transform="translate(0.5,0.5)"><path d="M 20 82 L 480 82 L 480 512 L 20 512 Z" fill="none" stroke="#3b48cc" stroke-miterlimit="10" pointer-events="all" style="stroke: light-dark(rgb(59, 72, 204), rgb(152, 163, 255));"/><path d="M 28.06 85.47 C 27.47 85.47 27 85.95 27 86.53 C 27 86.99 27.3 87.39 27.71 87.53 L 27.71 102.82 L 25.95 102.82 L 25.95 103.57 L 30.16 103.57 L 30.16 102.82 L 28.46 102.82 L 28.46 94.75 L 39.84 94.75 L 37.19 91.59 L 39.83 88.36 L 28.46 88.36 L 28.46 87.51 C 28.85 87.35 29.12 86.97 29.12 86.53 C 29.12 85.95 28.64 85.47 28.06 85.47 Z M 28.06 86.22 C 28.23 86.22 28.37 86.35 28.37 86.53 C 28.37 86.71 28.23 86.84 28.06 86.84 C 27.88 86.84 27.75 86.71 27.75 86.53 C 27.75 86.35 27.88 86.22 28.06 86.22 Z M 28.46 89.11 L 38.25 89.11 L 36.22 91.6 L 38.23 94 L 28.46 94 Z M 20 107 L 20 82 L 45 82 L 45 107 Z" fill="#3b48cc" stroke="none" pointer-events="all" style="fill: light-dark(rgb(59, 72, 204), rgb(152, 163, 255));"/></g><g><g><switch><foreignObject style="overflow: visible; text-align: left;" pointer-events="none" width="100%" height="100%" requiredFeatures="http://www.w3.org/TR/SVG11/feature#Extensibility"><div xmlns="http://www.w3.org/1999/xhtml" style="display: flex; align-items: unsafe flex-start; justify-content: unsafe flex-start; width: 428px; height: 1px; padding-top: 89px; margin-left: 52px;"><div style="box-sizing: border-box; font-size: 0; text-align: left; color: #3B48CC; "><div style="display: inline-block; font-size: 11px; font-family: Helvetica; color: light-dark(#3B48CC, #98a3ff); line-height: 1.2; pointer-events: all; font-weight: bold; white-space: normal; word-wrap: normal; ">us-east-1 (北米)</div></div></div></foreignObject><text x="52" y="100" fill="#3B48CC" font-family="Helvetica" font-size="11px" font-weight="bold">us-east-1 (北米)</text></switch></g></g></g><g data-cell-id="cf1"><g transform="translate(0.5,0.5)"><path d="M 60 142 L 110 142 L 110 192 L 60 192 Z" fill="#8c4fff" stroke="none" pointer-events="all" style="fill: light-dark(rgb(140, 79, 255), rgb(177, 125, 255));"/><path d="M 95.8 175.66 C 95.8 174.48 94.84 173.52 93.66 173.52 C 92.48 173.52 91.52 174.48 91.52 175.66 C 91.52 176.84 92.48 177.8 93.66 177.8 C 94.84 177.8 95.8 176.84 95.8 175.66 Z M 97.23 175.66 C 97.23 177.63 95.63 179.23 93.66 179.23 C 91.69 179.23 90.09 177.63 90.09 175.66 C 90.09 173.69 91.69 172.09 93.66 172.09 C 95.63 172.09 97.23 173.69 97.23 175.66 Z M 78.14 165.35 C 78.14 164.17 77.18 163.21 75.99 163.21 C 74.81 163.21 73.85 164.17 73.85 165.35 C 73.85 166.53 74.81 167.49 75.99 167.49 C 77.18 167.49 78.14 166.53 78.14 165.35 Z M 79.57 165.35 C 79.57 167.32 77.96 168.92 75.99 168.92 C 74.03 168.92 72.42 167.32 72.42 165.35 C 72.42 163.38 74.03 161.78 75.99 161.78 C 77.96 161.78 79.57 163.38 79.57 165.35 Z M 84.81 154.15 C 84.81 155.33 85.77 156.29 86.95 156.29 C 88.13 156.29 89.09 155.33 89.09 154.15 C 89.09 152.97 88.13 152 86.95 152 C 85.77 152 84.81 152.97 84.81 154.15 Z M 83.38 154.15 C 83.38 152.18 84.98 150.58 86.95 150.58 C 88.92 150.58 90.52 152.18 90.52 154.15 C 90.52 156.12 88.92 157.72 86.95 157.72 C 84.98 157.72 83.38 156.12 83.38 154.15 Z M 103.57 167 C 103.57 160.38 100.02 154.25 94.29 150.94 C 93.27 151.14 92.28 151.43 91.04 151.87 L 90.55 150.53 C 91.2 150.3 91.78 150.11 92.33 149.95 C 90.03 148.96 87.53 148.43 85 148.43 C 83.79 148.43 82.61 148.55 81.45 148.78 C 82.29 149.27 83.03 149.76 83.75 150.31 L 82.89 151.45 C 81.87 150.68 80.81 150.02 79.43 149.29 C 72.41 151.5 67.36 157.68 66.56 164.95 C 68.03 164.65 69.44 164.49 71.01 164.45 L 71.05 165.88 C 69.4 165.92 67.99 166.09 66.45 166.43 C 66.44 166.62 66.43 166.81 66.43 167 C 66.43 173.18 69.49 178.88 74.52 182.32 C 73.62 179.65 73.18 177.14 73.18 174.68 C 73.18 173.27 73.42 172.12 73.67 170.9 C 73.73 170.62 73.79 170.33 73.85 170.03 L 75.25 170.31 C 75.19 170.61 75.13 170.91 75.07 171.19 C 74.82 172.39 74.61 173.42 74.61 174.68 C 74.61 177.47 75.22 180.35 76.47 183.49 C 79.12 184.87 81.99 185.57 85 185.57 C 86.97 185.57 88.89 185.26 90.72 184.65 C 91.44 183.23 91.98 181.89 92.42 180.36 L 93.79 180.75 C 93.47 181.88 93.09 182.9 92.65 183.91 C 93.8 183.39 94.89 182.75 95.92 182 C 95.67 181.4 95.41 180.8 95.11 180.21 L 96.39 179.57 C 96.64 180.07 96.87 180.58 97.09 181.09 C 101.22 177.55 103.57 172.47 103.57 167 Z M 105 167 C 105 173.23 102.17 179 97.23 182.82 C 96.01 183.77 94.68 184.56 93.28 185.19 C 92.68 185.46 92.08 185.71 91.45 185.92 C 89.4 186.64 87.22 187 85 187 C 81.71 187 78.45 186.18 75.56 184.63 C 69.05 181.15 65 174.39 65 167 C 65 166.51 65.01 166.14 65.04 165.79 C 65.53 157.45 71.25 150.22 79.29 147.83 C 81.12 147.28 83.04 147 85 147 C 88.43 147 91.81 147.88 94.77 149.56 C 101.08 153.09 105 159.77 105 167 Z M 83.08 156.62 L 82.14 155.54 C 80.54 156.94 79.3 158.42 77.84 160.66 L 79.04 161.44 C 80.42 159.32 81.59 157.92 83.08 156.62 Z M 80.91 165.88 L 80.45 167.23 C 83.73 168.35 86.59 170.15 89.45 172.88 L 90.44 171.85 C 87.42 168.97 84.39 167.07 80.91 165.88 Z M 90.46 157.48 C 93.14 161.56 94.65 166.05 94.95 170.81 L 93.52 170.9 C 93.24 166.39 91.81 162.14 89.27 158.26 Z" fill="#ffffff" stroke="none" pointer-events="all" style="fill: light-dark(rgb(255, 255, 255), rgb(18, 18, 18));"/></g></g><g data-cell-id="cf1_l"><g transform="translate(0.5,0.5)"><rect x="30" y="200" width="110" height="28" fill="none" stroke="none" pointer-events="all"/></g><g><g><switch><foreignObject style="overflow: visible; text-align: left;" pointer-events="none" width="100%" height="100%" requiredFeatures="http://www.w3.org/TR/SVG11/feature#Extensibility"><div xmlns="http://www.w3.org/1999/xhtml" style="display: flex; align-items: unsafe center; justify-content: unsafe center; width: 108px; height: 1px; padding-top: 214px; margin-left: 31px;"><div style="box-sizing: border-box; font-size: 0; text-align: center; color: #232F3E; "><div style="display: inline-block; font-size: 9px; font-family: Helvetica; color: light-dark(#232F3E, #bdc7d4); line-height: 1.2; pointer-events: all; font-weight: bold; white-space: normal; word-wrap: normal; ">CloudFront</div></div></div></foreignObject><text x="85" y="217" fill="#232F3E" font-family="Helvetica" font-size="9px" text-anchor="middle" font-weight="bold">CloudFront</text></switch></g></g></g><g data-cell-id="alb1"><g transform="translate(0.5,0.5)"><path d="M 180 142 L 230 142 L 230 192 L 180 192 Z" fill="#8c4fff" stroke="none" pointer-events="all" style="fill: light-dark(rgb(140, 79, 255), rgb(177, 125, 255));"/><path d="M 205 147 C 193.97 147 185 155.97 185 167 C 185 178.03 193.97 187 205 187 C 216.03 187 225 178.03 225 167 C 225 155.97 216.03 147 205 147 Z M 205 185.18 C 194.97 185.18 186.82 177.03 186.82 167 C 186.82 156.97 194.97 148.82 205 148.82 C 215.03 148.82 223.18 156.97 223.18 167 C 223.18 177.03 215.03 185.18 205 185.18 Z M 216.85 172.45 L 215.45 172.45 L 215.45 169.39 C 215.45 168.88 215.05 168.48 214.55 168.48 L 212.27 168.48 L 212.27 165.41 C 212.27 164.91 211.87 164.5 211.36 164.5 L 205.91 164.5 L 205.91 162.34 L 211.36 162.34 C 211.87 162.34 212.27 161.93 212.27 161.43 L 212.27 154.27 C 212.27 153.77 211.87 153.36 211.36 153.36 L 198.64 153.36 C 198.13 153.36 197.73 153.77 197.73 154.27 L 197.73 161.43 C 197.73 161.93 198.13 162.34 198.64 162.34 L 204.09 162.34 L 204.09 164.5 L 198.64 164.5 C 198.13 164.5 197.73 164.91 197.73 165.41 L 197.73 168.48 L 195.46 168.48 C 194.95 168.48 194.55 168.88 194.55 169.39 L 194.55 172.45 L 193.15 172.45 C 192.65 172.45 192.24 172.86 192.24 173.36 L 192.24 177.34 C 192.24 177.84 192.65 178.25 193.15 178.25 L 197.05 178.25 C 197.55 178.25 197.96 177.84 197.96 177.34 L 197.96 173.36 C 197.96 172.86 197.55 172.45 197.05 172.45 L 196.36 172.45 L 196.36 170.3 L 200.11 170.3 L 200.11 172.45 L 199.43 172.45 C 198.93 172.45 198.52 172.86 198.52 173.36 L 198.52 177.34 C 198.52 177.84 198.93 178.25 199.43 178.25 L 203.41 178.25 C 203.91 178.25 204.32 177.84 204.32 177.34 L 204.32 173.36 C 204.32 172.86 203.91 172.45 203.41 172.45 L 201.93 172.45 L 201.93 169.39 C 201.93 168.88 201.53 168.48 201.02 168.48 L 199.55 168.48 L 199.55 166.32 L 210.45 166.32 L 210.45 168.48 L 208.98 168.48 C 208.47 168.48 208.07 168.88 208.07 169.39 L 208.07 172.45 L 206.59 172.45 C 206.09 172.45 205.68 172.86 205.68 173.36 L 205.68 177.34 C 205.68 177.84 206.09 178.25 206.59 178.25 L 210.57 178.25 C 211.07 178.25 211.48 177.84 211.48 177.34 L 211.48 173.36 C 211.48 172.86 211.07 172.45 210.57 172.45 L 209.89 172.45 L 209.89 170.3 L 213.64 170.3 L 213.64 172.45 L 212.9 172.45 C 212.4 172.45 211.99 172.86 211.99 173.36 L 211.99 177.34 C 211.99 177.84 212.4 178.25 212.9 178.25 L 216.85 178.25 C 217.35 178.25 217.76 177.84 217.76 177.34 L 217.76 173.36 C 217.76 172.86 217.35 172.45 216.85 172.45 Z M 199.55 160.52 L 199.55 155.18 L 210.45 155.18 L 210.45 160.52 Z M 194.06 176.43 L 194.06 174.27 L 196.14 174.27 L 196.14 176.43 Z M 200.34 176.43 L 200.34 174.27 L 202.5 174.27 L 202.5 176.43 Z M 207.5 176.43 L 207.5 174.27 L 209.66 174.27 L 209.66 176.43 Z M 213.81 176.43 L 213.81 174.27 L 215.94 174.27 L 215.94 176.43 Z" fill="#ffffff" stroke="none" pointer-events="all" style="fill: light-dark(rgb(255, 255, 255), rgb(18, 18, 18));"/></g></g><g data-cell-id="alb1_l"><g transform="translate(0.5,0.5)"><rect x="145" y="200" width="120" height="28" fill="none" stroke="none" pointer-events="all"/></g><g><g><switch><foreignObject style="overflow: visible; text-align: left;" pointer-events="none" width="100%" height="100%" requiredFeatures="http://www.w3.org/TR/SVG11/feature#Extensibility"><div xmlns="http://www.w3.org/1999/xhtml" style="display: flex; align-items: unsafe center; justify-content: unsafe center; width: 118px; height: 1px; padding-top: 214px; margin-left: 146px;"><div style="box-sizing: border-box; font-size: 0; text-align: center; color: #232F3E; "><div style="display: inline-block; font-size: 10px; font-family: Helvetica; color: light-dark(#232F3E, #bdc7d4); line-height: 1.2; pointer-events: all; white-space: normal; word-wrap: normal; ">ALB</div></div></div></foreignObject><text x="205" y="217" fill="#232F3E" font-family="Helvetica" font-size="10px" text-anchor="middle">ALB</text></switch></g></g></g><g data-cell-id="asg1"><g transform="translate(0.5,0.5)"><path d="M 290 142 L 340 142 L 340 192 L 290 192 Z" fill="#ff9900" stroke="none" pointer-events="all" style="fill: light-dark(rgb(255, 153, 0), rgb(175, 87, 0));"/><path d="M 305.71 176.29 L 323.57 176.29 L 323.57 158.43 L 305.71 158.43 Z M 325 158.43 L 327.86 158.43 L 327.86 159.86 L 325 159.86 L 325 162.71 L 327.86 162.71 L 327.86 164.14 L 325 164.14 L 325 166.29 L 327.86 166.29 L 327.86 167.71 L 325 167.71 L 325 170.57 L 327.86 170.57 L 327.86 172 L 325 172 L 325 174.86 L 327.86 174.86 L 327.86 176.29 L 325 176.29 L 325 176.38 C 325 177.12 324.4 177.71 323.67 177.71 L 323.57 177.71 L 323.57 180.57 L 322.14 180.57 L 322.14 177.71 L 319.29 177.71 L 319.29 180.57 L 317.86 180.57 L 317.86 177.71 L 315.71 177.71 L 315.71 180.57 L 314.29 180.57 L 314.29 177.71 L 311.43 177.71 L 311.43 180.57 L 310 180.57 L 310 177.71 L 307.14 177.71 L 307.14 180.57 L 305.71 180.57 L 305.71 177.71 L 305.62 177.71 C 304.88 177.71 304.29 177.12 304.29 176.38 L 304.29 176.29 L 302.14 176.29 L 302.14 174.86 L 304.29 174.86 L 304.29 172 L 302.14 172 L 302.14 170.57 L 304.29 170.57 L 304.29 167.71 L 302.14 167.71 L 302.14 166.29 L 304.29 166.29 L 304.29 164.14 L 302.14 164.14 L 302.14 162.71 L 304.29 162.71 L 304.29 159.86 L 302.14 159.86 L 302.14 158.43 L 304.29 158.43 L 304.29 158.33 C 304.29 157.6 304.88 157 305.62 157 L 305.71 157 L 305.71 154.14 L 307.14 154.14 L 307.14 157 L 310 157 L 310 154.14 L 311.43 154.14 L 311.43 157 L 314.29 157 L 314.29 154.14 L 315.71 154.14 L 315.71 157 L 317.86 157 L 317.86 154.14 L 319.29 154.14 L 319.29 157 L 322.14 157 L 322.14 154.14 L 323.57 154.14 L 323.57 157 L 323.67 157 C 324.4 157 325 157.6 325 158.33 Z M 315.71 185.48 C 315.71 185.53 315.67 185.57 315.63 185.57 L 296.52 185.57 C 296.47 185.57 296.43 185.53 296.43 185.48 L 296.43 166.37 C 296.43 166.33 296.47 166.29 296.52 166.29 L 300.71 166.29 L 300.71 164.86 L 296.52 164.86 C 295.68 164.86 295 165.54 295 166.37 L 295 185.48 C 295 186.32 295.68 187 296.52 187 L 315.63 187 C 316.46 187 317.14 186.32 317.14 185.48 L 317.14 182 L 315.71 182 Z M 335 148.52 L 335 167.63 C 335 168.46 334.32 169.14 333.48 169.14 L 329.29 169.14 L 329.29 167.71 L 333.48 167.71 C 333.53 167.71 333.57 167.67 333.57 167.63 L 333.57 148.52 C 333.57 148.47 333.53 148.43 333.48 148.43 L 314.37 148.43 C 314.33 148.43 314.29 148.47 314.29 148.52 L 314.29 152.71 L 312.86 152.71 L 312.86 148.52 C 312.86 147.68 313.54 147 314.37 147 L 333.48 147 C 334.32 147 335 147.68 335 148.52 Z" fill="#ffffff" stroke="none" pointer-events="all" style="fill: light-dark(rgb(255, 255, 255), rgb(18, 18, 18));"/></g></g><g data-cell-id="asg1_l"><g transform="translate(0.5,0.5)"><rect x="245" y="200" width="140" height="28" fill="none" stroke="none" pointer-events="all"/></g><g><g><switch><foreignObject style="overflow: visible; text-align: left;" pointer-events="none" width="100%" height="100%" requiredFeatures="http://www.w3.org/TR/SVG11/feature#Extensibility"><div xmlns="http://www.w3.org/1999/xhtml" style="display: flex; align-items: unsafe center; justify-content: unsafe center; width: 138px; height: 1px; padding-top: 214px; margin-left: 246px;"><div style="box-sizing: border-box; font-size: 0; text-align: center; color: #232F3E; "><div style="display: inline-block; font-size: 9px; font-family: Helvetica; color: light-dark(#232F3E, #bdc7d4); line-height: 1.2; pointer-events: all; font-weight: bold; white-space: normal; word-wrap: normal; ">ASG (予約処理)</div></div></div></foreignObject><text x="315" y="217" fill="#232F3E" font-family="Helvetica" font-size="9px" text-anchor="middle" font-weight="bold">ASG (予約処理)</text></switch></g></g></g><g data-cell-id="aw1"><g transform="translate(0.5,0.5)"><path d="M 430 142 L 480 142 L 480 192 L 430 192 Z" fill="#3b48cc" stroke="none" pointer-events="all" style="fill: light-dark(rgb(59, 72, 204), rgb(152, 163, 255));"/><path d="M 458.51 151.86 L 456.44 151.86 L 456.44 150.47 L 458.51 150.47 L 458.51 148.38 L 459.89 148.38 L 459.89 150.47 L 461.97 150.47 L 461.97 151.86 L 459.89 151.86 L 459.89 153.95 L 458.51 153.95 Z M 466.81 159.51 L 464.73 159.51 L 464.73 158.12 L 466.81 158.12 L 466.81 156.03 L 468.19 156.03 L 468.19 158.12 L 470.27 158.12 L 470.27 159.51 L 468.19 159.51 L 468.19 161.6 L 466.81 161.6 Z M 463.21 181.51 C 461.89 178.15 458.84 175.08 455.5 173.75 C 458.84 172.42 461.89 169.36 463.21 166 C 464.53 169.36 467.58 172.42 470.91 173.75 C 467.58 175.08 464.53 178.15 463.21 181.51 Z M 474.31 173.06 C 469.44 173.06 463.9 167.48 463.9 162.58 C 463.9 162.2 463.59 161.89 463.21 161.89 C 462.83 161.89 462.52 162.2 462.52 162.58 C 462.52 167.48 456.97 173.06 452.11 173.06 C 451.72 173.06 451.42 173.37 451.42 173.75 C 451.42 174.14 451.72 174.45 452.11 174.45 C 456.97 174.45 462.52 180.03 462.52 184.92 C 462.52 185.31 462.83 185.62 463.21 185.62 C 463.59 185.62 463.9 185.31 463.9 184.92 C 463.9 180.03 469.44 174.45 474.31 174.45 C 474.69 174.45 475 174.14 475 173.75 C 475 173.37 474.69 173.06 474.31 173.06 Z M 436.38 159.35 C 438.4 160.82 442.31 161.6 446.06 161.6 C 449.82 161.6 453.73 160.82 455.74 159.35 L 455.74 166.01 C 454.75 167.35 451.08 168.66 446.2 168.66 C 440.58 168.66 436.38 166.89 436.38 165.31 Z M 446.06 153.95 C 452.06 153.95 455.74 155.77 455.74 157.08 C 455.74 158.39 452.06 160.21 446.06 160.21 C 440.07 160.21 436.38 158.39 436.38 157.08 C 436.38 155.77 440.07 153.95 446.06 153.95 Z M 455.74 180.06 C 455.74 181.67 451.6 183.46 446.06 183.46 C 440.52 183.46 436.38 181.67 436.38 180.06 L 436.38 175.62 C 438.42 177.17 442.41 178 446.24 178 C 448.9 178 451.48 177.62 453.49 176.93 L 453.05 175.61 C 451.18 176.25 448.76 176.6 446.24 176.6 C 440.6 176.6 436.38 174.84 436.38 173.26 L 436.38 167.68 C 438.42 169.23 442.39 170.05 446.2 170.05 C 450.29 170.05 453.79 169.2 455.74 167.86 L 455.74 169.95 L 457.13 169.95 L 457.13 157.08 C 457.13 154.14 451.43 152.55 446.06 152.55 C 440.92 152.55 435.48 154.02 435.04 156.73 L 435 156.73 L 435 180.06 C 435 183.17 440.7 184.85 446.06 184.85 C 451.43 184.85 457.13 183.17 457.13 180.06 L 457.13 177.61 L 455.74 177.61 Z" fill="#ffffff" stroke="none" pointer-events="all" style="fill: light-dark(rgb(255, 255, 255), rgb(18, 18, 18));"/></g></g><g data-cell-id="aw1_l"><g transform="translate(0.5,0.5)"><rect x="400" y="200" width="110" height="28" fill="none" stroke="none" pointer-events="all"/></g><g><g><switch><foreignObject style="overflow: visible; text-align: left;" pointer-events="none" width="100%" height="100%" requiredFeatures="http://www.w3.org/TR/SVG11/feature#Extensibility"><div xmlns="http://www.w3.org/1999/xhtml" style="display: flex; align-items: unsafe center; justify-content: unsafe center; width: 108px; height: 1px; padding-top: 214px; margin-left: 401px;"><div style="box-sizing: border-box; font-size: 0; text-align: center; color: #232F3E; "><div style="display: inline-block; font-size: 9px; font-family: Helvetica; color: light-dark(#232F3E, #bdc7d4); line-height: 1.2; pointer-events: all; font-weight: bold; white-space: normal; word-wrap: normal; ">Aurora<br />Global (P)</div></div></div></foreignObject><text x="455" y="217" fill="#232F3E" font-family="Helvetica" font-size="9px" text-anchor="middle" font-weight="bold">Aurora...</text></switch></g></g></g><g data-cell-id="s3_1"><g transform="translate(0.5,0.5)"><path d="M 60 272 L 110 272 L 110 322 L 60 322 Z" fill="#7aa116" stroke="none" pointer-events="all" style="fill: light-dark(rgb(122, 161, 22), rgb(97, 130, 11));"/><path d="M 99.92 299.07 L 100.2 297.13 C 102.73 298.65 102.76 299.28 102.76 299.29 C 102.76 299.3 102.32 299.66 99.92 299.07 Z M 98.54 298.68 C 94.16 297.36 88.08 294.56 85.61 293.4 C 85.61 293.39 85.62 293.38 85.62 293.37 C 85.62 292.43 84.85 291.65 83.9 291.65 C 82.95 291.65 82.18 292.43 82.18 293.37 C 82.18 294.32 82.95 295.09 83.9 295.09 C 84.31 295.09 84.69 294.93 84.99 294.69 C 87.89 296.06 93.93 298.81 98.33 300.11 L 96.59 312.4 C 96.59 312.43 96.58 312.47 96.58 312.5 C 96.58 313.58 91.79 315.57 83.97 315.57 C 76.06 315.57 71.21 313.58 71.21 312.5 C 71.21 312.47 71.21 312.44 71.21 312.4 L 67.57 285.83 C 70.72 288 77.49 289.14 83.97 289.14 C 90.44 289.14 97.2 288 100.36 285.84 Z M 67.18 283.06 C 67.24 282.12 72.64 278.43 83.97 278.43 C 95.3 278.43 100.7 282.12 100.76 283.06 L 100.76 283.38 C 100.13 285.48 93.13 287.71 83.97 287.71 C 74.79 287.71 67.79 285.48 67.18 283.37 Z M 102.18 283.07 C 102.18 280.6 95.09 277 83.97 277 C 72.85 277 65.76 280.6 65.76 283.07 L 65.82 283.61 L 69.79 312.56 C 69.88 315.79 78.51 317 83.97 317 C 90.73 317 97.92 315.44 98.01 312.56 L 99.72 300.49 C 100.68 300.72 101.46 300.83 102.09 300.83 C 102.93 300.83 103.5 300.63 103.85 300.21 C 104.14 299.88 104.24 299.46 104.16 299.03 C 103.98 298.04 102.8 296.97 100.41 295.61 L 102.11 283.64 Z" fill="#ffffff" stroke="none" pointer-events="all" style="fill: light-dark(rgb(255, 255, 255), rgb(18, 18, 18));"/></g></g><g data-cell-id="s3_1_l"><g transform="translate(0.5,0.5)"><rect x="10" y="330" width="150" height="28" fill="none" stroke="none" pointer-events="all"/></g><g><g><switch><foreignObject style="overflow: visible; text-align: left;" pointer-events="none" width="100%" height="100%" requiredFeatures="http://www.w3.org/TR/SVG11/feature#Extensibility"><div xmlns="http://www.w3.org/1999/xhtml" style="display: flex; align-items: unsafe center; justify-content: unsafe center; width: 148px; height: 1px; padding-top: 344px; margin-left: 11px;"><div style="box-sizing: border-box; font-size: 0; text-align: center; color: #232F3E; "><div style="display: inline-block; font-size: 9px; font-family: Helvetica; color: light-dark(#232F3E, #bdc7d4); line-height: 1.2; pointer-events: all; font-weight: bold; white-space: normal; word-wrap: normal; ">S3 静的コンテンツ</div></div></div></foreignObject><text x="85" y="347" fill="#232F3E" font-family="Helvetica" font-size="9px" text-anchor="middle" font-weight="bold">S3 静的コンテンツ</text></switch></g></g></g><g data-cell-id="n1"><g transform="translate(0.5,0.5)"><rect x="40" y="372" width="430" height="120" fill="none" stroke="none" pointer-events="all"/></g><g><g><switch><foreignObject style="overflow: visible; text-align: left;" pointer-events="none" width="100%" height="100%" requiredFeatures="http://www.w3.org/TR/SVG11/feature#Extensibility"><div xmlns="http://www.w3.org/1999/xhtml" style="display: flex; align-items: unsafe flex-start; justify-content: unsafe flex-start; width: 428px; height: 1px; padding-top: 379px; margin-left: 42px;"><div style="box-sizing: border-box; font-size: 0; text-align: left; color: #3B48CC; "><div style="display: inline-block; font-size: 10px; font-family: Helvetica; color: light-dark(#3B48CC, #98a3ff); line-height: 1.2; pointer-events: all; white-space: normal; word-wrap: normal; ">【正解D+E】<br />・Aurora Global DB 物理レプリ (Primary)<br />・S3 CRR で静的コンテンツを EU に複製<br />・ASG 配置<br />・CloudFront + Route 53 で最寄り配信</div></div></div></foreignObject><text x="42" y="389" fill="#3B48CC" font-family="Helvetica" font-size="10px">【正解D+E】...</text></switch></g></g></g><g data-cell-id="r2"><g transform="translate(0.5,0.5)"><path d="M 520 82 L 980 82 L 980 512 L 520 512 Z" fill="none" stroke="#7aa116" stroke-miterlimit="10" pointer-events="all" style="stroke: light-dark(rgb(122, 161, 22), rgb(97, 130, 11));"/><path d="M 528.06 85.47 C 527.47 85.47 527 85.95 527 86.53 C 527 86.99 527.3 87.39 527.71 87.53 L 527.71 102.82 L 525.95 102.82 L 525.95 103.57 L 530.16 103.57 L 530.16 102.82 L 528.46 102.82 L 528.46 94.75 L 539.84 94.75 L 537.19 91.59 L 539.83 88.36 L 528.46 88.36 L 528.46 87.51 C 528.85 87.35 529.12 86.97 529.12 86.53 C 529.12 85.95 528.64 85.47 528.06 85.47 Z M 528.06 86.22 C 528.23 86.22 528.37 86.35 528.37 86.53 C 528.37 86.71 528.23 86.84 528.06 86.84 C 527.88 86.84 527.75 86.71 527.75 86.53 C 527.75 86.35 527.88 86.22 528.06 86.22 Z M 528.46 89.11 L 538.25 89.11 L 536.22 91.6 L 538.23 94 L 528.46 94 Z M 520 107 L 520 82 L 545 82 L 545 107 Z" fill="#7aa116" stroke="none" pointer-events="all" style="fill: light-dark(rgb(122, 161, 22), rgb(97, 130, 11));"/></g><g><g><switch><foreignObject style="overflow: visible; text-align: left;" pointer-events="none" width="100%" height="100%" requiredFeatures="http://www.w3.org/TR/SVG11/feature#Extensibility"><div xmlns="http://www.w3.org/1999/xhtml" style="display: flex; align-items: unsafe flex-start; justify-content: unsafe flex-start; width: 428px; height: 1px; padding-top: 89px; margin-left: 552px;"><div style="box-sizing: border-box; font-size: 0; text-align: left; color: #7AA116; "><div style="display: inline-block; font-size: 11px; font-family: Helvetica; color: light-dark(#7AA116, #61820b); line-height: 1.2; pointer-events: all; font-weight: bold; white-space: normal; word-wrap: normal; ">eu-central-1 (EU)</div></div></div></foreignObject><text x="552" y="100" fill="#7AA116" font-family="Helvetica" font-size="11px" font-weight="bold">eu-central-1 (EU)</text></switch></g></g></g><g data-cell-id="cf2"><g transform="translate(0.5,0.5)"><path d="M 560 142 L 610 142 L 610 192 L 560 192 Z" fill="#8c4fff" stroke="none" pointer-events="all" style="fill: light-dark(rgb(140, 79, 255), rgb(177, 125, 255));"/><path d="M 595.8 175.66 C 595.8 174.48 594.84 173.52 593.66 173.52 C 592.48 173.52 591.52 174.48 591.52 175.66 C 591.52 176.84 592.48 177.8 593.66 177.8 C 594.84 177.8 595.8 176.84 595.8 175.66 Z M 597.23 175.66 C 597.23 177.63 595.63 179.23 593.66 179.23 C 591.69 179.23 590.09 177.63 590.09 175.66 C 590.09 173.69 591.69 172.09 593.66 172.09 C 595.63 172.09 597.23 173.69 597.23 175.66 Z M 578.14 165.35 C 578.14 164.17 577.18 163.21 575.99 163.21 C 574.81 163.21 573.85 164.17 573.85 165.35 C 573.85 166.53 574.81 167.49 575.99 167.49 C 577.18 167.49 578.14 166.53 578.14 165.35 Z M 579.57 165.35 C 579.57 167.32 577.96 168.92 575.99 168.92 C 574.02 168.92 572.42 167.32 572.42 165.35 C 572.42 163.38 574.02 161.78 575.99 161.78 C 577.96 161.78 579.57 163.38 579.57 165.35 Z M 584.81 154.15 C 584.81 155.33 585.77 156.29 586.95 156.29 C 588.13 156.29 589.09 155.33 589.09 154.15 C 589.09 152.97 588.13 152 586.95 152 C 585.77 152 584.81 152.97 584.81 154.15 Z M 583.38 154.15 C 583.38 152.18 584.98 150.58 586.95 150.58 C 588.92 150.58 590.52 152.18 590.52 154.15 C 590.52 156.12 588.92 157.72 586.95 157.72 C 584.98 157.72 583.38 156.12 583.38 154.15 Z M 603.57 167 C 603.57 160.38 600.02 154.25 594.29 150.94 C 593.27 151.14 592.27 151.43 591.04 151.87 L 590.55 150.53 C 591.2 150.3 591.78 150.11 592.33 149.95 C 590.03 148.96 587.53 148.43 585 148.43 C 583.79 148.43 582.61 148.55 581.45 148.78 C 582.29 149.27 583.03 149.76 583.75 150.31 L 582.89 151.45 C 581.87 150.68 580.81 150.02 579.43 149.29 C 572.41 151.5 567.36 157.68 566.56 164.95 C 568.03 164.65 569.44 164.49 571.01 164.45 L 571.04 165.88 C 569.4 165.92 567.99 166.09 566.45 166.43 C 566.44 166.62 566.43 166.81 566.43 167 C 566.43 173.18 569.49 178.88 574.52 182.32 C 573.62 179.65 573.18 177.14 573.18 174.68 C 573.18 173.27 573.42 172.12 573.67 170.9 C 573.73 170.62 573.79 170.33 573.85 170.03 L 575.25 170.31 C 575.2 170.61 575.13 170.91 575.07 171.19 C 574.82 172.39 574.61 173.42 574.61 174.68 C 574.61 177.47 575.22 180.35 576.47 183.49 C 579.12 184.87 581.99 185.57 585 185.57 C 586.97 185.57 588.89 185.26 590.72 184.65 C 591.44 183.23 591.98 181.89 592.42 180.36 L 593.79 180.75 C 593.47 181.88 593.09 182.9 592.65 183.91 C 593.8 183.39 594.89 182.75 595.92 182 C 595.67 181.4 595.41 180.8 595.11 180.21 L 596.39 179.57 C 596.64 180.07 596.87 180.58 597.09 181.09 C 601.22 177.55 603.57 172.47 603.57 167 Z M 605 167 C 605 173.23 602.17 179 597.23 182.82 C 596.01 183.77 594.68 184.56 593.28 185.19 C 592.68 185.46 592.08 185.71 591.45 185.92 C 589.4 186.64 587.22 187 585 187 C 581.71 187 578.45 186.18 575.56 184.63 C 569.05 181.15 565 174.39 565 167 C 565 166.51 565.01 166.14 565.04 165.79 C 565.53 157.45 571.25 150.22 579.29 147.83 C 581.12 147.28 583.04 147 585 147 C 588.43 147 591.81 147.88 594.77 149.56 C 601.08 153.09 605 159.77 605 167 Z M 583.08 156.62 L 582.14 155.54 C 580.54 156.94 579.3 158.42 577.84 160.66 L 579.04 161.44 C 580.42 159.32 581.59 157.92 583.08 156.62 Z M 580.91 165.88 L 580.45 167.23 C 583.73 168.35 586.59 170.15 589.45 172.88 L 590.44 171.85 C 587.42 168.97 584.39 167.07 580.91 165.88 Z M 590.46 157.48 C 593.14 161.56 594.65 166.05 594.95 170.81 L 593.52 170.9 C 593.24 166.39 591.81 162.14 589.27 158.26 Z" fill="#ffffff" stroke="none" pointer-events="all" style="fill: light-dark(rgb(255, 255, 255), rgb(18, 18, 18));"/></g></g><g data-cell-id="cf2_l"><g transform="translate(0.5,0.5)"><rect x="530" y="200" width="110" height="28" fill="none" stroke="none" pointer-events="all"/></g><g><g><switch><foreignObject style="overflow: visible; text-align: left;" pointer-events="none" width="100%" height="100%" requiredFeatures="http://www.w3.org/TR/SVG11/feature#Extensibility"><div xmlns="http://www.w3.org/1999/xhtml" style="display: flex; align-items: unsafe center; justify-content: unsafe center; width: 108px; height: 1px; padding-top: 214px; margin-left: 531px;"><div style="box-sizing: border-box; font-size: 0; text-align: center; color: #232F3E; "><div style="display: inline-block; font-size: 9px; font-family: Helvetica; color: light-dark(#232F3E, #bdc7d4); line-height: 1.2; pointer-events: all; white-space: normal; word-wrap: normal; ">CloudFront<br />エッジ</div></div></div></foreignObject><text x="585" y="217" fill="#232F3E" font-family="Helvetica" font-size="9px" text-anchor="middle">CloudFront...</text></switch></g></g></g><g data-cell-id="alb2"><g transform="translate(0.5,0.5)"><path d="M 680 142 L 730 142 L 730 192 L 680 192 Z" fill="#8c4fff" stroke="none" pointer-events="all" style="fill: light-dark(rgb(140, 79, 255), rgb(177, 125, 255));"/><path d="M 705 147 C 693.97 147 685 155.97 685 167 C 685 178.03 693.97 187 705 187 C 716.03 187 725 178.03 725 167 C 725 155.97 716.03 147 705 147 Z M 705 185.18 C 694.97 185.18 686.82 177.03 686.82 167 C 686.82 156.97 694.97 148.82 705 148.82 C 715.03 148.82 723.18 156.97 723.18 167 C 723.18 177.03 715.03 185.18 705 185.18 Z M 716.85 172.45 L 715.45 172.45 L 715.45 169.39 C 715.45 168.88 715.05 168.48 714.55 168.48 L 712.27 168.48 L 712.27 165.41 C 712.27 164.91 711.87 164.5 711.36 164.5 L 705.91 164.5 L 705.91 162.34 L 711.36 162.34 C 711.87 162.34 712.27 161.93 712.27 161.43 L 712.27 154.27 C 712.27 153.77 711.87 153.36 711.36 153.36 L 698.64 153.36 C 698.13 153.36 697.73 153.77 697.73 154.27 L 697.73 161.43 C 697.73 161.93 698.13 162.34 698.64 162.34 L 704.09 162.34 L 704.09 164.5 L 698.64 164.5 C 698.13 164.5 697.73 164.91 697.73 165.41 L 697.73 168.48 L 695.46 168.48 C 694.95 168.48 694.55 168.88 694.55 169.39 L 694.55 172.45 L 693.15 172.45 C 692.65 172.45 692.24 172.86 692.24 173.36 L 692.24 177.34 C 692.24 177.84 692.65 178.25 693.15 178.25 L 697.05 178.25 C 697.55 178.25 697.96 177.84 697.96 177.34 L 697.96 173.36 C 697.96 172.86 697.55 172.45 697.05 172.45 L 696.36 172.45 L 696.36 170.3 L 700.11 170.3 L 700.11 172.45 L 699.43 172.45 C 698.93 172.45 698.52 172.86 698.52 173.36 L 698.52 177.34 C 698.52 177.84 698.93 178.25 699.43 178.25 L 703.41 178.25 C 703.91 178.25 704.32 177.84 704.32 177.34 L 704.32 173.36 C 704.32 172.86 703.91 172.45 703.41 172.45 L 701.93 172.45 L 701.93 169.39 C 701.93 168.88 701.53 168.48 701.02 168.48 L 699.55 168.48 L 699.55 166.32 L 710.45 166.32 L 710.45 168.48 L 708.98 168.48 C 708.47 168.48 708.07 168.88 708.07 169.39 L 708.07 172.45 L 706.59 172.45 C 706.09 172.45 705.68 172.86 705.68 173.36 L 705.68 177.34 C 705.68 177.84 706.09 178.25 706.59 178.25 L 710.57 178.25 C 711.07 178.25 711.48 177.84 711.48 177.34 L 711.48 173.36 C 711.48 172.86 711.07 172.45 710.57 172.45 L 709.89 172.45 L 709.89 170.3 L 713.64 170.3 L 713.64 172.45 L 712.9 172.45 C 712.4 172.45 711.99 172.86 711.99 173.36 L 711.99 177.34 C 711.99 177.84 712.4 178.25 712.9 178.25 L 716.85 178.25 C 717.35 178.25 717.76 177.84 717.76 177.34 L 717.76 173.36 C 717.76 172.86 717.35 172.45 716.85 172.45 Z M 699.55 160.52 L 699.55 155.18 L 710.45 155.18 L 710.45 160.52 Z M 694.06 176.43 L 694.06 174.27 L 696.14 174.27 L 696.14 176.43 Z M 700.34 176.43 L 700.34 174.27 L 702.5 174.27 L 702.5 176.43 Z M 707.5 176.43 L 707.5 174.27 L 709.66 174.27 L 709.66 176.43 Z M 713.81 176.43 L 713.81 174.27 L 715.94 174.27 L 715.94 176.43 Z" fill="#ffffff" stroke="none" pointer-events="all" style="fill: light-dark(rgb(255, 255, 255), rgb(18, 18, 18));"/></g></g><g data-cell-id="alb2_l"><g transform="translate(0.5,0.5)"><rect x="645" y="200" width="120" height="28" fill="none" stroke="none" pointer-events="all"/></g><g><g><switch><foreignObject style="overflow: visible; text-align: left;" pointer-events="none" width="100%" height="100%" requiredFeatures="http://www.w3.org/TR/SVG11/feature#Extensibility"><div xmlns="http://www.w3.org/1999/xhtml" style="display: flex; align-items: unsafe center; justify-content: unsafe center; width: 118px; height: 1px; padding-top: 214px; margin-left: 646px;"><div style="box-sizing: border-box; font-size: 0; text-align: center; color: #232F3E; "><div style="display: inline-block; font-size: 10px; font-family: Helvetica; color: light-dark(#232F3E, #bdc7d4); line-height: 1.2; pointer-events: all; white-space: normal; word-wrap: normal; ">ALB</div></div></div></foreignObject><text x="705" y="217" fill="#232F3E" font-family="Helvetica" font-size="10px" text-anchor="middle">ALB</text></switch></g></g></g><g data-cell-id="asg2"><g transform="translate(0.5,0.5)"><path d="M 790 142 L 840 142 L 840 192 L 790 192 Z" fill="#ff9900" stroke="none" pointer-events="all" style="fill: light-dark(rgb(255, 153, 0), rgb(175, 87, 0));"/><path d="M 805.71 176.29 L 823.57 176.29 L 823.57 158.43 L 805.71 158.43 Z M 825 158.43 L 827.86 158.43 L 827.86 159.86 L 825 159.86 L 825 162.71 L 827.86 162.71 L 827.86 164.14 L 825 164.14 L 825 166.29 L 827.86 166.29 L 827.86 167.71 L 825 167.71 L 825 170.57 L 827.86 170.57 L 827.86 172 L 825 172 L 825 174.86 L 827.86 174.86 L 827.86 176.29 L 825 176.29 L 825 176.38 C 825 177.12 824.4 177.71 823.67 177.71 L 823.57 177.71 L 823.57 180.57 L 822.14 180.57 L 822.14 177.71 L 819.29 177.71 L 819.29 180.57 L 817.86 180.57 L 817.86 177.71 L 815.71 177.71 L 815.71 180.57 L 814.29 180.57 L 814.29 177.71 L 811.43 177.71 L 811.43 180.57 L 810 180.57 L 810 177.71 L 807.14 177.71 L 807.14 180.57 L 805.71 180.57 L 805.71 177.71 L 805.62 177.71 C 804.88 177.71 804.29 177.12 804.29 176.38 L 804.29 176.29 L 802.14 176.29 L 802.14 174.86 L 804.29 174.86 L 804.29 172 L 802.14 172 L 802.14 170.57 L 804.29 170.57 L 804.29 167.71 L 802.14 167.71 L 802.14 166.29 L 804.29 166.29 L 804.29 164.14 L 802.14 164.14 L 802.14 162.71 L 804.29 162.71 L 804.29 159.86 L 802.14 159.86 L 802.14 158.43 L 804.29 158.43 L 804.29 158.33 C 804.29 157.6 804.88 157 805.62 157 L 805.71 157 L 805.71 154.14 L 807.14 154.14 L 807.14 157 L 810 157 L 810 154.14 L 811.43 154.14 L 811.43 157 L 814.29 157 L 814.29 154.14 L 815.71 154.14 L 815.71 157 L 817.86 157 L 817.86 154.14 L 819.29 154.14 L 819.29 157 L 822.14 157 L 822.14 154.14 L 823.57 154.14 L 823.57 157 L 823.67 157 C 824.4 157 825 157.6 825 158.33 Z M 815.71 185.48 C 815.71 185.53 815.67 185.57 815.63 185.57 L 796.52 185.57 C 796.47 185.57 796.43 185.53 796.43 185.48 L 796.43 166.37 C 796.43 166.33 796.47 166.29 796.52 166.29 L 800.71 166.29 L 800.71 164.86 L 796.52 164.86 C 795.68 164.86 795 165.54 795 166.37 L 795 185.48 C 795 186.32 795.68 187 796.52 187 L 815.63 187 C 816.46 187 817.14 186.32 817.14 185.48 L 817.14 182 L 815.71 182 Z M 835 148.52 L 835 167.63 C 835 168.46 834.32 169.14 833.48 169.14 L 829.29 169.14 L 829.29 167.71 L 833.48 167.71 C 833.53 167.71 833.57 167.67 833.57 167.63 L 833.57 148.52 C 833.57 148.47 833.53 148.43 833.48 148.43 L 814.37 148.43 C 814.33 148.43 814.29 148.47 814.29 148.52 L 814.29 152.71 L 812.86 152.71 L 812.86 148.52 C 812.86 147.68 813.54 147 814.37 147 L 833.48 147 C 834.32 147 835 147.68 835 148.52 Z" fill="#ffffff" stroke="none" pointer-events="all" style="fill: light-dark(rgb(255, 255, 255), rgb(18, 18, 18));"/></g></g><g data-cell-id="asg2_l"><g transform="translate(0.5,0.5)"><rect x="750" y="200" width="130" height="28" fill="none" stroke="none" pointer-events="all"/></g><g><g><switch><foreignObject style="overflow: visible; text-align: left;" pointer-events="none" width="100%" height="100%" requiredFeatures="http://www.w3.org/TR/SVG11/feature#Extensibility"><div xmlns="http://www.w3.org/1999/xhtml" style="display: flex; align-items: unsafe center; justify-content: unsafe center; width: 128px; height: 1px; padding-top: 214px; margin-left: 751px;"><div style="box-sizing: border-box; font-size: 0; text-align: center; color: #232F3E; "><div style="display: inline-block; font-size: 9px; font-family: Helvetica; color: light-dark(#232F3E, #bdc7d4); line-height: 1.2; pointer-events: all; font-weight: bold; white-space: normal; word-wrap: normal; ">ASG (配置済)</div></div></div></foreignObject><text x="815" y="217" fill="#232F3E" font-family="Helvetica" font-size="9px" text-anchor="middle" font-weight="bold">ASG (配置済)</text></switch></g></g></g><g data-cell-id="aw2"><g transform="translate(0.5,0.5)"><path d="M 920 142 L 970 142 L 970 192 L 920 192 Z" fill="#3b48cc" stroke="none" pointer-events="all" style="fill: light-dark(rgb(59, 72, 204), rgb(152, 163, 255));"/><path d="M 948.51 151.86 L 946.44 151.86 L 946.44 150.47 L 948.51 150.47 L 948.51 148.38 L 949.89 148.38 L 949.89 150.47 L 951.97 150.47 L 951.97 151.86 L 949.89 151.86 L 949.89 153.95 L 948.51 153.95 Z M 956.81 159.51 L 954.73 159.51 L 954.73 158.12 L 956.81 158.12 L 956.81 156.03 L 958.19 156.03 L 958.19 158.12 L 960.27 158.12 L 960.27 159.51 L 958.19 159.51 L 958.19 161.6 L 956.81 161.6 Z M 953.21 181.51 C 951.89 178.15 948.84 175.08 945.5 173.75 C 948.84 172.42 951.89 169.36 953.21 166 C 954.53 169.36 957.58 172.42 960.91 173.75 C 957.58 175.08 954.53 178.15 953.21 181.51 Z M 964.31 173.06 C 959.44 173.06 953.9 167.48 953.9 162.58 C 953.9 162.2 953.59 161.89 953.21 161.89 C 952.83 161.89 952.52 162.2 952.52 162.58 C 952.52 167.48 946.97 173.06 942.11 173.06 C 941.72 173.06 941.42 173.37 941.42 173.75 C 941.42 174.14 941.72 174.45 942.11 174.45 C 946.97 174.45 952.52 180.03 952.52 184.92 C 952.52 185.31 952.83 185.62 953.21 185.62 C 953.59 185.62 953.9 185.31 953.9 184.92 C 953.9 180.03 959.44 174.45 964.31 174.45 C 964.69 174.45 965 174.14 965 173.75 C 965 173.37 964.69 173.06 964.31 173.06 Z M 926.38 159.35 C 928.4 160.82 932.31 161.6 936.06 161.6 C 939.82 161.6 943.73 160.82 945.74 159.35 L 945.74 166.01 C 944.75 167.35 941.08 168.66 936.2 168.66 C 930.58 168.66 926.38 166.89 926.38 165.31 Z M 936.06 153.95 C 942.06 153.95 945.74 155.77 945.74 157.08 C 945.74 158.39 942.06 160.21 936.06 160.21 C 930.07 160.21 926.38 158.39 926.38 157.08 C 926.38 155.77 930.07 153.95 936.06 153.95 Z M 945.74 180.06 C 945.74 181.67 941.6 183.46 936.06 183.46 C 930.52 183.46 926.38 181.67 926.38 180.06 L 926.38 175.62 C 928.42 177.17 932.41 178 936.24 178 C 938.9 178 941.48 177.62 943.49 176.93 L 943.05 175.61 C 941.18 176.25 938.76 176.6 936.24 176.6 C 930.6 176.6 926.38 174.84 926.38 173.26 L 926.38 167.68 C 928.42 169.23 932.39 170.05 936.2 170.05 C 940.29 170.05 943.79 169.2 945.74 167.86 L 945.74 169.95 L 947.13 169.95 L 947.13 157.08 C 947.13 154.14 941.43 152.55 936.06 152.55 C 930.92 152.55 925.48 154.02 925.04 156.73 L 925 156.73 L 925 180.06 C 925 183.17 930.7 184.85 936.06 184.85 C 941.43 184.85 947.13 183.17 947.13 180.06 L 947.13 177.61 L 945.74 177.61 Z" fill="#ffffff" stroke="none" pointer-events="all" style="fill: light-dark(rgb(255, 255, 255), rgb(18, 18, 18));"/></g></g><g data-cell-id="aw2_l"><g transform="translate(0.5,0.5)"><rect x="890" y="200" width="110" height="28" fill="none" stroke="none" pointer-events="all"/></g><g><g><switch><foreignObject style="overflow: visible; text-align: left;" pointer-events="none" width="100%" height="100%" requiredFeatures="http://www.w3.org/TR/SVG11/feature#Extensibility"><div xmlns="http://www.w3.org/1999/xhtml" style="display: flex; align-items: unsafe center; justify-content: unsafe center; width: 108px; height: 1px; padding-top: 214px; margin-left: 891px;"><div style="box-sizing: border-box; font-size: 0; text-align: center; color: #232F3E; "><div style="display: inline-block; font-size: 9px; font-family: Helvetica; color: light-dark(#232F3E, #bdc7d4); line-height: 1.2; pointer-events: all; font-weight: bold; white-space: normal; word-wrap: normal; ">Aurora<br />Global (S)</div></div></div></foreignObject><text x="945" y="217" fill="#232F3E" font-family="Helvetica" font-size="9px" text-anchor="middle" font-weight="bold">Aurora...</text></switch></g></g></g><g data-cell-id="s3_2"><g transform="translate(0.5,0.5)"><path d="M 560 272 L 610 272 L 610 322 L 560 322 Z" fill="#7aa116" stroke="none" pointer-events="all" style="fill: light-dark(rgb(122, 161, 22), rgb(97, 130, 11));"/><path d="M 599.92 299.07 L 600.2 297.13 C 602.73 298.65 602.76 299.28 602.76 299.29 C 602.76 299.3 602.32 299.66 599.92 299.07 Z M 598.54 298.68 C 594.16 297.36 588.08 294.56 585.61 293.4 C 585.61 293.39 585.62 293.38 585.62 293.37 C 585.62 292.43 584.85 291.65 583.9 291.65 C 582.95 291.65 582.18 292.43 582.18 293.37 C 582.18 294.32 582.95 295.09 583.9 295.09 C 584.32 295.09 584.69 294.93 584.99 294.69 C 587.89 296.06 593.93 298.81 598.33 300.11 L 596.59 312.4 C 596.59 312.43 596.58 312.47 596.58 312.5 C 596.58 313.58 591.79 315.57 583.97 315.57 C 576.05 315.57 571.21 313.58 571.21 312.5 C 571.21 312.47 571.21 312.44 571.21 312.4 L 567.57 285.83 C 570.72 288 577.49 289.14 583.97 289.14 C 590.44 289.14 597.2 288 600.36 285.84 Z M 567.18 283.06 C 567.24 282.12 572.64 278.43 583.97 278.43 C 595.3 278.43 600.7 282.12 600.76 283.06 L 600.76 283.38 C 600.13 285.48 593.13 287.71 583.97 287.71 C 574.79 287.71 567.79 285.48 567.18 283.37 Z M 602.18 283.07 C 602.18 280.6 595.09 277 583.97 277 C 572.85 277 565.76 280.6 565.76 283.07 L 565.82 283.61 L 569.79 312.56 C 569.88 315.79 578.51 317 583.97 317 C 590.73 317 597.92 315.44 598.01 312.56 L 599.72 300.49 C 600.68 300.72 601.46 300.83 602.09 300.83 C 602.93 300.83 603.5 300.63 603.85 300.21 C 604.14 299.88 604.24 299.46 604.16 299.03 C 603.98 298.04 602.8 296.97 600.41 295.61 L 602.11 283.64 Z" fill="#ffffff" stroke="none" pointer-events="all" style="fill: light-dark(rgb(255, 255, 255), rgb(18, 18, 18));"/></g></g><g data-cell-id="s3_2_l"><g transform="translate(0.5,0.5)"><rect x="510" y="330" width="150" height="28" fill="none" stroke="none" pointer-events="all"/></g><g><g><switch><foreignObject style="overflow: visible; text-align: left;" pointer-events="none" width="100%" height="100%" requiredFeatures="http://www.w3.org/TR/SVG11/feature#Extensibility"><div xmlns="http://www.w3.org/1999/xhtml" style="display: flex; align-items: unsafe center; justify-content: unsafe center; width: 148px; height: 1px; padding-top: 344px; margin-left: 511px;"><div style="box-sizing: border-box; font-size: 0; text-align: center; color: #232F3E; "><div style="display: inline-block; font-size: 9px; font-family: Helvetica; color: light-dark(#232F3E, #bdc7d4); line-height: 1.2; pointer-events: all; font-weight: bold; white-space: normal; word-wrap: normal; ">S3 CRR ターゲット</div></div></div></foreignObject><text x="585" y="347" fill="#232F3E" font-family="Helvetica" font-size="9px" text-anchor="middle" font-weight="bold">S3 CRR ターゲット</text></switch></g></g></g><g data-cell-id="n2"><g transform="translate(0.5,0.5)"><rect x="540" y="372" width="430" height="120" fill="none" stroke="none" pointer-events="all"/></g><g><g><switch><foreignObject style="overflow: visible; text-align: left;" pointer-events="none" width="100%" height="100%" requiredFeatures="http://www.w3.org/TR/SVG11/feature#Extensibility"><div xmlns="http://www.w3.org/1999/xhtml" style="display: flex; align-items: unsafe flex-start; justify-content: unsafe flex-start; width: 428px; height: 1px; padding-top: 379px; margin-left: 542px;"><div style="box-sizing: border-box; font-size: 0; text-align: left; color: #7AA116; "><div style="display: inline-block; font-size: 10px; font-family: Helvetica; color: light-dark(#7AA116, #61820b); line-height: 1.2; pointer-events: all; white-space: normal; word-wrap: normal; ">【EU読み取り】<br />・Aurora Secondary ローカル読取 (低レイテンシ)<br />・S3 静的コンテンツ EU コピー<br />・CloudFront+ALB で応答<br />・書込は北米 Primary へ</div></div></div></foreignObject><text x="542" y="389" fill="#7AA116" font-family="Helvetica" font-size="10px">【EU読み取り】...</text></switch></g></g></g><g data-cell-id="u1"><g><path d="M 340 48.61 L 117.47 151.92" fill="none" stroke="#8c4fff" stroke-width="2" stroke-miterlimit="10" pointer-events="stroke" style="stroke: light-dark(rgb(140, 79, 255), rgb(177, 125, 255));"/><path d="M 112.03 154.45 L 117.6 147.45 L 117.47 151.92 L 120.97 154.71 Z" fill="#8c4fff" stroke="#8c4fff" stroke-width="2" stroke-miterlimit="10" pointer-events="all" style="fill: light-dark(rgb(140, 79, 255), rgb(177, 125, 255)); stroke: light-dark(rgb(140, 79, 255), rgb(177, 125, 255));"/></g></g><g data-cell-id="u2"><g><path d="M 390 51.77 L 552.91 148.04" fill="none" stroke="#8c4fff" stroke-width="2" stroke-miterlimit="10" pointer-events="stroke" style="stroke: light-dark(rgb(140, 79, 255), rgb(177, 125, 255));"/><path d="M 558.07 151.09 L 549.15 150.46 L 552.91 148.04 L 553.22 143.58 Z" fill="#8c4fff" stroke="#8c4fff" stroke-width="2" stroke-miterlimit="10" pointer-events="all" style="fill: light-dark(rgb(140, 79, 255), rgb(177, 125, 255)); stroke: light-dark(rgb(140, 79, 255), rgb(177, 125, 255));"/></g></g><g data-cell-id="rep1"><g><path d="M 480 167 L 908.03 167" fill="none" stroke="#e7157b" stroke-width="4" stroke-miterlimit="10" pointer-events="stroke" style="stroke: light-dark(rgb(231, 21, 123), rgb(255, 129, 217));"/><path d="M 915.53 167 L 905.53 172 L 908.03 167 L 905.53 162 Z" fill="#e7157b" stroke="#e7157b" stroke-width="4" stroke-miterlimit="10" pointer-events="all" style="fill: light-dark(rgb(231, 21, 123), rgb(255, 129, 217)); stroke: light-dark(rgb(231, 21, 123), rgb(255, 129, 217));"/></g><g data-cell-id="rep1_l"><g><g><switch><foreignObject style="overflow: visible; text-align: left;" pointer-events="none" width="100%" height="100%" requiredFeatures="http://www.w3.org/TR/SVG11/feature#Extensibility"><div xmlns="http://www.w3.org/1999/xhtml" style="display: flex; align-items: unsafe center; justify-content: unsafe center; width: 1px; height: 1px; padding-top: 168px; margin-left: 690px;"><div style="box-sizing: border-box; font-size: 0; text-align: center; color: #E7157B; background-color: #FFFFFF; "><div style="display: inline-block; font-size: 9px; font-family: Helvetica; color: light-dark(#E7157B, #ff81d9); line-height: 1.2; pointer-events: all; background-color: light-dark(#FFFFFF, #121212); white-space: nowrap; ">Aurora物理レプリ &lt;1秒</div></div></div></foreignObject><text x="690" y="170" fill="#E7157B" font-family="Helvetica" font-size="9px" text-anchor="middle">Aurora物理レプリ &lt;1秒</text></switch></g></g></g></g><g data-cell-id="rep2"><g transform="translate(0.5,0.5)"><path d="M 110 297 L 549.9 297" fill="none" stroke="#e7157b" stroke-width="3" stroke-miterlimit="10" pointer-events="stroke" style="stroke: light-dark(rgb(231, 21, 123), rgb(255, 129, 217));"/><path d="M 556.65 297 L 547.65 301.5 L 549.9 297 L 547.65 292.5 Z" fill="#e7157b" stroke="#e7157b" stroke-width="3" stroke-miterlimit="10" pointer-events="all" style="fill: light-dark(rgb(231, 21, 123), rgb(255, 129, 217)); stroke: light-dark(rgb(231, 21, 123), rgb(255, 129, 217));"/></g><g data-cell-id="rep2_l"><g><g><switch><foreignObject style="overflow: visible; text-align: left;" pointer-events="none" width="100%" height="100%" requiredFeatures="http://www.w3.org/TR/SVG11/feature#Extensibility"><div xmlns="http://www.w3.org/1999/xhtml" style="display: flex; align-items: unsafe center; justify-content: unsafe center; width: 1px; height: 1px; padding-top: 298px; margin-left: 325px;"><div style="box-sizing: border-box; font-size: 0; text-align: center; color: #E7157B; background-color: #FFFFFF; "><div style="display: inline-block; font-size: 9px; font-family: Helvetica; color: light-dark(#E7157B, #ff81d9); line-height: 1.2; pointer-events: all; background-color: light-dark(#FFFFFF, #121212); white-space: nowrap; ">S3 CRR</div></div></div></foreignObject><text x="325" y="300" fill="#E7157B" font-family="Helvetica" font-size="9px" text-anchor="middle">S3 CRR</text></switch></g></g></g></g><g data-cell-id="cmp"><g transform="translate(0.5,0.5)"><rect x="20" y="522" width="960" height="60" rx="9" ry="9" fill="#fffde7" stroke="#ff9900" pointer-events="all" style="fill: light-dark(rgb(255, 253, 231), rgb(24, 22, 4)); stroke: light-dark(rgb(255, 153, 0), rgb(175, 87, 0));"/></g><g><g><switch><foreignObject style="overflow: visible; text-align: left;" pointer-events="none" width="100%" height="100%" requiredFeatures="http://www.w3.org/TR/SVG11/feature#Extensibility"><div xmlns="http://www.w3.org/1999/xhtml" style="display: flex; align-items: unsafe flex-start; justify-content: unsafe flex-start; width: 942px; height: 1px; padding-top: 535px; margin-left: 30px;"><div style="box-sizing: border-box; font-size: 0; text-align: left; color: #232F3E; "><div style="display: inline-block; font-size: 9px; font-family: Helvetica; color: light-dark(#232F3E, #bdc7d4); line-height: 1.2; pointer-events: all; white-space: normal; word-wrap: normal; ">❌ A: 論理レプリは遅い／S3にWebサーバ置換は非現実<br />❌ B: Global Accelerator は TCP/UDPレベル、ウェブ動的+静的に CloudFront の方が良い<br />❌ C: RDB→DynamoDBへの単純移行は現実的でない (関係性スキーマ要件)</div></div></div></foreignObject><text x="30" y="544" fill="#232F3E" font-family="Helvetica" font-size="9px">❌ A: 論理レプリは遅い／S3にWebサーバ置換は非現実...</text></switch></g></g></g></g></g></g><switch><g requiredFeatures="http://www.w3.org/TR/SVG11/feature#Extensibility"/><a transform="translate(0,-5)" xlink:href="https://www.drawio.com/doc/faq/svg-export-text-problems" target="_blank"><text text-anchor="middle" font-size="10px" x="50%" y="100%">Text is not SVG - cannot display</text></a></switch></svg>