<?xml version="1.0" encoding="UTF-8"?>
<!DOCTYPE svg PUBLIC "-//W3C//DTD SVG 1.1//EN" "http://www.w3.org/Graphics/SVG/1.1/DTD/svg11.dtd">
<svg xmlns="http://www.w3.org/2000/svg" style="background: transparent; background-color: transparent; color-scheme: light;" xmlns:xlink="http://www.w3.org/1999/xlink" version="1.1" width="962px" height="522px" viewBox="0 0 962 522"><defs/><g><g data-cell-id="0"><g data-cell-id="1"><g data-cell-id="title"><g transform="translate(0.5,0.5)"><rect x="0" y="0" width="960" height="30" fill="none" stroke="none" pointer-events="all"/></g><g><g><switch><foreignObject style="overflow: visible; text-align: left;" pointer-events="none" width="100%" height="100%" requiredFeatures="http://www.w3.org/TR/SVG11/feature#Extensibility"><div xmlns="http://www.w3.org/1999/xhtml" style="display: flex; align-items: unsafe center; justify-content: unsafe center; width: 958px; height: 1px; padding-top: 15px; margin-left: 1px;"><div style="box-sizing: border-box; font-size: 0; text-align: center; color: #232F3E; "><div style="display: inline-block; font-size: 16px; font-family: Helvetica; color: light-dark(#232F3E, #bdc7d4); line-height: 1.2; pointer-events: all; font-weight: bold; white-space: normal; word-wrap: normal; ">UDEMY-249 / 外部 API 遅延を吸収: Lambda → SQS キュー → Worker Lambda → External API</div></div></div></foreignObject><text x="480" y="20" fill="#232F3E" font-family="Helvetica" font-size="16px" text-anchor="middle" font-weight="bold">UDEMY-249 / 外部 API 遅延を吸収: Lambda → SQS キュー → Worker Lambda → External API</text></switch></g></g></g><g data-cell-id="subtitle_20_52"><g transform="translate(0.5,0.5)"><rect x="0" y="32" width="960" height="22" fill="none" stroke="none" pointer-events="all"/></g><g><g><switch><foreignObject style="overflow: visible; text-align: left;" pointer-events="none" width="100%" height="100%" requiredFeatures="http://www.w3.org/TR/SVG11/feature#Extensibility"><div xmlns="http://www.w3.org/1999/xhtml" style="display: flex; align-items: unsafe center; justify-content: unsafe center; width: 958px; height: 1px; padding-top: 43px; margin-left: 1px;"><div style="box-sizing: border-box; font-size: 0; text-align: center; color: #666666; "><div style="display: inline-block; font-size: 11px; font-family: Helvetica; color: light-dark(#666666, #959595); line-height: 1.2; pointer-events: all; font-style: italic; white-space: normal; word-wrap: normal; ">遅い API の応答待ちでフロント Lambda が詰まらない — バッファ + 非同期が基本</div></div></div></foreignObject><text x="480" y="46" fill="#666666" font-family="Helvetica" font-size="11px" text-anchor="middle" font-style="italic">遅い API の応答待ちでフロント Lambda が詰まらない — バッファ + 非同期が基本</text></switch></g></g></g><g data-cell-id="client"><g transform="translate(0.5,0.5)"><rect x="20" y="120" width="100" height="50" rx="7.5" ry="7.5" fill="#e8f2fd" stroke="#3b48cc" pointer-events="all" style="fill: light-dark(rgb(232, 242, 253), rgb(23, 32, 41)); stroke: light-dark(rgb(59, 72, 204), rgb(152, 163, 255));"/></g><g><g><switch><foreignObject style="overflow: visible; text-align: left;" pointer-events="none" width="100%" height="100%" requiredFeatures="http://www.w3.org/TR/SVG11/feature#Extensibility"><div xmlns="http://www.w3.org/1999/xhtml" style="display: flex; align-items: unsafe center; justify-content: unsafe center; width: 98px; height: 1px; padding-top: 145px; margin-left: 21px;"><div style="box-sizing: border-box; font-size: 0; text-align: center; color: #232F3E; "><div style="display: inline-block; font-size: 10px; font-family: Helvetica; color: light-dark(#232F3E, #bdc7d4); line-height: 1.2; pointer-events: all; white-space: normal; word-wrap: normal; ">Web Client</div></div></div></foreignObject><text x="70" y="148" fill="#232F3E" font-family="Helvetica" font-size="10px" text-anchor="middle">Web Client</text></switch></g></g></g><g data-cell-id="apigw"><g transform="translate(0.5,0.5)"><path d="M 150 110 L 200 110 L 200 160 L 150 160 Z" fill="#e7157b" stroke="none" pointer-events="all" style="fill: light-dark(rgb(231, 21, 123), rgb(255, 129, 217));"/><path d="M 170.76 146.17 L 172.86 146.17 L 172.86 144.73 L 170.76 144.73 Z M 174.29 146.17 L 176.43 146.17 L 176.43 144.73 L 174.29 144.73 Z M 165.72 116.91 L 156.45 121.52 L 156.45 150.14 L 165.72 153.28 Z M 167.15 126.02 L 167.15 144.73 L 169.29 144.73 L 169.29 146.17 L 167.15 146.17 L 167.15 154.28 C 167.15 154.51 167.04 154.73 166.85 154.87 C 166.73 154.95 166.58 155 166.44 155 C 166.36 155 166.28 154.99 166.21 154.96 L 155.5 151.34 C 155.21 151.24 155.02 150.97 155.02 150.66 L 155.02 121.07 C 155.02 120.8 155.17 120.54 155.42 120.42 L 166.12 115.11 C 166.34 115 166.6 115.01 166.81 115.14 C 167.02 115.28 167.15 115.51 167.15 115.76 L 167.15 124.58 L 169.29 124.58 L 169.29 126.02 Z M 177.85 146.17 L 180 146.17 L 180 144.73 L 177.85 144.73 Z M 177.9 126.02 L 180 126.02 L 180 124.58 L 177.9 124.58 Z M 174.33 126.02 L 176.43 126.02 L 176.43 124.58 L 174.33 124.58 Z M 170.76 126.02 L 172.86 126.02 L 172.86 124.58 L 170.76 124.58 Z M 193.55 121.52 L 184.28 116.91 L 184.28 153.28 L 193.55 150.14 Z M 194.98 150.66 C 194.98 150.97 194.79 151.24 194.5 151.34 L 183.79 154.96 C 183.72 154.99 183.64 155 183.56 155 C 183.42 155 183.27 154.95 183.15 154.87 C 182.96 154.73 182.85 154.51 182.85 154.28 L 182.85 146.17 L 181.47 146.17 L 181.47 144.73 L 182.85 144.73 L 182.85 126.02 L 181.47 126.02 L 181.47 124.58 L 182.85 124.58 L 182.85 115.76 C 182.85 115.51 182.98 115.28 183.19 115.14 C 183.4 115.01 183.66 115 183.88 115.11 L 194.58 120.42 C 194.83 120.54 194.98 120.8 194.98 121.07 Z M 177.09 130.6 L 175.76 130.08 L 172.19 139.44 L 173.53 139.95 Z M 181.93 135.17 C 182.21 134.89 182.21 134.43 181.93 134.15 L 179.07 131.27 L 178.06 132.29 L 180.41 134.66 L 178.06 137.03 L 179.07 138.05 Z M 170.93 138.05 L 168.07 135.17 C 167.79 134.89 167.79 134.43 168.07 134.15 L 170.93 131.27 L 171.94 132.29 L 169.59 134.66 L 171.94 137.03 Z" fill="#ffffff" stroke="none" pointer-events="all" style="fill: light-dark(rgb(255, 255, 255), rgb(18, 18, 18));"/></g></g><g data-cell-id="apigw_l"><g transform="translate(0.5,0.5)"><rect x="125" y="168" width="100" height="28" fill="none" stroke="none" pointer-events="all"/></g><g><g><switch><foreignObject style="overflow: visible; text-align: left;" pointer-events="none" width="100%" height="100%" requiredFeatures="http://www.w3.org/TR/SVG11/feature#Extensibility"><div xmlns="http://www.w3.org/1999/xhtml" style="display: flex; align-items: unsafe flex-start; justify-content: unsafe center; width: 98px; height: 1px; padding-top: 175px; margin-left: 126px;"><div style="box-sizing: border-box; font-size: 0; text-align: center; color: #232F3E; "><div style="display: inline-block; font-size: 10px; font-family: Helvetica; color: light-dark(#232F3E, #bdc7d4); line-height: 1.2; pointer-events: all; white-space: normal; word-wrap: normal; ">API Gateway</div></div></div></foreignObject><text x="175" y="185" fill="#232F3E" font-family="Helvetica" font-size="10px" text-anchor="middle">API Gateway</text></switch></g></g></g><g data-cell-id="l1"><g transform="translate(0.5,0.5)"><path d="M 300 110 L 350 110 L 350 160 L 300 160 Z" fill="#ed7100" stroke="none" pointer-events="all" style="fill: light-dark(rgb(237, 113, 0), rgb(216, 109, 12));"/><path d="M 316.45 153.57 L 307.58 153.57 L 317.39 133.07 L 321.84 142.22 Z M 318.03 131.11 C 317.91 130.86 317.66 130.71 317.39 130.71 L 317.39 130.71 C 317.11 130.71 316.86 130.87 316.74 131.11 L 305.8 153.98 C 305.7 154.2 305.71 154.46 305.84 154.67 C 305.97 154.87 306.2 155 306.45 155 L 316.9 155 C 317.18 155 317.43 154.84 317.55 154.59 L 323.28 142.52 C 323.37 142.32 323.37 142.1 323.27 141.9 Z M 342.87 153.57 L 334.06 153.57 L 319.92 123.98 C 319.81 123.73 319.55 123.57 319.28 123.57 L 313.51 123.57 L 313.52 116.43 L 324.82 116.43 L 338.89 146.02 C 339.01 146.27 339.26 146.43 339.54 146.43 L 342.87 146.43 Z M 343.59 145 L 339.99 145 L 325.92 115.41 C 325.8 115.16 325.55 115 325.27 115 L 312.8 115 C 312.41 115 312.09 115.32 312.09 115.71 L 312.08 124.28 C 312.08 124.47 312.15 124.66 312.29 124.79 C 312.42 124.92 312.6 125 312.79 125 L 318.82 125 L 332.96 154.59 C 333.08 154.84 333.33 155 333.61 155 L 343.59 155 C 343.98 155 344.3 154.68 344.3 154.29 L 344.3 145.71 C 344.3 145.32 343.98 145 343.59 145 Z" fill="#ffffff" stroke="none" pointer-events="all" style="fill: light-dark(rgb(255, 255, 255), rgb(18, 18, 18));"/></g></g><g data-cell-id="l1_l"><g transform="translate(0.5,0.5)"><rect x="275" y="168" width="100" height="28" fill="none" stroke="none" pointer-events="all"/></g><g><g><switch><foreignObject style="overflow: visible; text-align: left;" pointer-events="none" width="100%" height="100%" requiredFeatures="http://www.w3.org/TR/SVG11/feature#Extensibility"><div xmlns="http://www.w3.org/1999/xhtml" style="display: flex; align-items: unsafe flex-start; justify-content: unsafe center; width: 98px; height: 1px; padding-top: 175px; margin-left: 276px;"><div style="box-sizing: border-box; font-size: 0; text-align: center; color: #232F3E; "><div style="display: inline-block; font-size: 10px; font-family: Helvetica; color: light-dark(#232F3E, #bdc7d4); line-height: 1.2; pointer-events: all; white-space: normal; word-wrap: normal; ">Front Lambda (即時 Ack)</div></div></div></foreignObject><text x="325" y="185" fill="#232F3E" font-family="Helvetica" font-size="10px" text-anchor="middle">Front Lambda (即時 Ack)</text></switch></g></g></g><g data-cell-id="sqs"><g transform="translate(0.5,0.5)"><path d="M 450 110 L 500 110 L 500 160 L 450 160 Z" fill="#e7157b" stroke="none" pointer-events="all" style="fill: light-dark(rgb(231, 21, 123), rgb(255, 129, 217));"/><path d="M 467.09 137.58 L 469.2 135.51 C 469.33 135.38 469.4 135.2 469.4 135.01 C 469.4 134.83 469.33 134.65 469.2 134.52 L 467.09 132.42 L 466.1 133.4 L 467 134.3 L 463.79 134.3 L 463.79 135.7 L 467.01 135.7 L 466.1 136.6 Z M 483.15 137.65 L 485.95 135.56 C 486.13 135.42 486.23 135.22 486.23 135 C 486.23 134.78 486.13 134.57 485.95 134.44 L 483.15 132.35 L 482.31 133.47 L 483.43 134.3 L 480.62 134.3 L 480.62 135.7 L 483.43 135.7 L 482.31 136.53 Z M 471.64 135 C 471.64 136.48 471.39 137.87 470.91 139.09 C 472.17 138.6 473.59 138.36 475.01 138.36 C 476.44 138.36 477.86 138.6 479.12 139.09 C 478.64 137.87 478.38 136.48 478.38 135 C 478.38 133.52 478.64 132.13 479.12 130.91 C 476.6 131.88 473.43 131.88 470.91 130.91 C 471.39 132.13 471.64 133.52 471.64 135 Z M 468.21 141.76 C 468.07 141.63 468 141.45 468 141.27 C 468 141.09 468.07 140.91 468.21 140.78 C 469.48 139.51 470.24 137.35 470.24 135 C 470.24 132.65 469.48 130.49 468.21 129.22 C 468.07 129.09 468 128.91 468 128.73 C 468 128.55 468.07 128.37 468.21 128.24 C 468.48 127.96 468.92 127.96 469.2 128.24 C 471.92 130.94 478.11 130.94 480.83 128.24 C 481.1 127.96 481.55 127.96 481.82 128.24 C 481.96 128.37 482.03 128.55 482.03 128.73 C 482.03 128.91 481.96 129.09 481.82 129.22 C 480.55 130.49 479.79 132.65 479.79 135 C 479.79 137.35 480.55 139.51 481.82 140.78 C 481.96 140.91 482.03 141.09 482.03 141.27 C 482.03 141.45 481.96 141.63 481.82 141.76 C 481.68 141.9 481.5 141.97 481.33 141.97 C 481.15 141.97 480.97 141.9 480.83 141.76 C 478.11 139.06 471.92 139.06 469.2 141.76 C 468.92 142.04 468.48 142.04 468.21 141.76 Z M 493.22 135 C 493.22 134.35 492.97 133.74 492.51 133.28 C 492.03 132.81 491.4 132.57 490.78 132.57 C 490.15 132.57 489.52 132.81 489.05 133.28 C 488.09 134.23 488.09 135.77 489.05 136.72 C 490 137.67 491.55 137.67 492.51 136.72 C 492.97 136.26 493.22 135.65 493.22 135 Z M 493.5 137.71 C 492.75 138.45 491.76 138.83 490.78 138.83 C 489.79 138.83 488.8 138.45 488.05 137.71 C 486.55 136.22 486.55 133.79 488.05 132.3 C 489.56 130.81 492 130.81 493.5 132.3 C 495 133.79 495 136.22 493.5 137.71 Z M 461.67 135.02 C 461.67 134.37 461.41 133.76 460.95 133.3 C 460.49 132.84 459.88 132.59 459.22 132.59 C 458.57 132.59 457.95 132.84 457.49 133.3 C 457.03 133.76 456.78 134.37 456.78 135.02 C 456.78 135.67 457.03 136.28 457.49 136.74 C 458.42 137.66 460.03 137.66 460.95 136.74 C 461.41 136.28 461.67 135.67 461.67 135.02 Z M 461.94 137.72 C 461.19 138.47 460.21 138.84 459.22 138.84 C 458.24 138.84 457.25 138.47 456.5 137.72 C 455 136.23 455 133.81 456.5 132.31 C 458 130.82 460.44 130.82 461.94 132.31 C 463.44 133.81 463.44 136.23 461.94 137.72 Z M 485.44 145.41 C 482.64 148.19 478.92 149.73 474.96 149.73 C 471 149.73 467.27 148.19 464.47 145.41 C 462.55 143.51 461.5 141.23 460.95 139.65 L 459.62 140.11 C 460.22 141.82 461.37 144.3 463.48 146.4 C 466.55 149.44 470.62 151.12 474.96 151.12 C 479.29 151.12 483.37 149.44 486.43 146.4 C 488.2 144.64 489.61 142.4 490.4 140.1 L 489.08 139.65 C 488.35 141.76 487.06 143.8 485.44 145.41 Z M 460.95 130.35 L 459.62 129.89 C 460.47 127.47 461.84 125.23 463.49 123.6 C 466.55 120.56 470.62 118.88 474.96 118.88 C 479.29 118.88 483.36 120.56 486.43 123.6 C 488.16 125.32 489.61 127.61 490.4 129.89 L 489.08 130.35 C 488.35 128.26 487.02 126.16 485.44 124.58 C 482.64 121.8 478.92 120.27 474.96 120.27 C 471 120.27 467.28 121.8 464.48 124.58 C 462.98 126.07 461.73 128.12 460.95 130.35 Z" fill="#ffffff" stroke="none" pointer-events="all" style="fill: light-dark(rgb(255, 255, 255), rgb(18, 18, 18));"/></g></g><g data-cell-id="sqs_l"><g transform="translate(0.5,0.5)"><rect x="425" y="168" width="100" height="28" fill="none" stroke="none" pointer-events="all"/></g><g><g><switch><foreignObject style="overflow: visible; text-align: left;" pointer-events="none" width="100%" height="100%" requiredFeatures="http://www.w3.org/TR/SVG11/feature#Extensibility"><div xmlns="http://www.w3.org/1999/xhtml" style="display: flex; align-items: unsafe flex-start; justify-content: unsafe center; width: 98px; height: 1px; padding-top: 175px; margin-left: 426px;"><div style="box-sizing: border-box; font-size: 0; text-align: center; color: #232F3E; "><div style="display: inline-block; font-size: 10px; font-family: Helvetica; color: light-dark(#232F3E, #bdc7d4); line-height: 1.2; pointer-events: all; white-space: normal; word-wrap: normal; ">SQS Queue</div></div></div></foreignObject><text x="475" y="185" fill="#232F3E" font-family="Helvetica" font-size="10px" text-anchor="middle">SQS Queue</text></switch></g></g></g><g data-cell-id="l2"><g transform="translate(0.5,0.5)"><path d="M 600 110 L 650 110 L 650 160 L 600 160 Z" fill="#ed7100" stroke="none" pointer-events="all" style="fill: light-dark(rgb(237, 113, 0), rgb(216, 109, 12));"/><path d="M 616.45 153.57 L 607.58 153.57 L 617.39 133.07 L 621.84 142.22 Z M 618.03 131.11 C 617.91 130.86 617.66 130.71 617.39 130.71 L 617.39 130.71 C 617.11 130.71 616.86 130.87 616.74 131.11 L 605.8 153.98 C 605.7 154.2 605.71 154.46 605.84 154.67 C 605.97 154.87 606.2 155 606.45 155 L 616.9 155 C 617.18 155 617.43 154.84 617.55 154.59 L 623.28 142.52 C 623.37 142.32 623.37 142.1 623.27 141.9 Z M 642.87 153.57 L 634.06 153.57 L 619.92 123.98 C 619.8 123.73 619.55 123.57 619.28 123.57 L 613.51 123.57 L 613.52 116.43 L 624.82 116.43 L 638.89 146.02 C 639.01 146.27 639.26 146.43 639.54 146.43 L 642.87 146.43 Z M 643.59 145 L 639.99 145 L 625.92 115.41 C 625.8 115.16 625.55 115 625.27 115 L 612.8 115 C 612.41 115 612.09 115.32 612.09 115.71 L 612.08 124.28 C 612.08 124.47 612.15 124.66 612.29 124.79 C 612.42 124.92 612.6 125 612.79 125 L 618.83 125 L 632.96 154.59 C 633.08 154.84 633.33 155 633.61 155 L 643.59 155 C 643.98 155 644.3 154.68 644.3 154.29 L 644.3 145.71 C 644.3 145.32 643.98 145 643.59 145 Z" fill="#ffffff" stroke="none" pointer-events="all" style="fill: light-dark(rgb(255, 255, 255), rgb(18, 18, 18));"/></g></g><g data-cell-id="l2_l"><g transform="translate(0.5,0.5)"><rect x="575" y="168" width="100" height="28" fill="none" stroke="none" pointer-events="all"/></g><g><g><switch><foreignObject style="overflow: visible; text-align: left;" pointer-events="none" width="100%" height="100%" requiredFeatures="http://www.w3.org/TR/SVG11/feature#Extensibility"><div xmlns="http://www.w3.org/1999/xhtml" style="display: flex; align-items: unsafe flex-start; justify-content: unsafe center; width: 98px; height: 1px; padding-top: 175px; margin-left: 576px;"><div style="box-sizing: border-box; font-size: 0; text-align: center; color: #232F3E; "><div style="display: inline-block; font-size: 10px; font-family: Helvetica; color: light-dark(#232F3E, #bdc7d4); line-height: 1.2; pointer-events: all; white-space: normal; word-wrap: normal; ">Worker Lambda</div></div></div></foreignObject><text x="625" y="185" fill="#232F3E" font-family="Helvetica" font-size="10px" text-anchor="middle">Worker Lambda</text></switch></g></g></g><g data-cell-id="ext"><g transform="translate(0.5,0.5)"><rect x="760" y="120" width="140" height="50" rx="7.5" ry="7.5" fill="#f2f2f2" stroke="#666" pointer-events="all" style="fill: light-dark(rgb(242, 242, 242), rgb(29, 29, 29)); stroke: light-dark(rgb(102, 102, 102), rgb(0, 0, 0));"/></g><g><g><switch><foreignObject style="overflow: visible; text-align: left;" pointer-events="none" width="100%" height="100%" requiredFeatures="http://www.w3.org/TR/SVG11/feature#Extensibility"><div xmlns="http://www.w3.org/1999/xhtml" style="display: flex; align-items: unsafe center; justify-content: unsafe center; width: 138px; height: 1px; padding-top: 145px; margin-left: 761px;"><div style="box-sizing: border-box; font-size: 0; text-align: center; color: #232F3E; "><div style="display: inline-block; font-size: 10px; font-family: Helvetica; color: light-dark(#232F3E, #bdc7d4); line-height: 1.2; pointer-events: all; white-space: normal; word-wrap: normal; ">External API (遅い/不安定)</div></div></div></foreignObject><text x="830" y="148" fill="#232F3E" font-family="Helvetica" font-size="10px" text-anchor="middle">External API (遅い/不安定)</text></switch></g></g></g><g data-cell-id="dlq"><g transform="translate(0.5,0.5)"><path d="M 600 260 L 650 260 L 650 310 L 600 310 Z" fill="#dd344c" stroke="none" pointer-events="all" style="fill: light-dark(rgb(221, 52, 76), rgb(255, 127, 147));"/><path d="M 617.09 287.58 L 619.2 285.51 C 619.33 285.38 619.4 285.2 619.4 285.01 C 619.4 284.83 619.33 284.65 619.2 284.52 L 617.09 282.42 L 616.1 283.4 L 617 284.3 L 613.79 284.3 L 613.79 285.7 L 617.01 285.7 L 616.1 286.6 Z M 633.15 287.65 L 635.95 285.56 C 636.13 285.42 636.23 285.22 636.23 285 C 636.23 284.78 636.13 284.57 635.95 284.44 L 633.15 282.35 L 632.31 283.47 L 633.43 284.3 L 630.62 284.3 L 630.62 285.7 L 633.43 285.7 L 632.31 286.53 Z M 621.64 285 C 621.64 286.48 621.39 287.87 620.91 289.09 C 622.17 288.6 623.59 288.36 625.01 288.36 C 626.44 288.36 627.86 288.6 629.12 289.09 C 628.64 287.87 628.38 286.48 628.38 285 C 628.38 283.52 628.64 282.13 629.12 280.91 C 626.6 281.88 623.43 281.88 620.91 280.91 C 621.39 282.13 621.64 283.52 621.64 285 Z M 618.21 291.76 C 618.07 291.63 618 291.45 618 291.27 C 618 291.09 618.07 290.91 618.21 290.78 C 619.48 289.51 620.24 287.35 620.24 285 C 620.24 282.65 619.48 280.49 618.21 279.22 C 618.07 279.09 618 278.91 618 278.73 C 618 278.55 618.07 278.37 618.21 278.24 C 618.48 277.96 618.92 277.96 619.2 278.24 C 621.92 280.94 628.11 280.94 630.83 278.24 C 631.1 277.96 631.55 277.96 631.82 278.24 C 631.96 278.37 632.03 278.55 632.03 278.73 C 632.03 278.91 631.96 279.09 631.82 279.22 C 630.55 280.49 629.79 282.65 629.79 285 C 629.79 287.35 630.55 289.51 631.82 290.78 C 631.96 290.91 632.03 291.09 632.03 291.27 C 632.03 291.45 631.96 291.63 631.82 291.76 C 631.68 291.9 631.5 291.97 631.33 291.97 C 631.15 291.97 630.97 291.9 630.83 291.76 C 628.11 289.06 621.92 289.06 619.2 291.76 C 618.92 292.04 618.48 292.04 618.21 291.76 Z M 643.22 285 C 643.22 284.35 642.97 283.74 642.51 283.28 C 642.03 282.81 641.4 282.57 640.78 282.57 C 640.15 282.57 639.52 282.81 639.05 283.28 C 638.09 284.23 638.09 285.77 639.05 286.72 C 640 287.67 641.55 287.67 642.51 286.72 C 642.97 286.26 643.22 285.65 643.22 285 Z M 643.5 287.71 C 642.75 288.45 641.76 288.83 640.78 288.83 C 639.79 288.83 638.8 288.45 638.05 287.71 C 636.55 286.22 636.55 283.79 638.05 282.3 C 639.56 280.81 642 280.81 643.5 282.3 C 645 283.79 645 286.22 643.5 287.71 Z M 611.67 285.02 C 611.67 284.37 611.41 283.76 610.95 283.3 C 610.49 282.84 609.88 282.59 609.22 282.59 C 608.57 282.59 607.95 282.84 607.49 283.3 C 607.03 283.76 606.78 284.37 606.78 285.02 C 606.78 285.67 607.03 286.28 607.49 286.74 C 608.42 287.66 610.03 287.66 610.95 286.74 C 611.41 286.28 611.67 285.67 611.67 285.02 Z M 611.94 287.72 C 611.19 288.47 610.21 288.84 609.22 288.84 C 608.24 288.84 607.25 288.47 606.5 287.72 C 605 286.23 605 283.81 606.5 282.31 C 608 280.82 610.44 280.82 611.94 282.31 C 613.44 283.81 613.44 286.23 611.94 287.72 Z M 635.44 295.41 C 632.64 298.19 628.92 299.73 624.96 299.73 C 621 299.73 617.27 298.19 614.47 295.41 C 612.55 293.51 611.5 291.23 610.95 289.65 L 609.62 290.11 C 610.22 291.82 611.37 294.3 613.48 296.4 C 616.55 299.44 620.62 301.12 624.96 301.12 C 629.29 301.12 633.37 299.44 636.43 296.4 C 638.2 294.64 639.61 292.4 640.4 290.1 L 639.08 289.65 C 638.35 291.76 637.06 293.8 635.44 295.41 Z M 610.95 280.35 L 609.62 279.89 C 610.47 277.47 611.84 275.23 613.49 273.6 C 616.55 270.56 620.62 268.88 624.96 268.88 C 629.29 268.88 633.36 270.56 636.43 273.6 C 638.16 275.32 639.61 277.61 640.4 279.89 L 639.08 280.35 C 638.35 278.26 637.02 276.16 635.44 274.58 C 632.64 271.8 628.92 270.27 624.96 270.27 C 621 270.27 617.28 271.8 614.48 274.58 C 612.98 276.07 611.73 278.12 610.95 280.35 Z" fill="#ffffff" stroke="none" pointer-events="all" style="fill: light-dark(rgb(255, 255, 255), rgb(18, 18, 18));"/></g></g><g data-cell-id="dlq_l"><g transform="translate(0.5,0.5)"><rect x="575" y="318" width="100" height="28" fill="none" stroke="none" pointer-events="all"/></g><g><g><switch><foreignObject style="overflow: visible; text-align: left;" pointer-events="none" width="100%" height="100%" requiredFeatures="http://www.w3.org/TR/SVG11/feature#Extensibility"><div xmlns="http://www.w3.org/1999/xhtml" style="display: flex; align-items: unsafe flex-start; justify-content: unsafe center; width: 98px; height: 1px; padding-top: 325px; margin-left: 576px;"><div style="box-sizing: border-box; font-size: 0; text-align: center; color: #232F3E; "><div style="display: inline-block; font-size: 10px; font-family: Helvetica; color: light-dark(#232F3E, #bdc7d4); line-height: 1.2; pointer-events: all; white-space: normal; word-wrap: normal; ">DLQ</div></div></div></foreignObject><text x="625" y="335" fill="#232F3E" font-family="Helvetica" font-size="10px" text-anchor="middle">DLQ</text></switch></g></g></g><g data-cell-id="a1"><g><path d="M 120 140.24 L 141.8 138.16" fill="none" stroke="#232f3e" stroke-width="2" stroke-miterlimit="10" pointer-events="stroke" style="stroke: light-dark(rgb(35, 47, 62), rgb(189, 199, 212));"/><path d="M 147.77 137.59 L 140.19 142.33 L 141.8 138.16 L 139.43 134.37 Z" fill="#232f3e" stroke="#232f3e" stroke-width="2" stroke-miterlimit="10" pointer-events="all" style="fill: light-dark(rgb(35, 47, 62), rgb(189, 199, 212)); stroke: light-dark(rgb(35, 47, 62), rgb(189, 199, 212));"/></g></g><g data-cell-id="a2"><g><path d="M 200 135 L 291.76 135" fill="none" stroke="#232f3e" stroke-width="2" stroke-miterlimit="10" pointer-events="stroke" style="stroke: light-dark(rgb(35, 47, 62), rgb(189, 199, 212));"/><path d="M 297.76 135 L 289.76 139 L 291.76 135 L 289.76 131 Z" fill="#232f3e" stroke="#232f3e" stroke-width="2" stroke-miterlimit="10" pointer-events="all" style="fill: light-dark(rgb(35, 47, 62), rgb(189, 199, 212)); stroke: light-dark(rgb(35, 47, 62), rgb(189, 199, 212));"/></g></g><g data-cell-id="a3"><g><path d="M 350 135 L 441.76 135" fill="none" stroke="#232f3e" stroke-width="2" stroke-miterlimit="10" pointer-events="stroke" style="stroke: light-dark(rgb(35, 47, 62), rgb(189, 199, 212));"/><path d="M 447.76 135 L 439.76 139 L 441.76 135 L 439.76 131 Z" fill="#232f3e" stroke="#232f3e" stroke-width="2" stroke-miterlimit="10" pointer-events="all" style="fill: light-dark(rgb(35, 47, 62), rgb(189, 199, 212)); stroke: light-dark(rgb(35, 47, 62), rgb(189, 199, 212));"/></g><g><g><switch><foreignObject style="overflow: visible; text-align: left;" pointer-events="none" width="100%" height="100%" requiredFeatures="http://www.w3.org/TR/SVG11/feature#Extensibility"><div xmlns="http://www.w3.org/1999/xhtml" style="display: flex; align-items: unsafe center; justify-content: unsafe center; width: 1px; height: 1px; padding-top: 135px; margin-left: 400px;"><div style="box-sizing: border-box; font-size: 0; text-align: center; color: #232F3E; background-color: #ffffff; "><div style="display: inline-block; font-size: 10px; font-family: Helvetica; color: light-dark(#232F3E, #bdc7d4); line-height: 1.2; pointer-events: all; background-color: light-dark(#ffffff, var(--ge-dark-color, #121212)); white-space: nowrap; ">SendMessage</div></div></div></foreignObject><text x="400" y="138" fill="#232F3E" font-family="Helvetica" font-size="10px" text-anchor="middle">SendMessage</text></switch></g></g></g><g data-cell-id="a4"><g><path d="M 500 135 L 591.76 135" fill="none" stroke="#232f3e" stroke-width="2" stroke-miterlimit="10" pointer-events="stroke" style="stroke: light-dark(rgb(35, 47, 62), rgb(189, 199, 212));"/><path d="M 597.76 135 L 589.76 139 L 591.76 135 L 589.76 131 Z" fill="#232f3e" stroke="#232f3e" stroke-width="2" stroke-miterlimit="10" pointer-events="all" style="fill: light-dark(rgb(35, 47, 62), rgb(189, 199, 212)); stroke: light-dark(rgb(35, 47, 62), rgb(189, 199, 212));"/></g><g><g><switch><foreignObject style="overflow: visible; text-align: left;" pointer-events="none" width="100%" height="100%" requiredFeatures="http://www.w3.org/TR/SVG11/feature#Extensibility"><div xmlns="http://www.w3.org/1999/xhtml" style="display: flex; align-items: unsafe center; justify-content: unsafe center; width: 1px; height: 1px; padding-top: 135px; margin-left: 550px;"><div style="box-sizing: border-box; font-size: 0; text-align: center; color: #232F3E; background-color: #ffffff; "><div style="display: inline-block; font-size: 10px; font-family: Helvetica; color: light-dark(#232F3E, #bdc7d4); line-height: 1.2; pointer-events: all; background-color: light-dark(#ffffff, var(--ge-dark-color, #121212)); white-space: nowrap; ">poll</div></div></div></foreignObject><text x="550" y="138" fill="#232F3E" font-family="Helvetica" font-size="10px" text-anchor="middle">poll</text></switch></g></g></g><g data-cell-id="a5"><g><path d="M 650 136.22 L 751.77 141.18" fill="none" stroke="#232f3e" stroke-width="2" stroke-miterlimit="10" pointer-events="stroke" style="stroke: light-dark(rgb(35, 47, 62), rgb(189, 199, 212));"/><path d="M 757.77 141.48 L 749.58 145.08 L 751.77 141.18 L 749.97 137.09 Z" fill="#232f3e" stroke="#232f3e" stroke-width="2" stroke-miterlimit="10" pointer-events="all" style="fill: light-dark(rgb(35, 47, 62), rgb(189, 199, 212)); stroke: light-dark(rgb(35, 47, 62), rgb(189, 199, 212));"/></g><g><g><switch><foreignObject style="overflow: visible; text-align: left;" pointer-events="none" width="100%" height="100%" requiredFeatures="http://www.w3.org/TR/SVG11/feature#Extensibility"><div xmlns="http://www.w3.org/1999/xhtml" style="display: flex; align-items: unsafe center; justify-content: unsafe center; width: 1px; height: 1px; padding-top: 139px; margin-left: 705px;"><div style="box-sizing: border-box; font-size: 0; text-align: center; color: #232F3E; background-color: #ffffff; "><div style="display: inline-block; font-size: 10px; font-family: Helvetica; color: light-dark(#232F3E, #bdc7d4); line-height: 1.2; pointer-events: all; background-color: light-dark(#ffffff, var(--ge-dark-color, #121212)); white-space: nowrap; ">HTTP</div></div></div></foreignObject><text x="705" y="142" fill="#232F3E" font-family="Helvetica" font-size="10px" text-anchor="middle">HTTP</text></switch></g></g></g><g data-cell-id="a6"><g><path d="M 625 160 L 625 251.76" fill="none" stroke="#dd344c" stroke-width="2" stroke-miterlimit="10" pointer-events="stroke" style="stroke: light-dark(rgb(221, 52, 76), rgb(255, 127, 147));"/><path d="M 625 257.76 L 621 249.76 L 625 251.76 L 629 249.76 Z" fill="#dd344c" stroke="#dd344c" stroke-width="2" stroke-miterlimit="10" pointer-events="all" style="fill: light-dark(rgb(221, 52, 76), rgb(255, 127, 147)); stroke: light-dark(rgb(221, 52, 76), rgb(255, 127, 147));"/></g><g><g><switch><foreignObject style="overflow: visible; text-align: left;" pointer-events="none" width="100%" height="100%" requiredFeatures="http://www.w3.org/TR/SVG11/feature#Extensibility"><div xmlns="http://www.w3.org/1999/xhtml" style="display: flex; align-items: unsafe center; justify-content: unsafe center; width: 1px; height: 1px; padding-top: 210px; margin-left: 625px;"><div style="box-sizing: border-box; font-size: 0; text-align: center; color: #232F3E; background-color: #ffffff; "><div style="display: inline-block; font-size: 10px; font-family: Helvetica; color: light-dark(#232F3E, #bdc7d4); line-height: 1.2; pointer-events: all; background-color: light-dark(#ffffff, var(--ge-dark-color, #121212)); white-space: nowrap; ">失敗</div></div></div></foreignObject><text x="625" y="213" fill="#232F3E" font-family="Helvetica" font-size="10px" text-anchor="middle">失敗</text></switch></g></g></g><g data-cell-id="good"><g transform="translate(0.5,0.5)"><rect x="0" y="340" width="960" height="40" rx="6" ry="6" fill="#eaf5e0" stroke="#7aa116" pointer-events="all" style="fill: light-dark(rgb(234, 245, 224), rgb(23, 33, 14)); stroke: light-dark(rgb(122, 161, 22), rgb(97, 130, 11));"/></g><g><g><switch><foreignObject style="overflow: visible; text-align: left;" pointer-events="none" width="100%" height="100%" requiredFeatures="http://www.w3.org/TR/SVG11/feature#Extensibility"><div xmlns="http://www.w3.org/1999/xhtml" style="display: flex; align-items: unsafe center; justify-content: unsafe flex-start; width: 938px; height: 1px; padding-top: 360px; margin-left: 12px;"><div style="box-sizing: border-box; font-size: 0; text-align: left; color: #232F3E; "><div style="display: inline-block; font-size: 11px; font-family: Helvetica; color: light-dark(#232F3E, #bdc7d4); line-height: 1.2; pointer-events: all; font-weight: bold; white-space: normal; word-wrap: normal; ">✅ SQS が「緩衝材」— 外部 API 障害時もメッセージ保持。Worker 側リトライで最終整合性</div></div></div></foreignObject><text x="12" y="363" fill="#232F3E" font-family="Helvetica" font-size="11px" font-weight="bold">✅ SQS が「緩衝材」— 外部 API 障害時もメッセージ保持。Worker 側リトライで最終整合性</text></switch></g></g></g><g data-cell-id="bad"><g transform="translate(0.5,0.5)"><rect x="0" y="400" width="960" height="60" rx="9" ry="9" fill="#fdecea" stroke="#dd344c" pointer-events="all" style="fill: light-dark(rgb(253, 236, 234), rgb(42, 28, 26)); stroke: light-dark(rgb(221, 52, 76), rgb(255, 127, 147));"/></g><g><g><switch><foreignObject style="overflow: visible; text-align: left;" pointer-events="none" width="100%" height="100%" requiredFeatures="http://www.w3.org/TR/SVG11/feature#Extensibility"><div xmlns="http://www.w3.org/1999/xhtml" style="display: flex; align-items: unsafe center; justify-content: unsafe flex-start; width: 938px; height: 1px; padding-top: 430px; margin-left: 12px;"><div style="box-sizing: border-box; font-size: 0; text-align: left; color: #232F3E; "><div style="display: inline-block; font-size: 11px; font-family: Helvetica; color: light-dark(#232F3E, #bdc7d4); line-height: 1.2; pointer-events: all; font-weight: bold; white-space: normal; word-wrap: normal; ">❌ Lambda 同期呼び出し: 外部 API の遅延分ユーザー待ち + タイムアウト連鎖 ❌ SNS: メッセージ消失リスク、キュー永続化特性なし</div></div></div></foreignObject><text x="12" y="433" fill="#232F3E" font-family="Helvetica" font-size="11px" font-weight="bold">❌ Lambda 同期呼び出し: 外部 API の遅延分ユーザー待ち + タイムアウト連鎖 ❌ SNS: メッセージ消失リスク、キュー永続化特性なし</text></switch></g></g></g><g data-cell-id="tip"><g transform="translate(0.5,0.5)"><rect x="0" y="480" width="960" height="40" rx="6" ry="6" fill="#e8f2fd" stroke="#3b48cc" pointer-events="all" style="fill: light-dark(rgb(232, 242, 253), rgb(23, 32, 41)); stroke: light-dark(rgb(59, 72, 204), rgb(152, 163, 255));"/></g><g><g><switch><foreignObject style="overflow: visible; text-align: left;" pointer-events="none" width="100%" height="100%" requiredFeatures="http://www.w3.org/TR/SVG11/feature#Extensibility"><div xmlns="http://www.w3.org/1999/xhtml" style="display: flex; align-items: unsafe center; justify-content: unsafe flex-start; width: 938px; height: 1px; padding-top: 500px; margin-left: 12px;"><div style="box-sizing: border-box; font-size: 0; text-align: left; color: #232F3E; "><div style="display: inline-block; font-size: 11px; font-family: Helvetica; color: light-dark(#232F3E, #bdc7d4); line-height: 1.2; pointer-events: all; font-weight: bold; white-space: normal; word-wrap: normal; ">💡 SQS Visibility Timeout = Worker 処理時間 × 1.5 が目安。Batch 処理で ESM の maxBatchingWindow を活用</div></div></div></foreignObject><text x="12" y="503" fill="#232F3E" font-family="Helvetica" font-size="11px" font-weight="bold">💡 SQS Visibility Timeout = Worker 処理時間 × 1.5 が目安。Batch 処理で ESM の maxBatchingWindow を活用</text></switch></g></g></g></g></g></g><switch><g requiredFeatures="http://www.w3.org/TR/SVG11/feature#Extensibility"/><a transform="translate(0,-5)" xlink:href="https://www.drawio.com/doc/faq/svg-export-text-problems" target="_blank"><text text-anchor="middle" font-size="10px" x="50%" y="100%">Text is not SVG - cannot display</text></a></switch></svg>