<?xml version="1.0" encoding="UTF-8"?>
<!DOCTYPE svg PUBLIC "-//W3C//DTD SVG 1.1//EN" "http://www.w3.org/Graphics/SVG/1.1/DTD/svg11.dtd">
<svg xmlns="http://www.w3.org/2000/svg" style="background: transparent; background-color: transparent; color-scheme: light;" xmlns:xlink="http://www.w3.org/1999/xlink" version="1.1" width="962px" height="512px" viewBox="0 0 962 512"><defs/><g><g data-cell-id="0"><g data-cell-id="1"><g data-cell-id="title"><g transform="translate(0.5,0.5)"><rect x="0" y="0" width="960" height="30" fill="none" stroke="none" pointer-events="all"/></g><g><g><switch><foreignObject style="overflow: visible; text-align: left;" pointer-events="none" width="100%" height="100%" requiredFeatures="http://www.w3.org/TR/SVG11/feature#Extensibility"><div xmlns="http://www.w3.org/1999/xhtml" style="display: flex; align-items: unsafe center; justify-content: unsafe center; width: 958px; height: 1px; padding-top: 15px; margin-left: 1px;"><div style="box-sizing: border-box; font-size: 0; text-align: center; color: #232F3E; "><div style="display: inline-block; font-size: 16px; font-family: Helvetica; color: light-dark(#232F3E, #bdc7d4); line-height: 1.2; pointer-events: all; font-weight: bold; white-space: normal; word-wrap: normal; ">UDEMY-018 / VPC Flow Logs → CloudWatch Logs Subscription → Firehose + Lambda 匿名化 → Splunk</div></div></div></foreignObject><text x="480" y="20" fill="#232F3E" font-family="Helvetica" font-size="16px" text-anchor="middle" font-weight="bold">UDEMY-018 / VPC Flow Logs → CloudWatch Logs Subscription → Firehose + Lambda 匿名化 → Splunk</text></switch></g></g></g><g data-cell-id="subtitle_20_52"><g transform="translate(0.5,0.5)"><rect x="0" y="32" width="960" height="22" fill="none" stroke="none" pointer-events="all"/></g><g><g><switch><foreignObject style="overflow: visible; text-align: left;" pointer-events="none" width="100%" height="100%" requiredFeatures="http://www.w3.org/TR/SVG11/feature#Extensibility"><div xmlns="http://www.w3.org/1999/xhtml" style="display: flex; align-items: unsafe center; justify-content: unsafe center; width: 958px; height: 1px; padding-top: 43px; margin-left: 1px;"><div style="box-sizing: border-box; font-size: 0; text-align: center; color: #666666; "><div style="display: inline-block; font-size: 11px; font-family: Helvetica; color: light-dark(#666666, #959595); line-height: 1.2; pointer-events: all; font-style: italic; white-space: normal; word-wrap: normal; ">Splunk 連携の黄金パターン: Subscription Filter → Firehose + Lambda で PII マスク</div></div></div></foreignObject><text x="480" y="46" fill="#666666" font-family="Helvetica" font-size="11px" text-anchor="middle" font-style="italic">Splunk 連携の黄金パターン: Subscription Filter → Firehose + Lambda で PII マスク</text></switch></g></g></g><g data-cell-id="vpc"><g transform="translate(0.5,0.5)"><rect x="20" y="120" width="130" height="50" rx="7.5" ry="7.5" fill="#e8f2fd" stroke="#3b48cc" pointer-events="all" style="fill: light-dark(rgb(232, 242, 253), rgb(23, 32, 41)); stroke: light-dark(rgb(59, 72, 204), rgb(152, 163, 255));"/></g><g><g><switch><foreignObject style="overflow: visible; text-align: left;" pointer-events="none" width="100%" height="100%" requiredFeatures="http://www.w3.org/TR/SVG11/feature#Extensibility"><div xmlns="http://www.w3.org/1999/xhtml" style="display: flex; align-items: unsafe center; justify-content: unsafe center; width: 128px; height: 1px; padding-top: 145px; margin-left: 21px;"><div style="box-sizing: border-box; font-size: 0; text-align: center; color: #232F3E; "><div style="display: inline-block; font-size: 10px; font-family: Helvetica; color: light-dark(#232F3E, #bdc7d4); line-height: 1.2; pointer-events: all; white-space: normal; word-wrap: normal; ">VPC Flow Logs</div></div></div></foreignObject><text x="85" y="148" fill="#232F3E" font-family="Helvetica" font-size="10px" text-anchor="middle">VPC Flow Logs</text></switch></g></g></g><g data-cell-id="cwl"><g transform="translate(0.5,0.5)"><path d="M 180 110 L 230 110 L 230 160 L 180 160 Z" fill="#e7157b" stroke="none" pointer-events="all" style="fill: light-dark(rgb(231, 21, 123), rgb(255, 129, 217));"/><path d="M 200.83 117.32 C 198.53 117.37 196.24 118.17 194.3 119.89 C 194.28 119.9 194.27 119.91 194.25 119.93 C 191.11 123.2 190.7 125.87 190.83 128.28 C 188.99 128.69 187.23 130.18 186.11 132.66 C 186.1 132.68 186.09 132.7 186.09 132.73 C 185 135.92 186 138.11 186.64 139.51 C 186.66 139.54 186.67 139.57 186.69 139.6 C 188.2 141.97 190.14 143.12 192.1 143.12 C 192.1 143.12 192.1 143.12 192.1 143.12 L 200.45 143.08 L 200.44 141.53 L 192.1 141.58 C 190.74 141.58 189.34 140.84 188.03 138.81 C 187.39 137.41 186.64 135.96 187.55 133.26 C 188.65 130.85 190.33 129.73 191.66 129.65 C 192.1 129.62 192.43 129.24 192.39 128.8 C 192.17 126.38 192.19 124.33 195.35 121.03 C 197.88 118.81 201.01 118.41 203.88 119.32 C 206.37 120.26 208.64 122.31 209.78 125.6 C 209.99 126.2 210.78 126.31 211.15 125.79 C 212.15 124.37 213.73 123.88 215.47 125.05 C 216.7 125.93 217.02 127.29 217.1 128.75 C 217.12 129.12 217.4 129.42 217.77 129.47 C 219.98 129.76 221.68 130.94 222.62 132.58 C 223.29 134.01 223.39 136.02 222.96 137.57 C 222.21 139.39 221.48 140 220.34 140.65 L 221.11 141.99 C 222.41 141.25 223.56 140.23 224.42 138.11 C 224.43 138.08 224.44 138.06 224.45 138.03 C 225 136.1 224.91 133.77 224.02 131.9 C 224.01 131.88 224 131.86 223.99 131.85 C 222.89 129.91 220.93 128.55 218.53 128.07 C 218.37 126.56 217.92 124.89 216.36 123.78 C 216.35 123.78 216.35 123.77 216.34 123.77 C 214.41 122.47 212.25 122.79 210.75 124.05 C 209.36 120.96 207.02 118.84 204.41 117.86 C 204.39 117.86 204.38 117.85 204.37 117.85 C 203.54 117.58 202.68 117.41 201.81 117.35 L 201.81 117.35 C 201.48 117.33 201.16 117.32 200.83 117.33 Z M 211.18 130.46 C 206.6 130.46 202.88 134.19 202.88 138.76 C 202.88 143.34 206.6 147.07 211.18 147.07 C 212.43 147.07 213.62 146.78 214.69 146.28 L 220.04 151.63 C 220.04 151.63 220.05 151.64 220.05 151.64 C 220.58 152.14 221.21 152.5 221.93 152.59 C 222.64 152.68 223.41 152.46 224.04 151.95 C 224.09 151.91 224.13 151.86 224.17 151.82 C 224.61 151.24 224.91 150.6 224.95 149.91 C 224.99 149.22 224.72 148.51 224.2 147.94 C 224.19 147.93 224.18 147.93 224.18 147.92 L 218.65 142.37 C 219.18 141.28 219.48 140.06 219.48 138.76 C 219.48 134.19 215.76 130.46 211.18 130.46 Z M 211.18 132.01 C 214.92 132.01 217.93 135.03 217.93 138.76 C 217.93 142.5 214.92 145.52 211.18 145.52 C 207.44 145.52 204.43 142.5 204.43 138.76 C 204.43 135.03 207.44 132.01 211.18 132.01 Z M 208.89 140.68 C 208.21 140.19 207.77 139.4 207.77 138.5 C 207.77 137.01 208.96 135.82 210.45 135.82 C 211.05 135.82 211.6 136.01 212.04 136.34 L 212.97 135.11 C 212.27 134.58 211.39 134.27 210.45 134.27 C 208.12 134.27 206.22 136.17 206.22 138.5 C 206.22 139.88 206.9 141.12 207.93 141.89 Z M 217.82 143.74 L 223.06 148.99 C 223.35 149.31 223.42 149.54 223.4 149.83 C 223.39 150.08 223.23 150.41 222.99 150.77 C 222.67 151 222.4 151.09 222.12 151.05 C 221.81 151.02 221.46 150.84 221.12 150.52 L 216.07 145.47 C 216.73 144.98 217.33 144.4 217.82 143.74 Z" fill="#ffffff" stroke="none" pointer-events="all" style="fill: light-dark(rgb(255, 255, 255), rgb(18, 18, 18));"/></g></g><g data-cell-id="cwl_l"><g transform="translate(0.5,0.5)"><rect x="155" y="168" width="100" height="28" fill="none" stroke="none" pointer-events="all"/></g><g><g><switch><foreignObject style="overflow: visible; text-align: left;" pointer-events="none" width="100%" height="100%" requiredFeatures="http://www.w3.org/TR/SVG11/feature#Extensibility"><div xmlns="http://www.w3.org/1999/xhtml" style="display: flex; align-items: unsafe flex-start; justify-content: unsafe center; width: 98px; height: 1px; padding-top: 175px; margin-left: 156px;"><div style="box-sizing: border-box; font-size: 0; text-align: center; color: #232F3E; "><div style="display: inline-block; font-size: 10px; font-family: Helvetica; color: light-dark(#232F3E, #bdc7d4); line-height: 1.2; pointer-events: all; white-space: normal; word-wrap: normal; ">CloudWatch Logs (Subscription)</div></div></div></foreignObject><text x="205" y="185" fill="#232F3E" font-family="Helvetica" font-size="10px" text-anchor="middle">CloudWatch Logs (Sub...</text></switch></g></g></g><g data-cell-id="firehose"><g transform="translate(0.5,0.5)"><path d="M 340 110 L 390 110 L 390 160 L 340 160 Z" fill="#8c4fff" stroke="none" pointer-events="all" style="fill: light-dark(rgb(140, 79, 255), rgb(177, 125, 255));"/><path d="M 385 138.05 L 384.44 139.47 C 382.01 138.49 379.04 138 375.62 138 L 375.62 136.48 C 379.23 136.48 382.39 137.01 385 138.05 Z M 384.48 137.2 C 382.27 136.47 377.8 135.72 375.62 135.72 L 375.62 134.2 C 377.82 134.2 382.27 133.45 384.44 132.72 L 384.93 134.16 C 384.1 134.44 382.97 134.72 381.77 134.96 C 382.99 135.2 384.13 135.48 384.96 135.76 Z M 384.99 131.87 C 382.27 132.91 379.12 133.44 375.62 133.44 L 375.62 131.92 C 378.93 131.92 381.9 131.42 384.45 130.45 Z M 372.56 137.41 L 364.96 139.31 L 364.96 130.61 L 372.56 132.51 Z M 363.44 141.04 L 361.16 141.04 L 361.16 128.88 L 363.44 128.88 L 363.44 129.64 L 363.44 140.28 Z M 373.5 131.18 L 364.96 129.05 L 364.96 128.12 C 364.96 127.7 364.62 127.36 364.2 127.36 L 360.4 127.36 C 359.98 127.36 359.64 127.7 359.64 128.12 L 359.64 128.83 C 348.08 127.98 346.71 123.27 346.71 119.76 L 346.71 115.96 L 345.19 115.96 L 345.19 119.76 C 345.19 126.19 349.93 129.66 359.64 130.34 L 359.64 131.13 C 353.74 130.89 349.5 129.96 346.36 128.22 L 345.62 129.54 C 348.98 131.42 353.46 132.41 359.64 132.65 L 359.64 134.18 C 355.34 134.08 349.53 133.8 345.39 132.7 L 345 134.17 C 346.24 134.5 347.62 134.76 349.06 134.96 C 347.62 135.16 346.24 135.42 345 135.74 L 345.39 137.21 C 349.53 136.12 355.34 135.84 359.64 135.74 L 359.64 137.27 C 353.49 137.51 349.02 138.5 345.62 140.38 L 346.36 141.71 C 349.53 139.95 353.78 139.03 359.64 138.8 L 359.64 139.57 C 347.1 140.49 345.19 147.05 345.19 150.92 L 345.19 151.22 C 345.18 153.67 345.19 153.94 345.2 154.04 L 346.71 153.9 C 346.7 153.76 346.7 152.86 346.71 151.23 L 346.71 150.92 C 346.71 145.13 351.19 141.75 359.64 141.1 L 359.64 141.8 C 359.64 142.22 359.98 142.56 360.4 142.56 L 364.2 142.56 C 364.62 142.56 364.96 142.22 364.96 141.8 L 364.96 140.87 L 373.5 138.74 C 373.84 138.65 374.08 138.35 374.08 138 L 374.08 131.92 C 374.08 131.57 373.84 131.27 373.5 131.18 Z" fill="#ffffff" stroke="none" pointer-events="all" style="fill: light-dark(rgb(255, 255, 255), rgb(18, 18, 18));"/></g></g><g data-cell-id="firehose_l"><g transform="translate(0.5,0.5)"><rect x="315" y="168" width="100" height="28" fill="none" stroke="none" pointer-events="all"/></g><g><g><switch><foreignObject style="overflow: visible; text-align: left;" pointer-events="none" width="100%" height="100%" requiredFeatures="http://www.w3.org/TR/SVG11/feature#Extensibility"><div xmlns="http://www.w3.org/1999/xhtml" style="display: flex; align-items: unsafe flex-start; justify-content: unsafe center; width: 98px; height: 1px; padding-top: 175px; margin-left: 316px;"><div style="box-sizing: border-box; font-size: 0; text-align: center; color: #232F3E; "><div style="display: inline-block; font-size: 10px; font-family: Helvetica; color: light-dark(#232F3E, #bdc7d4); line-height: 1.2; pointer-events: all; white-space: normal; word-wrap: normal; ">Firehose</div></div></div></foreignObject><text x="365" y="185" fill="#232F3E" font-family="Helvetica" font-size="10px" text-anchor="middle">Firehose</text></switch></g></g></g><g data-cell-id="lambda"><g transform="translate(0.5,0.5)"><path d="M 500 110 L 550 110 L 550 160 L 500 160 Z" fill="#ed7100" stroke="none" pointer-events="all" style="fill: light-dark(rgb(237, 113, 0), rgb(216, 109, 12));"/><path d="M 516.45 153.57 L 507.58 153.57 L 517.39 133.07 L 521.84 142.22 Z M 518.03 131.11 C 517.91 130.86 517.66 130.71 517.39 130.71 L 517.39 130.71 C 517.11 130.71 516.86 130.87 516.74 131.11 L 505.8 153.98 C 505.7 154.2 505.71 154.46 505.84 154.67 C 505.97 154.87 506.2 155 506.45 155 L 516.9 155 C 517.18 155 517.43 154.84 517.55 154.59 L 523.28 142.52 C 523.37 142.32 523.37 142.1 523.27 141.9 Z M 542.87 153.57 L 534.06 153.57 L 519.92 123.98 C 519.8 123.73 519.55 123.57 519.28 123.57 L 513.51 123.57 L 513.52 116.43 L 524.82 116.43 L 538.89 146.02 C 539.01 146.27 539.26 146.43 539.54 146.43 L 542.87 146.43 Z M 543.59 145 L 539.99 145 L 525.92 115.41 C 525.8 115.16 525.55 115 525.27 115 L 512.8 115 C 512.41 115 512.09 115.32 512.09 115.71 L 512.08 124.28 C 512.08 124.47 512.15 124.66 512.29 124.79 C 512.42 124.92 512.6 125 512.79 125 L 518.83 125 L 532.96 154.59 C 533.08 154.84 533.33 155 533.61 155 L 543.59 155 C 543.98 155 544.3 154.68 544.3 154.29 L 544.3 145.71 C 544.3 145.32 543.98 145 543.59 145 Z" fill="#ffffff" stroke="none" pointer-events="all" style="fill: light-dark(rgb(255, 255, 255), rgb(18, 18, 18));"/></g></g><g data-cell-id="lambda_l"><g transform="translate(0.5,0.5)"><rect x="475" y="168" width="100" height="28" fill="none" stroke="none" pointer-events="all"/></g><g><g><switch><foreignObject style="overflow: visible; text-align: left;" pointer-events="none" width="100%" height="100%" requiredFeatures="http://www.w3.org/TR/SVG11/feature#Extensibility"><div xmlns="http://www.w3.org/1999/xhtml" style="display: flex; align-items: unsafe flex-start; justify-content: unsafe center; width: 98px; height: 1px; padding-top: 175px; margin-left: 476px;"><div style="box-sizing: border-box; font-size: 0; text-align: center; color: #232F3E; "><div style="display: inline-block; font-size: 10px; font-family: Helvetica; color: light-dark(#232F3E, #bdc7d4); line-height: 1.2; pointer-events: all; white-space: normal; word-wrap: normal; ">Lambda (Mask PII)</div></div></div></foreignObject><text x="525" y="185" fill="#232F3E" font-family="Helvetica" font-size="10px" text-anchor="middle">Lambda (Mask PII)</text></switch></g></g></g><g data-cell-id="splunk"><g transform="translate(0.5,0.5)"><rect x="660" y="120" width="130" height="50" rx="7.5" ry="7.5" fill="#f5e7d5" stroke="#8c4fff" pointer-events="all" style="fill: light-dark(rgb(245, 231, 213), rgb(47, 35, 19)); stroke: light-dark(rgb(140, 79, 255), rgb(177, 125, 255));"/></g><g><g><switch><foreignObject style="overflow: visible; text-align: left;" pointer-events="none" width="100%" height="100%" requiredFeatures="http://www.w3.org/TR/SVG11/feature#Extensibility"><div xmlns="http://www.w3.org/1999/xhtml" style="display: flex; align-items: unsafe center; justify-content: unsafe center; width: 128px; height: 1px; padding-top: 145px; margin-left: 661px;"><div style="box-sizing: border-box; font-size: 0; text-align: center; color: #232F3E; "><div style="display: inline-block; font-size: 10px; font-family: Helvetica; color: light-dark(#232F3E, #bdc7d4); line-height: 1.2; pointer-events: all; white-space: normal; word-wrap: normal; ">Splunk HEC (HTTPS)</div></div></div></foreignObject><text x="725" y="148" fill="#232F3E" font-family="Helvetica" font-size="10px" text-anchor="middle">Splunk HEC (HTTPS)</text></switch></g></g></g><g data-cell-id="s3"><g transform="translate(0.5,0.5)"><path d="M 820 110 L 870 110 L 870 160 L 820 160 Z" fill="#7aa116" stroke="none" pointer-events="all" style="fill: light-dark(rgb(122, 161, 22), rgb(97, 130, 11));"/><path d="M 859.92 137.07 L 860.2 135.13 C 862.73 136.65 862.76 137.28 862.76 137.29 C 862.76 137.3 862.32 137.66 859.92 137.07 Z M 858.54 136.68 C 854.16 135.36 848.08 132.56 845.61 131.4 C 845.61 131.39 845.62 131.38 845.62 131.37 C 845.62 130.43 844.85 129.66 843.9 129.66 C 842.95 129.66 842.18 130.43 842.18 131.37 C 842.18 132.32 842.95 133.09 843.9 133.09 C 844.32 133.09 844.69 132.93 844.99 132.69 C 847.89 134.06 853.93 136.81 858.33 138.11 L 856.59 150.4 C 856.59 150.43 856.58 150.47 856.58 150.5 C 856.58 151.58 851.79 153.57 843.97 153.57 C 836.05 153.57 831.21 151.58 831.21 150.5 C 831.21 150.47 831.21 150.44 831.21 150.4 L 827.57 123.83 C 830.72 126 837.49 127.14 843.97 127.14 C 850.44 127.14 857.2 126 860.36 123.84 Z M 827.18 121.06 C 827.24 120.12 832.64 116.43 843.97 116.43 C 855.3 116.43 860.7 120.11 860.76 121.06 L 860.76 121.38 C 860.13 123.48 853.13 125.71 843.97 125.71 C 834.79 125.71 827.79 123.48 827.18 121.37 Z M 862.18 121.07 C 862.18 118.6 855.09 115 843.97 115 C 832.85 115 825.76 118.6 825.76 121.07 L 825.82 121.61 L 829.79 150.56 C 829.88 153.79 838.51 155 843.97 155 C 850.73 155 857.92 153.44 858.01 150.56 L 859.72 138.49 C 860.68 138.72 861.46 138.83 862.09 138.83 C 862.93 138.83 863.5 138.63 863.85 138.21 C 864.14 137.88 864.24 137.47 864.16 137.03 C 863.98 136.04 862.8 134.97 860.41 133.61 L 862.11 121.64 Z" fill="#ffffff" stroke="none" pointer-events="all" style="fill: light-dark(rgb(255, 255, 255), rgb(18, 18, 18));"/></g></g><g data-cell-id="s3_l"><g transform="translate(0.5,0.5)"><rect x="795" y="168" width="100" height="28" fill="none" stroke="none" pointer-events="all"/></g><g><g><switch><foreignObject style="overflow: visible; text-align: left;" pointer-events="none" width="100%" height="100%" requiredFeatures="http://www.w3.org/TR/SVG11/feature#Extensibility"><div xmlns="http://www.w3.org/1999/xhtml" style="display: flex; align-items: unsafe flex-start; justify-content: unsafe center; width: 98px; height: 1px; padding-top: 175px; margin-left: 796px;"><div style="box-sizing: border-box; font-size: 0; text-align: center; color: #232F3E; "><div style="display: inline-block; font-size: 10px; font-family: Helvetica; color: light-dark(#232F3E, #bdc7d4); line-height: 1.2; pointer-events: all; white-space: normal; word-wrap: normal; ">S3 (Backup)</div></div></div></foreignObject><text x="845" y="185" fill="#232F3E" font-family="Helvetica" font-size="10px" text-anchor="middle">S3 (Backup)</text></switch></g></g></g><g data-cell-id="a1"><g><path d="M 150 139.58 L 171.79 137.77" fill="none" stroke="#232f3e" stroke-width="2" stroke-miterlimit="10" pointer-events="stroke" style="stroke: light-dark(rgb(35, 47, 62), rgb(189, 199, 212));"/><path d="M 177.77 137.27 L 170.13 141.92 L 171.79 137.77 L 169.47 133.95 Z" fill="#232f3e" stroke="#232f3e" stroke-width="2" stroke-miterlimit="10" pointer-events="all" style="fill: light-dark(rgb(35, 47, 62), rgb(189, 199, 212)); stroke: light-dark(rgb(35, 47, 62), rgb(189, 199, 212));"/></g></g><g data-cell-id="a2"><g><path d="M 230 135 L 331.76 135" fill="none" stroke="#232f3e" stroke-width="2" stroke-miterlimit="10" pointer-events="stroke" style="stroke: light-dark(rgb(35, 47, 62), rgb(189, 199, 212));"/><path d="M 337.76 135 L 329.76 139 L 331.76 135 L 329.76 131 Z" fill="#232f3e" stroke="#232f3e" stroke-width="2" stroke-miterlimit="10" pointer-events="all" style="fill: light-dark(rgb(35, 47, 62), rgb(189, 199, 212)); stroke: light-dark(rgb(35, 47, 62), rgb(189, 199, 212));"/></g><g><g><switch><foreignObject style="overflow: visible; text-align: left;" pointer-events="none" width="100%" height="100%" requiredFeatures="http://www.w3.org/TR/SVG11/feature#Extensibility"><div xmlns="http://www.w3.org/1999/xhtml" style="display: flex; align-items: unsafe center; justify-content: unsafe center; width: 1px; height: 1px; padding-top: 135px; margin-left: 285px;"><div style="box-sizing: border-box; font-size: 0; text-align: center; color: #232F3E; background-color: #ffffff; "><div style="display: inline-block; font-size: 10px; font-family: Helvetica; color: light-dark(#232F3E, #bdc7d4); line-height: 1.2; pointer-events: all; background-color: light-dark(#ffffff, var(--ge-dark-color, #121212)); white-space: nowrap; ">Subscription Filter</div></div></div></foreignObject><text x="285" y="138" fill="#232F3E" font-family="Helvetica" font-size="10px" text-anchor="middle">Subscription Filter</text></switch></g></g></g><g data-cell-id="a3"><g><path d="M 390 135 L 491.76 135" fill="none" stroke="#232f3e" stroke-width="2" stroke-miterlimit="10" stroke-dasharray="6 6" pointer-events="stroke" style="stroke: light-dark(rgb(35, 47, 62), rgb(189, 199, 212));"/><path d="M 497.76 135 L 489.76 139 L 491.76 135 L 489.76 131 Z" fill="#232f3e" stroke="#232f3e" stroke-width="2" stroke-miterlimit="10" pointer-events="all" style="fill: light-dark(rgb(35, 47, 62), rgb(189, 199, 212)); stroke: light-dark(rgb(35, 47, 62), rgb(189, 199, 212));"/></g><g><g><switch><foreignObject style="overflow: visible; text-align: left;" pointer-events="none" width="100%" height="100%" requiredFeatures="http://www.w3.org/TR/SVG11/feature#Extensibility"><div xmlns="http://www.w3.org/1999/xhtml" style="display: flex; align-items: unsafe center; justify-content: unsafe center; width: 1px; height: 1px; padding-top: 135px; margin-left: 445px;"><div style="box-sizing: border-box; font-size: 0; text-align: center; color: #232F3E; background-color: #ffffff; "><div style="display: inline-block; font-size: 10px; font-family: Helvetica; color: light-dark(#232F3E, #bdc7d4); line-height: 1.2; pointer-events: all; background-color: light-dark(#ffffff, var(--ge-dark-color, #121212)); white-space: nowrap; ">Transform</div></div></div></foreignObject><text x="445" y="138" fill="#232F3E" font-family="Helvetica" font-size="10px" text-anchor="middle">Transform</text></switch></g></g></g><g data-cell-id="a4"><g><path d="M 500 135 L 398.24 135" fill="none" stroke="#232f3e" stroke-width="2" stroke-miterlimit="10" stroke-dasharray="6 6" pointer-events="stroke" style="stroke: light-dark(rgb(35, 47, 62), rgb(189, 199, 212));"/><path d="M 392.24 135 L 400.24 131 L 398.24 135 L 400.24 139 Z" fill="#232f3e" stroke="#232f3e" stroke-width="2" stroke-miterlimit="10" pointer-events="all" style="fill: light-dark(rgb(35, 47, 62), rgb(189, 199, 212)); stroke: light-dark(rgb(35, 47, 62), rgb(189, 199, 212));"/></g><g><g><switch><foreignObject style="overflow: visible; text-align: left;" pointer-events="none" width="100%" height="100%" requiredFeatures="http://www.w3.org/TR/SVG11/feature#Extensibility"><div xmlns="http://www.w3.org/1999/xhtml" style="display: flex; align-items: unsafe center; justify-content: unsafe center; width: 1px; height: 1px; padding-top: 135px; margin-left: 445px;"><div style="box-sizing: border-box; font-size: 0; text-align: center; color: #232F3E; background-color: #ffffff; "><div style="display: inline-block; font-size: 10px; font-family: Helvetica; color: light-dark(#232F3E, #bdc7d4); line-height: 1.2; pointer-events: all; background-color: light-dark(#ffffff, var(--ge-dark-color, #121212)); white-space: nowrap; ">anonymized</div></div></div></foreignObject><text x="445" y="138" fill="#232F3E" font-family="Helvetica" font-size="10px" text-anchor="middle">anonymized</text></switch></g></g></g><g data-cell-id="a5"><g><path d="M 390 135.69 L 651.77 142.97" fill="none" stroke="#232f3e" stroke-width="2" stroke-miterlimit="10" pointer-events="stroke" style="stroke: light-dark(rgb(35, 47, 62), rgb(189, 199, 212));"/><path d="M 657.76 143.13 L 649.66 146.91 L 651.77 142.97 L 649.88 138.91 Z" fill="#232f3e" stroke="#232f3e" stroke-width="2" stroke-miterlimit="10" pointer-events="all" style="fill: light-dark(rgb(35, 47, 62), rgb(189, 199, 212)); stroke: light-dark(rgb(35, 47, 62), rgb(189, 199, 212));"/></g></g><g data-cell-id="a6"><g><path d="M 390 135 L 811.76 135" fill="none" stroke="#232f3e" stroke-width="2" stroke-miterlimit="10" stroke-dasharray="6 6" pointer-events="stroke" style="stroke: light-dark(rgb(35, 47, 62), rgb(189, 199, 212));"/><path d="M 817.76 135 L 809.76 139 L 811.76 135 L 809.76 131 Z" fill="#232f3e" stroke="#232f3e" stroke-width="2" stroke-miterlimit="10" pointer-events="all" style="fill: light-dark(rgb(35, 47, 62), rgb(189, 199, 212)); stroke: light-dark(rgb(35, 47, 62), rgb(189, 199, 212));"/></g><g><g><switch><foreignObject style="overflow: visible; text-align: left;" pointer-events="none" width="100%" height="100%" requiredFeatures="http://www.w3.org/TR/SVG11/feature#Extensibility"><div xmlns="http://www.w3.org/1999/xhtml" style="display: flex; align-items: unsafe center; justify-content: unsafe center; width: 1px; height: 1px; padding-top: 135px; margin-left: 605px;"><div style="box-sizing: border-box; font-size: 0; text-align: center; color: #232F3E; background-color: #ffffff; "><div style="display: inline-block; font-size: 10px; font-family: Helvetica; color: light-dark(#232F3E, #bdc7d4); line-height: 1.2; pointer-events: all; background-color: light-dark(#ffffff, var(--ge-dark-color, #121212)); white-space: nowrap; ">エラー Backup</div></div></div></foreignObject><text x="605" y="138" fill="#232F3E" font-family="Helvetica" font-size="10px" text-anchor="middle">エラー Backup</text></switch></g></g></g><g data-cell-id="good"><g transform="translate(0.5,0.5)"><rect x="0" y="270" width="960" height="40" rx="6" ry="6" fill="#eaf5e0" stroke="#7aa116" pointer-events="all" style="fill: light-dark(rgb(234, 245, 224), rgb(23, 33, 14)); stroke: light-dark(rgb(122, 161, 22), rgb(97, 130, 11));"/></g><g><g><switch><foreignObject style="overflow: visible; text-align: left;" pointer-events="none" width="100%" height="100%" requiredFeatures="http://www.w3.org/TR/SVG11/feature#Extensibility"><div xmlns="http://www.w3.org/1999/xhtml" style="display: flex; align-items: unsafe center; justify-content: unsafe flex-start; width: 938px; height: 1px; padding-top: 290px; margin-left: 12px;"><div style="box-sizing: border-box; font-size: 0; text-align: left; color: #232F3E; "><div style="display: inline-block; font-size: 11px; font-family: Helvetica; color: light-dark(#232F3E, #bdc7d4); line-height: 1.2; pointer-events: all; font-weight: bold; white-space: normal; word-wrap: normal; ">✅ Firehose は Splunk を Destination としてネイティブ対応。Lambda 変換で IP / MAC / ユーザー名をマスク</div></div></div></foreignObject><text x="12" y="293" fill="#232F3E" font-family="Helvetica" font-size="11px" font-weight="bold">✅ Firehose は Splunk を Destination としてネイティブ対応。Lambda 変換で IP / MAC / ユーザー名をマスク</text></switch></g></g></g><g data-cell-id="bad"><g transform="translate(0.5,0.5)"><rect x="0" y="330" width="960" height="60" rx="9" ry="9" fill="#fdecea" stroke="#dd344c" pointer-events="all" style="fill: light-dark(rgb(253, 236, 234), rgb(42, 28, 26)); stroke: light-dark(rgb(221, 52, 76), rgb(255, 127, 147));"/></g><g><g><switch><foreignObject style="overflow: visible; text-align: left;" pointer-events="none" width="100%" height="100%" requiredFeatures="http://www.w3.org/TR/SVG11/feature#Extensibility"><div xmlns="http://www.w3.org/1999/xhtml" style="display: flex; align-items: unsafe center; justify-content: unsafe flex-start; width: 938px; height: 1px; padding-top: 360px; margin-left: 12px;"><div style="box-sizing: border-box; font-size: 0; text-align: left; color: #232F3E; "><div style="display: inline-block; font-size: 11px; font-family: Helvetica; color: light-dark(#232F3E, #bdc7d4); line-height: 1.2; pointer-events: all; font-weight: bold; white-space: normal; word-wrap: normal; ">❌ EC2 上の Forwarder → Splunk: スケーリングと HA を自前運用 ❌ Lambda が Splunk に直接送信: HTTP リトライ / 背圧処理を実装しなければならない</div></div></div></foreignObject><text x="12" y="363" fill="#232F3E" font-family="Helvetica" font-size="11px" font-weight="bold">❌ EC2 上の Forwarder → Splunk: スケーリングと HA を自前運用 ❌ Lambda が Splunk に直接送信: HTTP リトライ / 背圧処理を実装しなければならない</text></switch></g></g></g><g data-cell-id="tip"><g transform="translate(0.5,0.5)"><rect x="0" y="410" width="960" height="40" rx="6" ry="6" fill="#fff5eb" stroke="#ff9900" pointer-events="all" style="fill: light-dark(rgb(255, 245, 235), rgb(32, 24, 15)); stroke: light-dark(rgb(255, 153, 0), rgb(175, 87, 0));"/></g><g><g><switch><foreignObject style="overflow: visible; text-align: left;" pointer-events="none" width="100%" height="100%" requiredFeatures="http://www.w3.org/TR/SVG11/feature#Extensibility"><div xmlns="http://www.w3.org/1999/xhtml" style="display: flex; align-items: unsafe center; justify-content: unsafe flex-start; width: 938px; height: 1px; padding-top: 430px; margin-left: 12px;"><div style="box-sizing: border-box; font-size: 0; text-align: left; color: #232F3E; "><div style="display: inline-block; font-size: 11px; font-family: Helvetica; color: light-dark(#232F3E, #bdc7d4); line-height: 1.2; pointer-events: all; font-weight: bold; white-space: normal; word-wrap: normal; ">💡 Firehose の Backup 設定で Splunk 送信失敗を S3 に自動保存。再送可能</div></div></div></foreignObject><text x="12" y="433" fill="#232F3E" font-family="Helvetica" font-size="11px" font-weight="bold">💡 Firehose の Backup 設定で Splunk 送信失敗を S3 に自動保存。再送可能</text></switch></g></g></g><g data-cell-id="tip2"><g transform="translate(0.5,0.5)"><rect x="0" y="470" width="960" height="40" rx="6" ry="6" fill="#e8f2fd" stroke="#3b48cc" pointer-events="all" style="fill: light-dark(rgb(232, 242, 253), rgb(23, 32, 41)); stroke: light-dark(rgb(59, 72, 204), rgb(152, 163, 255));"/></g><g><g><switch><foreignObject style="overflow: visible; text-align: left;" pointer-events="none" width="100%" height="100%" requiredFeatures="http://www.w3.org/TR/SVG11/feature#Extensibility"><div xmlns="http://www.w3.org/1999/xhtml" style="display: flex; align-items: unsafe center; justify-content: unsafe flex-start; width: 938px; height: 1px; padding-top: 490px; margin-left: 12px;"><div style="box-sizing: border-box; font-size: 0; text-align: left; color: #232F3E; "><div style="display: inline-block; font-size: 11px; font-family: Helvetica; color: light-dark(#232F3E, #bdc7d4); line-height: 1.2; pointer-events: all; font-weight: bold; white-space: normal; word-wrap: normal; ">📌 CloudWatch Logs Subscription は Destination (KDS / Firehose / Lambda) に直接配信可。中間 EC2 不要</div></div></div></foreignObject><text x="12" y="493" fill="#232F3E" font-family="Helvetica" font-size="11px" font-weight="bold">📌 CloudWatch Logs Subscription は Destination (KDS / Firehose / Lambda) に直接配信可。中間 EC2 不要</text></switch></g></g></g></g></g></g><switch><g requiredFeatures="http://www.w3.org/TR/SVG11/feature#Extensibility"/><a transform="translate(0,-5)" xlink:href="https://www.drawio.com/doc/faq/svg-export-text-problems" target="_blank"><text text-anchor="middle" font-size="10px" x="50%" y="100%">Text is not SVG - cannot display</text></a></switch></svg>