<?xml version="1.0" encoding="UTF-8"?>
<!DOCTYPE svg PUBLIC "-//W3C//DTD SVG 1.1//EN" "http://www.w3.org/Graphics/SVG/1.1/DTD/svg11.dtd">
<svg xmlns="http://www.w3.org/2000/svg" style="background: transparent; background-color: transparent; color-scheme: light;" xmlns:xlink="http://www.w3.org/1999/xlink" version="1.1" width="962px" height="532px" viewBox="0 0 962 532"><defs/><g><g data-cell-id="0"><g data-cell-id="1"><g data-cell-id="title"><g transform="translate(0.5,0.5)"><rect x="0" y="0" width="960" height="30" fill="none" stroke="none" pointer-events="all"/></g><g><g><switch><foreignObject style="overflow: visible; text-align: left;" pointer-events="none" width="100%" height="100%" requiredFeatures="http://www.w3.org/TR/SVG11/feature#Extensibility"><div xmlns="http://www.w3.org/1999/xhtml" style="display: flex; align-items: unsafe center; justify-content: unsafe center; width: 958px; height: 1px; padding-top: 15px; margin-left: 1px;"><div style="box-sizing: border-box; font-size: 0; text-align: center; color: #232F3E; "><div style="display: inline-block; font-size: 16px; font-family: Helvetica; color: light-dark(#232F3E, #bdc7d4); line-height: 1.2; pointer-events: all; font-weight: bold; white-space: normal; word-wrap: normal; ">UDEMY-287 / ゲノム分析: DataSync → S3 → Lambda → Step Functions → ECS Fargate バッチ</div></div></div></foreignObject><text x="480" y="20" fill="#232F3E" font-family="Helvetica" font-size="16px" text-anchor="middle" font-weight="bold">UDEMY-287 / ゲノム分析: DataSync → S3 → Lambda → Step Functions → ECS Fargate バッチ</text></switch></g></g></g><g data-cell-id="subtitle_20_52"><g transform="translate(0.5,0.5)"><rect x="0" y="32" width="960" height="22" fill="none" stroke="none" pointer-events="all"/></g><g><g><switch><foreignObject style="overflow: visible; text-align: left;" pointer-events="none" width="100%" height="100%" requiredFeatures="http://www.w3.org/TR/SVG11/feature#Extensibility"><div xmlns="http://www.w3.org/1999/xhtml" style="display: flex; align-items: unsafe center; justify-content: unsafe center; width: 958px; height: 1px; padding-top: 43px; margin-left: 1px;"><div style="box-sizing: border-box; font-size: 0; text-align: center; color: #666666; "><div style="display: inline-block; font-size: 11px; font-family: Helvetica; color: light-dark(#666666, #959595); line-height: 1.2; pointer-events: all; font-style: italic; white-space: normal; word-wrap: normal; ">大容量転送 + イベント駆動 + 並列コンテナバッチのサーバーレス設計</div></div></div></foreignObject><text x="480" y="46" fill="#666666" font-family="Helvetica" font-size="11px" text-anchor="middle" font-style="italic">大容量転送 + イベント駆動 + 並列コンテナバッチのサーバーレス設計</text></switch></g></g></g><g data-cell-id="onprem"><g transform="translate(0.5,0.5)"><rect x="20" y="120" width="100" height="50" rx="7.5" ry="7.5" fill="#f2f2f2" stroke="#666" pointer-events="all" style="fill: light-dark(rgb(242, 242, 242), rgb(29, 29, 29)); stroke: light-dark(rgb(102, 102, 102), rgb(0, 0, 0));"/></g><g><g><switch><foreignObject style="overflow: visible; text-align: left;" pointer-events="none" width="100%" height="100%" requiredFeatures="http://www.w3.org/TR/SVG11/feature#Extensibility"><div xmlns="http://www.w3.org/1999/xhtml" style="display: flex; align-items: unsafe center; justify-content: unsafe center; width: 98px; height: 1px; padding-top: 145px; margin-left: 21px;"><div style="box-sizing: border-box; font-size: 0; text-align: center; color: #232F3E; "><div style="display: inline-block; font-size: 10px; font-family: Helvetica; color: light-dark(#232F3E, #bdc7d4); line-height: 1.2; pointer-events: all; white-space: normal; word-wrap: normal; ">On-prem Genomics</div></div></div></foreignObject><text x="70" y="148" fill="#232F3E" font-family="Helvetica" font-size="10px" text-anchor="middle">On-prem Genomics</text></switch></g></g></g><g data-cell-id="ds"><g transform="translate(0.5,0.5)"><path d="M 160 110 L 210 110 L 210 160 L 160 160 Z" fill="#7aa116" stroke="none" pointer-events="all" style="fill: light-dark(rgb(122, 161, 22), rgb(97, 130, 11));"/><path d="M 198.51 129.83 C 198.11 126.81 196.39 125.26 194.84 124.81 C 193.47 124.41 192.05 124.74 190.95 125.66 C 190.36 124.45 189.5 123.28 188.39 122.18 C 185.19 118.98 180.99 118.15 176.87 119.89 C 173.3 121.39 170.72 125.26 170.72 129.08 L 170.72 129.97 C 167.44 130.99 165.72 133.38 165.72 136.91 L 167.14 136.91 C 167.14 133.83 168.6 131.96 171.61 131.2 C 171.92 131.11 172.14 130.83 172.14 130.51 L 172.14 129.08 C 172.14 125.86 174.41 122.47 177.42 121.2 C 180.99 119.7 184.61 120.42 187.38 123.18 C 188.66 124.46 189.55 125.8 190.04 127.18 C 190.13 127.43 190.35 127.61 190.61 127.65 C 190.87 127.69 191.13 127.58 191.29 127.37 C 192.08 126.3 193.29 125.84 194.44 126.18 C 195.98 126.63 196.99 128.26 197.14 130.55 C 197.17 130.93 197.48 131.22 197.86 131.22 C 199.34 131.22 203.57 132.26 203.57 136.91 C 203.57 143.21 198.09 143.31 197.86 143.31 L 193.57 143.31 L 193.57 144.74 L 197.86 144.74 C 197.93 144.74 205 144.65 205 136.91 C 205 132.12 201.25 130.1 198.51 129.83 Z M 184.74 136.36 C 184.52 136.18 184.23 136.15 183.98 136.27 C 183.73 136.39 183.57 136.64 183.57 136.91 L 183.57 139.04 L 180 139.04 L 180 140.47 L 184.29 140.47 C 184.68 140.47 185 140.15 185 139.75 L 185 138.4 L 189.33 141.89 L 185 145.38 L 185 144.03 C 185 143.63 184.68 143.31 184.29 143.31 L 172.86 143.31 L 172.86 141.89 C 172.86 141.62 172.71 141.38 172.47 141.26 C 172.23 141.13 171.94 141.16 171.72 141.32 L 165.29 146.01 C 165.11 146.15 165 146.36 165 146.59 C 165 146.82 165.11 147.03 165.3 147.16 L 171.73 151.72 C 171.85 151.81 172 151.85 172.14 151.85 C 172.26 151.85 172.37 151.83 172.47 151.77 C 172.71 151.65 172.86 151.41 172.86 151.14 L 172.86 149.73 L 176.43 149.73 L 176.43 148.31 L 172.14 148.31 C 171.75 148.31 171.43 148.63 171.43 149.02 L 171.43 149.76 L 166.94 146.58 L 171.43 143.29 L 171.43 144.03 C 171.43 144.42 171.75 144.74 172.14 144.74 L 183.57 144.74 L 183.57 146.87 C 183.57 147.15 183.73 147.4 183.98 147.51 C 184.23 147.63 184.52 147.6 184.74 147.42 L 190.91 142.44 C 191.08 142.31 191.18 142.11 191.18 141.89 C 191.18 141.68 191.08 141.47 190.91 141.34 Z M 177.86 149.72 L 180 149.72 L 180 148.3 L 177.86 148.3 Z M 182.14 149.72 L 190.71 149.72 L 190.71 148.3 L 182.14 148.3 Z M 165.72 140.47 L 174.97 140.47 L 174.97 139.04 L 165.72 139.04 Z M 176.43 140.47 L 178.47 140.47 L 178.47 139.04 L 176.43 139.04 Z" fill="#ffffff" stroke="none" pointer-events="all" style="fill: light-dark(rgb(255, 255, 255), rgb(18, 18, 18));"/></g></g><g data-cell-id="ds_l"><g transform="translate(0.5,0.5)"><rect x="135" y="168" width="100" height="28" fill="none" stroke="none" pointer-events="all"/></g><g><g><switch><foreignObject style="overflow: visible; text-align: left;" pointer-events="none" width="100%" height="100%" requiredFeatures="http://www.w3.org/TR/SVG11/feature#Extensibility"><div xmlns="http://www.w3.org/1999/xhtml" style="display: flex; align-items: unsafe flex-start; justify-content: unsafe center; width: 98px; height: 1px; padding-top: 175px; margin-left: 136px;"><div style="box-sizing: border-box; font-size: 0; text-align: center; color: #232F3E; "><div style="display: inline-block; font-size: 10px; font-family: Helvetica; color: light-dark(#232F3E, #bdc7d4); line-height: 1.2; pointer-events: all; white-space: normal; word-wrap: normal; ">DataSync (+TLS)</div></div></div></foreignObject><text x="185" y="185" fill="#232F3E" font-family="Helvetica" font-size="10px" text-anchor="middle">DataSync (+TLS)</text></switch></g></g></g><g data-cell-id="s3"><g transform="translate(0.5,0.5)"><path d="M 320 110 L 370 110 L 370 160 L 320 160 Z" fill="#7aa116" stroke="none" pointer-events="all" style="fill: light-dark(rgb(122, 161, 22), rgb(97, 130, 11));"/><path d="M 359.92 137.07 L 360.2 135.13 C 362.73 136.65 362.76 137.28 362.76 137.29 C 362.76 137.3 362.32 137.66 359.92 137.07 Z M 358.54 136.68 C 354.17 135.36 348.08 132.56 345.61 131.4 C 345.61 131.39 345.62 131.38 345.62 131.37 C 345.62 130.43 344.85 129.66 343.9 129.66 C 342.95 129.66 342.18 130.43 342.18 131.37 C 342.18 132.32 342.95 133.09 343.9 133.09 C 344.31 133.09 344.69 132.93 344.99 132.69 C 347.89 134.06 353.93 136.81 358.33 138.11 L 356.59 150.4 C 356.59 150.43 356.58 150.47 356.58 150.5 C 356.58 151.58 351.79 153.57 343.97 153.57 C 336.06 153.57 331.21 151.58 331.21 150.5 C 331.21 150.47 331.21 150.44 331.21 150.4 L 327.57 123.83 C 330.72 126 337.49 127.14 343.97 127.14 C 350.44 127.14 357.2 126 360.36 123.84 Z M 327.18 121.06 C 327.24 120.12 332.64 116.43 343.97 116.43 C 355.3 116.43 360.7 120.11 360.76 121.06 L 360.76 121.38 C 360.13 123.48 353.13 125.71 343.97 125.71 C 334.79 125.71 327.79 123.48 327.18 121.37 Z M 362.18 121.07 C 362.18 118.6 355.09 115 343.97 115 C 332.85 115 325.76 118.6 325.76 121.07 L 325.82 121.61 L 329.79 150.56 C 329.88 153.79 338.51 155 343.97 155 C 350.73 155 357.92 153.44 358.01 150.56 L 359.72 138.49 C 360.68 138.72 361.46 138.83 362.09 138.83 C 362.93 138.83 363.5 138.63 363.85 138.21 C 364.14 137.88 364.24 137.47 364.16 137.03 C 363.98 136.04 362.8 134.97 360.41 133.61 L 362.11 121.64 Z" fill="#ffffff" stroke="none" pointer-events="all" style="fill: light-dark(rgb(255, 255, 255), rgb(18, 18, 18));"/></g></g><g data-cell-id="s3_l"><g transform="translate(0.5,0.5)"><rect x="295" y="168" width="100" height="28" fill="none" stroke="none" pointer-events="all"/></g><g><g><switch><foreignObject style="overflow: visible; text-align: left;" pointer-events="none" width="100%" height="100%" requiredFeatures="http://www.w3.org/TR/SVG11/feature#Extensibility"><div xmlns="http://www.w3.org/1999/xhtml" style="display: flex; align-items: unsafe flex-start; justify-content: unsafe center; width: 98px; height: 1px; padding-top: 175px; margin-left: 296px;"><div style="box-sizing: border-box; font-size: 0; text-align: center; color: #232F3E; "><div style="display: inline-block; font-size: 10px; font-family: Helvetica; color: light-dark(#232F3E, #bdc7d4); line-height: 1.2; pointer-events: all; white-space: normal; word-wrap: normal; ">S3 Raw (Landing)</div></div></div></foreignObject><text x="345" y="185" fill="#232F3E" font-family="Helvetica" font-size="10px" text-anchor="middle">S3 Raw (Landing)</text></switch></g></g></g><g data-cell-id="lambda"><g transform="translate(0.5,0.5)"><path d="M 480 110 L 530 110 L 530 160 L 480 160 Z" fill="#ed7100" stroke="none" pointer-events="all" style="fill: light-dark(rgb(237, 113, 0), rgb(216, 109, 12));"/><path d="M 496.45 153.57 L 487.58 153.57 L 497.39 133.07 L 501.84 142.22 Z M 498.03 131.11 C 497.91 130.86 497.66 130.71 497.39 130.71 L 497.39 130.71 C 497.11 130.71 496.86 130.87 496.74 131.11 L 485.8 153.98 C 485.7 154.2 485.71 154.46 485.84 154.67 C 485.97 154.87 486.2 155 486.45 155 L 496.9 155 C 497.18 155 497.43 154.84 497.55 154.59 L 503.28 142.52 C 503.37 142.32 503.37 142.1 503.27 141.9 Z M 522.87 153.57 L 514.06 153.57 L 499.92 123.98 C 499.81 123.73 499.55 123.57 499.28 123.57 L 493.51 123.57 L 493.52 116.43 L 504.82 116.43 L 518.89 146.02 C 519.01 146.27 519.26 146.43 519.54 146.43 L 522.87 146.43 Z M 523.59 145 L 519.99 145 L 505.92 115.41 C 505.8 115.16 505.55 115 505.27 115 L 492.8 115 C 492.41 115 492.09 115.32 492.09 115.71 L 492.08 124.28 C 492.08 124.47 492.15 124.66 492.29 124.79 C 492.42 124.92 492.6 125 492.79 125 L 498.82 125 L 512.96 154.59 C 513.08 154.84 513.33 155 513.61 155 L 523.59 155 C 523.98 155 524.3 154.68 524.3 154.29 L 524.3 145.71 C 524.3 145.32 523.98 145 523.59 145 Z" fill="#ffffff" stroke="none" pointer-events="all" style="fill: light-dark(rgb(255, 255, 255), rgb(18, 18, 18));"/></g></g><g data-cell-id="lambda_l"><g transform="translate(0.5,0.5)"><rect x="455" y="168" width="100" height="28" fill="none" stroke="none" pointer-events="all"/></g><g><g><switch><foreignObject style="overflow: visible; text-align: left;" pointer-events="none" width="100%" height="100%" requiredFeatures="http://www.w3.org/TR/SVG11/feature#Extensibility"><div xmlns="http://www.w3.org/1999/xhtml" style="display: flex; align-items: unsafe flex-start; justify-content: unsafe center; width: 98px; height: 1px; padding-top: 175px; margin-left: 456px;"><div style="box-sizing: border-box; font-size: 0; text-align: center; color: #232F3E; "><div style="display: inline-block; font-size: 10px; font-family: Helvetica; color: light-dark(#232F3E, #bdc7d4); line-height: 1.2; pointer-events: all; white-space: normal; word-wrap: normal; ">Trigger Lambda</div></div></div></foreignObject><text x="505" y="185" fill="#232F3E" font-family="Helvetica" font-size="10px" text-anchor="middle">Trigger Lambda</text></switch></g></g></g><g data-cell-id="sfn"><g transform="translate(0.5,0.5)"><path d="M 640 110 L 690 110 L 690 160 L 640 160 Z" fill="#e7157b" stroke="none" pointer-events="all" style="fill: light-dark(rgb(231, 21, 123), rgb(255, 129, 217));"/><path d="M 676.43 144.29 L 653.57 144.29 L 653.57 141.43 L 660 141.43 C 660.39 141.43 660.71 141.11 660.71 140.71 L 660.71 136.43 C 660.71 136.03 660.39 135.71 660 135.71 L 653.57 135.71 L 653.57 134.29 L 660 134.29 C 660.39 134.29 660.71 133.97 660.71 133.57 L 660.71 129.29 C 660.71 128.89 660.39 128.57 660 128.57 L 653.57 128.57 L 653.57 126.43 L 676.43 126.43 L 676.43 129.29 L 677.86 129.29 L 677.86 125.71 C 677.86 125.32 677.54 125 677.14 125 L 665.71 125 L 665.71 122.79 C 667.54 122.45 668.93 120.85 668.93 118.93 C 668.93 116.76 667.17 115 665 115 C 662.83 115 661.07 116.76 661.07 118.93 C 661.07 120.85 662.46 122.45 664.29 122.79 L 664.29 125 L 652.86 125 C 652.46 125 652.14 125.32 652.14 125.71 L 652.14 128.57 L 645.71 128.57 C 645.32 128.57 645 128.89 645 129.29 L 645 133.57 C 645 133.97 645.32 134.29 645.71 134.29 L 652.14 134.29 L 652.14 135.71 L 645.71 135.71 C 645.32 135.71 645 136.03 645 136.43 L 645 140.71 C 645 141.11 645.32 141.43 645.71 141.43 L 652.14 141.43 L 652.14 145 C 652.14 145.39 652.46 145.71 652.86 145.71 L 664.29 145.71 L 664.29 147.21 C 662.46 147.55 661.07 149.15 661.07 151.07 C 661.07 153.24 662.83 155 665 155 C 667.17 155 668.93 153.24 668.93 151.07 C 668.93 149.15 667.54 147.55 665.71 147.21 L 665.71 145.71 L 677.14 145.71 C 677.54 145.71 677.86 145.39 677.86 145 L 677.86 141.45 L 676.43 141.45 Z M 662.5 118.93 C 662.5 117.55 663.62 116.43 665 116.43 C 666.38 116.43 667.5 117.55 667.5 118.93 C 667.5 120.31 666.38 121.43 665 121.43 C 663.62 121.43 662.5 120.31 662.5 118.93 Z M 646.43 132.86 L 646.43 130 L 659.29 130 L 659.29 132.86 Z M 646.43 140 L 646.43 137.14 L 659.29 137.14 L 659.29 140 Z M 667.5 151.07 C 667.5 152.45 666.38 153.57 665 153.57 C 663.62 153.57 662.5 152.45 662.5 151.07 C 662.5 149.69 663.62 148.57 665 148.57 C 666.38 148.57 667.5 149.69 667.5 151.07 Z M 684.29 131.43 L 667.86 131.43 C 667.46 131.43 667.14 131.75 667.14 132.14 L 667.14 138.57 C 667.14 138.97 667.46 139.29 667.86 139.29 L 684.29 139.29 C 684.68 139.29 685 138.97 685 138.57 L 685 132.14 C 685 131.75 684.68 131.43 684.29 131.43 Z M 668.57 137.86 L 668.57 132.86 L 683.57 132.86 L 683.57 137.86 Z" fill="#ffffff" stroke="none" pointer-events="all" style="fill: light-dark(rgb(255, 255, 255), rgb(18, 18, 18));"/></g></g><g data-cell-id="sfn_l"><g transform="translate(0.5,0.5)"><rect x="615" y="168" width="100" height="28" fill="none" stroke="none" pointer-events="all"/></g><g><g><switch><foreignObject style="overflow: visible; text-align: left;" pointer-events="none" width="100%" height="100%" requiredFeatures="http://www.w3.org/TR/SVG11/feature#Extensibility"><div xmlns="http://www.w3.org/1999/xhtml" style="display: flex; align-items: unsafe flex-start; justify-content: unsafe center; width: 98px; height: 1px; padding-top: 175px; margin-left: 616px;"><div style="box-sizing: border-box; font-size: 0; text-align: center; color: #232F3E; "><div style="display: inline-block; font-size: 10px; font-family: Helvetica; color: light-dark(#232F3E, #bdc7d4); line-height: 1.2; pointer-events: all; white-space: normal; word-wrap: normal; ">Step Functions (並列/条件分岐)</div></div></div></foreignObject><text x="665" y="185" fill="#232F3E" font-family="Helvetica" font-size="10px" text-anchor="middle">Step Functions (並列/条件分岐)</text></switch></g></g></g><g data-cell-id="ecs"><g transform="translate(0.5,0.5)"><path d="M 800 110 L 850 110 L 850 160 L 800 160 Z" fill="#ed7100" stroke="none" pointer-events="all" style="fill: light-dark(rgb(237, 113, 0), rgb(216, 109, 12));"/><path d="M 841.48 140.44 L 835.87 137.07 L 835.87 129.06 C 835.87 128.81 835.74 128.58 835.52 128.45 L 827.45 123.75 L 827.45 116.96 L 841.48 125.25 Z M 842.54 124.25 L 827.11 115.13 C 826.89 115 826.63 115 826.41 115.12 C 826.19 115.25 826.05 115.48 826.05 115.73 L 826.05 124.15 C 826.05 124.4 826.18 124.63 826.4 124.75 L 834.47 129.46 L 834.47 137.47 C 834.47 137.72 834.6 137.94 834.81 138.07 L 841.82 142.28 C 841.93 142.34 842.05 142.38 842.18 142.38 C 842.3 142.38 842.42 142.35 842.52 142.29 C 842.74 142.16 842.88 141.93 842.88 141.68 L 842.88 124.85 C 842.88 124.6 842.75 124.37 842.54 124.25 Z M 824.96 153.5 L 808.52 144.76 L 808.52 125.25 L 822.55 116.96 L 822.55 123.76 L 815.16 128.46 C 814.96 128.59 814.83 128.82 814.83 129.06 L 814.83 140.98 C 814.83 141.24 814.98 141.48 815.21 141.6 L 824.64 146.51 C 824.85 146.61 825.09 146.61 825.29 146.51 L 834.44 141.78 L 840.07 145.16 Z M 841.84 144.58 L 834.83 140.37 C 834.62 140.25 834.36 140.24 834.14 140.35 L 824.97 145.09 L 816.24 140.55 L 816.24 129.44 L 823.62 124.74 C 823.83 124.61 823.95 124.39 823.95 124.15 L 823.95 115.73 C 823.95 115.48 823.81 115.25 823.59 115.12 C 823.38 115 823.11 115 822.89 115.13 L 807.46 124.25 C 807.25 124.37 807.12 124.6 807.12 124.85 L 807.12 145.18 C 807.12 145.44 807.26 145.68 807.49 145.8 L 824.64 154.92 C 824.74 154.97 824.85 155 824.97 155 C 825.08 155 825.2 154.97 825.31 154.91 L 841.82 145.8 C 842.04 145.68 842.17 145.45 842.18 145.2 C 842.18 144.94 842.05 144.71 841.84 144.58 Z" fill="#ffffff" stroke="none" pointer-events="all" style="fill: light-dark(rgb(255, 255, 255), rgb(18, 18, 18));"/></g></g><g data-cell-id="ecs_l"><g transform="translate(0.5,0.5)"><rect x="775" y="168" width="100" height="28" fill="none" stroke="none" pointer-events="all"/></g><g><g><switch><foreignObject style="overflow: visible; text-align: left;" pointer-events="none" width="100%" height="100%" requiredFeatures="http://www.w3.org/TR/SVG11/feature#Extensibility"><div xmlns="http://www.w3.org/1999/xhtml" style="display: flex; align-items: unsafe flex-start; justify-content: unsafe center; width: 98px; height: 1px; padding-top: 175px; margin-left: 776px;"><div style="box-sizing: border-box; font-size: 0; text-align: center; color: #232F3E; "><div style="display: inline-block; font-size: 10px; font-family: Helvetica; color: light-dark(#232F3E, #bdc7d4); line-height: 1.2; pointer-events: all; white-space: normal; word-wrap: normal; ">ECS Fargate (Docker Analysis)</div></div></div></foreignObject><text x="825" y="185" fill="#232F3E" font-family="Helvetica" font-size="10px" text-anchor="middle">ECS Fargate (Docker...</text></switch></g></g></g><g data-cell-id="s3r"><g transform="translate(0.5,0.5)"><path d="M 800 260 L 850 260 L 850 310 L 800 310 Z" fill="#7aa116" stroke="none" pointer-events="all" style="fill: light-dark(rgb(122, 161, 22), rgb(97, 130, 11));"/><path d="M 839.92 287.07 L 840.2 285.13 C 842.73 286.65 842.76 287.28 842.76 287.29 C 842.76 287.3 842.32 287.66 839.92 287.07 Z M 838.54 286.68 C 834.16 285.36 828.08 282.56 825.61 281.4 C 825.61 281.39 825.62 281.38 825.62 281.37 C 825.62 280.43 824.85 279.65 823.9 279.65 C 822.95 279.65 822.18 280.43 822.18 281.37 C 822.18 282.32 822.95 283.09 823.9 283.09 C 824.32 283.09 824.69 282.93 824.99 282.69 C 827.89 284.06 833.93 286.81 838.33 288.11 L 836.59 300.4 C 836.59 300.43 836.58 300.47 836.58 300.5 C 836.58 301.58 831.79 303.57 823.97 303.57 C 816.05 303.57 811.21 301.58 811.21 300.5 C 811.21 300.47 811.21 300.44 811.21 300.4 L 807.57 273.83 C 810.72 276 817.49 277.14 823.97 277.14 C 830.44 277.14 837.2 276 840.36 273.84 Z M 807.18 271.06 C 807.24 270.12 812.64 266.43 823.97 266.43 C 835.3 266.43 840.7 270.12 840.76 271.06 L 840.76 271.38 C 840.13 273.48 833.13 275.71 823.97 275.71 C 814.79 275.71 807.79 273.48 807.18 271.37 Z M 842.18 271.07 C 842.18 268.6 835.09 265 823.97 265 C 812.85 265 805.76 268.6 805.76 271.07 L 805.82 271.61 L 809.79 300.56 C 809.88 303.79 818.51 305 823.97 305 C 830.73 305 837.92 303.44 838.01 300.56 L 839.72 288.49 C 840.68 288.72 841.46 288.83 842.09 288.83 C 842.93 288.83 843.5 288.63 843.85 288.21 C 844.14 287.88 844.24 287.46 844.16 287.03 C 843.98 286.04 842.8 284.97 840.41 283.61 L 842.11 271.64 Z" fill="#ffffff" stroke="none" pointer-events="all" style="fill: light-dark(rgb(255, 255, 255), rgb(18, 18, 18));"/></g></g><g data-cell-id="s3r_l"><g transform="translate(0.5,0.5)"><rect x="775" y="318" width="100" height="28" fill="none" stroke="none" pointer-events="all"/></g><g><g><switch><foreignObject style="overflow: visible; text-align: left;" pointer-events="none" width="100%" height="100%" requiredFeatures="http://www.w3.org/TR/SVG11/feature#Extensibility"><div xmlns="http://www.w3.org/1999/xhtml" style="display: flex; align-items: unsafe flex-start; justify-content: unsafe center; width: 98px; height: 1px; padding-top: 325px; margin-left: 776px;"><div style="box-sizing: border-box; font-size: 0; text-align: center; color: #232F3E; "><div style="display: inline-block; font-size: 10px; font-family: Helvetica; color: light-dark(#232F3E, #bdc7d4); line-height: 1.2; pointer-events: all; white-space: normal; word-wrap: normal; ">S3 Result</div></div></div></foreignObject><text x="825" y="335" fill="#232F3E" font-family="Helvetica" font-size="10px" text-anchor="middle">S3 Result</text></switch></g></g></g><g data-cell-id="a1"><g><path d="M 120 140.65 L 151.79 137.89" fill="none" stroke="#232f3e" stroke-width="2" stroke-miterlimit="10" pointer-events="stroke" style="stroke: light-dark(rgb(35, 47, 62), rgb(189, 199, 212));"/><path d="M 157.77 137.37 L 150.15 142.05 L 151.79 137.89 L 149.46 134.08 Z" fill="#232f3e" stroke="#232f3e" stroke-width="2" stroke-miterlimit="10" pointer-events="all" style="fill: light-dark(rgb(35, 47, 62), rgb(189, 199, 212)); stroke: light-dark(rgb(35, 47, 62), rgb(189, 199, 212));"/></g></g><g data-cell-id="a2"><g><path d="M 210 135 L 311.76 135" fill="none" stroke="#232f3e" stroke-width="2" stroke-miterlimit="10" pointer-events="stroke" style="stroke: light-dark(rgb(35, 47, 62), rgb(189, 199, 212));"/><path d="M 317.76 135 L 309.76 139 L 311.76 135 L 309.76 131 Z" fill="#232f3e" stroke="#232f3e" stroke-width="2" stroke-miterlimit="10" pointer-events="all" style="fill: light-dark(rgb(35, 47, 62), rgb(189, 199, 212)); stroke: light-dark(rgb(35, 47, 62), rgb(189, 199, 212));"/></g></g><g data-cell-id="a3"><g><path d="M 370 135 L 471.76 135" fill="none" stroke="#232f3e" stroke-width="2" stroke-miterlimit="10" pointer-events="stroke" style="stroke: light-dark(rgb(35, 47, 62), rgb(189, 199, 212));"/><path d="M 477.76 135 L 469.76 139 L 471.76 135 L 469.76 131 Z" fill="#232f3e" stroke="#232f3e" stroke-width="2" stroke-miterlimit="10" pointer-events="all" style="fill: light-dark(rgb(35, 47, 62), rgb(189, 199, 212)); stroke: light-dark(rgb(35, 47, 62), rgb(189, 199, 212));"/></g><g><g><switch><foreignObject style="overflow: visible; text-align: left;" pointer-events="none" width="100%" height="100%" requiredFeatures="http://www.w3.org/TR/SVG11/feature#Extensibility"><div xmlns="http://www.w3.org/1999/xhtml" style="display: flex; align-items: unsafe center; justify-content: unsafe center; width: 1px; height: 1px; padding-top: 135px; margin-left: 425px;"><div style="box-sizing: border-box; font-size: 0; text-align: center; color: #232F3E; background-color: #ffffff; "><div style="display: inline-block; font-size: 10px; font-family: Helvetica; color: light-dark(#232F3E, #bdc7d4); line-height: 1.2; pointer-events: all; background-color: light-dark(#ffffff, var(--ge-dark-color, #121212)); white-space: nowrap; ">ObjectCreated</div></div></div></foreignObject><text x="425" y="138" fill="#232F3E" font-family="Helvetica" font-size="10px" text-anchor="middle">ObjectCreated</text></switch></g></g></g><g data-cell-id="a4"><g><path d="M 530 135 L 631.76 135" fill="none" stroke="#232f3e" stroke-width="2" stroke-miterlimit="10" pointer-events="stroke" style="stroke: light-dark(rgb(35, 47, 62), rgb(189, 199, 212));"/><path d="M 637.76 135 L 629.76 139 L 631.76 135 L 629.76 131 Z" fill="#232f3e" stroke="#232f3e" stroke-width="2" stroke-miterlimit="10" pointer-events="all" style="fill: light-dark(rgb(35, 47, 62), rgb(189, 199, 212)); stroke: light-dark(rgb(35, 47, 62), rgb(189, 199, 212));"/></g></g><g data-cell-id="a5"><g><path d="M 690 135 L 791.76 135" fill="none" stroke="#232f3e" stroke-width="2" stroke-miterlimit="10" pointer-events="stroke" style="stroke: light-dark(rgb(35, 47, 62), rgb(189, 199, 212));"/><path d="M 797.76 135 L 789.76 139 L 791.76 135 L 789.76 131 Z" fill="#232f3e" stroke="#232f3e" stroke-width="2" stroke-miterlimit="10" pointer-events="all" style="fill: light-dark(rgb(35, 47, 62), rgb(189, 199, 212)); stroke: light-dark(rgb(35, 47, 62), rgb(189, 199, 212));"/></g><g><g><switch><foreignObject style="overflow: visible; text-align: left;" pointer-events="none" width="100%" height="100%" requiredFeatures="http://www.w3.org/TR/SVG11/feature#Extensibility"><div xmlns="http://www.w3.org/1999/xhtml" style="display: flex; align-items: unsafe center; justify-content: unsafe center; width: 1px; height: 1px; padding-top: 135px; margin-left: 745px;"><div style="box-sizing: border-box; font-size: 0; text-align: center; color: #232F3E; background-color: #ffffff; "><div style="display: inline-block; font-size: 10px; font-family: Helvetica; color: light-dark(#232F3E, #bdc7d4); line-height: 1.2; pointer-events: all; background-color: light-dark(#ffffff, var(--ge-dark-color, #121212)); white-space: nowrap; ">RunTask</div></div></div></foreignObject><text x="745" y="138" fill="#232F3E" font-family="Helvetica" font-size="10px" text-anchor="middle">RunTask</text></switch></g></g></g><g data-cell-id="a6"><g><path d="M 825 160 L 825 251.76" fill="none" stroke="#232f3e" stroke-width="2" stroke-miterlimit="10" pointer-events="stroke" style="stroke: light-dark(rgb(35, 47, 62), rgb(189, 199, 212));"/><path d="M 825 257.76 L 821 249.76 L 825 251.76 L 829 249.76 Z" fill="#232f3e" stroke="#232f3e" stroke-width="2" stroke-miterlimit="10" pointer-events="all" style="fill: light-dark(rgb(35, 47, 62), rgb(189, 199, 212)); stroke: light-dark(rgb(35, 47, 62), rgb(189, 199, 212));"/></g></g><g data-cell-id="good"><g transform="translate(0.5,0.5)"><rect x="0" y="350" width="830" height="40" rx="6" ry="6" fill="#eaf5e0" stroke="#7aa116" pointer-events="all" style="fill: light-dark(rgb(234, 245, 224), rgb(23, 33, 14)); stroke: light-dark(rgb(122, 161, 22), rgb(97, 130, 11));"/></g><g><g><switch><foreignObject style="overflow: visible; text-align: left;" pointer-events="none" width="100%" height="100%" requiredFeatures="http://www.w3.org/TR/SVG11/feature#Extensibility"><div xmlns="http://www.w3.org/1999/xhtml" style="display: flex; align-items: unsafe center; justify-content: unsafe flex-start; width: 808px; height: 1px; padding-top: 370px; margin-left: 12px;"><div style="box-sizing: border-box; font-size: 0; text-align: left; color: #232F3E; "><div style="display: inline-block; font-size: 11px; font-family: Helvetica; color: light-dark(#232F3E, #bdc7d4); line-height: 1.2; pointer-events: all; font-weight: bold; white-space: normal; word-wrap: normal; ">✅ DataSync = オンプレ-S3 の高速 (最大 10Gbps) / 暗号化 / チェックサム検証付き転送の標準</div></div></div></foreignObject><text x="12" y="373" fill="#232F3E" font-family="Helvetica" font-size="11px" font-weight="bold">✅ DataSync = オンプレ-S3 の高速 (最大 10Gbps) / 暗号化 / チェックサム検証付き転送の標準</text></switch></g></g></g><g data-cell-id="bad"><g transform="translate(0.5,0.5)"><rect x="0" y="410" width="960" height="60" rx="9" ry="9" fill="#fdecea" stroke="#dd344c" pointer-events="all" style="fill: light-dark(rgb(253, 236, 234), rgb(42, 28, 26)); stroke: light-dark(rgb(221, 52, 76), rgb(255, 127, 147));"/></g><g><g><switch><foreignObject style="overflow: visible; text-align: left;" pointer-events="none" width="100%" height="100%" requiredFeatures="http://www.w3.org/TR/SVG11/feature#Extensibility"><div xmlns="http://www.w3.org/1999/xhtml" style="display: flex; align-items: unsafe center; justify-content: unsafe flex-start; width: 938px; height: 1px; padding-top: 440px; margin-left: 12px;"><div style="box-sizing: border-box; font-size: 0; text-align: left; color: #232F3E; "><div style="display: inline-block; font-size: 11px; font-family: Helvetica; color: light-dark(#232F3E, #bdc7d4); line-height: 1.2; pointer-events: all; font-weight: bold; white-space: normal; word-wrap: normal; ">❌ S3 CLI スクリプト転送: 大容量・定期・再開のハンドリングを自前実装 ❌ Snowball: 継続転送には向かない (一括移行向け)</div></div></div></foreignObject><text x="12" y="443" fill="#232F3E" font-family="Helvetica" font-size="11px" font-weight="bold">❌ S3 CLI スクリプト転送: 大容量・定期・再開のハンドリングを自前実装 ❌ Snowball: 継続転送には向かない (一括移行向け)</text></switch></g></g></g><g data-cell-id="tip"><g transform="translate(0.5,0.5)"><rect x="0" y="490" width="960" height="40" rx="6" ry="6" fill="#fff5eb" stroke="#ff9900" pointer-events="all" style="fill: light-dark(rgb(255, 245, 235), rgb(32, 24, 15)); stroke: light-dark(rgb(255, 153, 0), rgb(175, 87, 0));"/></g><g><g><switch><foreignObject style="overflow: visible; text-align: left;" pointer-events="none" width="100%" height="100%" requiredFeatures="http://www.w3.org/TR/SVG11/feature#Extensibility"><div xmlns="http://www.w3.org/1999/xhtml" style="display: flex; align-items: unsafe center; justify-content: unsafe flex-start; width: 938px; height: 1px; padding-top: 510px; margin-left: 12px;"><div style="box-sizing: border-box; font-size: 0; text-align: left; color: #232F3E; "><div style="display: inline-block; font-size: 11px; font-family: Helvetica; color: light-dark(#232F3E, #bdc7d4); line-height: 1.2; pointer-events: all; font-weight: bold; white-space: normal; word-wrap: normal; ">💡 Step Functions で「ファイル分割 → Map State で並列 Fargate 実行 → 結果集約」が定番パターン</div></div></div></foreignObject><text x="12" y="513" fill="#232F3E" font-family="Helvetica" font-size="11px" font-weight="bold">💡 Step Functions で「ファイル分割 → Map State で並列 Fargate 実行 → 結果集約」が定番パターン</text></switch></g></g></g></g></g></g><switch><g requiredFeatures="http://www.w3.org/TR/SVG11/feature#Extensibility"/><a transform="translate(0,-5)" xlink:href="https://www.drawio.com/doc/faq/svg-export-text-problems" target="_blank"><text text-anchor="middle" font-size="10px" x="50%" y="100%">Text is not SVG - cannot display</text></a></switch></svg>