<?xml version="1.0" encoding="UTF-8"?>
<!DOCTYPE svg PUBLIC "-//W3C//DTD SVG 1.1//EN" "http://www.w3.org/Graphics/SVG/1.1/DTD/svg11.dtd">
<svg xmlns="http://www.w3.org/2000/svg" style="background: transparent; background-color: transparent; color-scheme: light;" xmlns:xlink="http://www.w3.org/1999/xlink" version="1.1" width="1001px" height="577px" viewBox="0 0 1001 577"><defs/><g><g data-cell-id="0"><g data-cell-id="1"><g data-cell-id="t"><g transform="translate(0.5,0.5)"><rect x="0" y="0" width="1000" height="28" fill="none" stroke="none" pointer-events="all"/></g><g><g><switch><foreignObject style="overflow: visible; text-align: left;" pointer-events="none" width="100%" height="100%" requiredFeatures="http://www.w3.org/TR/SVG11/feature#Extensibility"><div xmlns="http://www.w3.org/1999/xhtml" style="display: flex; align-items: unsafe center; justify-content: unsafe center; width: 998px; height: 1px; padding-top: 14px; margin-left: 1px;"><div style="box-sizing: border-box; font-size: 0; text-align: center; color: #232F3E; "><div style="display: inline-block; font-size: 16px; font-family: Helvetica; color: light-dark(#232F3E, #bdc7d4); line-height: 1.2; pointer-events: all; font-weight: bold; white-space: normal; word-wrap: normal; ">UDEMY-143 / num=442: Client VPN で個人デバイスを AWS VPC に直接接続</div></div></div></foreignObject><text x="500" y="19" fill="#232F3E" font-family="Helvetica" font-size="16px" text-anchor="middle" font-weight="bold">UDEMY-143 / num=442: Client VPN で個人デバイスを AWS VPC に直接接続</text></switch></g></g></g><g data-cell-id="users"><g><rect x="20" y="50" width="240" height="450" rx="36" ry="36" fill="#f5f5f5" stroke="#666" stroke-width="2" pointer-events="all" style="fill: light-dark(rgb(245, 245, 245), rgb(26, 26, 26)); stroke: light-dark(rgb(102, 102, 102), rgb(0, 0, 0));"/></g><g><g><switch><foreignObject style="overflow: visible; text-align: left;" pointer-events="none" width="100%" height="100%" requiredFeatures="http://www.w3.org/TR/SVG11/feature#Extensibility"><div xmlns="http://www.w3.org/1999/xhtml" style="display: flex; align-items: unsafe flex-start; justify-content: unsafe center; width: 238px; height: 1px; padding-top: 63px; margin-left: 21px;"><div style="box-sizing: border-box; font-size: 0; text-align: center; color: #232F3E; "><div style="display: inline-block; font-size: 12px; font-family: Helvetica; color: light-dark(#232F3E, #bdc7d4); line-height: 1.2; pointer-events: all; font-weight: bold; white-space: normal; word-wrap: normal; ">リモートワーカー (自宅)</div></div></div></foreignObject><text x="140" y="75" fill="#232F3E" font-family="Helvetica" font-size="12px" text-anchor="middle" font-weight="bold">リモートワーカー (自宅)</text></switch></g></g></g><g data-cell-id="u1"><g transform="translate(0.5,0.5)"><path d="M 80 90 L 120 90 L 120 130 L 80 130 Z" fill="#ffffff" stroke="none" pointer-events="all" style="fill: light-dark(rgb(255, 255, 255), rgb(18, 18, 18));"/></g></g><g data-cell-id="u1_l"><g transform="translate(0.5,0.5)"><rect x="50" y="140" width="110" height="18" fill="none" stroke="none" pointer-events="all"/></g><g><g><switch><foreignObject style="overflow: visible; text-align: left;" pointer-events="none" width="100%" height="100%" requiredFeatures="http://www.w3.org/TR/SVG11/feature#Extensibility"><div xmlns="http://www.w3.org/1999/xhtml" style="display: flex; align-items: unsafe center; justify-content: unsafe center; width: 108px; height: 1px; padding-top: 149px; margin-left: 51px;"><div style="box-sizing: border-box; font-size: 0; text-align: center; color: #232F3E; "><div style="display: inline-block; font-size: 11px; font-family: Helvetica; color: light-dark(#232F3E, #bdc7d4); line-height: 1.2; pointer-events: all; white-space: normal; word-wrap: normal; ">Laptop A</div></div></div></foreignObject><text x="105" y="152" fill="#232F3E" font-family="Helvetica" font-size="11px" text-anchor="middle">Laptop A</text></switch></g></g></g><g data-cell-id="u2"><g transform="translate(0.5,0.5)"><path d="M 80 210 L 120 210 L 120 250 L 80 250 Z" fill="#ffffff" stroke="none" pointer-events="all" style="fill: light-dark(rgb(255, 255, 255), rgb(18, 18, 18));"/></g></g><g data-cell-id="u2_l"><g transform="translate(0.5,0.5)"><rect x="50" y="260" width="110" height="18" fill="none" stroke="none" pointer-events="all"/></g><g><g><switch><foreignObject style="overflow: visible; text-align: left;" pointer-events="none" width="100%" height="100%" requiredFeatures="http://www.w3.org/TR/SVG11/feature#Extensibility"><div xmlns="http://www.w3.org/1999/xhtml" style="display: flex; align-items: unsafe center; justify-content: unsafe center; width: 108px; height: 1px; padding-top: 269px; margin-left: 51px;"><div style="box-sizing: border-box; font-size: 0; text-align: center; color: #232F3E; "><div style="display: inline-block; font-size: 11px; font-family: Helvetica; color: light-dark(#232F3E, #bdc7d4); line-height: 1.2; pointer-events: all; white-space: normal; word-wrap: normal; ">Laptop B</div></div></div></foreignObject><text x="105" y="272" fill="#232F3E" font-family="Helvetica" font-size="11px" text-anchor="middle">Laptop B</text></switch></g></g></g><g data-cell-id="u3"><g transform="translate(0.5,0.5)"><path d="M 80 330 L 120 330 L 120 370 L 80 370 Z" fill="#ffffff" stroke="none" pointer-events="all" style="fill: light-dark(rgb(255, 255, 255), rgb(18, 18, 18));"/></g></g><g data-cell-id="u3_l"><g transform="translate(0.5,0.5)"><rect x="50" y="380" width="110" height="18" fill="none" stroke="none" pointer-events="all"/></g><g><g><switch><foreignObject style="overflow: visible; text-align: left;" pointer-events="none" width="100%" height="100%" requiredFeatures="http://www.w3.org/TR/SVG11/feature#Extensibility"><div xmlns="http://www.w3.org/1999/xhtml" style="display: flex; align-items: unsafe center; justify-content: unsafe center; width: 108px; height: 1px; padding-top: 389px; margin-left: 51px;"><div style="box-sizing: border-box; font-size: 0; text-align: center; color: #232F3E; "><div style="display: inline-block; font-size: 11px; font-family: Helvetica; color: light-dark(#232F3E, #bdc7d4); line-height: 1.2; pointer-events: all; white-space: normal; word-wrap: normal; ">Laptop C</div></div></div></foreignObject><text x="105" y="392" fill="#232F3E" font-family="Helvetica" font-size="11px" text-anchor="middle">Laptop C</text></switch></g></g></g><g data-cell-id="cvpn"><g transform="translate(0.5,0.5)"><path d="M 300 230 L 370 230 L 370 300 L 300 300 Z" fill="#7aa116" stroke="none" pointer-events="all" style="fill: light-dark(rgb(122, 161, 22), rgb(97, 130, 11));"/><path d="M 332.71 273 C 332.71 274.55 333.97 275.81 335.52 275.81 C 337.07 275.81 338.34 274.55 338.34 273 C 338.34 271.44 337.07 270.18 335.52 270.18 C 333.97 270.18 332.71 271.44 332.71 273 Z M 330.73 273 C 330.73 270.35 332.88 268.21 335.52 268.21 C 338.16 268.21 340.31 270.35 340.31 273 C 340.31 275.35 338.59 277.31 336.35 277.7 L 336.35 284.17 L 334.37 284.17 L 334.37 277.63 C 332.29 277.11 330.73 275.24 330.73 273 Z M 318.69 291.02 L 352.03 291.02 L 352.03 265.14 L 318.69 265.14 Z M 347.73 263.17 L 354 263.17 L 354 293 L 316.72 293 L 316.72 263.17 L 323.39 263.17 L 323.39 257.48 L 325.36 257.48 L 325.36 263.17 L 345.75 263.17 L 345.75 257.48 L 347.73 257.48 Z M 353.86 247.8 L 352.48 249.22 L 356.36 252.97 L 313.63 252.97 L 317.39 249.21 L 315.99 247.81 L 309.72 254.08 L 316.14 260.29 L 317.52 258.87 L 313.45 254.94 L 356.55 254.94 L 352.61 258.88 L 354.01 260.28 L 360.28 254.01 Z M 325.36 250.81 L 323.39 250.81 L 323.39 249.74 C 323.39 243.67 327.64 238.56 333.49 237.59 C 337.07 237 340.69 237.99 343.43 240.31 C 346.16 242.62 347.73 246.01 347.73 249.59 L 347.73 250.81 L 345.75 250.81 L 345.75 249.59 C 345.75 246.59 344.44 243.75 342.15 241.81 C 339.86 239.87 336.82 239.04 333.81 239.54 C 328.99 240.33 325.36 244.72 325.36 249.74 Z" fill="#ffffff" stroke="none" pointer-events="all" style="fill: light-dark(rgb(255, 255, 255), rgb(18, 18, 18));"/></g></g><g data-cell-id="cvpn_l"><g transform="translate(0.5,0.5)"><rect x="260" y="305" width="150" height="18" fill="none" stroke="none" pointer-events="all"/></g><g><g><switch><foreignObject style="overflow: visible; text-align: left;" pointer-events="none" width="100%" height="100%" requiredFeatures="http://www.w3.org/TR/SVG11/feature#Extensibility"><div xmlns="http://www.w3.org/1999/xhtml" style="display: flex; align-items: unsafe center; justify-content: unsafe center; width: 148px; height: 1px; padding-top: 314px; margin-left: 261px;"><div style="box-sizing: border-box; font-size: 0; text-align: center; color: #232F3E; "><div style="display: inline-block; font-size: 11px; font-family: Helvetica; color: light-dark(#232F3E, #bdc7d4); line-height: 1.2; pointer-events: all; font-weight: bold; white-space: normal; word-wrap: normal; ">Client VPN</div></div></div></foreignObject><text x="335" y="317" fill="#232F3E" font-family="Helvetica" font-size="11px" text-anchor="middle" font-weight="bold">Client VPN</text></switch></g></g></g><g data-cell-id="cvpn_l2"><g transform="translate(0.5,0.5)"><rect x="260" y="323" width="150" height="18" fill="none" stroke="none" pointer-events="all"/></g><g><g><switch><foreignObject style="overflow: visible; text-align: left;" pointer-events="none" width="100%" height="100%" requiredFeatures="http://www.w3.org/TR/SVG11/feature#Extensibility"><div xmlns="http://www.w3.org/1999/xhtml" style="display: flex; align-items: unsafe center; justify-content: unsafe center; width: 148px; height: 1px; padding-top: 332px; margin-left: 261px;"><div style="box-sizing: border-box; font-size: 0; text-align: center; color: #232F3E; "><div style="display: inline-block; font-size: 10px; font-family: Helvetica; color: light-dark(#232F3E, #bdc7d4); line-height: 1.2; pointer-events: all; white-space: normal; word-wrap: normal; ">Endpoint (TLS)</div></div></div></foreignObject><text x="335" y="335" fill="#232F3E" font-family="Helvetica" font-size="10px" text-anchor="middle">Endpoint (TLS)</text></switch></g></g></g><g data-cell-id="vpc"><g transform="translate(0.5,0.5)"><path d="M 450 70 L 970 70 L 970 490 L 450 490 Z" fill="none" stroke="#248814" stroke-miterlimit="10" pointer-events="all" style="stroke: light-dark(rgb(36, 136, 20), rgb(85, 171, 71));"/><path d="M 460.59 76.65 C 460.53 76.65 460.48 76.65 460.42 76.65 L 460.42 76.65 C 459.11 76.68 458.03 77.24 457.14 78.25 C 457.13 78.25 457.13 78.25 457.13 78.25 C 456.2 79.36 455.87 80.52 455.96 81.73 C 454.81 82.06 454.12 82.92 453.76 83.74 C 453.75 83.75 453.75 83.76 453.74 83.78 C 453.33 85.05 453.68 86.36 454.24 87.16 C 454.25 87.17 454.25 87.17 454.26 87.18 C 454.94 88.05 455.97 88.53 457.02 88.53 L 468.17 88.53 C 469.19 88.53 470.07 88.16 470.8 87.37 C 471.25 86.94 471.49 86.29 471.58 85.59 C 471.67 84.9 471.61 84.16 471.32 83.55 C 471.31 83.54 471.31 83.53 471.31 83.52 C 470.8 82.62 469.95 81.81 468.76 81.64 C 468.74 80.79 468.28 79.99 467.68 79.56 C 467.67 79.55 467.66 79.55 467.65 79.54 C 467.01 79.18 466.4 79.14 465.91 79.3 C 465.6 79.4 465.36 79.56 465.14 79.74 C 464.51 78.36 463.43 77.18 461.81 76.79 C 461.81 76.79 461.81 76.79 461.81 76.79 C 461.38 76.7 460.97 76.65 460.59 76.65 Z M 460.43 77.38 C 460.8 77.38 461.2 77.43 461.64 77.53 C 463.16 77.89 464.15 79.07 464.66 80.48 C 464.71 80.6 464.81 80.69 464.94 80.72 C 465.07 80.74 465.2 80.7 465.29 80.61 C 465.54 80.34 465.83 80.11 466.14 80.01 C 466.44 79.91 466.78 79.92 467.26 80.18 C 467.67 80.49 468.11 81.31 468.03 81.9 C 468.01 82.01 468.05 82.12 468.12 82.2 C 468.19 82.28 468.29 82.33 468.39 82.33 C 469.46 82.34 470.16 83.02 470.64 83.88 C 470.85 84.3 470.91 84.92 470.84 85.5 C 470.76 86.07 470.53 86.59 470.28 86.83 C 470.27 86.84 470.27 86.85 470.26 86.85 C 469.65 87.53 469.03 87.78 468.17 87.78 L 457.02 87.78 C 456.2 87.78 455.39 87.41 454.85 86.73 C 454.44 86.13 454.14 85.02 454.46 84.02 C 454.79 83.27 455.36 82.55 456.41 82.36 C 456.6 82.32 456.74 82.14 456.71 81.94 C 456.56 80.79 456.8 79.81 457.7 78.74 C 458.49 77.85 459.33 77.39 460.43 77.38 Z M 462.2 80.7 C 461.77 80.7 461.4 80.93 461.13 81.21 C 460.85 81.5 460.64 81.85 460.64 82.25 L 460.64 82.71 L 460.14 82.71 C 460.04 82.71 459.94 82.75 459.87 82.82 C 459.8 82.89 459.76 82.98 459.76 83.08 L 459.76 85.7 C 459.76 85.8 459.8 85.89 459.87 85.96 C 459.94 86.03 460.04 86.07 460.14 86.07 L 464.16 86.07 C 464.26 86.07 464.35 86.03 464.42 85.96 C 464.49 85.89 464.53 85.8 464.53 85.7 L 464.53 83.08 C 464.53 82.98 464.49 82.89 464.42 82.82 C 464.35 82.75 464.26 82.71 464.16 82.71 L 463.68 82.71 L 463.68 82.25 C 463.68 81.84 463.47 81.47 463.21 81.2 C 462.94 80.92 462.61 80.7 462.2 80.7 Z M 462.2 81.45 C 462.29 81.45 462.5 81.54 462.67 81.72 C 462.83 81.89 462.93 82.11 462.93 82.25 L 462.93 82.71 L 461.39 82.71 L 461.39 82.25 C 461.39 82.15 461.49 81.91 461.66 81.74 C 461.83 81.56 462.06 81.45 462.2 81.45 Z M 460.51 83.46 L 463.78 83.46 L 463.78 85.32 L 460.51 85.32 Z M 450 95 L 450 70 L 475 70 L 475 95 Z" fill="#248814" stroke="none" pointer-events="all" style="fill: light-dark(rgb(36, 136, 20), rgb(85, 171, 71));"/></g><g><g><switch><foreignObject style="overflow: visible; text-align: left;" pointer-events="none" width="100%" height="100%" requiredFeatures="http://www.w3.org/TR/SVG11/feature#Extensibility"><div xmlns="http://www.w3.org/1999/xhtml" style="display: flex; align-items: unsafe flex-start; justify-content: unsafe flex-start; width: 488px; height: 1px; padding-top: 77px; margin-left: 482px;"><div style="box-sizing: border-box; font-size: 0; text-align: left; color: #232F3E; "><div style="display: inline-block; font-size: 11px; font-family: Helvetica; color: light-dark(#232F3E, #bdc7d4); line-height: 1.2; pointer-events: all; font-weight: bold; white-space: normal; word-wrap: normal; ">VPC A (内部アプリケーション)</div></div></div></foreignObject><text x="482" y="88" fill="#232F3E" font-family="Helvetica" font-size="11px" font-weight="bold">VPC A (内部アプリケーション)</text></switch></g></g></g><g data-cell-id="app1"><g transform="translate(0.5,0.5)"><path d="M 520 120 L 570 120 L 570 170 L 520 170 Z" fill="#ffffff" stroke="none" pointer-events="all" style="fill: light-dark(rgb(255, 255, 255), rgb(18, 18, 18));"/><path d="M 535.71 154.29 L 553.57 154.29 L 553.57 136.43 L 535.71 136.43 Z M 555 136.43 L 557.86 136.43 L 557.86 137.86 L 555 137.86 L 555 140.71 L 557.86 140.71 L 557.86 142.14 L 555 142.14 L 555 144.29 L 557.86 144.29 L 557.86 145.71 L 555 145.71 L 555 148.57 L 557.86 148.57 L 557.86 150 L 555 150 L 555 152.86 L 557.86 152.86 L 557.86 154.29 L 555 154.29 L 555 154.38 C 555 155.12 554.4 155.71 553.67 155.71 L 553.57 155.71 L 553.57 158.57 L 552.14 158.57 L 552.14 155.71 L 549.29 155.71 L 549.29 158.57 L 547.86 158.57 L 547.86 155.71 L 545.71 155.71 L 545.71 158.57 L 544.29 158.57 L 544.29 155.71 L 541.43 155.71 L 541.43 158.57 L 540 158.57 L 540 155.71 L 537.14 155.71 L 537.14 158.57 L 535.71 158.57 L 535.71 155.71 L 535.62 155.71 C 534.88 155.71 534.29 155.12 534.29 154.38 L 534.29 154.29 L 532.14 154.29 L 532.14 152.86 L 534.29 152.86 L 534.29 150 L 532.14 150 L 532.14 148.57 L 534.29 148.57 L 534.29 145.71 L 532.14 145.71 L 532.14 144.29 L 534.29 144.29 L 534.29 142.14 L 532.14 142.14 L 532.14 140.71 L 534.29 140.71 L 534.29 137.86 L 532.14 137.86 L 532.14 136.43 L 534.29 136.43 L 534.29 136.33 C 534.29 135.6 534.88 135 535.62 135 L 535.71 135 L 535.71 132.14 L 537.14 132.14 L 537.14 135 L 540 135 L 540 132.14 L 541.43 132.14 L 541.43 135 L 544.29 135 L 544.29 132.14 L 545.71 132.14 L 545.71 135 L 547.86 135 L 547.86 132.14 L 549.29 132.14 L 549.29 135 L 552.14 135 L 552.14 132.14 L 553.57 132.14 L 553.57 135 L 553.67 135 C 554.4 135 555 135.6 555 136.33 Z M 545.71 163.48 C 545.71 163.53 545.67 163.57 545.63 163.57 L 526.52 163.57 C 526.47 163.57 526.43 163.53 526.43 163.48 L 526.43 144.37 C 526.43 144.33 526.47 144.29 526.52 144.29 L 530.71 144.29 L 530.71 142.86 L 526.52 142.86 C 525.68 142.86 525 143.54 525 144.37 L 525 163.48 C 525 164.32 525.68 165 526.52 165 L 545.63 165 C 546.46 165 547.14 164.32 547.14 163.48 L 547.14 160 L 545.71 160 Z M 565 126.52 L 565 145.63 C 565 146.46 564.32 147.14 563.48 147.14 L 559.29 147.14 L 559.29 145.71 L 563.48 145.71 C 563.53 145.71 563.57 145.67 563.57 145.63 L 563.57 126.52 C 563.57 126.47 563.53 126.43 563.48 126.43 L 544.37 126.43 C 544.33 126.43 544.29 126.47 544.29 126.52 L 544.29 130.71 L 542.86 130.71 L 542.86 126.52 C 542.86 125.68 543.54 125 544.37 125 L 563.48 125 C 564.32 125 565 125.68 565 126.52 Z" fill="#ffffff" stroke="none" pointer-events="all" style="fill: light-dark(rgb(255, 255, 255), rgb(18, 18, 18));"/></g></g><g data-cell-id="app1_l"><g transform="translate(0.5,0.5)"><rect x="490" y="180" width="120" height="18" fill="none" stroke="none" pointer-events="all"/></g><g><g><switch><foreignObject style="overflow: visible; text-align: left;" pointer-events="none" width="100%" height="100%" requiredFeatures="http://www.w3.org/TR/SVG11/feature#Extensibility"><div xmlns="http://www.w3.org/1999/xhtml" style="display: flex; align-items: unsafe center; justify-content: unsafe center; width: 118px; height: 1px; padding-top: 189px; margin-left: 491px;"><div style="box-sizing: border-box; font-size: 0; text-align: center; color: #232F3E; "><div style="display: inline-block; font-size: 11px; font-family: Helvetica; color: light-dark(#232F3E, #bdc7d4); line-height: 1.2; pointer-events: all; font-weight: bold; white-space: normal; word-wrap: normal; ">内部アプリ EC2</div></div></div></foreignObject><text x="550" y="192" fill="#232F3E" font-family="Helvetica" font-size="11px" text-anchor="middle" font-weight="bold">内部アプリ EC2</text></switch></g></g></g><g data-cell-id="app2"><g transform="translate(0.5,0.5)"><path d="M 650 120 L 700 120 L 700 170 L 650 170 Z" fill="#ffffff" stroke="none" pointer-events="all" style="fill: light-dark(rgb(255, 255, 255), rgb(18, 18, 18));"/><path d="M 665.71 154.29 L 683.57 154.29 L 683.57 136.43 L 665.71 136.43 Z M 685 136.43 L 687.86 136.43 L 687.86 137.86 L 685 137.86 L 685 140.71 L 687.86 140.71 L 687.86 142.14 L 685 142.14 L 685 144.29 L 687.86 144.29 L 687.86 145.71 L 685 145.71 L 685 148.57 L 687.86 148.57 L 687.86 150 L 685 150 L 685 152.86 L 687.86 152.86 L 687.86 154.29 L 685 154.29 L 685 154.38 C 685 155.12 684.4 155.71 683.67 155.71 L 683.57 155.71 L 683.57 158.57 L 682.14 158.57 L 682.14 155.71 L 679.29 155.71 L 679.29 158.57 L 677.86 158.57 L 677.86 155.71 L 675.71 155.71 L 675.71 158.57 L 674.29 158.57 L 674.29 155.71 L 671.43 155.71 L 671.43 158.57 L 670 158.57 L 670 155.71 L 667.14 155.71 L 667.14 158.57 L 665.71 158.57 L 665.71 155.71 L 665.62 155.71 C 664.88 155.71 664.29 155.12 664.29 154.38 L 664.29 154.29 L 662.14 154.29 L 662.14 152.86 L 664.29 152.86 L 664.29 150 L 662.14 150 L 662.14 148.57 L 664.29 148.57 L 664.29 145.71 L 662.14 145.71 L 662.14 144.29 L 664.29 144.29 L 664.29 142.14 L 662.14 142.14 L 662.14 140.71 L 664.29 140.71 L 664.29 137.86 L 662.14 137.86 L 662.14 136.43 L 664.29 136.43 L 664.29 136.33 C 664.29 135.6 664.88 135 665.62 135 L 665.71 135 L 665.71 132.14 L 667.14 132.14 L 667.14 135 L 670 135 L 670 132.14 L 671.43 132.14 L 671.43 135 L 674.29 135 L 674.29 132.14 L 675.71 132.14 L 675.71 135 L 677.86 135 L 677.86 132.14 L 679.29 132.14 L 679.29 135 L 682.14 135 L 682.14 132.14 L 683.57 132.14 L 683.57 135 L 683.67 135 C 684.4 135 685 135.6 685 136.33 Z M 675.71 163.48 C 675.71 163.53 675.67 163.57 675.63 163.57 L 656.52 163.57 C 656.47 163.57 656.43 163.53 656.43 163.48 L 656.43 144.37 C 656.43 144.33 656.47 144.29 656.52 144.29 L 660.71 144.29 L 660.71 142.86 L 656.52 142.86 C 655.68 142.86 655 143.54 655 144.37 L 655 163.48 C 655 164.32 655.68 165 656.52 165 L 675.63 165 C 676.46 165 677.14 164.32 677.14 163.48 L 677.14 160 L 675.71 160 Z M 695 126.52 L 695 145.63 C 695 146.46 694.32 147.14 693.48 147.14 L 689.29 147.14 L 689.29 145.71 L 693.48 145.71 C 693.53 145.71 693.57 145.67 693.57 145.63 L 693.57 126.52 C 693.57 126.47 693.53 126.43 693.48 126.43 L 674.37 126.43 C 674.33 126.43 674.29 126.47 674.29 126.52 L 674.29 130.71 L 672.86 130.71 L 672.86 126.52 C 672.86 125.68 673.54 125 674.37 125 L 693.48 125 C 694.32 125 695 125.68 695 126.52 Z" fill="#ffffff" stroke="none" pointer-events="all" style="fill: light-dark(rgb(255, 255, 255), rgb(18, 18, 18));"/></g></g><g data-cell-id="app2_l"><g transform="translate(0.5,0.5)"><rect x="620" y="180" width="120" height="18" fill="none" stroke="none" pointer-events="all"/></g><g><g><switch><foreignObject style="overflow: visible; text-align: left;" pointer-events="none" width="100%" height="100%" requiredFeatures="http://www.w3.org/TR/SVG11/feature#Extensibility"><div xmlns="http://www.w3.org/1999/xhtml" style="display: flex; align-items: unsafe center; justify-content: unsafe center; width: 118px; height: 1px; padding-top: 189px; margin-left: 621px;"><div style="box-sizing: border-box; font-size: 0; text-align: center; color: #232F3E; "><div style="display: inline-block; font-size: 11px; font-family: Helvetica; color: light-dark(#232F3E, #bdc7d4); line-height: 1.2; pointer-events: all; font-weight: bold; white-space: normal; word-wrap: normal; ">RDS / DB</div></div></div></foreignObject><text x="680" y="192" fill="#232F3E" font-family="Helvetica" font-size="11px" text-anchor="middle" font-weight="bold">RDS / DB</text></switch></g></g></g><g data-cell-id="ad"><g transform="translate(0.5,0.5)"><path d="M 800 120 L 850 120 L 850 170 L 800 170 Z" fill="#dd344c" stroke="none" pointer-events="all" style="fill: light-dark(rgb(221, 52, 76), rgb(255, 127, 147));"/><path d="M 806.43 158.57 L 843.57 158.57 L 843.57 131.43 L 806.43 131.43 Z M 845 130.71 L 845 159.29 C 845 159.68 844.68 160 844.29 160 L 805.71 160 C 805.32 160 805 159.68 805 159.29 L 805 130.71 C 805 130.32 805.32 130 805.71 130 L 844.29 130 C 844.68 130 845 130.32 845 130.71 Z M 827.86 150.71 L 838.57 150.71 L 838.57 149.29 L 827.86 149.29 Z M 837.14 146.43 L 840.71 146.43 L 840.71 145 L 837.14 145 Z M 827.86 146.43 L 833.57 146.43 L 833.57 145 L 827.86 145 Z M 817.14 149.29 C 817.14 148.89 816.82 148.57 816.43 148.57 C 816.03 148.57 815.71 148.89 815.71 149.29 C 815.71 149.68 816.03 150 816.43 150 C 816.82 150 817.14 149.68 817.14 149.29 Z M 818.57 149.29 C 818.57 150.22 817.97 151 817.14 151.3 L 817.14 152.86 L 815.71 152.86 L 815.71 151.3 C 814.88 151 814.29 150.22 814.29 149.29 C 814.29 148.1 815.25 147.14 816.43 147.14 C 817.61 147.14 818.57 148.1 818.57 149.29 Z M 810 155 L 822.85 155 L 822.85 152.14 L 820 152.14 L 820 150.71 L 822.85 150.71 L 822.86 148.57 L 820 148.57 L 820 147.14 L 822.86 147.14 L 822.86 145 L 810 145 Z M 812.14 143.57 L 820.71 143.58 L 820.71 138.57 C 820.72 136.93 818.71 135.48 816.43 135.48 L 816.43 135.48 C 814.15 135.48 812.15 136.93 812.14 138.57 Z M 808.57 155.71 L 808.58 144.29 C 808.58 144.1 808.65 143.91 808.78 143.78 C 808.92 143.65 809.1 143.57 809.29 143.57 L 810.71 143.57 L 810.72 138.57 C 810.72 136.08 813.28 134.05 816.43 134.05 L 816.43 134.05 C 819.58 134.06 822.14 136.08 822.14 138.57 L 822.14 143.58 L 823.57 143.58 C 823.97 143.58 824.29 143.9 824.29 144.29 L 824.28 155.71 C 824.28 155.9 824.21 156.09 824.07 156.22 C 823.94 156.35 823.76 156.43 823.57 156.43 L 809.29 156.42 C 808.89 156.42 808.57 156.1 808.57 155.71 Z M 839.29 142.14 L 840.71 142.14 L 840.71 140.71 L 839.29 140.71 Z M 827.86 142.14 L 835.71 142.14 L 835.71 140.71 L 827.86 140.71 Z" fill="#ffffff" stroke="none" pointer-events="all" style="fill: light-dark(rgb(255, 255, 255), rgb(18, 18, 18));"/></g></g><g data-cell-id="ad_l"><g transform="translate(0.5,0.5)"><rect x="770" y="180" width="130" height="18" fill="none" stroke="none" pointer-events="all"/></g><g><g><switch><foreignObject style="overflow: visible; text-align: left;" pointer-events="none" width="100%" height="100%" requiredFeatures="http://www.w3.org/TR/SVG11/feature#Extensibility"><div xmlns="http://www.w3.org/1999/xhtml" style="display: flex; align-items: unsafe center; justify-content: unsafe center; width: 128px; height: 1px; padding-top: 189px; margin-left: 771px;"><div style="box-sizing: border-box; font-size: 0; text-align: center; color: #232F3E; "><div style="display: inline-block; font-size: 11px; font-family: Helvetica; color: light-dark(#232F3E, #bdc7d4); line-height: 1.2; pointer-events: all; font-weight: bold; white-space: normal; word-wrap: normal; ">AD / SAML IdP</div></div></div></foreignObject><text x="835" y="192" fill="#232F3E" font-family="Helvetica" font-size="11px" text-anchor="middle" font-weight="bold">AD / SAML IdP</text></switch></g></g></g><g data-cell-id="sg"><g transform="translate(0.5,0.5)"><path d="M 650 270 L 700 270 L 700 320 L 650 320 Z" fill="#ffffff" stroke="none" pointer-events="all" style="fill: light-dark(rgb(255, 255, 255), rgb(18, 18, 18));"/><path d="M 656.43 308.57 L 693.57 308.57 L 693.57 281.43 L 656.43 281.43 Z M 695 280.71 L 695 309.29 C 695 309.68 694.68 310 694.29 310 L 655.71 310 C 655.32 310 655 309.68 655 309.29 L 655 280.71 C 655 280.32 655.32 280 655.71 280 L 694.29 280 C 694.68 280 695 280.32 695 280.71 Z M 677.86 300.71 L 688.57 300.71 L 688.57 299.29 L 677.86 299.29 Z M 687.14 296.43 L 690.71 296.43 L 690.71 295 L 687.14 295 Z M 677.86 296.43 L 683.57 296.43 L 683.57 295 L 677.86 295 Z M 667.14 299.29 C 667.14 298.89 666.82 298.57 666.43 298.57 C 666.03 298.57 665.71 298.89 665.71 299.29 C 665.71 299.68 666.03 300 666.43 300 C 666.82 300 667.14 299.68 667.14 299.29 Z M 668.57 299.29 C 668.57 300.22 667.97 301 667.14 301.3 L 667.14 302.86 L 665.71 302.86 L 665.71 301.3 C 664.88 301 664.29 300.22 664.29 299.29 C 664.29 298.1 665.25 297.14 666.43 297.14 C 667.61 297.14 668.57 298.1 668.57 299.29 Z M 660 305 L 672.85 305 L 672.85 302.14 L 670 302.14 L 670 300.71 L 672.85 300.71 L 672.86 298.57 L 670 298.57 L 670 297.14 L 672.86 297.14 L 672.86 295 L 660 295 Z M 662.14 293.57 L 670.71 293.58 L 670.71 288.57 C 670.72 286.93 668.71 285.48 666.43 285.48 L 666.43 285.48 C 664.15 285.48 662.15 286.93 662.14 288.57 Z M 658.57 305.71 L 658.58 294.29 C 658.58 294.1 658.65 293.91 658.78 293.78 C 658.92 293.65 659.1 293.57 659.29 293.57 L 660.71 293.57 L 660.72 288.57 C 660.72 286.08 663.28 284.05 666.43 284.05 L 666.43 284.05 C 669.58 284.06 672.14 286.08 672.14 288.57 L 672.14 293.58 L 673.57 293.58 C 673.97 293.58 674.29 293.9 674.29 294.29 L 674.28 305.71 C 674.28 305.9 674.21 306.09 674.07 306.22 C 673.94 306.35 673.76 306.43 673.57 306.43 L 659.29 306.42 C 658.89 306.42 658.57 306.1 658.57 305.71 Z M 689.29 292.14 L 690.71 292.14 L 690.71 290.71 L 689.29 290.71 Z M 677.86 292.14 L 685.71 292.14 L 685.71 290.71 L 677.86 290.71 Z" fill="#ffffff" stroke="none" pointer-events="all" style="fill: light-dark(rgb(255, 255, 255), rgb(18, 18, 18));"/></g></g><g data-cell-id="sg_l"><g transform="translate(0.5,0.5)"><rect x="620" y="330" width="130" height="18" fill="none" stroke="none" pointer-events="all"/></g><g><g><switch><foreignObject style="overflow: visible; text-align: left;" pointer-events="none" width="100%" height="100%" requiredFeatures="http://www.w3.org/TR/SVG11/feature#Extensibility"><div xmlns="http://www.w3.org/1999/xhtml" style="display: flex; align-items: unsafe center; justify-content: unsafe center; width: 128px; height: 1px; padding-top: 339px; margin-left: 621px;"><div style="box-sizing: border-box; font-size: 0; text-align: center; color: #232F3E; "><div style="display: inline-block; font-size: 11px; font-family: Helvetica; color: light-dark(#232F3E, #bdc7d4); line-height: 1.2; pointer-events: all; font-weight: bold; white-space: normal; word-wrap: normal; ">Security Group</div></div></div></foreignObject><text x="685" y="342" fill="#232F3E" font-family="Helvetica" font-size="11px" text-anchor="middle" font-weight="bold">Security Group</text></switch></g></g></g><g data-cell-id="sg_l2"><g transform="translate(0.5,0.5)"><rect x="620" y="348" width="130" height="18" fill="none" stroke="none" pointer-events="all"/></g><g><g><switch><foreignObject style="overflow: visible; text-align: left;" pointer-events="none" width="100%" height="100%" requiredFeatures="http://www.w3.org/TR/SVG11/feature#Extensibility"><div xmlns="http://www.w3.org/1999/xhtml" style="display: flex; align-items: unsafe center; justify-content: unsafe center; width: 128px; height: 1px; padding-top: 357px; margin-left: 621px;"><div style="box-sizing: border-box; font-size: 0; text-align: center; color: #232F3E; "><div style="display: inline-block; font-size: 10px; font-family: Helvetica; color: light-dark(#232F3E, #bdc7d4); line-height: 1.2; pointer-events: all; white-space: normal; word-wrap: normal; ">(認証ユーザーのみ)</div></div></div></foreignObject><text x="685" y="360" fill="#232F3E" font-family="Helvetica" font-size="10px" text-anchor="middle">(認証ユーザーのみ)</text></switch></g></g></g><g data-cell-id="e1"><g><path d="M 120 123.19 L 293.12 237.38" fill="none" stroke="#7aa116" stroke-width="2" stroke-miterlimit="10" pointer-events="stroke" style="stroke: light-dark(rgb(122, 161, 22), rgb(97, 130, 11));"/><path d="M 298.13 240.68 L 289.25 239.62 L 293.12 237.38 L 293.66 232.94 Z" fill="#7aa116" stroke="#7aa116" stroke-width="2" stroke-miterlimit="10" pointer-events="all" style="fill: light-dark(rgb(122, 161, 22), rgb(97, 130, 11)); stroke: light-dark(rgb(122, 161, 22), rgb(97, 130, 11));"/></g></g><g data-cell-id="e2"><g><path d="M 120 232.98 L 291.85 258.57" fill="none" stroke="#7aa116" stroke-width="2" stroke-miterlimit="10" pointer-events="stroke" style="stroke: light-dark(rgb(122, 161, 22), rgb(97, 130, 11));"/><path d="M 297.79 259.46 L 289.29 262.24 L 291.85 258.57 L 290.46 254.32 Z" fill="#7aa116" stroke="#7aa116" stroke-width="2" stroke-miterlimit="10" pointer-events="all" style="fill: light-dark(rgb(122, 161, 22), rgb(97, 130, 11)); stroke: light-dark(rgb(122, 161, 22), rgb(97, 130, 11));"/></g></g><g data-cell-id="e3"><g><path d="M 120 342.77 L 292.26 280.46" fill="none" stroke="#7aa116" stroke-width="2" stroke-miterlimit="10" pointer-events="stroke" style="stroke: light-dark(rgb(122, 161, 22), rgb(97, 130, 11));"/><path d="M 297.9 278.42 L 291.73 284.9 L 292.26 280.46 L 289.01 277.38 Z" fill="#7aa116" stroke="#7aa116" stroke-width="2" stroke-miterlimit="10" pointer-events="all" style="fill: light-dark(rgb(122, 161, 22), rgb(97, 130, 11)); stroke: light-dark(rgb(122, 161, 22), rgb(97, 130, 11));"/></g></g><g data-cell-id="e4"><g><path d="M 370 245 L 512.85 163.37" fill="none" stroke="#7aa116" stroke-width="2" stroke-miterlimit="10" pointer-events="stroke" style="stroke: light-dark(rgb(122, 161, 22), rgb(97, 130, 11));"/><path d="M 518.06 160.4 L 513.1 167.84 L 512.85 163.37 L 509.13 160.89 Z" fill="#7aa116" stroke="#7aa116" stroke-width="2" stroke-miterlimit="10" pointer-events="all" style="fill: light-dark(rgb(122, 161, 22), rgb(97, 130, 11)); stroke: light-dark(rgb(122, 161, 22), rgb(97, 130, 11));"/></g></g><g data-cell-id="e5"><g><path d="M 370 252.65 L 642.23 156.56" fill="none" stroke="#7aa116" stroke-width="2" stroke-miterlimit="10" pointer-events="stroke" style="stroke: light-dark(rgb(122, 161, 22), rgb(97, 130, 11));"/><path d="M 647.89 154.57 L 641.68 161 L 642.23 156.56 L 639.02 153.46 Z" fill="#7aa116" stroke="#7aa116" stroke-width="2" stroke-miterlimit="10" pointer-events="all" style="fill: light-dark(rgb(122, 161, 22), rgb(97, 130, 11)); stroke: light-dark(rgb(122, 161, 22), rgb(97, 130, 11));"/></g></g><g data-cell-id="e6"><g><path d="M 378 254.47 L 792 153.08" fill="none" stroke="#dd344c" stroke-width="2" stroke-miterlimit="10" stroke-dasharray="6 6" pointer-events="stroke" style="stroke: light-dark(rgb(221, 52, 76), rgb(255, 127, 147));"/><path d="M 372.17 255.9 L 378.99 250.11 L 378 254.47 L 380.89 257.88 Z" fill="#dd344c" stroke="#dd344c" stroke-width="2" stroke-miterlimit="10" pointer-events="all" style="fill: light-dark(rgb(221, 52, 76), rgb(255, 127, 147)); stroke: light-dark(rgb(221, 52, 76), rgb(255, 127, 147));"/><path d="M 797.83 151.65 L 791.01 157.44 L 792 153.08 L 789.11 149.67 Z" fill="#dd344c" stroke="#dd344c" stroke-width="2" stroke-miterlimit="10" pointer-events="all" style="fill: light-dark(rgb(221, 52, 76), rgb(255, 127, 147)); stroke: light-dark(rgb(221, 52, 76), rgb(255, 127, 147));"/></g><g><g><switch><foreignObject style="overflow: visible; text-align: left;" pointer-events="none" width="100%" height="100%" requiredFeatures="http://www.w3.org/TR/SVG11/feature#Extensibility"><div xmlns="http://www.w3.org/1999/xhtml" style="display: flex; align-items: unsafe center; justify-content: unsafe center; width: 1px; height: 1px; padding-top: 204px; margin-left: 585px;"><div style="box-sizing: border-box; font-size: 0; text-align: center; color: #232F3E; background-color: #ffffff; "><div style="display: inline-block; font-size: 10px; font-family: Helvetica; color: light-dark(#232F3E, #bdc7d4); line-height: 1.2; pointer-events: all; background-color: light-dark(#ffffff, var(--ge-dark-color, #121212)); white-space: nowrap; ">SAML 認証</div></div></div></foreignObject><text x="585" y="207" fill="#232F3E" font-family="Helvetica" font-size="10px" text-anchor="middle">SAML 認証</text></switch></g></g></g><g data-cell-id="n1"><g transform="translate(0.5,0.5)"><rect x="20" y="515" width="960" height="60" rx="9" ry="9" fill="#ebf5e8" stroke="#7aa116" pointer-events="all" style="fill: light-dark(rgb(235, 245, 232), rgb(23, 32, 20)); stroke: light-dark(rgb(122, 161, 22), rgb(97, 130, 11));"/></g><g><g><switch><foreignObject style="overflow: visible; text-align: left;" pointer-events="none" width="100%" height="100%" requiredFeatures="http://www.w3.org/TR/SVG11/feature#Extensibility"><div xmlns="http://www.w3.org/1999/xhtml" style="display: flex; align-items: unsafe flex-start; justify-content: unsafe flex-start; width: 950px; height: 1px; padding-top: 526px; margin-left: 26px;"><div style="box-sizing: border-box; font-size: 0; text-align: left; color: #232F3E; "><div style="display: inline-block; font-size: 10px; font-family: Helvetica; color: light-dark(#232F3E, #bdc7d4); line-height: 1.2; pointer-events: all; white-space: normal; word-wrap: normal; ">◎ 正解 D: Client VPN Endpoint は個人デバイスから VPC へ TLS 接続。ユーザー認証は SAML/Cert。Site-to-Site VPN と違い個別端末向け。 S2S VPN は『拠点ネットワーク間』で、端末数スケール不向き。Client VPN は端末単位で従量課金、スケール容易。</div></div></div></foreignObject><text x="26" y="536" fill="#232F3E" font-family="Helvetica" font-size="10px">◎ 正解 D: Client VPN Endpoint は個人デバイスから VPC へ TLS 接続。ユーザー認証は SAML/Cert。Site-to-Site VPN と違い個別端末向け。 S2S VPN は『拠点ネットワーク間』で、端末数スケール不向き。Client VPN は端末単位で従量課金、スケール容易。</text></switch></g></g></g></g></g></g><switch><g requiredFeatures="http://www.w3.org/TR/SVG11/feature#Extensibility"/><a transform="translate(0,-5)" xlink:href="https://www.drawio.com/doc/faq/svg-export-text-problems" target="_blank"><text text-anchor="middle" font-size="10px" x="50%" y="100%">Text is not SVG - cannot display</text></a></switch></svg>