<?xml version="1.0" encoding="UTF-8"?>
<!DOCTYPE svg PUBLIC "-//W3C//DTD SVG 1.1//EN" "http://www.w3.org/Graphics/SVG/1.1/DTD/svg11.dtd">
<svg xmlns="http://www.w3.org/2000/svg" style="background: transparent; background-color: transparent; color-scheme: light;" xmlns:xlink="http://www.w3.org/1999/xlink" version="1.1" width="962px" height="552px" viewBox="0 0 962 552"><defs/><g><g data-cell-id="0"><g data-cell-id="1"><g data-cell-id="title"><g transform="translate(0.5,0.5)"><rect x="0" y="0" width="960" height="30" fill="none" stroke="none" pointer-events="all"/></g><g><g><switch><foreignObject style="overflow: visible; text-align: left;" pointer-events="none" width="100%" height="100%" requiredFeatures="http://www.w3.org/TR/SVG11/feature#Extensibility"><div xmlns="http://www.w3.org/1999/xhtml" style="display: flex; align-items: unsafe center; justify-content: unsafe center; width: 958px; height: 1px; padding-top: 15px; margin-left: 1px;"><div style="box-sizing: border-box; font-size: 0; text-align: center; color: #232F3E; "><div style="display: inline-block; font-size: 14px; font-family: Helvetica; color: light-dark(#232F3E, #bdc7d4); line-height: 1.2; pointer-events: all; font-weight: bold; white-space: normal; word-wrap: normal; ">[Q482] モノリス→サーバーレス: API Gateway + Lambda 分割</div></div></div></foreignObject><text x="480" y="19" fill="#232F3E" font-family="Helvetica" font-size="14px" text-anchor="middle" font-weight="bold">[Q482] モノリス→サーバーレス: API Gateway + Lambda 分割</text></switch></g></g></g><g data-cell-id="tb"><g transform="translate(0.5,0.5)"><rect x="0" y="50" width="960" height="30" fill="none" stroke="none" pointer-events="all"/></g><g><g><switch><foreignObject style="overflow: visible; text-align: left;" pointer-events="none" width="100%" height="100%" requiredFeatures="http://www.w3.org/TR/SVG11/feature#Extensibility"><div xmlns="http://www.w3.org/1999/xhtml" style="display: flex; align-items: unsafe center; justify-content: unsafe center; width: 958px; height: 1px; padding-top: 65px; margin-left: 1px;"><div style="box-sizing: border-box; font-size: 0; text-align: center; color: #232F3E; "><div style="display: inline-block; font-size: 13px; font-family: Helvetica; color: light-dark(#232F3E, #bdc7d4); line-height: 1.2; pointer-events: all; font-weight: bold; white-space: normal; word-wrap: normal; ">モノリシック REST API → Lambda 分割 + API Gateway</div></div></div></foreignObject><text x="480" y="69" fill="#232F3E" font-family="Helvetica" font-size="13px" text-anchor="middle" font-weight="bold">モノリシック REST API → Lambda 分割 + API Gateway</text></switch></g></g></g><g data-cell-id="before"><g><rect x="20" y="90" width="440" height="460" rx="66" ry="66" fill="#ffffff" stroke="#dd344c" stroke-width="2" pointer-events="all" style="fill: light-dark(rgb(255, 255, 255), rgb(18, 18, 18)); stroke: light-dark(rgb(221, 52, 76), rgb(255, 127, 147));"/></g><g><g><switch><foreignObject style="overflow: visible; text-align: left;" pointer-events="none" width="100%" height="100%" requiredFeatures="http://www.w3.org/TR/SVG11/feature#Extensibility"><div xmlns="http://www.w3.org/1999/xhtml" style="display: flex; align-items: unsafe flex-start; justify-content: unsafe center; width: 438px; height: 1px; padding-top: 105px; margin-left: 21px;"><div style="box-sizing: border-box; font-size: 0; text-align: center; color: #DD344C; "><div style="display: inline-block; font-size: 12px; font-family: Helvetica; color: light-dark(#DD344C, #ff7f93); line-height: 1.2; pointer-events: all; font-weight: bold; white-space: normal; word-wrap: normal; ">❌ 現行: EC2 フリート上のモノリシック API</div></div></div></foreignObject><text x="240" y="117" fill="#DD344C" font-family="Helvetica" font-size="12px" text-anchor="middle" font-weight="bold">❌ 現行: EC2 フリート上のモノリシック API</text></switch></g></g></g><g data-cell-id="alb0_80_150"><g transform="translate(0.5,0.5)"><path d="M 60 140 L 110 140 L 110 190 L 60 190 Z" fill="#ff9900" stroke="none" pointer-events="all" style="fill: light-dark(rgb(255, 153, 0), rgb(175, 87, 0));"/><path d="M 85 145 C 73.97 145 65 153.97 65 165 C 65 176.03 73.97 185 85 185 C 96.03 185 105 176.03 105 165 C 105 153.97 96.03 145 85 145 Z M 85 183.18 C 74.97 183.18 66.82 175.03 66.82 165 C 66.82 154.97 74.97 146.82 85 146.82 C 95.03 146.82 103.18 154.97 103.18 165 C 103.18 175.03 95.03 183.18 85 183.18 Z M 96.85 170.45 L 95.45 170.45 L 95.45 167.39 C 95.45 166.88 95.05 166.48 94.55 166.48 L 92.27 166.48 L 92.27 163.41 C 92.27 162.91 91.87 162.5 91.36 162.5 L 85.91 162.5 L 85.91 160.34 L 91.36 160.34 C 91.87 160.34 92.27 159.93 92.27 159.43 L 92.27 152.27 C 92.27 151.77 91.87 151.36 91.36 151.36 L 78.64 151.36 C 78.13 151.36 77.73 151.77 77.73 152.27 L 77.73 159.43 C 77.73 159.93 78.13 160.34 78.64 160.34 L 84.09 160.34 L 84.09 162.5 L 78.64 162.5 C 78.13 162.5 77.73 162.91 77.73 163.41 L 77.73 166.48 L 75.46 166.48 C 74.95 166.48 74.55 166.88 74.55 167.39 L 74.55 170.45 L 73.15 170.45 C 72.65 170.45 72.24 170.86 72.24 171.36 L 72.24 175.34 C 72.24 175.84 72.65 176.25 73.15 176.25 L 77.05 176.25 C 77.55 176.25 77.96 175.84 77.96 175.34 L 77.96 171.36 C 77.96 170.86 77.55 170.45 77.05 170.45 L 76.36 170.45 L 76.36 168.3 L 80.11 168.3 L 80.11 170.45 L 79.43 170.45 C 78.93 170.45 78.52 170.86 78.52 171.36 L 78.52 175.34 C 78.52 175.84 78.93 176.25 79.43 176.25 L 83.41 176.25 C 83.91 176.25 84.32 175.84 84.32 175.34 L 84.32 171.36 C 84.32 170.86 83.91 170.45 83.41 170.45 L 81.93 170.45 L 81.93 167.39 C 81.93 166.88 81.53 166.48 81.02 166.48 L 79.55 166.48 L 79.55 164.32 L 90.45 164.32 L 90.45 166.48 L 88.98 166.48 C 88.47 166.48 88.07 166.88 88.07 167.39 L 88.07 170.45 L 86.59 170.45 C 86.09 170.45 85.68 170.86 85.68 171.36 L 85.68 175.34 C 85.68 175.84 86.09 176.25 86.59 176.25 L 90.57 176.25 C 91.07 176.25 91.48 175.84 91.48 175.34 L 91.48 171.36 C 91.48 170.86 91.07 170.45 90.57 170.45 L 89.89 170.45 L 89.89 168.3 L 93.64 168.3 L 93.64 170.45 L 92.9 170.45 C 92.4 170.45 91.99 170.86 91.99 171.36 L 91.99 175.34 C 91.99 175.84 92.4 176.25 92.9 176.25 L 96.85 176.25 C 97.35 176.25 97.76 175.84 97.76 175.34 L 97.76 171.36 C 97.76 170.86 97.35 170.45 96.85 170.45 Z M 79.55 158.52 L 79.55 153.18 L 90.45 153.18 L 90.45 158.52 Z M 74.06 174.43 L 74.06 172.27 L 76.14 172.27 L 76.14 174.43 Z M 80.34 174.43 L 80.34 172.27 L 82.5 172.27 L 82.5 174.43 Z M 87.5 174.43 L 87.5 172.27 L 89.66 172.27 L 89.66 174.43 Z M 93.81 174.43 L 93.81 172.27 L 95.94 172.27 L 95.94 174.43 Z" fill="#ffffff" stroke="none" pointer-events="all" style="fill: light-dark(rgb(255, 255, 255), rgb(18, 18, 18));"/></g></g><g data-cell-id="lbl_alb0_80_150"><g transform="translate(0.5,0.5)"><rect x="40" y="198" width="90" height="20" fill="none" stroke="none" pointer-events="all"/></g><g><g><switch><foreignObject style="overflow: visible; text-align: left;" pointer-events="none" width="100%" height="100%" requiredFeatures="http://www.w3.org/TR/SVG11/feature#Extensibility"><div xmlns="http://www.w3.org/1999/xhtml" style="display: flex; align-items: unsafe center; justify-content: unsafe center; width: 88px; height: 1px; padding-top: 208px; margin-left: 41px;"><div style="box-sizing: border-box; font-size: 0; text-align: center; color: #232F3E; "><div style="display: inline-block; font-size: 10px; font-family: Helvetica; color: light-dark(#232F3E, #bdc7d4); line-height: 1.2; pointer-events: all; white-space: normal; word-wrap: normal; ">ALB</div></div></div></foreignObject><text x="85" y="211" fill="#232F3E" font-family="Helvetica" font-size="10px" text-anchor="middle">ALB</text></switch></g></g></g><g data-cell-id="ec21_220_150"><g transform="translate(0.5,0.5)"><path d="M 200 140 L 250 140 L 250 190 L 200 190 Z" fill="#ff9900" stroke="none" pointer-events="all" style="fill: light-dark(rgb(255, 153, 0), rgb(175, 87, 0));"/><path d="M 215.71 174.29 L 233.57 174.29 L 233.57 156.43 L 215.71 156.43 Z M 235 156.43 L 237.86 156.43 L 237.86 157.86 L 235 157.86 L 235 160.71 L 237.86 160.71 L 237.86 162.14 L 235 162.14 L 235 164.29 L 237.86 164.29 L 237.86 165.71 L 235 165.71 L 235 168.57 L 237.86 168.57 L 237.86 170 L 235 170 L 235 172.86 L 237.86 172.86 L 237.86 174.29 L 235 174.29 L 235 174.38 C 235 175.12 234.4 175.71 233.67 175.71 L 233.57 175.71 L 233.57 178.57 L 232.14 178.57 L 232.14 175.71 L 229.29 175.71 L 229.29 178.57 L 227.86 178.57 L 227.86 175.71 L 225.71 175.71 L 225.71 178.57 L 224.29 178.57 L 224.29 175.71 L 221.43 175.71 L 221.43 178.57 L 220 178.57 L 220 175.71 L 217.14 175.71 L 217.14 178.57 L 215.71 178.57 L 215.71 175.71 L 215.62 175.71 C 214.88 175.71 214.29 175.12 214.29 174.38 L 214.29 174.29 L 212.14 174.29 L 212.14 172.86 L 214.29 172.86 L 214.29 170 L 212.14 170 L 212.14 168.57 L 214.29 168.57 L 214.29 165.71 L 212.14 165.71 L 212.14 164.29 L 214.29 164.29 L 214.29 162.14 L 212.14 162.14 L 212.14 160.71 L 214.29 160.71 L 214.29 157.86 L 212.14 157.86 L 212.14 156.43 L 214.29 156.43 L 214.29 156.33 C 214.29 155.6 214.88 155 215.62 155 L 215.71 155 L 215.71 152.14 L 217.14 152.14 L 217.14 155 L 220 155 L 220 152.14 L 221.43 152.14 L 221.43 155 L 224.29 155 L 224.29 152.14 L 225.71 152.14 L 225.71 155 L 227.86 155 L 227.86 152.14 L 229.29 152.14 L 229.29 155 L 232.14 155 L 232.14 152.14 L 233.57 152.14 L 233.57 155 L 233.67 155 C 234.4 155 235 155.6 235 156.33 Z M 225.71 183.48 C 225.71 183.53 225.67 183.57 225.63 183.57 L 206.52 183.57 C 206.47 183.57 206.43 183.53 206.43 183.48 L 206.43 164.37 C 206.43 164.33 206.47 164.29 206.52 164.29 L 210.71 164.29 L 210.71 162.86 L 206.52 162.86 C 205.68 162.86 205 163.54 205 164.37 L 205 183.48 C 205 184.32 205.68 185 206.52 185 L 225.63 185 C 226.46 185 227.14 184.32 227.14 183.48 L 227.14 180 L 225.71 180 Z M 245 146.52 L 245 165.63 C 245 166.46 244.32 167.14 243.48 167.14 L 239.29 167.14 L 239.29 165.71 L 243.48 165.71 C 243.53 165.71 243.57 165.67 243.57 165.63 L 243.57 146.52 C 243.57 146.47 243.53 146.43 243.48 146.43 L 224.37 146.43 C 224.33 146.43 224.29 146.47 224.29 146.52 L 224.29 150.71 L 222.86 150.71 L 222.86 146.52 C 222.86 145.68 223.54 145 224.37 145 L 243.48 145 C 244.32 145 245 145.68 245 146.52 Z" fill="#ffffff" stroke="none" pointer-events="all" style="fill: light-dark(rgb(255, 255, 255), rgb(18, 18, 18));"/></g></g><g data-cell-id="lbl_ec21_220_150"><g transform="translate(0.5,0.5)"><rect x="180" y="198" width="90" height="20" fill="none" stroke="none" pointer-events="all"/></g><g><g><switch><foreignObject style="overflow: visible; text-align: left;" pointer-events="none" width="100%" height="100%" requiredFeatures="http://www.w3.org/TR/SVG11/feature#Extensibility"><div xmlns="http://www.w3.org/1999/xhtml" style="display: flex; align-items: unsafe center; justify-content: unsafe center; width: 88px; height: 1px; padding-top: 208px; margin-left: 181px;"><div style="box-sizing: border-box; font-size: 0; text-align: center; color: #232F3E; "><div style="display: inline-block; font-size: 10px; font-family: Helvetica; color: light-dark(#232F3E, #bdc7d4); line-height: 1.2; pointer-events: all; white-space: normal; word-wrap: normal; ">EC2</div></div></div></foreignObject><text x="225" y="211" fill="#232F3E" font-family="Helvetica" font-size="10px" text-anchor="middle">EC2</text></switch></g></g></g><g data-cell-id="ec22_340_150"><g transform="translate(0.5,0.5)"><path d="M 320 140 L 370 140 L 370 190 L 320 190 Z" fill="#ff9900" stroke="none" pointer-events="all" style="fill: light-dark(rgb(255, 153, 0), rgb(175, 87, 0));"/><path d="M 335.71 174.29 L 353.57 174.29 L 353.57 156.43 L 335.71 156.43 Z M 355 156.43 L 357.86 156.43 L 357.86 157.86 L 355 157.86 L 355 160.71 L 357.86 160.71 L 357.86 162.14 L 355 162.14 L 355 164.29 L 357.86 164.29 L 357.86 165.71 L 355 165.71 L 355 168.57 L 357.86 168.57 L 357.86 170 L 355 170 L 355 172.86 L 357.86 172.86 L 357.86 174.29 L 355 174.29 L 355 174.38 C 355 175.12 354.4 175.71 353.67 175.71 L 353.57 175.71 L 353.57 178.57 L 352.14 178.57 L 352.14 175.71 L 349.29 175.71 L 349.29 178.57 L 347.86 178.57 L 347.86 175.71 L 345.71 175.71 L 345.71 178.57 L 344.29 178.57 L 344.29 175.71 L 341.43 175.71 L 341.43 178.57 L 340 178.57 L 340 175.71 L 337.14 175.71 L 337.14 178.57 L 335.71 178.57 L 335.71 175.71 L 335.62 175.71 C 334.88 175.71 334.29 175.12 334.29 174.38 L 334.29 174.29 L 332.14 174.29 L 332.14 172.86 L 334.29 172.86 L 334.29 170 L 332.14 170 L 332.14 168.57 L 334.29 168.57 L 334.29 165.71 L 332.14 165.71 L 332.14 164.29 L 334.29 164.29 L 334.29 162.14 L 332.14 162.14 L 332.14 160.71 L 334.29 160.71 L 334.29 157.86 L 332.14 157.86 L 332.14 156.43 L 334.29 156.43 L 334.29 156.33 C 334.29 155.6 334.88 155 335.62 155 L 335.71 155 L 335.71 152.14 L 337.14 152.14 L 337.14 155 L 340 155 L 340 152.14 L 341.43 152.14 L 341.43 155 L 344.29 155 L 344.29 152.14 L 345.71 152.14 L 345.71 155 L 347.86 155 L 347.86 152.14 L 349.29 152.14 L 349.29 155 L 352.14 155 L 352.14 152.14 L 353.57 152.14 L 353.57 155 L 353.67 155 C 354.4 155 355 155.6 355 156.33 Z M 345.71 183.48 C 345.71 183.53 345.67 183.57 345.63 183.57 L 326.52 183.57 C 326.47 183.57 326.43 183.53 326.43 183.48 L 326.43 164.37 C 326.43 164.33 326.47 164.29 326.52 164.29 L 330.71 164.29 L 330.71 162.86 L 326.52 162.86 C 325.68 162.86 325 163.54 325 164.37 L 325 183.48 C 325 184.32 325.68 185 326.52 185 L 345.63 185 C 346.46 185 347.14 184.32 347.14 183.48 L 347.14 180 L 345.71 180 Z M 365 146.52 L 365 165.63 C 365 166.46 364.32 167.14 363.48 167.14 L 359.29 167.14 L 359.29 165.71 L 363.48 165.71 C 363.53 165.71 363.57 165.67 363.57 165.63 L 363.57 146.52 C 363.57 146.47 363.53 146.43 363.48 146.43 L 344.37 146.43 C 344.33 146.43 344.29 146.47 344.29 146.52 L 344.29 150.71 L 342.86 150.71 L 342.86 146.52 C 342.86 145.68 343.54 145 344.37 145 L 363.48 145 C 364.32 145 365 145.68 365 146.52 Z" fill="#ffffff" stroke="none" pointer-events="all" style="fill: light-dark(rgb(255, 255, 255), rgb(18, 18, 18));"/></g></g><g data-cell-id="lbl_ec22_340_150"><g transform="translate(0.5,0.5)"><rect x="300" y="198" width="90" height="20" fill="none" stroke="none" pointer-events="all"/></g><g><g><switch><foreignObject style="overflow: visible; text-align: left;" pointer-events="none" width="100%" height="100%" requiredFeatures="http://www.w3.org/TR/SVG11/feature#Extensibility"><div xmlns="http://www.w3.org/1999/xhtml" style="display: flex; align-items: unsafe center; justify-content: unsafe center; width: 88px; height: 1px; padding-top: 208px; margin-left: 301px;"><div style="box-sizing: border-box; font-size: 0; text-align: center; color: #232F3E; "><div style="display: inline-block; font-size: 10px; font-family: Helvetica; color: light-dark(#232F3E, #bdc7d4); line-height: 1.2; pointer-events: all; white-space: normal; word-wrap: normal; ">EC2</div></div></div></foreignObject><text x="345" y="211" fill="#232F3E" font-family="Helvetica" font-size="10px" text-anchor="middle">EC2</text></switch></g></g></g><g data-cell-id="bn"><g transform="translate(0.5,0.5)"><rect x="40" y="250" width="400" height="280" fill="none" stroke="none" pointer-events="all"/></g><g><g><switch><foreignObject style="overflow: visible; text-align: left;" pointer-events="none" width="100%" height="100%" requiredFeatures="http://www.w3.org/TR/SVG11/feature#Extensibility"><div xmlns="http://www.w3.org/1999/xhtml" style="display: flex; align-items: unsafe flex-start; justify-content: unsafe flex-start; width: 398px; height: 1px; padding-top: 257px; margin-left: 42px;"><div style="box-sizing: border-box; font-size: 0; text-align: left; color: #DD344C; "><div style="display: inline-block; font-size: 10px; font-family: Helvetica; color: light-dark(#DD344C, #ff7f93); line-height: 1.2; pointer-events: all; white-space: normal; word-wrap: normal; ">• 使用量が大きく変動 → EC2 は常時稼働コスト<br />• アイドル時も VM 料金発生<br />• パッチ・スケーリング設定が必要<br /><br />欠点:<br />  • オーバープロビジョニング<br />  • モノリシックで API ごとの個別スケール不可<br />  • 障害が全APIへ伝搬</div></div></div></foreignObject><text x="42" y="267" fill="#DD344C" font-family="Helvetica" font-size="10px">• 使用量が大きく変動 → EC2 は常時稼働コスト...</text></switch></g></g></g><g data-cell-id="after"><g><rect x="490" y="90" width="470" height="460" rx="69" ry="69" fill="#ffffff" stroke="#7aa116" stroke-width="2" pointer-events="all" style="fill: light-dark(rgb(255, 255, 255), rgb(18, 18, 18)); stroke: light-dark(rgb(122, 161, 22), rgb(97, 130, 11));"/></g><g><g><switch><foreignObject style="overflow: visible; text-align: left;" pointer-events="none" width="100%" height="100%" requiredFeatures="http://www.w3.org/TR/SVG11/feature#Extensibility"><div xmlns="http://www.w3.org/1999/xhtml" style="display: flex; align-items: unsafe flex-start; justify-content: unsafe center; width: 468px; height: 1px; padding-top: 105px; margin-left: 491px;"><div style="box-sizing: border-box; font-size: 0; text-align: center; color: #7AA116; "><div style="display: inline-block; font-size: 12px; font-family: Helvetica; color: light-dark(#7AA116, #61820b); line-height: 1.2; pointer-events: all; font-weight: bold; white-space: normal; word-wrap: normal; ">✓ サーバーレス: API GW + Lambda</div></div></div></foreignObject><text x="725" y="117" fill="#7AA116" font-family="Helvetica" font-size="12px" text-anchor="middle" font-weight="bold">✓ サーバーレス: API GW + Lambda</text></switch></g></g></g><g data-cell-id="r53_550_150"><g transform="translate(0.5,0.5)"><path d="M 530 140 L 580 140 L 580 190 L 530 190 Z" fill="#ff9900" stroke="none" pointer-events="all" style="fill: light-dark(rgb(255, 153, 0), rgb(175, 87, 0));"/><path d="M 561.19 165.53 C 561.72 166.01 561.99 166.67 561.99 167.49 C 561.99 168.38 561.66 169.09 561.02 169.62 C 560.38 170.15 559.52 170.42 558.44 170.42 C 557.58 170.42 556.74 170.24 555.9 169.87 L 555.9 168.78 C 556.89 169.11 557.74 169.27 558.44 169.27 C 559.13 169.27 559.66 169.12 560.04 168.81 C 560.41 168.5 560.59 168.06 560.59 167.49 C 560.59 166.39 559.9 165.84 558.51 165.84 C 558.07 165.84 557.64 165.86 557.21 165.9 L 557.21 165 L 560.08 161.88 L 556.04 161.88 L 556.04 160.76 L 561.59 160.76 L 561.59 161.84 L 558.78 164.81 C 558.83 164.8 558.87 164.8 558.92 164.8 L 559.05 164.8 C 559.95 164.8 560.67 165.04 561.19 165.53 M 553.27 165.29 C 553.82 165.81 554.1 166.52 554.1 167.43 C 554.1 168.32 553.78 169.04 553.13 169.59 C 552.49 170.15 551.64 170.42 550.58 170.42 C 549.66 170.42 548.79 170.24 547.98 169.87 L 547.98 168.78 C 548.99 169.11 549.85 169.27 550.57 169.27 C 551.26 169.27 551.79 169.12 552.16 168.8 C 552.53 168.49 552.71 168.04 552.71 167.45 C 552.71 166.8 552.54 166.33 552.19 166.04 C 551.85 165.75 551.28 165.6 550.5 165.6 C 549.94 165.6 549.23 165.65 548.39 165.74 L 548.39 164.84 L 548.65 160.76 L 553.63 160.76 L 553.63 161.88 L 549.79 161.88 L 549.61 164.65 C 550.12 164.56 550.56 164.51 550.96 164.51 C 551.95 164.51 552.72 164.77 553.27 165.29 M 563.52 175.29 C 560.06 175.91 557.03 177.32 555 178.47 C 552.97 177.32 549.94 175.91 546.48 175.29 C 545.5 175.12 540.65 174.1 540.65 171.3 C 540.65 170 541.12 169.14 542.01 167.6 C 543.08 165.76 544.41 163.46 544.41 160.17 C 544.41 157.81 543.79 155.55 542.57 153.44 C 542.71 153.26 542.86 153.08 543.01 152.9 C 544.81 153.8 546.69 154.26 548.61 154.26 C 550.95 154.26 553.09 153.65 555 152.44 C 556.91 153.65 559.05 154.26 561.39 154.26 C 563.3 154.26 565.19 153.8 566.99 152.9 C 567.14 153.08 567.29 153.26 567.43 153.44 C 566.21 155.55 565.59 157.81 565.59 160.17 C 565.59 163.46 566.92 165.76 567.99 167.6 C 568.88 169.14 569.35 170 569.35 171.3 C 569.35 174.1 564.49 175.12 563.52 175.29 M 567.02 160.17 C 567.02 157.91 567.65 155.76 568.9 153.75 C 569.07 153.49 569.04 153.16 568.85 152.92 C 568.49 152.48 568.11 152.01 567.73 151.55 C 567.52 151.28 567.14 151.21 566.84 151.37 C 565.08 152.34 563.25 152.84 561.39 152.84 C 559.15 152.84 557.19 152.23 555.41 151 C 555.16 150.83 554.84 150.83 554.59 151 C 552.81 152.23 550.85 152.84 548.61 152.84 C 546.75 152.84 544.92 152.34 543.16 151.37 C 542.86 151.21 542.48 151.28 542.27 151.55 C 541.89 152.01 541.51 152.48 541.15 152.92 C 540.96 153.16 540.93 153.49 541.1 153.75 C 542.35 155.76 542.98 157.91 542.98 160.17 C 542.98 163.08 541.76 165.19 540.78 166.88 C 539.82 168.54 539.23 169.64 539.23 171.3 C 539.23 175.14 544.58 176.4 546.23 176.69 C 549.69 177.32 552.71 178.79 554.64 179.91 C 554.75 179.97 554.88 180 555 180 C 555.12 180 555.25 179.97 555.36 179.91 C 557.29 178.79 560.31 177.32 563.77 176.69 C 565.42 176.4 570.77 175.14 570.77 171.3 C 570.77 169.64 570.18 168.54 569.22 166.88 C 568.24 165.19 567.02 163.08 567.02 160.17 M 564.26 179.41 C 559.89 180.2 556.23 182.55 555 183.41 C 553.77 182.55 550.11 180.2 545.74 179.41 C 537.14 177.87 536.47 172.81 536.47 171.3 C 536.47 168.81 537.45 167.13 538.39 165.5 C 539.29 163.95 540.22 162.34 540.22 160.17 C 540.22 156.73 538.24 154.3 537.26 153.32 C 538.29 152.07 540.89 148.89 542.17 147.24 C 544.12 149.08 546.37 150.08 548.61 150.08 C 551.09 150.08 553.14 149.07 555 146.92 C 556.86 149.07 558.91 150.08 561.39 150.08 C 563.62 150.08 565.88 149.08 567.83 147.24 C 569.11 148.89 571.71 152.07 572.74 153.32 C 571.76 154.3 569.78 156.73 569.78 160.17 C 569.78 162.34 570.71 163.95 571.61 165.5 C 572.55 167.13 573.53 168.81 573.53 171.3 C 573.53 172.81 572.86 177.87 564.26 179.41 M 572.84 164.78 C 571.96 163.27 571.2 161.96 571.2 160.17 C 571.2 156.4 574.13 153.96 574.16 153.94 C 574.31 153.82 574.4 153.64 574.42 153.45 C 574.44 153.26 574.39 153.07 574.26 152.93 C 574.22 152.87 569.54 147.21 568.47 145.74 C 568.35 145.57 568.15 145.46 567.94 145.45 C 567.73 145.43 567.52 145.52 567.38 145.67 C 565.58 147.59 563.46 148.65 561.39 148.65 C 559.11 148.65 557.31 147.63 555.57 145.35 C 555.3 145 554.7 145 554.43 145.35 C 552.69 147.63 550.89 148.65 548.61 148.65 C 546.54 148.65 544.42 147.59 542.62 145.67 C 542.48 145.52 542.27 145.43 542.06 145.45 C 541.85 145.46 541.65 145.57 541.52 145.74 C 540.45 147.21 535.78 152.87 535.73 152.93 C 535.61 153.07 535.56 153.26 535.58 153.45 C 535.6 153.64 535.69 153.82 535.84 153.94 C 535.87 153.96 538.8 156.4 538.8 160.17 C 538.8 161.96 538.04 163.27 537.16 164.78 C 536.17 166.49 535.04 168.43 535.04 171.3 C 535.04 176.08 538.95 179.64 545.49 180.81 C 550.41 181.7 554.53 184.82 554.57 184.85 C 554.69 184.95 554.85 185 555 185 C 555.15 185 555.31 184.95 555.43 184.85 C 555.48 184.82 559.58 181.7 564.51 180.81 C 571.05 179.64 574.96 176.08 574.96 171.3 C 574.96 168.43 573.83 166.49 572.84 164.78" fill="#ffffff" stroke="none" pointer-events="all" style="fill: light-dark(rgb(255, 255, 255), rgb(18, 18, 18));"/></g></g><g data-cell-id="lbl_r53_550_150"><g transform="translate(0.5,0.5)"><rect x="510" y="198" width="90" height="20" fill="none" stroke="none" pointer-events="all"/></g><g><g><switch><foreignObject style="overflow: visible; text-align: left;" pointer-events="none" width="100%" height="100%" requiredFeatures="http://www.w3.org/TR/SVG11/feature#Extensibility"><div xmlns="http://www.w3.org/1999/xhtml" style="display: flex; align-items: unsafe center; justify-content: unsafe center; width: 88px; height: 1px; padding-top: 208px; margin-left: 511px;"><div style="box-sizing: border-box; font-size: 0; text-align: center; color: #232F3E; "><div style="display: inline-block; font-size: 10px; font-family: Helvetica; color: light-dark(#232F3E, #bdc7d4); line-height: 1.2; pointer-events: all; white-space: normal; word-wrap: normal; ">Route 53</div></div></div></foreignObject><text x="555" y="211" fill="#232F3E" font-family="Helvetica" font-size="10px" text-anchor="middle">Route 53</text></switch></g></g></g><g data-cell-id="apigw_700_150"><g transform="translate(0.5,0.5)"><path d="M 680 140 L 730 140 L 730 190 L 680 190 Z" fill="#ff9900" stroke="none" pointer-events="all" style="fill: light-dark(rgb(255, 153, 0), rgb(175, 87, 0));"/><path d="M 700.76 176.17 L 702.86 176.17 L 702.86 174.73 L 700.76 174.73 Z M 704.29 176.17 L 706.43 176.17 L 706.43 174.73 L 704.29 174.73 Z M 695.72 146.91 L 686.45 151.52 L 686.45 180.14 L 695.72 183.28 Z M 697.15 156.02 L 697.15 174.73 L 699.29 174.73 L 699.29 176.17 L 697.15 176.17 L 697.15 184.28 C 697.15 184.51 697.04 184.73 696.85 184.87 C 696.73 184.95 696.58 185 696.44 185 C 696.36 185 696.28 184.99 696.21 184.96 L 685.5 181.34 C 685.21 181.24 685.02 180.97 685.02 180.66 L 685.02 151.07 C 685.02 150.8 685.17 150.54 685.42 150.42 L 696.12 145.11 C 696.34 145 696.6 145.01 696.81 145.14 C 697.02 145.28 697.15 145.51 697.15 145.76 L 697.15 154.58 L 699.29 154.58 L 699.29 156.02 Z M 707.85 176.17 L 710 176.17 L 710 174.73 L 707.85 174.73 Z M 707.9 156.02 L 710 156.02 L 710 154.58 L 707.9 154.58 Z M 704.33 156.02 L 706.43 156.02 L 706.43 154.58 L 704.33 154.58 Z M 700.76 156.02 L 702.86 156.02 L 702.86 154.58 L 700.76 154.58 Z M 723.55 151.52 L 714.28 146.91 L 714.28 183.28 L 723.55 180.14 Z M 724.98 180.66 C 724.98 180.97 724.79 181.24 724.5 181.34 L 713.79 184.96 C 713.72 184.99 713.64 185 713.56 185 C 713.42 185 713.27 184.95 713.15 184.87 C 712.96 184.73 712.85 184.51 712.85 184.28 L 712.85 176.17 L 711.47 176.17 L 711.47 174.73 L 712.85 174.73 L 712.85 156.02 L 711.47 156.02 L 711.47 154.58 L 712.85 154.58 L 712.85 145.76 C 712.85 145.51 712.98 145.28 713.19 145.14 C 713.4 145.01 713.66 145 713.88 145.11 L 724.58 150.42 C 724.83 150.54 724.98 150.8 724.98 151.07 Z M 707.09 160.6 L 705.76 160.08 L 702.19 169.44 L 703.53 169.95 Z M 711.93 165.17 C 712.21 164.89 712.21 164.43 711.93 164.15 L 709.07 161.27 L 708.06 162.29 L 710.41 164.66 L 708.06 167.03 L 709.07 168.05 Z M 700.93 168.05 L 698.07 165.17 C 697.79 164.89 697.79 164.43 698.07 164.15 L 700.93 161.27 L 701.94 162.29 L 699.59 164.66 L 701.94 167.03 Z" fill="#ffffff" stroke="none" pointer-events="all" style="fill: light-dark(rgb(255, 255, 255), rgb(18, 18, 18));"/></g></g><g data-cell-id="lbl_apigw_700_150"><g transform="translate(0.5,0.5)"><rect x="660" y="198" width="90" height="20" fill="none" stroke="none" pointer-events="all"/></g><g><g><switch><foreignObject style="overflow: visible; text-align: left;" pointer-events="none" width="100%" height="100%" requiredFeatures="http://www.w3.org/TR/SVG11/feature#Extensibility"><div xmlns="http://www.w3.org/1999/xhtml" style="display: flex; align-items: unsafe center; justify-content: unsafe center; width: 88px; height: 1px; padding-top: 208px; margin-left: 661px;"><div style="box-sizing: border-box; font-size: 0; text-align: center; color: #232F3E; "><div style="display: inline-block; font-size: 10px; font-family: Helvetica; color: light-dark(#232F3E, #bdc7d4); line-height: 1.2; pointer-events: all; white-space: normal; word-wrap: normal; ">API Gateway REST API</div></div></div></foreignObject><text x="705" y="211" fill="#232F3E" font-family="Helvetica" font-size="10px" text-anchor="middle">API Gateway REST A...</text></switch></g></g></g><g data-cell-id="l1_880_130"><g transform="translate(0.5,0.5)"><path d="M 860 120 L 910 120 L 910 170 L 860 170 Z" fill="#ff9900" stroke="none" pointer-events="all" style="fill: light-dark(rgb(255, 153, 0), rgb(175, 87, 0));"/><path d="M 876.45 163.57 L 867.58 163.57 L 877.39 143.07 L 881.84 152.22 Z M 878.03 141.11 C 877.91 140.86 877.66 140.71 877.39 140.71 L 877.39 140.71 C 877.11 140.71 876.86 140.87 876.74 141.11 L 865.8 163.98 C 865.7 164.2 865.71 164.46 865.84 164.67 C 865.97 164.87 866.2 165 866.45 165 L 876.9 165 C 877.18 165 877.43 164.84 877.55 164.59 L 883.28 152.52 C 883.37 152.32 883.37 152.1 883.27 151.9 Z M 902.87 163.57 L 894.06 163.57 L 879.92 133.98 C 879.8 133.73 879.55 133.57 879.28 133.57 L 873.51 133.57 L 873.52 126.43 L 884.82 126.43 L 898.89 156.02 C 899.01 156.27 899.26 156.43 899.54 156.43 L 902.87 156.43 Z M 903.59 155 L 899.99 155 L 885.92 125.41 C 885.8 125.16 885.55 125 885.27 125 L 872.8 125 C 872.41 125 872.09 125.32 872.09 125.71 L 872.08 134.28 C 872.08 134.47 872.15 134.66 872.29 134.79 C 872.42 134.93 872.6 135 872.79 135 L 878.83 135 L 892.96 164.59 C 893.08 164.84 893.33 165 893.61 165 L 903.59 165 C 903.98 165 904.3 164.68 904.3 164.29 L 904.3 155.71 C 904.3 155.32 903.98 155 903.59 155 Z" fill="#ffffff" stroke="none" pointer-events="all" style="fill: light-dark(rgb(255, 255, 255), rgb(18, 18, 18));"/></g></g><g data-cell-id="lbl_l1_880_130"><g transform="translate(0.5,0.5)"><rect x="840" y="178" width="90" height="20" fill="none" stroke="none" pointer-events="all"/></g><g><g><switch><foreignObject style="overflow: visible; text-align: left;" pointer-events="none" width="100%" height="100%" requiredFeatures="http://www.w3.org/TR/SVG11/feature#Extensibility"><div xmlns="http://www.w3.org/1999/xhtml" style="display: flex; align-items: unsafe center; justify-content: unsafe center; width: 88px; height: 1px; padding-top: 188px; margin-left: 841px;"><div style="box-sizing: border-box; font-size: 0; text-align: center; color: #232F3E; "><div style="display: inline-block; font-size: 10px; font-family: Helvetica; color: light-dark(#232F3E, #bdc7d4); line-height: 1.2; pointer-events: all; white-space: normal; word-wrap: normal; ">Lambda /users</div></div></div></foreignObject><text x="885" y="191" fill="#232F3E" font-family="Helvetica" font-size="10px" text-anchor="middle">Lambda /users</text></switch></g></g></g><g data-cell-id="l2_880_220"><g transform="translate(0.5,0.5)"><path d="M 860 210 L 910 210 L 910 260 L 860 260 Z" fill="#ff9900" stroke="none" pointer-events="all" style="fill: light-dark(rgb(255, 153, 0), rgb(175, 87, 0));"/><path d="M 876.45 253.57 L 867.58 253.57 L 877.39 233.07 L 881.84 242.22 Z M 878.03 231.11 C 877.91 230.86 877.66 230.71 877.39 230.71 L 877.39 230.71 C 877.11 230.71 876.86 230.87 876.74 231.11 L 865.8 253.98 C 865.7 254.2 865.71 254.46 865.84 254.67 C 865.97 254.87 866.2 255 866.45 255 L 876.9 255 C 877.18 255 877.43 254.84 877.55 254.59 L 883.28 242.52 C 883.37 242.32 883.37 242.1 883.27 241.9 Z M 902.87 253.57 L 894.06 253.57 L 879.92 223.98 C 879.8 223.73 879.55 223.57 879.28 223.57 L 873.51 223.57 L 873.52 216.43 L 884.82 216.43 L 898.89 246.02 C 899.01 246.27 899.26 246.43 899.54 246.43 L 902.87 246.43 Z M 903.59 245 L 899.99 245 L 885.92 215.41 C 885.8 215.16 885.55 215 885.27 215 L 872.8 215 C 872.41 215 872.09 215.32 872.09 215.71 L 872.08 224.28 C 872.08 224.47 872.15 224.66 872.29 224.79 C 872.42 224.93 872.6 225 872.79 225 L 878.83 225 L 892.96 254.59 C 893.08 254.84 893.33 255 893.61 255 L 903.59 255 C 903.98 255 904.3 254.68 904.3 254.29 L 904.3 245.71 C 904.3 245.32 903.98 245 903.59 245 Z" fill="#ffffff" stroke="none" pointer-events="all" style="fill: light-dark(rgb(255, 255, 255), rgb(18, 18, 18));"/></g></g><g data-cell-id="lbl_l2_880_220"><g transform="translate(0.5,0.5)"><rect x="840" y="268" width="90" height="20" fill="none" stroke="none" pointer-events="all"/></g><g><g><switch><foreignObject style="overflow: visible; text-align: left;" pointer-events="none" width="100%" height="100%" requiredFeatures="http://www.w3.org/TR/SVG11/feature#Extensibility"><div xmlns="http://www.w3.org/1999/xhtml" style="display: flex; align-items: unsafe center; justify-content: unsafe center; width: 88px; height: 1px; padding-top: 278px; margin-left: 841px;"><div style="box-sizing: border-box; font-size: 0; text-align: center; color: #232F3E; "><div style="display: inline-block; font-size: 10px; font-family: Helvetica; color: light-dark(#232F3E, #bdc7d4); line-height: 1.2; pointer-events: all; white-space: normal; word-wrap: normal; ">Lambda /orders</div></div></div></foreignObject><text x="885" y="281" fill="#232F3E" font-family="Helvetica" font-size="10px" text-anchor="middle">Lambda /orders</text></switch></g></g></g><g data-cell-id="l3_880_310"><g transform="translate(0.5,0.5)"><path d="M 860 300 L 910 300 L 910 350 L 860 350 Z" fill="#ff9900" stroke="none" pointer-events="all" style="fill: light-dark(rgb(255, 153, 0), rgb(175, 87, 0));"/><path d="M 876.45 343.57 L 867.58 343.57 L 877.39 323.07 L 881.84 332.22 Z M 878.03 321.11 C 877.91 320.86 877.66 320.71 877.39 320.71 L 877.39 320.71 C 877.11 320.71 876.86 320.87 876.74 321.11 L 865.8 343.98 C 865.7 344.2 865.71 344.46 865.84 344.67 C 865.97 344.87 866.2 345 866.45 345 L 876.9 345 C 877.18 345 877.43 344.84 877.55 344.59 L 883.28 332.52 C 883.37 332.32 883.37 332.1 883.27 331.9 Z M 902.87 343.57 L 894.06 343.57 L 879.92 313.98 C 879.8 313.73 879.55 313.57 879.28 313.57 L 873.51 313.57 L 873.52 306.43 L 884.82 306.43 L 898.89 336.02 C 899.01 336.27 899.26 336.43 899.54 336.43 L 902.87 336.43 Z M 903.59 335 L 899.99 335 L 885.92 305.41 C 885.8 305.16 885.55 305 885.27 305 L 872.8 305 C 872.41 305 872.09 305.32 872.09 305.71 L 872.08 314.29 C 872.08 314.48 872.15 314.66 872.29 314.79 C 872.42 314.93 872.6 315 872.79 315 L 878.83 315 L 892.96 344.59 C 893.08 344.84 893.33 345 893.61 345 L 903.59 345 C 903.98 345 904.3 344.68 904.3 344.29 L 904.3 335.71 C 904.3 335.32 903.98 335 903.59 335 Z" fill="#ffffff" stroke="none" pointer-events="all" style="fill: light-dark(rgb(255, 255, 255), rgb(18, 18, 18));"/></g></g><g data-cell-id="lbl_l3_880_310"><g transform="translate(0.5,0.5)"><rect x="840" y="358" width="90" height="20" fill="none" stroke="none" pointer-events="all"/></g><g><g><switch><foreignObject style="overflow: visible; text-align: left;" pointer-events="none" width="100%" height="100%" requiredFeatures="http://www.w3.org/TR/SVG11/feature#Extensibility"><div xmlns="http://www.w3.org/1999/xhtml" style="display: flex; align-items: unsafe center; justify-content: unsafe center; width: 88px; height: 1px; padding-top: 368px; margin-left: 841px;"><div style="box-sizing: border-box; font-size: 0; text-align: center; color: #232F3E; "><div style="display: inline-block; font-size: 10px; font-family: Helvetica; color: light-dark(#232F3E, #bdc7d4); line-height: 1.2; pointer-events: all; white-space: normal; word-wrap: normal; ">Lambda /payments</div></div></div></foreignObject><text x="885" y="371" fill="#232F3E" font-family="Helvetica" font-size="10px" text-anchor="middle">Lambda /payments</text></switch></g></g></g><g data-cell-id="a1"><g><path d="M 580 170 L 671.76 170" fill="none" stroke="#666666" stroke-width="2" stroke-miterlimit="10" pointer-events="stroke" style="stroke: light-dark(rgb(102, 102, 102), rgb(149, 149, 149));"/><path d="M 677.76 170 L 669.76 174 L 671.76 170 L 669.76 166 Z" fill="#666666" stroke="#666666" stroke-width="2" stroke-miterlimit="10" pointer-events="all" style="fill: light-dark(rgb(102, 102, 102), rgb(149, 149, 149)); stroke: light-dark(rgb(102, 102, 102), rgb(149, 149, 149));"/></g></g><g data-cell-id="a2"><g><path d="M 730 170 L 851.86 151.25" fill="none" stroke="#666666" stroke-width="2" stroke-miterlimit="10" pointer-events="stroke" style="stroke: light-dark(rgb(102, 102, 102), rgb(149, 149, 149));"/><path d="M 857.79 150.34 L 850.49 155.51 L 851.86 151.25 L 849.27 147.6 Z" fill="#666666" stroke="#666666" stroke-width="2" stroke-miterlimit="10" pointer-events="all" style="fill: light-dark(rgb(102, 102, 102), rgb(149, 149, 149)); stroke: light-dark(rgb(102, 102, 102), rgb(149, 149, 149));"/></g></g><g data-cell-id="a3"><g><path d="M 730 190 L 852.22 232.31" fill="none" stroke="#666666" stroke-width="2" stroke-miterlimit="10" pointer-events="stroke" style="stroke: light-dark(rgb(102, 102, 102), rgb(149, 149, 149));"/><path d="M 857.89 234.27 L 849.02 235.43 L 852.22 232.31 L 851.64 227.87 Z" fill="#666666" stroke="#666666" stroke-width="2" stroke-miterlimit="10" pointer-events="all" style="fill: light-dark(rgb(102, 102, 102), rgb(149, 149, 149)); stroke: light-dark(rgb(102, 102, 102), rgb(149, 149, 149));"/></g></g><g data-cell-id="a4"><g><path d="M 730 210 L 853.83 319.54" fill="none" stroke="#666666" stroke-width="2" stroke-miterlimit="10" pointer-events="stroke" style="stroke: light-dark(rgb(102, 102, 102), rgb(149, 149, 149));"/><path d="M 858.33 323.52 L 849.68 321.21 L 853.83 319.54 L 854.98 315.22 Z" fill="#666666" stroke="#666666" stroke-width="2" stroke-miterlimit="10" pointer-events="all" style="fill: light-dark(rgb(102, 102, 102), rgb(149, 149, 149)); stroke: light-dark(rgb(102, 102, 102), rgb(149, 149, 149));"/></g></g><g data-cell-id="an"><g transform="translate(0.5,0.5)"><rect x="510" y="390" width="430" height="140" fill="none" stroke="none" pointer-events="all"/></g><g><g><switch><foreignObject style="overflow: visible; text-align: left;" pointer-events="none" width="100%" height="100%" requiredFeatures="http://www.w3.org/TR/SVG11/feature#Extensibility"><div xmlns="http://www.w3.org/1999/xhtml" style="display: flex; align-items: unsafe flex-start; justify-content: unsafe flex-start; width: 428px; height: 1px; padding-top: 397px; margin-left: 512px;"><div style="box-sizing: border-box; font-size: 0; text-align: left; color: #7AA116; "><div style="display: inline-block; font-size: 10px; font-family: Helvetica; color: light-dark(#7AA116, #61820b); line-height: 1.2; pointer-events: all; white-space: normal; word-wrap: normal; ">✓ 従量課金 (リクエスト数 × 実行時間)<br />✓ API 毎に独立スケール (機能ごとに最適化)<br />✓ パッチ・OS 管理不要 (完全マネージド)<br />✓ デプロイは Lambda 関数単位で迅速<br /><br />注意: コールドスタート (Provisioned Concurrency 可)</div></div></div></foreignObject><text x="512" y="407" fill="#7AA116" font-family="Helvetica" font-size="10px">✓ 従量課金 (リクエスト数 × 実行時間)...</text></switch></g></g></g></g></g></g><switch><g requiredFeatures="http://www.w3.org/TR/SVG11/feature#Extensibility"/><a transform="translate(0,-5)" xlink:href="https://www.drawio.com/doc/faq/svg-export-text-problems" target="_blank"><text text-anchor="middle" font-size="10px" x="50%" y="100%">Text is not SVG - cannot display</text></a></switch></svg>