<?xml version="1.0" encoding="UTF-8"?>
<!DOCTYPE svg PUBLIC "-//W3C//DTD SVG 1.1//EN" "http://www.w3.org/Graphics/SVG/1.1/DTD/svg11.dtd">
<svg xmlns="http://www.w3.org/2000/svg" style="background: transparent; background-color: transparent; color-scheme: light;" xmlns:xlink="http://www.w3.org/1999/xlink" version="1.1" width="961px" height="565px" viewBox="0 0 961 565"><defs/><g><g data-cell-id="0"><g data-cell-id="1"><g data-cell-id="t1"><g transform="translate(0.5,0.5)"><rect x="0" y="0" width="960" height="28" fill="none" stroke="none" pointer-events="all"/></g><g><g><switch><foreignObject style="overflow: visible; text-align: left;" pointer-events="none" width="100%" height="100%" requiredFeatures="http://www.w3.org/TR/SVG11/feature#Extensibility"><div xmlns="http://www.w3.org/1999/xhtml" style="display: flex; align-items: unsafe center; justify-content: unsafe center; width: 958px; height: 1px; padding-top: 14px; margin-left: 1px;"><div style="box-sizing: border-box; font-size: 0; text-align: center; color: #232F3E; "><div style="display: inline-block; font-size: 15px; font-family: Helvetica; color: light-dark(#232F3E, #bdc7d4); line-height: 1.2; pointer-events: all; font-weight: bold; white-space: normal; word-wrap: normal; ">UDEMY-206: サードパーティ API 許可リスト — NAT GW (Elastic IP) で送信元 IP 固定</div></div></div></foreignObject><text x="480" y="19" fill="#232F3E" font-family="Helvetica" font-size="15px" text-anchor="middle" font-weight="bold">UDEMY-206: サードパーティ API 許可リスト — NAT GW (Elastic IP) で送信元 IP 固定</text></switch></g></g></g><g data-cell-id="g2"><g transform="translate(0.5,0.5)"><path d="M 40 68 L 540 68 L 540 448 L 40 448 Z" fill="#e9f3e6" stroke="#248814" stroke-miterlimit="10" pointer-events="all" style="fill: light-dark(rgb(233, 243, 230), rgb(24, 33, 22)); stroke: light-dark(rgb(36, 136, 20), rgb(85, 171, 71));"/><path d="M 50.59 74.65 C 50.53 74.65 50.48 74.65 50.42 74.65 L 50.42 74.65 C 49.11 74.68 48.03 75.24 47.14 76.25 C 47.13 76.25 47.13 76.25 47.13 76.25 C 46.2 77.36 45.87 78.52 45.96 79.73 C 44.81 80.06 44.12 80.92 43.76 81.74 C 43.75 81.75 43.75 81.76 43.74 81.78 C 43.33 83.05 43.68 84.36 44.24 85.16 C 44.25 85.17 44.25 85.17 44.26 85.18 C 44.94 86.05 45.97 86.53 47.02 86.53 L 58.17 86.53 C 59.19 86.53 60.07 86.16 60.8 85.37 C 61.25 84.94 61.49 84.29 61.58 83.59 C 61.67 82.9 61.61 82.16 61.32 81.55 C 61.31 81.54 61.31 81.53 61.31 81.52 C 60.8 80.62 59.95 79.81 58.76 79.64 C 58.74 78.79 58.28 77.99 57.68 77.56 C 57.67 77.55 57.66 77.55 57.65 77.54 C 57.01 77.18 56.4 77.14 55.91 77.3 C 55.6 77.4 55.36 77.56 55.14 77.74 C 54.51 76.36 53.43 75.18 51.81 74.79 C 51.81 74.79 51.81 74.79 51.81 74.79 C 51.38 74.7 50.97 74.65 50.59 74.65 Z M 50.43 75.38 C 50.8 75.38 51.2 75.43 51.64 75.53 C 53.16 75.89 54.15 77.07 54.66 78.48 C 54.71 78.6 54.81 78.69 54.94 78.72 C 55.07 78.74 55.2 78.7 55.29 78.61 C 55.54 78.34 55.83 78.11 56.14 78.01 C 56.44 77.91 56.78 77.92 57.26 78.18 C 57.67 78.49 58.11 79.31 58.03 79.9 C 58.01 80.01 58.05 80.12 58.12 80.2 C 58.19 80.28 58.29 80.33 58.39 80.33 C 59.46 80.34 60.16 81.02 60.64 81.88 C 60.85 82.3 60.91 82.92 60.84 83.5 C 60.76 84.07 60.53 84.59 60.28 84.83 C 60.27 84.84 60.27 84.85 60.26 84.85 C 59.65 85.53 59.03 85.78 58.17 85.78 L 47.02 85.78 C 46.2 85.78 45.39 85.41 44.85 84.73 C 44.44 84.13 44.14 83.02 44.46 82.02 C 44.79 81.27 45.36 80.55 46.41 80.36 C 46.6 80.32 46.74 80.14 46.71 79.94 C 46.56 78.79 46.8 77.81 47.7 76.74 C 48.49 75.85 49.33 75.39 50.43 75.38 Z M 52.2 78.7 C 51.77 78.7 51.4 78.93 51.13 79.21 C 50.85 79.5 50.64 79.85 50.64 80.25 L 50.64 80.71 L 50.14 80.71 C 50.04 80.71 49.94 80.75 49.87 80.82 C 49.8 80.89 49.76 80.98 49.76 81.08 L 49.76 83.7 C 49.76 83.8 49.8 83.89 49.87 83.96 C 49.94 84.03 50.04 84.07 50.14 84.07 L 54.16 84.07 C 54.26 84.07 54.35 84.03 54.42 83.96 C 54.49 83.89 54.53 83.8 54.53 83.7 L 54.53 81.08 C 54.53 80.98 54.49 80.89 54.42 80.82 C 54.35 80.75 54.26 80.71 54.16 80.71 L 53.68 80.71 L 53.68 80.25 C 53.68 79.84 53.47 79.47 53.21 79.2 C 52.94 78.92 52.61 78.7 52.2 78.7 Z M 52.2 79.45 C 52.29 79.45 52.5 79.54 52.67 79.72 C 52.83 79.89 52.93 80.11 52.93 80.25 L 52.93 80.71 L 51.39 80.71 L 51.39 80.25 C 51.39 80.15 51.49 79.91 51.66 79.74 C 51.83 79.56 52.06 79.45 52.2 79.45 Z M 50.51 81.46 L 53.78 81.46 L 53.78 83.32 L 50.51 83.32 Z M 40 93 L 40 68 L 65 68 L 65 93 Z" fill="#248814" stroke="none" pointer-events="all" style="fill: light-dark(rgb(36, 136, 20), rgb(85, 171, 71));"/></g><g><g><switch><foreignObject style="overflow: visible; text-align: left;" pointer-events="none" width="100%" height="100%" requiredFeatures="http://www.w3.org/TR/SVG11/feature#Extensibility"><div xmlns="http://www.w3.org/1999/xhtml" style="display: flex; align-items: unsafe flex-start; justify-content: unsafe flex-start; width: 468px; height: 1px; padding-top: 75px; margin-left: 72px;"><div style="box-sizing: border-box; font-size: 0; text-align: left; color: #232F3E; "><div style="display: inline-block; font-size: 12px; font-family: Helvetica; color: light-dark(#232F3E, #bdc7d4); line-height: 1.2; pointer-events: all; font-weight: bold; white-space: normal; word-wrap: normal; ">VPC</div></div></div></foreignObject><text x="72" y="87" fill="#232F3E" font-family="Helvetica" font-size="12px" font-weight="bold">VPC</text></switch></g></g></g><g data-cell-id="t3"><g transform="translate(0.5,0.5)"><rect x="70" y="98" width="200" height="20" fill="none" stroke="none" pointer-events="all"/></g><g><g><switch><foreignObject style="overflow: visible; text-align: left;" pointer-events="none" width="100%" height="100%" requiredFeatures="http://www.w3.org/TR/SVG11/feature#Extensibility"><div xmlns="http://www.w3.org/1999/xhtml" style="display: flex; align-items: unsafe center; justify-content: unsafe flex-start; width: 198px; height: 1px; padding-top: 108px; margin-left: 72px;"><div style="box-sizing: border-box; font-size: 0; text-align: left; color: #232F3E; "><div style="display: inline-block; font-size: 11px; font-family: Helvetica; color: light-dark(#232F3E, #bdc7d4); line-height: 1.2; pointer-events: all; font-weight: bold; white-space: normal; word-wrap: normal; ">Private Subnet (複数AZ)</div></div></div></foreignObject><text x="72" y="111" fill="#232F3E" font-family="Helvetica" font-size="11px" font-weight="bold">Private Subnet (複数AZ)</text></switch></g></g></g><g data-cell-id="i4"><g transform="translate(0.5,0.5)"><path d="M 80 128 L 130 128 L 130 178 L 80 178 Z" fill="#ed7100" stroke="none" pointer-events="all" style="fill: light-dark(rgb(237, 113, 0), rgb(216, 109, 12));"/><path d="M 95.71 162.29 L 113.57 162.29 L 113.57 144.43 L 95.71 144.43 Z M 115 144.43 L 117.86 144.43 L 117.86 145.86 L 115 145.86 L 115 148.71 L 117.86 148.71 L 117.86 150.14 L 115 150.14 L 115 152.29 L 117.86 152.29 L 117.86 153.71 L 115 153.71 L 115 156.57 L 117.86 156.57 L 117.86 158 L 115 158 L 115 160.86 L 117.86 160.86 L 117.86 162.29 L 115 162.29 L 115 162.38 C 115 163.12 114.4 163.71 113.67 163.71 L 113.57 163.71 L 113.57 166.57 L 112.14 166.57 L 112.14 163.71 L 109.29 163.71 L 109.29 166.57 L 107.86 166.57 L 107.86 163.71 L 105.71 163.71 L 105.71 166.57 L 104.29 166.57 L 104.29 163.71 L 101.43 163.71 L 101.43 166.57 L 100 166.57 L 100 163.71 L 97.14 163.71 L 97.14 166.57 L 95.71 166.57 L 95.71 163.71 L 95.62 163.71 C 94.88 163.71 94.29 163.12 94.29 162.38 L 94.29 162.29 L 92.14 162.29 L 92.14 160.86 L 94.29 160.86 L 94.29 158 L 92.14 158 L 92.14 156.57 L 94.29 156.57 L 94.29 153.71 L 92.14 153.71 L 92.14 152.29 L 94.29 152.29 L 94.29 150.14 L 92.14 150.14 L 92.14 148.71 L 94.29 148.71 L 94.29 145.86 L 92.14 145.86 L 92.14 144.43 L 94.29 144.43 L 94.29 144.33 C 94.29 143.6 94.88 143 95.62 143 L 95.71 143 L 95.71 140.14 L 97.14 140.14 L 97.14 143 L 100 143 L 100 140.14 L 101.43 140.14 L 101.43 143 L 104.29 143 L 104.29 140.14 L 105.71 140.14 L 105.71 143 L 107.86 143 L 107.86 140.14 L 109.29 140.14 L 109.29 143 L 112.14 143 L 112.14 140.14 L 113.57 140.14 L 113.57 143 L 113.67 143 C 114.4 143 115 143.6 115 144.33 Z M 105.71 171.48 C 105.71 171.53 105.67 171.57 105.63 171.57 L 86.52 171.57 C 86.47 171.57 86.43 171.53 86.43 171.48 L 86.43 152.37 C 86.43 152.33 86.47 152.29 86.52 152.29 L 90.71 152.29 L 90.71 150.86 L 86.52 150.86 C 85.68 150.86 85 151.54 85 152.37 L 85 171.48 C 85 172.32 85.68 173 86.52 173 L 105.63 173 C 106.46 173 107.14 172.32 107.14 171.48 L 107.14 168 L 105.71 168 Z M 125 134.52 L 125 153.63 C 125 154.46 124.32 155.14 123.48 155.14 L 119.29 155.14 L 119.29 153.71 L 123.48 153.71 C 123.53 153.71 123.57 153.67 123.57 153.63 L 123.57 134.52 C 123.57 134.47 123.53 134.43 123.48 134.43 L 104.37 134.43 C 104.33 134.43 104.29 134.47 104.29 134.52 L 104.29 138.71 L 102.86 138.71 L 102.86 134.52 C 102.86 133.68 103.54 133 104.37 133 L 123.48 133 C 124.32 133 125 133.68 125 134.52 Z" fill="#ffffff" stroke="none" pointer-events="all" style="fill: light-dark(rgb(255, 255, 255), rgb(18, 18, 18));"/></g></g><g data-cell-id="t5"><g transform="translate(0.5,0.5)"><rect x="45" y="186" width="120" height="22" fill="none" stroke="none" pointer-events="all"/></g><g><g><switch><foreignObject style="overflow: visible; text-align: left;" pointer-events="none" width="100%" height="100%" requiredFeatures="http://www.w3.org/TR/SVG11/feature#Extensibility"><div xmlns="http://www.w3.org/1999/xhtml" style="display: flex; align-items: unsafe center; justify-content: unsafe center; width: 118px; height: 1px; padding-top: 197px; margin-left: 46px;"><div style="box-sizing: border-box; font-size: 0; text-align: center; color: #232F3E; "><div style="display: inline-block; font-size: 10px; font-family: Helvetica; color: light-dark(#232F3E, #bdc7d4); line-height: 1.2; pointer-events: all; white-space: normal; word-wrap: normal; ">EC2 (ALBターゲット)</div></div></div></foreignObject><text x="105" y="200" fill="#232F3E" font-family="Helvetica" font-size="10px" text-anchor="middle">EC2 (ALBターゲット)</text></switch></g></g></g><g data-cell-id="i6"><g transform="translate(0.5,0.5)"><path d="M 220 128 L 270 128 L 270 178 L 220 178 Z" fill="#ed7100" stroke="none" pointer-events="all" style="fill: light-dark(rgb(237, 113, 0), rgb(216, 109, 12));"/><path d="M 235.71 162.29 L 253.57 162.29 L 253.57 144.43 L 235.71 144.43 Z M 255 144.43 L 257.86 144.43 L 257.86 145.86 L 255 145.86 L 255 148.71 L 257.86 148.71 L 257.86 150.14 L 255 150.14 L 255 152.29 L 257.86 152.29 L 257.86 153.71 L 255 153.71 L 255 156.57 L 257.86 156.57 L 257.86 158 L 255 158 L 255 160.86 L 257.86 160.86 L 257.86 162.29 L 255 162.29 L 255 162.38 C 255 163.12 254.4 163.71 253.67 163.71 L 253.57 163.71 L 253.57 166.57 L 252.14 166.57 L 252.14 163.71 L 249.29 163.71 L 249.29 166.57 L 247.86 166.57 L 247.86 163.71 L 245.71 163.71 L 245.71 166.57 L 244.29 166.57 L 244.29 163.71 L 241.43 163.71 L 241.43 166.57 L 240 166.57 L 240 163.71 L 237.14 163.71 L 237.14 166.57 L 235.71 166.57 L 235.71 163.71 L 235.62 163.71 C 234.88 163.71 234.29 163.12 234.29 162.38 L 234.29 162.29 L 232.14 162.29 L 232.14 160.86 L 234.29 160.86 L 234.29 158 L 232.14 158 L 232.14 156.57 L 234.29 156.57 L 234.29 153.71 L 232.14 153.71 L 232.14 152.29 L 234.29 152.29 L 234.29 150.14 L 232.14 150.14 L 232.14 148.71 L 234.29 148.71 L 234.29 145.86 L 232.14 145.86 L 232.14 144.43 L 234.29 144.43 L 234.29 144.33 C 234.29 143.6 234.88 143 235.62 143 L 235.71 143 L 235.71 140.14 L 237.14 140.14 L 237.14 143 L 240 143 L 240 140.14 L 241.43 140.14 L 241.43 143 L 244.29 143 L 244.29 140.14 L 245.71 140.14 L 245.71 143 L 247.86 143 L 247.86 140.14 L 249.29 140.14 L 249.29 143 L 252.14 143 L 252.14 140.14 L 253.57 140.14 L 253.57 143 L 253.67 143 C 254.4 143 255 143.6 255 144.33 Z M 245.71 171.48 C 245.71 171.53 245.67 171.57 245.63 171.57 L 226.52 171.57 C 226.47 171.57 226.43 171.53 226.43 171.48 L 226.43 152.37 C 226.43 152.33 226.47 152.29 226.52 152.29 L 230.71 152.29 L 230.71 150.86 L 226.52 150.86 C 225.68 150.86 225 151.54 225 152.37 L 225 171.48 C 225 172.32 225.68 173 226.52 173 L 245.63 173 C 246.46 173 247.14 172.32 247.14 171.48 L 247.14 168 L 245.71 168 Z M 265 134.52 L 265 153.63 C 265 154.46 264.32 155.14 263.48 155.14 L 259.29 155.14 L 259.29 153.71 L 263.48 153.71 C 263.53 153.71 263.57 153.67 263.57 153.63 L 263.57 134.52 C 263.57 134.47 263.53 134.43 263.48 134.43 L 244.37 134.43 C 244.33 134.43 244.29 134.47 244.29 134.52 L 244.29 138.71 L 242.86 138.71 L 242.86 134.52 C 242.86 133.68 243.54 133 244.37 133 L 263.48 133 C 264.32 133 265 133.68 265 134.52 Z" fill="#ffffff" stroke="none" pointer-events="all" style="fill: light-dark(rgb(255, 255, 255), rgb(18, 18, 18));"/></g></g><g data-cell-id="t7"><g transform="translate(0.5,0.5)"><rect x="185" y="186" width="120" height="22" fill="none" stroke="none" pointer-events="all"/></g><g><g><switch><foreignObject style="overflow: visible; text-align: left;" pointer-events="none" width="100%" height="100%" requiredFeatures="http://www.w3.org/TR/SVG11/feature#Extensibility"><div xmlns="http://www.w3.org/1999/xhtml" style="display: flex; align-items: unsafe center; justify-content: unsafe center; width: 118px; height: 1px; padding-top: 197px; margin-left: 186px;"><div style="box-sizing: border-box; font-size: 0; text-align: center; color: #232F3E; "><div style="display: inline-block; font-size: 10px; font-family: Helvetica; color: light-dark(#232F3E, #bdc7d4); line-height: 1.2; pointer-events: all; white-space: normal; word-wrap: normal; ">EC2 (ALBターゲット)</div></div></div></foreignObject><text x="245" y="200" fill="#232F3E" font-family="Helvetica" font-size="10px" text-anchor="middle">EC2 (ALBターゲット)</text></switch></g></g></g><g data-cell-id="r8"><g><rect x="370" y="128" width="140" height="50" rx="7.5" ry="7.5" fill="#ffffff" stroke="#8c4fff" stroke-width="2" pointer-events="all" style="fill: light-dark(rgb(255, 255, 255), rgb(18, 18, 18)); stroke: light-dark(rgb(140, 79, 255), rgb(177, 125, 255));"/></g><g><g><switch><foreignObject style="overflow: visible; text-align: left;" pointer-events="none" width="100%" height="100%" requiredFeatures="http://www.w3.org/TR/SVG11/feature#Extensibility"><div xmlns="http://www.w3.org/1999/xhtml" style="display: flex; align-items: unsafe center; justify-content: unsafe center; width: 138px; height: 1px; padding-top: 153px; margin-left: 371px;"><div style="box-sizing: border-box; font-size: 0; text-align: center; color: #232F3E; "><div style="display: inline-block; font-size: 10px; font-family: Helvetica; color: light-dark(#232F3E, #bdc7d4); line-height: 1.2; pointer-events: all; font-weight: bold; white-space: normal; word-wrap: normal; ">ALB</div></div></div></foreignObject><text x="440" y="156" fill="#232F3E" font-family="Helvetica" font-size="10px" text-anchor="middle" font-weight="bold">ALB</text></switch></g></g></g><g data-cell-id="t9"><g transform="translate(0.5,0.5)"><rect x="70" y="228" width="200" height="20" fill="none" stroke="none" pointer-events="all"/></g><g><g><switch><foreignObject style="overflow: visible; text-align: left;" pointer-events="none" width="100%" height="100%" requiredFeatures="http://www.w3.org/TR/SVG11/feature#Extensibility"><div xmlns="http://www.w3.org/1999/xhtml" style="display: flex; align-items: unsafe center; justify-content: unsafe flex-start; width: 198px; height: 1px; padding-top: 238px; margin-left: 72px;"><div style="box-sizing: border-box; font-size: 0; text-align: left; color: #232F3E; "><div style="display: inline-block; font-size: 11px; font-family: Helvetica; color: light-dark(#232F3E, #bdc7d4); line-height: 1.2; pointer-events: all; font-weight: bold; white-space: normal; word-wrap: normal; ">Public Subnet</div></div></div></foreignObject><text x="72" y="241" fill="#232F3E" font-family="Helvetica" font-size="11px" font-weight="bold">Public Subnet</text></switch></g></g></g><g data-cell-id="i10"><g transform="translate(0.5,0.5)"><path d="M 180 258 L 230 258 L 230 308 L 180 308 Z" fill="#8c4fff" stroke="none" pointer-events="all" style="fill: light-dark(rgb(140, 79, 255), rgb(177, 125, 255));"/><path d="M 195.57 293.84 L 195.57 291.26 L 197.18 292.55 Z M 195.23 288.65 C 194.95 288.43 194.58 288.39 194.26 288.54 C 193.95 288.7 193.75 289.01 193.75 289.36 L 193.75 295.73 C 193.75 296.08 193.95 296.39 194.26 296.55 C 194.39 296.61 194.53 296.64 194.66 296.64 C 194.86 296.64 195.06 296.57 195.23 296.44 L 199.2 293.26 C 199.42 293.08 199.55 292.82 199.55 292.55 C 199.55 292.27 199.42 292.01 199.2 291.84 Z M 217.05 285.58 L 217.05 282.01 L 218.83 283.79 Z M 220.76 283.15 L 216.78 279.18 C 216.52 278.92 216.13 278.84 215.79 278.98 C 215.45 279.12 215.23 279.45 215.23 279.82 L 215.23 282.89 L 208.29 282.89 L 208.29 274.25 C 208.29 273.75 207.89 273.34 207.39 273.34 L 200.39 273.34 L 200.39 275.16 L 206.48 275.16 L 206.48 282.89 L 200.23 282.89 L 200.23 284.7 L 206.48 284.7 L 206.48 292.43 L 200.39 292.43 L 200.39 294.25 L 207.39 294.25 C 207.89 294.25 208.29 293.84 208.29 293.34 L 208.29 284.7 L 215.23 284.7 L 215.23 287.77 C 215.23 288.14 215.45 288.47 215.79 288.61 C 215.9 288.66 216.02 288.68 216.14 288.68 C 216.37 288.68 216.61 288.59 216.78 288.42 L 220.76 284.44 C 221.11 284.08 221.11 283.51 220.76 283.15 Z M 195.57 285.09 L 195.57 282.51 L 197.18 283.79 Z M 195.23 279.9 C 194.95 279.68 194.58 279.64 194.26 279.79 C 193.95 279.95 193.75 280.26 193.75 280.61 L 193.75 286.98 C 193.75 287.33 193.95 287.64 194.26 287.8 C 194.39 287.86 194.53 287.89 194.66 287.89 C 194.86 287.89 195.06 287.82 195.23 287.69 L 199.2 284.5 C 199.42 284.33 199.55 284.07 199.55 283.79 C 199.55 283.52 199.42 283.26 199.2 283.08 Z M 195.57 275.54 L 195.57 272.96 L 197.18 274.25 Z M 195.23 270.36 C 194.95 270.14 194.58 270.1 194.26 270.25 C 193.95 270.4 193.75 270.72 193.75 271.07 L 193.75 277.43 C 193.75 277.78 193.95 278.1 194.26 278.25 C 194.39 278.31 194.53 278.34 194.66 278.34 C 194.86 278.34 195.06 278.27 195.23 278.14 L 199.2 274.96 C 199.42 274.79 199.55 274.53 199.55 274.25 C 199.55 273.97 199.42 273.71 199.2 273.54 Z M 205 301.18 C 194.97 301.18 186.82 293.03 186.82 283 C 186.82 272.97 194.97 264.82 205 264.82 C 215.03 264.82 223.18 272.97 223.18 283 C 223.18 293.03 215.03 301.18 205 301.18 Z M 205 263 C 193.97 263 185 271.97 185 283 C 185 294.03 193.97 303 205 303 C 216.03 303 225 294.03 225 283 C 225 271.97 216.03 263 205 263 Z" fill="#ffffff" stroke="none" pointer-events="all" style="fill: light-dark(rgb(255, 255, 255), rgb(18, 18, 18));"/></g></g><g data-cell-id="t11"><g transform="translate(0.5,0.5)"><rect x="145" y="316" width="120" height="22" fill="none" stroke="none" pointer-events="all"/></g><g><g><switch><foreignObject style="overflow: visible; text-align: left;" pointer-events="none" width="100%" height="100%" requiredFeatures="http://www.w3.org/TR/SVG11/feature#Extensibility"><div xmlns="http://www.w3.org/1999/xhtml" style="display: flex; align-items: unsafe center; justify-content: unsafe center; width: 118px; height: 1px; padding-top: 327px; margin-left: 146px;"><div style="box-sizing: border-box; font-size: 0; text-align: center; color: #232F3E; "><div style="display: inline-block; font-size: 10px; font-family: Helvetica; color: light-dark(#232F3E, #bdc7d4); line-height: 1.2; pointer-events: all; white-space: normal; word-wrap: normal; ">NAT GW<br />+ Elastic IP</div></div></div></foreignObject><text x="205" y="330" fill="#232F3E" font-family="Helvetica" font-size="10px" text-anchor="middle">NAT GW...</text></switch></g></g></g><g data-cell-id="r12"><g><rect x="360" y="258" width="140" height="50" rx="7.5" ry="7.5" fill="#fff5eb" stroke="#ed7100" stroke-width="2" pointer-events="all" style="fill: light-dark(rgb(255, 245, 235), rgb(32, 24, 15)); stroke: light-dark(rgb(237, 113, 0), rgb(216, 109, 12));"/></g><g><g><switch><foreignObject style="overflow: visible; text-align: left;" pointer-events="none" width="100%" height="100%" requiredFeatures="http://www.w3.org/TR/SVG11/feature#Extensibility"><div xmlns="http://www.w3.org/1999/xhtml" style="display: flex; align-items: unsafe center; justify-content: unsafe center; width: 138px; height: 1px; padding-top: 283px; margin-left: 361px;"><div style="box-sizing: border-box; font-size: 0; text-align: center; color: #232F3E; "><div style="display: inline-block; font-size: 10px; font-family: Helvetica; color: light-dark(#232F3E, #bdc7d4); line-height: 1.2; pointer-events: all; font-weight: bold; white-space: normal; word-wrap: normal; ">IGW</div></div></div></foreignObject><text x="430" y="286" fill="#232F3E" font-family="Helvetica" font-size="10px" text-anchor="middle" font-weight="bold">IGW</text></switch></g></g></g><g data-cell-id="a13"><g><path d="M 124.23 178 L 180.75 251.47" fill="none" stroke="#248814" stroke-width="2" stroke-miterlimit="10" pointer-events="stroke" style="stroke: light-dark(rgb(36, 136, 20), rgb(85, 171, 71));"/><path d="M 184.41 256.23 L 176.36 252.33 L 180.75 251.47 L 182.7 247.45 Z" fill="#248814" stroke="#248814" stroke-width="2" stroke-miterlimit="10" pointer-events="all" style="fill: light-dark(rgb(36, 136, 20), rgb(85, 171, 71)); stroke: light-dark(rgb(36, 136, 20), rgb(85, 171, 71));"/></g><g><g><switch><foreignObject style="overflow: visible; text-align: left;" pointer-events="none" width="100%" height="100%" requiredFeatures="http://www.w3.org/TR/SVG11/feature#Extensibility"><div xmlns="http://www.w3.org/1999/xhtml" style="display: flex; align-items: unsafe center; justify-content: unsafe center; width: 1px; height: 1px; padding-top: 218px; margin-left: 155px;"><div style="box-sizing: border-box; font-size: 0; text-align: center; color: #000000; background-color: #FFFFFF; "><div style="display: inline-block; font-size: 10px; font-family: Helvetica; color: light-dark(#000000, #ffffff); line-height: 1.2; pointer-events: all; background-color: light-dark(#FFFFFF, #121212); white-space: nowrap; ">API Call</div></div></div></foreignObject><text x="155" y="221" fill="light-dark(#000000, #ffffff)" font-family="Helvetica" font-size="10px" text-anchor="middle">API Call</text></switch></g></g></g><g data-cell-id="a14"><g><path d="M 230 283 L 351.76 283" fill="none" stroke="#248814" stroke-width="2" stroke-miterlimit="10" pointer-events="stroke" style="stroke: light-dark(rgb(36, 136, 20), rgb(85, 171, 71));"/><path d="M 357.76 283 L 349.76 287 L 351.76 283 L 349.76 279 Z" fill="#248814" stroke="#248814" stroke-width="2" stroke-miterlimit="10" pointer-events="all" style="fill: light-dark(rgb(36, 136, 20), rgb(85, 171, 71)); stroke: light-dark(rgb(36, 136, 20), rgb(85, 171, 71));"/></g></g><g data-cell-id="r15"><g><rect x="580" y="168" width="180" height="60" rx="9" ry="9" fill="#f5f5f5" stroke="#666666" stroke-width="2" pointer-events="all" style="fill: light-dark(rgb(245, 245, 245), rgb(26, 26, 26)); stroke: light-dark(rgb(102, 102, 102), rgb(149, 149, 149));"/></g><g><g><switch><foreignObject style="overflow: visible; text-align: left;" pointer-events="none" width="100%" height="100%" requiredFeatures="http://www.w3.org/TR/SVG11/feature#Extensibility"><div xmlns="http://www.w3.org/1999/xhtml" style="display: flex; align-items: unsafe center; justify-content: unsafe center; width: 178px; height: 1px; padding-top: 198px; margin-left: 581px;"><div style="box-sizing: border-box; font-size: 0; text-align: center; color: #232F3E; "><div style="display: inline-block; font-size: 10px; font-family: Helvetica; color: light-dark(#232F3E, #bdc7d4); line-height: 1.2; pointer-events: all; font-weight: bold; white-space: normal; word-wrap: normal; ">3rd Party API<br />Firewall</div></div></div></foreignObject><text x="670" y="201" fill="#232F3E" font-family="Helvetica" font-size="10px" text-anchor="middle" font-weight="bold">3rd Party API...</text></switch></g></g></g><g data-cell-id="r16"><g transform="translate(0.5,0.5)"><rect x="800" y="168" width="120" height="60" rx="9" ry="9" fill="#f5f5f5" stroke="#666666" pointer-events="all" style="fill: light-dark(rgb(245, 245, 245), rgb(26, 26, 26)); stroke: light-dark(rgb(102, 102, 102), rgb(149, 149, 149));"/></g><g><g><switch><foreignObject style="overflow: visible; text-align: left;" pointer-events="none" width="100%" height="100%" requiredFeatures="http://www.w3.org/TR/SVG11/feature#Extensibility"><div xmlns="http://www.w3.org/1999/xhtml" style="display: flex; align-items: unsafe center; justify-content: unsafe center; width: 118px; height: 1px; padding-top: 198px; margin-left: 801px;"><div style="box-sizing: border-box; font-size: 0; text-align: center; color: #232F3E; "><div style="display: inline-block; font-size: 10px; font-family: Helvetica; color: light-dark(#232F3E, #bdc7d4); line-height: 1.2; pointer-events: all; font-weight: bold; white-space: normal; word-wrap: normal; ">API Backend</div></div></div></foreignObject><text x="860" y="201" fill="#232F3E" font-family="Helvetica" font-size="10px" text-anchor="middle" font-weight="bold">API Backend</text></switch></g></g></g><g data-cell-id="a17"><g><path d="M 500 283 L 662.16 230.54" fill="none" stroke="#248814" stroke-width="2" stroke-miterlimit="10" pointer-events="stroke" style="stroke: light-dark(rgb(36, 136, 20), rgb(85, 171, 71));"/><path d="M 667.87 228.69 L 661.49 234.96 L 662.16 230.54 L 659.03 227.35 Z" fill="#248814" stroke="#248814" stroke-width="2" stroke-miterlimit="10" pointer-events="all" style="fill: light-dark(rgb(36, 136, 20), rgb(85, 171, 71)); stroke: light-dark(rgb(36, 136, 20), rgb(85, 171, 71));"/></g><g><g><switch><foreignObject style="overflow: visible; text-align: left;" pointer-events="none" width="100%" height="100%" requiredFeatures="http://www.w3.org/TR/SVG11/feature#Extensibility"><div xmlns="http://www.w3.org/1999/xhtml" style="display: flex; align-items: unsafe center; justify-content: unsafe center; width: 1px; height: 1px; padding-top: 256px; margin-left: 585px;"><div style="box-sizing: border-box; font-size: 0; text-align: center; color: #000000; background-color: #FFFFFF; "><div style="display: inline-block; font-size: 10px; font-family: Helvetica; color: light-dark(#000000, #ffffff); line-height: 1.2; pointer-events: all; background-color: light-dark(#FFFFFF, #121212); white-space: nowrap; ">Elastic IP<br />(許可リスト登録)</div></div></div></foreignObject><text x="585" y="259" fill="light-dark(#000000, #ffffff)" font-family="Helvetica" font-size="10px" text-anchor="middle">Elastic IP...</text></switch></g></g></g><g data-cell-id="a18"><g><path d="M 760 198 L 791.76 198" fill="none" stroke="#666666" stroke-width="2" stroke-miterlimit="10" pointer-events="stroke" style="stroke: light-dark(rgb(102, 102, 102), rgb(149, 149, 149));"/><path d="M 797.76 198 L 789.76 202 L 791.76 198 L 789.76 194 Z" fill="#666666" stroke="#666666" stroke-width="2" stroke-miterlimit="10" pointer-events="all" style="fill: light-dark(rgb(102, 102, 102), rgb(149, 149, 149)); stroke: light-dark(rgb(102, 102, 102), rgb(149, 149, 149));"/></g></g><g data-cell-id="n19"><g transform="translate(0.5,0.5)"><rect x="40" y="468" width="900" height="95" rx="14.25" ry="14.25" fill="#ffffff" stroke="#232f3e" pointer-events="all" style="fill: light-dark(rgb(255, 255, 255), rgb(18, 18, 18)); stroke: light-dark(rgb(35, 47, 62), rgb(189, 199, 212));"/></g><g><g><switch><foreignObject style="overflow: visible; text-align: left;" pointer-events="none" width="100%" height="100%" requiredFeatures="http://www.w3.org/TR/SVG11/feature#Extensibility"><div xmlns="http://www.w3.org/1999/xhtml" style="display: flex; align-items: unsafe flex-start; justify-content: unsafe flex-start; width: 882px; height: 1px; padding-top: 481px; margin-left: 50px;"><div style="box-sizing: border-box; font-size: 0; text-align: left; color: #232F3E; "><div style="display: inline-block; font-size: 10px; font-family: Helvetica; color: light-dark(#232F3E, #bdc7d4); line-height: 1.2; pointer-events: all; white-space: normal; word-wrap: normal; ">◾ 要件: 3rd Party API は 1 つのパブリック CIDR 許可リストのみ受理 → 送信元 IP を固定する必要<br />◾ 解法: (B) NAT GW に Elastic IP を割当 → Private Subnet からの Egress は常にその EIP<br />  ・3rd Party 側は EIP CIDR を許可リストに登録<br />◾ 誤答: VPC Endpoint ≠ 送信元 IP 固定 (AWS サービス向けのみ) / ALB は受信側</div></div></div></foreignObject><text x="50" y="491" fill="#232F3E" font-family="Helvetica" font-size="10px">◾ 要件: 3rd Party API は 1 つのパブリック CIDR 許可リストのみ受理 → 送信元 IP を固定する必要...</text></switch></g></g></g></g></g></g><switch><g requiredFeatures="http://www.w3.org/TR/SVG11/feature#Extensibility"/><a transform="translate(0,-5)" xlink:href="https://www.drawio.com/doc/faq/svg-export-text-problems" target="_blank"><text text-anchor="middle" font-size="10px" x="50%" y="100%">Text is not SVG - cannot display</text></a></switch></svg>