<?xml version="1.0" encoding="UTF-8"?>
<!DOCTYPE svg PUBLIC "-//W3C//DTD SVG 1.1//EN" "http://www.w3.org/Graphics/SVG/1.1/DTD/svg11.dtd">
<svg xmlns="http://www.w3.org/2000/svg" style="background: transparent; background-color: transparent; color-scheme: light;" xmlns:xlink="http://www.w3.org/1999/xlink" version="1.1" width="961px" height="570px" viewBox="0 0 961 570"><defs/><g><g data-cell-id="0"><g data-cell-id="1"><g data-cell-id="t1"><g transform="translate(0.5,0.5)"><rect x="0" y="0" width="960" height="28" fill="none" stroke="none" pointer-events="all"/></g><g><g><switch><foreignObject style="overflow: visible; text-align: left;" pointer-events="none" width="100%" height="100%" requiredFeatures="http://www.w3.org/TR/SVG11/feature#Extensibility"><div xmlns="http://www.w3.org/1999/xhtml" style="display: flex; align-items: unsafe center; justify-content: unsafe center; width: 958px; height: 1px; padding-top: 14px; margin-left: 1px;"><div style="box-sizing: border-box; font-size: 0; text-align: center; color: #232F3E; "><div style="display: inline-block; font-size: 15px; font-family: Helvetica; color: light-dark(#232F3E, #bdc7d4); line-height: 1.2; pointer-events: all; font-weight: bold; white-space: normal; word-wrap: normal; ">UDEMY-295: ECS Fargate → Aurora — 認証情報を Secrets Manager + EP</div></div></div></foreignObject><text x="480" y="19" fill="#232F3E" font-family="Helvetica" font-size="15px" text-anchor="middle" font-weight="bold">UDEMY-295: ECS Fargate → Aurora — 認証情報を Secrets Manager + EP</text></switch></g></g></g><g data-cell-id="g2"><g transform="translate(0.5,0.5)"><path d="M 40 68 L 920 68 L 920 448 L 40 448 Z" fill="#e9f3e6" stroke="#248814" stroke-miterlimit="10" pointer-events="all" style="fill: light-dark(rgb(233, 243, 230), rgb(24, 33, 22)); stroke: light-dark(rgb(36, 136, 20), rgb(85, 171, 71));"/><path d="M 50.59 74.65 C 50.53 74.65 50.48 74.65 50.42 74.65 L 50.42 74.65 C 49.11 74.68 48.03 75.24 47.14 76.25 C 47.13 76.25 47.13 76.25 47.13 76.25 C 46.2 77.36 45.87 78.52 45.96 79.73 C 44.81 80.06 44.12 80.92 43.76 81.74 C 43.75 81.75 43.75 81.76 43.74 81.78 C 43.33 83.05 43.68 84.36 44.24 85.16 C 44.25 85.17 44.25 85.17 44.26 85.18 C 44.94 86.05 45.97 86.53 47.02 86.53 L 58.17 86.53 C 59.19 86.53 60.07 86.16 60.8 85.37 C 61.25 84.94 61.49 84.29 61.58 83.59 C 61.67 82.9 61.61 82.16 61.32 81.55 C 61.31 81.54 61.31 81.53 61.31 81.52 C 60.8 80.62 59.95 79.81 58.76 79.64 C 58.74 78.79 58.28 77.99 57.68 77.56 C 57.67 77.55 57.66 77.55 57.65 77.54 C 57.01 77.18 56.4 77.14 55.91 77.3 C 55.6 77.4 55.36 77.56 55.14 77.74 C 54.51 76.36 53.43 75.18 51.81 74.79 C 51.81 74.79 51.81 74.79 51.81 74.79 C 51.38 74.7 50.97 74.65 50.59 74.65 Z M 50.43 75.38 C 50.8 75.38 51.2 75.43 51.64 75.53 C 53.16 75.89 54.15 77.07 54.66 78.48 C 54.71 78.6 54.81 78.69 54.94 78.72 C 55.07 78.74 55.2 78.7 55.29 78.61 C 55.54 78.34 55.83 78.11 56.14 78.01 C 56.44 77.91 56.78 77.92 57.26 78.18 C 57.67 78.49 58.11 79.31 58.03 79.9 C 58.01 80.01 58.05 80.12 58.12 80.2 C 58.19 80.28 58.29 80.33 58.39 80.33 C 59.46 80.34 60.16 81.02 60.64 81.88 C 60.85 82.3 60.91 82.92 60.84 83.5 C 60.76 84.07 60.53 84.59 60.28 84.83 C 60.27 84.84 60.27 84.85 60.26 84.85 C 59.65 85.53 59.03 85.78 58.17 85.78 L 47.02 85.78 C 46.2 85.78 45.39 85.41 44.85 84.73 C 44.44 84.13 44.14 83.02 44.46 82.02 C 44.79 81.27 45.36 80.55 46.41 80.36 C 46.6 80.32 46.74 80.14 46.71 79.94 C 46.56 78.79 46.8 77.81 47.7 76.74 C 48.49 75.85 49.33 75.39 50.43 75.38 Z M 52.2 78.7 C 51.77 78.7 51.4 78.93 51.13 79.21 C 50.85 79.5 50.64 79.85 50.64 80.25 L 50.64 80.71 L 50.14 80.71 C 50.04 80.71 49.94 80.75 49.87 80.82 C 49.8 80.89 49.76 80.98 49.76 81.08 L 49.76 83.7 C 49.76 83.8 49.8 83.89 49.87 83.96 C 49.94 84.03 50.04 84.07 50.14 84.07 L 54.16 84.07 C 54.26 84.07 54.35 84.03 54.42 83.96 C 54.49 83.89 54.53 83.8 54.53 83.7 L 54.53 81.08 C 54.53 80.98 54.49 80.89 54.42 80.82 C 54.35 80.75 54.26 80.71 54.16 80.71 L 53.68 80.71 L 53.68 80.25 C 53.68 79.84 53.47 79.47 53.21 79.2 C 52.94 78.92 52.61 78.7 52.2 78.7 Z M 52.2 79.45 C 52.29 79.45 52.5 79.54 52.67 79.72 C 52.83 79.89 52.93 80.11 52.93 80.25 L 52.93 80.71 L 51.39 80.71 L 51.39 80.25 C 51.39 80.15 51.49 79.91 51.66 79.74 C 51.83 79.56 52.06 79.45 52.2 79.45 Z M 50.51 81.46 L 53.78 81.46 L 53.78 83.32 L 50.51 83.32 Z M 40 93 L 40 68 L 65 68 L 65 93 Z" fill="#248814" stroke="none" pointer-events="all" style="fill: light-dark(rgb(36, 136, 20), rgb(85, 171, 71));"/></g><g><g><switch><foreignObject style="overflow: visible; text-align: left;" pointer-events="none" width="100%" height="100%" requiredFeatures="http://www.w3.org/TR/SVG11/feature#Extensibility"><div xmlns="http://www.w3.org/1999/xhtml" style="display: flex; align-items: unsafe flex-start; justify-content: unsafe flex-start; width: 848px; height: 1px; padding-top: 75px; margin-left: 72px;"><div style="box-sizing: border-box; font-size: 0; text-align: left; color: #232F3E; "><div style="display: inline-block; font-size: 12px; font-family: Helvetica; color: light-dark(#232F3E, #bdc7d4); line-height: 1.2; pointer-events: all; font-weight: bold; white-space: normal; word-wrap: normal; ">VPC</div></div></div></foreignObject><text x="72" y="87" fill="#232F3E" font-family="Helvetica" font-size="12px" font-weight="bold">VPC</text></switch></g></g></g><g data-cell-id="t3"><g transform="translate(0.5,0.5)"><rect x="70" y="98" width="200" height="20" fill="none" stroke="none" pointer-events="all"/></g><g><g><switch><foreignObject style="overflow: visible; text-align: left;" pointer-events="none" width="100%" height="100%" requiredFeatures="http://www.w3.org/TR/SVG11/feature#Extensibility"><div xmlns="http://www.w3.org/1999/xhtml" style="display: flex; align-items: unsafe center; justify-content: unsafe flex-start; width: 198px; height: 1px; padding-top: 108px; margin-left: 72px;"><div style="box-sizing: border-box; font-size: 0; text-align: left; color: #232F3E; "><div style="display: inline-block; font-size: 11px; font-family: Helvetica; color: light-dark(#232F3E, #bdc7d4); line-height: 1.2; pointer-events: all; font-weight: bold; white-space: normal; word-wrap: normal; ">Private Subnet (App)</div></div></div></foreignObject><text x="72" y="111" fill="#232F3E" font-family="Helvetica" font-size="11px" font-weight="bold">Private Subnet (App)</text></switch></g></g></g><g data-cell-id="r4"><g><rect x="60" y="138" width="150" height="70" rx="10.5" ry="10.5" fill="#fff5eb" stroke="#ed7100" stroke-width="2" pointer-events="all" style="fill: light-dark(rgb(255, 245, 235), rgb(32, 24, 15)); stroke: light-dark(rgb(237, 113, 0), rgb(216, 109, 12));"/></g><g><g><switch><foreignObject style="overflow: visible; text-align: left;" pointer-events="none" width="100%" height="100%" requiredFeatures="http://www.w3.org/TR/SVG11/feature#Extensibility"><div xmlns="http://www.w3.org/1999/xhtml" style="display: flex; align-items: unsafe center; justify-content: unsafe center; width: 148px; height: 1px; padding-top: 173px; margin-left: 61px;"><div style="box-sizing: border-box; font-size: 0; text-align: center; color: #232F3E; "><div style="display: inline-block; font-size: 10px; font-family: Helvetica; color: light-dark(#232F3E, #bdc7d4); line-height: 1.2; pointer-events: all; font-weight: bold; white-space: normal; word-wrap: normal; ">Fargate Task<br />(ECS)</div></div></div></foreignObject><text x="135" y="176" fill="#232F3E" font-family="Helvetica" font-size="10px" text-anchor="middle" font-weight="bold">Fargate Task...</text></switch></g></g></g><g data-cell-id="i5"><g transform="translate(0.5,0.5)"><path d="M 270 138 L 320 138 L 320 188 L 270 188 Z" fill="#8c4fff" stroke="none" pointer-events="all" style="fill: light-dark(rgb(140, 79, 255), rgb(177, 125, 255));"/><path d="M 296.74 163.87 L 298.47 163.87 L 298.47 162.13 L 296.74 162.13 Z M 294.13 163.87 L 295.87 163.87 L 295.87 162.13 L 294.13 162.13 Z M 291.53 163.87 L 293.26 163.87 L 293.26 162.13 L 291.53 162.13 Z M 307.11 169.37 L 301.12 174.64 L 301.12 151.48 L 307.11 156.75 Z M 301.31 149.3 C 301.13 149.22 300.32 148.98 299.77 149.29 L 299.3 149.55 L 299.3 176.57 L 299.77 176.83 C 299.97 176.95 300.22 176.99 300.45 176.99 C 300.84 176.99 301.2 176.88 301.31 176.83 L 301.45 176.77 L 308.24 170.79 C 308.66 170.54 308.93 170.1 308.93 169.62 L 308.93 156.5 C 308.93 156.02 308.66 155.58 308.24 155.33 L 301.45 149.35 Z M 288.88 174.64 L 282.89 169.37 L 282.89 156.75 L 288.88 151.48 Z M 288.69 149.3 L 288.55 149.35 L 281.76 155.33 C 281.34 155.58 281.07 156.02 281.07 156.5 L 281.07 169.62 C 281.07 170.1 281.34 170.54 281.76 170.79 L 288.55 176.77 L 288.69 176.83 C 288.8 176.88 289.16 176.99 289.55 176.99 C 289.78 176.99 290.02 176.95 290.23 176.83 L 290.7 176.57 L 290.7 149.55 L 290.23 149.29 C 289.68 148.98 288.87 149.22 288.69 149.3 Z M 313.18 170.53 L 302.53 181.18 L 287.47 181.18 L 276.82 170.53 L 276.82 155.47 L 287.47 144.82 L 302.53 144.82 L 313.18 155.47 Z M 303.28 143 L 286.72 143 L 275 154.72 L 275 171.28 L 286.72 183 L 303.28 183 L 315 171.28 L 315 154.72 Z" fill="#ffffff" stroke="none" pointer-events="all" style="fill: light-dark(rgb(255, 255, 255), rgb(18, 18, 18));"/></g></g><g data-cell-id="t6"><g transform="translate(0.5,0.5)"><rect x="235" y="196" width="120" height="22" fill="none" stroke="none" pointer-events="all"/></g><g><g><switch><foreignObject style="overflow: visible; text-align: left;" pointer-events="none" width="100%" height="100%" requiredFeatures="http://www.w3.org/TR/SVG11/feature#Extensibility"><div xmlns="http://www.w3.org/1999/xhtml" style="display: flex; align-items: unsafe center; justify-content: unsafe center; width: 118px; height: 1px; padding-top: 207px; margin-left: 236px;"><div style="box-sizing: border-box; font-size: 0; text-align: center; color: #232F3E; "><div style="display: inline-block; font-size: 10px; font-family: Helvetica; color: light-dark(#232F3E, #bdc7d4); line-height: 1.2; pointer-events: all; white-space: normal; word-wrap: normal; ">Interface EP<br />SecretsManager</div></div></div></foreignObject><text x="295" y="210" fill="#232F3E" font-family="Helvetica" font-size="10px" text-anchor="middle">Interface EP...</text></switch></g></g></g><g data-cell-id="i7"><g transform="translate(0.5,0.5)"><path d="M 270 258 L 320 258 L 320 308 L 270 308 Z" fill="#8c4fff" stroke="none" pointer-events="all" style="fill: light-dark(rgb(140, 79, 255), rgb(177, 125, 255));"/><path d="M 296.74 283.87 L 298.47 283.87 L 298.47 282.13 L 296.74 282.13 Z M 294.13 283.87 L 295.87 283.87 L 295.87 282.13 L 294.13 282.13 Z M 291.53 283.87 L 293.26 283.87 L 293.26 282.13 L 291.53 282.13 Z M 307.11 289.37 L 301.12 294.64 L 301.12 271.48 L 307.11 276.75 Z M 301.31 269.3 C 301.13 269.22 300.32 268.98 299.77 269.29 L 299.3 269.55 L 299.3 296.57 L 299.77 296.83 C 299.97 296.95 300.22 296.99 300.45 296.99 C 300.84 296.99 301.2 296.88 301.31 296.83 L 301.45 296.77 L 308.24 290.79 C 308.66 290.54 308.93 290.1 308.93 289.62 L 308.93 276.5 C 308.93 276.02 308.66 275.58 308.24 275.33 L 301.45 269.35 Z M 288.88 294.64 L 282.89 289.37 L 282.89 276.75 L 288.88 271.48 Z M 288.69 269.3 L 288.55 269.35 L 281.76 275.33 C 281.34 275.58 281.07 276.02 281.07 276.5 L 281.07 289.62 C 281.07 290.1 281.34 290.54 281.76 290.79 L 288.55 296.77 L 288.69 296.83 C 288.8 296.88 289.16 296.99 289.55 296.99 C 289.78 296.99 290.02 296.95 290.23 296.83 L 290.7 296.57 L 290.7 269.55 L 290.23 269.29 C 289.68 268.98 288.87 269.22 288.69 269.3 Z M 313.18 290.53 L 302.53 301.18 L 287.47 301.18 L 276.82 290.53 L 276.82 275.47 L 287.47 264.82 L 302.53 264.82 L 313.18 275.47 Z M 303.28 263 L 286.72 263 L 275 274.72 L 275 291.28 L 286.72 303 L 303.28 303 L 315 291.28 L 315 274.72 Z" fill="#ffffff" stroke="none" pointer-events="all" style="fill: light-dark(rgb(255, 255, 255), rgb(18, 18, 18));"/></g></g><g data-cell-id="t8"><g transform="translate(0.5,0.5)"><rect x="235" y="316" width="120" height="22" fill="none" stroke="none" pointer-events="all"/></g><g><g><switch><foreignObject style="overflow: visible; text-align: left;" pointer-events="none" width="100%" height="100%" requiredFeatures="http://www.w3.org/TR/SVG11/feature#Extensibility"><div xmlns="http://www.w3.org/1999/xhtml" style="display: flex; align-items: unsafe center; justify-content: unsafe center; width: 118px; height: 1px; padding-top: 327px; margin-left: 236px;"><div style="box-sizing: border-box; font-size: 0; text-align: center; color: #232F3E; "><div style="display: inline-block; font-size: 10px; font-family: Helvetica; color: light-dark(#232F3E, #bdc7d4); line-height: 1.2; pointer-events: all; white-space: normal; word-wrap: normal; ">Interface EP<br />KMS</div></div></div></foreignObject><text x="295" y="330" fill="#232F3E" font-family="Helvetica" font-size="10px" text-anchor="middle">Interface EP...</text></switch></g></g></g><g data-cell-id="a9"><g><path d="M 210 168 L 261.76 168" fill="none" stroke="#3b48cc" stroke-width="2" stroke-miterlimit="10" pointer-events="stroke" style="stroke: light-dark(rgb(59, 72, 204), rgb(152, 163, 255));"/><path d="M 267.76 168 L 259.76 172 L 261.76 168 L 259.76 164 Z" fill="#3b48cc" stroke="#3b48cc" stroke-width="2" stroke-miterlimit="10" pointer-events="all" style="fill: light-dark(rgb(59, 72, 204), rgb(152, 163, 255)); stroke: light-dark(rgb(59, 72, 204), rgb(152, 163, 255));"/></g><g><g><switch><foreignObject style="overflow: visible; text-align: left;" pointer-events="none" width="100%" height="100%" requiredFeatures="http://www.w3.org/TR/SVG11/feature#Extensibility"><div xmlns="http://www.w3.org/1999/xhtml" style="display: flex; align-items: unsafe center; justify-content: unsafe center; width: 1px; height: 1px; padding-top: 168px; margin-left: 240px;"><div style="box-sizing: border-box; font-size: 0; text-align: center; color: #000000; background-color: #FFFFFF; "><div style="display: inline-block; font-size: 10px; font-family: Helvetica; color: light-dark(#000000, #ffffff); line-height: 1.2; pointer-events: all; background-color: light-dark(#FFFFFF, #121212); white-space: nowrap; ">GetSecret</div></div></div></foreignObject><text x="240" y="171" fill="light-dark(#000000, #ffffff)" font-family="Helvetica" font-size="10px" text-anchor="middle">GetSecret</text></switch></g></g></g><g data-cell-id="a10"><g><path d="M 210 208 L 264.64 271.75" fill="none" stroke="#3b48cc" stroke-width="2" stroke-miterlimit="10" pointer-events="stroke" style="stroke: light-dark(rgb(59, 72, 204), rgb(152, 163, 255));"/><path d="M 268.54 276.3 L 260.3 272.83 L 264.64 271.75 L 266.38 267.63 Z" fill="#3b48cc" stroke="#3b48cc" stroke-width="2" stroke-miterlimit="10" pointer-events="all" style="fill: light-dark(rgb(59, 72, 204), rgb(152, 163, 255)); stroke: light-dark(rgb(59, 72, 204), rgb(152, 163, 255));"/></g></g><g data-cell-id="r11"><g><rect x="420" y="118" width="220" height="70" rx="10.5" ry="10.5" fill="#ffffff" stroke="#3b48cc" stroke-width="2" pointer-events="all" style="fill: light-dark(rgb(255, 255, 255), rgb(18, 18, 18)); stroke: light-dark(rgb(59, 72, 204), rgb(152, 163, 255));"/></g><g><g><switch><foreignObject style="overflow: visible; text-align: left;" pointer-events="none" width="100%" height="100%" requiredFeatures="http://www.w3.org/TR/SVG11/feature#Extensibility"><div xmlns="http://www.w3.org/1999/xhtml" style="display: flex; align-items: unsafe center; justify-content: unsafe center; width: 218px; height: 1px; padding-top: 153px; margin-left: 421px;"><div style="box-sizing: border-box; font-size: 0; text-align: center; color: #232F3E; "><div style="display: inline-block; font-size: 10px; font-family: Helvetica; color: light-dark(#232F3E, #bdc7d4); line-height: 1.2; pointer-events: all; font-weight: bold; white-space: normal; word-wrap: normal; ">AWS Secrets Manager<br />(DB 資格情報)</div></div></div></foreignObject><text x="530" y="156" fill="#232F3E" font-family="Helvetica" font-size="10px" text-anchor="middle" font-weight="bold">AWS Secrets Manager...</text></switch></g></g></g><g data-cell-id="r12"><g><rect x="420" y="238" width="220" height="70" rx="10.5" ry="10.5" fill="#ffffff" stroke="#3b48cc" stroke-width="2" pointer-events="all" style="fill: light-dark(rgb(255, 255, 255), rgb(18, 18, 18)); stroke: light-dark(rgb(59, 72, 204), rgb(152, 163, 255));"/></g><g><g><switch><foreignObject style="overflow: visible; text-align: left;" pointer-events="none" width="100%" height="100%" requiredFeatures="http://www.w3.org/TR/SVG11/feature#Extensibility"><div xmlns="http://www.w3.org/1999/xhtml" style="display: flex; align-items: unsafe center; justify-content: unsafe center; width: 218px; height: 1px; padding-top: 273px; margin-left: 421px;"><div style="box-sizing: border-box; font-size: 0; text-align: center; color: #232F3E; "><div style="display: inline-block; font-size: 10px; font-family: Helvetica; color: light-dark(#232F3E, #bdc7d4); line-height: 1.2; pointer-events: all; font-weight: bold; white-space: normal; word-wrap: normal; ">AWS KMS (暗号鍵)</div></div></div></foreignObject><text x="530" y="276" fill="#232F3E" font-family="Helvetica" font-size="10px" text-anchor="middle" font-weight="bold">AWS KMS (暗号鍵)</text></switch></g></g></g><g data-cell-id="a13"><g><path d="M 360 163 L 411.88 154.35" fill="none" stroke="#3b48cc" stroke-width="2" stroke-miterlimit="10" pointer-events="stroke" style="stroke: light-dark(rgb(59, 72, 204), rgb(152, 163, 255));"/><path d="M 417.79 153.37 L 410.56 158.63 L 411.88 154.35 L 409.25 150.74 Z" fill="#3b48cc" stroke="#3b48cc" stroke-width="2" stroke-miterlimit="10" pointer-events="all" style="fill: light-dark(rgb(59, 72, 204), rgb(152, 163, 255)); stroke: light-dark(rgb(59, 72, 204), rgb(152, 163, 255));"/></g></g><g data-cell-id="a14"><g><path d="M 360 278 L 411.79 273.68" fill="none" stroke="#3b48cc" stroke-width="2" stroke-miterlimit="10" pointer-events="stroke" style="stroke: light-dark(rgb(59, 72, 204), rgb(152, 163, 255));"/><path d="M 417.77 273.19 L 410.13 277.84 L 411.79 273.68 L 409.47 269.86 Z" fill="#3b48cc" stroke="#3b48cc" stroke-width="2" stroke-miterlimit="10" pointer-events="all" style="fill: light-dark(rgb(59, 72, 204), rgb(152, 163, 255)); stroke: light-dark(rgb(59, 72, 204), rgb(152, 163, 255));"/></g></g><g data-cell-id="a15"><g><path d="M 530 188 L 530 229.76" fill="none" stroke="#3b48cc" stroke-width="2" stroke-miterlimit="10" pointer-events="stroke" style="stroke: light-dark(rgb(59, 72, 204), rgb(152, 163, 255));"/><path d="M 530 235.76 L 526 227.76 L 530 229.76 L 534 227.76 Z" fill="#3b48cc" stroke="#3b48cc" stroke-width="2" stroke-miterlimit="10" pointer-events="all" style="fill: light-dark(rgb(59, 72, 204), rgb(152, 163, 255)); stroke: light-dark(rgb(59, 72, 204), rgb(152, 163, 255));"/></g><g><g><switch><foreignObject style="overflow: visible; text-align: left;" pointer-events="none" width="100%" height="100%" requiredFeatures="http://www.w3.org/TR/SVG11/feature#Extensibility"><div xmlns="http://www.w3.org/1999/xhtml" style="display: flex; align-items: unsafe center; justify-content: unsafe center; width: 1px; height: 1px; padding-top: 213px; margin-left: 530px;"><div style="box-sizing: border-box; font-size: 0; text-align: center; color: #000000; background-color: #FFFFFF; "><div style="display: inline-block; font-size: 10px; font-family: Helvetica; color: light-dark(#000000, #ffffff); line-height: 1.2; pointer-events: all; background-color: light-dark(#FFFFFF, #121212); white-space: nowrap; ">Decrypt</div></div></div></foreignObject><text x="530" y="216" fill="light-dark(#000000, #ffffff)" font-family="Helvetica" font-size="10px" text-anchor="middle">Decrypt</text></switch></g></g></g><g data-cell-id="r16"><g><rect x="700" y="168" width="200" height="80" rx="12" ry="12" fill="#ebf1ff" stroke="#3b48cc" stroke-width="2" pointer-events="all" style="fill: light-dark(rgb(235, 241, 255), rgb(25, 30, 42)); stroke: light-dark(rgb(59, 72, 204), rgb(152, 163, 255));"/></g><g><g><switch><foreignObject style="overflow: visible; text-align: left;" pointer-events="none" width="100%" height="100%" requiredFeatures="http://www.w3.org/TR/SVG11/feature#Extensibility"><div xmlns="http://www.w3.org/1999/xhtml" style="display: flex; align-items: unsafe center; justify-content: unsafe center; width: 198px; height: 1px; padding-top: 208px; margin-left: 701px;"><div style="box-sizing: border-box; font-size: 0; text-align: center; color: #232F3E; "><div style="display: inline-block; font-size: 10px; font-family: Helvetica; color: light-dark(#232F3E, #bdc7d4); line-height: 1.2; pointer-events: all; font-weight: bold; white-space: normal; word-wrap: normal; ">Aurora MySQL<br />(自動ローテーション)</div></div></div></foreignObject><text x="800" y="211" fill="#232F3E" font-family="Helvetica" font-size="10px" text-anchor="middle" font-weight="bold">Aurora MySQL...</text></switch></g></g></g><g data-cell-id="a17"><g><path d="M 130 208 L 691.76 208" fill="none" stroke="#3b48cc" stroke-width="2" stroke-miterlimit="10" pointer-events="stroke" style="stroke: light-dark(rgb(59, 72, 204), rgb(152, 163, 255));"/><path d="M 697.76 208 L 689.76 212 L 691.76 208 L 689.76 204 Z" fill="#3b48cc" stroke="#3b48cc" stroke-width="2" stroke-miterlimit="10" pointer-events="all" style="fill: light-dark(rgb(59, 72, 204), rgb(152, 163, 255)); stroke: light-dark(rgb(59, 72, 204), rgb(152, 163, 255));"/></g><g><g><switch><foreignObject style="overflow: visible; text-align: left;" pointer-events="none" width="100%" height="100%" requiredFeatures="http://www.w3.org/TR/SVG11/feature#Extensibility"><div xmlns="http://www.w3.org/1999/xhtml" style="display: flex; align-items: unsafe center; justify-content: unsafe center; width: 1px; height: 1px; padding-top: 208px; margin-left: 415px;"><div style="box-sizing: border-box; font-size: 0; text-align: center; color: #000000; background-color: #FFFFFF; "><div style="display: inline-block; font-size: 10px; font-family: Helvetica; color: light-dark(#000000, #ffffff); line-height: 1.2; pointer-events: all; background-color: light-dark(#FFFFFF, #121212); white-space: nowrap; ">DB接続<br />(認証: Secrets Manager)</div></div></div></foreignObject><text x="415" y="211" fill="light-dark(#000000, #ffffff)" font-family="Helvetica" font-size="10px" text-anchor="middle">DB接続...</text></switch></g></g></g><g data-cell-id="n18"><g transform="translate(0.5,0.5)"><rect x="40" y="468" width="880" height="100" rx="15" ry="15" fill="#ffffff" stroke="#232f3e" pointer-events="all" style="fill: light-dark(rgb(255, 255, 255), rgb(18, 18, 18)); stroke: light-dark(rgb(35, 47, 62), rgb(189, 199, 212));"/></g><g><g><switch><foreignObject style="overflow: visible; text-align: left;" pointer-events="none" width="100%" height="100%" requiredFeatures="http://www.w3.org/TR/SVG11/feature#Extensibility"><div xmlns="http://www.w3.org/1999/xhtml" style="display: flex; align-items: unsafe flex-start; justify-content: unsafe flex-start; width: 862px; height: 1px; padding-top: 481px; margin-left: 50px;"><div style="box-sizing: border-box; font-size: 0; text-align: left; color: #232F3E; "><div style="display: inline-block; font-size: 10px; font-family: Helvetica; color: light-dark(#232F3E, #bdc7d4); line-height: 1.2; pointer-events: all; white-space: normal; word-wrap: normal; ">◾ 要件: Fargate から Aurora への接続情報を安全に管理 (コンプラ: パブリック経路なし)<br />◾ 解法: Secrets Manager + 自動ローテーション + Secrets/KMS 用 Interface EP<br />  ・Task Execution Role に secretsmanager:GetSecretValue と kms:Decrypt を付与<br />  ・VPC から Secrets Manager / KMS を PrivateLink で呼ぶ → NAT GW 不要</div></div></div></foreignObject><text x="50" y="491" fill="#232F3E" font-family="Helvetica" font-size="10px">◾ 要件: Fargate から Aurora への接続情報を安全に管理 (コンプラ: パブリック経路なし)...</text></switch></g></g></g></g></g></g><switch><g requiredFeatures="http://www.w3.org/TR/SVG11/feature#Extensibility"/><a transform="translate(0,-5)" xlink:href="https://www.drawio.com/doc/faq/svg-export-text-problems" target="_blank"><text text-anchor="middle" font-size="10px" x="50%" y="100%">Text is not SVG - cannot display</text></a></switch></svg>