<?xml version="1.0" encoding="UTF-8"?>
<!DOCTYPE svg PUBLIC "-//W3C//DTD SVG 1.1//EN" "http://www.w3.org/Graphics/SVG/1.1/DTD/svg11.dtd">
<svg xmlns="http://www.w3.org/2000/svg" style="background: transparent; background-color: transparent; color-scheme: light;" xmlns:xlink="http://www.w3.org/1999/xlink" version="1.1" width="1001px" height="577px" viewBox="0 0 1001 577"><defs/><g><g data-cell-id="0"><g data-cell-id="1"><g data-cell-id="t"><g transform="translate(0.5,0.5)"><rect x="0" y="0" width="1000" height="28" fill="none" stroke="none" pointer-events="all"/></g><g><g><switch><foreignObject style="overflow: visible; text-align: left;" pointer-events="none" width="100%" height="100%" requiredFeatures="http://www.w3.org/TR/SVG11/feature#Extensibility"><div xmlns="http://www.w3.org/1999/xhtml" style="display: flex; align-items: unsafe center; justify-content: unsafe center; width: 998px; height: 1px; padding-top: 14px; margin-left: 1px;"><div style="box-sizing: border-box; font-size: 0; text-align: center; color: #232F3E; "><div style="display: inline-block; font-size: 16px; font-family: Helvetica; color: light-dark(#232F3E, #bdc7d4); line-height: 1.2; pointer-events: all; font-weight: bold; white-space: normal; word-wrap: normal; ">UDEMY-270 / num=569: GWLB で インバウンドトラフィックをセキュリティツールへ透過挿入</div></div></div></foreignObject><text x="500" y="19" fill="#232F3E" font-family="Helvetica" font-size="16px" text-anchor="middle" font-weight="bold">UDEMY-270 / num=569: GWLB で インバウンドトラフィックをセキュリティツールへ透過挿入</text></switch></g></g></g><g data-cell-id="inet"><g transform="translate(0.5,0.5)"><path d="M 30 160 L 90 160 L 90 220 L 30 220 Z" fill="#666" stroke="none" pointer-events="all" style="fill: light-dark(rgb(102, 102, 102), rgb(0, 0, 0));"/><path d="M 70.36 202.27 L 68.72 202.27 L 68.72 182.95 C 68.72 182.52 68.47 182.13 68.08 181.95 L 67.98 181.9 C 65.78 180.91 63.51 179.89 60.24 179.89 C 56.83 179.89 54.32 180.99 51.85 182.22 C 51.47 182.4 51.24 182.78 51.24 183.2 L 51.24 202.27 L 49.64 202.27 L 49.64 181.65 C 52.3 179.48 56.14 178.25 60.25 178.25 C 64.08 178.25 67.73 179.34 70.36 181.25 Z M 60.25 176.06 C 55.42 176.06 50.89 177.61 47.82 180.32 C 47.59 180.53 47.45 180.83 47.45 181.14 L 47.45 203.36 C 47.45 203.97 47.94 204.46 48.55 204.46 L 52.33 204.46 C 52.94 204.46 53.43 203.97 53.43 203.36 L 53.43 183.88 C 55.52 182.87 57.56 182.07 60.24 182.07 C 62.8 182.07 64.65 182.81 66.54 183.65 L 66.54 203.36 C 66.54 203.97 67.02 204.46 67.63 204.46 L 71.45 204.46 C 72.06 204.46 72.55 203.97 72.55 203.36 L 72.55 180.71 C 72.55 180.38 72.39 180.06 72.13 179.86 C 69.1 177.45 64.77 176.06 60.25 176.06 Z M 60 211.81 C 47.97 211.81 38.19 202.03 38.19 190 C 38.19 177.97 47.97 168.19 60 168.19 C 72.03 168.19 81.81 177.97 81.81 190 C 81.81 202.03 72.03 211.81 60 211.81 Z M 60 166 C 46.77 166 36 176.77 36 190 C 36 203.23 46.77 214 60 214 C 73.23 214 84 203.23 84 190 C 84 176.77 73.23 166 60 166 Z" fill="#ffffff" stroke="none" pointer-events="all" style="fill: light-dark(rgb(255, 255, 255), rgb(18, 18, 18));"/></g></g><g data-cell-id="inet_l"><g transform="translate(0.5,0.5)"><rect x="0" y="228" width="120" height="18" fill="none" stroke="none" pointer-events="all"/></g><g><g><switch><foreignObject style="overflow: visible; text-align: left;" pointer-events="none" width="100%" height="100%" requiredFeatures="http://www.w3.org/TR/SVG11/feature#Extensibility"><div xmlns="http://www.w3.org/1999/xhtml" style="display: flex; align-items: unsafe center; justify-content: unsafe center; width: 118px; height: 1px; padding-top: 237px; margin-left: 1px;"><div style="box-sizing: border-box; font-size: 0; text-align: center; color: #232F3E; "><div style="display: inline-block; font-size: 11px; font-family: Helvetica; color: light-dark(#232F3E, #bdc7d4); line-height: 1.2; pointer-events: all; font-weight: bold; white-space: normal; word-wrap: normal; ">インターネット</div></div></div></foreignObject><text x="60" y="240" fill="#232F3E" font-family="Helvetica" font-size="11px" text-anchor="middle" font-weight="bold">インターネット</text></switch></g></g></g><g data-cell-id="inet_l2"><g transform="translate(0.5,0.5)"><rect x="0" y="246" width="120" height="18" fill="none" stroke="none" pointer-events="all"/></g><g><g><switch><foreignObject style="overflow: visible; text-align: left;" pointer-events="none" width="100%" height="100%" requiredFeatures="http://www.w3.org/TR/SVG11/feature#Extensibility"><div xmlns="http://www.w3.org/1999/xhtml" style="display: flex; align-items: unsafe center; justify-content: unsafe center; width: 118px; height: 1px; padding-top: 255px; margin-left: 1px;"><div style="box-sizing: border-box; font-size: 0; text-align: center; color: #232F3E; "><div style="display: inline-block; font-size: 10px; font-family: Helvetica; color: light-dark(#232F3E, #bdc7d4); line-height: 1.2; pointer-events: all; white-space: normal; word-wrap: normal; ">(顧客)</div></div></div></foreignObject><text x="60" y="258" fill="#232F3E" font-family="Helvetica" font-size="10px" text-anchor="middle">(顧客)</text></switch></g></g></g><g data-cell-id="igw"><g transform="translate(0.5,0.5)"><path d="M 170 160 L 230 160 L 230 220 L 170 220 Z" fill="#ffffff" stroke="none" pointer-events="all" style="fill: light-dark(rgb(255, 255, 255), rgb(18, 18, 18));"/><path d="M 210.36 202.27 L 208.72 202.27 L 208.72 182.95 C 208.72 182.52 208.47 182.13 208.08 181.95 L 207.98 181.9 C 205.78 180.91 203.51 179.89 200.24 179.89 C 196.83 179.89 194.32 180.99 191.85 182.22 C 191.47 182.4 191.24 182.78 191.24 183.2 L 191.24 202.27 L 189.64 202.27 L 189.64 181.65 C 192.3 179.48 196.14 178.25 200.25 178.25 C 204.08 178.25 207.73 179.34 210.36 181.25 Z M 200.25 176.06 C 195.42 176.06 190.89 177.61 187.82 180.32 C 187.59 180.53 187.45 180.83 187.45 181.14 L 187.45 203.36 C 187.45 203.97 187.94 204.46 188.55 204.46 L 192.33 204.46 C 192.94 204.46 193.43 203.97 193.43 203.36 L 193.43 183.88 C 195.52 182.87 197.56 182.07 200.24 182.07 C 202.8 182.07 204.65 182.81 206.54 183.65 L 206.54 203.36 C 206.54 203.97 207.02 204.46 207.63 204.46 L 211.45 204.46 C 212.06 204.46 212.55 203.97 212.55 203.36 L 212.55 180.71 C 212.55 180.38 212.39 180.06 212.13 179.86 C 209.1 177.45 204.77 176.06 200.25 176.06 Z M 200 211.81 C 187.97 211.81 178.19 202.03 178.19 190 C 178.19 177.97 187.97 168.19 200 168.19 C 212.03 168.19 221.81 177.97 221.81 190 C 221.81 202.03 212.03 211.81 200 211.81 Z M 200 166 C 186.77 166 176 176.77 176 190 C 176 203.23 186.77 214 200 214 C 213.23 214 224 203.23 224 190 C 224 176.77 213.23 166 200 166 Z" fill="#ffffff" stroke="none" pointer-events="all" style="fill: light-dark(rgb(255, 255, 255), rgb(18, 18, 18));"/></g></g><g data-cell-id="igw_l"><g transform="translate(0.5,0.5)"><rect x="140" y="228" width="120" height="18" fill="none" stroke="none" pointer-events="all"/></g><g><g><switch><foreignObject style="overflow: visible; text-align: left;" pointer-events="none" width="100%" height="100%" requiredFeatures="http://www.w3.org/TR/SVG11/feature#Extensibility"><div xmlns="http://www.w3.org/1999/xhtml" style="display: flex; align-items: unsafe center; justify-content: unsafe center; width: 118px; height: 1px; padding-top: 237px; margin-left: 141px;"><div style="box-sizing: border-box; font-size: 0; text-align: center; color: #232F3E; "><div style="display: inline-block; font-size: 11px; font-family: Helvetica; color: light-dark(#232F3E, #bdc7d4); line-height: 1.2; pointer-events: all; font-weight: bold; white-space: normal; word-wrap: normal; ">IGW</div></div></div></foreignObject><text x="200" y="240" fill="#232F3E" font-family="Helvetica" font-size="11px" text-anchor="middle" font-weight="bold">IGW</text></switch></g></g></g><g data-cell-id="gwlbe"><g transform="translate(0.5,0.5)"><path d="M 310 160 L 370 160 L 370 220 L 310 220 Z" fill="#3b48cc" stroke="none" pointer-events="all" style="fill: light-dark(rgb(59, 72, 204), rgb(152, 163, 255));"/><path d="M 342.08 191.04 L 344.16 191.04 L 344.16 188.96 L 342.08 188.96 Z M 338.96 191.04 L 341.04 191.04 L 341.04 188.96 L 338.96 188.96 Z M 335.83 191.04 L 337.92 191.04 L 337.92 188.96 L 335.83 188.96 Z M 354.53 197.64 L 347.34 203.97 L 347.34 176.18 L 354.53 182.51 Z M 347.58 173.56 C 347.35 173.46 346.39 173.18 345.72 173.55 L 345.16 173.86 L 345.16 206.29 L 345.72 206.6 C 345.97 206.74 346.26 206.78 346.54 206.78 C 347 206.78 347.44 206.65 347.58 206.59 L 347.74 206.52 L 355.89 199.35 C 356.39 199.05 356.71 198.52 356.71 197.95 L 356.71 182.2 C 356.71 181.62 356.4 181.09 355.89 180.8 L 347.74 173.62 Z M 332.66 203.97 L 325.47 197.64 L 325.47 182.5 L 332.66 176.18 Z M 332.42 173.56 L 332.26 173.62 L 324.11 180.8 C 323.6 181.09 323.29 181.62 323.29 182.2 L 323.29 197.95 C 323.29 198.52 323.6 199.05 324.11 199.35 L 332.26 206.52 L 332.42 206.59 C 332.56 206.65 332.99 206.78 333.46 206.78 C 333.74 206.78 334.03 206.74 334.28 206.6 L 334.84 206.29 L 334.84 173.86 L 334.28 173.55 C 333.61 173.18 332.65 173.46 332.42 173.56 Z M 361.82 199.04 L 349.04 211.82 L 330.96 211.82 L 318.18 199.04 L 318.18 180.96 L 330.96 168.18 L 349.04 168.18 L 361.82 180.96 Z M 349.94 166 L 330.06 166 L 316 180.06 L 316 199.94 L 330.06 214 L 349.94 214 L 364 199.94 L 364 180.06 Z" fill="#ffffff" stroke="none" pointer-events="all" style="fill: light-dark(rgb(255, 255, 255), rgb(18, 18, 18));"/></g></g><g data-cell-id="gwlbe_l"><g transform="translate(0.5,0.5)"><rect x="270" y="228" width="140" height="18" fill="none" stroke="none" pointer-events="all"/></g><g><g><switch><foreignObject style="overflow: visible; text-align: left;" pointer-events="none" width="100%" height="100%" requiredFeatures="http://www.w3.org/TR/SVG11/feature#Extensibility"><div xmlns="http://www.w3.org/1999/xhtml" style="display: flex; align-items: unsafe center; justify-content: unsafe center; width: 138px; height: 1px; padding-top: 237px; margin-left: 271px;"><div style="box-sizing: border-box; font-size: 0; text-align: center; color: #232F3E; "><div style="display: inline-block; font-size: 11px; font-family: Helvetica; color: light-dark(#232F3E, #bdc7d4); line-height: 1.2; pointer-events: all; font-weight: bold; white-space: normal; word-wrap: normal; ">GWLB Endpoint</div></div></div></foreignObject><text x="340" y="240" fill="#232F3E" font-family="Helvetica" font-size="11px" text-anchor="middle" font-weight="bold">GWLB Endpoint</text></switch></g></g></g><g data-cell-id="gwlbe_l2"><g transform="translate(0.5,0.5)"><rect x="270" y="246" width="140" height="18" fill="none" stroke="none" pointer-events="all"/></g><g><g><switch><foreignObject style="overflow: visible; text-align: left;" pointer-events="none" width="100%" height="100%" requiredFeatures="http://www.w3.org/TR/SVG11/feature#Extensibility"><div xmlns="http://www.w3.org/1999/xhtml" style="display: flex; align-items: unsafe center; justify-content: unsafe center; width: 138px; height: 1px; padding-top: 255px; margin-left: 271px;"><div style="box-sizing: border-box; font-size: 0; text-align: center; color: #232F3E; "><div style="display: inline-block; font-size: 10px; font-family: Helvetica; color: light-dark(#232F3E, #bdc7d4); line-height: 1.2; pointer-events: all; white-space: normal; word-wrap: normal; ">(GWLBE)</div></div></div></foreignObject><text x="340" y="258" fill="#232F3E" font-family="Helvetica" font-size="10px" text-anchor="middle">(GWLBE)</text></switch></g></g></g><g data-cell-id="svpc"><g transform="translate(0.5,0.5)"><path d="M 460 50 L 760 50 L 760 450 L 460 450 Z" fill="none" stroke="#248814" stroke-miterlimit="10" pointer-events="all" style="stroke: light-dark(rgb(36, 136, 20), rgb(85, 171, 71));"/><path d="M 470.59 56.65 C 470.53 56.65 470.48 56.65 470.42 56.65 L 470.42 56.65 C 469.11 56.68 468.03 57.24 467.14 58.25 C 467.13 58.25 467.13 58.25 467.13 58.25 C 466.2 59.36 465.87 60.52 465.96 61.73 C 464.81 62.06 464.12 62.92 463.76 63.74 C 463.75 63.75 463.75 63.76 463.74 63.78 C 463.33 65.05 463.68 66.36 464.24 67.16 C 464.25 67.17 464.25 67.17 464.26 67.18 C 464.94 68.05 465.97 68.53 467.02 68.53 L 478.17 68.53 C 479.19 68.53 480.07 68.16 480.8 67.37 C 481.25 66.94 481.49 66.29 481.58 65.59 C 481.67 64.9 481.61 64.16 481.32 63.55 C 481.31 63.54 481.31 63.53 481.31 63.52 C 480.8 62.62 479.95 61.81 478.76 61.64 C 478.74 60.79 478.28 59.99 477.68 59.56 C 477.67 59.55 477.66 59.55 477.65 59.54 C 477.01 59.18 476.4 59.14 475.91 59.3 C 475.6 59.4 475.36 59.56 475.14 59.74 C 474.51 58.36 473.43 57.18 471.81 56.79 C 471.81 56.79 471.81 56.79 471.81 56.79 C 471.38 56.7 470.97 56.65 470.59 56.65 Z M 470.43 57.38 C 470.8 57.38 471.2 57.43 471.64 57.53 C 473.16 57.89 474.15 59.07 474.66 60.48 C 474.71 60.6 474.81 60.69 474.94 60.72 C 475.07 60.74 475.2 60.7 475.29 60.61 C 475.54 60.34 475.83 60.11 476.14 60.01 C 476.44 59.91 476.78 59.92 477.26 60.18 C 477.67 60.49 478.11 61.31 478.03 61.9 C 478.01 62.01 478.05 62.12 478.12 62.2 C 478.19 62.28 478.29 62.33 478.39 62.33 C 479.46 62.34 480.16 63.02 480.64 63.88 C 480.85 64.3 480.91 64.92 480.84 65.5 C 480.76 66.07 480.53 66.59 480.28 66.83 C 480.27 66.84 480.27 66.85 480.26 66.85 C 479.65 67.53 479.03 67.78 478.17 67.78 L 467.02 67.78 C 466.2 67.78 465.39 67.41 464.85 66.73 C 464.44 66.13 464.14 65.02 464.46 64.02 C 464.79 63.27 465.36 62.55 466.41 62.36 C 466.6 62.32 466.74 62.14 466.71 61.94 C 466.56 60.79 466.8 59.81 467.7 58.74 C 468.49 57.85 469.33 57.39 470.43 57.38 Z M 472.2 60.7 C 471.77 60.7 471.4 60.93 471.13 61.21 C 470.85 61.5 470.64 61.85 470.64 62.25 L 470.64 62.71 L 470.14 62.71 C 470.04 62.71 469.94 62.75 469.87 62.82 C 469.8 62.89 469.76 62.98 469.76 63.08 L 469.76 65.7 C 469.76 65.8 469.8 65.89 469.87 65.96 C 469.94 66.03 470.04 66.07 470.14 66.07 L 474.16 66.07 C 474.26 66.07 474.35 66.03 474.42 65.96 C 474.49 65.89 474.53 65.8 474.53 65.7 L 474.53 63.08 C 474.53 62.98 474.49 62.89 474.42 62.82 C 474.35 62.75 474.26 62.71 474.16 62.71 L 473.68 62.71 L 473.68 62.25 C 473.68 61.84 473.47 61.47 473.21 61.2 C 472.94 60.92 472.61 60.7 472.2 60.7 Z M 472.2 61.45 C 472.29 61.45 472.5 61.54 472.67 61.72 C 472.83 61.89 472.93 62.11 472.93 62.25 L 472.93 62.71 L 471.39 62.71 L 471.39 62.25 C 471.39 62.15 471.49 61.91 471.66 61.74 C 471.83 61.56 472.06 61.45 472.2 61.45 Z M 470.51 63.46 L 473.78 63.46 L 473.78 65.32 L 470.51 65.32 Z M 460 75 L 460 50 L 485 50 L 485 75 Z" fill="#248814" stroke="none" pointer-events="all" style="fill: light-dark(rgb(36, 136, 20), rgb(85, 171, 71));"/></g><g><g><switch><foreignObject style="overflow: visible; text-align: left;" pointer-events="none" width="100%" height="100%" requiredFeatures="http://www.w3.org/TR/SVG11/feature#Extensibility"><div xmlns="http://www.w3.org/1999/xhtml" style="display: flex; align-items: unsafe flex-start; justify-content: unsafe flex-start; width: 268px; height: 1px; padding-top: 57px; margin-left: 492px;"><div style="box-sizing: border-box; font-size: 0; text-align: left; color: #232F3E; "><div style="display: inline-block; font-size: 11px; font-family: Helvetica; color: light-dark(#232F3E, #bdc7d4); line-height: 1.2; pointer-events: all; font-weight: bold; white-space: normal; word-wrap: normal; ">Security VPC (検査)</div></div></div></foreignObject><text x="492" y="68" fill="#232F3E" font-family="Helvetica" font-size="11px" font-weight="bold">Security VPC (検査)</text></switch></g></g></g><g data-cell-id="gwlb"><g transform="translate(0.5,0.5)"><path d="M 560 100 L 620 100 L 620 160 L 560 160 Z" fill="#8c4fff" stroke="none" pointer-events="all" style="fill: light-dark(rgb(140, 79, 255), rgb(177, 125, 255));"/><path d="M 580.4 142.48 C 573.52 142.48 567.92 136.88 567.92 130 C 567.92 123.12 573.52 117.52 580.4 117.52 C 587.28 117.52 592.88 123.12 592.88 130 C 592.88 136.88 587.28 142.48 580.4 142.48 M 609.2 148.24 C 609.2 150.36 607.48 152.08 605.36 152.08 C 603.24 152.08 601.52 150.36 601.52 148.24 C 601.52 146.12 603.24 144.4 605.36 144.4 C 607.48 144.4 609.2 146.12 609.2 148.24 M 605.36 107.92 C 607.48 107.92 609.2 109.64 609.2 111.76 C 609.2 113.88 607.48 115.6 605.36 115.6 C 603.24 115.6 601.52 113.88 601.52 111.76 C 601.52 109.64 603.24 107.92 605.36 107.92 M 608.24 126.16 C 610.36 126.16 612.08 127.88 612.08 130 C 612.08 132.12 610.36 133.84 608.24 133.84 C 606.12 133.84 604.4 132.12 604.4 130 C 604.4 127.88 606.12 126.16 608.24 126.16 M 594.75 130.96 L 602.57 130.96 C 603.03 133.68 605.39 135.76 608.24 135.76 C 611.42 135.76 614 133.18 614 130 C 614 126.82 611.42 124.24 608.24 124.24 C 605.39 124.24 603.03 126.32 602.57 129.04 L 594.75 129.04 C 594.63 127.22 594.17 125.49 593.43 123.91 L 601.95 116.39 C 602.9 117.1 604.08 117.52 605.36 117.52 C 608.54 117.52 611.12 114.94 611.12 111.76 C 611.12 108.58 608.54 106 605.36 106 C 602.18 106 599.6 108.58 599.6 111.76 C 599.6 112.97 599.97 114.08 600.61 115.01 L 592.48 122.18 C 589.91 118.23 585.46 115.6 580.4 115.6 C 572.46 115.6 566 122.06 566 130 C 566 137.94 572.46 144.4 580.4 144.4 C 585.46 144.4 589.91 141.77 592.48 137.82 L 600.61 144.99 C 599.97 145.92 599.6 147.03 599.6 148.24 C 599.6 151.42 602.18 154 605.36 154 C 608.54 154 611.12 151.42 611.12 148.24 C 611.12 145.06 608.54 142.48 605.36 142.48 C 604.08 142.48 602.9 142.9 601.95 143.61 L 593.43 136.09 C 594.17 134.51 594.63 132.78 594.75 130.96" fill="#ffffff" stroke="none" pointer-events="all" style="fill: light-dark(rgb(255, 255, 255), rgb(18, 18, 18));"/></g></g><g data-cell-id="gwlb_l"><g transform="translate(0.5,0.5)"><rect x="510" y="168" width="170" height="18" fill="none" stroke="none" pointer-events="all"/></g><g><g><switch><foreignObject style="overflow: visible; text-align: left;" pointer-events="none" width="100%" height="100%" requiredFeatures="http://www.w3.org/TR/SVG11/feature#Extensibility"><div xmlns="http://www.w3.org/1999/xhtml" style="display: flex; align-items: unsafe center; justify-content: unsafe center; width: 168px; height: 1px; padding-top: 177px; margin-left: 511px;"><div style="box-sizing: border-box; font-size: 0; text-align: center; color: #232F3E; "><div style="display: inline-block; font-size: 11px; font-family: Helvetica; color: light-dark(#232F3E, #bdc7d4); line-height: 1.2; pointer-events: all; font-weight: bold; white-space: normal; word-wrap: normal; ">GWLB (L3 透過)</div></div></div></foreignObject><text x="595" y="180" fill="#232F3E" font-family="Helvetica" font-size="11px" text-anchor="middle" font-weight="bold">GWLB (L3 透過)</text></switch></g></g></g><g data-cell-id="az1"><g><rect x="480" y="200" width="130" height="210" rx="19.5" ry="19.5" fill="#fff5eb" stroke="#ff9900" stroke-width="2" pointer-events="all" style="fill: light-dark(rgb(255, 245, 235), rgb(32, 24, 15)); stroke: light-dark(rgb(255, 153, 0), rgb(175, 87, 0));"/></g><g><g><switch><foreignObject style="overflow: visible; text-align: left;" pointer-events="none" width="100%" height="100%" requiredFeatures="http://www.w3.org/TR/SVG11/feature#Extensibility"><div xmlns="http://www.w3.org/1999/xhtml" style="display: flex; align-items: unsafe flex-start; justify-content: unsafe center; width: 128px; height: 1px; padding-top: 213px; margin-left: 481px;"><div style="box-sizing: border-box; font-size: 0; text-align: center; color: #232F3E; "><div style="display: inline-block; font-size: 12px; font-family: Helvetica; color: light-dark(#232F3E, #bdc7d4); line-height: 1.2; pointer-events: all; font-weight: bold; white-space: normal; word-wrap: normal; ">AZ-a</div></div></div></foreignObject><text x="545" y="225" fill="#232F3E" font-family="Helvetica" font-size="12px" text-anchor="middle" font-weight="bold">AZ-a</text></switch></g></g></g><g data-cell-id="sec1"><g transform="translate(0.5,0.5)"><path d="M 510 230 L 560 230 L 560 280 L 510 280 Z" fill="#dd344c" stroke="none" pointer-events="all" style="fill: light-dark(rgb(221, 52, 76), rgb(255, 127, 147));"/><path d="M 525.71 264.29 L 543.57 264.29 L 543.57 246.43 L 525.71 246.43 Z M 545 246.43 L 547.86 246.43 L 547.86 247.86 L 545 247.86 L 545 250.71 L 547.86 250.71 L 547.86 252.14 L 545 252.14 L 545 254.29 L 547.86 254.29 L 547.86 255.71 L 545 255.71 L 545 258.57 L 547.86 258.57 L 547.86 260 L 545 260 L 545 262.86 L 547.86 262.86 L 547.86 264.29 L 545 264.29 L 545 264.38 C 545 265.12 544.4 265.71 543.67 265.71 L 543.57 265.71 L 543.57 268.57 L 542.14 268.57 L 542.14 265.71 L 539.29 265.71 L 539.29 268.57 L 537.86 268.57 L 537.86 265.71 L 535.71 265.71 L 535.71 268.57 L 534.29 268.57 L 534.29 265.71 L 531.43 265.71 L 531.43 268.57 L 530 268.57 L 530 265.71 L 527.14 265.71 L 527.14 268.57 L 525.71 268.57 L 525.71 265.71 L 525.62 265.71 C 524.88 265.71 524.29 265.12 524.29 264.38 L 524.29 264.29 L 522.14 264.29 L 522.14 262.86 L 524.29 262.86 L 524.29 260 L 522.14 260 L 522.14 258.57 L 524.29 258.57 L 524.29 255.71 L 522.14 255.71 L 522.14 254.29 L 524.29 254.29 L 524.29 252.14 L 522.14 252.14 L 522.14 250.71 L 524.29 250.71 L 524.29 247.86 L 522.14 247.86 L 522.14 246.43 L 524.29 246.43 L 524.29 246.33 C 524.29 245.6 524.88 245 525.62 245 L 525.71 245 L 525.71 242.14 L 527.14 242.14 L 527.14 245 L 530 245 L 530 242.14 L 531.43 242.14 L 531.43 245 L 534.29 245 L 534.29 242.14 L 535.71 242.14 L 535.71 245 L 537.86 245 L 537.86 242.14 L 539.29 242.14 L 539.29 245 L 542.14 245 L 542.14 242.14 L 543.57 242.14 L 543.57 245 L 543.67 245 C 544.4 245 545 245.6 545 246.33 Z M 535.71 273.48 C 535.71 273.53 535.67 273.57 535.63 273.57 L 516.52 273.57 C 516.47 273.57 516.43 273.53 516.43 273.48 L 516.43 254.37 C 516.43 254.33 516.47 254.29 516.52 254.29 L 520.71 254.29 L 520.71 252.86 L 516.52 252.86 C 515.68 252.86 515 253.54 515 254.37 L 515 273.48 C 515 274.32 515.68 275 516.52 275 L 535.63 275 C 536.46 275 537.14 274.32 537.14 273.48 L 537.14 270 L 535.71 270 Z M 555 236.52 L 555 255.63 C 555 256.46 554.32 257.14 553.48 257.14 L 549.29 257.14 L 549.29 255.71 L 553.48 255.71 C 553.53 255.71 553.57 255.67 553.57 255.63 L 553.57 236.52 C 553.57 236.47 553.53 236.43 553.48 236.43 L 534.37 236.43 C 534.33 236.43 534.29 236.47 534.29 236.52 L 534.29 240.71 L 532.86 240.71 L 532.86 236.52 C 532.86 235.68 533.54 235 534.37 235 L 553.48 235 C 554.32 235 555 235.68 555 236.52 Z" fill="#ffffff" stroke="none" pointer-events="all" style="fill: light-dark(rgb(255, 255, 255), rgb(18, 18, 18));"/></g></g><g data-cell-id="sec1_l"><g transform="translate(0.5,0.5)"><rect x="480" y="290" width="120" height="18" fill="none" stroke="none" pointer-events="all"/></g><g><g><switch><foreignObject style="overflow: visible; text-align: left;" pointer-events="none" width="100%" height="100%" requiredFeatures="http://www.w3.org/TR/SVG11/feature#Extensibility"><div xmlns="http://www.w3.org/1999/xhtml" style="display: flex; align-items: unsafe center; justify-content: unsafe center; width: 118px; height: 1px; padding-top: 299px; margin-left: 481px;"><div style="box-sizing: border-box; font-size: 0; text-align: center; color: #232F3E; "><div style="display: inline-block; font-size: 11px; font-family: Helvetica; color: light-dark(#232F3E, #bdc7d4); line-height: 1.2; pointer-events: all; white-space: normal; word-wrap: normal; ">SecTool a</div></div></div></foreignObject><text x="540" y="302" fill="#232F3E" font-family="Helvetica" font-size="11px" text-anchor="middle">SecTool a</text></switch></g></g></g><g data-cell-id="sec1_l2"><g transform="translate(0.5,0.5)"><rect x="480" y="308" width="120" height="18" fill="none" stroke="none" pointer-events="all"/></g><g><g><switch><foreignObject style="overflow: visible; text-align: left;" pointer-events="none" width="100%" height="100%" requiredFeatures="http://www.w3.org/TR/SVG11/feature#Extensibility"><div xmlns="http://www.w3.org/1999/xhtml" style="display: flex; align-items: unsafe center; justify-content: unsafe center; width: 118px; height: 1px; padding-top: 317px; margin-left: 481px;"><div style="box-sizing: border-box; font-size: 0; text-align: center; color: #232F3E; "><div style="display: inline-block; font-size: 10px; font-family: Helvetica; color: light-dark(#232F3E, #bdc7d4); line-height: 1.2; pointer-events: all; white-space: normal; word-wrap: normal; ">(ASG)</div></div></div></foreignObject><text x="540" y="320" fill="#232F3E" font-family="Helvetica" font-size="10px" text-anchor="middle">(ASG)</text></switch></g></g></g><g data-cell-id="az2"><g><rect x="620" y="200" width="130" height="210" rx="19.5" ry="19.5" fill="#fff5eb" stroke="#ff9900" stroke-width="2" pointer-events="all" style="fill: light-dark(rgb(255, 245, 235), rgb(32, 24, 15)); stroke: light-dark(rgb(255, 153, 0), rgb(175, 87, 0));"/></g><g><g><switch><foreignObject style="overflow: visible; text-align: left;" pointer-events="none" width="100%" height="100%" requiredFeatures="http://www.w3.org/TR/SVG11/feature#Extensibility"><div xmlns="http://www.w3.org/1999/xhtml" style="display: flex; align-items: unsafe flex-start; justify-content: unsafe center; width: 128px; height: 1px; padding-top: 213px; margin-left: 621px;"><div style="box-sizing: border-box; font-size: 0; text-align: center; color: #232F3E; "><div style="display: inline-block; font-size: 12px; font-family: Helvetica; color: light-dark(#232F3E, #bdc7d4); line-height: 1.2; pointer-events: all; font-weight: bold; white-space: normal; word-wrap: normal; ">AZ-b</div></div></div></foreignObject><text x="685" y="225" fill="#232F3E" font-family="Helvetica" font-size="12px" text-anchor="middle" font-weight="bold">AZ-b</text></switch></g></g></g><g data-cell-id="sec2"><g transform="translate(0.5,0.5)"><path d="M 650 230 L 700 230 L 700 280 L 650 280 Z" fill="#dd344c" stroke="none" pointer-events="all" style="fill: light-dark(rgb(221, 52, 76), rgb(255, 127, 147));"/><path d="M 665.71 264.29 L 683.57 264.29 L 683.57 246.43 L 665.71 246.43 Z M 685 246.43 L 687.86 246.43 L 687.86 247.86 L 685 247.86 L 685 250.71 L 687.86 250.71 L 687.86 252.14 L 685 252.14 L 685 254.29 L 687.86 254.29 L 687.86 255.71 L 685 255.71 L 685 258.57 L 687.86 258.57 L 687.86 260 L 685 260 L 685 262.86 L 687.86 262.86 L 687.86 264.29 L 685 264.29 L 685 264.38 C 685 265.12 684.4 265.71 683.67 265.71 L 683.57 265.71 L 683.57 268.57 L 682.14 268.57 L 682.14 265.71 L 679.29 265.71 L 679.29 268.57 L 677.86 268.57 L 677.86 265.71 L 675.71 265.71 L 675.71 268.57 L 674.29 268.57 L 674.29 265.71 L 671.43 265.71 L 671.43 268.57 L 670 268.57 L 670 265.71 L 667.14 265.71 L 667.14 268.57 L 665.71 268.57 L 665.71 265.71 L 665.62 265.71 C 664.88 265.71 664.29 265.12 664.29 264.38 L 664.29 264.29 L 662.14 264.29 L 662.14 262.86 L 664.29 262.86 L 664.29 260 L 662.14 260 L 662.14 258.57 L 664.29 258.57 L 664.29 255.71 L 662.14 255.71 L 662.14 254.29 L 664.29 254.29 L 664.29 252.14 L 662.14 252.14 L 662.14 250.71 L 664.29 250.71 L 664.29 247.86 L 662.14 247.86 L 662.14 246.43 L 664.29 246.43 L 664.29 246.33 C 664.29 245.6 664.88 245 665.62 245 L 665.71 245 L 665.71 242.14 L 667.14 242.14 L 667.14 245 L 670 245 L 670 242.14 L 671.43 242.14 L 671.43 245 L 674.29 245 L 674.29 242.14 L 675.71 242.14 L 675.71 245 L 677.86 245 L 677.86 242.14 L 679.29 242.14 L 679.29 245 L 682.14 245 L 682.14 242.14 L 683.57 242.14 L 683.57 245 L 683.67 245 C 684.4 245 685 245.6 685 246.33 Z M 675.71 273.48 C 675.71 273.53 675.67 273.57 675.63 273.57 L 656.52 273.57 C 656.47 273.57 656.43 273.53 656.43 273.48 L 656.43 254.37 C 656.43 254.33 656.47 254.29 656.52 254.29 L 660.71 254.29 L 660.71 252.86 L 656.52 252.86 C 655.68 252.86 655 253.54 655 254.37 L 655 273.48 C 655 274.32 655.68 275 656.52 275 L 675.63 275 C 676.46 275 677.14 274.32 677.14 273.48 L 677.14 270 L 675.71 270 Z M 695 236.52 L 695 255.63 C 695 256.46 694.32 257.14 693.48 257.14 L 689.29 257.14 L 689.29 255.71 L 693.48 255.71 C 693.53 255.71 693.57 255.67 693.57 255.63 L 693.57 236.52 C 693.57 236.47 693.53 236.43 693.48 236.43 L 674.37 236.43 C 674.33 236.43 674.29 236.47 674.29 236.52 L 674.29 240.71 L 672.86 240.71 L 672.86 236.52 C 672.86 235.68 673.54 235 674.37 235 L 693.48 235 C 694.32 235 695 235.68 695 236.52 Z" fill="#ffffff" stroke="none" pointer-events="all" style="fill: light-dark(rgb(255, 255, 255), rgb(18, 18, 18));"/></g></g><g data-cell-id="sec2_l"><g transform="translate(0.5,0.5)"><rect x="620" y="290" width="120" height="18" fill="none" stroke="none" pointer-events="all"/></g><g><g><switch><foreignObject style="overflow: visible; text-align: left;" pointer-events="none" width="100%" height="100%" requiredFeatures="http://www.w3.org/TR/SVG11/feature#Extensibility"><div xmlns="http://www.w3.org/1999/xhtml" style="display: flex; align-items: unsafe center; justify-content: unsafe center; width: 118px; height: 1px; padding-top: 299px; margin-left: 621px;"><div style="box-sizing: border-box; font-size: 0; text-align: center; color: #232F3E; "><div style="display: inline-block; font-size: 11px; font-family: Helvetica; color: light-dark(#232F3E, #bdc7d4); line-height: 1.2; pointer-events: all; white-space: normal; word-wrap: normal; ">SecTool b</div></div></div></foreignObject><text x="680" y="302" fill="#232F3E" font-family="Helvetica" font-size="11px" text-anchor="middle">SecTool b</text></switch></g></g></g><g data-cell-id="sec2_l2"><g transform="translate(0.5,0.5)"><rect x="620" y="308" width="120" height="18" fill="none" stroke="none" pointer-events="all"/></g><g><g><switch><foreignObject style="overflow: visible; text-align: left;" pointer-events="none" width="100%" height="100%" requiredFeatures="http://www.w3.org/TR/SVG11/feature#Extensibility"><div xmlns="http://www.w3.org/1999/xhtml" style="display: flex; align-items: unsafe center; justify-content: unsafe center; width: 118px; height: 1px; padding-top: 317px; margin-left: 621px;"><div style="box-sizing: border-box; font-size: 0; text-align: center; color: #232F3E; "><div style="display: inline-block; font-size: 10px; font-family: Helvetica; color: light-dark(#232F3E, #bdc7d4); line-height: 1.2; pointer-events: all; white-space: normal; word-wrap: normal; ">(ASG)</div></div></div></foreignObject><text x="680" y="320" fill="#232F3E" font-family="Helvetica" font-size="10px" text-anchor="middle">(ASG)</text></switch></g></g></g><g data-cell-id="avpc"><g transform="translate(0.5,0.5)"><path d="M 790 50 L 980 50 L 980 450 L 790 450 Z" fill="none" stroke="#248814" stroke-miterlimit="10" pointer-events="all" style="stroke: light-dark(rgb(36, 136, 20), rgb(85, 171, 71));"/><path d="M 800.59 56.65 C 800.53 56.65 800.48 56.65 800.42 56.65 L 800.42 56.65 C 799.11 56.68 798.03 57.24 797.14 58.25 C 797.13 58.25 797.13 58.25 797.13 58.25 C 796.2 59.36 795.87 60.52 795.96 61.73 C 794.81 62.06 794.12 62.92 793.76 63.74 C 793.75 63.75 793.75 63.76 793.74 63.78 C 793.33 65.05 793.68 66.36 794.24 67.16 C 794.25 67.17 794.25 67.17 794.26 67.18 C 794.94 68.05 795.97 68.53 797.02 68.53 L 808.17 68.53 C 809.19 68.53 810.07 68.16 810.8 67.37 C 811.25 66.94 811.49 66.29 811.58 65.59 C 811.67 64.9 811.61 64.16 811.32 63.55 C 811.31 63.54 811.31 63.53 811.31 63.52 C 810.8 62.62 809.95 61.81 808.76 61.64 C 808.74 60.79 808.28 59.99 807.68 59.56 C 807.67 59.55 807.66 59.55 807.65 59.54 C 807.01 59.18 806.4 59.14 805.91 59.3 C 805.6 59.4 805.36 59.56 805.14 59.74 C 804.51 58.36 803.43 57.18 801.81 56.79 C 801.81 56.79 801.81 56.79 801.81 56.79 C 801.38 56.7 800.97 56.65 800.59 56.65 Z M 800.43 57.38 C 800.8 57.38 801.2 57.43 801.64 57.53 C 803.16 57.89 804.15 59.07 804.66 60.48 C 804.71 60.6 804.81 60.69 804.94 60.72 C 805.07 60.74 805.2 60.7 805.29 60.61 C 805.54 60.34 805.83 60.11 806.14 60.01 C 806.44 59.91 806.78 59.92 807.26 60.18 C 807.67 60.49 808.11 61.31 808.03 61.9 C 808.01 62.01 808.05 62.12 808.12 62.2 C 808.19 62.28 808.29 62.33 808.39 62.33 C 809.46 62.34 810.16 63.02 810.64 63.88 C 810.85 64.3 810.91 64.92 810.84 65.5 C 810.76 66.07 810.53 66.59 810.28 66.83 C 810.27 66.84 810.27 66.85 810.26 66.85 C 809.65 67.53 809.03 67.78 808.17 67.78 L 797.02 67.78 C 796.2 67.78 795.39 67.41 794.85 66.73 C 794.44 66.13 794.14 65.02 794.46 64.02 C 794.79 63.27 795.36 62.55 796.41 62.36 C 796.6 62.32 796.74 62.14 796.71 61.94 C 796.56 60.79 796.8 59.81 797.7 58.74 C 798.49 57.85 799.33 57.39 800.43 57.38 Z M 802.2 60.7 C 801.77 60.7 801.4 60.93 801.13 61.21 C 800.85 61.5 800.64 61.85 800.64 62.25 L 800.64 62.71 L 800.14 62.71 C 800.04 62.71 799.94 62.75 799.87 62.82 C 799.8 62.89 799.76 62.98 799.76 63.08 L 799.76 65.7 C 799.76 65.8 799.8 65.89 799.87 65.96 C 799.94 66.03 800.04 66.07 800.14 66.07 L 804.16 66.07 C 804.26 66.07 804.35 66.03 804.42 65.96 C 804.49 65.89 804.53 65.8 804.53 65.7 L 804.53 63.08 C 804.53 62.98 804.49 62.89 804.42 62.82 C 804.35 62.75 804.26 62.71 804.16 62.71 L 803.68 62.71 L 803.68 62.25 C 803.68 61.84 803.47 61.47 803.21 61.2 C 802.94 60.92 802.61 60.7 802.2 60.7 Z M 802.2 61.45 C 802.29 61.45 802.5 61.54 802.67 61.72 C 802.83 61.89 802.93 62.11 802.93 62.25 L 802.93 62.71 L 801.39 62.71 L 801.39 62.25 C 801.39 62.15 801.49 61.91 801.66 61.74 C 801.83 61.56 802.06 61.45 802.2 61.45 Z M 800.51 63.46 L 803.78 63.46 L 803.78 65.32 L 800.51 65.32 Z M 790 75 L 790 50 L 815 50 L 815 75 Z" fill="#248814" stroke="none" pointer-events="all" style="fill: light-dark(rgb(36, 136, 20), rgb(85, 171, 71));"/></g><g><g><switch><foreignObject style="overflow: visible; text-align: left;" pointer-events="none" width="100%" height="100%" requiredFeatures="http://www.w3.org/TR/SVG11/feature#Extensibility"><div xmlns="http://www.w3.org/1999/xhtml" style="display: flex; align-items: unsafe flex-start; justify-content: unsafe flex-start; width: 158px; height: 1px; padding-top: 57px; margin-left: 822px;"><div style="box-sizing: border-box; font-size: 0; text-align: left; color: #232F3E; "><div style="display: inline-block; font-size: 11px; font-family: Helvetica; color: light-dark(#232F3E, #bdc7d4); line-height: 1.2; pointer-events: all; font-weight: bold; white-space: normal; word-wrap: normal; ">App VPC</div></div></div></foreignObject><text x="822" y="68" fill="#232F3E" font-family="Helvetica" font-size="11px" font-weight="bold">App VPC</text></switch></g></g></g><g data-cell-id="app"><g transform="translate(0.5,0.5)"><path d="M 850 140 L 900 140 L 900 190 L 850 190 Z" fill="#ffffff" stroke="none" pointer-events="all" style="fill: light-dark(rgb(255, 255, 255), rgb(18, 18, 18));"/><path d="M 865.71 174.29 L 883.57 174.29 L 883.57 156.43 L 865.71 156.43 Z M 885 156.43 L 887.86 156.43 L 887.86 157.86 L 885 157.86 L 885 160.71 L 887.86 160.71 L 887.86 162.14 L 885 162.14 L 885 164.29 L 887.86 164.29 L 887.86 165.71 L 885 165.71 L 885 168.57 L 887.86 168.57 L 887.86 170 L 885 170 L 885 172.86 L 887.86 172.86 L 887.86 174.29 L 885 174.29 L 885 174.38 C 885 175.12 884.4 175.71 883.67 175.71 L 883.57 175.71 L 883.57 178.57 L 882.14 178.57 L 882.14 175.71 L 879.29 175.71 L 879.29 178.57 L 877.86 178.57 L 877.86 175.71 L 875.71 175.71 L 875.71 178.57 L 874.29 178.57 L 874.29 175.71 L 871.43 175.71 L 871.43 178.57 L 870 178.57 L 870 175.71 L 867.14 175.71 L 867.14 178.57 L 865.71 178.57 L 865.71 175.71 L 865.62 175.71 C 864.88 175.71 864.29 175.12 864.29 174.38 L 864.29 174.29 L 862.14 174.29 L 862.14 172.86 L 864.29 172.86 L 864.29 170 L 862.14 170 L 862.14 168.57 L 864.29 168.57 L 864.29 165.71 L 862.14 165.71 L 862.14 164.29 L 864.29 164.29 L 864.29 162.14 L 862.14 162.14 L 862.14 160.71 L 864.29 160.71 L 864.29 157.86 L 862.14 157.86 L 862.14 156.43 L 864.29 156.43 L 864.29 156.33 C 864.29 155.6 864.88 155 865.62 155 L 865.71 155 L 865.71 152.14 L 867.14 152.14 L 867.14 155 L 870 155 L 870 152.14 L 871.43 152.14 L 871.43 155 L 874.29 155 L 874.29 152.14 L 875.71 152.14 L 875.71 155 L 877.86 155 L 877.86 152.14 L 879.29 152.14 L 879.29 155 L 882.14 155 L 882.14 152.14 L 883.57 152.14 L 883.57 155 L 883.67 155 C 884.4 155 885 155.6 885 156.33 Z M 875.71 183.48 C 875.71 183.53 875.67 183.57 875.63 183.57 L 856.52 183.57 C 856.47 183.57 856.43 183.53 856.43 183.48 L 856.43 164.37 C 856.43 164.33 856.47 164.29 856.52 164.29 L 860.71 164.29 L 860.71 162.86 L 856.52 162.86 C 855.68 162.86 855 163.54 855 164.37 L 855 183.48 C 855 184.32 855.68 185 856.52 185 L 875.63 185 C 876.46 185 877.14 184.32 877.14 183.48 L 877.14 180 L 875.71 180 Z M 895 146.52 L 895 165.63 C 895 166.46 894.32 167.14 893.48 167.14 L 889.29 167.14 L 889.29 165.71 L 893.48 165.71 C 893.53 165.71 893.57 165.67 893.57 165.63 L 893.57 146.52 C 893.57 146.47 893.53 146.43 893.48 146.43 L 874.37 146.43 C 874.33 146.43 874.29 146.47 874.29 146.52 L 874.29 150.71 L 872.86 150.71 L 872.86 146.52 C 872.86 145.68 873.54 145 874.37 145 L 893.48 145 C 894.32 145 895 145.68 895 146.52 Z" fill="#ffffff" stroke="none" pointer-events="all" style="fill: light-dark(rgb(255, 255, 255), rgb(18, 18, 18));"/></g></g><g data-cell-id="app_l"><g transform="translate(0.5,0.5)"><rect x="820" y="200" width="110" height="18" fill="none" stroke="none" pointer-events="all"/></g><g><g><switch><foreignObject style="overflow: visible; text-align: left;" pointer-events="none" width="100%" height="100%" requiredFeatures="http://www.w3.org/TR/SVG11/feature#Extensibility"><div xmlns="http://www.w3.org/1999/xhtml" style="display: flex; align-items: unsafe center; justify-content: unsafe center; width: 108px; height: 1px; padding-top: 209px; margin-left: 821px;"><div style="box-sizing: border-box; font-size: 0; text-align: center; color: #232F3E; "><div style="display: inline-block; font-size: 11px; font-family: Helvetica; color: light-dark(#232F3E, #bdc7d4); line-height: 1.2; pointer-events: all; font-weight: bold; white-space: normal; word-wrap: normal; ">App ASG</div></div></div></foreignObject><text x="875" y="212" fill="#232F3E" font-family="Helvetica" font-size="11px" text-anchor="middle" font-weight="bold">App ASG</text></switch></g></g></g><g data-cell-id="alb"><g transform="translate(0.5,0.5)"><path d="M 850 290 L 900 290 L 900 340 L 850 340 Z" fill="#8c4fff" stroke="none" pointer-events="all" style="fill: light-dark(rgb(140, 79, 255), rgb(177, 125, 255));"/><path d="M 867 325.4 C 861.27 325.4 856.6 320.73 856.6 315 C 856.6 309.27 861.27 304.6 867 304.6 C 872.73 304.6 877.4 309.27 877.4 315 C 877.4 320.73 872.73 325.4 867 325.4 M 891 330.2 C 891 331.96 889.56 333.4 887.8 333.4 C 886.04 333.4 884.6 331.96 884.6 330.2 C 884.6 328.44 886.04 327 887.8 327 C 889.56 327 891 328.44 891 330.2 M 887.8 296.6 C 889.56 296.6 891 298.04 891 299.8 C 891 301.56 889.56 303 887.8 303 C 886.04 303 884.6 301.56 884.6 299.8 C 884.6 298.04 886.04 296.6 887.8 296.6 M 890.2 311.8 C 891.96 311.8 893.4 313.24 893.4 315 C 893.4 316.76 891.96 318.2 890.2 318.2 C 888.44 318.2 887 316.76 887 315 C 887 313.24 888.44 311.8 890.2 311.8 M 878.96 315.8 L 885.47 315.8 C 885.85 318.07 887.83 319.8 890.2 319.8 C 892.85 319.8 895 317.65 895 315 C 895 312.35 892.85 310.2 890.2 310.2 C 887.83 310.2 885.85 311.93 885.47 314.2 L 878.96 314.2 C 878.86 312.68 878.48 311.24 877.86 309.92 L 884.96 303.66 C 885.75 304.25 886.74 304.6 887.8 304.6 C 890.45 304.6 892.6 302.45 892.6 299.8 C 892.6 297.15 890.45 295 887.8 295 C 885.15 295 883 297.15 883 299.8 C 883 300.8 883.31 301.74 883.84 302.51 L 877.06 308.49 C 874.92 305.19 871.22 303 867 303 C 860.38 303 855 308.38 855 315 C 855 321.62 860.38 327 867 327 C 871.22 327 874.92 324.81 877.06 321.51 L 883.84 327.49 C 883.31 328.26 883 329.2 883 330.2 C 883 332.85 885.15 335 887.8 335 C 890.45 335 892.6 332.85 892.6 330.2 C 892.6 327.55 890.45 325.4 887.8 325.4 C 886.74 325.4 885.75 325.75 884.96 326.34 L 877.86 320.08 C 878.48 318.76 878.86 317.32 878.96 315.8" fill="#ffffff" stroke="none" pointer-events="all" style="fill: light-dark(rgb(255, 255, 255), rgb(18, 18, 18));"/></g></g><g data-cell-id="alb_l"><g transform="translate(0.5,0.5)"><rect x="820" y="350" width="110" height="18" fill="none" stroke="none" pointer-events="all"/></g><g><g><switch><foreignObject style="overflow: visible; text-align: left;" pointer-events="none" width="100%" height="100%" requiredFeatures="http://www.w3.org/TR/SVG11/feature#Extensibility"><div xmlns="http://www.w3.org/1999/xhtml" style="display: flex; align-items: unsafe center; justify-content: unsafe center; width: 108px; height: 1px; padding-top: 359px; margin-left: 821px;"><div style="box-sizing: border-box; font-size: 0; text-align: center; color: #232F3E; "><div style="display: inline-block; font-size: 11px; font-family: Helvetica; color: light-dark(#232F3E, #bdc7d4); line-height: 1.2; pointer-events: all; font-weight: bold; white-space: normal; word-wrap: normal; ">ALB</div></div></div></foreignObject><text x="875" y="362" fill="#232F3E" font-family="Helvetica" font-size="11px" text-anchor="middle" font-weight="bold">ALB</text></switch></g></g></g><g data-cell-id="e1"><g transform="translate(0.5,0.5)"><path d="M 90 190 L 159.9 190" fill="none" stroke="#666" stroke-width="3" stroke-miterlimit="10" pointer-events="stroke" style="stroke: light-dark(rgb(102, 102, 102), rgb(0, 0, 0));"/><path d="M 166.65 190 L 157.65 194.5 L 159.9 190 L 157.65 185.5 Z" fill="#666" stroke="#666" stroke-width="3" stroke-miterlimit="10" pointer-events="all" style="fill: light-dark(rgb(102, 102, 102), rgb(0, 0, 0)); stroke: light-dark(rgb(102, 102, 102), rgb(0, 0, 0));"/></g></g><g data-cell-id="e2"><g transform="translate(0.5,0.5)"><path d="M 230 190 L 299.9 190" fill="none" stroke="#3b48cc" stroke-width="3" stroke-miterlimit="10" pointer-events="stroke" style="stroke: light-dark(rgb(59, 72, 204), rgb(152, 163, 255));"/><path d="M 306.65 190 L 297.65 194.5 L 299.9 190 L 297.65 185.5 Z" fill="#3b48cc" stroke="#3b48cc" stroke-width="3" stroke-miterlimit="10" pointer-events="all" style="fill: light-dark(rgb(59, 72, 204), rgb(152, 163, 255)); stroke: light-dark(rgb(59, 72, 204), rgb(152, 163, 255));"/></g><g><g><switch><foreignObject style="overflow: visible; text-align: left;" pointer-events="none" width="100%" height="100%" requiredFeatures="http://www.w3.org/TR/SVG11/feature#Extensibility"><div xmlns="http://www.w3.org/1999/xhtml" style="display: flex; align-items: unsafe center; justify-content: unsafe center; width: 1px; height: 1px; padding-top: 190px; margin-left: 270px;"><div style="box-sizing: border-box; font-size: 0; text-align: center; color: #232F3E; background-color: #ffffff; "><div style="display: inline-block; font-size: 10px; font-family: Helvetica; color: light-dark(#232F3E, #bdc7d4); line-height: 1.2; pointer-events: all; background-color: light-dark(#ffffff, var(--ge-dark-color, #121212)); white-space: nowrap; ">0.0.0.0/0</div></div></div></foreignObject><text x="270" y="193" fill="#232F3E" font-family="Helvetica" font-size="10px" text-anchor="middle">0.0.0.0/0</text></switch></g></g></g><g data-cell-id="e3"><g transform="translate(0.5,0.5)"><path d="M 370 182.8 L 550.17 139.56" fill="none" stroke="#8c4fff" stroke-width="3" stroke-miterlimit="10" pointer-events="stroke" style="stroke: light-dark(rgb(140, 79, 255), rgb(177, 125, 255));"/><path d="M 556.74 137.98 L 549.04 144.46 L 550.17 139.56 L 546.94 135.71 Z" fill="#8c4fff" stroke="#8c4fff" stroke-width="3" stroke-miterlimit="10" pointer-events="all" style="fill: light-dark(rgb(140, 79, 255), rgb(177, 125, 255)); stroke: light-dark(rgb(140, 79, 255), rgb(177, 125, 255));"/></g><g><g><switch><foreignObject style="overflow: visible; text-align: left;" pointer-events="none" width="100%" height="100%" requiredFeatures="http://www.w3.org/TR/SVG11/feature#Extensibility"><div xmlns="http://www.w3.org/1999/xhtml" style="display: flex; align-items: unsafe center; justify-content: unsafe center; width: 1px; height: 1px; padding-top: 160px; margin-left: 465px;"><div style="box-sizing: border-box; font-size: 0; text-align: center; color: #232F3E; background-color: #ffffff; "><div style="display: inline-block; font-size: 10px; font-family: Helvetica; color: light-dark(#232F3E, #bdc7d4); line-height: 1.2; pointer-events: all; background-color: light-dark(#ffffff, var(--ge-dark-color, #121212)); white-space: nowrap; ">GENEVE</div></div></div></foreignObject><text x="465" y="163" fill="#232F3E" font-family="Helvetica" font-size="10px" text-anchor="middle">GENEVE</text></switch></g></g></g><g data-cell-id="e4"><g><path d="M 576.8 160 L 549.32 222.46" fill="none" stroke="#dd344c" stroke-width="2" stroke-miterlimit="10" pointer-events="stroke" style="stroke: light-dark(rgb(221, 52, 76), rgb(255, 127, 147));"/><path d="M 546.9 227.95 L 546.46 219.02 L 549.32 222.46 L 553.78 222.24 Z" fill="#dd344c" stroke="#dd344c" stroke-width="2" stroke-miterlimit="10" pointer-events="all" style="fill: light-dark(rgb(221, 52, 76), rgb(255, 127, 147)); stroke: light-dark(rgb(221, 52, 76), rgb(255, 127, 147));"/></g></g><g data-cell-id="e5"><g><path d="M 610.4 160 L 653.37 223.19" fill="none" stroke="#dd344c" stroke-width="2" stroke-miterlimit="10" pointer-events="stroke" style="stroke: light-dark(rgb(221, 52, 76), rgb(255, 127, 147));"/><path d="M 656.74 228.15 L 648.94 223.78 L 653.37 223.19 L 655.55 219.29 Z" fill="#dd344c" stroke="#dd344c" stroke-width="2" stroke-miterlimit="10" pointer-events="all" style="fill: light-dark(rgb(221, 52, 76), rgb(255, 127, 147)); stroke: light-dark(rgb(221, 52, 76), rgb(255, 127, 147));"/></g></g><g data-cell-id="e6"><g><path d="M 546 230 L 573.48 167.54" fill="none" stroke="#dd344c" stroke-width="2" stroke-miterlimit="10" stroke-dasharray="6 6" pointer-events="stroke" style="stroke: light-dark(rgb(221, 52, 76), rgb(255, 127, 147));"/><path d="M 575.9 162.05 L 576.34 170.98 L 573.48 167.54 L 569.02 167.76 Z" fill="#dd344c" stroke="#dd344c" stroke-width="2" stroke-miterlimit="10" pointer-events="all" style="fill: light-dark(rgb(221, 52, 76), rgb(255, 127, 147)); stroke: light-dark(rgb(221, 52, 76), rgb(255, 127, 147));"/></g></g><g data-cell-id="e7"><g><path d="M 658 230 L 615.03 166.81" fill="none" stroke="#dd344c" stroke-width="2" stroke-miterlimit="10" stroke-dasharray="6 6" pointer-events="stroke" style="stroke: light-dark(rgb(221, 52, 76), rgb(255, 127, 147));"/><path d="M 611.66 161.85 L 619.46 166.22 L 615.03 166.81 L 612.85 170.71 Z" fill="#dd344c" stroke="#dd344c" stroke-width="2" stroke-miterlimit="10" pointer-events="all" style="fill: light-dark(rgb(221, 52, 76), rgb(255, 127, 147)); stroke: light-dark(rgb(221, 52, 76), rgb(255, 127, 147));"/></g></g><g data-cell-id="e8"><g transform="translate(0.5,0.5)"><path d="M 620 133.68 L 839.97 160.7" fill="none" stroke="#8c4fff" stroke-width="3" stroke-miterlimit="10" pointer-events="stroke" style="stroke: light-dark(rgb(140, 79, 255), rgb(177, 125, 255));"/><path d="M 846.67 161.52 L 837.19 164.89 L 839.97 160.7 L 838.29 155.96 Z" fill="#8c4fff" stroke="#8c4fff" stroke-width="3" stroke-miterlimit="10" pointer-events="all" style="fill: light-dark(rgb(140, 79, 255), rgb(177, 125, 255)); stroke: light-dark(rgb(140, 79, 255), rgb(177, 125, 255));"/></g></g><g data-cell-id="n1"><g transform="translate(0.5,0.5)"><rect x="20" y="460" width="960" height="115" rx="17.25" ry="17.25" fill="#ebf5e8" stroke="#7aa116" pointer-events="all" style="fill: light-dark(rgb(235, 245, 232), rgb(23, 32, 20)); stroke: light-dark(rgb(122, 161, 22), rgb(97, 130, 11));"/></g><g><g><switch><foreignObject style="overflow: visible; text-align: left;" pointer-events="none" width="100%" height="100%" requiredFeatures="http://www.w3.org/TR/SVG11/feature#Extensibility"><div xmlns="http://www.w3.org/1999/xhtml" style="display: flex; align-items: unsafe flex-start; justify-content: unsafe flex-start; width: 950px; height: 1px; padding-top: 471px; margin-left: 26px;"><div style="box-sizing: border-box; font-size: 0; text-align: left; color: #232F3E; "><div style="display: inline-block; font-size: 10px; font-family: Helvetica; color: light-dark(#232F3E, #bdc7d4); line-height: 1.2; pointer-events: all; white-space: normal; word-wrap: normal; ">◎ 正解 AD: 既存の独自セキュリティツールを EC2 ASG でデプロイ + 各 AZ に GWLB。GWLB Endpoint を経由してトラフィックを透過挿入。 ・L4/L7 LB の ALB/NLB では透過挿入できない (L3/L4 透過は GWLB 一択) ・GENEVE カプセル化で Source IP が保持される → ログの送信元 IP が正しく見える ・ASG で水平スケール + AZ 分散で HA 構成</div></div></div></foreignObject><text x="26" y="481" fill="#232F3E" font-family="Helvetica" font-size="10px">◎ 正解 AD: 既存の独自セキュリティツールを EC2 ASG でデプロイ + 各 AZ に GWLB。GWLB Endpoint を経由してトラフィックを透過挿入。 ・L4/L7 LB の ALB/NLB では透過挿入できない (L3/L4 透過は GWLB 一択) ・GENEVE カプセル化で Source IP が保持される → ログの送信元 IP が正しく見える ・ASG で水平スケール + AZ 分散で HA 構成</text></switch></g></g></g></g></g></g><switch><g requiredFeatures="http://www.w3.org/TR/SVG11/feature#Extensibility"/><a transform="translate(0,-5)" xlink:href="https://www.drawio.com/doc/faq/svg-export-text-problems" target="_blank"><text text-anchor="middle" font-size="10px" x="50%" y="100%">Text is not SVG - cannot display</text></a></switch></svg>