<?xml version="1.0" encoding="UTF-8"?>
<!DOCTYPE svg PUBLIC "-//W3C//DTD SVG 1.1//EN" "http://www.w3.org/Graphics/SVG/1.1/DTD/svg11.dtd">
<svg xmlns="http://www.w3.org/2000/svg" style="background: transparent; background-color: transparent; color-scheme: light;" xmlns:xlink="http://www.w3.org/1999/xlink" version="1.1" width="1001px" height="584px" viewBox="0 0 1001 584"><defs/><g><g data-cell-id="0"><g data-cell-id="1"><g data-cell-id="title"><g transform="translate(0.5,0.5)"><rect x="0" y="0" width="1000" height="28" fill="none" stroke="none" pointer-events="all"/></g><g><g><switch><foreignObject style="overflow: visible; text-align: left;" pointer-events="none" width="100%" height="100%" requiredFeatures="http://www.w3.org/TR/SVG11/feature#Extensibility"><div xmlns="http://www.w3.org/1999/xhtml" style="display: flex; align-items: unsafe center; justify-content: unsafe center; width: 998px; height: 1px; padding-top: 14px; margin-left: 1px;"><div style="box-sizing: border-box; font-size: 0; text-align: center; color: #232F3E; "><div style="display: inline-block; font-size: 16px; font-family: Helvetica; color: light-dark(#232F3E, #bdc7d4); line-height: 1.2; pointer-events: all; font-weight: bold; white-space: normal; word-wrap: normal; ">UDEMY-072 / Aurora Global Database 移行 (小売 eコマース)</div></div></div></foreignObject><text x="500" y="19" fill="#232F3E" font-family="Helvetica" font-size="16px" text-anchor="middle" font-weight="bold">UDEMY-072 / Aurora Global Database 移行 (小売 eコマース)</text></switch></g></g></g><g data-cell-id="rp"><g transform="translate(0.5,0.5)"><path d="M 20 52 L 480 52 L 480 482 L 20 482 Z" fill="none" stroke="#3b48cc" stroke-miterlimit="10" pointer-events="all" style="stroke: light-dark(rgb(59, 72, 204), rgb(152, 163, 255));"/><path d="M 28.06 55.47 C 27.47 55.47 27 55.95 27 56.53 C 27 56.99 27.3 57.39 27.71 57.53 L 27.71 72.82 L 25.95 72.82 L 25.95 73.57 L 30.16 73.57 L 30.16 72.82 L 28.46 72.82 L 28.46 64.75 L 39.84 64.75 L 37.19 61.59 L 39.83 58.36 L 28.46 58.36 L 28.46 57.51 C 28.85 57.35 29.12 56.97 29.12 56.53 C 29.12 55.95 28.64 55.47 28.06 55.47 Z M 28.06 56.22 C 28.23 56.22 28.37 56.35 28.37 56.53 C 28.37 56.71 28.23 56.84 28.06 56.84 C 27.88 56.84 27.75 56.71 27.75 56.53 C 27.75 56.35 27.88 56.22 28.06 56.22 Z M 28.46 59.11 L 38.25 59.11 L 36.22 61.6 L 38.23 64 L 28.46 64 Z M 20 77 L 20 52 L 45 52 L 45 77 Z" fill="#3b48cc" stroke="none" pointer-events="all" style="fill: light-dark(rgb(59, 72, 204), rgb(152, 163, 255));"/></g><g><g><switch><foreignObject style="overflow: visible; text-align: left;" pointer-events="none" width="100%" height="100%" requiredFeatures="http://www.w3.org/TR/SVG11/feature#Extensibility"><div xmlns="http://www.w3.org/1999/xhtml" style="display: flex; align-items: unsafe flex-start; justify-content: unsafe flex-start; width: 428px; height: 1px; padding-top: 59px; margin-left: 52px;"><div style="box-sizing: border-box; font-size: 0; text-align: left; color: #3B48CC; "><div style="display: inline-block; font-size: 11px; font-family: Helvetica; color: light-dark(#3B48CC, #98a3ff); line-height: 1.2; pointer-events: all; font-weight: bold; white-space: normal; word-wrap: normal; ">Primary Region (現行)</div></div></div></foreignObject><text x="52" y="70" fill="#3B48CC" font-family="Helvetica" font-size="11px" font-weight="bold">Primary Region (現行)</text></switch></g></g></g><g data-cell-id="app_p"><g transform="translate(0.5,0.5)"><path d="M 60 112 L 110 112 L 110 162 L 60 162 Z" fill="#ff9900" stroke="none" pointer-events="all" style="fill: light-dark(rgb(255, 153, 0), rgb(175, 87, 0));"/><path d="M 75.71 146.29 L 93.57 146.29 L 93.57 128.43 L 75.71 128.43 Z M 95 128.43 L 97.86 128.43 L 97.86 129.86 L 95 129.86 L 95 132.71 L 97.86 132.71 L 97.86 134.14 L 95 134.14 L 95 136.29 L 97.86 136.29 L 97.86 137.71 L 95 137.71 L 95 140.57 L 97.86 140.57 L 97.86 142 L 95 142 L 95 144.86 L 97.86 144.86 L 97.86 146.29 L 95 146.29 L 95 146.38 C 95 147.12 94.4 147.71 93.67 147.71 L 93.57 147.71 L 93.57 150.57 L 92.14 150.57 L 92.14 147.71 L 89.29 147.71 L 89.29 150.57 L 87.86 150.57 L 87.86 147.71 L 85.71 147.71 L 85.71 150.57 L 84.29 150.57 L 84.29 147.71 L 81.43 147.71 L 81.43 150.57 L 80 150.57 L 80 147.71 L 77.14 147.71 L 77.14 150.57 L 75.71 150.57 L 75.71 147.71 L 75.62 147.71 C 74.88 147.71 74.29 147.12 74.29 146.38 L 74.29 146.29 L 72.14 146.29 L 72.14 144.86 L 74.29 144.86 L 74.29 142 L 72.14 142 L 72.14 140.57 L 74.29 140.57 L 74.29 137.71 L 72.14 137.71 L 72.14 136.29 L 74.29 136.29 L 74.29 134.14 L 72.14 134.14 L 72.14 132.71 L 74.29 132.71 L 74.29 129.86 L 72.14 129.86 L 72.14 128.43 L 74.29 128.43 L 74.29 128.33 C 74.29 127.6 74.88 127 75.62 127 L 75.71 127 L 75.71 124.14 L 77.14 124.14 L 77.14 127 L 80 127 L 80 124.14 L 81.43 124.14 L 81.43 127 L 84.29 127 L 84.29 124.14 L 85.71 124.14 L 85.71 127 L 87.86 127 L 87.86 124.14 L 89.29 124.14 L 89.29 127 L 92.14 127 L 92.14 124.14 L 93.57 124.14 L 93.57 127 L 93.67 127 C 94.4 127 95 127.6 95 128.33 Z M 85.71 155.48 C 85.71 155.53 85.67 155.57 85.63 155.57 L 66.52 155.57 C 66.47 155.57 66.43 155.53 66.43 155.48 L 66.43 136.37 C 66.43 136.33 66.47 136.29 66.52 136.29 L 70.71 136.29 L 70.71 134.86 L 66.52 134.86 C 65.68 134.86 65 135.54 65 136.37 L 65 155.48 C 65 156.32 65.68 157 66.52 157 L 85.63 157 C 86.46 157 87.14 156.32 87.14 155.48 L 87.14 152 L 85.71 152 Z M 105 118.52 L 105 137.63 C 105 138.46 104.32 139.14 103.48 139.14 L 99.29 139.14 L 99.29 137.71 L 103.48 137.71 C 103.53 137.71 103.57 137.67 103.57 137.63 L 103.57 118.52 C 103.57 118.47 103.53 118.43 103.48 118.43 L 84.37 118.43 C 84.33 118.43 84.29 118.47 84.29 118.52 L 84.29 122.71 L 82.86 122.71 L 82.86 118.52 C 82.86 117.68 83.54 117 84.37 117 L 103.48 117 C 104.32 117 105 117.68 105 118.52 Z" fill="#ffffff" stroke="none" pointer-events="all" style="fill: light-dark(rgb(255, 255, 255), rgb(18, 18, 18));"/></g></g><g data-cell-id="app_p_l"><g transform="translate(0.5,0.5)"><rect x="20" y="170" width="130" height="28" fill="none" stroke="none" pointer-events="all"/></g><g><g><switch><foreignObject style="overflow: visible; text-align: left;" pointer-events="none" width="100%" height="100%" requiredFeatures="http://www.w3.org/TR/SVG11/feature#Extensibility"><div xmlns="http://www.w3.org/1999/xhtml" style="display: flex; align-items: unsafe center; justify-content: unsafe center; width: 128px; height: 1px; padding-top: 184px; margin-left: 21px;"><div style="box-sizing: border-box; font-size: 0; text-align: center; color: #232F3E; "><div style="display: inline-block; font-size: 9px; font-family: Helvetica; color: light-dark(#232F3E, #bdc7d4); line-height: 1.2; pointer-events: all; font-weight: bold; white-space: normal; word-wrap: normal; ">アプリ層 (書込)</div></div></div></foreignObject><text x="85" y="187" fill="#232F3E" font-family="Helvetica" font-size="9px" text-anchor="middle" font-weight="bold">アプリ層 (書込)</text></switch></g></g></g><g data-cell-id="aw_p"><g transform="translate(0.5,0.5)"><path d="M 200 112 L 250 112 L 250 162 L 200 162 Z" fill="#3b48cc" stroke="none" pointer-events="all" style="fill: light-dark(rgb(59, 72, 204), rgb(152, 163, 255));"/><path d="M 228.51 121.86 L 226.44 121.86 L 226.44 120.47 L 228.51 120.47 L 228.51 118.38 L 229.89 118.38 L 229.89 120.47 L 231.97 120.47 L 231.97 121.86 L 229.89 121.86 L 229.89 123.95 L 228.51 123.95 Z M 236.81 129.51 L 234.73 129.51 L 234.73 128.12 L 236.81 128.12 L 236.81 126.03 L 238.19 126.03 L 238.19 128.12 L 240.27 128.12 L 240.27 129.51 L 238.19 129.51 L 238.19 131.6 L 236.81 131.6 Z M 233.21 151.51 C 231.89 148.15 228.84 145.08 225.5 143.75 C 228.84 142.42 231.89 139.36 233.21 136 C 234.53 139.36 237.58 142.42 240.91 143.75 C 237.58 145.08 234.53 148.15 233.21 151.51 Z M 244.31 143.06 C 239.44 143.06 233.9 137.48 233.9 132.58 C 233.9 132.2 233.59 131.89 233.21 131.89 C 232.83 131.89 232.52 132.2 232.52 132.58 C 232.52 137.48 226.97 143.06 222.11 143.06 C 221.72 143.06 221.42 143.37 221.42 143.75 C 221.42 144.14 221.72 144.45 222.11 144.45 C 226.97 144.45 232.52 150.03 232.52 154.92 C 232.52 155.31 232.83 155.62 233.21 155.62 C 233.59 155.62 233.9 155.31 233.9 154.92 C 233.9 150.03 239.44 144.45 244.31 144.45 C 244.69 144.45 245 144.14 245 143.75 C 245 143.37 244.69 143.06 244.31 143.06 Z M 206.38 129.35 C 208.4 130.82 212.31 131.6 216.06 131.6 C 219.82 131.6 223.73 130.82 225.74 129.35 L 225.74 136.01 C 224.75 137.35 221.08 138.66 216.2 138.66 C 210.58 138.66 206.38 136.89 206.38 135.31 Z M 216.06 123.95 C 222.06 123.95 225.74 125.77 225.74 127.08 C 225.74 128.39 222.06 130.21 216.06 130.21 C 210.07 130.21 206.38 128.39 206.38 127.08 C 206.38 125.77 210.07 123.95 216.06 123.95 Z M 225.74 150.06 C 225.74 151.67 221.6 153.46 216.06 153.46 C 210.52 153.46 206.38 151.67 206.38 150.06 L 206.38 145.62 C 208.42 147.17 212.41 148 216.24 148 C 218.9 148 221.48 147.62 223.49 146.93 L 223.05 145.61 C 221.18 146.25 218.76 146.6 216.24 146.6 C 210.6 146.6 206.38 144.84 206.38 143.26 L 206.38 137.68 C 208.42 139.23 212.39 140.05 216.2 140.05 C 220.29 140.05 223.79 139.2 225.74 137.86 L 225.74 139.95 L 227.13 139.95 L 227.13 127.08 C 227.13 124.14 221.43 122.55 216.06 122.55 C 210.92 122.55 205.48 124.02 205.04 126.73 L 205 126.73 L 205 150.06 C 205 153.17 210.7 154.85 216.06 154.85 C 221.43 154.85 227.13 153.17 227.13 150.06 L 227.13 147.61 L 225.74 147.61 Z" fill="#ffffff" stroke="none" pointer-events="all" style="fill: light-dark(rgb(255, 255, 255), rgb(18, 18, 18));"/></g></g><g data-cell-id="aw_p_l"><g transform="translate(0.5,0.5)"><rect x="155" y="170" width="140" height="28" fill="none" stroke="none" pointer-events="all"/></g><g><g><switch><foreignObject style="overflow: visible; text-align: left;" pointer-events="none" width="100%" height="100%" requiredFeatures="http://www.w3.org/TR/SVG11/feature#Extensibility"><div xmlns="http://www.w3.org/1999/xhtml" style="display: flex; align-items: unsafe center; justify-content: unsafe center; width: 138px; height: 1px; padding-top: 184px; margin-left: 156px;"><div style="box-sizing: border-box; font-size: 0; text-align: center; color: #232F3E; "><div style="display: inline-block; font-size: 9px; font-family: Helvetica; color: light-dark(#232F3E, #bdc7d4); line-height: 1.2; pointer-events: all; font-weight: bold; white-space: normal; word-wrap: normal; ">Aurora MySQL<br />Writer</div></div></div></foreignObject><text x="225" y="187" fill="#232F3E" font-family="Helvetica" font-size="9px" text-anchor="middle" font-weight="bold">Aurora MySQL...</text></switch></g></g></g><g data-cell-id="ar_p"><g transform="translate(0.5,0.5)"><path d="M 350 112 L 400 112 L 400 162 L 350 162 Z" fill="#3b48cc" stroke="none" pointer-events="all" style="fill: light-dark(rgb(59, 72, 204), rgb(152, 163, 255));"/><path d="M 378.51 121.86 L 376.44 121.86 L 376.44 120.47 L 378.51 120.47 L 378.51 118.38 L 379.89 118.38 L 379.89 120.47 L 381.97 120.47 L 381.97 121.86 L 379.89 121.86 L 379.89 123.95 L 378.51 123.95 Z M 386.81 129.51 L 384.73 129.51 L 384.73 128.12 L 386.81 128.12 L 386.81 126.03 L 388.19 126.03 L 388.19 128.12 L 390.27 128.12 L 390.27 129.51 L 388.19 129.51 L 388.19 131.6 L 386.81 131.6 Z M 383.21 151.51 C 381.89 148.15 378.84 145.08 375.5 143.75 C 378.84 142.42 381.89 139.36 383.21 136 C 384.53 139.36 387.58 142.42 390.91 143.75 C 387.58 145.08 384.53 148.15 383.21 151.51 Z M 394.31 143.06 C 389.44 143.06 383.9 137.48 383.9 132.58 C 383.9 132.2 383.59 131.89 383.21 131.89 C 382.83 131.89 382.52 132.2 382.52 132.58 C 382.52 137.48 376.97 143.06 372.11 143.06 C 371.72 143.06 371.42 143.37 371.42 143.75 C 371.42 144.14 371.72 144.45 372.11 144.45 C 376.97 144.45 382.52 150.03 382.52 154.92 C 382.52 155.31 382.83 155.62 383.21 155.62 C 383.59 155.62 383.9 155.31 383.9 154.92 C 383.9 150.03 389.44 144.45 394.31 144.45 C 394.69 144.45 395 144.14 395 143.75 C 395 143.37 394.69 143.06 394.31 143.06 Z M 356.38 129.35 C 358.4 130.82 362.31 131.6 366.06 131.6 C 369.82 131.6 373.73 130.82 375.74 129.35 L 375.74 136.01 C 374.75 137.35 371.08 138.66 366.2 138.66 C 360.58 138.66 356.38 136.89 356.38 135.31 Z M 366.06 123.95 C 372.06 123.95 375.74 125.77 375.74 127.08 C 375.74 128.39 372.06 130.21 366.06 130.21 C 360.07 130.21 356.38 128.39 356.38 127.08 C 356.38 125.77 360.07 123.95 366.06 123.95 Z M 375.74 150.06 C 375.74 151.67 371.6 153.46 366.06 153.46 C 360.52 153.46 356.38 151.67 356.38 150.06 L 356.38 145.62 C 358.42 147.17 362.41 148 366.24 148 C 368.9 148 371.48 147.62 373.49 146.93 L 373.05 145.61 C 371.18 146.25 368.76 146.6 366.24 146.6 C 360.6 146.6 356.38 144.84 356.38 143.26 L 356.38 137.68 C 358.42 139.23 362.39 140.05 366.2 140.05 C 370.29 140.05 373.79 139.2 375.74 137.86 L 375.74 139.95 L 377.13 139.95 L 377.13 127.08 C 377.13 124.14 371.43 122.55 366.06 122.55 C 360.92 122.55 355.48 124.02 355.04 126.73 L 355 126.73 L 355 150.06 C 355 153.17 360.7 154.85 366.06 154.85 C 371.43 154.85 377.13 153.17 377.13 150.06 L 377.13 147.61 L 375.74 147.61 Z" fill="#ffffff" stroke="none" pointer-events="all" style="fill: light-dark(rgb(255, 255, 255), rgb(18, 18, 18));"/></g></g><g data-cell-id="ar_p_l"><g transform="translate(0.5,0.5)"><rect x="315" y="170" width="120" height="28" fill="none" stroke="none" pointer-events="all"/></g><g><g><switch><foreignObject style="overflow: visible; text-align: left;" pointer-events="none" width="100%" height="100%" requiredFeatures="http://www.w3.org/TR/SVG11/feature#Extensibility"><div xmlns="http://www.w3.org/1999/xhtml" style="display: flex; align-items: unsafe center; justify-content: unsafe center; width: 118px; height: 1px; padding-top: 184px; margin-left: 316px;"><div style="box-sizing: border-box; font-size: 0; text-align: center; color: #232F3E; "><div style="display: inline-block; font-size: 9px; font-family: Helvetica; color: light-dark(#232F3E, #bdc7d4); line-height: 1.2; pointer-events: all; white-space: normal; word-wrap: normal; ">Aurora<br />Reader×4</div></div></div></foreignObject><text x="375" y="187" fill="#232F3E" font-family="Helvetica" font-size="9px" text-anchor="middle">Aurora...</text></switch></g></g></g><g data-cell-id="p1"><g><path d="M 110 137 L 191.76 137" fill="none" stroke="#3b48cc" stroke-width="2" stroke-miterlimit="10" pointer-events="stroke" style="stroke: light-dark(rgb(59, 72, 204), rgb(152, 163, 255));"/><path d="M 197.76 137 L 189.76 141 L 191.76 137 L 189.76 133 Z" fill="#3b48cc" stroke="#3b48cc" stroke-width="2" stroke-miterlimit="10" pointer-events="all" style="fill: light-dark(rgb(59, 72, 204), rgb(152, 163, 255)); stroke: light-dark(rgb(59, 72, 204), rgb(152, 163, 255));"/></g></g><g data-cell-id="p2"><g transform="translate(0.5,0.5)"><path d="M 250 137 L 343.63 137" fill="none" stroke="#3b48cc" stroke-miterlimit="10" stroke-dasharray="3 3" pointer-events="stroke" style="stroke: light-dark(rgb(59, 72, 204), rgb(152, 163, 255));"/><path d="M 348.88 137 L 341.88 140.5 L 343.63 137 L 341.88 133.5 Z" fill="#3b48cc" stroke="#3b48cc" stroke-miterlimit="10" pointer-events="all" style="fill: light-dark(rgb(59, 72, 204), rgb(152, 163, 255)); stroke: light-dark(rgb(59, 72, 204), rgb(152, 163, 255));"/></g></g><g data-cell-id="pn"><g transform="translate(0.5,0.5)"><rect x="40" y="242" width="430" height="230" fill="none" stroke="none" pointer-events="all"/></g><g><g><switch><foreignObject style="overflow: visible; text-align: left;" pointer-events="none" width="100%" height="100%" requiredFeatures="http://www.w3.org/TR/SVG11/feature#Extensibility"><div xmlns="http://www.w3.org/1999/xhtml" style="display: flex; align-items: unsafe flex-start; justify-content: unsafe flex-start; width: 428px; height: 1px; padding-top: 249px; margin-left: 42px;"><div style="box-sizing: border-box; font-size: 0; text-align: left; color: #3B48CC; "><div style="display: inline-block; font-size: 10px; font-family: Helvetica; color: light-dark(#3B48CC, #98a3ff); line-height: 1.2; pointer-events: all; white-space: normal; word-wrap: normal; ">【要件】<br />・顧客プロフィール/注文履歴/在庫<br />・5ノードAurora MySQLクラスタ<br />・グローバル顧客<br />・地域別低レイテンシ読取<br /><br />【改善】Aurora Global Database 化<br /> → Secondary リージョンで 読取/DR</div></div></div></foreignObject><text x="42" y="259" fill="#3B48CC" font-family="Helvetica" font-size="10px">【要件】・顧客プロフィール/注文履歴/在庫...</text></switch></g></g></g><g data-cell-id="rs"><g transform="translate(0.5,0.5)"><path d="M 520 52 L 980 52 L 980 482 L 520 482 Z" fill="none" stroke="#7aa116" stroke-miterlimit="10" pointer-events="all" style="stroke: light-dark(rgb(122, 161, 22), rgb(97, 130, 11));"/><path d="M 528.06 55.47 C 527.47 55.47 527 55.95 527 56.53 C 527 56.99 527.3 57.39 527.71 57.53 L 527.71 72.82 L 525.95 72.82 L 525.95 73.57 L 530.16 73.57 L 530.16 72.82 L 528.46 72.82 L 528.46 64.75 L 539.84 64.75 L 537.19 61.59 L 539.83 58.36 L 528.46 58.36 L 528.46 57.51 C 528.85 57.35 529.12 56.97 529.12 56.53 C 529.12 55.95 528.64 55.47 528.06 55.47 Z M 528.06 56.22 C 528.23 56.22 528.37 56.35 528.37 56.53 C 528.37 56.71 528.23 56.84 528.06 56.84 C 527.88 56.84 527.75 56.71 527.75 56.53 C 527.75 56.35 527.88 56.22 528.06 56.22 Z M 528.46 59.11 L 538.25 59.11 L 536.22 61.6 L 538.23 64 L 528.46 64 Z M 520 77 L 520 52 L 545 52 L 545 77 Z" fill="#7aa116" stroke="none" pointer-events="all" style="fill: light-dark(rgb(122, 161, 22), rgb(97, 130, 11));"/></g><g><g><switch><foreignObject style="overflow: visible; text-align: left;" pointer-events="none" width="100%" height="100%" requiredFeatures="http://www.w3.org/TR/SVG11/feature#Extensibility"><div xmlns="http://www.w3.org/1999/xhtml" style="display: flex; align-items: unsafe flex-start; justify-content: unsafe flex-start; width: 428px; height: 1px; padding-top: 59px; margin-left: 552px;"><div style="box-sizing: border-box; font-size: 0; text-align: left; color: #7AA116; "><div style="display: inline-block; font-size: 11px; font-family: Helvetica; color: light-dark(#7AA116, #61820b); line-height: 1.2; pointer-events: all; font-weight: bold; white-space: normal; word-wrap: normal; ">Secondary Region</div></div></div></foreignObject><text x="552" y="70" fill="#7AA116" font-family="Helvetica" font-size="11px" font-weight="bold">Secondary Region</text></switch></g></g></g><g data-cell-id="app_s"><g transform="translate(0.5,0.5)"><path d="M 560 112 L 610 112 L 610 162 L 560 162 Z" fill="#ff9900" stroke="none" pointer-events="all" style="fill: light-dark(rgb(255, 153, 0), rgb(175, 87, 0));"/><path d="M 575.71 146.29 L 593.57 146.29 L 593.57 128.43 L 575.71 128.43 Z M 595 128.43 L 597.86 128.43 L 597.86 129.86 L 595 129.86 L 595 132.71 L 597.86 132.71 L 597.86 134.14 L 595 134.14 L 595 136.29 L 597.86 136.29 L 597.86 137.71 L 595 137.71 L 595 140.57 L 597.86 140.57 L 597.86 142 L 595 142 L 595 144.86 L 597.86 144.86 L 597.86 146.29 L 595 146.29 L 595 146.38 C 595 147.12 594.4 147.71 593.67 147.71 L 593.57 147.71 L 593.57 150.57 L 592.14 150.57 L 592.14 147.71 L 589.29 147.71 L 589.29 150.57 L 587.86 150.57 L 587.86 147.71 L 585.71 147.71 L 585.71 150.57 L 584.29 150.57 L 584.29 147.71 L 581.43 147.71 L 581.43 150.57 L 580 150.57 L 580 147.71 L 577.14 147.71 L 577.14 150.57 L 575.71 150.57 L 575.71 147.71 L 575.62 147.71 C 574.88 147.71 574.29 147.12 574.29 146.38 L 574.29 146.29 L 572.14 146.29 L 572.14 144.86 L 574.29 144.86 L 574.29 142 L 572.14 142 L 572.14 140.57 L 574.29 140.57 L 574.29 137.71 L 572.14 137.71 L 572.14 136.29 L 574.29 136.29 L 574.29 134.14 L 572.14 134.14 L 572.14 132.71 L 574.29 132.71 L 574.29 129.86 L 572.14 129.86 L 572.14 128.43 L 574.29 128.43 L 574.29 128.33 C 574.29 127.6 574.88 127 575.62 127 L 575.71 127 L 575.71 124.14 L 577.14 124.14 L 577.14 127 L 580 127 L 580 124.14 L 581.43 124.14 L 581.43 127 L 584.29 127 L 584.29 124.14 L 585.71 124.14 L 585.71 127 L 587.86 127 L 587.86 124.14 L 589.29 124.14 L 589.29 127 L 592.14 127 L 592.14 124.14 L 593.57 124.14 L 593.57 127 L 593.67 127 C 594.4 127 595 127.6 595 128.33 Z M 585.71 155.48 C 585.71 155.53 585.67 155.57 585.63 155.57 L 566.52 155.57 C 566.47 155.57 566.43 155.53 566.43 155.48 L 566.43 136.37 C 566.43 136.33 566.47 136.29 566.52 136.29 L 570.71 136.29 L 570.71 134.86 L 566.52 134.86 C 565.68 134.86 565 135.54 565 136.37 L 565 155.48 C 565 156.32 565.68 157 566.52 157 L 585.63 157 C 586.46 157 587.14 156.32 587.14 155.48 L 587.14 152 L 585.71 152 Z M 605 118.52 L 605 137.63 C 605 138.46 604.32 139.14 603.48 139.14 L 599.29 139.14 L 599.29 137.71 L 603.48 137.71 C 603.53 137.71 603.57 137.67 603.57 137.63 L 603.57 118.52 C 603.57 118.47 603.53 118.43 603.48 118.43 L 584.37 118.43 C 584.33 118.43 584.29 118.47 584.29 118.52 L 584.29 122.71 L 582.86 122.71 L 582.86 118.52 C 582.86 117.68 583.54 117 584.37 117 L 603.48 117 C 604.32 117 605 117.68 605 118.52 Z" fill="#ffffff" stroke="none" pointer-events="all" style="fill: light-dark(rgb(255, 255, 255), rgb(18, 18, 18));"/></g></g><g data-cell-id="app_s_l"><g transform="translate(0.5,0.5)"><rect x="520" y="170" width="130" height="28" fill="none" stroke="none" pointer-events="all"/></g><g><g><switch><foreignObject style="overflow: visible; text-align: left;" pointer-events="none" width="100%" height="100%" requiredFeatures="http://www.w3.org/TR/SVG11/feature#Extensibility"><div xmlns="http://www.w3.org/1999/xhtml" style="display: flex; align-items: unsafe center; justify-content: unsafe center; width: 128px; height: 1px; padding-top: 184px; margin-left: 521px;"><div style="box-sizing: border-box; font-size: 0; text-align: center; color: #232F3E; "><div style="display: inline-block; font-size: 9px; font-family: Helvetica; color: light-dark(#232F3E, #bdc7d4); line-height: 1.2; pointer-events: all; font-weight: bold; white-space: normal; word-wrap: normal; ">アプリ (読取)</div></div></div></foreignObject><text x="585" y="187" fill="#232F3E" font-family="Helvetica" font-size="9px" text-anchor="middle" font-weight="bold">アプリ (読取)</text></switch></g></g></g><g data-cell-id="aw_s"><g transform="translate(0.5,0.5)"><path d="M 700 112 L 750 112 L 750 162 L 700 162 Z" fill="#3b48cc" stroke="none" pointer-events="all" style="fill: light-dark(rgb(59, 72, 204), rgb(152, 163, 255));"/><path d="M 728.51 121.86 L 726.44 121.86 L 726.44 120.47 L 728.51 120.47 L 728.51 118.38 L 729.89 118.38 L 729.89 120.47 L 731.97 120.47 L 731.97 121.86 L 729.89 121.86 L 729.89 123.95 L 728.51 123.95 Z M 736.81 129.51 L 734.73 129.51 L 734.73 128.12 L 736.81 128.12 L 736.81 126.03 L 738.19 126.03 L 738.19 128.12 L 740.27 128.12 L 740.27 129.51 L 738.19 129.51 L 738.19 131.6 L 736.81 131.6 Z M 733.21 151.51 C 731.89 148.15 728.84 145.08 725.5 143.75 C 728.84 142.42 731.89 139.36 733.21 136 C 734.53 139.36 737.58 142.42 740.91 143.75 C 737.58 145.08 734.53 148.15 733.21 151.51 Z M 744.31 143.06 C 739.44 143.06 733.9 137.48 733.9 132.58 C 733.9 132.2 733.59 131.89 733.21 131.89 C 732.83 131.89 732.52 132.2 732.52 132.58 C 732.52 137.48 726.97 143.06 722.11 143.06 C 721.72 143.06 721.42 143.37 721.42 143.75 C 721.42 144.14 721.72 144.45 722.11 144.45 C 726.97 144.45 732.52 150.03 732.52 154.92 C 732.52 155.31 732.83 155.62 733.21 155.62 C 733.59 155.62 733.9 155.31 733.9 154.92 C 733.9 150.03 739.44 144.45 744.31 144.45 C 744.69 144.45 745 144.14 745 143.75 C 745 143.37 744.69 143.06 744.31 143.06 Z M 706.38 129.35 C 708.4 130.82 712.31 131.6 716.06 131.6 C 719.82 131.6 723.73 130.82 725.74 129.35 L 725.74 136.01 C 724.75 137.35 721.08 138.66 716.2 138.66 C 710.58 138.66 706.38 136.89 706.38 135.31 Z M 716.06 123.95 C 722.06 123.95 725.74 125.77 725.74 127.08 C 725.74 128.39 722.06 130.21 716.06 130.21 C 710.07 130.21 706.38 128.39 706.38 127.08 C 706.38 125.77 710.07 123.95 716.06 123.95 Z M 725.74 150.06 C 725.74 151.67 721.6 153.46 716.06 153.46 C 710.52 153.46 706.38 151.67 706.38 150.06 L 706.38 145.62 C 708.42 147.17 712.41 148 716.24 148 C 718.9 148 721.48 147.62 723.49 146.93 L 723.05 145.61 C 721.18 146.25 718.76 146.6 716.24 146.6 C 710.6 146.6 706.38 144.84 706.38 143.26 L 706.38 137.68 C 708.42 139.23 712.39 140.05 716.2 140.05 C 720.29 140.05 723.79 139.2 725.74 137.86 L 725.74 139.95 L 727.13 139.95 L 727.13 127.08 C 727.13 124.14 721.43 122.55 716.06 122.55 C 710.92 122.55 705.48 124.02 705.04 126.73 L 705 126.73 L 705 150.06 C 705 153.17 710.7 154.85 716.06 154.85 C 721.43 154.85 727.13 153.17 727.13 150.06 L 727.13 147.61 L 725.74 147.61 Z" fill="#ffffff" stroke="none" pointer-events="all" style="fill: light-dark(rgb(255, 255, 255), rgb(18, 18, 18));"/></g></g><g data-cell-id="aw_s_l"><g transform="translate(0.5,0.5)"><rect x="645" y="170" width="160" height="28" fill="none" stroke="none" pointer-events="all"/></g><g><g><switch><foreignObject style="overflow: visible; text-align: left;" pointer-events="none" width="100%" height="100%" requiredFeatures="http://www.w3.org/TR/SVG11/feature#Extensibility"><div xmlns="http://www.w3.org/1999/xhtml" style="display: flex; align-items: unsafe center; justify-content: unsafe center; width: 158px; height: 1px; padding-top: 184px; margin-left: 646px;"><div style="box-sizing: border-box; font-size: 0; text-align: center; color: #232F3E; "><div style="display: inline-block; font-size: 9px; font-family: Helvetica; color: light-dark(#232F3E, #bdc7d4); line-height: 1.2; pointer-events: all; font-weight: bold; white-space: normal; word-wrap: normal; ">Aurora Global<br />Secondary Reader</div></div></div></foreignObject><text x="725" y="187" fill="#232F3E" font-family="Helvetica" font-size="9px" text-anchor="middle" font-weight="bold">Aurora Global...</text></switch></g></g></g><g data-cell-id="ar_s"><g transform="translate(0.5,0.5)"><path d="M 870 112 L 920 112 L 920 162 L 870 162 Z" fill="#3b48cc" stroke="none" pointer-events="all" style="fill: light-dark(rgb(59, 72, 204), rgb(152, 163, 255));"/><path d="M 898.51 121.86 L 896.44 121.86 L 896.44 120.47 L 898.51 120.47 L 898.51 118.38 L 899.89 118.38 L 899.89 120.47 L 901.97 120.47 L 901.97 121.86 L 899.89 121.86 L 899.89 123.95 L 898.51 123.95 Z M 906.81 129.51 L 904.73 129.51 L 904.73 128.12 L 906.81 128.12 L 906.81 126.03 L 908.19 126.03 L 908.19 128.12 L 910.27 128.12 L 910.27 129.51 L 908.19 129.51 L 908.19 131.6 L 906.81 131.6 Z M 903.21 151.51 C 901.89 148.15 898.84 145.08 895.5 143.75 C 898.84 142.42 901.89 139.36 903.21 136 C 904.53 139.36 907.58 142.42 910.91 143.75 C 907.58 145.08 904.53 148.15 903.21 151.51 Z M 914.31 143.06 C 909.44 143.06 903.9 137.48 903.9 132.58 C 903.9 132.2 903.59 131.89 903.21 131.89 C 902.83 131.89 902.52 132.2 902.52 132.58 C 902.52 137.48 896.97 143.06 892.11 143.06 C 891.72 143.06 891.42 143.37 891.42 143.75 C 891.42 144.14 891.72 144.45 892.11 144.45 C 896.97 144.45 902.52 150.03 902.52 154.92 C 902.52 155.31 902.83 155.62 903.21 155.62 C 903.59 155.62 903.9 155.31 903.9 154.92 C 903.9 150.03 909.44 144.45 914.31 144.45 C 914.69 144.45 915 144.14 915 143.75 C 915 143.37 914.69 143.06 914.31 143.06 Z M 876.38 129.35 C 878.4 130.82 882.31 131.6 886.06 131.6 C 889.82 131.6 893.73 130.82 895.74 129.35 L 895.74 136.01 C 894.75 137.35 891.08 138.66 886.2 138.66 C 880.58 138.66 876.38 136.89 876.38 135.31 Z M 886.06 123.95 C 892.06 123.95 895.74 125.77 895.74 127.08 C 895.74 128.39 892.06 130.21 886.06 130.21 C 880.07 130.21 876.38 128.39 876.38 127.08 C 876.38 125.77 880.07 123.95 886.06 123.95 Z M 895.74 150.06 C 895.74 151.67 891.6 153.46 886.06 153.46 C 880.52 153.46 876.38 151.67 876.38 150.06 L 876.38 145.62 C 878.42 147.17 882.41 148 886.24 148 C 888.9 148 891.48 147.62 893.49 146.93 L 893.05 145.61 C 891.18 146.25 888.76 146.6 886.24 146.6 C 880.6 146.6 876.38 144.84 876.38 143.26 L 876.38 137.68 C 878.42 139.23 882.39 140.05 886.2 140.05 C 890.29 140.05 893.79 139.2 895.74 137.86 L 895.74 139.95 L 897.13 139.95 L 897.13 127.08 C 897.13 124.14 891.43 122.55 886.06 122.55 C 880.92 122.55 875.48 124.02 875.04 126.73 L 875 126.73 L 875 150.06 C 875 153.17 880.7 154.85 886.06 154.85 C 891.43 154.85 897.13 153.17 897.13 150.06 L 897.13 147.61 L 895.74 147.61 Z" fill="#ffffff" stroke="none" pointer-events="all" style="fill: light-dark(rgb(255, 255, 255), rgb(18, 18, 18));"/></g></g><g data-cell-id="ar_s_l"><g transform="translate(0.5,0.5)"><rect x="840" y="170" width="110" height="28" fill="none" stroke="none" pointer-events="all"/></g><g><g><switch><foreignObject style="overflow: visible; text-align: left;" pointer-events="none" width="100%" height="100%" requiredFeatures="http://www.w3.org/TR/SVG11/feature#Extensibility"><div xmlns="http://www.w3.org/1999/xhtml" style="display: flex; align-items: unsafe center; justify-content: unsafe center; width: 108px; height: 1px; padding-top: 184px; margin-left: 841px;"><div style="box-sizing: border-box; font-size: 0; text-align: center; color: #232F3E; "><div style="display: inline-block; font-size: 9px; font-family: Helvetica; color: light-dark(#232F3E, #bdc7d4); line-height: 1.2; pointer-events: all; white-space: normal; word-wrap: normal; ">ローカル<br />Reader</div></div></div></foreignObject><text x="895" y="187" fill="#232F3E" font-family="Helvetica" font-size="9px" text-anchor="middle">ローカル&#xa;Reader</text></switch></g></g></g><g data-cell-id="s1"><g><path d="M 610 137 L 691.76 137" fill="none" stroke="#7aa116" stroke-width="2" stroke-miterlimit="10" pointer-events="stroke" style="stroke: light-dark(rgb(122, 161, 22), rgb(97, 130, 11));"/><path d="M 697.76 137 L 689.76 141 L 691.76 137 L 689.76 133 Z" fill="#7aa116" stroke="#7aa116" stroke-width="2" stroke-miterlimit="10" pointer-events="all" style="fill: light-dark(rgb(122, 161, 22), rgb(97, 130, 11)); stroke: light-dark(rgb(122, 161, 22), rgb(97, 130, 11));"/></g><g data-cell-id="s1_l"><g><g><switch><foreignObject style="overflow: visible; text-align: left;" pointer-events="none" width="100%" height="100%" requiredFeatures="http://www.w3.org/TR/SVG11/feature#Extensibility"><div xmlns="http://www.w3.org/1999/xhtml" style="display: flex; align-items: unsafe center; justify-content: unsafe center; width: 1px; height: 1px; padding-top: 138px; margin-left: 654px;"><div style="box-sizing: border-box; font-size: 0; text-align: center; color: #7AA116; background-color: #FFFFFF; "><div style="display: inline-block; font-size: 9px; font-family: Helvetica; color: light-dark(#7AA116, #61820b); line-height: 1.2; pointer-events: all; background-color: light-dark(#FFFFFF, #121212); white-space: nowrap; ">ローカル読取</div></div></div></foreignObject><text x="654" y="140" fill="#7AA116" font-family="Helvetica" font-size="9px" text-anchor="middle">ローカル読取</text></switch></g></g></g></g><g data-cell-id="s2"><g transform="translate(0.5,0.5)"><path d="M 750 137 L 863.63 137" fill="none" stroke="#7aa116" stroke-miterlimit="10" stroke-dasharray="3 3" pointer-events="stroke" style="stroke: light-dark(rgb(122, 161, 22), rgb(97, 130, 11));"/><path d="M 868.88 137 L 861.88 140.5 L 863.63 137 L 861.88 133.5 Z" fill="#7aa116" stroke="#7aa116" stroke-miterlimit="10" pointer-events="all" style="fill: light-dark(rgb(122, 161, 22), rgb(97, 130, 11)); stroke: light-dark(rgb(122, 161, 22), rgb(97, 130, 11));"/></g></g><g data-cell-id="sn"><g transform="translate(0.5,0.5)"><rect x="540" y="242" width="430" height="230" fill="none" stroke="none" pointer-events="all"/></g><g><g><switch><foreignObject style="overflow: visible; text-align: left;" pointer-events="none" width="100%" height="100%" requiredFeatures="http://www.w3.org/TR/SVG11/feature#Extensibility"><div xmlns="http://www.w3.org/1999/xhtml" style="display: flex; align-items: unsafe flex-start; justify-content: unsafe flex-start; width: 428px; height: 1px; padding-top: 249px; margin-left: 542px;"><div style="box-sizing: border-box; font-size: 0; text-align: left; color: #7AA116; "><div style="display: inline-block; font-size: 10px; font-family: Helvetica; color: light-dark(#7AA116, #61820b); line-height: 1.2; pointer-events: all; white-space: normal; word-wrap: normal; ">【ポイント】<br />・物理ストレージレプリ、RPO &lt;1秒<br />・書込は Primary のみ(Write Forwarding可)<br />・障害時 Managed Failover で Promote<br />　(RTO &lt;1分)<br /><br />→ 低レイテンシ読取＋クロスリージョンDR 両立</div></div></div></foreignObject><text x="542" y="259" fill="#7AA116" font-family="Helvetica" font-size="10px">【ポイント】・物理ストレージレプリ、RPO &lt;1秒...</text></switch></g></g></g><g data-cell-id="rep"><g><path d="M 250 137 L 688.03 137" fill="none" stroke="#e7157b" stroke-width="4" stroke-miterlimit="10" pointer-events="stroke" style="stroke: light-dark(rgb(231, 21, 123), rgb(255, 129, 217));"/><path d="M 695.53 137 L 685.53 142 L 688.03 137 L 685.53 132 Z" fill="#e7157b" stroke="#e7157b" stroke-width="4" stroke-miterlimit="10" pointer-events="all" style="fill: light-dark(rgb(231, 21, 123), rgb(255, 129, 217)); stroke: light-dark(rgb(231, 21, 123), rgb(255, 129, 217));"/></g><g data-cell-id="rep_l"><g><g><switch><foreignObject style="overflow: visible; text-align: left;" pointer-events="none" width="100%" height="100%" requiredFeatures="http://www.w3.org/TR/SVG11/feature#Extensibility"><div xmlns="http://www.w3.org/1999/xhtml" style="display: flex; align-items: unsafe center; justify-content: unsafe center; width: 1px; height: 1px; padding-top: 138px; margin-left: 465px;"><div style="box-sizing: border-box; font-size: 0; text-align: center; color: #E7157B; background-color: #FFFFFF; "><div style="display: inline-block; font-size: 9px; font-family: Helvetica; color: light-dark(#E7157B, #ff81d9); line-height: 1.2; pointer-events: all; background-color: light-dark(#FFFFFF, #121212); white-space: nowrap; ">Aurora物理レプリ &lt;1秒</div></div></div></foreignObject><text x="465" y="140" fill="#E7157B" font-family="Helvetica" font-size="9px" text-anchor="middle">Aurora物理レプリ &lt;1秒</text></switch></g></g></g></g><g data-cell-id="cmp"><g transform="translate(0.5,0.5)"><rect x="20" y="492" width="960" height="90" rx="13.5" ry="13.5" fill="#fffde7" stroke="#ff9900" pointer-events="all" style="fill: light-dark(rgb(255, 253, 231), rgb(24, 22, 4)); stroke: light-dark(rgb(255, 153, 0), rgb(175, 87, 0));"/></g><g><g><switch><foreignObject style="overflow: visible; text-align: left;" pointer-events="none" width="100%" height="100%" requiredFeatures="http://www.w3.org/TR/SVG11/feature#Extensibility"><div xmlns="http://www.w3.org/1999/xhtml" style="display: flex; align-items: unsafe flex-start; justify-content: unsafe flex-start; width: 942px; height: 1px; padding-top: 505px; margin-left: 30px;"><div style="box-sizing: border-box; font-size: 0; text-align: left; color: #232F3E; "><div style="display: inline-block; font-size: 10px; font-family: Helvetica; color: light-dark(#232F3E, #bdc7d4); line-height: 1.2; pointer-events: all; white-space: normal; word-wrap: normal; ">💡 Aurora Global Database の特徴<br />・Primary 1 + Secondary 最大5リージョン／読取Endpointで低レイテンシ<br />・RPO &lt;1秒 / RTO &lt;1分 (Managed Failover)<br />・Write Forwarding (Aurora MySQLのみ) — SecondaryからPrimaryへ書込転送</div></div></div></foreignObject><text x="30" y="515" fill="#232F3E" font-family="Helvetica" font-size="10px">💡 Aurora Global Database の特徴...</text></switch></g></g></g></g></g></g><switch><g requiredFeatures="http://www.w3.org/TR/SVG11/feature#Extensibility"/><a transform="translate(0,-5)" xlink:href="https://www.drawio.com/doc/faq/svg-export-text-problems" target="_blank"><text text-anchor="middle" font-size="10px" x="50%" y="100%">Text is not SVG - cannot display</text></a></switch></svg>