<?xml version="1.0" encoding="UTF-8"?>
<!DOCTYPE svg PUBLIC "-//W3C//DTD SVG 1.1//EN" "http://www.w3.org/Graphics/SVG/1.1/DTD/svg11.dtd">
<svg xmlns="http://www.w3.org/2000/svg" style="background: transparent; background-color: transparent; color-scheme: light;" xmlns:xlink="http://www.w3.org/1999/xlink" version="1.1" width="961px" height="562px" viewBox="0 0 961 562"><defs/><g><g data-cell-id="0"><g data-cell-id="1"><g data-cell-id="title"><g transform="translate(0.5,0.5)"><rect x="0" y="0" width="960" height="30" fill="none" stroke="none" pointer-events="all"/></g><g><g><switch><foreignObject style="overflow: visible; text-align: left;" pointer-events="none" width="100%" height="100%" requiredFeatures="http://www.w3.org/TR/SVG11/feature#Extensibility"><div xmlns="http://www.w3.org/1999/xhtml" style="display: flex; align-items: unsafe center; justify-content: unsafe center; width: 958px; height: 1px; padding-top: 15px; margin-left: 1px;"><div style="box-sizing: border-box; font-size: 0; text-align: center; color: #232F3E; "><div style="display: inline-block; font-size: 14px; font-family: Helvetica; color: light-dark(#232F3E, #bdc7d4); line-height: 1.2; pointer-events: all; font-weight: bold; white-space: normal; word-wrap: normal; ">[Q494] Webhook受信: API GW HTTP API + Lambda 個別関数</div></div></div></foreignObject><text x="480" y="19" fill="#232F3E" font-family="Helvetica" font-size="14px" text-anchor="middle" font-weight="bold">[Q494] Webhook受信: API GW HTTP API + Lambda 個別関数</text></switch></g></g></g><g data-cell-id="src"><g><rect x="20" y="90" width="200" height="200" rx="30" ry="30" fill="#ffffff" stroke="#3b48cc" stroke-width="2" pointer-events="all" style="fill: light-dark(rgb(255, 255, 255), rgb(18, 18, 18)); stroke: light-dark(rgb(59, 72, 204), rgb(152, 163, 255));"/></g><g><g><switch><foreignObject style="overflow: visible; text-align: left;" pointer-events="none" width="100%" height="100%" requiredFeatures="http://www.w3.org/TR/SVG11/feature#Extensibility"><div xmlns="http://www.w3.org/1999/xhtml" style="display: flex; align-items: unsafe flex-start; justify-content: unsafe center; width: 198px; height: 1px; padding-top: 105px; margin-left: 21px;"><div style="box-sizing: border-box; font-size: 0; text-align: center; color: #3B48CC; "><div style="display: inline-block; font-size: 12px; font-family: Helvetica; color: light-dark(#3B48CC, #98a3ff); line-height: 1.2; pointer-events: all; font-weight: bold; white-space: normal; word-wrap: normal; ">オンプレミス Git サーバー</div></div></div></foreignObject><text x="120" y="117" fill="#3B48CC" font-family="Helvetica" font-size="12px" text-anchor="middle" font-weight="bold">オンプレミス Git サーバー</text></switch></g></g></g><g data-cell-id="srcn"><g transform="translate(0.5,0.5)"><rect x="40" y="130" width="160" height="140" fill="none" stroke="none" pointer-events="all"/></g><g><g><switch><foreignObject style="overflow: visible; text-align: left;" pointer-events="none" width="100%" height="100%" requiredFeatures="http://www.w3.org/TR/SVG11/feature#Extensibility"><div xmlns="http://www.w3.org/1999/xhtml" style="display: flex; align-items: unsafe flex-start; justify-content: unsafe flex-start; width: 158px; height: 1px; padding-top: 137px; margin-left: 42px;"><div style="box-sizing: border-box; font-size: 0; text-align: left; color: #232F3E; "><div style="display: inline-block; font-size: 10px; font-family: Helvetica; color: light-dark(#232F3E, #bdc7d4); line-height: 1.2; pointer-events: all; white-space: normal; word-wrap: normal; ">Webhook 発火:<br />• push<br />• pull_request<br />• issues<br />• release<br /><br />HTTPS POST</div></div></div></foreignObject><text x="42" y="147" fill="#232F3E" font-family="Helvetica" font-size="10px">Webhook 発火:...</text></switch></g></g></g><g data-cell-id="apigw_320_150"><g transform="translate(0.5,0.5)"><path d="M 300 140 L 350 140 L 350 190 L 300 190 Z" fill="#ff9900" stroke="none" pointer-events="all" style="fill: light-dark(rgb(255, 153, 0), rgb(175, 87, 0));"/><path d="M 320.76 176.17 L 322.86 176.17 L 322.86 174.73 L 320.76 174.73 Z M 324.29 176.17 L 326.43 176.17 L 326.43 174.73 L 324.29 174.73 Z M 315.72 146.91 L 306.45 151.52 L 306.45 180.14 L 315.72 183.28 Z M 317.15 156.02 L 317.15 174.73 L 319.29 174.73 L 319.29 176.17 L 317.15 176.17 L 317.15 184.28 C 317.15 184.51 317.04 184.73 316.85 184.87 C 316.73 184.95 316.58 185 316.44 185 C 316.36 185 316.28 184.99 316.21 184.96 L 305.5 181.34 C 305.21 181.24 305.02 180.97 305.02 180.66 L 305.02 151.07 C 305.02 150.8 305.17 150.54 305.42 150.42 L 316.12 145.11 C 316.34 145 316.6 145.01 316.81 145.14 C 317.02 145.28 317.15 145.51 317.15 145.76 L 317.15 154.58 L 319.29 154.58 L 319.29 156.02 Z M 327.85 176.17 L 330 176.17 L 330 174.73 L 327.85 174.73 Z M 327.9 156.02 L 330 156.02 L 330 154.58 L 327.9 154.58 Z M 324.33 156.02 L 326.43 156.02 L 326.43 154.58 L 324.33 154.58 Z M 320.76 156.02 L 322.86 156.02 L 322.86 154.58 L 320.76 154.58 Z M 343.55 151.52 L 334.28 146.91 L 334.28 183.28 L 343.55 180.14 Z M 344.98 180.66 C 344.98 180.97 344.79 181.24 344.5 181.34 L 333.79 184.96 C 333.72 184.99 333.64 185 333.56 185 C 333.42 185 333.27 184.95 333.15 184.87 C 332.96 184.73 332.85 184.51 332.85 184.28 L 332.85 176.17 L 331.47 176.17 L 331.47 174.73 L 332.85 174.73 L 332.85 156.02 L 331.47 156.02 L 331.47 154.58 L 332.85 154.58 L 332.85 145.76 C 332.85 145.51 332.98 145.28 333.19 145.14 C 333.4 145.01 333.66 145 333.88 145.11 L 344.58 150.42 C 344.83 150.54 344.98 150.8 344.98 151.07 Z M 327.09 160.6 L 325.76 160.08 L 322.19 169.44 L 323.53 169.95 Z M 331.93 165.17 C 332.21 164.89 332.21 164.43 331.93 164.15 L 329.07 161.27 L 328.06 162.29 L 330.41 164.66 L 328.06 167.03 L 329.07 168.05 Z M 320.93 168.05 L 318.07 165.17 C 317.79 164.89 317.79 164.43 318.07 164.15 L 320.93 161.27 L 321.94 162.29 L 319.59 164.66 L 321.94 167.03 Z" fill="#ffffff" stroke="none" pointer-events="all" style="fill: light-dark(rgb(255, 255, 255), rgb(18, 18, 18));"/></g></g><g data-cell-id="lbl_apigw_320_150"><g transform="translate(0.5,0.5)"><rect x="280" y="198" width="90" height="20" fill="none" stroke="none" pointer-events="all"/></g><g><g><switch><foreignObject style="overflow: visible; text-align: left;" pointer-events="none" width="100%" height="100%" requiredFeatures="http://www.w3.org/TR/SVG11/feature#Extensibility"><div xmlns="http://www.w3.org/1999/xhtml" style="display: flex; align-items: unsafe center; justify-content: unsafe center; width: 88px; height: 1px; padding-top: 208px; margin-left: 281px;"><div style="box-sizing: border-box; font-size: 0; text-align: center; color: #232F3E; "><div style="display: inline-block; font-size: 10px; font-family: Helvetica; color: light-dark(#232F3E, #bdc7d4); line-height: 1.2; pointer-events: all; white-space: normal; word-wrap: normal; ">API Gateway HTTP API</div></div></div></foreignObject><text x="325" y="211" fill="#232F3E" font-family="Helvetica" font-size="10px" text-anchor="middle">API Gateway HTTP A...</text></switch></g></g></g><g data-cell-id="apin"><g transform="translate(0.5,0.5)"><rect x="270" y="210" width="130" height="60" fill="none" stroke="none" pointer-events="all"/></g><g><g><switch><foreignObject style="overflow: visible; text-align: left;" pointer-events="none" width="100%" height="100%" requiredFeatures="http://www.w3.org/TR/SVG11/feature#Extensibility"><div xmlns="http://www.w3.org/1999/xhtml" style="display: flex; align-items: unsafe flex-start; justify-content: unsafe flex-start; width: 128px; height: 1px; padding-top: 217px; margin-left: 272px;"><div style="box-sizing: border-box; font-size: 0; text-align: left; color: #E7157B; "><div style="display: inline-block; font-size: 9px; font-family: Helvetica; color: light-dark(#E7157B, #ff81d9); line-height: 1.2; pointer-events: all; white-space: normal; word-wrap: normal; ">HTTP API:<br />• 低レイテンシ<br />• 低コスト<br />• REST より高速</div></div></div></foreignObject><text x="272" y="226" fill="#E7157B" font-family="Helvetica" font-size="9px">HTTP API:...</text></switch></g></g></g><g data-cell-id="l1_540_100"><g transform="translate(0.5,0.5)"><path d="M 520 90 L 570 90 L 570 140 L 520 140 Z" fill="#ff9900" stroke="none" pointer-events="all" style="fill: light-dark(rgb(255, 153, 0), rgb(175, 87, 0));"/><path d="M 536.45 133.57 L 527.58 133.57 L 537.39 113.07 L 541.84 122.22 Z M 538.03 111.11 C 537.91 110.86 537.66 110.71 537.39 110.71 L 537.39 110.71 C 537.11 110.71 536.86 110.86 536.74 111.11 L 525.8 133.98 C 525.7 134.2 525.71 134.46 525.84 134.67 C 525.97 134.87 526.2 135 526.45 135 L 536.9 135 C 537.18 135 537.43 134.84 537.55 134.59 L 543.28 122.52 C 543.37 122.32 543.37 122.1 543.27 121.9 Z M 562.87 133.57 L 554.06 133.57 L 539.92 103.98 C 539.8 103.73 539.55 103.57 539.28 103.57 L 533.51 103.57 L 533.52 96.43 L 544.82 96.43 L 558.89 126.02 C 559.01 126.27 559.26 126.43 559.54 126.43 L 562.87 126.43 Z M 563.59 125 L 559.99 125 L 545.92 95.41 C 545.8 95.16 545.55 95 545.27 95 L 532.8 95 C 532.41 95 532.09 95.32 532.09 95.71 L 532.08 104.28 C 532.08 104.47 532.15 104.66 532.29 104.79 C 532.42 104.92 532.6 105 532.79 105 L 538.83 105 L 552.96 134.59 C 553.08 134.84 553.33 135 553.61 135 L 563.59 135 C 563.98 135 564.3 134.68 564.3 134.29 L 564.3 125.71 C 564.3 125.32 563.98 125 563.59 125 Z" fill="#ffffff" stroke="none" pointer-events="all" style="fill: light-dark(rgb(255, 255, 255), rgb(18, 18, 18));"/></g></g><g data-cell-id="lbl_l1_540_100"><g transform="translate(0.5,0.5)"><rect x="500" y="148" width="90" height="20" fill="none" stroke="none" pointer-events="all"/></g><g><g><switch><foreignObject style="overflow: visible; text-align: left;" pointer-events="none" width="100%" height="100%" requiredFeatures="http://www.w3.org/TR/SVG11/feature#Extensibility"><div xmlns="http://www.w3.org/1999/xhtml" style="display: flex; align-items: unsafe center; justify-content: unsafe center; width: 88px; height: 1px; padding-top: 158px; margin-left: 501px;"><div style="box-sizing: border-box; font-size: 0; text-align: center; color: #232F3E; "><div style="display: inline-block; font-size: 10px; font-family: Helvetica; color: light-dark(#232F3E, #bdc7d4); line-height: 1.2; pointer-events: all; white-space: normal; word-wrap: normal; ">Lambda /push</div></div></div></foreignObject><text x="545" y="161" fill="#232F3E" font-family="Helvetica" font-size="10px" text-anchor="middle">Lambda /push</text></switch></g></g></g><g data-cell-id="l2_540_200"><g transform="translate(0.5,0.5)"><path d="M 520 190 L 570 190 L 570 240 L 520 240 Z" fill="#ff9900" stroke="none" pointer-events="all" style="fill: light-dark(rgb(255, 153, 0), rgb(175, 87, 0));"/><path d="M 536.45 233.57 L 527.58 233.57 L 537.39 213.07 L 541.84 222.22 Z M 538.03 211.11 C 537.91 210.86 537.66 210.71 537.39 210.71 L 537.39 210.71 C 537.11 210.71 536.86 210.87 536.74 211.11 L 525.8 233.98 C 525.7 234.2 525.71 234.46 525.84 234.67 C 525.97 234.87 526.2 235 526.45 235 L 536.9 235 C 537.18 235 537.43 234.84 537.55 234.59 L 543.28 222.52 C 543.37 222.32 543.37 222.1 543.27 221.9 Z M 562.87 233.57 L 554.06 233.57 L 539.92 203.98 C 539.8 203.73 539.55 203.57 539.28 203.57 L 533.51 203.57 L 533.52 196.43 L 544.82 196.43 L 558.89 226.02 C 559.01 226.27 559.26 226.43 559.54 226.43 L 562.87 226.43 Z M 563.59 225 L 559.99 225 L 545.92 195.41 C 545.8 195.16 545.55 195 545.27 195 L 532.8 195 C 532.41 195 532.09 195.32 532.09 195.71 L 532.08 204.28 C 532.08 204.47 532.15 204.66 532.29 204.79 C 532.42 204.93 532.6 205 532.79 205 L 538.83 205 L 552.96 234.59 C 553.08 234.84 553.33 235 553.61 235 L 563.59 235 C 563.98 235 564.3 234.68 564.3 234.29 L 564.3 225.71 C 564.3 225.32 563.98 225 563.59 225 Z" fill="#ffffff" stroke="none" pointer-events="all" style="fill: light-dark(rgb(255, 255, 255), rgb(18, 18, 18));"/></g></g><g data-cell-id="lbl_l2_540_200"><g transform="translate(0.5,0.5)"><rect x="500" y="248" width="90" height="20" fill="none" stroke="none" pointer-events="all"/></g><g><g><switch><foreignObject style="overflow: visible; text-align: left;" pointer-events="none" width="100%" height="100%" requiredFeatures="http://www.w3.org/TR/SVG11/feature#Extensibility"><div xmlns="http://www.w3.org/1999/xhtml" style="display: flex; align-items: unsafe center; justify-content: unsafe center; width: 88px; height: 1px; padding-top: 258px; margin-left: 501px;"><div style="box-sizing: border-box; font-size: 0; text-align: center; color: #232F3E; "><div style="display: inline-block; font-size: 10px; font-family: Helvetica; color: light-dark(#232F3E, #bdc7d4); line-height: 1.2; pointer-events: all; white-space: normal; word-wrap: normal; ">Lambda /pr</div></div></div></foreignObject><text x="545" y="261" fill="#232F3E" font-family="Helvetica" font-size="10px" text-anchor="middle">Lambda /pr</text></switch></g></g></g><g data-cell-id="l3_540_300"><g transform="translate(0.5,0.5)"><path d="M 520 290 L 570 290 L 570 340 L 520 340 Z" fill="#ff9900" stroke="none" pointer-events="all" style="fill: light-dark(rgb(255, 153, 0), rgb(175, 87, 0));"/><path d="M 536.45 333.57 L 527.58 333.57 L 537.39 313.07 L 541.84 322.22 Z M 538.03 311.11 C 537.91 310.86 537.66 310.71 537.39 310.71 L 537.39 310.71 C 537.11 310.71 536.86 310.87 536.74 311.11 L 525.8 333.98 C 525.7 334.2 525.71 334.46 525.84 334.67 C 525.97 334.87 526.2 335 526.45 335 L 536.9 335 C 537.18 335 537.43 334.84 537.55 334.59 L 543.28 322.52 C 543.37 322.32 543.37 322.1 543.27 321.9 Z M 562.87 333.57 L 554.06 333.57 L 539.92 303.98 C 539.8 303.73 539.55 303.57 539.28 303.57 L 533.51 303.57 L 533.52 296.43 L 544.82 296.43 L 558.89 326.02 C 559.01 326.27 559.26 326.43 559.54 326.43 L 562.87 326.43 Z M 563.59 325 L 559.99 325 L 545.92 295.41 C 545.8 295.16 545.55 295 545.27 295 L 532.8 295 C 532.41 295 532.09 295.32 532.09 295.71 L 532.08 304.29 C 532.08 304.48 532.15 304.66 532.29 304.79 C 532.42 304.93 532.6 305 532.79 305 L 538.83 305 L 552.96 334.59 C 553.08 334.84 553.33 335 553.61 335 L 563.59 335 C 563.98 335 564.3 334.68 564.3 334.29 L 564.3 325.71 C 564.3 325.32 563.98 325 563.59 325 Z" fill="#ffffff" stroke="none" pointer-events="all" style="fill: light-dark(rgb(255, 255, 255), rgb(18, 18, 18));"/></g></g><g data-cell-id="lbl_l3_540_300"><g transform="translate(0.5,0.5)"><rect x="500" y="348" width="90" height="20" fill="none" stroke="none" pointer-events="all"/></g><g><g><switch><foreignObject style="overflow: visible; text-align: left;" pointer-events="none" width="100%" height="100%" requiredFeatures="http://www.w3.org/TR/SVG11/feature#Extensibility"><div xmlns="http://www.w3.org/1999/xhtml" style="display: flex; align-items: unsafe center; justify-content: unsafe center; width: 88px; height: 1px; padding-top: 358px; margin-left: 501px;"><div style="box-sizing: border-box; font-size: 0; text-align: center; color: #232F3E; "><div style="display: inline-block; font-size: 10px; font-family: Helvetica; color: light-dark(#232F3E, #bdc7d4); line-height: 1.2; pointer-events: all; white-space: normal; word-wrap: normal; ">Lambda /release</div></div></div></foreignObject><text x="545" y="361" fill="#232F3E" font-family="Helvetica" font-size="10px" text-anchor="middle">Lambda /release</text></switch></g></g></g><g data-cell-id="ddb_780_200"><g transform="translate(0.5,0.5)"><path d="M 760 190 L 810 190 L 810 240 L 760 240 Z" fill="#ff9900" stroke="none" pointer-events="all" style="fill: light-dark(rgb(255, 153, 0), rgb(175, 87, 0));"/><path d="M 793.61 225.61 C 791.22 227.53 786.22 228.55 781.43 228.55 C 776.65 228.55 771.64 227.53 769.26 225.61 L 769.26 229.49 L 769.26 229.49 C 769.26 231.43 774.26 233.58 781.43 233.58 C 788.6 233.58 793.6 231.43 793.61 229.49 Z M 793.61 218.23 L 795.03 218.22 L 795.03 218.23 C 795.03 219.09 794.6 219.9 793.76 220.64 C 794.78 221.53 795.03 222.41 795.03 223.04 C 795.03 223.05 795.03 223.05 795.03 223.05 L 795.03 229.49 L 795.03 229.49 C 795.03 233.07 788.03 235 781.43 235 C 774.85 235 767.87 233.08 767.83 229.51 C 767.83 229.51 767.83 229.51 767.83 229.5 L 767.83 223.04 C 767.83 223.04 767.83 223.04 767.83 223.03 C 767.83 222.41 768.09 221.53 769.11 220.63 C 768.09 219.74 767.84 218.87 767.83 218.25 L 767.83 218.25 C 767.83 218.24 767.83 218.24 767.83 218.24 L 767.83 211.77 C 767.83 211.77 767.83 211.77 767.83 211.77 C 767.83 211.14 768.09 210.26 769.11 209.37 C 768.09 208.47 767.84 207.6 767.83 206.98 L 767.83 206.98 C 767.83 206.98 767.83 206.97 767.83 206.97 L 767.83 200.51 C 767.83 200.51 767.83 200.5 767.83 200.5 C 767.84 196.93 774.84 195 781.43 195 C 785.15 195 788.73 195.59 791.24 196.62 L 790.7 197.93 C 788.35 196.97 784.97 196.42 781.43 196.42 C 774.26 196.42 769.26 198.57 769.26 200.51 C 769.26 202.45 774.26 204.61 781.43 204.61 C 781.63 204.61 781.82 204.61 782.01 204.6 L 782.07 206.02 C 781.86 206.02 781.64 206.02 781.43 206.02 C 776.65 206.02 771.64 205 769.26 203.08 L 769.26 206.96 L 769.26 206.96 L 769.26 206.97 C 769.27 207.72 770.03 208.37 770.67 208.78 C 772.59 210 776.03 210.84 779.87 211.01 L 779.81 212.43 C 775.92 212.25 772.51 211.44 770.32 210.21 C 769.78 210.61 769.26 211.16 769.26 211.78 C 769.26 213.71 774.26 215.87 781.43 215.87 C 782.14 215.87 782.83 215.85 783.51 215.8 L 783.61 217.22 C 782.9 217.26 782.17 217.29 781.43 217.29 C 776.65 217.29 771.64 216.27 769.26 214.34 L 769.26 218.22 L 769.26 218.22 C 769.27 218.98 770.03 219.63 770.67 220.04 C 772.86 221.44 776.99 222.32 781.43 222.32 L 781.75 222.32 L 781.75 223.74 L 781.43 223.74 C 776.92 223.74 772.82 222.9 770.31 221.48 C 769.77 221.88 769.26 222.43 769.26 223.04 C 769.26 224.98 774.26 227.14 781.43 227.14 C 788.6 227.14 793.6 224.98 793.61 223.05 L 793.61 223.04 L 793.61 223.04 C 793.6 222.42 793.09 221.88 792.55 221.48 C 792.2 221.67 791.83 221.86 791.4 222.04 L 790.86 220.73 C 791.38 220.52 791.83 220.29 792.19 220.04 C 792.84 219.62 793.61 218.97 793.61 218.23 Z M 799.72 207.87 L 795.72 207.87 C 795.49 207.87 795.26 207.75 795.13 207.56 C 795 207.36 794.97 207.12 795.06 206.9 L 797.49 200.81 L 788.27 200.81 L 783.99 209.31 L 788.54 209.31 C 788.77 209.31 788.99 209.42 789.12 209.6 C 789.26 209.79 789.29 210.02 789.23 210.24 L 785.16 222.92 Z M 801.92 207.65 L 784.06 226.1 C 783.92 226.24 783.73 226.32 783.54 226.32 C 783.42 226.32 783.29 226.28 783.18 226.22 C 782.89 226.05 782.76 225.71 782.86 225.39 L 787.57 210.73 L 782.83 210.73 C 782.58 210.73 782.35 210.6 782.22 210.4 C 782.09 210.19 782.08 209.93 782.19 209.71 L 787.19 199.79 C 787.31 199.55 787.56 199.4 787.83 199.4 L 798.54 199.4 C 798.78 199.4 799 199.51 799.14 199.71 C 799.27 199.9 799.3 200.15 799.21 200.37 L 796.77 206.45 L 801.4 206.45 C 801.69 206.45 801.95 206.62 802.06 206.88 C 802.17 207.14 802.11 207.45 801.92 207.65 Z M 770.3 229.77 C 771.31 230.34 772.58 230.82 774.08 231.19 L 774.43 229.82 C 773.08 229.48 771.89 229.04 771 228.54 Z M 774.08 219.86 L 774.43 218.48 C 773.08 218.14 771.89 217.7 771 217.2 L 770.3 218.43 C 771.31 219 772.58 219.48 774.08 219.86 Z M 770.3 207.1 L 771 205.87 C 771.89 206.37 773.08 206.81 774.43 207.15 L 774.08 208.52 C 772.58 208.15 771.31 207.67 770.3 207.1 Z" fill="#ffffff" stroke="none" pointer-events="all" style="fill: light-dark(rgb(255, 255, 255), rgb(18, 18, 18));"/></g></g><g data-cell-id="lbl_ddb_780_200"><g transform="translate(0.5,0.5)"><rect x="740" y="248" width="90" height="20" fill="none" stroke="none" pointer-events="all"/></g><g><g><switch><foreignObject style="overflow: visible; text-align: left;" pointer-events="none" width="100%" height="100%" requiredFeatures="http://www.w3.org/TR/SVG11/feature#Extensibility"><div xmlns="http://www.w3.org/1999/xhtml" style="display: flex; align-items: unsafe center; justify-content: unsafe center; width: 88px; height: 1px; padding-top: 258px; margin-left: 741px;"><div style="box-sizing: border-box; font-size: 0; text-align: center; color: #232F3E; "><div style="display: inline-block; font-size: 10px; font-family: Helvetica; color: light-dark(#232F3E, #bdc7d4); line-height: 1.2; pointer-events: all; white-space: normal; word-wrap: normal; ">DynamoDB イベント記録</div></div></div></foreignObject><text x="785" y="261" fill="#232F3E" font-family="Helvetica" font-size="10px" text-anchor="middle">DynamoDB イベント記録</text></switch></g></g></g><g data-cell-id="a0"><g><path d="M 220 170 L 291.76 170" fill="none" stroke="#666666" stroke-width="2" stroke-miterlimit="10" pointer-events="stroke" style="stroke: light-dark(rgb(102, 102, 102), rgb(149, 149, 149));"/><path d="M 297.76 170 L 289.76 174 L 291.76 170 L 289.76 166 Z" fill="#666666" stroke="#666666" stroke-width="2" stroke-miterlimit="10" pointer-events="all" style="fill: light-dark(rgb(102, 102, 102), rgb(149, 149, 149)); stroke: light-dark(rgb(102, 102, 102), rgb(149, 149, 149));"/></g><g><g><switch><foreignObject style="overflow: visible; text-align: left;" pointer-events="none" width="100%" height="100%" requiredFeatures="http://www.w3.org/TR/SVG11/feature#Extensibility"><div xmlns="http://www.w3.org/1999/xhtml" style="display: flex; align-items: unsafe center; justify-content: unsafe center; width: 1px; height: 1px; padding-top: 170px; margin-left: 260px;"><div style="box-sizing: border-box; font-size: 0; text-align: center; color: #666666; background-color: #ffffff; "><div style="display: inline-block; font-size: 10px; font-family: Helvetica; color: light-dark(#666666, #959595); line-height: 1.2; pointer-events: all; background-color: light-dark(#ffffff, var(--ge-dark-color, #121212)); white-space: nowrap; ">webhook</div></div></div></foreignObject><text x="260" y="173" fill="#666666" font-family="Helvetica" font-size="10px" text-anchor="middle">webhook</text></switch></g></g></g><g data-cell-id="a1"><g><path d="M 350 170 L 512.1 122.32" fill="none" stroke="#666666" stroke-width="2" stroke-miterlimit="10" stroke-dasharray="6 6" pointer-events="stroke" style="stroke: light-dark(rgb(102, 102, 102), rgb(149, 149, 149));"/><path d="M 517.85 120.63 L 511.31 126.73 L 512.1 122.32 L 509.05 119.05 Z" fill="#666666" stroke="#666666" stroke-width="2" stroke-miterlimit="10" pointer-events="all" style="fill: light-dark(rgb(102, 102, 102), rgb(149, 149, 149)); stroke: light-dark(rgb(102, 102, 102), rgb(149, 149, 149));"/></g><g><g><switch><foreignObject style="overflow: visible; text-align: left;" pointer-events="none" width="100%" height="100%" requiredFeatures="http://www.w3.org/TR/SVG11/feature#Extensibility"><div xmlns="http://www.w3.org/1999/xhtml" style="display: flex; align-items: unsafe center; justify-content: unsafe center; width: 1px; height: 1px; padding-top: 145px; margin-left: 435px;"><div style="box-sizing: border-box; font-size: 0; text-align: center; color: #666666; background-color: #ffffff; "><div style="display: inline-block; font-size: 10px; font-family: Helvetica; color: light-dark(#666666, #959595); line-height: 1.2; pointer-events: all; background-color: light-dark(#ffffff, var(--ge-dark-color, #121212)); white-space: nowrap; ">route /push</div></div></div></foreignObject><text x="435" y="148" fill="#666666" font-family="Helvetica" font-size="10px" text-anchor="middle">route /push</text></switch></g></g></g><g data-cell-id="a2"><g><path d="M 350 170 L 512.1 217.68" fill="none" stroke="#666666" stroke-width="2" stroke-miterlimit="10" pointer-events="stroke" style="stroke: light-dark(rgb(102, 102, 102), rgb(149, 149, 149));"/><path d="M 517.85 219.37 L 509.05 220.95 L 512.1 217.68 L 511.31 213.27 Z" fill="#666666" stroke="#666666" stroke-width="2" stroke-miterlimit="10" pointer-events="all" style="fill: light-dark(rgb(102, 102, 102), rgb(149, 149, 149)); stroke: light-dark(rgb(102, 102, 102), rgb(149, 149, 149));"/></g></g><g data-cell-id="a3"><g><path d="M 350 170 L 513.82 314.55" fill="none" stroke="#666666" stroke-width="2" stroke-miterlimit="10" stroke-dasharray="6 6" pointer-events="stroke" style="stroke: light-dark(rgb(102, 102, 102), rgb(149, 149, 149));"/><path d="M 518.32 318.52 L 509.68 316.23 L 513.82 314.55 L 514.97 310.23 Z" fill="#666666" stroke="#666666" stroke-width="2" stroke-miterlimit="10" pointer-events="all" style="fill: light-dark(rgb(102, 102, 102), rgb(149, 149, 149)); stroke: light-dark(rgb(102, 102, 102), rgb(149, 149, 149));"/></g></g><g data-cell-id="a4"><g><path d="M 570 210 L 751.77 214.78" fill="none" stroke="#666666" stroke-width="2" stroke-miterlimit="10" pointer-events="stroke" style="stroke: light-dark(rgb(102, 102, 102), rgb(149, 149, 149));"/><path d="M 757.76 214.94 L 749.66 218.73 L 751.77 214.78 L 749.87 210.73 Z" fill="#666666" stroke="#666666" stroke-width="2" stroke-miterlimit="10" pointer-events="all" style="fill: light-dark(rgb(102, 102, 102), rgb(149, 149, 149)); stroke: light-dark(rgb(102, 102, 102), rgb(149, 149, 149));"/></g></g><g data-cell-id="cmp"><g transform="translate(0.5,0.5)"><rect x="20" y="330" width="920" height="230" rx="34.5" ry="34.5" fill="#fafafa" stroke="#666666" pointer-events="all" style="fill: light-dark(rgb(250, 250, 250), rgb(22, 22, 22)); stroke: light-dark(rgb(102, 102, 102), rgb(149, 149, 149));"/></g><g><g><switch><foreignObject style="overflow: visible; text-align: left;" pointer-events="none" width="100%" height="100%" requiredFeatures="http://www.w3.org/TR/SVG11/feature#Extensibility"><div xmlns="http://www.w3.org/1999/xhtml" style="display: flex; align-items: unsafe flex-start; justify-content: unsafe center; width: 918px; height: 1px; padding-top: 345px; margin-left: 21px;"><div style="box-sizing: border-box; font-size: 0; text-align: center; color: #232F3E; "><div style="display: inline-block; font-size: 12px; font-family: Helvetica; color: light-dark(#232F3E, #bdc7d4); line-height: 1.2; pointer-events: all; font-weight: bold; white-space: normal; word-wrap: normal; ">🧭 REST API vs HTTP API vs Lambda 直URL</div></div></div></foreignObject><text x="480" y="357" fill="#232F3E" font-family="Helvetica" font-size="12px" text-anchor="middle" font-weight="bold">🧭 REST API vs HTTP API vs Lambda 直URL</text></switch></g></g></g><g data-cell-id="cmpn"><g transform="translate(0.5,0.5)"><rect x="40" y="365" width="900" height="190" fill="none" stroke="none" pointer-events="all"/></g><g><g><switch><foreignObject style="overflow: visible; text-align: left;" pointer-events="none" width="100%" height="100%" requiredFeatures="http://www.w3.org/TR/SVG11/feature#Extensibility"><div xmlns="http://www.w3.org/1999/xhtml" style="display: flex; align-items: unsafe flex-start; justify-content: unsafe flex-start; width: 898px; height: 1px; padding-top: 372px; margin-left: 42px;"><div style="box-sizing: border-box; font-size: 0; text-align: left; color: #232F3E; "><div style="display: inline-block; font-size: 11px; font-family: Helvetica; color: light-dark(#232F3E, #bdc7d4); line-height: 1.2; pointer-events: all; white-space: normal; word-wrap: normal; ">✓ API Gateway HTTP API: Webhook 受信に最適<br />  • REST API より最大 70% 低コスト / 低レイテンシ<br />  • Lambda プロキシ統合・JWT 認証をサポート<br />  • Webhook は単純なルーティング+処理で OK → HTTP API で十分<br /><br />✗ REST API: 使用量プラン/API キー/SDK 生成などフル機能が不要な場合は過剰<br />✗ Lambda Function URL: 単一関数のみ。複数 Webhook ルートには不適<br />✗ ALB + Lambda: 常時稼働の ALB 料金発生</div></div></div></foreignObject><text x="42" y="383" fill="#232F3E" font-family="Helvetica" font-size="11px">✓ API Gateway HTTP API: Webhook 受信に最適...</text></switch></g></g></g></g></g></g><switch><g requiredFeatures="http://www.w3.org/TR/SVG11/feature#Extensibility"/><a transform="translate(0,-5)" xlink:href="https://www.drawio.com/doc/faq/svg-export-text-problems" target="_blank"><text text-anchor="middle" font-size="10px" x="50%" y="100%">Text is not SVG - cannot display</text></a></switch></svg>