<?xml version="1.0" encoding="UTF-8"?>
<!DOCTYPE svg PUBLIC "-//W3C//DTD SVG 1.1//EN" "http://www.w3.org/Graphics/SVG/1.1/DTD/svg11.dtd">
<svg xmlns="http://www.w3.org/2000/svg" style="background: transparent; background-color: transparent; color-scheme: light;" xmlns:xlink="http://www.w3.org/1999/xlink" version="1.1" width="961px" height="570px" viewBox="0 0 961 570"><defs/><g><g data-cell-id="0"><g data-cell-id="1"><g data-cell-id="t1"><g transform="translate(0.5,0.5)"><rect x="0" y="0" width="960" height="28" fill="none" stroke="none" pointer-events="all"/></g><g><g><switch><foreignObject style="overflow: visible; text-align: left;" pointer-events="none" width="100%" height="100%" requiredFeatures="http://www.w3.org/TR/SVG11/feature#Extensibility"><div xmlns="http://www.w3.org/1999/xhtml" style="display: flex; align-items: unsafe center; justify-content: unsafe center; width: 958px; height: 1px; padding-top: 14px; margin-left: 1px;"><div style="box-sizing: border-box; font-size: 0; text-align: center; color: #232F3E; "><div style="display: inline-block; font-size: 15px; font-family: Helvetica; color: light-dark(#232F3E, #bdc7d4); line-height: 1.2; pointer-events: all; font-weight: bold; white-space: normal; word-wrap: normal; ">UDEMY-170: 低コスト文書保管 — S3 Glacier Deep Archive + Interface EP</div></div></div></foreignObject><text x="480" y="19" fill="#232F3E" font-family="Helvetica" font-size="15px" text-anchor="middle" font-weight="bold">UDEMY-170: 低コスト文書保管 — S3 Glacier Deep Archive + Interface EP</text></switch></g></g></g><g data-cell-id="g2"><g transform="translate(0.5,0.5)"><path d="M 20 68 L 240 68 L 240 428 L 20 428 Z" fill="#f5f5f5" stroke="#666666" stroke-miterlimit="10" pointer-events="all" style="fill: light-dark(rgb(245, 245, 245), rgb(26, 26, 26)); stroke: light-dark(rgb(102, 102, 102), rgb(149, 149, 149));"/><path d="M 20 68 L 45 68 L 45 93 L 20 93 Z M 29.89 71.57 C 29.7 71.57 29.54 71.73 29.54 71.93 L 29.54 77.46 L 26.92 77.46 C 26.72 77.46 26.56 77.62 26.56 77.82 L 26.56 89.07 C 26.56 89.17 26.6 89.26 26.67 89.32 C 26.74 89.39 26.83 89.43 26.92 89.43 L 38.08 89.43 C 38.17 89.43 38.26 89.39 38.33 89.32 C 38.4 89.26 38.44 89.17 38.44 89.07 L 38.44 77.82 C 38.44 77.62 38.28 77.46 38.08 77.46 L 35.46 77.46 L 35.46 71.93 C 35.46 71.83 35.43 71.74 35.36 71.68 C 35.29 71.61 35.2 71.57 35.11 71.57 Z M 30.25 72.29 L 34.75 72.29 L 34.75 77.82 C 34.75 78.02 34.91 78.18 35.11 78.18 L 37.72 78.18 L 37.72 88.71 L 27.28 88.71 L 27.28 78.18 L 29.89 78.18 C 29.99 78.18 30.08 78.14 30.15 78.07 C 30.21 78.01 30.25 77.92 30.25 77.82 Z M 32.19 73.94 L 32.19 75.79 L 32.91 75.79 L 32.91 73.94 Z M 32.19 76.91 L 32.19 78.77 L 32.91 78.77 L 32.91 76.91 Z M 28.84 79.65 L 28.84 81.51 L 29.56 81.51 L 29.56 79.65 Z M 32.19 79.65 L 32.19 81.51 L 32.91 81.51 L 32.91 79.65 Z M 35.54 79.65 L 35.54 81.51 L 36.26 81.51 L 36.26 79.65 Z M 28.84 82.63 L 28.84 84.49 L 29.56 84.49 L 29.56 82.63 Z M 32.19 82.63 L 32.19 84.49 L 32.91 84.49 L 32.91 82.63 Z M 35.54 82.63 L 35.54 84.49 L 36.26 84.49 L 36.26 82.63 Z M 28.84 85.61 L 28.84 87.46 L 29.56 87.46 L 29.56 85.61 Z M 32.19 85.61 L 32.19 87.46 L 32.91 87.46 L 32.91 85.61 Z M 35.54 85.61 L 35.54 87.46 L 36.26 87.46 L 36.26 85.61 Z" fill="#666666" stroke="none" pointer-events="all" style="fill: light-dark(rgb(102, 102, 102), rgb(149, 149, 149));"/></g><g><g><switch><foreignObject style="overflow: visible; text-align: left;" pointer-events="none" width="100%" height="100%" requiredFeatures="http://www.w3.org/TR/SVG11/feature#Extensibility"><div xmlns="http://www.w3.org/1999/xhtml" style="display: flex; align-items: unsafe flex-start; justify-content: unsafe flex-start; width: 188px; height: 1px; padding-top: 75px; margin-left: 52px;"><div style="box-sizing: border-box; font-size: 0; text-align: left; color: #232F3E; "><div style="display: inline-block; font-size: 12px; font-family: Helvetica; color: light-dark(#232F3E, #bdc7d4); line-height: 1.2; pointer-events: all; font-weight: bold; white-space: normal; word-wrap: normal; ">社内 (Remote)</div></div></div></foreignObject><text x="52" y="87" fill="#232F3E" font-family="Helvetica" font-size="12px" font-weight="bold">社内 (Remote)</text></switch></g></g></g><g data-cell-id="r3"><g transform="translate(0.5,0.5)"><rect x="50" y="168" width="160" height="80" rx="12" ry="12" fill="#ffffff" stroke="#666666" pointer-events="all" style="fill: light-dark(rgb(255, 255, 255), rgb(18, 18, 18)); stroke: light-dark(rgb(102, 102, 102), rgb(149, 149, 149));"/></g><g><g><switch><foreignObject style="overflow: visible; text-align: left;" pointer-events="none" width="100%" height="100%" requiredFeatures="http://www.w3.org/TR/SVG11/feature#Extensibility"><div xmlns="http://www.w3.org/1999/xhtml" style="display: flex; align-items: unsafe center; justify-content: unsafe center; width: 158px; height: 1px; padding-top: 208px; margin-left: 51px;"><div style="box-sizing: border-box; font-size: 0; text-align: center; color: #232F3E; "><div style="display: inline-block; font-size: 10px; font-family: Helvetica; color: light-dark(#232F3E, #bdc7d4); line-height: 1.2; pointer-events: all; font-weight: bold; white-space: normal; word-wrap: normal; ">従業員<br />(Client VPN)</div></div></div></foreignObject><text x="130" y="211" fill="#232F3E" font-family="Helvetica" font-size="10px" text-anchor="middle" font-weight="bold">従業員&#xa;(Client VPN)</text></switch></g></g></g><g data-cell-id="g4"><g transform="translate(0.5,0.5)"><path d="M 280 68 L 940 68 L 940 428 L 280 428 Z" fill="#e9f3e6" stroke="#248814" stroke-miterlimit="10" pointer-events="all" style="fill: light-dark(rgb(233, 243, 230), rgb(24, 33, 22)); stroke: light-dark(rgb(36, 136, 20), rgb(85, 171, 71));"/><path d="M 290.59 74.65 C 290.53 74.65 290.48 74.65 290.42 74.65 L 290.42 74.65 C 289.11 74.68 288.03 75.24 287.14 76.25 C 287.13 76.25 287.13 76.25 287.13 76.25 C 286.2 77.36 285.87 78.52 285.96 79.73 C 284.81 80.06 284.12 80.92 283.76 81.74 C 283.75 81.75 283.75 81.76 283.74 81.78 C 283.33 83.05 283.68 84.36 284.24 85.16 C 284.25 85.17 284.25 85.17 284.26 85.18 C 284.94 86.05 285.97 86.53 287.02 86.53 L 298.17 86.53 C 299.19 86.53 300.07 86.16 300.8 85.37 C 301.25 84.94 301.49 84.29 301.58 83.59 C 301.67 82.9 301.61 82.16 301.32 81.55 C 301.31 81.54 301.31 81.53 301.31 81.52 C 300.8 80.62 299.95 79.81 298.76 79.64 C 298.74 78.79 298.28 77.99 297.68 77.56 C 297.67 77.55 297.66 77.55 297.65 77.54 C 297.01 77.18 296.4 77.14 295.91 77.3 C 295.6 77.4 295.36 77.56 295.14 77.74 C 294.51 76.36 293.43 75.18 291.81 74.79 C 291.81 74.79 291.81 74.79 291.81 74.79 C 291.38 74.7 290.97 74.65 290.59 74.65 Z M 290.43 75.38 C 290.8 75.38 291.2 75.43 291.64 75.53 C 293.16 75.89 294.15 77.07 294.66 78.48 C 294.71 78.6 294.81 78.69 294.94 78.72 C 295.07 78.74 295.2 78.7 295.29 78.61 C 295.54 78.34 295.83 78.11 296.14 78.01 C 296.44 77.91 296.78 77.92 297.26 78.18 C 297.67 78.49 298.11 79.31 298.03 79.9 C 298.01 80.01 298.05 80.12 298.12 80.2 C 298.19 80.28 298.29 80.33 298.39 80.33 C 299.46 80.34 300.16 81.02 300.64 81.88 C 300.85 82.3 300.91 82.92 300.84 83.5 C 300.76 84.07 300.53 84.59 300.28 84.83 C 300.27 84.84 300.27 84.85 300.26 84.85 C 299.65 85.53 299.03 85.78 298.17 85.78 L 287.02 85.78 C 286.2 85.78 285.39 85.41 284.85 84.73 C 284.44 84.13 284.14 83.02 284.46 82.02 C 284.79 81.27 285.36 80.55 286.41 80.36 C 286.6 80.32 286.74 80.14 286.71 79.94 C 286.56 78.79 286.8 77.81 287.7 76.74 C 288.49 75.85 289.33 75.39 290.43 75.38 Z M 292.2 78.7 C 291.77 78.7 291.4 78.93 291.13 79.21 C 290.85 79.5 290.64 79.85 290.64 80.25 L 290.64 80.71 L 290.14 80.71 C 290.04 80.71 289.94 80.75 289.87 80.82 C 289.8 80.89 289.76 80.98 289.76 81.08 L 289.76 83.7 C 289.76 83.8 289.8 83.89 289.87 83.96 C 289.94 84.03 290.04 84.07 290.14 84.07 L 294.16 84.07 C 294.26 84.07 294.35 84.03 294.42 83.96 C 294.49 83.89 294.53 83.8 294.53 83.7 L 294.53 81.08 C 294.53 80.98 294.49 80.89 294.42 80.82 C 294.35 80.75 294.26 80.71 294.16 80.71 L 293.68 80.71 L 293.68 80.25 C 293.68 79.84 293.47 79.47 293.21 79.2 C 292.94 78.92 292.61 78.7 292.2 78.7 Z M 292.2 79.45 C 292.29 79.45 292.5 79.54 292.67 79.72 C 292.83 79.89 292.93 80.11 292.93 80.25 L 292.93 80.71 L 291.39 80.71 L 291.39 80.25 C 291.39 80.15 291.49 79.91 291.66 79.74 C 291.83 79.56 292.06 79.45 292.2 79.45 Z M 290.51 81.46 L 293.78 81.46 L 293.78 83.32 L 290.51 83.32 Z M 280 93 L 280 68 L 305 68 L 305 93 Z" fill="#248814" stroke="none" pointer-events="all" style="fill: light-dark(rgb(36, 136, 20), rgb(85, 171, 71));"/></g><g><g><switch><foreignObject style="overflow: visible; text-align: left;" pointer-events="none" width="100%" height="100%" requiredFeatures="http://www.w3.org/TR/SVG11/feature#Extensibility"><div xmlns="http://www.w3.org/1999/xhtml" style="display: flex; align-items: unsafe flex-start; justify-content: unsafe flex-start; width: 628px; height: 1px; padding-top: 75px; margin-left: 312px;"><div style="box-sizing: border-box; font-size: 0; text-align: left; color: #232F3E; "><div style="display: inline-block; font-size: 12px; font-family: Helvetica; color: light-dark(#232F3E, #bdc7d4); line-height: 1.2; pointer-events: all; font-weight: bold; white-space: normal; word-wrap: normal; ">VPC (社内接続用)</div></div></div></foreignObject><text x="312" y="87" fill="#232F3E" font-family="Helvetica" font-size="12px" font-weight="bold">VPC (社内接続用)</text></switch></g></g></g><g data-cell-id="r5"><g><rect x="310" y="118" width="150" height="60" rx="9" ry="9" fill="#fff5eb" stroke="#ed7100" stroke-width="2" pointer-events="all" style="fill: light-dark(rgb(255, 245, 235), rgb(32, 24, 15)); stroke: light-dark(rgb(237, 113, 0), rgb(216, 109, 12));"/></g><g><g><switch><foreignObject style="overflow: visible; text-align: left;" pointer-events="none" width="100%" height="100%" requiredFeatures="http://www.w3.org/TR/SVG11/feature#Extensibility"><div xmlns="http://www.w3.org/1999/xhtml" style="display: flex; align-items: unsafe center; justify-content: unsafe center; width: 148px; height: 1px; padding-top: 148px; margin-left: 311px;"><div style="box-sizing: border-box; font-size: 0; text-align: center; color: #232F3E; "><div style="display: inline-block; font-size: 10px; font-family: Helvetica; color: light-dark(#232F3E, #bdc7d4); line-height: 1.2; pointer-events: all; font-weight: bold; white-space: normal; word-wrap: normal; ">Client VPN<br />Endpoint</div></div></div></foreignObject><text x="385" y="151" fill="#232F3E" font-family="Helvetica" font-size="10px" text-anchor="middle" font-weight="bold">Client VPN...</text></switch></g></g></g><g data-cell-id="a6"><g><path d="M 240 208 L 303.75 153.36" fill="none" stroke="#3b48cc" stroke-width="2" stroke-miterlimit="10" pointer-events="stroke" style="stroke: light-dark(rgb(59, 72, 204), rgb(152, 163, 255));"/><path d="M 308.3 149.46 L 304.83 157.7 L 303.75 153.36 L 299.63 151.62 Z" fill="#3b48cc" stroke="#3b48cc" stroke-width="2" stroke-miterlimit="10" pointer-events="all" style="fill: light-dark(rgb(59, 72, 204), rgb(152, 163, 255)); stroke: light-dark(rgb(59, 72, 204), rgb(152, 163, 255));"/></g><g><g><switch><foreignObject style="overflow: visible; text-align: left;" pointer-events="none" width="100%" height="100%" requiredFeatures="http://www.w3.org/TR/SVG11/feature#Extensibility"><div xmlns="http://www.w3.org/1999/xhtml" style="display: flex; align-items: unsafe center; justify-content: unsafe center; width: 1px; height: 1px; padding-top: 178px; margin-left: 275px;"><div style="box-sizing: border-box; font-size: 0; text-align: center; color: #000000; background-color: #FFFFFF; "><div style="display: inline-block; font-size: 10px; font-family: Helvetica; color: light-dark(#000000, #ffffff); line-height: 1.2; pointer-events: all; background-color: light-dark(#FFFFFF, #121212); white-space: nowrap; ">VPN</div></div></div></foreignObject><text x="275" y="181" fill="light-dark(#000000, #ffffff)" font-family="Helvetica" font-size="10px" text-anchor="middle">VPN</text></switch></g></g></g><g data-cell-id="i7"><g transform="translate(0.5,0.5)"><path d="M 530 128 L 580 128 L 580 178 L 530 178 Z" fill="#8c4fff" stroke="none" pointer-events="all" style="fill: light-dark(rgb(140, 79, 255), rgb(177, 125, 255));"/><path d="M 556.74 153.87 L 558.47 153.87 L 558.47 152.13 L 556.74 152.13 Z M 554.13 153.87 L 555.87 153.87 L 555.87 152.13 L 554.13 152.13 Z M 551.53 153.87 L 553.26 153.87 L 553.26 152.13 L 551.53 152.13 Z M 567.11 159.37 L 561.12 164.64 L 561.12 141.48 L 567.11 146.75 Z M 561.31 139.3 C 561.13 139.22 560.32 138.98 559.77 139.29 L 559.3 139.55 L 559.3 166.57 L 559.77 166.83 C 559.97 166.95 560.22 166.99 560.45 166.99 C 560.84 166.99 561.2 166.88 561.31 166.83 L 561.45 166.77 L 568.24 160.79 C 568.66 160.54 568.93 160.1 568.93 159.62 L 568.93 146.5 C 568.93 146.02 568.66 145.58 568.24 145.33 L 561.45 139.35 Z M 548.88 164.64 L 542.89 159.37 L 542.89 146.75 L 548.88 141.48 Z M 548.69 139.3 L 548.55 139.35 L 541.76 145.33 C 541.34 145.58 541.07 146.02 541.07 146.5 L 541.07 159.62 C 541.07 160.1 541.34 160.54 541.76 160.79 L 548.55 166.77 L 548.69 166.83 C 548.8 166.88 549.16 166.99 549.55 166.99 C 549.78 166.99 550.02 166.95 550.23 166.83 L 550.7 166.57 L 550.7 139.55 L 550.23 139.29 C 549.68 138.98 548.87 139.22 548.69 139.3 Z M 573.18 160.53 L 562.53 171.18 L 547.47 171.18 L 536.82 160.53 L 536.82 145.47 L 547.47 134.82 L 562.53 134.82 L 573.18 145.47 Z M 563.28 133 L 546.72 133 L 535 144.72 L 535 161.28 L 546.72 173 L 563.28 173 L 575 161.28 L 575 144.72 Z" fill="#ffffff" stroke="none" pointer-events="all" style="fill: light-dark(rgb(255, 255, 255), rgb(18, 18, 18));"/></g></g><g data-cell-id="t8"><g transform="translate(0.5,0.5)"><rect x="495" y="186" width="120" height="22" fill="none" stroke="none" pointer-events="all"/></g><g><g><switch><foreignObject style="overflow: visible; text-align: left;" pointer-events="none" width="100%" height="100%" requiredFeatures="http://www.w3.org/TR/SVG11/feature#Extensibility"><div xmlns="http://www.w3.org/1999/xhtml" style="display: flex; align-items: unsafe center; justify-content: unsafe center; width: 118px; height: 1px; padding-top: 197px; margin-left: 496px;"><div style="box-sizing: border-box; font-size: 0; text-align: center; color: #232F3E; "><div style="display: inline-block; font-size: 10px; font-family: Helvetica; color: light-dark(#232F3E, #bdc7d4); line-height: 1.2; pointer-events: all; white-space: normal; word-wrap: normal; ">Interface EP<br />for S3</div></div></div></foreignObject><text x="555" y="200" fill="#232F3E" font-family="Helvetica" font-size="10px" text-anchor="middle">Interface EP...</text></switch></g></g></g><g data-cell-id="a9"><g><path d="M 460 148 L 521.76 148" fill="none" stroke="#3b48cc" stroke-width="2" stroke-miterlimit="10" pointer-events="stroke" style="stroke: light-dark(rgb(59, 72, 204), rgb(152, 163, 255));"/><path d="M 527.76 148 L 519.76 152 L 521.76 148 L 519.76 144 Z" fill="#3b48cc" stroke="#3b48cc" stroke-width="2" stroke-miterlimit="10" pointer-events="all" style="fill: light-dark(rgb(59, 72, 204), rgb(152, 163, 255)); stroke: light-dark(rgb(59, 72, 204), rgb(152, 163, 255));"/></g></g><g data-cell-id="i10"><g transform="translate(0.5,0.5)"><path d="M 730 128 L 780 128 L 780 178 L 730 178 Z" fill="#7aa116" stroke="none" pointer-events="all" style="fill: light-dark(rgb(122, 161, 22), rgb(97, 130, 11));"/><path d="M 769.92 155.07 L 770.2 153.13 C 772.73 154.65 772.76 155.28 772.76 155.29 C 772.76 155.3 772.32 155.66 769.92 155.07 Z M 768.54 154.68 C 764.16 153.36 758.08 150.56 755.61 149.4 C 755.61 149.39 755.62 149.38 755.62 149.37 C 755.62 148.43 754.85 147.66 753.9 147.66 C 752.95 147.66 752.18 148.43 752.18 149.37 C 752.18 150.32 752.95 151.09 753.9 151.09 C 754.32 151.09 754.69 150.93 754.99 150.69 C 757.89 152.06 763.93 154.81 768.33 156.11 L 766.59 168.4 C 766.59 168.43 766.58 168.47 766.58 168.5 C 766.58 169.58 761.79 171.57 753.97 171.57 C 746.05 171.57 741.21 169.58 741.21 168.5 C 741.21 168.47 741.21 168.44 741.21 168.4 L 737.57 141.83 C 740.72 144 747.49 145.14 753.97 145.14 C 760.44 145.14 767.2 144 770.36 141.84 Z M 737.18 139.06 C 737.24 138.12 742.64 134.43 753.97 134.43 C 765.3 134.43 770.7 138.12 770.76 139.06 L 770.76 139.38 C 770.13 141.48 763.13 143.71 753.97 143.71 C 744.79 143.71 737.79 141.48 737.18 139.37 Z M 772.18 139.07 C 772.18 136.6 765.09 133 753.97 133 C 742.85 133 735.76 136.6 735.76 139.07 L 735.82 139.61 L 739.79 168.56 C 739.88 171.79 748.51 173 753.97 173 C 760.73 173 767.92 171.44 768.01 168.56 L 769.72 156.49 C 770.68 156.72 771.46 156.83 772.09 156.83 C 772.93 156.83 773.5 156.63 773.85 156.21 C 774.14 155.88 774.24 155.47 774.16 155.03 C 773.98 154.04 772.8 152.97 770.41 151.61 L 772.11 139.64 Z" fill="#ffffff" stroke="none" pointer-events="all" style="fill: light-dark(rgb(255, 255, 255), rgb(18, 18, 18));"/></g></g><g data-cell-id="t11"><g transform="translate(0.5,0.5)"><rect x="695" y="186" width="120" height="22" fill="none" stroke="none" pointer-events="all"/></g><g><g><switch><foreignObject style="overflow: visible; text-align: left;" pointer-events="none" width="100%" height="100%" requiredFeatures="http://www.w3.org/TR/SVG11/feature#Extensibility"><div xmlns="http://www.w3.org/1999/xhtml" style="display: flex; align-items: unsafe center; justify-content: unsafe center; width: 118px; height: 1px; padding-top: 197px; margin-left: 696px;"><div style="box-sizing: border-box; font-size: 0; text-align: center; color: #232F3E; "><div style="display: inline-block; font-size: 10px; font-family: Helvetica; color: light-dark(#232F3E, #bdc7d4); line-height: 1.2; pointer-events: all; white-space: normal; word-wrap: normal; ">S3 バケット</div></div></div></foreignObject><text x="755" y="200" fill="#232F3E" font-family="Helvetica" font-size="10px" text-anchor="middle">S3 バケット</text></switch></g></g></g><g data-cell-id="a12"><g><path d="M 580 153 L 721.76 153" fill="none" stroke="#248814" stroke-width="2" stroke-miterlimit="10" pointer-events="stroke" style="stroke: light-dark(rgb(36, 136, 20), rgb(85, 171, 71));"/><path d="M 727.76 153 L 719.76 157 L 721.76 153 L 719.76 149 Z" fill="#248814" stroke="#248814" stroke-width="2" stroke-miterlimit="10" pointer-events="all" style="fill: light-dark(rgb(36, 136, 20), rgb(85, 171, 71)); stroke: light-dark(rgb(36, 136, 20), rgb(85, 171, 71));"/></g><g><g><switch><foreignObject style="overflow: visible; text-align: left;" pointer-events="none" width="100%" height="100%" requiredFeatures="http://www.w3.org/TR/SVG11/feature#Extensibility"><div xmlns="http://www.w3.org/1999/xhtml" style="display: flex; align-items: unsafe center; justify-content: unsafe center; width: 1px; height: 1px; padding-top: 153px; margin-left: 655px;"><div style="box-sizing: border-box; font-size: 0; text-align: center; color: #000000; background-color: #FFFFFF; "><div style="display: inline-block; font-size: 10px; font-family: Helvetica; color: light-dark(#000000, #ffffff); line-height: 1.2; pointer-events: all; background-color: light-dark(#FFFFFF, #121212); white-space: nowrap; ">PrivateLink</div></div></div></foreignObject><text x="655" y="156" fill="light-dark(#000000, #ffffff)" font-family="Helvetica" font-size="10px" text-anchor="middle">PrivateLink</text></switch></g></g></g><g data-cell-id="n13"><g transform="translate(0.5,0.5)"><rect x="480" y="228" width="420" height="180" rx="27" ry="27" fill="#ffffff" stroke="#248814" pointer-events="all" style="fill: light-dark(rgb(255, 255, 255), rgb(18, 18, 18)); stroke: light-dark(rgb(36, 136, 20), rgb(85, 171, 71));"/></g><g><g><switch><foreignObject style="overflow: visible; text-align: left;" pointer-events="none" width="100%" height="100%" requiredFeatures="http://www.w3.org/TR/SVG11/feature#Extensibility"><div xmlns="http://www.w3.org/1999/xhtml" style="display: flex; align-items: unsafe flex-start; justify-content: unsafe flex-start; width: 402px; height: 1px; padding-top: 241px; margin-left: 490px;"><div style="box-sizing: border-box; font-size: 0; text-align: left; color: #232F3E; "><div style="display: inline-block; font-size: 10px; font-family: Helvetica; color: light-dark(#232F3E, #bdc7d4); line-height: 1.2; pointer-events: all; white-space: normal; word-wrap: normal; ">🗄 ストレージクラス選択:<br />・アクセス頻度: 非常に低い<br />・取得まで 数時間〜数十時間 許容<br />→ 🎯 S3 Glacier Deep Archive (Bulk取得は12〜48h)<br /><br />コスト比較 ($/GB-月):<br />  Standard:              $0.023<br />  Standard-IA:            $0.0125<br />  Glacier Instant:        $0.004<br />  Glacier Flexible:       $0.0036<br />  Deep Archive:           $0.00099 ← 最安</div></div></div></foreignObject><text x="490" y="251" fill="#232F3E" font-family="Helvetica" font-size="10px">🗄 ストレージクラス選択:...</text></switch></g></g></g><g data-cell-id="n14"><g transform="translate(0.5,0.5)"><rect x="20" y="448" width="920" height="120" rx="18" ry="18" fill="#ffffff" stroke="#232f3e" pointer-events="all" style="fill: light-dark(rgb(255, 255, 255), rgb(18, 18, 18)); stroke: light-dark(rgb(35, 47, 62), rgb(189, 199, 212));"/></g><g><g><switch><foreignObject style="overflow: visible; text-align: left;" pointer-events="none" width="100%" height="100%" requiredFeatures="http://www.w3.org/TR/SVG11/feature#Extensibility"><div xmlns="http://www.w3.org/1999/xhtml" style="display: flex; align-items: unsafe flex-start; justify-content: unsafe flex-start; width: 902px; height: 1px; padding-top: 461px; margin-left: 30px;"><div style="box-sizing: border-box; font-size: 0; text-align: left; color: #232F3E; "><div style="display: inline-block; font-size: 10px; font-family: Helvetica; color: light-dark(#232F3E, #bdc7d4); line-height: 1.2; pointer-events: all; white-space: normal; word-wrap: normal; ">◾ 要件: ① インターネット非公開、② アクセス頻度 極低、③ 取得時間許容、④ 最低コスト<br />◾ 解法: (D) S3 Glacier Deep Archive + Interface EP for S3 + Client VPN<br />  ・Client VPN → VPC → Interface EP → S3 (全経路プライベート)<br />  ・ストレージクラスは Deep Archive が最安 (取得時間要件を満たすため選択可)</div></div></div></foreignObject><text x="30" y="471" fill="#232F3E" font-family="Helvetica" font-size="10px">◾ 要件: ① インターネット非公開、② アクセス頻度 極低、③ 取得時間許容、④ 最低コスト...</text></switch></g></g></g></g></g></g><switch><g requiredFeatures="http://www.w3.org/TR/SVG11/feature#Extensibility"/><a transform="translate(0,-5)" xlink:href="https://www.drawio.com/doc/faq/svg-export-text-problems" target="_blank"><text text-anchor="middle" font-size="10px" x="50%" y="100%">Text is not SVG - cannot display</text></a></switch></svg>